<svg xmlns="http://www.w3.org/2000/svg" xmlns:v="https://svgstorm.com"
viewBox = "0 0 1248 441"
width="1248"
height="441">
<g fill="None" fill-opacity="0.0" stroke="#FCFCFC" stroke-opacity="1.00" stroke-width="0.3"><path d="
M 0.00 441.00 
L 1248.00 441.00
L 1248.00 0.00
L 0.00 0.00
L 0.00 441.00
M 346.00 170.00 
C 370.54 171.67 371.00 209.64 346.00 211.00
C 339.83 212.00 331.88 212.62 325.00 212.00
C 322.31 209.41 324.09 200.99 324.00 197.00 C 323.91 193.01 322.73 184.09 325.00 181.00
C 325.22 180.70 325.79 180.27 326.00 180.00
C 328.65 176.60 333.03 171.66 337.00 170.00
C 340.21 168.50 342.97 169.46 346.00 170.00
M 427.00 171.00 
C 429.69 173.52 431.95 178.83 434.00 182.00
C 435.97 185.05 437.88 188.09 440.00 191.00
C 439.69 189.39 441.36 183.54 441.00 181.00 C 440.64 178.46 440.04 171.37 442.00 170.00
C 444.68 168.12 450.99 171.41 454.00 170.00
C 454.00 183.67 454.00 197.33 454.00 211.00
C 452.35 213.35 443.87 212.18 442.00 211.00
C 440.28 209.91 440.92 209.43 440.00 208.00
C 437.56 204.24 434.52 199.71 432.00 196.00
C 430.41 193.67 427.57 191.31 426.00 189.00
C 426.56 191.84 426.35 197.21 426.00 200.00 C 425.65 202.79 427.50 208.86 426.00 211.00
C 424.56 213.06 415.55 212.55 414.00 211.00
C 407.69 204.69 416.71 191.63 413.00 183.00 C 409.29 174.37 417.74 162.36 427.00 171.00
M 692.00 172.00 
C 692.98 172.69 693.92 173.53 695.00 174.00
C 694.50 177.91 689.56 179.57 688.00 183.00
C 683.61 180.33 678.61 179.51 674.00 182.00
C 672.37 183.02 669.26 187.19 669.00 189.00
C 668.55 192.10 671.15 198.38 674.00 200.00
C 679.30 202.31 688.02 201.20 690.00 195.00
C 680.26 199.52 679.70 185.22 687.00 186.00 C 694.30 186.78 695.22 192.67 702.00 194.00
C 699.42 216.32 663.98 217.94 659.00 196.00
C 658.18 192.84 658.68 190.59 659.00 188.00
C 659.30 185.64 659.17 184.18 660.00 182.00
C 661.32 178.53 664.24 176.26 667.00 174.00
C 673.49 168.67 684.40 166.64 692.00 172.00
M 746.00 170.00 
C 747.26 183.89 745.05 198.09 746.00 212.00
C 742.17 211.37 737.01 213.28 734.00 211.00
C 731.71 208.71 732.69 199.41 733.00 196.00
C 728.00 196.00 723.00 196.00 718.00 196.00
C 718.00 201.00 718.00 206.00 718.00 211.00
C 716.71 212.84 707.25 212.79 706.00 211.00
C 702.81 206.44 707.59 196.73 706.00 191.00 C 704.41 185.27 707.19 176.05 706.00 170.00
C 710.00 170.00 714.00 170.00 718.00 170.00
C 718.00 175.00 718.00 180.00 718.00 185.00
C 723.33 185.00 728.67 185.00 734.00 185.00
C 734.00 180.00 734.00 175.00 734.00 170.00
C 734.40 169.02 743.70 167.61 746.00 170.00
M 805.00 170.00 
C 805.33 173.64 804.75 177.36 805.00 181.00
C 797.67 181.00 790.33 181.00 783.00 181.00
C 783.00 182.00 783.00 183.00 783.00 184.00
C 786.54 183.68 801.11 182.31 803.00 185.00
C 811.29 196.85 789.11 197.87 783.00 196.00
C 783.00 197.33 783.00 198.67 783.00 200.00
C 788.45 202.04 799.83 196.83 804.00 201.00
C 805.73 202.73 805.69 209.31 804.00 211.00
C 800.96 214.04 786.46 212.28 783.00 211.00
C 779.54 209.72 774.36 205.01 772.00 202.00
C 768.78 197.87 768.78 185.76 771.00 181.00
C 772.77 177.21 779.38 171.69 783.00 170.00
C 786.33 168.44 802.21 167.10 805.00 170.00
M 409.00 210.00 
C 408.83 212.41 400.20 213.68 397.00 211.00
C 394.69 209.06 393.83 201.69 392.23 198.77 C 390.63 195.85 388.01 189.37 388.00 186.00
C 386.68 190.17 383.53 194.96 382.00 199.00
C 380.82 202.13 380.96 208.69 378.00 211.00
C 374.67 213.61 366.18 212.47 366.00 210.00
C 365.70 205.83 369.56 198.95 371.00 195.00
C 372.85 189.92 375.18 185.07 377.00 180.00
C 378.16 176.76 379.74 173.55 380.00 170.00
C 384.33 170.00 388.67 170.00 393.00 170.00
C 396.93 171.49 400.30 184.35 401.78 189.22 C 403.26 194.10 409.38 204.74 409.00 210.00
M 482.00 181.00 
C 482.63 182.83 482.00 186.05 482.00 188.00
C 482.00 189.67 482.00 191.33 482.00 193.00
C 482.00 196.62 483.98 208.17 482.00 211.00
C 480.71 212.84 471.25 212.79 470.00 211.00
C 468.13 208.33 470.00 197.42 470.00 194.00
C 470.00 192.00 470.00 190.00 470.00 188.00
C 470.00 185.67 470.00 183.33 470.00 181.00
C 466.00 181.00 462.00 181.00 458.00 181.00
C 458.00 177.33 458.00 173.67 458.00 170.00
C 462.00 170.00 466.00 170.00 470.00 170.00
C 470.50 170.00 471.00 170.00 471.00 170.00
C 478.67 170.00 486.33 170.00 494.00 170.00
C 494.00 173.67 494.00 177.33 494.00 181.00
C 490.00 181.00 486.00 181.00 482.00 181.00
M 509.00 181.00 
C 509.00 182.00 509.00 183.00 509.00 184.00
C 512.54 183.68 527.11 182.31 529.00 185.00
C 537.29 196.85 515.11 197.87 509.00 196.00
C 509.00 197.33 509.00 198.67 509.00 200.00
C 513.79 202.32 527.82 196.46 531.00 201.00
C 532.13 202.62 531.09 209.91 530.00 211.00
C 527.01 213.99 512.39 212.35 509.00 211.00
C 503.02 208.62 497.46 202.05 497.00 196.00
C 496.71 192.23 496.58 187.76 497.00 184.00
C 497.47 179.75 504.29 171.41 509.00 170.00
C 515.73 167.99 524.12 171.51 531.00 170.00
C 531.00 173.67 531.00 177.33 531.00 181.00
C 523.67 181.00 516.33 181.00 509.00 181.00
M 601.00 211.00 
C 598.15 212.12 590.63 213.34 588.00 211.00
C 585.74 208.99 585.99 202.84 584.08 199.92 C 582.16 197.01 580.67 191.49 580.00 188.00
C 580.28 187.30 576.50 189.25 576.68 191.68 C 576.86 194.10 574.83 196.81 574.00 199.00
C 572.89 201.93 571.99 207.70 570.00 210.00
C 567.59 212.79 557.51 212.92 557.00 211.00
C 555.89 206.86 561.54 197.95 563.00 194.00
C 564.71 189.37 567.45 184.36 569.00 180.00
C 571.51 172.94 573.31 165.95 584.00 170.00
C 589.74 172.17 589.69 184.56 592.98 190.02 C 596.26 195.49 597.72 205.19 601.00 211.00
M 612.00 209.00 
C 609.50 207.01 603.86 204.39 603.00 201.00
C 601.48 197.75 601.34 189.86 602.00 186.00 C 602.66 182.14 599.86 172.20 603.00 170.00
C 605.68 168.12 611.99 171.41 615.00 170.00
C 615.00 180.00 615.00 190.00 615.00 200.00
C 620.96 201.91 629.28 197.45 635.00 200.00 C 640.72 202.55 636.58 215.07 630.00 212.00 C 623.41 208.93 616.16 216.20 612.00 209.00
M 653.00 181.00 
C 653.00 181.50 653.00 182.00 653.00 182.00
C 653.00 186.06 653.89 192.14 653.00 196.00 C 652.11 199.86 655.17 207.90 653.00 211.00
C 651.71 212.84 642.25 212.79 641.00 211.00
C 638.64 207.62 641.89 199.31 641.00 195.00 C 640.11 190.69 641.00 183.57 641.00 179.00
C 641.00 176.63 640.01 171.39 642.00 170.00
C 644.46 168.28 650.24 171.29 653.00 170.00
C 653.00 173.67 653.00 177.33 653.00 181.00
M 765.00 181.00 
C 765.00 181.50 765.00 182.00 765.00 182.00
C 765.00 186.06 765.89 192.14 765.00 196.00 C 764.11 199.86 767.17 207.90 765.00 211.00
C 763.71 212.84 754.25 212.79 753.00 211.00
C 750.64 207.62 753.89 199.31 753.00 195.00 C 752.11 190.69 753.00 183.57 753.00 179.00
C 753.00 176.63 752.01 171.39 754.00 170.00
C 756.46 168.28 762.24 171.29 765.00 170.00
C 765.00 173.67 765.00 177.33 765.00 181.00
M 839.00 174.00 
C 840.04 175.04 841.23 176.61 842.00 178.00
C 843.04 179.88 843.88 181.52 844.00 184.00
C 844.36 191.44 839.60 198.73 832.00 200.00
C 833.09 204.63 838.82 206.87 841.00 211.00
C 840.97 212.46 827.11 213.38 825.00 210.00
C 824.66 209.45 824.37 208.46 824.00 208.00
C 822.57 206.22 819.88 204.32 819.00 202.00
C 818.13 199.72 818.98 191.48 822.00 190.00
C 824.76 188.65 836.80 191.41 833.00 183.00
C 831.85 182.80 830.17 181.42 829.00 181.00
C 822.31 179.57 814.77 182.08 808.00 181.00
C 808.00 180.00 808.00 179.00 808.00 178.00
C 807.22 175.59 808.59 172.48 808.00 170.00
C 818.11 171.56 831.35 166.27 839.00 174.00
M 849.00 211.00 
C 846.87 207.95 849.72 200.99 849.00 197.00 C 848.28 193.01 849.00 186.24 849.00 182.00
C 849.00 179.24 847.74 171.58 850.00 170.00
C 850.83 169.42 860.17 169.42 861.00 170.00
C 865.22 172.96 860.62 184.60 862.00 190.00 C 863.38 195.40 860.97 206.12 862.00 212.00
C 857.83 211.36 852.34 213.29 849.00 211.00
M 608.00 254.00 
C 606.37 248.41 606.31 239.52 608.00 234.00
C 609.63 239.59 609.69 248.48 608.00 254.00
M 540.00 239.00 
C 524.51 229.13 523.05 258.88 540.00 250.00
C 536.39 257.24 524.84 253.00 524.03 244.97 C 523.21 236.95 536.59 230.55 540.00 239.00
M 622.00 241.00 
C 614.37 241.02 616.04 251.28 622.00 253.00
C 612.26 255.88 613.94 240.66 615.00 236.00
C 617.59 237.38 617.57 240.96 622.00 241.00
M 602.00 240.00 
C 604.00 243.53 600.50 250.18 602.00 254.00
C 599.01 249.24 597.71 255.00 592.78 253.22 C 587.85 251.44 588.99 244.49 589.00 240.00
C 594.28 239.46 590.98 245.66 592.00 249.00 C 593.02 252.34 600.56 251.60 599.00 247.00
C 599.12 246.50 599.35 235.32 602.00 240.00
M 553.00 240.00 
C 560.57 242.95 554.20 257.88 546.31 252.69 C 538.41 247.50 544.64 236.74 553.00 240.00
M 563.00 245.00 
C 562.87 245.35 562.77 257.90 560.00 253.00
C 558.14 249.72 561.39 243.54 560.00 240.00
C 562.61 243.93 567.63 237.71 571.22 240.78 C 574.82 243.84 573.03 250.69 572.00 254.00
C 572.38 249.03 568.65 236.19 563.00 245.00
M 586.00 241.00 
C 584.34 243.54 577.81 239.83 579.00 245.00
C 592.69 244.80 580.64 260.95 576.00 250.00
C 581.97 253.72 586.69 249.70 578.97 247.03 C 571.26 244.35 582.10 235.76 586.00 241.00
M 626.00 254.00 
C 624.40 250.40 624.29 243.53 626.00 240.00
C 627.60 243.60 627.71 250.47 626.00 254.00
M 644.00 254.00 
C 641.42 251.23 645.43 241.87 638.97 242.03 C 632.51 242.18 635.23 250.97 633.00 254.00
C 630.90 249.80 632.50 244.61 632.00 240.00
C 634.61 243.93 639.63 237.71 643.22 240.78 C 646.82 243.84 645.03 250.69 644.00 254.00
M 657.00 241.00 
C 652.25 240.14 646.17 249.34 654.08 250.92 C 661.99 252.50 655.41 239.15 662.00 240.00
C 664.38 248.99 660.51 264.27 649.00 257.00
C 651.29 253.98 660.64 259.65 659.00 251.00
C 647.55 261.12 643.92 234.36 657.00 241.00 Z"/>
</g>
<g fill="None" fill-opacity="0.0" stroke="#BCB5C5" stroke-opacity="1.00" stroke-width="0.3"><path d="
M 337.00 170.00 
C 339.87 169.74 343.12 169.80 346.00 170.00
C 342.97 169.46 340.21 168.50 337.00 170.00 Z"/>
</g>
<g fill="None" fill-opacity="0.0" stroke="#C4BCCE" stroke-opacity="1.00" stroke-width="0.3"><path d="
M 414.00 211.00 
C 415.23 205.19 412.37 196.52 414.00 191.00 C 415.63 185.48 410.87 175.47 414.00 171.00
C 415.57 168.76 424.82 169.55 427.00 171.00
C 417.74 162.36 409.29 174.37 413.00 183.00 C 416.71 191.63 407.69 204.69 414.00 211.00 Z"/>
</g>
<g fill="None" fill-opacity="0.0" stroke="#9282A9" stroke-opacity="1.00" stroke-width="0.3"><path d="
M 667.00 174.00 
C 670.21 173.04 678.05 174.56 681.00 174.00 C 683.95 173.44 694.07 175.44 692.00 172.00
C 684.40 166.64 673.49 168.67 667.00 174.00 Z"/>
</g>
<g fill="None" fill-opacity="0.0" stroke="#CCC5D6" stroke-opacity="1.00" stroke-width="0.3"><path d="
M 734.00 170.00 
C 736.95 170.96 741.87 170.00 745.00 170.00
C 745.50 170.00 746.00 170.00 746.00 170.00
C 743.70 167.61 734.40 169.02 734.00 170.00 Z"/>
</g>
<g fill="None" fill-opacity="0.0" stroke="#BFB8CA" stroke-opacity="1.00" stroke-width="0.3"><path d="
M 783.00 170.00 
C 790.00 170.00 797.00 170.00 804.00 170.00
C 804.50 170.00 805.00 170.00 805.00 170.00
C 802.21 167.10 786.33 168.44 783.00 170.00 Z"/>
</g>
<g fill="None" fill-opacity="0.0" stroke="#84719D" stroke-opacity="1.00" stroke-width="0.3"><path d="
M 326.00 180.00 
C 329.27 179.53 332.72 180.35 336.00 180.00
C 336.59 177.16 334.78 173.02 337.00 171.00
C 337.00 170.50 337.00 170.00 337.00 170.00
C 333.03 171.66 328.65 176.60 326.00 180.00 Z"/>
</g>
<g fill="None" fill-opacity="0.0" stroke="#2C144D" stroke-opacity="1.00" stroke-width="0.3"><path d="
M 337.00 171.00 
C 337.00 174.33 337.00 177.67 337.00 181.00
C 351.20 175.81 361.57 195.08 346.00 200.00
C 343.40 200.82 340.24 201.30 337.00 201.00
C 333.30 200.65 329.07 199.19 325.00 200.00
C 325.00 203.67 325.00 207.33 325.00 211.00
C 331.94 210.37 339.04 211.38 346.00 211.00
C 371.00 209.64 370.54 171.67 346.00 170.00
C 343.12 169.80 339.87 169.74 337.00 170.00
C 337.00 170.00 337.00 170.50 337.00 171.00 Z"/>
</g>
<g fill="None" fill-opacity="0.0" stroke="#745F91" stroke-opacity="1.00" stroke-width="0.3"><path d="
M 377.00 180.00 
C 381.02 178.49 385.48 185.04 389.00 182.00
C 390.26 177.98 391.89 174.10 393.00 170.00
C 388.67 170.00 384.33 170.00 380.00 170.00
C 379.74 173.55 378.16 176.76 377.00 180.00 Z"/>
</g>
<g fill="None" fill-opacity="0.0" stroke="#2F1652" stroke-opacity="1.00" stroke-width="0.3"><path d="
M 389.00 182.00 
C 388.59 183.30 388.41 184.71 388.00 186.00
C 388.01 189.37 390.63 195.85 392.23 198.77 C 393.83 201.69 394.69 209.06 397.00 211.00
C 399.98 209.84 407.13 212.99 409.00 210.00
C 409.38 204.74 403.26 194.10 401.78 189.22 C 400.30 184.35 396.93 171.49 393.00 170.00
C 391.89 174.10 390.26 177.98 389.00 182.00 Z"/>
</g>
<g fill="None" fill-opacity="0.0" stroke="#786494" stroke-opacity="1.00" stroke-width="0.3"><path d="
M 414.00 171.00 
C 419.23 175.86 422.10 183.26 426.00 189.00
C 427.57 191.31 430.41 193.67 432.00 196.00
C 431.63 192.35 434.44 185.48 434.00 182.00
C 431.95 178.83 429.69 173.52 427.00 171.00
C 424.82 169.55 415.57 168.76 414.00 171.00 Z"/>
</g>
<g fill="None" fill-opacity="0.0" stroke="#A89CB7" stroke-opacity="1.00" stroke-width="0.3"><path d="
M 440.00 191.00 
C 440.28 191.39 441.94 192.86 442.00 193.00
C 443.71 185.73 440.72 177.37 442.00 170.00
C 440.04 171.37 440.64 178.46 441.00 181.00 C 441.36 183.54 439.69 189.39 440.00 191.00 Z"/>
</g>
<g fill="None" fill-opacity="0.0" stroke="#371E5B" stroke-opacity="1.00" stroke-width="0.3"><path d="
M 442.00 193.00 
C 441.40 195.57 438.78 202.39 440.00 208.00
C 440.92 209.43 440.28 209.91 442.00 211.00
C 445.42 212.41 450.43 209.94 454.00 211.00
C 454.00 197.33 454.00 183.67 454.00 170.00
C 450.99 171.41 444.68 168.12 442.00 170.00
C 440.72 177.37 443.71 185.73 442.00 193.00 Z"/>
</g>
<g fill="None" fill-opacity="0.0" stroke="#2F1651" stroke-opacity="1.00" stroke-width="0.3"><path d="
M 470.00 181.00 
C 470.00 177.38 469.67 173.60 470.00 170.00
C 466.00 170.00 462.00 170.00 458.00 170.00
C 458.00 173.67 458.00 177.33 458.00 181.00
C 462.00 181.00 466.00 181.00 470.00 181.00 Z"/>
</g>
<g fill="None" fill-opacity="0.0" stroke="#7D6998" stroke-opacity="1.00" stroke-width="0.3"><path d="
M 470.00 181.00 
C 470.00 183.33 470.00 185.67 470.00 188.00
C 474.00 188.00 478.00 188.00 482.00 188.00
C 482.00 186.05 482.63 182.83 482.00 181.00
C 478.43 179.93 473.03 172.91 471.00 170.00
C 471.00 170.00 470.50 170.00 470.00 170.00
C 469.67 173.60 470.00 177.38 470.00 181.00 Z"/>
</g>
<g fill="None" fill-opacity="0.0" stroke="#32165A" stroke-opacity="1.00" stroke-width="0.3"><path d="
M 482.00 181.00 
C 486.00 181.00 490.00 181.00 494.00 181.00
C 494.00 177.33 494.00 173.67 494.00 170.00
C 486.33 170.00 478.67 170.00 471.00 170.00
C 473.03 172.91 478.43 179.93 482.00 181.00 Z"/>
</g>
<g fill="None" fill-opacity="0.0" stroke="#7A6695" stroke-opacity="1.00" stroke-width="0.3"><path d="
M 497.00 184.00 
C 500.98 184.27 505.03 183.64 509.00 184.00
C 509.00 183.00 509.00 182.00 509.00 181.00
C 509.00 177.33 509.00 173.67 509.00 170.00
C 504.29 171.41 497.47 179.75 497.00 184.00 Z"/>
</g>
<g fill="None" fill-opacity="0.0" stroke="#2E164F" stroke-opacity="1.00" stroke-width="0.3"><path d="
M 509.00 181.00 
C 516.33 181.00 523.67 181.00 531.00 181.00
C 531.00 177.33 531.00 173.67 531.00 170.00
C 524.12 171.51 515.73 167.99 509.00 170.00
C 509.00 173.67 509.00 177.33 509.00 181.00 Z"/>
</g>
<g fill="None" fill-opacity="0.0" stroke="#745F90" stroke-opacity="1.00" stroke-width="0.3"><path d="
M 569.00 180.00 
C 572.73 178.82 576.14 185.14 580.00 182.00
C 580.97 177.89 583.67 174.32 584.00 170.00
C 573.31 165.95 571.51 172.94 569.00 180.00 Z"/>
</g>
<g fill="None" fill-opacity="0.0" stroke="#2F1652" stroke-opacity="1.00" stroke-width="0.3"><path d="
M 580.00 182.00 
C 579.36 184.70 579.50 185.38 580.00 188.00
C 580.67 191.49 582.16 197.01 584.08 199.92 C 585.99 202.84 585.74 208.99 588.00 211.00
C 592.33 211.00 596.67 211.00 601.00 211.00
C 597.72 205.19 596.26 195.49 592.98 190.02 C 589.69 184.56 589.74 172.17 584.00 170.00
C 583.67 174.32 580.97 177.89 580.00 182.00 Z"/>
</g>
<g fill="None" fill-opacity="0.0" stroke="#B4AAC2" stroke-opacity="1.00" stroke-width="0.3"><path d="
M 603.00 201.00 
C 602.78 200.15 603.00 198.88 603.00 198.00
C 603.00 195.33 603.00 192.67 603.00 190.00
C 603.00 187.33 603.00 184.67 603.00 182.00
C 603.00 178.00 603.00 174.00 603.00 170.00
C 599.86 172.20 602.66 182.14 602.00 186.00 C 601.34 189.86 601.48 197.75 603.00 201.00 Z"/>
</g>
<g fill="None" fill-opacity="0.0" stroke="#88789F" stroke-opacity="1.00" stroke-width="0.3"><path d="
M 603.00 182.00 
C 606.67 182.00 610.33 182.00 614.00 182.00
C 614.00 184.67 614.00 187.33 614.00 190.00
C 614.00 192.25 613.29 195.89 614.00 198.00
C 615.84 198.60 618.64 202.71 623.00 201.00 C 627.36 199.29 631.64 202.28 636.00 201.00
C 636.00 204.33 636.00 207.67 636.00 211.00
C 628.13 209.96 618.79 213.27 612.00 209.00
C 616.16 216.20 623.41 208.93 630.00 212.00 C 636.58 215.07 640.72 202.55 635.00 200.00 C 629.28 197.45 620.96 201.91 615.00 200.00
C 615.00 190.00 615.00 180.00 615.00 170.00
C 611.99 171.41 605.68 168.12 603.00 170.00
C 603.00 174.00 603.00 178.00 603.00 182.00 Z"/>
</g>
<g fill="None" fill-opacity="0.0" stroke="#715D8E" stroke-opacity="1.00" stroke-width="0.3"><path d="
M 641.00 179.00 
C 642.55 182.54 649.99 182.27 653.00 182.00
C 653.00 182.00 653.00 181.50 653.00 181.00
C 648.83 178.08 645.25 173.76 642.00 170.00
C 640.01 171.39 641.00 176.63 641.00 179.00 Z"/>
</g>
<g fill="None" fill-opacity="0.0" stroke="#301457" stroke-opacity="1.00" stroke-width="0.3"><path d="
M 653.00 181.00 
C 653.00 177.33 653.00 173.67 653.00 170.00
C 650.24 171.29 644.46 168.28 642.00 170.00
C 645.25 173.76 648.83 178.08 653.00 181.00 Z"/>
</g>
<g fill="None" fill-opacity="0.0" stroke="#2F1555" stroke-opacity="1.00" stroke-width="0.3"><path d="
M 706.00 211.00 
C 710.00 211.00 714.00 211.00 718.00 211.00
C 718.00 206.00 718.00 201.00 718.00 196.00
C 723.00 196.00 728.00 196.00 733.00 196.00
C 733.50 196.00 734.00 196.00 734.00 196.00
C 734.30 192.69 733.78 189.31 734.00 186.00
C 735.66 186.54 736.33 188.56 738.00 189.00
C 739.46 190.14 744.46 193.43 745.00 195.00
C 745.00 186.78 744.26 178.18 745.00 170.00
C 741.87 170.00 736.95 170.96 734.00 170.00
C 734.00 175.00 734.00 180.00 734.00 185.00
C 728.67 185.00 723.33 185.00 718.00 185.00
C 718.00 180.00 718.00 175.00 718.00 170.00
C 714.00 170.00 710.00 170.00 706.00 170.00
C 707.19 176.05 704.41 185.27 706.00 191.00 C 707.59 196.73 702.81 206.44 706.00 211.00 Z"/>
</g>
<g fill="None" fill-opacity="0.0" stroke="#84739D" stroke-opacity="1.00" stroke-width="0.3"><path d="
M 745.00 195.00 
C 745.00 197.33 745.00 199.67 745.00 202.00
C 745.00 205.00 745.00 208.00 745.00 211.00
C 741.33 211.00 737.67 211.00 734.00 211.00
C 737.01 213.28 742.17 211.37 746.00 212.00
C 745.05 198.09 747.26 183.89 746.00 170.00
C 746.00 170.00 745.50 170.00 745.00 170.00
C 744.26 178.18 745.00 186.78 745.00 195.00 Z"/>
</g>
<g fill="None" fill-opacity="0.0" stroke="#715D8E" stroke-opacity="1.00" stroke-width="0.3"><path d="
M 753.00 179.00 
C 754.55 182.54 761.99 182.27 765.00 182.00
C 765.00 182.00 765.00 181.50 765.00 181.00
C 760.83 178.08 757.25 173.76 754.00 170.00
C 752.01 171.39 753.00 176.63 753.00 179.00 Z"/>
</g>
<g fill="None" fill-opacity="0.0" stroke="#301456" stroke-opacity="1.00" stroke-width="0.3"><path d="
M 765.00 181.00 
C 765.00 177.33 765.00 173.67 765.00 170.00
C 762.24 171.29 756.46 168.28 754.00 170.00
C 757.25 173.76 760.83 178.08 765.00 181.00 Z"/>
</g>
<g fill="None" fill-opacity="0.0" stroke="#83719D" stroke-opacity="1.00" stroke-width="0.3"><path d="
M 771.00 181.00 
C 772.84 178.15 779.42 181.09 782.00 180.00
C 782.53 177.81 780.86 174.38 783.00 173.00
C 783.03 172.00 782.98 171.00 783.00 170.00
C 779.38 171.69 772.77 177.21 771.00 181.00 Z"/>
</g>
<g fill="None" fill-opacity="0.0" stroke="#29104B" stroke-opacity="1.00" stroke-width="0.3"><path d="
M 783.00 173.00 
C 782.94 175.33 783.05 177.67 783.00 180.00
C 790.00 180.00 797.00 180.00 804.00 180.00
C 804.00 176.67 804.00 173.33 804.00 170.00
C 797.00 170.00 790.00 170.00 783.00 170.00
C 782.98 171.00 783.03 172.00 783.00 173.00 Z"/>
</g>
<g fill="None" fill-opacity="0.0" stroke="#665183" stroke-opacity="1.00" stroke-width="0.3"><path d="
M 783.00 173.00 
C 780.86 174.38 782.53 177.81 782.00 180.00
C 779.42 181.09 772.84 178.15 771.00 181.00
C 770.23 182.19 771.00 186.53 771.00 188.00
C 774.67 188.00 778.33 188.00 782.00 188.00
C 782.11 187.00 781.53 185.27 783.00 185.00
C 783.09 184.52 783.00 184.00 783.00 184.00
C 783.00 183.00 783.00 182.00 783.00 181.00
C 790.33 181.00 797.67 181.00 805.00 181.00
C 804.75 177.36 805.33 173.64 805.00 170.00
C 805.00 170.00 804.50 170.00 804.00 170.00
C 804.00 173.33 804.00 176.67 804.00 180.00
C 797.00 180.00 790.00 180.00 783.00 180.00
C 783.05 177.67 782.94 175.33 783.00 173.00 Z"/>
</g>
<g fill="None" fill-opacity="0.0" stroke="#8978A2" stroke-opacity="1.00" stroke-width="0.3"><path d="
M 808.00 178.00 
C 807.97 177.61 810.01 175.14 809.00 174.00
C 819.00 174.00 829.00 174.00 839.00 174.00
C 831.35 166.27 818.11 171.56 808.00 170.00
C 808.59 172.48 807.22 175.59 808.00 178.00 Z"/>
</g>
<g fill="None" fill-opacity="0.0" stroke="#7D6A97" stroke-opacity="1.00" stroke-width="0.3"><path d="
M 849.00 182.00 
C 849.16 180.93 850.90 178.74 850.00 177.00
C 853.28 179.62 856.26 183.10 861.00 182.00
C 861.00 181.50 861.00 181.00 861.00 181.00
C 856.83 178.08 853.25 173.76 850.00 170.00
C 847.74 171.58 849.00 179.24 849.00 182.00 Z"/>
</g>
<g fill="None" fill-opacity="0.0" stroke="#301456" stroke-opacity="1.00" stroke-width="0.3"><path d="
M 861.00 181.00 
C 861.00 177.33 861.00 173.67 861.00 170.00
C 860.17 169.42 850.83 169.42 850.00 170.00
C 853.25 173.76 856.83 178.08 861.00 181.00 Z"/>
</g>
<g fill="None" fill-opacity="0.0" stroke="#A497B3" stroke-opacity="1.00" stroke-width="0.3"><path d="
M 861.00 181.00 
C 861.00 181.00 861.00 181.50 861.00 182.00
C 861.00 191.67 861.00 201.33 861.00 211.00
C 857.00 211.00 853.00 211.00 849.00 211.00
C 852.34 213.29 857.83 211.36 862.00 212.00
C 860.97 206.12 863.38 195.40 862.00 190.00 C 860.62 184.60 865.22 172.96 861.00 170.00
C 861.00 173.67 861.00 177.33 861.00 181.00 Z"/>
</g>
<g fill="None" fill-opacity="0.0" stroke="#6D5888" stroke-opacity="1.00" stroke-width="0.3"><path d="
M 326.00 180.00 
C 325.79 180.27 325.22 180.70 325.00 181.00
C 324.60 183.16 325.00 185.80 325.00 188.00
C 328.67 188.00 332.33 188.00 336.00 188.00
C 336.45 192.30 334.96 197.12 337.00 201.00
C 340.24 201.30 343.40 200.82 346.00 200.00
C 343.09 200.52 339.93 199.61 337.00 200.00
C 337.00 193.67 337.00 187.33 337.00 181.00
C 337.00 177.67 337.00 174.33 337.00 171.00
C 334.78 173.02 336.59 177.16 336.00 180.00
C 332.72 180.35 329.27 179.53 326.00 180.00 Z"/>
</g>
<g fill="None" fill-opacity="0.0" stroke="#2D1351" stroke-opacity="1.00" stroke-width="0.3"><path d="
M 414.00 211.00 
C 418.00 211.00 422.00 211.00 426.00 211.00
C 427.50 208.86 425.65 202.79 426.00 200.00 C 426.35 197.21 426.56 191.84 426.00 189.00
C 422.10 183.26 419.23 175.86 414.00 171.00
C 410.87 175.47 415.63 185.48 414.00 191.00 C 412.37 196.52 415.23 205.19 414.00 211.00 Z"/>
</g>
<g fill="None" fill-opacity="0.0" stroke="#816E9B" stroke-opacity="1.00" stroke-width="0.3"><path d="
M 667.00 174.00 
C 664.24 176.26 661.32 178.53 660.00 182.00
C 663.16 178.74 671.06 182.13 674.00 182.00
C 678.61 179.51 683.61 180.33 688.00 183.00
C 689.56 179.57 694.50 177.91 695.00 174.00
C 693.92 173.53 692.98 172.69 692.00 172.00
C 694.07 175.44 683.95 173.44 681.00 174.00 C 678.05 174.56 670.21 173.04 667.00 174.00 Z"/>
</g>
<g fill="None" fill-opacity="0.0" stroke="#6E598C" stroke-opacity="1.00" stroke-width="0.3"><path d="
M 808.00 178.00 
C 808.00 179.00 808.00 180.00 808.00 181.00
C 814.77 182.08 822.31 179.57 829.00 181.00
C 823.12 178.88 814.74 181.34 809.00 179.00
C 819.09 176.68 831.15 178.65 842.00 178.00
C 841.23 176.61 840.04 175.04 839.00 174.00
C 829.00 174.00 819.00 174.00 809.00 174.00
C 810.01 175.14 807.97 177.61 808.00 178.00 Z"/>
</g>
<g fill="None" fill-opacity="0.0" stroke="#2F1751" stroke-opacity="1.00" stroke-width="0.3"><path d="
M 849.00 182.00 
C 849.00 186.24 848.28 193.01 849.00 197.00 C 849.72 200.99 846.87 207.95 849.00 211.00
C 853.00 211.00 857.00 211.00 861.00 211.00
C 861.00 201.33 861.00 191.67 861.00 182.00
C 856.26 183.10 853.28 179.62 850.00 177.00
C 850.90 178.74 849.16 180.93 849.00 182.00 Z"/>
</g>
<g fill="None" fill-opacity="0.0" stroke="#573E7A" stroke-opacity="1.00" stroke-width="0.3"><path d="
M 829.00 181.00 
C 830.17 181.42 831.85 182.80 833.00 183.00
C 835.68 183.46 841.95 179.53 844.00 184.00
C 843.88 181.52 843.04 179.88 842.00 178.00
C 831.15 178.65 819.09 176.68 809.00 179.00
C 814.74 181.34 823.12 178.88 829.00 181.00 Z"/>
</g>
<g fill="None" fill-opacity="0.0" stroke="#2B124D" stroke-opacity="1.00" stroke-width="0.3"><path d="
M 641.00 211.00 
C 645.00 211.00 649.00 211.00 653.00 211.00
C 655.17 207.90 652.11 199.86 653.00 196.00 C 653.89 192.14 653.00 186.06 653.00 182.00
C 649.99 182.27 642.55 182.54 641.00 179.00
C 641.00 183.57 640.11 190.69 641.00 195.00 C 641.89 199.31 638.64 207.62 641.00 211.00 Z"/>
</g>
<g fill="None" fill-opacity="0.0" stroke="#2B124D" stroke-opacity="1.00" stroke-width="0.3"><path d="
M 753.00 211.00 
C 757.00 211.00 761.00 211.00 765.00 211.00
C 767.17 207.90 764.11 199.86 765.00 196.00 C 765.89 192.14 765.00 186.06 765.00 182.00
C 761.99 182.27 754.55 182.54 753.00 179.00
C 753.00 183.57 752.11 190.69 753.00 195.00 C 753.89 199.31 750.64 207.62 753.00 211.00 Z"/>
</g>
<g fill="None" fill-opacity="0.0" stroke="#523C71" stroke-opacity="1.00" stroke-width="0.3"><path d="
M 371.00 195.00 
C 373.62 195.43 380.93 195.88 382.00 199.00
C 383.53 194.96 386.68 190.17 388.00 186.00
C 388.41 184.71 388.59 183.30 389.00 182.00
C 385.48 185.04 381.02 178.49 377.00 180.00
C 375.18 185.07 372.85 189.92 371.00 195.00 Z"/>
</g>
<g fill="None" fill-opacity="0.0" stroke="#533D72" stroke-opacity="1.00" stroke-width="0.3"><path d="
M 563.00 194.00 
C 565.66 195.53 573.09 195.34 574.00 199.00
C 574.83 196.81 576.86 194.10 576.68 191.68 C 576.50 189.25 580.28 187.30 580.00 188.00
C 579.50 185.38 579.36 184.70 580.00 182.00
C 576.14 185.14 572.73 178.82 569.00 180.00
C 567.45 184.36 564.71 189.37 563.00 194.00 Z"/>
</g>
<g fill="None" fill-opacity="0.0" stroke="#AAA0B8" stroke-opacity="1.00" stroke-width="0.3"><path d="
M 325.00 212.00 
C 324.96 212.00 325.00 211.00 325.00 211.00
C 325.00 207.33 325.00 203.67 325.00 200.00
C 325.00 196.00 325.00 192.00 325.00 188.00
C 325.00 185.80 324.60 183.16 325.00 181.00
C 322.73 184.09 323.91 193.01 324.00 197.00 C 324.09 200.99 322.31 209.41 325.00 212.00 Z"/>
</g>
<g fill="None" fill-opacity="0.0" stroke="#F9F9FA" stroke-opacity="1.00" stroke-width="0.3"><path d="
M 346.00 200.00 
C 361.57 195.08 351.20 175.81 337.00 181.00
C 337.00 187.33 337.00 193.67 337.00 200.00
C 339.93 199.61 343.09 200.52 346.00 200.00 Z"/>
</g>
<g fill="None" fill-opacity="0.0" stroke="#6D588B" stroke-opacity="1.00" stroke-width="0.3"><path d="
M 660.00 182.00 
C 659.17 184.18 659.30 185.64 659.00 188.00
C 660.64 186.89 667.91 187.89 669.00 189.00
C 669.26 187.19 672.37 183.02 674.00 182.00
C 671.06 182.13 663.16 178.74 660.00 182.00 Z"/>
</g>
<g fill="None" fill-opacity="0.0" stroke="#C4BDCF" stroke-opacity="1.00" stroke-width="0.3"><path d="
M 772.00 202.00 
C 770.75 199.73 771.09 197.57 771.00 195.00
C 770.92 192.67 771.00 190.33 771.00 188.00
C 771.00 186.53 770.23 182.19 771.00 181.00
C 768.78 185.76 768.78 197.87 772.00 202.00 Z"/>
</g>
<g fill="None" fill-opacity="0.0" stroke="#5F4780" stroke-opacity="1.00" stroke-width="0.3"><path d="
M 432.00 196.00 
C 434.52 199.71 437.56 204.24 440.00 208.00
C 438.78 202.39 441.40 195.57 442.00 193.00
C 441.94 192.86 440.28 191.39 440.00 191.00
C 437.88 188.09 435.97 185.05 434.00 182.00
C 434.44 185.48 431.63 192.35 432.00 196.00 Z"/>
</g>
<g fill="None" fill-opacity="0.0" stroke="#675284" stroke-opacity="1.00" stroke-width="0.3"><path d="
M 603.00 190.00 
C 606.67 190.00 610.33 190.00 614.00 190.00
C 614.00 187.33 614.00 184.67 614.00 182.00
C 610.33 182.00 606.67 182.00 603.00 182.00
C 603.00 184.67 603.00 187.33 603.00 190.00 Z"/>
</g>
<g fill="None" fill-opacity="0.0" stroke="#391D60" stroke-opacity="1.00" stroke-width="0.3"><path d="
M 833.00 183.00 
C 836.80 191.41 824.76 188.65 822.00 190.00
C 823.30 191.56 824.62 193.62 826.00 195.00
C 827.86 196.86 830.47 198.14 831.00 201.00
C 828.78 203.46 824.26 204.24 824.00 208.00
C 824.37 208.46 824.66 209.45 825.00 210.00
C 828.76 213.37 836.55 209.55 841.00 211.00
C 838.82 206.87 833.09 204.63 832.00 200.00
C 839.60 198.73 844.36 191.44 844.00 184.00
C 841.95 179.53 835.68 183.46 833.00 183.00 Z"/>
</g>
<g fill="None" fill-opacity="0.0" stroke="#543D73" stroke-opacity="1.00" stroke-width="0.3"><path d="
M 497.00 196.00 
C 501.00 196.00 505.00 196.00 509.00 196.00
C 509.00 192.33 509.00 188.67 509.00 185.00
C 509.00 184.50 509.00 184.00 509.00 184.00
C 505.03 183.64 500.98 184.27 497.00 184.00
C 496.58 187.76 496.71 192.23 497.00 196.00 Z"/>
</g>
<g fill="None" fill-opacity="0.0" stroke="#A196B0" stroke-opacity="1.00" stroke-width="0.3"><path d="
M 509.00 185.00 
C 515.61 185.60 522.37 184.55 529.00 185.00
C 527.11 182.31 512.54 183.68 509.00 184.00
C 509.00 184.00 509.00 184.50 509.00 185.00 Z"/>
</g>
<g fill="None" fill-opacity="0.0" stroke="#A398B1" stroke-opacity="1.00" stroke-width="0.3"><path d="
M 783.00 185.00 
C 789.61 185.60 796.37 184.55 803.00 185.00
C 801.11 182.31 786.54 183.68 783.00 184.00
C 783.00 184.00 783.09 184.52 783.00 185.00 Z"/>
</g>
<g fill="None" fill-opacity="0.0" stroke="#2E164F" stroke-opacity="1.00" stroke-width="0.3"><path d="
M 497.00 196.00 
C 497.46 202.05 503.02 208.62 509.00 211.00
C 511.54 211.62 516.42 211.41 519.00 211.00 C 521.58 210.59 527.94 212.44 530.00 211.00
C 531.09 209.91 532.13 202.62 531.00 201.00
C 526.65 198.72 511.59 204.49 509.00 200.00
C 509.00 198.67 509.00 197.33 509.00 196.00
C 515.11 197.87 537.29 196.85 529.00 185.00
C 522.37 184.55 515.61 185.60 509.00 185.00
C 509.00 188.67 509.00 192.33 509.00 196.00
C 505.00 196.00 501.00 196.00 497.00 196.00 Z"/>
</g>
<g fill="None" fill-opacity="0.0" stroke="#4E376E" stroke-opacity="1.00" stroke-width="0.3"><path d="
M 771.00 188.00 
C 771.00 190.33 770.92 192.67 771.00 195.00
C 778.82 196.64 785.82 194.28 783.00 185.00
C 781.53 185.27 782.11 187.00 782.00 188.00
C 778.33 188.00 774.67 188.00 771.00 188.00 Z"/>
</g>
<g fill="None" fill-opacity="0.0" stroke="#2F1851" stroke-opacity="1.00" stroke-width="0.3"><path d="
M 771.00 195.00 
C 771.09 197.57 770.75 199.73 772.00 202.00
C 774.36 205.01 779.54 209.72 783.00 211.00
C 785.59 211.57 790.40 211.43 793.00 211.00 C 795.60 210.57 801.92 212.45 804.00 211.00
C 805.69 209.31 805.73 202.73 804.00 201.00
C 799.95 198.17 785.69 204.66 783.00 200.00
C 783.00 198.67 783.00 197.33 783.00 196.00
C 789.11 197.87 811.29 196.85 803.00 185.00
C 796.37 184.55 789.61 185.60 783.00 185.00
C 785.82 194.28 778.82 196.64 771.00 195.00 Z"/>
</g>
<g fill="None" fill-opacity="0.0" stroke="#371D60" stroke-opacity="1.00" stroke-width="0.3"><path d="
M 674.00 200.00 
C 669.13 197.87 665.53 193.62 659.00 196.00
C 663.98 217.94 699.42 216.32 702.00 194.00
C 695.22 192.67 694.30 186.78 687.00 186.00 C 679.70 185.22 680.26 199.52 690.00 195.00
C 688.02 201.20 679.30 202.31 674.00 200.00 Z"/>
</g>
<g fill="None" fill-opacity="0.0" stroke="#7A6695" stroke-opacity="1.00" stroke-width="0.3"><path d="
M 734.00 196.00 
C 737.33 196.00 740.67 196.00 744.00 196.00
C 742.58 193.24 739.35 191.73 738.00 189.00
C 736.33 188.56 735.66 186.54 734.00 186.00
C 733.78 189.31 734.30 192.69 734.00 196.00 Z"/>
</g>
<g fill="None" fill-opacity="0.0" stroke="#4A3369" stroke-opacity="1.00" stroke-width="0.3"><path d="
M 325.00 200.00 
C 329.07 199.19 333.30 200.65 337.00 201.00
C 334.96 197.12 336.45 192.30 336.00 188.00
C 332.33 188.00 328.67 188.00 325.00 188.00
C 325.00 192.00 325.00 196.00 325.00 200.00 Z"/>
</g>
<g fill="None" fill-opacity="0.0" stroke="#654E84" stroke-opacity="1.00" stroke-width="0.3"><path d="
M 470.00 194.00 
C 472.50 192.80 480.40 196.02 482.00 193.00
C 482.00 191.33 482.00 189.67 482.00 188.00
C 478.00 188.00 474.00 188.00 470.00 188.00
C 470.00 190.00 470.00 192.00 470.00 194.00 Z"/>
</g>
<g fill="None" fill-opacity="0.0" stroke="#573F7A" stroke-opacity="1.00" stroke-width="0.3"><path d="
M 659.00 196.00 
C 665.53 193.62 669.13 197.87 674.00 200.00
C 671.15 198.38 668.55 192.10 669.00 189.00
C 667.91 187.89 660.64 186.89 659.00 188.00
C 658.68 190.59 658.18 192.84 659.00 196.00 Z"/>
</g>
<g fill="None" fill-opacity="0.0" stroke="#5F4780" stroke-opacity="1.00" stroke-width="0.3"><path d="
M 734.00 196.00 
C 734.38 197.82 734.00 200.14 734.00 202.00
C 737.67 202.00 741.33 202.00 745.00 202.00
C 745.00 199.67 745.00 197.33 745.00 195.00
C 744.46 193.43 739.46 190.14 738.00 189.00
C 739.35 191.73 742.58 193.24 744.00 196.00
C 740.67 196.00 737.33 196.00 734.00 196.00 Z"/>
</g>
<g fill="None" fill-opacity="0.0" stroke="#4E366D" stroke-opacity="1.00" stroke-width="0.3"><path d="
M 603.00 198.00 
C 606.40 198.82 610.69 196.91 614.00 198.00
C 613.29 195.89 614.00 192.25 614.00 190.00
C 610.33 190.00 606.67 190.00 603.00 190.00
C 603.00 192.67 603.00 195.33 603.00 198.00 Z"/>
</g>
<g fill="None" fill-opacity="0.0" stroke="#9181A8" stroke-opacity="1.00" stroke-width="0.3"><path d="
M 819.00 202.00 
C 819.22 198.76 826.00 198.42 826.00 195.00
C 824.62 193.62 823.30 191.56 822.00 190.00
C 818.98 191.48 818.13 199.72 819.00 202.00 Z"/>
</g>
<g fill="None" fill-opacity="0.0" stroke="#472C6D" stroke-opacity="1.00" stroke-width="0.3"><path d="
M 470.00 194.00 
C 470.00 197.42 468.13 208.33 470.00 211.00
C 474.00 211.00 478.00 211.00 482.00 211.00
C 483.98 208.17 482.00 196.62 482.00 193.00
C 480.40 196.02 472.50 192.80 470.00 194.00 Z"/>
</g>
<g fill="None" fill-opacity="0.0" stroke="#2C1849" stroke-opacity="1.00" stroke-width="0.3"><path d="
M 557.00 211.00 
C 560.87 209.73 566.60 212.82 570.00 210.00
C 571.99 207.70 572.89 201.93 574.00 199.00
C 573.09 195.34 565.66 195.53 563.00 194.00
C 561.54 197.95 555.89 206.86 557.00 211.00 Z"/>
</g>
<g fill="None" fill-opacity="0.0" stroke="#2B1748" stroke-opacity="1.00" stroke-width="0.3"><path d="
M 366.00 210.00 
C 366.91 211.46 376.30 211.92 378.00 211.00
C 380.96 208.69 380.82 202.13 382.00 199.00
C 380.93 195.88 373.62 195.43 371.00 195.00
C 369.56 198.95 365.70 205.83 366.00 210.00 Z"/>
</g>
<g fill="None" fill-opacity="0.0" stroke="#705B8E" stroke-opacity="1.00" stroke-width="0.3"><path d="
M 819.00 202.00 
C 819.88 204.32 822.57 206.22 824.00 208.00
C 824.26 204.24 828.78 203.46 831.00 201.00
C 830.47 198.14 827.86 196.86 826.00 195.00
C 826.00 198.42 819.22 198.76 819.00 202.00 Z"/>
</g>
<g fill="None" fill-opacity="0.0" stroke="#B3A7C2" stroke-opacity="1.00" stroke-width="0.3"><path d="
M 734.00 211.00 
C 734.00 208.00 734.00 205.00 734.00 202.00
C 734.00 200.14 734.38 197.82 734.00 196.00
C 734.00 196.00 733.50 196.00 733.00 196.00
C 732.69 199.41 731.71 208.71 734.00 211.00 Z"/>
</g>
<g fill="None" fill-opacity="0.0" stroke="#2C144D" stroke-opacity="1.00" stroke-width="0.3"><path d="
M 603.00 201.00 
C 603.86 204.39 609.50 207.01 612.00 209.00
C 618.79 213.27 628.13 209.96 636.00 211.00
C 636.00 207.67 636.00 204.33 636.00 201.00
C 631.64 202.28 627.36 199.29 623.00 201.00 C 618.64 202.71 615.84 198.60 614.00 198.00
C 610.69 196.91 606.40 198.82 603.00 198.00
C 603.00 198.88 602.78 200.15 603.00 201.00 Z"/>
</g>
<g fill="None" fill-opacity="0.0" stroke="#88799B" stroke-opacity="1.00" stroke-width="0.3"><path d="
M 531.00 201.00 
C 527.82 196.46 513.79 202.32 509.00 200.00
C 511.59 204.49 526.65 198.72 531.00 201.00 Z"/>
</g>
<g fill="None" fill-opacity="0.0" stroke="#88799A" stroke-opacity="1.00" stroke-width="0.3"><path d="
M 804.00 201.00 
C 799.83 196.83 788.45 202.04 783.00 200.00
C 785.69 204.66 799.95 198.17 804.00 201.00 Z"/>
</g>
<g fill="None" fill-opacity="0.0" stroke="#412569" stroke-opacity="1.00" stroke-width="0.3"><path d="
M 734.00 211.00 
C 737.67 211.00 741.33 211.00 745.00 211.00
C 745.00 208.00 745.00 205.00 745.00 202.00
C 741.33 202.00 737.67 202.00 734.00 202.00
C 734.00 205.00 734.00 208.00 734.00 211.00 Z"/>
</g>
<g fill="None" fill-opacity="0.0" stroke="#7A6D8B" stroke-opacity="1.00" stroke-width="0.3"><path d="
M 378.00 211.00 
C 376.30 211.92 366.91 211.46 366.00 210.00
C 366.18 212.47 374.67 213.61 378.00 211.00 Z"/>
</g>
<g fill="None" fill-opacity="0.0" stroke="#998AAD" stroke-opacity="1.00" stroke-width="0.3"><path d="
M 397.00 211.00 
C 400.20 213.68 408.83 212.41 409.00 210.00
C 407.13 212.99 399.98 209.84 397.00 211.00 Z"/>
</g>
<g fill="None" fill-opacity="0.0" stroke="#7B6E8B" stroke-opacity="1.00" stroke-width="0.3"><path d="
M 557.00 211.00 
C 557.51 212.92 567.59 212.79 570.00 210.00
C 566.60 212.82 560.87 209.73 557.00 211.00 Z"/>
</g>
<g fill="None" fill-opacity="0.0" stroke="#9B8CAF" stroke-opacity="1.00" stroke-width="0.3"><path d="
M 841.00 211.00 
C 836.55 209.55 828.76 213.37 825.00 210.00
C 827.11 213.38 840.97 212.46 841.00 211.00 Z"/>
</g>
<g fill="None" fill-opacity="0.0" stroke="#807291" stroke-opacity="1.00" stroke-width="0.3"><path d="
M 325.00 212.00 
C 331.88 212.62 339.83 212.00 346.00 211.00
C 339.04 211.38 331.94 210.37 325.00 211.00
C 325.00 211.00 324.96 212.00 325.00 212.00 Z"/>
</g>
<g fill="None" fill-opacity="0.0" stroke="#9888AC" stroke-opacity="1.00" stroke-width="0.3"><path d="
M 426.00 211.00 
C 422.00 211.00 418.00 211.00 414.00 211.00
C 415.55 212.55 424.56 213.06 426.00 211.00 Z"/>
</g>
<g fill="None" fill-opacity="0.0" stroke="#998AAD" stroke-opacity="1.00" stroke-width="0.3"><path d="
M 454.00 211.00 
C 450.43 209.94 445.42 212.41 442.00 211.00
C 443.87 212.18 452.35 213.35 454.00 211.00 Z"/>
</g>
<g fill="None" fill-opacity="0.0" stroke="#9686AB" stroke-opacity="1.00" stroke-width="0.3"><path d="
M 482.00 211.00 
C 478.00 211.00 474.00 211.00 470.00 211.00
C 471.25 212.79 480.71 212.84 482.00 211.00 Z"/>
</g>
<g fill="None" fill-opacity="0.0" stroke="#88799A" stroke-opacity="1.00" stroke-width="0.3"><path d="
M 530.00 211.00 
C 527.94 212.44 521.58 210.59 519.00 211.00 C 516.42 211.41 511.54 211.62 509.00 211.00
C 512.39 212.35 527.01 213.99 530.00 211.00 Z"/>
</g>
<g fill="None" fill-opacity="0.0" stroke="#9788AC" stroke-opacity="1.00" stroke-width="0.3"><path d="
M 601.00 211.00 
C 596.67 211.00 592.33 211.00 588.00 211.00
C 590.63 213.34 598.15 212.12 601.00 211.00 Z"/>
</g>
<g fill="None" fill-opacity="0.0" stroke="#9686AB" stroke-opacity="1.00" stroke-width="0.3"><path d="
M 653.00 211.00 
C 649.00 211.00 645.00 211.00 641.00 211.00
C 642.25 212.79 651.71 212.84 653.00 211.00 Z"/>
</g>
<g fill="None" fill-opacity="0.0" stroke="#9888AC" stroke-opacity="1.00" stroke-width="0.3"><path d="
M 718.00 211.00 
C 714.00 211.00 710.00 211.00 706.00 211.00
C 707.25 212.79 716.71 212.84 718.00 211.00 Z"/>
</g>
<g fill="None" fill-opacity="0.0" stroke="#9686AB" stroke-opacity="1.00" stroke-width="0.3"><path d="
M 765.00 211.00 
C 761.00 211.00 757.00 211.00 753.00 211.00
C 754.25 212.79 763.71 212.84 765.00 211.00 Z"/>
</g>
<g fill="None" fill-opacity="0.0" stroke="#88799B" stroke-opacity="1.00" stroke-width="0.3"><path d="
M 804.00 211.00 
C 801.92 212.45 795.60 210.57 793.00 211.00 C 790.40 211.43 785.59 211.57 783.00 211.00
C 786.46 212.28 800.96 214.04 804.00 211.00 Z"/>
</g>
<g fill="None" fill-opacity="0.0" stroke="#33165D" stroke-opacity="1.00" stroke-width="0.3"><path d="
M 608.00 254.00 
C 609.69 248.48 609.63 239.59 608.00 234.00
C 606.31 239.52 606.37 248.41 608.00 254.00 Z"/>
</g>
<g fill="None" fill-opacity="0.0" stroke="#41286A" stroke-opacity="1.00" stroke-width="0.3"><path d="
M 540.00 239.00 
C 536.59 230.55 523.21 236.95 524.03 244.97 C 524.84 253.00 536.39 257.24 540.00 250.00
C 523.05 258.88 524.51 229.13 540.00 239.00 Z"/>
</g>
<g fill="None" fill-opacity="0.0" stroke="#3D2366" stroke-opacity="1.00" stroke-width="0.3"><path d="
M 622.00 241.00 
C 617.57 240.96 617.59 237.38 615.00 236.00
C 613.94 240.66 612.26 255.88 622.00 253.00
C 616.04 251.28 614.37 241.02 622.00 241.00 Z"/>
</g>
<g fill="None" fill-opacity="0.0" stroke="#9B8CAF" stroke-opacity="1.00" stroke-width="0.3"><path d="
M 599.00 247.00 
C 599.75 244.96 599.24 240.31 602.00 240.00
C 599.35 235.32 599.12 246.50 599.00 247.00 Z"/>
</g>
<g fill="None" fill-opacity="0.0" stroke="#3C2165" stroke-opacity="1.00" stroke-width="0.3"><path d="
M 553.00 240.00 
C 544.64 236.74 538.41 247.50 546.31 252.69 C 554.20 257.88 560.57 242.95 553.00 240.00
M 552.00 242.00 
C 556.53 244.08 553.40 253.37 547.92 251.07 C 542.45 248.77 545.65 239.09 552.00 242.00 Z"/>
</g>
<g fill="None" fill-opacity="0.0" stroke="#361960" stroke-opacity="1.00" stroke-width="0.3"><path d="
M 560.00 253.00 
C 563.11 252.42 561.74 247.34 563.00 245.00
C 568.65 236.19 572.38 249.03 572.00 254.00
C 573.03 250.69 574.82 243.84 571.22 240.78 C 567.63 237.71 562.61 243.93 560.00 240.00
C 561.39 243.54 558.14 249.72 560.00 253.00 Z"/>
</g>
<g fill="None" fill-opacity="0.0" stroke="#402669" stroke-opacity="1.00" stroke-width="0.3"><path d="
M 586.00 241.00 
C 582.10 235.76 571.26 244.35 578.97 247.03 C 586.69 249.70 581.97 253.72 576.00 250.00
C 580.64 260.95 592.69 244.80 579.00 245.00
C 577.81 239.83 584.34 243.54 586.00 241.00 Z"/>
</g>
<g fill="None" fill-opacity="0.0" stroke="#442B6C" stroke-opacity="1.00" stroke-width="0.3"><path d="
M 602.00 240.00 
C 599.24 240.31 599.75 244.96 599.00 247.00
C 600.56 251.60 593.02 252.34 592.00 249.00 C 590.98 245.66 594.28 239.46 589.00 240.00
C 588.99 244.49 587.85 251.44 592.78 253.22 C 597.71 255.00 599.01 249.24 602.00 254.00
C 600.50 250.18 604.00 243.53 602.00 240.00 Z"/>
</g>
<g fill="None" fill-opacity="0.0" stroke="#34185F" stroke-opacity="1.00" stroke-width="0.3"><path d="
M 626.00 254.00 
C 627.71 250.47 627.60 243.60 626.00 240.00
C 624.29 243.53 624.40 250.40 626.00 254.00 Z"/>
</g>
<g fill="None" fill-opacity="0.0" stroke="#3D2266" stroke-opacity="1.00" stroke-width="0.3"><path d="
M 644.00 254.00 
C 645.03 250.69 646.82 243.84 643.22 240.78 C 639.63 237.71 634.61 243.93 632.00 240.00
C 632.50 244.61 630.90 249.80 633.00 254.00
C 635.23 250.97 632.51 242.18 638.97 242.03 C 645.43 241.87 641.42 251.23 644.00 254.00 Z"/>
</g>
<g fill="None" fill-opacity="0.0" stroke="#483070" stroke-opacity="1.00" stroke-width="0.3"><path d="
M 657.00 241.00 
C 643.92 234.36 647.55 261.12 659.00 251.00
C 660.64 259.65 651.29 253.98 649.00 257.00
C 660.51 264.27 664.38 248.99 662.00 240.00
C 655.41 239.15 661.99 252.50 654.08 250.92 C 646.17 249.34 652.25 240.14 657.00 241.00 Z"/>
</g>
<g fill="None" fill-opacity="0.0" stroke="#F0EEF3" stroke-opacity="1.00" stroke-width="0.3"><path d="
M 552.00 242.00 
C 545.65 239.09 542.45 248.77 547.92 251.07 C 553.40 253.37 556.53 244.08 552.00 242.00 Z"/>
</g>
<g fill="None" fill-opacity="0.0" stroke="#8E7DA5" stroke-opacity="1.00" stroke-width="0.3"><path d="
M 560.00 253.00 
C 562.77 257.90 562.87 245.35 563.00 245.00
C 561.74 247.34 563.11 252.42 560.00 253.00 Z"/>
</g>
<g fill="#FCFCFC" fill-opacity="1.00" stroke="None">
<path d="
M 0.00 441.00 
L 1248.00 441.00
L 1248.00 0.00
L 0.00 0.00
L 0.00 441.00
M 346.00 170.00 
C 370.54 171.67 371.00 209.64 346.00 211.00
C 339.83 212.00 331.88 212.62 325.00 212.00
C 322.31 209.41 324.09 200.99 324.00 197.00 C 323.91 193.01 322.73 184.09 325.00 181.00
C 325.22 180.70 325.79 180.27 326.00 180.00
C 328.65 176.60 333.03 171.66 337.00 170.00
C 340.21 168.50 342.97 169.46 346.00 170.00
M 427.00 171.00 
C 429.69 173.52 431.95 178.83 434.00 182.00
C 435.97 185.05 437.88 188.09 440.00 191.00
C 439.69 189.39 441.36 183.54 441.00 181.00 C 440.64 178.46 440.04 171.37 442.00 170.00
C 444.68 168.12 450.99 171.41 454.00 170.00
C 454.00 183.67 454.00 197.33 454.00 211.00
C 452.35 213.35 443.87 212.18 442.00 211.00
C 440.28 209.91 440.92 209.43 440.00 208.00
C 437.56 204.24 434.52 199.71 432.00 196.00
C 430.41 193.67 427.57 191.31 426.00 189.00
C 426.56 191.84 426.35 197.21 426.00 200.00 C 425.65 202.79 427.50 208.86 426.00 211.00
C 424.56 213.06 415.55 212.55 414.00 211.00
C 407.69 204.69 416.71 191.63 413.00 183.00 C 409.29 174.37 417.74 162.36 427.00 171.00
M 692.00 172.00 
C 692.98 172.69 693.92 173.53 695.00 174.00
C 694.50 177.91 689.56 179.57 688.00 183.00
C 683.61 180.33 678.61 179.51 674.00 182.00
C 672.37 183.02 669.26 187.19 669.00 189.00
C 668.55 192.10 671.15 198.38 674.00 200.00
C 679.30 202.31 688.02 201.20 690.00 195.00
C 680.26 199.52 679.70 185.22 687.00 186.00 C 694.30 186.78 695.22 192.67 702.00 194.00
C 699.42 216.32 663.98 217.94 659.00 196.00
C 658.18 192.84 658.68 190.59 659.00 188.00
C 659.30 185.64 659.17 184.18 660.00 182.00
C 661.32 178.53 664.24 176.26 667.00 174.00
C 673.49 168.67 684.40 166.64 692.00 172.00
M 746.00 170.00 
C 747.26 183.89 745.05 198.09 746.00 212.00
C 742.17 211.37 737.01 213.28 734.00 211.00
C 731.71 208.71 732.69 199.41 733.00 196.00
C 728.00 196.00 723.00 196.00 718.00 196.00
C 718.00 201.00 718.00 206.00 718.00 211.00
C 716.71 212.84 707.25 212.79 706.00 211.00
C 702.81 206.44 707.59 196.73 706.00 191.00 C 704.41 185.27 707.19 176.05 706.00 170.00
C 710.00 170.00 714.00 170.00 718.00 170.00
C 718.00 175.00 718.00 180.00 718.00 185.00
C 723.33 185.00 728.67 185.00 734.00 185.00
C 734.00 180.00 734.00 175.00 734.00 170.00
C 734.40 169.02 743.70 167.61 746.00 170.00
M 805.00 170.00 
C 805.33 173.64 804.75 177.36 805.00 181.00
C 797.67 181.00 790.33 181.00 783.00 181.00
C 783.00 182.00 783.00 183.00 783.00 184.00
C 786.54 183.68 801.11 182.31 803.00 185.00
C 811.29 196.85 789.11 197.87 783.00 196.00
C 783.00 197.33 783.00 198.67 783.00 200.00
C 788.45 202.04 799.83 196.83 804.00 201.00
C 805.73 202.73 805.69 209.31 804.00 211.00
C 800.96 214.04 786.46 212.28 783.00 211.00
C 779.54 209.72 774.36 205.01 772.00 202.00
C 768.78 197.87 768.78 185.76 771.00 181.00
C 772.77 177.21 779.38 171.69 783.00 170.00
C 786.33 168.44 802.21 167.10 805.00 170.00
M 409.00 210.00 
C 408.83 212.41 400.20 213.68 397.00 211.00
C 394.69 209.06 393.83 201.69 392.23 198.77 C 390.63 195.85 388.01 189.37 388.00 186.00
C 386.68 190.17 383.53 194.96 382.00 199.00
C 380.82 202.13 380.96 208.69 378.00 211.00
C 374.67 213.61 366.18 212.47 366.00 210.00
C 365.70 205.83 369.56 198.95 371.00 195.00
C 372.85 189.92 375.18 185.07 377.00 180.00
C 378.16 176.76 379.74 173.55 380.00 170.00
C 384.33 170.00 388.67 170.00 393.00 170.00
C 396.93 171.49 400.30 184.35 401.78 189.22 C 403.26 194.10 409.38 204.74 409.00 210.00
M 482.00 181.00 
C 482.63 182.83 482.00 186.05 482.00 188.00
C 482.00 189.67 482.00 191.33 482.00 193.00
C 482.00 196.62 483.98 208.17 482.00 211.00
C 480.71 212.84 471.25 212.79 470.00 211.00
C 468.13 208.33 470.00 197.42 470.00 194.00
C 470.00 192.00 470.00 190.00 470.00 188.00
C 470.00 185.67 470.00 183.33 470.00 181.00
C 466.00 181.00 462.00 181.00 458.00 181.00
C 458.00 177.33 458.00 173.67 458.00 170.00
C 462.00 170.00 466.00 170.00 470.00 170.00
C 470.50 170.00 471.00 170.00 471.00 170.00
C 478.67 170.00 486.33 170.00 494.00 170.00
C 494.00 173.67 494.00 177.33 494.00 181.00
C 490.00 181.00 486.00 181.00 482.00 181.00
M 509.00 181.00 
C 509.00 182.00 509.00 183.00 509.00 184.00
C 512.54 183.68 527.11 182.31 529.00 185.00
C 537.29 196.85 515.11 197.87 509.00 196.00
C 509.00 197.33 509.00 198.67 509.00 200.00
C 513.79 202.32 527.82 196.46 531.00 201.00
C 532.13 202.62 531.09 209.91 530.00 211.00
C 527.01 213.99 512.39 212.35 509.00 211.00
C 503.02 208.62 497.46 202.05 497.00 196.00
C 496.71 192.23 496.58 187.76 497.00 184.00
C 497.47 179.75 504.29 171.41 509.00 170.00
C 515.73 167.99 524.12 171.51 531.00 170.00
C 531.00 173.67 531.00 177.33 531.00 181.00
C 523.67 181.00 516.33 181.00 509.00 181.00
M 601.00 211.00 
C 598.15 212.12 590.63 213.34 588.00 211.00
C 585.74 208.99 585.99 202.84 584.08 199.92 C 582.16 197.01 580.67 191.49 580.00 188.00
C 580.28 187.30 576.50 189.25 576.68 191.68 C 576.86 194.10 574.83 196.81 574.00 199.00
C 572.89 201.93 571.99 207.70 570.00 210.00
C 567.59 212.79 557.51 212.92 557.00 211.00
C 555.89 206.86 561.54 197.95 563.00 194.00
C 564.71 189.37 567.45 184.36 569.00 180.00
C 571.51 172.94 573.31 165.95 584.00 170.00
C 589.74 172.17 589.69 184.56 592.98 190.02 C 596.26 195.49 597.72 205.19 601.00 211.00
M 612.00 209.00 
C 609.50 207.01 603.86 204.39 603.00 201.00
C 601.48 197.75 601.34 189.86 602.00 186.00 C 602.66 182.14 599.86 172.20 603.00 170.00
C 605.68 168.12 611.99 171.41 615.00 170.00
C 615.00 180.00 615.00 190.00 615.00 200.00
C 620.96 201.91 629.28 197.45 635.00 200.00 C 640.72 202.55 636.58 215.07 630.00 212.00 C 623.41 208.93 616.16 216.20 612.00 209.00
M 653.00 181.00 
C 653.00 181.50 653.00 182.00 653.00 182.00
C 653.00 186.06 653.89 192.14 653.00 196.00 C 652.11 199.86 655.17 207.90 653.00 211.00
C 651.71 212.84 642.25 212.79 641.00 211.00
C 638.64 207.62 641.89 199.31 641.00 195.00 C 640.11 190.69 641.00 183.57 641.00 179.00
C 641.00 176.63 640.01 171.39 642.00 170.00
C 644.46 168.28 650.24 171.29 653.00 170.00
C 653.00 173.67 653.00 177.33 653.00 181.00
M 765.00 181.00 
C 765.00 181.50 765.00 182.00 765.00 182.00
C 765.00 186.06 765.89 192.14 765.00 196.00 C 764.11 199.86 767.17 207.90 765.00 211.00
C 763.71 212.84 754.25 212.79 753.00 211.00
C 750.64 207.62 753.89 199.31 753.00 195.00 C 752.11 190.69 753.00 183.57 753.00 179.00
C 753.00 176.63 752.01 171.39 754.00 170.00
C 756.46 168.28 762.24 171.29 765.00 170.00
C 765.00 173.67 765.00 177.33 765.00 181.00
M 839.00 174.00 
C 840.04 175.04 841.23 176.61 842.00 178.00
C 843.04 179.88 843.88 181.52 844.00 184.00
C 844.36 191.44 839.60 198.73 832.00 200.00
C 833.09 204.63 838.82 206.87 841.00 211.00
C 840.97 212.46 827.11 213.38 825.00 210.00
C 824.66 209.45 824.37 208.46 824.00 208.00
C 822.57 206.22 819.88 204.32 819.00 202.00
C 818.13 199.72 818.98 191.48 822.00 190.00
C 824.76 188.65 836.80 191.41 833.00 183.00
C 831.85 182.80 830.17 181.42 829.00 181.00
C 822.31 179.57 814.77 182.08 808.00 181.00
C 808.00 180.00 808.00 179.00 808.00 178.00
C 807.22 175.59 808.59 172.48 808.00 170.00
C 818.11 171.56 831.35 166.27 839.00 174.00
M 849.00 211.00 
C 846.87 207.95 849.72 200.99 849.00 197.00 C 848.28 193.01 849.00 186.24 849.00 182.00
C 849.00 179.24 847.74 171.58 850.00 170.00
C 850.83 169.42 860.17 169.42 861.00 170.00
C 865.22 172.96 860.62 184.60 862.00 190.00 C 863.38 195.40 860.97 206.12 862.00 212.00
C 857.83 211.36 852.34 213.29 849.00 211.00
M 608.00 254.00 
C 606.37 248.41 606.31 239.52 608.00 234.00
C 609.63 239.59 609.69 248.48 608.00 254.00
M 540.00 239.00 
C 524.51 229.13 523.05 258.88 540.00 250.00
C 536.39 257.24 524.84 253.00 524.03 244.97 C 523.21 236.95 536.59 230.55 540.00 239.00
M 622.00 241.00 
C 614.37 241.02 616.04 251.28 622.00 253.00
C 612.26 255.88 613.94 240.66 615.00 236.00
C 617.59 237.38 617.57 240.96 622.00 241.00
M 602.00 240.00 
C 604.00 243.53 600.50 250.18 602.00 254.00
C 599.01 249.24 597.71 255.00 592.78 253.22 C 587.85 251.44 588.99 244.49 589.00 240.00
C 594.28 239.46 590.98 245.66 592.00 249.00 C 593.02 252.34 600.56 251.60 599.00 247.00
C 599.12 246.50 599.35 235.32 602.00 240.00
M 553.00 240.00 
C 560.57 242.95 554.20 257.88 546.31 252.69 C 538.41 247.50 544.64 236.74 553.00 240.00
M 563.00 245.00 
C 562.87 245.35 562.77 257.90 560.00 253.00
C 558.14 249.72 561.39 243.54 560.00 240.00
C 562.61 243.93 567.63 237.71 571.22 240.78 C 574.82 243.84 573.03 250.69 572.00 254.00
C 572.38 249.03 568.65 236.19 563.00 245.00
M 586.00 241.00 
C 584.34 243.54 577.81 239.83 579.00 245.00
C 592.69 244.80 580.64 260.95 576.00 250.00
C 581.97 253.72 586.69 249.70 578.97 247.03 C 571.26 244.35 582.10 235.76 586.00 241.00
M 626.00 254.00 
C 624.40 250.40 624.29 243.53 626.00 240.00
C 627.60 243.60 627.71 250.47 626.00 254.00
M 644.00 254.00 
C 641.42 251.23 645.43 241.87 638.97 242.03 C 632.51 242.18 635.23 250.97 633.00 254.00
C 630.90 249.80 632.50 244.61 632.00 240.00
C 634.61 243.93 639.63 237.71 643.22 240.78 C 646.82 243.84 645.03 250.69 644.00 254.00
M 657.00 241.00 
C 652.25 240.14 646.17 249.34 654.08 250.92 C 661.99 252.50 655.41 239.15 662.00 240.00
C 664.38 248.99 660.51 264.27 649.00 257.00
C 651.29 253.98 660.64 259.65 659.00 251.00
C 647.55 261.12 643.92 234.36 657.00 241.00 Z"/>
</g>
<g fill="#BCB5C5" fill-opacity="1.00" stroke="None">
<path d="
M 337.00 170.00 
C 339.87 169.74 343.12 169.80 346.00 170.00
C 342.97 169.46 340.21 168.50 337.00 170.00 Z"/>
</g>
<g fill="#C4BCCE" fill-opacity="1.00" stroke="None">
<path d="
M 414.00 211.00 
C 415.23 205.19 412.37 196.52 414.00 191.00 C 415.63 185.48 410.87 175.47 414.00 171.00
C 415.57 168.76 424.82 169.55 427.00 171.00
C 417.74 162.36 409.29 174.37 413.00 183.00 C 416.71 191.63 407.69 204.69 414.00 211.00 Z"/>
</g>
<g fill="#9282A9" fill-opacity="1.00" stroke="None">
<path d="
M 667.00 174.00 
C 670.21 173.04 678.05 174.56 681.00 174.00 C 683.95 173.44 694.07 175.44 692.00 172.00
C 684.40 166.64 673.49 168.67 667.00 174.00 Z"/>
</g>
<g fill="#CCC5D6" fill-opacity="1.00" stroke="None">
<path d="
M 734.00 170.00 
C 736.95 170.96 741.87 170.00 745.00 170.00
C 745.50 170.00 746.00 170.00 746.00 170.00
C 743.70 167.61 734.40 169.02 734.00 170.00 Z"/>
</g>
<g fill="#BFB8CA" fill-opacity="1.00" stroke="None">
<path d="
M 783.00 170.00 
C 790.00 170.00 797.00 170.00 804.00 170.00
C 804.50 170.00 805.00 170.00 805.00 170.00
C 802.21 167.10 786.33 168.44 783.00 170.00 Z"/>
</g>
<g fill="#84719D" fill-opacity="1.00" stroke="None">
<path d="
M 326.00 180.00 
C 329.27 179.53 332.72 180.35 336.00 180.00
C 336.59 177.16 334.78 173.02 337.00 171.00
C 337.00 170.50 337.00 170.00 337.00 170.00
C 333.03 171.66 328.65 176.60 326.00 180.00 Z"/>
</g>
<g fill="#2C144D" fill-opacity="1.00" stroke="None">
<path d="
M 337.00 171.00 
C 337.00 174.33 337.00 177.67 337.00 181.00
C 351.20 175.81 361.57 195.08 346.00 200.00
C 343.40 200.82 340.24 201.30 337.00 201.00
C 333.30 200.65 329.07 199.19 325.00 200.00
C 325.00 203.67 325.00 207.33 325.00 211.00
C 331.94 210.37 339.04 211.38 346.00 211.00
C 371.00 209.64 370.54 171.67 346.00 170.00
C 343.12 169.80 339.87 169.74 337.00 170.00
C 337.00 170.00 337.00 170.50 337.00 171.00 Z"/>
</g>
<g fill="#745F91" fill-opacity="1.00" stroke="None">
<path d="
M 377.00 180.00 
C 381.02 178.49 385.48 185.04 389.00 182.00
C 390.26 177.98 391.89 174.10 393.00 170.00
C 388.67 170.00 384.33 170.00 380.00 170.00
C 379.74 173.55 378.16 176.76 377.00 180.00 Z"/>
</g>
<g fill="#2F1652" fill-opacity="1.00" stroke="None">
<path d="
M 389.00 182.00 
C 388.59 183.30 388.41 184.71 388.00 186.00
C 388.01 189.37 390.63 195.85 392.23 198.77 C 393.83 201.69 394.69 209.06 397.00 211.00
C 399.98 209.84 407.13 212.99 409.00 210.00
C 409.38 204.74 403.26 194.10 401.78 189.22 C 400.30 184.35 396.93 171.49 393.00 170.00
C 391.89 174.10 390.26 177.98 389.00 182.00 Z"/>
</g>
<g fill="#786494" fill-opacity="1.00" stroke="None">
<path d="
M 414.00 171.00 
C 419.23 175.86 422.10 183.26 426.00 189.00
C 427.57 191.31 430.41 193.67 432.00 196.00
C 431.63 192.35 434.44 185.48 434.00 182.00
C 431.95 178.83 429.69 173.52 427.00 171.00
C 424.82 169.55 415.57 168.76 414.00 171.00 Z"/>
</g>
<g fill="#A89CB7" fill-opacity="1.00" stroke="None">
<path d="
M 440.00 191.00 
C 440.28 191.39 441.94 192.86 442.00 193.00
C 443.71 185.73 440.72 177.37 442.00 170.00
C 440.04 171.37 440.64 178.46 441.00 181.00 C 441.36 183.54 439.69 189.39 440.00 191.00 Z"/>
</g>
<g fill="#371E5B" fill-opacity="1.00" stroke="None">
<path d="
M 442.00 193.00 
C 441.40 195.57 438.78 202.39 440.00 208.00
C 440.92 209.43 440.28 209.91 442.00 211.00
C 445.42 212.41 450.43 209.94 454.00 211.00
C 454.00 197.33 454.00 183.67 454.00 170.00
C 450.99 171.41 444.68 168.12 442.00 170.00
C 440.72 177.37 443.71 185.73 442.00 193.00 Z"/>
</g>
<g fill="#2F1651" fill-opacity="1.00" stroke="None">
<path d="
M 470.00 181.00 
C 470.00 177.38 469.67 173.60 470.00 170.00
C 466.00 170.00 462.00 170.00 458.00 170.00
C 458.00 173.67 458.00 177.33 458.00 181.00
C 462.00 181.00 466.00 181.00 470.00 181.00 Z"/>
</g>
<g fill="#7D6998" fill-opacity="1.00" stroke="None">
<path d="
M 470.00 181.00 
C 470.00 183.33 470.00 185.67 470.00 188.00
C 474.00 188.00 478.00 188.00 482.00 188.00
C 482.00 186.05 482.63 182.83 482.00 181.00
C 478.43 179.93 473.03 172.91 471.00 170.00
C 471.00 170.00 470.50 170.00 470.00 170.00
C 469.67 173.60 470.00 177.38 470.00 181.00 Z"/>
</g>
<g fill="#32165A" fill-opacity="1.00" stroke="None">
<path d="
M 482.00 181.00 
C 486.00 181.00 490.00 181.00 494.00 181.00
C 494.00 177.33 494.00 173.67 494.00 170.00
C 486.33 170.00 478.67 170.00 471.00 170.00
C 473.03 172.91 478.43 179.93 482.00 181.00 Z"/>
</g>
<g fill="#7A6695" fill-opacity="1.00" stroke="None">
<path d="
M 497.00 184.00 
C 500.98 184.27 505.03 183.64 509.00 184.00
C 509.00 183.00 509.00 182.00 509.00 181.00
C 509.00 177.33 509.00 173.67 509.00 170.00
C 504.29 171.41 497.47 179.75 497.00 184.00 Z"/>
</g>
<g fill="#2E164F" fill-opacity="1.00" stroke="None">
<path d="
M 509.00 181.00 
C 516.33 181.00 523.67 181.00 531.00 181.00
C 531.00 177.33 531.00 173.67 531.00 170.00
C 524.12 171.51 515.73 167.99 509.00 170.00
C 509.00 173.67 509.00 177.33 509.00 181.00 Z"/>
</g>
<g fill="#745F90" fill-opacity="1.00" stroke="None">
<path d="
M 569.00 180.00 
C 572.73 178.82 576.14 185.14 580.00 182.00
C 580.97 177.89 583.67 174.32 584.00 170.00
C 573.31 165.95 571.51 172.94 569.00 180.00 Z"/>
</g>
<g fill="#2F1652" fill-opacity="1.00" stroke="None">
<path d="
M 580.00 182.00 
C 579.36 184.70 579.50 185.38 580.00 188.00
C 580.67 191.49 582.16 197.01 584.08 199.92 C 585.99 202.84 585.74 208.99 588.00 211.00
C 592.33 211.00 596.67 211.00 601.00 211.00
C 597.72 205.19 596.26 195.49 592.98 190.02 C 589.69 184.56 589.74 172.17 584.00 170.00
C 583.67 174.32 580.97 177.89 580.00 182.00 Z"/>
</g>
<g fill="#B4AAC2" fill-opacity="1.00" stroke="None">
<path d="
M 603.00 201.00 
C 602.78 200.15 603.00 198.88 603.00 198.00
C 603.00 195.33 603.00 192.67 603.00 190.00
C 603.00 187.33 603.00 184.67 603.00 182.00
C 603.00 178.00 603.00 174.00 603.00 170.00
C 599.86 172.20 602.66 182.14 602.00 186.00 C 601.34 189.86 601.48 197.75 603.00 201.00 Z"/>
</g>
<g fill="#88789F" fill-opacity="1.00" stroke="None">
<path d="
M 603.00 182.00 
C 606.67 182.00 610.33 182.00 614.00 182.00
C 614.00 184.67 614.00 187.33 614.00 190.00
C 614.00 192.25 613.29 195.89 614.00 198.00
C 615.84 198.60 618.64 202.71 623.00 201.00 C 627.36 199.29 631.64 202.28 636.00 201.00
C 636.00 204.33 636.00 207.67 636.00 211.00
C 628.13 209.96 618.79 213.27 612.00 209.00
C 616.16 216.20 623.41 208.93 630.00 212.00 C 636.58 215.07 640.72 202.55 635.00 200.00 C 629.28 197.45 620.96 201.91 615.00 200.00
C 615.00 190.00 615.00 180.00 615.00 170.00
C 611.99 171.41 605.68 168.12 603.00 170.00
C 603.00 174.00 603.00 178.00 603.00 182.00 Z"/>
</g>
<g fill="#715D8E" fill-opacity="1.00" stroke="None">
<path d="
M 641.00 179.00 
C 642.55 182.54 649.99 182.27 653.00 182.00
C 653.00 182.00 653.00 181.50 653.00 181.00
C 648.83 178.08 645.25 173.76 642.00 170.00
C 640.01 171.39 641.00 176.63 641.00 179.00 Z"/>
</g>
<g fill="#301457" fill-opacity="1.00" stroke="None">
<path d="
M 653.00 181.00 
C 653.00 177.33 653.00 173.67 653.00 170.00
C 650.24 171.29 644.46 168.28 642.00 170.00
C 645.25 173.76 648.83 178.08 653.00 181.00 Z"/>
</g>
<g fill="#2F1555" fill-opacity="1.00" stroke="None">
<path d="
M 706.00 211.00 
C 710.00 211.00 714.00 211.00 718.00 211.00
C 718.00 206.00 718.00 201.00 718.00 196.00
C 723.00 196.00 728.00 196.00 733.00 196.00
C 733.50 196.00 734.00 196.00 734.00 196.00
C 734.30 192.69 733.78 189.31 734.00 186.00
C 735.66 186.54 736.33 188.56 738.00 189.00
C 739.46 190.14 744.46 193.43 745.00 195.00
C 745.00 186.78 744.26 178.18 745.00 170.00
C 741.87 170.00 736.95 170.96 734.00 170.00
C 734.00 175.00 734.00 180.00 734.00 185.00
C 728.67 185.00 723.33 185.00 718.00 185.00
C 718.00 180.00 718.00 175.00 718.00 170.00
C 714.00 170.00 710.00 170.00 706.00 170.00
C 707.19 176.05 704.41 185.27 706.00 191.00 C 707.59 196.73 702.81 206.44 706.00 211.00 Z"/>
</g>
<g fill="#84739D" fill-opacity="1.00" stroke="None">
<path d="
M 745.00 195.00 
C 745.00 197.33 745.00 199.67 745.00 202.00
C 745.00 205.00 745.00 208.00 745.00 211.00
C 741.33 211.00 737.67 211.00 734.00 211.00
C 737.01 213.28 742.17 211.37 746.00 212.00
C 745.05 198.09 747.26 183.89 746.00 170.00
C 746.00 170.00 745.50 170.00 745.00 170.00
C 744.26 178.18 745.00 186.78 745.00 195.00 Z"/>
</g>
<g fill="#715D8E" fill-opacity="1.00" stroke="None">
<path d="
M 753.00 179.00 
C 754.55 182.54 761.99 182.27 765.00 182.00
C 765.00 182.00 765.00 181.50 765.00 181.00
C 760.83 178.08 757.25 173.76 754.00 170.00
C 752.01 171.39 753.00 176.63 753.00 179.00 Z"/>
</g>
<g fill="#301456" fill-opacity="1.00" stroke="None">
<path d="
M 765.00 181.00 
C 765.00 177.33 765.00 173.67 765.00 170.00
C 762.24 171.29 756.46 168.28 754.00 170.00
C 757.25 173.76 760.83 178.08 765.00 181.00 Z"/>
</g>
<g fill="#83719D" fill-opacity="1.00" stroke="None">
<path d="
M 771.00 181.00 
C 772.84 178.15 779.42 181.09 782.00 180.00
C 782.53 177.81 780.86 174.38 783.00 173.00
C 783.03 172.00 782.98 171.00 783.00 170.00
C 779.38 171.69 772.77 177.21 771.00 181.00 Z"/>
</g>
<g fill="#29104B" fill-opacity="1.00" stroke="None">
<path d="
M 783.00 173.00 
C 782.94 175.33 783.05 177.67 783.00 180.00
C 790.00 180.00 797.00 180.00 804.00 180.00
C 804.00 176.67 804.00 173.33 804.00 170.00
C 797.00 170.00 790.00 170.00 783.00 170.00
C 782.98 171.00 783.03 172.00 783.00 173.00 Z"/>
</g>
<g fill="#665183" fill-opacity="1.00" stroke="None">
<path d="
M 783.00 173.00 
C 780.86 174.38 782.53 177.81 782.00 180.00
C 779.42 181.09 772.84 178.15 771.00 181.00
C 770.23 182.19 771.00 186.53 771.00 188.00
C 774.67 188.00 778.33 188.00 782.00 188.00
C 782.11 187.00 781.53 185.27 783.00 185.00
C 783.09 184.52 783.00 184.00 783.00 184.00
C 783.00 183.00 783.00 182.00 783.00 181.00
C 790.33 181.00 797.67 181.00 805.00 181.00
C 804.75 177.36 805.33 173.64 805.00 170.00
C 805.00 170.00 804.50 170.00 804.00 170.00
C 804.00 173.33 804.00 176.67 804.00 180.00
C 797.00 180.00 790.00 180.00 783.00 180.00
C 783.05 177.67 782.94 175.33 783.00 173.00 Z"/>
</g>
<g fill="#8978A2" fill-opacity="1.00" stroke="None">
<path d="
M 808.00 178.00 
C 807.97 177.61 810.01 175.14 809.00 174.00
C 819.00 174.00 829.00 174.00 839.00 174.00
C 831.35 166.27 818.11 171.56 808.00 170.00
C 808.59 172.48 807.22 175.59 808.00 178.00 Z"/>
</g>
<g fill="#7D6A97" fill-opacity="1.00" stroke="None">
<path d="
M 849.00 182.00 
C 849.16 180.93 850.90 178.74 850.00 177.00
C 853.28 179.62 856.26 183.10 861.00 182.00
C 861.00 181.50 861.00 181.00 861.00 181.00
C 856.83 178.08 853.25 173.76 850.00 170.00
C 847.74 171.58 849.00 179.24 849.00 182.00 Z"/>
</g>
<g fill="#301456" fill-opacity="1.00" stroke="None">
<path d="
M 861.00 181.00 
C 861.00 177.33 861.00 173.67 861.00 170.00
C 860.17 169.42 850.83 169.42 850.00 170.00
C 853.25 173.76 856.83 178.08 861.00 181.00 Z"/>
</g>
<g fill="#A497B3" fill-opacity="1.00" stroke="None">
<path d="
M 861.00 181.00 
C 861.00 181.00 861.00 181.50 861.00 182.00
C 861.00 191.67 861.00 201.33 861.00 211.00
C 857.00 211.00 853.00 211.00 849.00 211.00
C 852.34 213.29 857.83 211.36 862.00 212.00
C 860.97 206.12 863.38 195.40 862.00 190.00 C 860.62 184.60 865.22 172.96 861.00 170.00
C 861.00 173.67 861.00 177.33 861.00 181.00 Z"/>
</g>
<g fill="#6D5888" fill-opacity="1.00" stroke="None">
<path d="
M 326.00 180.00 
C 325.79 180.27 325.22 180.70 325.00 181.00
C 324.60 183.16 325.00 185.80 325.00 188.00
C 328.67 188.00 332.33 188.00 336.00 188.00
C 336.45 192.30 334.96 197.12 337.00 201.00
C 340.24 201.30 343.40 200.82 346.00 200.00
C 343.09 200.52 339.93 199.61 337.00 200.00
C 337.00 193.67 337.00 187.33 337.00 181.00
C 337.00 177.67 337.00 174.33 337.00 171.00
C 334.78 173.02 336.59 177.16 336.00 180.00
C 332.72 180.35 329.27 179.53 326.00 180.00 Z"/>
</g>
<g fill="#2D1351" fill-opacity="1.00" stroke="None">
<path d="
M 414.00 211.00 
C 418.00 211.00 422.00 211.00 426.00 211.00
C 427.50 208.86 425.65 202.79 426.00 200.00 C 426.35 197.21 426.56 191.84 426.00 189.00
C 422.10 183.26 419.23 175.86 414.00 171.00
C 410.87 175.47 415.63 185.48 414.00 191.00 C 412.37 196.52 415.23 205.19 414.00 211.00 Z"/>
</g>
<g fill="#816E9B" fill-opacity="1.00" stroke="None">
<path d="
M 667.00 174.00 
C 664.24 176.26 661.32 178.53 660.00 182.00
C 663.16 178.74 671.06 182.13 674.00 182.00
C 678.61 179.51 683.61 180.33 688.00 183.00
C 689.56 179.57 694.50 177.91 695.00 174.00
C 693.92 173.53 692.98 172.69 692.00 172.00
C 694.07 175.44 683.95 173.44 681.00 174.00 C 678.05 174.56 670.21 173.04 667.00 174.00 Z"/>
</g>
<g fill="#6E598C" fill-opacity="1.00" stroke="None">
<path d="
M 808.00 178.00 
C 808.00 179.00 808.00 180.00 808.00 181.00
C 814.77 182.08 822.31 179.57 829.00 181.00
C 823.12 178.88 814.74 181.34 809.00 179.00
C 819.09 176.68 831.15 178.65 842.00 178.00
C 841.23 176.61 840.04 175.04 839.00 174.00
C 829.00 174.00 819.00 174.00 809.00 174.00
C 810.01 175.14 807.97 177.61 808.00 178.00 Z"/>
</g>
<g fill="#2F1751" fill-opacity="1.00" stroke="None">
<path d="
M 849.00 182.00 
C 849.00 186.24 848.28 193.01 849.00 197.00 C 849.72 200.99 846.87 207.95 849.00 211.00
C 853.00 211.00 857.00 211.00 861.00 211.00
C 861.00 201.33 861.00 191.67 861.00 182.00
C 856.26 183.10 853.28 179.62 850.00 177.00
C 850.90 178.74 849.16 180.93 849.00 182.00 Z"/>
</g>
<g fill="#573E7A" fill-opacity="1.00" stroke="None">
<path d="
M 829.00 181.00 
C 830.17 181.42 831.85 182.80 833.00 183.00
C 835.68 183.46 841.95 179.53 844.00 184.00
C 843.88 181.52 843.04 179.88 842.00 178.00
C 831.15 178.65 819.09 176.68 809.00 179.00
C 814.74 181.34 823.12 178.88 829.00 181.00 Z"/>
</g>
<g fill="#2B124D" fill-opacity="1.00" stroke="None">
<path d="
M 641.00 211.00 
C 645.00 211.00 649.00 211.00 653.00 211.00
C 655.17 207.90 652.11 199.86 653.00 196.00 C 653.89 192.14 653.00 186.06 653.00 182.00
C 649.99 182.27 642.55 182.54 641.00 179.00
C 641.00 183.57 640.11 190.69 641.00 195.00 C 641.89 199.31 638.64 207.62 641.00 211.00 Z"/>
</g>
<g fill="#2B124D" fill-opacity="1.00" stroke="None">
<path d="
M 753.00 211.00 
C 757.00 211.00 761.00 211.00 765.00 211.00
C 767.17 207.90 764.11 199.86 765.00 196.00 C 765.89 192.14 765.00 186.06 765.00 182.00
C 761.99 182.27 754.55 182.54 753.00 179.00
C 753.00 183.57 752.11 190.69 753.00 195.00 C 753.89 199.31 750.64 207.62 753.00 211.00 Z"/>
</g>
<g fill="#523C71" fill-opacity="1.00" stroke="None">
<path d="
M 371.00 195.00 
C 373.62 195.43 380.93 195.88 382.00 199.00
C 383.53 194.96 386.68 190.17 388.00 186.00
C 388.41 184.71 388.59 183.30 389.00 182.00
C 385.48 185.04 381.02 178.49 377.00 180.00
C 375.18 185.07 372.85 189.92 371.00 195.00 Z"/>
</g>
<g fill="#533D72" fill-opacity="1.00" stroke="None">
<path d="
M 563.00 194.00 
C 565.66 195.53 573.09 195.34 574.00 199.00
C 574.83 196.81 576.86 194.10 576.68 191.68 C 576.50 189.25 580.28 187.30 580.00 188.00
C 579.50 185.38 579.36 184.70 580.00 182.00
C 576.14 185.14 572.73 178.82 569.00 180.00
C 567.45 184.36 564.71 189.37 563.00 194.00 Z"/>
</g>
<g fill="#AAA0B8" fill-opacity="1.00" stroke="None">
<path d="
M 325.00 212.00 
C 324.96 212.00 325.00 211.00 325.00 211.00
C 325.00 207.33 325.00 203.67 325.00 200.00
C 325.00 196.00 325.00 192.00 325.00 188.00
C 325.00 185.80 324.60 183.16 325.00 181.00
C 322.73 184.09 323.91 193.01 324.00 197.00 C 324.09 200.99 322.31 209.41 325.00 212.00 Z"/>
</g>
<g fill="#F9F9FA" fill-opacity="1.00" stroke="None">
<path d="
M 346.00 200.00 
C 361.57 195.08 351.20 175.81 337.00 181.00
C 337.00 187.33 337.00 193.67 337.00 200.00
C 339.93 199.61 343.09 200.52 346.00 200.00 Z"/>
</g>
<g fill="#6D588B" fill-opacity="1.00" stroke="None">
<path d="
M 660.00 182.00 
C 659.17 184.18 659.30 185.64 659.00 188.00
C 660.64 186.89 667.91 187.89 669.00 189.00
C 669.26 187.19 672.37 183.02 674.00 182.00
C 671.06 182.13 663.16 178.74 660.00 182.00 Z"/>
</g>
<g fill="#C4BDCF" fill-opacity="1.00" stroke="None">
<path d="
M 772.00 202.00 
C 770.75 199.73 771.09 197.57 771.00 195.00
C 770.92 192.67 771.00 190.33 771.00 188.00
C 771.00 186.53 770.23 182.19 771.00 181.00
C 768.78 185.76 768.78 197.87 772.00 202.00 Z"/>
</g>
<g fill="#5F4780" fill-opacity="1.00" stroke="None">
<path d="
M 432.00 196.00 
C 434.52 199.71 437.56 204.24 440.00 208.00
C 438.78 202.39 441.40 195.57 442.00 193.00
C 441.94 192.86 440.28 191.39 440.00 191.00
C 437.88 188.09 435.97 185.05 434.00 182.00
C 434.44 185.48 431.63 192.35 432.00 196.00 Z"/>
</g>
<g fill="#675284" fill-opacity="1.00" stroke="None">
<path d="
M 603.00 190.00 
C 606.67 190.00 610.33 190.00 614.00 190.00
C 614.00 187.33 614.00 184.67 614.00 182.00
C 610.33 182.00 606.67 182.00 603.00 182.00
C 603.00 184.67 603.00 187.33 603.00 190.00 Z"/>
</g>
<g fill="#391D60" fill-opacity="1.00" stroke="None">
<path d="
M 833.00 183.00 
C 836.80 191.41 824.76 188.65 822.00 190.00
C 823.30 191.56 824.62 193.62 826.00 195.00
C 827.86 196.86 830.47 198.14 831.00 201.00
C 828.78 203.46 824.26 204.24 824.00 208.00
C 824.37 208.46 824.66 209.45 825.00 210.00
C 828.76 213.37 836.55 209.55 841.00 211.00
C 838.82 206.87 833.09 204.63 832.00 200.00
C 839.60 198.73 844.36 191.44 844.00 184.00
C 841.95 179.53 835.68 183.46 833.00 183.00 Z"/>
</g>
<g fill="#543D73" fill-opacity="1.00" stroke="None">
<path d="
M 497.00 196.00 
C 501.00 196.00 505.00 196.00 509.00 196.00
C 509.00 192.33 509.00 188.67 509.00 185.00
C 509.00 184.50 509.00 184.00 509.00 184.00
C 505.03 183.64 500.98 184.27 497.00 184.00
C 496.58 187.76 496.71 192.23 497.00 196.00 Z"/>
</g>
<g fill="#A196B0" fill-opacity="1.00" stroke="None">
<path d="
M 509.00 185.00 
C 515.61 185.60 522.37 184.55 529.00 185.00
C 527.11 182.31 512.54 183.68 509.00 184.00
C 509.00 184.00 509.00 184.50 509.00 185.00 Z"/>
</g>
<g fill="#A398B1" fill-opacity="1.00" stroke="None">
<path d="
M 783.00 185.00 
C 789.61 185.60 796.37 184.55 803.00 185.00
C 801.11 182.31 786.54 183.68 783.00 184.00
C 783.00 184.00 783.09 184.52 783.00 185.00 Z"/>
</g>
<g fill="#2E164F" fill-opacity="1.00" stroke="None">
<path d="
M 497.00 196.00 
C 497.46 202.05 503.02 208.62 509.00 211.00
C 511.54 211.62 516.42 211.41 519.00 211.00 C 521.58 210.59 527.94 212.44 530.00 211.00
C 531.09 209.91 532.13 202.62 531.00 201.00
C 526.65 198.72 511.59 204.49 509.00 200.00
C 509.00 198.67 509.00 197.33 509.00 196.00
C 515.11 197.87 537.29 196.85 529.00 185.00
C 522.37 184.55 515.61 185.60 509.00 185.00
C 509.00 188.67 509.00 192.33 509.00 196.00
C 505.00 196.00 501.00 196.00 497.00 196.00 Z"/>
</g>
<g fill="#4E376E" fill-opacity="1.00" stroke="None">
<path d="
M 771.00 188.00 
C 771.00 190.33 770.92 192.67 771.00 195.00
C 778.82 196.64 785.82 194.28 783.00 185.00
C 781.53 185.27 782.11 187.00 782.00 188.00
C 778.33 188.00 774.67 188.00 771.00 188.00 Z"/>
</g>
<g fill="#2F1851" fill-opacity="1.00" stroke="None">
<path d="
M 771.00 195.00 
C 771.09 197.57 770.75 199.73 772.00 202.00
C 774.36 205.01 779.54 209.72 783.00 211.00
C 785.59 211.57 790.40 211.43 793.00 211.00 C 795.60 210.57 801.92 212.45 804.00 211.00
C 805.69 209.31 805.73 202.73 804.00 201.00
C 799.95 198.17 785.69 204.66 783.00 200.00
C 783.00 198.67 783.00 197.33 783.00 196.00
C 789.11 197.87 811.29 196.85 803.00 185.00
C 796.37 184.55 789.61 185.60 783.00 185.00
C 785.82 194.28 778.82 196.64 771.00 195.00 Z"/>
</g>
<g fill="#371D60" fill-opacity="1.00" stroke="None">
<path d="
M 674.00 200.00 
C 669.13 197.87 665.53 193.62 659.00 196.00
C 663.98 217.94 699.42 216.32 702.00 194.00
C 695.22 192.67 694.30 186.78 687.00 186.00 C 679.70 185.22 680.26 199.52 690.00 195.00
C 688.02 201.20 679.30 202.31 674.00 200.00 Z"/>
</g>
<g fill="#7A6695" fill-opacity="1.00" stroke="None">
<path d="
M 734.00 196.00 
C 737.33 196.00 740.67 196.00 744.00 196.00
C 742.58 193.24 739.35 191.73 738.00 189.00
C 736.33 188.56 735.66 186.54 734.00 186.00
C 733.78 189.31 734.30 192.69 734.00 196.00 Z"/>
</g>
<g fill="#4A3369" fill-opacity="1.00" stroke="None">
<path d="
M 325.00 200.00 
C 329.07 199.19 333.30 200.65 337.00 201.00
C 334.96 197.12 336.45 192.30 336.00 188.00
C 332.33 188.00 328.67 188.00 325.00 188.00
C 325.00 192.00 325.00 196.00 325.00 200.00 Z"/>
</g>
<g fill="#654E84" fill-opacity="1.00" stroke="None">
<path d="
M 470.00 194.00 
C 472.50 192.80 480.40 196.02 482.00 193.00
C 482.00 191.33 482.00 189.67 482.00 188.00
C 478.00 188.00 474.00 188.00 470.00 188.00
C 470.00 190.00 470.00 192.00 470.00 194.00 Z"/>
</g>
<g fill="#573F7A" fill-opacity="1.00" stroke="None">
<path d="
M 659.00 196.00 
C 665.53 193.62 669.13 197.87 674.00 200.00
C 671.15 198.38 668.55 192.10 669.00 189.00
C 667.91 187.89 660.64 186.89 659.00 188.00
C 658.68 190.59 658.18 192.84 659.00 196.00 Z"/>
</g>
<g fill="#5F4780" fill-opacity="1.00" stroke="None">
<path d="
M 734.00 196.00 
C 734.38 197.82 734.00 200.14 734.00 202.00
C 737.67 202.00 741.33 202.00 745.00 202.00
C 745.00 199.67 745.00 197.33 745.00 195.00
C 744.46 193.43 739.46 190.14 738.00 189.00
C 739.35 191.73 742.58 193.24 744.00 196.00
C 740.67 196.00 737.33 196.00 734.00 196.00 Z"/>
</g>
<g fill="#4E366D" fill-opacity="1.00" stroke="None">
<path d="
M 603.00 198.00 
C 606.40 198.82 610.69 196.91 614.00 198.00
C 613.29 195.89 614.00 192.25 614.00 190.00
C 610.33 190.00 606.67 190.00 603.00 190.00
C 603.00 192.67 603.00 195.33 603.00 198.00 Z"/>
</g>
<g fill="#9181A8" fill-opacity="1.00" stroke="None">
<path d="
M 819.00 202.00 
C 819.22 198.76 826.00 198.42 826.00 195.00
C 824.62 193.62 823.30 191.56 822.00 190.00
C 818.98 191.48 818.13 199.72 819.00 202.00 Z"/>
</g>
<g fill="#472C6D" fill-opacity="1.00" stroke="None">
<path d="
M 470.00 194.00 
C 470.00 197.42 468.13 208.33 470.00 211.00
C 474.00 211.00 478.00 211.00 482.00 211.00
C 483.98 208.17 482.00 196.62 482.00 193.00
C 480.40 196.02 472.50 192.80 470.00 194.00 Z"/>
</g>
<g fill="#2C1849" fill-opacity="1.00" stroke="None">
<path d="
M 557.00 211.00 
C 560.87 209.73 566.60 212.82 570.00 210.00
C 571.99 207.70 572.89 201.93 574.00 199.00
C 573.09 195.34 565.66 195.53 563.00 194.00
C 561.54 197.95 555.89 206.86 557.00 211.00 Z"/>
</g>
<g fill="#2B1748" fill-opacity="1.00" stroke="None">
<path d="
M 366.00 210.00 
C 366.91 211.46 376.30 211.92 378.00 211.00
C 380.96 208.69 380.82 202.13 382.00 199.00
C 380.93 195.88 373.62 195.43 371.00 195.00
C 369.56 198.95 365.70 205.83 366.00 210.00 Z"/>
</g>
<g fill="#705B8E" fill-opacity="1.00" stroke="None">
<path d="
M 819.00 202.00 
C 819.88 204.32 822.57 206.22 824.00 208.00
C 824.26 204.24 828.78 203.46 831.00 201.00
C 830.47 198.14 827.86 196.86 826.00 195.00
C 826.00 198.42 819.22 198.76 819.00 202.00 Z"/>
</g>
<g fill="#B3A7C2" fill-opacity="1.00" stroke="None">
<path d="
M 734.00 211.00 
C 734.00 208.00 734.00 205.00 734.00 202.00
C 734.00 200.14 734.38 197.82 734.00 196.00
C 734.00 196.00 733.50 196.00 733.00 196.00
C 732.69 199.41 731.71 208.71 734.00 211.00 Z"/>
</g>
<g fill="#2C144D" fill-opacity="1.00" stroke="None">
<path d="
M 603.00 201.00 
C 603.86 204.39 609.50 207.01 612.00 209.00
C 618.79 213.27 628.13 209.96 636.00 211.00
C 636.00 207.67 636.00 204.33 636.00 201.00
C 631.64 202.28 627.36 199.29 623.00 201.00 C 618.64 202.71 615.84 198.60 614.00 198.00
C 610.69 196.91 606.40 198.82 603.00 198.00
C 603.00 198.88 602.78 200.15 603.00 201.00 Z"/>
</g>
<g fill="#88799B" fill-opacity="1.00" stroke="None">
<path d="
M 531.00 201.00 
C 527.82 196.46 513.79 202.32 509.00 200.00
C 511.59 204.49 526.65 198.72 531.00 201.00 Z"/>
</g>
<g fill="#88799A" fill-opacity="1.00" stroke="None">
<path d="
M 804.00 201.00 
C 799.83 196.83 788.45 202.04 783.00 200.00
C 785.69 204.66 799.95 198.17 804.00 201.00 Z"/>
</g>
<g fill="#412569" fill-opacity="1.00" stroke="None">
<path d="
M 734.00 211.00 
C 737.67 211.00 741.33 211.00 745.00 211.00
C 745.00 208.00 745.00 205.00 745.00 202.00
C 741.33 202.00 737.67 202.00 734.00 202.00
C 734.00 205.00 734.00 208.00 734.00 211.00 Z"/>
</g>
<g fill="#7A6D8B" fill-opacity="1.00" stroke="None">
<path d="
M 378.00 211.00 
C 376.30 211.92 366.91 211.46 366.00 210.00
C 366.18 212.47 374.67 213.61 378.00 211.00 Z"/>
</g>
<g fill="#998AAD" fill-opacity="1.00" stroke="None">
<path d="
M 397.00 211.00 
C 400.20 213.68 408.83 212.41 409.00 210.00
C 407.13 212.99 399.98 209.84 397.00 211.00 Z"/>
</g>
<g fill="#7B6E8B" fill-opacity="1.00" stroke="None">
<path d="
M 557.00 211.00 
C 557.51 212.92 567.59 212.79 570.00 210.00
C 566.60 212.82 560.87 209.73 557.00 211.00 Z"/>
</g>
<g fill="#9B8CAF" fill-opacity="1.00" stroke="None">
<path d="
M 841.00 211.00 
C 836.55 209.55 828.76 213.37 825.00 210.00
C 827.11 213.38 840.97 212.46 841.00 211.00 Z"/>
</g>
<g fill="#807291" fill-opacity="1.00" stroke="None">
<path d="
M 325.00 212.00 
C 331.88 212.62 339.83 212.00 346.00 211.00
C 339.04 211.38 331.94 210.37 325.00 211.00
C 325.00 211.00 324.96 212.00 325.00 212.00 Z"/>
</g>
<g fill="#9888AC" fill-opacity="1.00" stroke="None">
<path d="
M 426.00 211.00 
C 422.00 211.00 418.00 211.00 414.00 211.00
C 415.55 212.55 424.56 213.06 426.00 211.00 Z"/>
</g>
<g fill="#998AAD" fill-opacity="1.00" stroke="None">
<path d="
M 454.00 211.00 
C 450.43 209.94 445.42 212.41 442.00 211.00
C 443.87 212.18 452.35 213.35 454.00 211.00 Z"/>
</g>
<g fill="#9686AB" fill-opacity="1.00" stroke="None">
<path d="
M 482.00 211.00 
C 478.00 211.00 474.00 211.00 470.00 211.00
C 471.25 212.79 480.71 212.84 482.00 211.00 Z"/>
</g>
<g fill="#88799A" fill-opacity="1.00" stroke="None">
<path d="
M 530.00 211.00 
C 527.94 212.44 521.58 210.59 519.00 211.00 C 516.42 211.41 511.54 211.62 509.00 211.00
C 512.39 212.35 527.01 213.99 530.00 211.00 Z"/>
</g>
<g fill="#9788AC" fill-opacity="1.00" stroke="None">
<path d="
M 601.00 211.00 
C 596.67 211.00 592.33 211.00 588.00 211.00
C 590.63 213.34 598.15 212.12 601.00 211.00 Z"/>
</g>
<g fill="#9686AB" fill-opacity="1.00" stroke="None">
<path d="
M 653.00 211.00 
C 649.00 211.00 645.00 211.00 641.00 211.00
C 642.25 212.79 651.71 212.84 653.00 211.00 Z"/>
</g>
<g fill="#9888AC" fill-opacity="1.00" stroke="None">
<path d="
M 718.00 211.00 
C 714.00 211.00 710.00 211.00 706.00 211.00
C 707.25 212.79 716.71 212.84 718.00 211.00 Z"/>
</g>
<g fill="#9686AB" fill-opacity="1.00" stroke="None">
<path d="
M 765.00 211.00 
C 761.00 211.00 757.00 211.00 753.00 211.00
C 754.25 212.79 763.71 212.84 765.00 211.00 Z"/>
</g>
<g fill="#88799B" fill-opacity="1.00" stroke="None">
<path d="
M 804.00 211.00 
C 801.92 212.45 795.60 210.57 793.00 211.00 C 790.40 211.43 785.59 211.57 783.00 211.00
C 786.46 212.28 800.96 214.04 804.00 211.00 Z"/>
</g>
<g fill="#33165D" fill-opacity="1.00" stroke="None">
<path d="
M 608.00 254.00 
C 609.69 248.48 609.63 239.59 608.00 234.00
C 606.31 239.52 606.37 248.41 608.00 254.00 Z"/>
</g>
<g fill="#41286A" fill-opacity="1.00" stroke="None">
<path d="
M 540.00 239.00 
C 536.59 230.55 523.21 236.95 524.03 244.97 C 524.84 253.00 536.39 257.24 540.00 250.00
C 523.05 258.88 524.51 229.13 540.00 239.00 Z"/>
</g>
<g fill="#3D2366" fill-opacity="1.00" stroke="None">
<path d="
M 622.00 241.00 
C 617.57 240.96 617.59 237.38 615.00 236.00
C 613.94 240.66 612.26 255.88 622.00 253.00
C 616.04 251.28 614.37 241.02 622.00 241.00 Z"/>
</g>
<g fill="#9B8CAF" fill-opacity="1.00" stroke="None">
<path d="
M 599.00 247.00 
C 599.75 244.96 599.24 240.31 602.00 240.00
C 599.35 235.32 599.12 246.50 599.00 247.00 Z"/>
</g>
<g fill="#3C2165" fill-opacity="1.00" stroke="None">
<path d="
M 553.00 240.00 
C 544.64 236.74 538.41 247.50 546.31 252.69 C 554.20 257.88 560.57 242.95 553.00 240.00
M 552.00 242.00 
C 556.53 244.08 553.40 253.37 547.92 251.07 C 542.45 248.77 545.65 239.09 552.00 242.00 Z"/>
</g>
<g fill="#361960" fill-opacity="1.00" stroke="None">
<path d="
M 560.00 253.00 
C 563.11 252.42 561.74 247.34 563.00 245.00
C 568.65 236.19 572.38 249.03 572.00 254.00
C 573.03 250.69 574.82 243.84 571.22 240.78 C 567.63 237.71 562.61 243.93 560.00 240.00
C 561.39 243.54 558.14 249.72 560.00 253.00 Z"/>
</g>
<g fill="#402669" fill-opacity="1.00" stroke="None">
<path d="
M 586.00 241.00 
C 582.10 235.76 571.26 244.35 578.97 247.03 C 586.69 249.70 581.97 253.72 576.00 250.00
C 580.64 260.95 592.69 244.80 579.00 245.00
C 577.81 239.83 584.34 243.54 586.00 241.00 Z"/>
</g>
<g fill="#442B6C" fill-opacity="1.00" stroke="None">
<path d="
M 602.00 240.00 
C 599.24 240.31 599.75 244.96 599.00 247.00
C 600.56 251.60 593.02 252.34 592.00 249.00 C 590.98 245.66 594.28 239.46 589.00 240.00
C 588.99 244.49 587.85 251.44 592.78 253.22 C 597.71 255.00 599.01 249.24 602.00 254.00
C 600.50 250.18 604.00 243.53 602.00 240.00 Z"/>
</g>
<g fill="#34185F" fill-opacity="1.00" stroke="None">
<path d="
M 626.00 254.00 
C 627.71 250.47 627.60 243.60 626.00 240.00
C 624.29 243.53 624.40 250.40 626.00 254.00 Z"/>
</g>
<g fill="#3D2266" fill-opacity="1.00" stroke="None">
<path d="
M 644.00 254.00 
C 645.03 250.69 646.82 243.84 643.22 240.78 C 639.63 237.71 634.61 243.93 632.00 240.00
C 632.50 244.61 630.90 249.80 633.00 254.00
C 635.23 250.97 632.51 242.18 638.97 242.03 C 645.43 241.87 641.42 251.23 644.00 254.00 Z"/>
</g>
<g fill="#483070" fill-opacity="1.00" stroke="None">
<path d="
M 657.00 241.00 
C 643.92 234.36 647.55 261.12 659.00 251.00
C 660.64 259.65 651.29 253.98 649.00 257.00
C 660.51 264.27 664.38 248.99 662.00 240.00
C 655.41 239.15 661.99 252.50 654.08 250.92 C 646.17 249.34 652.25 240.14 657.00 241.00 Z"/>
</g>
<g fill="#F0EEF3" fill-opacity="1.00" stroke="None">
<path d="
M 552.00 242.00 
C 545.65 239.09 542.45 248.77 547.92 251.07 C 553.40 253.37 556.53 244.08 552.00 242.00 Z"/>
</g>
<g fill="#8E7DA5" fill-opacity="1.00" stroke="None">
<path d="
M 560.00 253.00 
C 562.77 257.90 562.87 245.35 563.00 245.00
C 561.74 247.34 563.11 252.42 560.00 253.00 Z"/>
</g>
</svg>