<svg xmlns="http://www.w3.org/2000/svg" id="Livello_1" data-name="Livello 1" viewBox="0 0 273.24 290.64">
  <defs>
    <style>
      .cls-1 {
        fill: #b72784;
      }

      .cls-2, .cls-3 {
        fill: #1d1d1b;
      }

      .cls-2, .cls-4 {
        fill-rule: evenodd;
      }

      .cls-3 {
        font-family: TimesNewRomanPS-BoldMT, 'Times New Roman';
        font-size: 26px;
        font-weight: 700;
      }

      .cls-5 {
        fill: none;
        stroke: #b72885;
        stroke-miterlimit: 2.61;
        stroke-width: 1.07px;
      }
    </style>
  </defs>
  <path class="cls-4" d="m12.34,282.67v-44.67h10.87c6.38,0,11.23,2.48,11.23,11.46,0,4.02-1.06,7.44-4.02,9.45v.12c3.78,2.72,4.61,5.08,4.61,10.63,0,9.1-4.02,13-10.87,13h-11.82Zm8.39-8.04c4.14-.12,5.91.24,5.91-5.79,0-5.2-2.36-5.08-5.91-5.32v11.11h0Zm0-19.14c3.66-.24,5.44,0,5.44-5.32,0-4.37-2.48-4.14-5.44-4.14v9.45h0Z"/>
  <polygon class="cls-4" points="52.04 282.67 52.04 238 60.43 238 60.43 282.67 52.04 282.67 52.04 282.67"/>
  <path class="cls-4" d="m91.86,253.6v-2.95c0-3.78-1.18-5.67-2.72-5.67-2.6-.12-3.19,1.65-3.19,4.61l-.12,22.1c0,2.48.83,4.02,3.07,4.02,2.84,0,3.07-3.78,3.07-6.5v-4.02h8.39v5.44c0,7.68-3.55,13.12-12.05,13.12-7.8,0-10.75-5.2-10.75-14.3v-18.32c0-9.69,3.55-14.18,11.23-14.18,7.09,0,11.46,3.78,11.46,12.88v3.78h-8.39Z"/>
  <path class="cls-4" d="m139.6,268.37c0,10.04-2.72,15.36-11.23,15.36s-11.46-5.32-11.46-15.36v-18.2c0-8.51,4.14-13.23,11.46-13.23s11.23,4.73,11.23,13.23v18.2h0Zm-8.27-17.37c0-2.84-.24-6.03-2.95-6.03s-3.07,3.19-3.07,6.03v18.32c0,2.48.35,6.38,3.07,6.38s2.95-3.9,2.95-6.38v-18.32h0Z"/>
  <path class="cls-4" d="m170.56,253.6v-2.95c0-3.78-1.18-5.67-2.72-5.67-2.6-.12-3.19,1.65-3.19,4.61l-.12,22.1c0,2.48.83,4.02,3.07,4.02,2.84,0,3.07-3.78,3.07-6.5v-4.02h8.39v5.44c0,7.68-3.54,13.12-12.17,13.12-7.68,0-10.63-5.2-10.63-14.3v-18.32c0-9.69,3.55-14.18,11.23-14.18,7.09,0,11.46,3.78,11.46,12.88v3.78h-8.39Z"/>
  <path class="cls-4" d="m209.91,253.6v-2.95c0-3.78-1.18-5.67-2.72-5.67-2.6-.12-3.19,1.65-3.19,4.61l-.12,22.1c0,2.48.83,4.02,3.07,4.02,2.84,0,3.07-3.78,3.07-6.5v-4.02h8.39v5.44c0,7.68-3.54,13.12-12.17,13.12-7.68,0-10.63-5.2-10.63-14.3v-18.32c0-9.69,3.55-14.18,11.23-14.18,7.09,0,11.46,3.78,11.46,12.88v3.78h-8.39Z"/>
  <path class="cls-4" d="m233.54,282.67l7.8-44.67h10.04l7.8,44.67h-8.51l-1.18-8.74h-6.62l-.95,8.74h-8.39Zm12.76-36.63h0l-2.48,20.09h4.84l-2.36-20.09h0Z"/>
  <path class="cls-4" d="m12.81,229.61v-11.34h.95c.12,1.3.24,2.25.71,2.6.35.47,1.18.71,2.6.71h12.05c1.89,0,3.31-.24,4.25-.59,1.89-.71,2.84-2.13,2.84-4.25,0-2.6-1.06-4.25-3.07-5.2-1.18-.47-2.72-.83-4.73-.83h-11.11c-1.3,0-2.13.24-2.6.71s-.83,1.3-.95,2.6h-.95v-7.33h.95c.24,1.06.47,1.77.83,2.13.35.35,1.06.47,2.25.47h11.58c3.07,0,5.44.71,7.09,2.01,1.65,1.42,2.48,3.55,2.48,6.5,0,3.9-1.3,6.5-3.78,7.92-1.3.83-2.95,1.18-5.08,1.18h-12.05c-1.3,0-2.25.12-2.6.47-.35.35-.59,1.06-.71,2.25h-.95Z"/>
  <path class="cls-4" d="m37.27,205.39h-.95c0-1.18-.24-2.01-.71-2.36-.47-.35-1.18-.59-2.13-.59h-17.13c-1.18,1.06-2.01,1.65-2.13,1.89-.24.24-.35.59-.47,1.06h-.95v-7.21l15.24-11.46v-.24h-10.75c-1.18,0-2.01.24-2.6.71-.47.35-.83,1.18-.95,2.48h-.95v-7.21h.95c.24.95.47,1.65.83,2.01.24.35.95.59,2.13.59h21.15v.95l-19.26,14.77v.24h14.18c1.06,0,1.89-.12,2.36-.47.71-.47,1.18-1.3,1.18-2.72h.95v7.56h0Z"/>
  <path class="cls-4" d="m37.27,181.17h-.95c0-.95-.12-1.65-.35-2.01-.35-.71-1.06-1.06-2.13-1.06h-17.49c-1.06,0-1.77.35-2.13.95-.24.47-.35,1.18-.47,2.13h-.95v-11.7h.95c.12,1.06.24,1.77.35,2.13.35.71,1.18.95,2.25.95h17.49c.95,0,1.65-.24,2.01-.71.35-.59.47-1.3.47-2.36h.95v11.7h0Z"/>
  <path class="cls-4" d="m12.81,168.17v-11.34h.95c.12,1.18.24,2.01.35,2.36.12.35.47.59,1.06.59.24,0,.35-.12.59-.12.12,0,.24,0,.47-.12l13.35-5.08v-.24l-12.17-4.37c-.35-.12-.59-.24-.83-.24-.47-.12-.83-.24-1.18-.24-.71,0-1.06.24-1.3.59-.12.35-.24,1.18-.35,2.25h-.95v-7.09h.95c.12.83.35,1.42.71,1.89.47.35,1.18.71,2.25,1.18l21.15,7.56v.95l-21.62,8.63c-.83.35-1.42.71-1.77,1.06-.47.35-.71.95-.71,1.77h-.95Z"/>
  <path class="cls-4" d="m37.27,124.21v19.62h-.95c0-.95-.12-1.54-.47-2.01-.35-.59-1.06-.95-2.01-.95h-17.49c-1.06,0-1.77.35-2.13.95-.24.47-.35,1.06-.47,2.01h-.95v-19.26h7.33v.83c-2.36.35-3.9,1.06-4.73,2.13-.95,1.06-1.3,2.84-1.3,5.55,0,1.06.12,1.77.35,2.01.12.24.59.35,1.3.35h8.39c0-1.89-.35-3.19-1.18-3.78-.71-.71-2.13-1.3-4.14-1.65v-.83h12.17v.83c-2.13.24-3.54.83-4.37,1.54-.83.71-1.3,2.01-1.3,3.9h8.74c.83,0,1.3-.12,1.65-.47.24-.35.35-1.18.35-2.25,0-2.13-.47-3.9-1.3-5.32-.95-1.3-2.6-2.48-5.08-3.55v-.95l7.56,1.3h0Z"/>
  <path class="cls-4" d="m15.64,113.1c-.59,0-.95-.12-1.18-.47-.24-.24-.35-.83-.35-1.77,0-1.65.59-2.72,2.01-3.31.83-.35,1.89-.59,3.31-.59,2.25,0,3.78.47,4.37,1.42.59.95.95,2.48.95,4.73h-9.1Zm21.62-2.95h-.95c0,1.18-.24,2.01-.71,2.36-.47.35-1.3.59-2.6.59h-7.09v-.95l11.34-6.97v-6.85h-.95c0,.35,0,.59-.12.83-.12.24-.24.35-.59.59l-10.28,6.74c-.24-1.18-.71-2.25-1.54-3.31-1.18-1.3-2.72-2.01-4.73-2.01-2.6,0-4.49,1.42-5.44,4.02-.59,1.42-.83,3.31-.83,5.44v10.87h.95c.12-1.18.35-1.89.59-2.25.47-.47,1.3-.71,2.72-.71h15.95c1.3,0,2.25.24,2.6.59.47.47.71,1.18.71,2.36h.95v-11.34h0Z"/>
  <path class="cls-4" d="m37.74,96.68h-8.98v-1.06c2.72-.47,4.73-1.42,5.91-2.6,1.3-1.18,1.89-2.6,1.89-4.14s-.47-2.72-1.3-3.31c-.83-.71-1.77-.95-2.6-.95-1.18,0-2.01.35-2.72.95-.47.47-1.06,1.42-1.77,2.72l-1.06,2.24c-1.18,2.13-2.36,3.66-3.43,4.49-1.18.95-2.6,1.42-4.25,1.42-1.77,0-3.43-.59-4.84-1.77-1.54-1.18-2.36-2.95-2.36-5.44,0-1.18.24-2.48.59-3.55.47-1.18.59-1.89.59-2.01,0-.35-.12-.59-.35-.83-.24-.12-.47-.24-.83-.24v-1.06h7.8v.95c-1.77.47-3.31,1.18-4.73,2.36-1.3,1.18-1.89,2.48-1.89,4.14,0,1.18.24,2.01.95,2.72.71.59,1.54.95,2.48.95,1.06,0,1.89-.35,2.48-.95.59-.59,1.42-1.89,2.6-4.02l1.3-2.6c.59-1.06,1.3-2.01,2.01-2.6,1.3-1.3,2.95-1.89,4.96-1.89,1.77,0,3.55.59,5.2,2.01,1.54,1.3,2.36,3.43,2.36,6.38,0,.71,0,1.42-.24,2.13-.12.59-.24,1.3-.59,2.01l-.24.71c-.12.12-.12.24-.12.35v.35c0,.35,0,.59.24.71.24.24.59.35.95.35v1.06h0Z"/>
  <path class="cls-4" d="m37.27,78.6h-.95c0-.95-.12-1.65-.35-2.01-.35-.71-1.06-1.06-2.13-1.06h-17.49c-1.06,0-1.77.35-2.13.95-.24.35-.35,1.06-.47,2.13h-.95v-11.7h.95c.12.95.24,1.77.35,2.13.35.59,1.18.95,2.25.95h17.49c.95,0,1.65-.24,2.01-.71.35-.59.47-1.42.47-2.36h.95v11.7h0Z"/>
  <path class="cls-4" d="m20.13,65.25l-7.33-.12v-20.21h7.33v.95c-2.6.35-4.37,1.3-5.32,2.72-.47.83-.71,2.13-.83,3.78h19.02c1.3,0,2.25-.24,2.72-.59.35-.47.59-1.42.59-2.72h.95v11.93h-.95c0-1.3-.24-2.13-.71-2.6-.35-.47-1.3-.59-2.6-.59H13.99c.12,1.54.35,2.84.83,3.78.95,1.54,2.72,2.48,5.32,2.72v.95h0Z"/>
  <path class="cls-2" d="m20.37,33.93v-.24l8.39-3.19v6.5l-8.39-3.07h0Zm16.9,2.25h-.95c0,.83-.12,1.42-.24,1.77-.24.59-.59.95-1.06.95s-1.18-.12-2.01-.47c-.47-.12-1.42-.47-2.84-.95v-7.56l2.13-.83c.47-.12.95-.35,1.3-.47.59-.12.95-.24,1.3-.24.59,0,.95.24,1.18.59.12.35.24,1.06.24,2.13h.95v-10.87h-.95c0,.71-.24,1.3-.83,1.77-.71.35-2.01,1.06-4.14,1.89l-19.02,7.44v.95l19.73,7.44c1.65.59,2.6,1.06,3.07,1.42.71.47,1.18,1.06,1.18,1.89h.95v-6.85h0Z"/>
  <path class="cls-2" d="m54.76,21.05c0-.71.12-1.18.24-1.42.35-.47.83-.59,1.77-.59,2.6,0,4.37,1.42,5.55,4.37.71,1.89.95,4.02.95,6.62,0,4.25-.59,7.21-1.89,8.63-1.18,1.54-2.84,2.25-4.84,2.25-.71,0-1.18-.12-1.42-.47-.24-.35-.35-.83-.35-1.54v-17.84h0Zm2.36,21.15c3.78,0,6.85-1.3,8.98-3.78,2.01-2.36,2.95-5.08,2.95-8.39,0-3.66-.95-6.5-2.95-8.63-2.13-2.48-5.2-3.66-9.34-3.66h-10.16v.95c.95.12,1.54.24,1.89.47.59.35.95.95.95,1.89v17.84c0,.95-.35,1.65-1.06,2.01-.35.24-.95.35-1.77.35v.95h10.52Z"/>
  <path class="cls-2" d="m90.09,42.2h-19.38v-.95c.95,0,1.65-.12,2.01-.35.59-.47.95-1.18.95-2.13v-17.49c0-1.06-.35-1.77-.95-2.13-.35-.24-1.06-.35-2.01-.47v-.95h19.14v7.33h-.83c-.47-2.36-1.18-3.9-2.13-4.73-1.06-.95-2.84-1.3-5.55-1.3-1.06,0-1.65.12-1.89.35-.35.24-.47.59-.47,1.3v8.39c1.89,0,3.19-.35,3.9-1.18.59-.71,1.18-2.13,1.54-4.14h.83v12.17h-.83c-.24-2.01-.71-3.55-1.54-4.37-.71-.83-2.01-1.3-3.9-1.3v8.74c0,.83.24,1.3.59,1.65.35.24,1.06.35,2.25.35,2.13,0,3.78-.47,5.08-1.3,1.42-.95,2.6-2.6,3.66-5.08h.95l-1.42,7.56h0Z"/>
  <path class="cls-2" d="m93.51,30.15c0-3.55,1.06-6.62,3.19-8.98,2.25-2.6,5.08-3.78,8.51-3.78,1.3,0,2.72.24,4.02.83,1.42.47,2.24.83,2.6.83s.59-.12.83-.47c.24-.24.35-.59.59-1.18h.95v8.39h-.95c-.71-1.77-1.54-3.19-2.36-4.25-1.65-2.01-3.31-2.95-5.32-2.95-2.13,0-3.66.95-4.73,3.07-.95,2.01-1.42,4.84-1.42,8.51,0,2.95.47,5.67,1.3,8.04.95,2.36,2.72,3.55,5.32,3.55,1.42,0,2.36-.35,2.84-.95.35-.47.47-.95.47-1.77v-3.78c0-1.06-.35-1.77-.95-2.13-.35-.24-1.18-.35-2.48-.35v-.95h11.46v.95c-1.18,0-1.89.35-2.25.71-.47.47-.59,1.3-.59,2.6v4.61c-.71.47-1.89.95-3.55,1.42-1.65.59-3.55.83-5.55.83-3.66,0-6.62-1.3-8.86-3.78-2.01-2.36-3.07-5.32-3.07-8.98h0Z"/>
  <path class="cls-2" d="m118.68,42.2v-.95c.95,0,1.65-.12,2.01-.35.71-.35.95-1.06.95-2.13v-17.49c0-1.06-.24-1.77-.95-2.13-.35-.24-.95-.35-2.01-.47v-.95h11.7v.95c-1.42.12-2.25.24-2.72.59-.47.35-.71,1.3-.71,2.72v17.02c0,.83.24,1.42.59,1.65.35.24,1.18.35,2.25.35,2.01,0,3.66-.47,5.08-1.42,1.3-.95,2.48-2.84,3.43-5.55h1.06l-1.42,8.15h-19.26Z"/>
  <path class="cls-2" d="m140.78,42.2v-.95c.95,0,1.65-.12,2.13-.35.59-.35.95-1.06.95-2.13v-17.49c0-1.06-.35-1.77-.95-2.13-.35-.24-1.06-.35-2.13-.47v-.95h11.7v.95c-1.06.12-1.77.24-2.13.35-.71.47-1.06,1.18-1.06,2.25v17.49c0,.95.35,1.65.83,2.01.47.35,1.3.47,2.36.47v.95h-11.7Z"/>
  <path class="cls-2" d="m162.64,42.68v-8.86h.95c.59,2.6,1.42,4.61,2.6,5.79,1.3,1.3,2.6,1.89,4.25,1.89,1.42,0,2.48-.47,3.19-1.3.59-.83.95-1.65.95-2.6,0-1.06-.35-2.01-1.06-2.72-.35-.35-1.3-.95-2.6-1.65l-2.13-1.18c-2.25-1.18-3.66-2.36-4.61-3.43-.83-1.18-1.3-2.6-1.3-4.25,0-1.77.59-3.31,1.77-4.84,1.18-1.54,2.95-2.36,5.32-2.36,1.18,0,2.36.24,3.55.59,1.18.47,1.77.59,2.01.59.35,0,.59-.12.71-.35.12-.12.24-.47.35-.83h.95v7.8h-.83c-.47-1.77-1.3-3.31-2.36-4.73-1.18-1.3-2.48-1.89-4.14-1.89-1.06,0-2.01.35-2.6.95-.71.71-1.06,1.54-1.06,2.48,0,1.06.35,2.01.95,2.48.59.59,2.01,1.42,4.02,2.6l2.48,1.3c1.18.59,2.01,1.3,2.72,2.01,1.18,1.42,1.89,3.07,1.89,4.96,0,1.77-.71,3.54-2.01,5.2-1.3,1.54-3.43,2.36-6.38,2.36-.71,0-1.42,0-2.01-.12-.71-.24-1.42-.35-2.13-.71l-.59-.24c-.12,0-.35-.12-.47-.12h-.35c-.35,0-.59.12-.71.24-.12.24-.24.59-.35.95h-.95Z"/>
  <path class="cls-2" d="m180.84,25.07v-7.33h19.97l.12,7.33h-.95c-.35-2.6-1.3-4.37-2.72-5.32-.83-.47-2.13-.71-3.78-.83v19.02c0,1.3.24,2.25.71,2.72.35.35,1.3.59,2.6.59v.95h-11.82v-.95c1.3,0,2.13-.24,2.6-.59.35-.47.59-1.42.59-2.72v-19.02c-1.54.12-2.84.35-3.66.83-1.65.95-2.48,2.72-2.72,5.32h-.95Z"/>
  <path class="cls-2" d="m202.7,17.74h11.23v.95c-1.3.12-2.13.24-2.6.71-.47.35-.71,1.3-.71,2.6v12.05c0,1.89.24,3.31.59,4.25.83,1.89,2.13,2.84,4.25,2.84,2.48,0,4.25-1.06,5.2-3.07.47-1.18.71-2.72.71-4.73v-11.11c0-1.3-.24-2.13-.71-2.6-.35-.47-1.3-.83-2.48-.95v-.95h7.21v.95c-1.06.24-1.77.47-2.13.83-.24.35-.47,1.06-.47,2.25v11.58c0,3.07-.71,5.44-2.01,7.09-1.42,1.65-3.55,2.48-6.38,2.48-3.9,0-6.5-1.18-7.92-3.66-.71-1.42-1.06-3.07-1.06-5.2v-12.05c0-1.3-.24-2.24-.47-2.6-.35-.35-1.18-.59-2.25-.71v-.95h0Z"/>
  <path class="cls-2" d="m234.72,21.05c0-.71.12-1.18.24-1.42.24-.47.83-.59,1.65-.59,2.6,0,4.49,1.42,5.67,4.37.59,1.89.95,4.02.95,6.62,0,4.25-.59,7.21-1.89,8.63-1.3,1.54-2.84,2.25-4.84,2.25-.71,0-1.18-.12-1.42-.47-.24-.35-.35-.83-.35-1.54v-17.84h0Zm2.36,21.15c3.78,0,6.74-1.3,8.98-3.78,2.01-2.36,2.95-5.08,2.95-8.39,0-3.66-.95-6.5-2.95-8.63-2.13-2.48-5.2-3.66-9.33-3.66h-10.16v.95c.83.12,1.54.24,1.89.47.59.35.83.95.83,1.89v17.84c0,.95-.24,1.65-.95,2.01-.35.24-.95.35-1.77.35v.95h10.52Z"/>
  <path class="cls-2" d="m250.67,42.2v-.95c.83,0,1.54-.12,2.01-.35.59-.35.95-1.06.95-2.13v-17.49c0-1.06-.35-1.77-.95-2.13-.35-.24-1.06-.35-2.01-.47v-.95h11.58v.95c-1.06.12-1.77.24-2.13.35-.71.47-1.06,1.18-1.06,2.25v17.49c0,.95.35,1.65.83,2.01.47.35,1.3.47,2.36.47v.95h-11.58Z"/>
  <path class="cls-2" d="m256.94,60.05c.71,0,1.18.12,1.54.24.35.24.59.83.59,1.65,0,2.6-1.54,4.37-4.49,5.44-1.77.71-4.02,1.06-6.5,1.06-4.37,0-7.21-.71-8.74-1.89-1.54-1.3-2.25-2.84-2.25-4.73,0-.71.12-1.18.47-1.42.35-.24.83-.35,1.65-.35h17.72Zm-21.15,2.25c0,3.78,1.3,6.74,3.9,8.86,2.25,1.89,4.96,2.84,8.27,2.84,3.66,0,6.5-.95,8.74-2.84,2.36-2.13,3.54-5.2,3.54-9.22v-9.93h-.95c-.12.95-.24,1.54-.47,1.89-.35.59-.95.83-1.89.83h-17.84c-.95,0-1.65-.24-2.01-.95-.12-.35-.24-.95-.35-1.77h-.95v10.28h0Z"/>
  <path class="cls-2" d="m235.79,75.64h.95c0,.83.12,1.54.35,1.89.35.71,1.18,1.06,2.25,1.06h17.37c1.06,0,1.89-.35,2.25-.95.24-.35.35-1.06.35-2.01h.95v11.34h-.95c0-1.06-.12-1.77-.35-2.13-.35-.59-1.06-.94-2.25-.94h-17.37c-1.06,0-1.77.24-2.13.71-.24.59-.47,1.3-.47,2.36h-.95v-11.34h0Z"/>
  <path class="cls-2" d="m235.79,96.32h.95c0,1.18.24,2.01.71,2.36.47.35,1.18.59,2.13.59h17.13c1.06,0,1.65-.24,2.01-.71.35-.35.47-1.18.59-2.25h.95v8.27l-16.78,6.38v.24l16.78,6.38v8.15h-.95c-.12-1.06-.35-1.89-.71-2.24-.35-.35-1.18-.59-2.6-.59h-15.95c-1.3,0-2.25.24-2.6.59-.47.35-.59,1.18-.71,2.24h-.95v-10.75h.95c0,.95.24,1.65.59,2.13.24.47.95.71,2.13.71h17.61v-.24l-21.27-7.92v-.83l20.8-8.15v-.12h-16.31c-1.18,0-2.01.24-2.6.59-.59.47-.83,1.3-.95,2.72h-.95v-7.56h0Z"/>
  <path class="cls-2" d="m235.79,127.05h.95c0,.95.12,1.54.35,2.01.35.59,1.18.95,2.25.95h17.37c1.06,0,1.89-.35,2.25-.95.24-.35.35-1.06.35-2.01h.95v11.34h-.95c0-1.06-.12-1.77-.35-2.13-.35-.59-1.06-.95-2.25-.95h-17.37c-1.06,0-1.77.24-2.13.83-.24.47-.47,1.18-.47,2.25h-.95v-11.34h0Z"/>
  <path class="cls-2" d="m235.79,139.69h.95c0,.95.24,1.54.35,1.89.47.71,1.18,1.06,2.25,1.06h17.37c1.06,0,1.77-.35,2.13-.95.24-.35.47-1.06.47-2.01h.95v11.34h-.95c0-1.3-.24-2.13-.59-2.6-.35-.47-1.3-.71-2.72-.71h-17.02c-.83,0-1.3.24-1.65.59-.24.35-.35,1.18-.35,2.25,0,1.89.47,3.54,1.42,4.96.95,1.3,2.84,2.36,5.67,3.43v.95l-8.27-1.42v-18.79h0Z"/>
  <path class="cls-2" d="m252.68,170.18v.24l-8.39,3.19v-6.38l8.39,2.95h0Zm-16.9-2.13h.95c0-.71.12-1.3.24-1.65.24-.71.59-.95,1.06-.95s1.18.12,2.13.35c.35.24,1.3.47,2.72.95v7.33l-2.13.83c-.47.12-.95.35-1.3.47-.47.12-.95.24-1.3.24-.59,0-.95-.24-1.06-.59-.24-.24-.24-.95-.35-2.01h-.95v10.52h.95c0-.71.24-1.3.95-1.77.59-.35,1.89-.95,4.02-1.77l19.02-7.21v-.95l-19.73-7.21c-1.54-.59-2.6-1.06-3.07-1.3-.71-.47-1.06-1.18-1.18-1.89h-.95v6.62h0Z"/>
  <path class="cls-2" d="m235.79,184.83h.95c0,1.18.35,1.89.83,2.24.47.35,1.18.59,2.01.59h17.13c1.3-1.06,2.01-1.65,2.25-1.89.12-.24.35-.47.35-.95h.95v6.85l-15.24,11.23v.12h10.75c1.18,0,2.13-.12,2.6-.59.59-.35.83-1.18.95-2.36h.95v6.97h-.95c-.24-1.06-.47-1.65-.71-2.01-.35-.35-1.06-.59-2.13-.59h-21.27v-.83l19.26-14.3v-.24h-14.18c-1.06,0-1.89.12-2.36.35-.71.47-1.06,1.42-1.18,2.72h-.95v-7.33h0Z"/>
  <path class="cls-2" d="m241.1,215.31c1.77-.47,4.02-.71,6.85-.71s4.96.24,6.74.71c3.19.83,4.84,2.6,4.84,4.96,0,1.77-.95,3.19-2.95,4.25-1.89,1.06-4.84,1.54-8.63,1.54-2.84,0-5.08-.24-6.85-.71-3.19-.95-4.73-2.6-4.73-5.08s1.54-4.14,4.73-4.96h0Zm15.95-3.31c-2.36-2.13-5.55-3.19-9.34-3.19-3.43,0-6.38.95-8.74,2.95-2.6,2.25-3.9,5.08-3.9,8.51s1.18,6.03,3.55,8.15c2.36,2.25,5.55,3.43,9.33,3.43s6.85-1.18,9.34-3.43c2.25-2.13,3.43-4.84,3.43-8.15s-1.18-6.14-3.66-8.27h0Z"/>
  <path class="cls-5" d="m218.83,82.32v121.36l-97.6-60.97,97.6-60.38h0Zm-110.48,73.26l98.55,64.52H66.75l41.59-64.52h0Zm94.18-87.56l-89.81,59.08-48.09-59.08h137.9Zm-137.9,31.79l1.06,85.32,32.85-47.03-33.91-38.29h0Z"/>
  <path class="cls-1" d="m48.61,51.42v176.78h176.77V51.42H48.61Zm43.13,19.62h112.73l-36.16,61.33-76.57-61.33h0Zm-24.11,6.62l86.5,72.91-86.62,53.53.12-126.44Zm34.98,130.93l73.85-45.49,26.59,45.61-100.44-.12Zm103.79-79.56l-.16,37.26-17.13-28.48,11.58-18.28,5.79-9.14-.08,18.63Z"/>
  <text class="cls-3" transform="translate(17.79 18.41) rotate(-90)"><tspan x="0" y="0">,</tspan></text>
</svg>