<svg xmlns="http://www.w3.org/2000/svg" id="Livello_1" width="120.36mm" height="50.08mm" viewBox="0 0 341.16 141.96"><defs><style>.cls-1{stroke-width:0px;}</style></defs><path class="cls-1" d="m170.95,69.27c-7.59-.01-14.39-2.4-20.32-6.98-6.75-5.21-10.88-12.19-12.66-20.5-.48-2.26-.77-4.62-.73-6.93.15-7.82,2.31-15.02,7.1-21.34,3.39-4.47,7.6-7.9,12.67-10.25,3.33-1.54,6.83-2.47,10.52-2.86,4.97-.53,9.77.06,14.44,1.72,5.79,2.05,10.58,5.52,14.52,10.25,3.58,4.3,5.93,9.15,7.12,14.57.78,3.56,1.06,7.13.72,10.81-.45,4.95-1.74,9.61-4.18,13.88-1.36,2.37-3.11,4.54-4.83,6.67-2.7,3.33-6.2,5.7-10,7.58-3.29,1.62-6.78,2.72-10.47,3.02-1.3.11-2.6.23-3.9.34Zm1.45-5.12c.33.08.65.16.98.24.02.06.04.13.07.19.03-.03.07-.07.1-.1-.06-.02-.13-.04-.19-.07-.28-1.22-.44-1.38-1.35-1.33.14.36.28.72.42,1.09-.06.02-.13.04-.19.07.03.03.07.07.1.1.02-.06.04-.13.07-.19Zm-4.08.24c.4-.05.79-.1,1.2-.16.04-.42.09-.83.13-1.28-.83.2-1.33.61-1.31,1.47-.06.02-.13.04-.19.07.03.03.07.07.1.1.02-.06.04-.13.07-.19Zm-24.1-29.75c.12,1.58.07,3.19.37,4.73,1.31,6.52,4.23,12.13,9.45,16.44,6.34,5.23,13.51,7.28,21.61,5.74,8.61-1.63,14.83-6.57,18.83-14.22,2.76-5.29,3.67-10.96,2.7-16.93-1.18-7.28-4.62-13.25-10.43-17.65-6.03-4.57-12.91-6.36-20.5-4.96-6.58,1.21-11.92,4.5-16.03,9.66-3.97,4.99-5.97,10.76-6,17.19Zm59.46-.51c-.15-1.44-.28-3.45-.58-5.44-.44-3-1.32-3.13-3.63-2.62-1.16.25-1.89,1.47-1.67,2.49.76,3.58.88,7.16.27,10.8-1.11,6.65-4.09,12.21-9.1,16.73-2.89,2.61-6.19,4.43-9.86,5.66-.33.11-.73.2-.93.44-.61.72-.26,2.77.54,3.89.71.98,1.59.84,2.54.5,5.86-2.11,10.75-5.56,14.69-10.41,5.08-6.27,7.48-13.47,7.74-22.04Zm-65.66.26c.21,2.24.22,4.2.59,6.09,1.19,6.02,3.58,11.48,7.63,16.22,3.95,4.61,8.72,7.92,14.44,9.91,1.63.57,2.26.25,2.87-1.34.1-.25.18-.52.24-.78.45-1.91.3-2.15-1.55-2.8-5.84-2.07-10.57-5.63-14.03-10.77-4.47-6.64-5.71-13.97-4.35-21.8.11-.65.14-1.42-.09-2.01-.3-.78-2.31-1.45-3.14-1.26-1,.23-1.69.72-1.81,1.83-.26,2.35-.56,4.69-.8,6.73ZM169.46,1.02c-1.79.34-4.97.73-8.02,1.58-4.65,1.3-8.69,3.83-12.3,7.02-.59.52-1.48,1.05-.94,2.01.46.83,1.09,1.61,1.79,2.24.83.75,1.6.55,2.47-.26,2.62-2.41,5.58-4.32,8.97-5.53,4.84-1.73,9.77-2.17,14.8-1.16,4.92,1,9.35,3.06,12.94,6.62.94.93,1.7.92,2.7.32,2.04-1.23,2.25-2.72.58-4.36-.36-.36-.8-.64-1.19-.97-5.9-4.98-12.78-7.24-21.81-7.52Zm-4.55,61.31c.7,1.95,0,3.55-1.32,5.15,1.39.22,2.57.4,4.06.64-1-2.01-.71-3.66,0-5.29-.93-.17-1.77-.32-2.74-.49Zm11.9.09c-.99.13-1.79.24-2.68.36.86,1.69.87,3.41.1,5.34,1.44-.24,2.69-.44,4.11-.67-1.46-1.45-1.99-3.03-1.53-5.02Zm25.47-37.5c-.51-1.36-.95-2.52-1.3-3.45-1.56.81-3,1.56-4.52,2.35.19.57.46,1.37.75,2.22,1.46-1.24,3.04-1.72,5.08-1.13Zm-61.38-3.56c-.33.9-.77,2.09-1.26,3.42,1.94-.32,3.61-.2,5.05,1.24.31-.97.55-1.75.69-2.19-1.56-.86-2.95-1.63-4.48-2.47Zm3.56-6.36c2.06.23,3.35,1.23,4.36,2.65.57-.68,1.09-1.31,1.69-2.03-1.89-.72-3.18-1.83-3.35-4.11-.97,1.26-1.77,2.3-2.69,3.49Zm48.67,2.76c1-1.7,2.45-2.45,4.27-2.78-.89-1.11-1.68-2.09-2.58-3.22-.5,2.08-1.56,3.32-3.45,3.84.59.72,1.13,1.38,1.76,2.15Zm-46.67,4.2c-.04-.22-.09-.44-.13-.65-.64.19-1.28.38-1.92.57.04.16.09.32.13.48l1.92-.4Zm.96-2.36c.17-.05.34-.1.51-.16-.2-.66-.4-1.31-.6-1.97-.18.06-.36.11-.54.17.21.65.42,1.31.63,1.96Zm49.73,2.77c.04-.17.08-.34.12-.51-.58-.15-1.16-.3-1.74-.45-.05.19-.09.38-.14.57l1.77.4Zm-3.24-3.09c.21.04.43.09.64.13.09-.52.19-1.03.28-1.55-.17-.04-.33-.07-.5-.11l-.43,1.53Zm6.23.09l-.58-.22c-.14.58-.29,1.15-.43,1.73.13.04.25.08.38.12.21-.54.43-1.09.64-1.63Zm-3.05-3.23c-.05.16-.11.32-.16.48l1.52.46c.05-.17.1-.34.15-.51l-1.51-.43Zm-55.54,2.88c.26.76.43,1.27.69,2.03.22-.61.33-.93.46-1.28-.31-.2-.6-.4-1.15-.75Zm.9-.69c.35.23.57.42.83.5.07.02.38-.37.34-.5-.08-.24-.33-.42-.51-.63-.18.17-.36.34-.66.63Zm26.9,50.32c.47-1.65-.39-1.33-1.12-1.43.38.48.66.84,1.12,1.43Zm26.97-50.34l.43-.33c-.17-.25-.34-.51-.51-.76-.18.13-.37.25-.55.38.21.24.42.48.63.72Zm-52.86-1.94c-.02.11-.04.23-.05.34.27.16.55.32.85.5.18-.34.33-.61.56-1.03-.57.08-.96.13-1.35.19Zm2.58,3.13c-.11.07-.22.15-.33.22.13.29.25.58.38.87.21-.14.43-.28.64-.42-.23-.23-.46-.45-.69-.68Zm23.44,45.8c-.18-.05-.35-.11-.53-.16-.09.34-.17.68-.26,1.01.2.03.56.12.57.08.11-.3.15-.62.21-.93Zm-25.02-44.68c-.07-.11-.14-.23-.21-.34l-.89.35c.13.22.27.44.4.66.23-.22.47-.45.7-.67Zm50.59-.26c.14.12.28.23.42.35.22-.24.43-.48.65-.71l-.55-.39c-.17.25-.35.5-.52.75Zm-22.5,44.83c-.2.28-.43.49-.39.59.08.22.31.38.47.57.16-.15.46-.33.44-.45-.04-.21-.27-.39-.52-.7Zm.86,2.2c-.09-.12-.19-.24-.28-.36-.36.33-.72.65-1.08.98.11.12.22.24.33.35.34-.32.69-.65,1.03-.97Zm-3.03.51c.11.08.21.16.32.24.2-.2.41-.41.61-.61-.18-.16-.36-.32-.54-.48-.13.28-.26.57-.39.85Zm-24.17-50.32c-.3-.18-.51-.4-.62-.35-.21.09-.36.32-.54.5.16.15.36.44.47.41.21-.05.38-.29.68-.56Zm53.1.99c-.08-.13-.15-.25-.23-.38-.17-.09-.4-.29-.51-.24-.21.1-.35.34-.51.53.17.14.34.38.51.38.25,0,.49-.19.74-.29Zm-.94,1.87c-.11-.07-.21-.14-.32-.22-.21.19-.41.38-.62.58.18.17.36.34.55.51.13-.29.26-.58.39-.87Zm-27.15,43.06c-.15-.03-.29-.06-.44-.09-.08.31-.16.63-.23.94.19.02.52.07.53.04.08-.29.1-.59.14-.89Zm.13,2.26c-.22-.17-.35-.35-.48-.35-.13,0-.26.18-.4.29.13.14.24.34.4.41.08.03.25-.18.47-.34Zm-26.65-46.11c.13-.15.31-.27.31-.38,0-.12-.2-.22-.31-.33-.11.11-.31.22-.31.33,0,.11.18.24.31.38Zm52,.11c.38-.26.56-.35.55-.39-.04-.16-.13-.3-.2-.45-.07.18-.15.35-.35.84Z"/><path class="cls-1" d="m33.7,104.37v-12.54h4.55v20.23c-1.43,0-2.82.04-4.2-.03-.29-.01-.65-.38-.82-.67-2.06-3.58-4.08-7.17-6.11-10.76-.21-.36-.4-.74-.67-1.23v12.6h-4.52v-20.2c1.42,0,2.88-.03,4.33.03.25,0,.58.3.72.54,2.27,4.03,4.52,8.08,6.73,12.03Z"/><path class="cls-1" d="m11.52,91.81h4.73v2.52c0,3.27,0,6.55,0,9.82,0,1.77-.4,3.38-1.38,4.9-1.67,2.59-5.36,3.62-7.95,3.19-2.52-.42-4.79-1.43-5.96-3.92-.44-.94-.88-1.99-.91-3-.1-4.46-.04-8.93-.04-13.48h4.73c0,.44,0,.86,0,1.29,0,3.79,0,7.59,0,11.38,0,2.08,1.31,3.31,3.47,3.31,2.03,0,3.31-1.29,3.31-3.34,0-4.19,0-8.37,0-12.67Z"/><path class="cls-1" d="m165.25,141.75h-4.7c-.34-1.16-.63-2.33-1.04-3.46-.12-.34-.58-.77-.91-.79-1.83-.08-3.66-.04-5.48-.04-.41,1.47-.8,2.85-1.2,4.27h-4.84c.96-2.92,1.89-5.78,2.83-8.64,1.17-3.57,2.36-7.14,3.49-10.73.22-.71.55-.93,1.25-.9,1.12.05,2.24-.04,3.35.05.34.03.84.39.95.71,2.1,6.27,4.16,12.56,6.22,18.85.06.19.05.39.08.67Zm-7.11-8.34c-.65-2.49-1.28-4.88-1.92-7.31-.63,2.43-1.24,4.82-1.89,7.31h3.8Z"/><path class="cls-1" d="m142.68,135.09c.67.97,1.25,1.95,1.98,2.81.56.66.36,1.06-.19,1.47-2.69,2-5.59,3.04-9.04,2.47-2.34-.38-4.31-1.32-5.85-3.02-3.77-4.13-3.58-11.01.65-14.87,3.84-3.5,9.8-3.53,13.67-.42.18.14.39.24.73.44-.67,1.12-1.29,2.24-2.01,3.28-.09.14-.75.04-1.04-.13-1.63-.98-3.33-1.73-5.26-1.32-3.02.64-4.75,3.05-4.46,6.28.33,3.58,2.73,5.68,6.14,5.44,1.83-.13,3.31-1.12,4.67-2.42Z"/><path class="cls-1" d="m90.23,141.53v-19.44c2.47,0,4.92-.09,7.36.03,2.26.11,4.25.95,5.85,2.68,2.25,2.43,2.7,5.37,2.42,8.46-.17,1.87-.71,3.67-1.95,5.21-1.38,1.7-3.15,2.84-5.26,3.01-2.75.23-5.54.06-8.44.06Zm1.87-1.16c2.29-.22,4.49-.34,6.65-.68,2.41-.37,3.97-2.03,4.72-4.19.52-1.48.67-3.19.57-4.77-.2-3.04-1.65-5.46-4.61-6.57-2.33-.87-4.82-.64-7.33-.53v16.74Z"/><path class="cls-1" d="m172.54,92.02c3.18.24,6.31.28,9.38.77,2.98.47,5.6,3.75,6.07,6.84.36,2.42.26,4.75-.66,7.06-1.19,2.99-3.45,4.72-6.51,5.07-2.7.3-5.46.06-8.28.06v-19.8Zm1.83,18.63c2.28-.22,4.48-.34,6.64-.68,2.42-.37,3.97-2.03,4.73-4.19.52-1.48.7-3.2.57-4.77-.29-3.43-1.77-5.68-4.73-6.56-2.25-.67-4.74-.56-7.21-.81v17.01Z"/><path class="cls-1" d="m317.86,111.82v-19.58c3.24.09,6.48-.4,9.6.57,3.25,1.01,5.15,3.38,5.83,6.67.52,2.47.34,4.9-.64,7.29-1.23,2.98-3.49,4.68-6.55,5-2.67.28-5.39.06-8.23.06Zm1.85-1.26c2.16-.13,4.23-.09,6.25-.42,2.47-.4,4.3-1.92,5.09-4.28.5-1.5.72-3.19.61-4.76-.24-3.34-1.64-5.51-4.63-6.67-2.32-.9-4.82-.61-7.32-.54v16.67Z"/><path class="cls-1" d="m88.59,92.49c2.86,0,5.64-.13,8.4.06,1.17.08,2.28.86,2.86,2.08,1,2.11,1.27,4.27,0,6.31-.58.95-1.59,1.63-2.56,2.59,1.34,2.61,2.82,5.51,4.31,8.42-1.32.37-2.11.06-2.69-1.28-.93-2.16-2.12-4.22-3.24-6.29-.17-.31-.6-.65-.92-.67-1.39-.07-2.79-.03-4.33-.03v8.31h-1.83v-19.5Zm1.83,9.58c1.63,0,3.17,0,4.71,0,1.37,0,2.41-.59,3.12-1.75,1.37-2.23.35-5.76-1.92-6.17-1.91-.34-3.9-.28-5.92-.4v8.32Z"/><path class="cls-1" d="m244.78,141.64c-1.49.55-2.18-.14-2.76-1.39-.96-2.11-2.08-4.15-3.18-6.2-.15-.29-.54-.62-.83-.63-1.43-.07-2.86-.03-4.46-.03v8.32h-1.79v-19.88c2.89.13,5.76.07,8.57.45,2.29.31,4,3.61,3.51,6.1-.4,2.08-1.25,3.8-3.54,4.51,1.51,2.96,2.99,5.83,4.48,8.75Zm-11.15-17.93v8.06c1.63,0,3.17.02,4.72,0,1.3-.02,2.33-.56,3.04-1.68,1.29-2.06.74-6.08-2.47-6.35-1.72-.15-3.46-.03-5.28-.03Z"/><path class="cls-1" d="m223.54,104.17h-3.28v-1.55h5.05v9.37h-1.72c-.03-.62-.06-1.25-.08-1.83-1.34.58-2.64,1.31-4.03,1.71-5.62,1.62-10.72-2.4-11.56-7.89-.37-2.41-.07-4.6,1-6.75,1.35-2.73,3.55-4.33,6.48-4.97,2.97-.64,6.43.13,8.97,1.97-.32.43-.64.87-.99,1.34-1.9-1.24-3.89-2.05-6.13-1.95-4.38.18-7.4,3.5-7.68,7.77-.19,2.76.54,5.27,2.6,7.2,3.4,3.18,8.02,2.56,11.06-.62.19-.2.28-.56.29-.85.04-.91.01-1.83.01-2.94Z"/><path class="cls-1" d="m183.6,123.93c-.34.45-.68.89-1.01,1.33-2.36-1.43-4.69-2.27-7.46-1.74-3.73.72-5.97,3.92-6.32,7.17-.29,2.72.33,5.29,2.29,7.32,3.29,3.42,8.13,3.01,11.32-.3.17-.18.31-.48.32-.72.04-.99.01-1.98.01-3.11h-3.3v-1.53h5.06v9.37h-1.71v-2.14c-2.76,1.92-5.51,2.94-8.7,2.09-1.76-.47-3.35-1.26-4.49-2.66-4.1-5.03-3.23-10.91.23-14.51,3.21-3.34,9.03-3.79,13.75-.55Z"/><path class="cls-1" d="m48.57,91.82v20.17h-4.6v-20.17h4.6Z"/><path class="cls-1" d="m145.18,112.02h-1.84c.21-.74.38-1.46.63-2.16,1.56-4.35,3.15-8.69,4.73-13.04.47-1.29,1.05-2.54,1.41-3.86.22-.81.71-.72,1.25-.72.51,0,.92-.04,1.17.67,1.45,4.18,3,8.33,4.5,12.49.78,2.17,1.55,4.35,2.36,6.61h-1.88c-.68-1.87-1.33-3.75-2.06-5.6-.13-.34-.6-.77-.92-.78-2.39-.07-4.78-.04-7.18-.04-.73,2.18-1.44,4.29-2.16,6.43Zm6.14-17.58c-1.16,3.28-2.24,6.35-3.34,9.48h6.66c-1.1-3.16-2.18-6.23-3.31-9.48Z"/><path class="cls-1" d="m227.5,141.75h-1.88c-.67-1.85-1.31-3.73-2.05-5.58-.15-.36-.65-.82-1.01-.83-2.35-.07-4.7-.04-7.11-.04-.72,2.15-1.43,4.26-2.15,6.42h-1.89c.63-1.87,1.23-3.71,1.88-5.53,1.48-4.13,2.98-8.25,4.48-12.37.13-.37.39-.71.44-1.09.09-.81.62-.79,1.2-.78.56.01.97-.02,1.24.74,1.44,4.19,2.99,8.33,4.49,12.5.78,2.16,1.55,4.32,2.35,6.56Zm-8.07-17.6c-1.15,3.27-2.24,6.36-3.35,9.52h6.67c-1.1-3.15-2.17-6.23-3.32-9.52Z"/><path class="cls-1" d="m296.69,92.28h1.85v1.31c0,3.75.01,7.51,0,11.26,0,2.04.43,3.84,2.35,4.95,2.27,1.31,4.56,1.22,6.7-.17,1.49-.96,2.02-2.6,2.04-4.32.04-3.87.01-7.75.01-11.62,0-.43,0-.87,0-1.38h1.85v1.87c0,3.63.03,7.27-.02,10.9-.02,1.67-.41,3.22-1.5,4.62-.94,1.21-2.17,1.85-3.51,2.21-2.4.64-4.76.4-6.91-.95-1.9-1.19-2.75-3.09-2.82-5.17-.13-4.46-.04-8.93-.04-13.51Z"/><path class="cls-1" d="m74.38,101.35h7.28v1.58h-7.28v7.49h9.44v1.58h-11.31v-19.69h10.83v1.52h-8.96v7.53Z"/><path class="cls-1" d="m204.48,92.32v1.49h-8.97v7.49h7.26v1.62h-7.26v7.49h9.42v1.59h-11.29v-19.67h10.84Z"/><path class="cls-1" d="m52.17,92.27h1.87c2.02,5.73,4.03,11.45,6.14,17.43,2.09-5.93,4.1-11.65,6.13-17.42h1.9c-.64,1.88-1.24,3.73-1.9,5.56-1.39,3.87-2.82,7.74-4.23,11.61-.24.66-.4,1.38-.76,1.97-.21.33-.74.53-1.17.62-.49.1-.92.07-1.17-.64-2.13-6.07-4.33-12.11-6.51-18.16-.11-.29-.18-.6-.3-.96Z"/><path class="cls-1" d="m104.91,110.04c.35-.47.7-.95.93-1.24,1.49.63,2.83,1.35,4.25,1.77,2.69.79,5.23-1.16,5.04-3.79-.11-1.44-1.07-2.3-2.3-2.91-1.48-.74-2.96-1.49-4.44-2.24-2.11-1.06-3.31-2.97-3.08-4.88.28-2.28,1.97-3.97,4.36-4.5,1.93-.43,3.75-.16,5.5.67,1.62.76,1.61.82.69,2-1.63-.45-3.13-1.05-4.67-1.23-.83-.1-1.87.35-2.61.86-2.1,1.47-1.86,4.2.42,5.41,1.77.94,3.62,1.73,5.36,2.72,2.44,1.38,2.89,3.58,2.56,5.4-.4,2.21-2.06,3.58-4.53,3.99-2.69.45-4.82-.12-7.47-2.03Z"/><path class="cls-1" d="m261.76,110.04c.38-.5.76-.99,1.12-1.47,2,1.59,4.07,2.57,6.61,1.87,1.39-.38,2.24-1.31,2.47-2.71.24-1.41-.25-2.62-1.49-3.34-1.74-1.01-3.53-1.91-5.32-2.83-2.42-1.24-3.45-3.27-2.73-5.84.54-1.91,2.02-2.89,3.87-3.42,2-.57,3.9-.26,5.73.59,1.63.76,1.62.82.71,1.99-1.67-.45-3.21-1.04-4.79-1.21-.83-.09-1.86.4-2.57.94-2.05,1.55-1.73,4.2.59,5.4,1.81.94,3.71,1.74,5.46,2.77,2.18,1.29,2.7,3.33,2.37,5.27-.37,2.15-2.16,3.58-4.4,4.01-2.88.55-5.33-.36-7.61-2.04Z"/><path class="cls-1" d="m292.73,92.3v1.53h-6.87v18.17h-1.86v-18.13h-6.91v-1.58h15.64Z"/><path class="cls-1" d="m134.82,93.83h-6.91v-1.53h15.64v1.53h-6.87v18.17h-1.86v-18.17Z"/><path class="cls-1" d="m190.5,122.01h1.77v18.13h9.07v1.58h-10.84v-19.7Z"/><path class="cls-1" d="m231.28,92.3h1.77v18.13h9.07v1.57h-10.84v-19.7Z"/><path class="cls-1" d="m246.39,112.01v-19.71h1.69v19.71h-1.69Z"/><path class="cls-1" d="m340.91,112.02h-1.69v-19.7h1.69v19.7Z"/><path class="cls-1" d="m207.34,141.72h-1.73v-19.7h1.73v19.7Z"/><path class="cls-1" d="m113.32,141.72h-1.73v-19.7h1.73v19.7Z"/><path class="cls-1" d="m249.73,141.68v-19.64h1.71v19.64h-1.71Z"/><path class="cls-1" d="m123.89,92.31v19.67h-1.73v-19.67h1.73Z"/><path class="cls-1" d="m152.1,90.66c-1.61.14-2.75-.84-3.69-3.13,1.18-.26,2.11-.17,2.59,1.18.24.68.71,1.28,1.1,1.95Z"/><path class="cls-1" d="m189.46,31.79c-.46.02-.92.05-1.29.07-.24.64-.52,1.39-.81,2.14-.16-.03-.32-.07-.48-.1v-3.57c-.9,1.61.58,3.73-1.53,5.32v-7.15c-.12,0-.24,0-.37,0v7c-.15.05-.3.1-.45.14-.19-.42-.52-.83-.54-1.25-.07-1.54-.03-3.08-.03-4.62-.13,0-.26-.01-.39-.02v4.26c-1.57-.58-.79-1.76-1.06-2.35-.62.05-1.17.09-1.72.14l.04.04c-.09-.09-.19-.19-.28-.28l.05.04c-.68-.8-1.35-1.59-2.03-2.39.08-.12.17-.24.25-.37.99.17,1.97.44,2.97.49.7.03,1.42-.25,2.13-.39.06-.02.13-.04.19-.07-.03-.03-.07-.07-.1-.1-.02.06-.04.13-.07.19-.62-.04-1.24-.08-1.92-.12v-1.73c-.47-.03-.84-.05-1.2-.08-.04.43-.08.89-.1,1.13-1.11.19-2.08.36-3.05.53l.04.04c-.09-.09-.19-.19-.28-.28l.04.03c.24-.49.48-.98.72-1.46,0,0-.04.03-.04.03.09-.09.19-.19.28-.28l-.04.04c.94-.86,1.87-1.71,2.87-2.62.27.19.57.4.78.55.28-.86.54-1.69.81-2.52.16.03.32.06.48.09l.19,4.16c.87-1.83-.21-3.89.93-5.6.12.01.25.02.37.03v6.97c.14,0,.27.01.41.02.41-2.29-.01-4.64.4-6.98,1.1,1.55.57,3.47,1.16,5.18v-3.57c1.68.19.96,1.46,1.31,2.33.25-.2.48-.38.73-.58.93.85,1.86,1.69,2.79,2.54,0,0-.03-.04-.03-.04.09.09.19.19.28.28,0,0-.05-.04-.05-.04.24.49.48.98.72,1.47l.04-.04c-.92.19-1.84.38-2.88.6v-1.87c-.56-.12-.99-.21-1.43-.31-.04.51-.09,1.01-.11,1.3-.82.11-1.52.21-2.23.3,0,.13,0,.26,0,.38,1.85.21,3.7.42,5.57.63-.57.65-1.21,1.38-1.85,2.11l.05-.04c-.09.09-.19.19-.28.28,0,0,.04-.04.04-.04Z"/><path class="cls-1" d="m168.77,31.52c-.85-.67-.6-1.61-.62-2.49-.03-1.4,0-2.81-.16-4.2-.19-1.74-.61-3.47-.78-5.21-.07-.7.18-1.48.46-2.15.72-1.73,1.6-3.4,2.27-5.14.16-.42-.2-1.05-.38-1.81.08-.02.41-.08,1.01-.19.02-.01.27-.35.59-.47.12-.04.43.43.69.71.3-.09.71-.21,1.13-.33.05.07.09.13.14.2-.34.44-.69.88-1.06,1.36.09.25.18.58.33.88.57,1.18,1.07,2.42,1.77,3.52,1.29,2.05,1.57,4.27,1.27,6.58-.3,2.33-.77,4.64-1.09,6.97-.06.46.24.96.33,1.29-.84.29-1.71.48-2.49.88-.67.34-1.19.5-1.89.04-.43-.29-1.03-.32-1.56-.47l.03.03Zm3.73-.56c.17.04.34.07.5.11.22-1.33.47-2.65.64-3.98.13-1.01.19-2.04.18-3.06,0-1.03-.13-2.07-.23-3.1-.02-.2-.15-.46-.31-.57-1.24-.83-3.19-.4-3.63.98-.32.99-.33,2.18-.13,3.21.4,1.99.96,3.95.6,6.01.84.2,1.34.08,1.41-.9.06-.93.26-1.86.46-2.77.07-.32.34-.59.52-.89.13.05.25.11.38.16-.13,1.6-.26,3.2-.39,4.79Zm-1.97-14.38c-.08.25-.31.57-.23.74.45.9,0,1.19-.77,1.41-.68.19-.94.64-.47,1.56,1.32-1.78,3.05-1.47,4.86-1.01-.23-.46-.52-.9-.75-.88-1.46.18-2.22-.49-2.65-1.82Zm1.51-2.78c-.13-.07-.26-.13-.4-.2-.18.33-.36.66-.54.99l.36.19c.19-.33.38-.66.57-.99Zm-1.46-.96c-.02.15-.05.3-.07.46.35.03.71.06,1.06.09l.05-.24c-.35-.1-.69-.21-1.04-.31Zm.84-1.4l-.12.14c.07.03.14.08.2.07.04,0,.08-.08.12-.13-.07-.03-.13-.05-.2-.08Zm-.78.18s.05-.04.07-.07c-.02-.02-.05-.05-.07-.07-.03.03-.05.07-.08.1.02.01.05.03.07.04Z"/><path class="cls-1" d="m169.61,38.21c.45-.88.95-1.84,1.44-2.8.13-.02.25-.05.38-.07.7,1.34,1.28,2.74,2.11,3.99,1.2,1.8,1.12,3.97,1.81,5.91.38,1.06-.18,2.46-.34,3.7-.13.98-.4,1.96-.44,2.94-.04,1.22-.66,1.84-1.79,1.85-1.34.02-2.68-.09-4.01-.21-.27-.02-.52-.3-.78-.47l.19-.33,3.97-.41c0-.1,0-.21,0-.31-.55-.03-1.1-.13-1.64-.08-2.46.21-2.46.23-3.1-2.19.39.11.77.34,1.08.27.35-.07.65-.4.83-.53.98-.05,1.81-.08,2.64-.12,0,.11.01.22.02.33,1.05-.24,1.4-.87,1.09-1.89-1.28-.62-2.46-.62-5.3,0-.12-.44-.26-.87-.37-1.32-.11-.45-.19-.9-.22-1.09.77-.21,1.43-.39,2.08-.57,0-.1-.02-.21-.02-.31.3.23.6.46.91.69.35-.32.67-.61,1.04-.96.37.33.72.64,1.03.92.36-.25.7-.48,1.14-.79-.01.1.02.02,0-.05-.53-1.78-.53-1.8-2.39-1.77-.5,0-1.01.15-1.51.21-.49.06-.99.09-1.46.13v-2.42c.42.61.72,1.03,1.03,1.48.14-.56.25-1,.4-1.59.42.34.66.53.9.72.26-.3.51-.59.8-.92.35.26.65.48,1.01.75.63-1.01.21-1.98-.35-2.54-.38-.38-1.37-.14-2.2-.18Zm.66,12.31c-.06.02-.13.04-.19.06.03.03.07.07.1.1.02-.06.04-.13.07-.19.06-.02.13-.04.19-.07-.03-.03-.07-.07-.1-.1-.02.06-.04.13-.07.19Zm-1.44.24c-.06.02-.13.04-.19.06l.1.1c.02-.06.04-.13.07-.19.06-.02.13-.04.19-.07-.03-.03-.07-.07-.1-.1-.02.06-.04.13-.07.19Zm-.26-4.58c.06-.02.13-.04.19-.06-.03-.03-.07-.07-.1-.1-.02.06-.04.13-.07.19-.06.02-.13.04-.19.07.03.03.07.07.1.1.02-.06.04-.13.07-.19Zm3.99.09c-.29-.33-.4-.5-.43-.49-.15.06-.28.17-.41.27.19.05.38.1.84.22Zm-2.75-.22c.38.1.53.18.58.14.09-.07.11-.22.16-.33-.17.04-.33.09-.74.19Zm.5-4.59s0,.07,0,.11h.38s0-.07,0-.11h-.38Zm1.48,0s-.03.05-.04.07h.14s-.02-.05-.03-.06c-.01-.01-.05,0-.07,0Z"/><path class="cls-1" d="m183.08,52.72c-2.1-.37-4.02-.71-5.91-1.05-1.59-4.95.8-8.76,3.95-12.53.13.61.22,1.04.35,1.65.49-.57.84-.97,1.27-1.46,1.25,2.1,1.78,4.41,2.1,6.76.34,2.47-.18,4.79-1.75,6.64Zm-4.14-8.4c-1.26,1.31-1.8,4.86-.68,6.44.22-2.15.43-4.31.65-6.46.06-.11.12-.22.02-.04-.02-.21,0-.07,0,.07Zm.67,6.27c3.53,1.1,3.24,1.48,4.08-1.69-2.49-.83-1.95-3.48-3.04-5.31-.36,2.4-.7,4.65-1.05,7Zm4.01-3.3c.57-2.12-.74-3.76-.92-5.65-1.01.9-.47,4.33.92,5.65Z"/><path class="cls-1" d="m165.16,51.69c-.99.14-2.19.28-3.37.48-.86.14-1.88.73-2.51.44-.62-.29-1.04-1.4-1.19-2.21-.3-1.61-.64-3.31-.42-4.9.28-2.1,1.09-4.12,1.74-6.44.59.73.93,1.15,1.37,1.68.21-.55.37-.98.56-1.48,3.01,3.6,5.37,7.32,3.83,12.43Zm-3.41-7.82c-.09,0-.18.01-.28.02-.12.41-.24.82-.36,1.23-.13.45-.21.92-.4,1.34-.3.67-.59,1.37-1.04,1.94-.32.4-1.2.4-.91,1.24.19.55.43,1.1.71,1.61.07.13.41.23.59.18.9-.23,1.79-.51,2.68-.76-.34-2.29-.67-4.55-1-6.8Zm-3,3.7c1.45-2.04,1.91-4.86,1.01-5.97-.35,1.97-1.59,3.67-1.01,5.97Zm5.39,3.32c1.16-1.88.72-5.03-.79-6.68.26,2.16.51,4.32.79,6.68Z"/><path class="cls-1" d="m157.79,27.31h4.67v1.57h-4.7v4.76h-1.37v-4.7h-4.98v-1.61h4.92v-5c.52-.03.89-.04,1.46-.07v5.05Z"/><path class="cls-1" d="m152.97,21.33c-.92-.55-1.62-.96-2.42-1.44.04-.29.13-.9.22-1.5,1.59.38,1.88.7,1.36,1.53.94.59,1.06.57,1.89-.32-.25-.36-.73-.75-.67-1.01.11-.48.54-.89.84-1.33.44.34.97.61,1.29,1.04.12.16-.22.67-.4,1.14.58.65,1.14.31,1.7-.4-.3-.17-.59-.33-1.09-.61.6-.52,1.1-.96,1.6-1.4.31.46.66.89.88,1.39.04.09-.46.43-.76.69.43.63.97.95,1.67.3-.14-.39-.46-.87-.35-1.02.35-.45.87-.77,1.33-1.14.26.45.65.88.72,1.35.04.29-.42.65-.81,1.19.62.18,1.27.36,2.08.59-.23-.68-.34-1.01-.46-1.38q1.83-.02,1.85.92c-.75.48-1.4.9-2.23,1.43-2.66-1.17-5.58-1.21-8.26-.01Zm9.63-1.73c-.06.02-.13.04-.19.06.03.03.07.07.1.1.02-.06.04-.13.07-.19.06-.02.13-.04.19-.07-.03-.03-.07-.07-.1-.1-.02.06-.04.13-.07.19Zm-11.2-.19s-.03.05-.04.07c.05,0,.09,0,.14,0-.01-.02-.02-.06-.03-.07-.01-.01-.05,0-.07,0Z"/><path class="cls-1" d="m190.61,45.96c-2.05-1.31-2.7.24-3.64,1.11-.54.5-1.05,1.03-1.65,1.62-.28-1.83,1.25-2.49,1.85-3.66.38-.74.8-1.54.85-2.34.14-2.65,2.46-4.03,4.73-2.72,1.04.61,1.45,1.98.98,3.3-.42,1.19-1.32,1.72-2.63,1.4-.42-.1-.95-.56-1.06-.95-.14-.51,0-1.17.23-1.67.09-.2.73-.15,1.12-.21.04.55.08,1.09.14,1.79.28-.2.93-.42.98-.74.09-.5-.07-1.24-.42-1.57-.35-.32-1.11-.45-1.6-.33-1.23.3-1.75,1.99-1.07,3.26.25.46.6.87,1.2,1.71Z"/><path class="cls-1" d="m147.48,42.81c.43-.46.81-.87,1.2-1.29-.4-.42-.78-.83-1.31-1.4.26-.23.51-.45.79-.7.46.42.8.74,1.21,1.11.4-.34.78-.67,1.19-1,1.22.59.6,1.2-.18,1.96.3.28.57.52.88.8.62-.7,1.11-1.26,1.64-1.86.38.21.71.39,1.15.63-.66.71-1.24,1.34-1.94,2.09,1.3,1.19,2.53,2.36,3.81,3.46.73.63,1.1,1.33.76,2.49-1.78-1.68-3.5-3.31-5.21-4.93-.75.7-1.4,1.31-2.05,1.92q-.93-.73.99-2.99c-.29-.24-.59-.49-.89-.74q-1.14,1.39-2.03.43Z"/><path class="cls-1" d="m179.6,19.82c-.2.13-.4.26-.61.39-.1-.22-.27-.42-.29-.65-.05-.43-.01-.86-.01-1.32,1.76.36,1.93.54,1.69,1.74,1.09.47,1.56-.35,2.13-1.1.66.57,1.35,1.33,1.97.34-.19-.55-.52-1.02-.41-1.33.16-.44.64-.76.99-1.13.33.43.76.82.96,1.31.1.24-.22.65-.43,1.17.59.93,1.28.24,1.96-.4.58.69.95,1.67,2.15,1.12-.55-1.29.73-1.26,1.6-1.78.05.68.1,1.36.15,2.03-.11.02-.22.03-.34.05-.28-.26-.56-.52-1.04-.97.35,1.13-.29,2.07-1.02,1.85-4.28-1.26-5.04-.8-8.55.07-.3-.46-.61-.95-.93-1.44.14,0,.29-.01.43-.02-.02-.06-.04-.11-.06-.17-.11.07-.23.15-.34.22Zm-.03-.53s0-.07,0-.11h-.38s0,.07,0,.11h.38Zm5.56-.61c-.03-.07-.05-.14-.08-.2-.05.04-.13.08-.13.12,0,.07.04.13.07.2.05-.04.1-.08.14-.12Zm5.42.39s.05-.04.07-.07c-.02-.02-.05-.05-.07-.07-.03.03-.05.07-.08.1.02.01.05.03.07.04Z"/><path class="cls-1" d="m151.99,35.89c1.49.65,2.87.82,4.2-.02-.16-.43-.32-.85-.48-1.27.42-.05.84-.1,1.25-.16.08,0,.16-.02.23-.01.41.06.83.13,1.24.2-.15.4-.31.8-.51,1.32,1.31.64,2.7.75,4.15-.16-.13-.16-.3-.3-.35-.47-.08-.3-.08-.61-.11-.92.3-.02.68-.17.87-.03.19.13.32.57.25.82-.65,2.48-2.19,2.86-3.99,2.29-.83-.26-1.64-.75-1.32-1.92.03-.1-.2-.27-.31-.4-.16.14-.43.25-.47.41-.27,1.32-1.11,2.11-2.39,2.19-1.09.07-2.45-.71-2.77-1.66-.14-.4-.16-.87-.12-1.3.02-.2.3-.45.51-.53.18-.06.54.03.63.17.11.18.1.51.02.72-.09.24-.32.42-.55.72Z"/><path class="cls-1" d="m148.66,28.48c.52-.11,1.05-.21,1.57-.32,0-.06,0-.12,0-.18-.33-.04-.76.05-.97-.13-.74-.63-1.54-1.21-1.54-2.39,0-1.25.15-2.4,1.4-2.99.39-.19.93-.17,1.38-.08.21.04.42.45.5.72.03.12-.27.49-.39.48-.38-.04-.75-.21-1.23-.37-.65,1.21-.82,2.58.02,3.86.51-.06.94-.11,1.38-.16-.03.37-.07.74-.09,1.12,0,.1.1.2.1.3-.01.41-.04.82-.07,1.23-.43-.11-.86-.23-1.36-.36-.82,1.23-.6,2.6.1,3.98.3-.12.58-.34.86-.33.25.01.48.29.71.45-.22.21-.44.6-.67.61-2.13.12-3.05-2-2.47-4,.1-.33.23-.66.34-.99l-.04.05c.09-.09.19-.19.28-.28l-.04.04c.09-.09.19-.19.28-.28,0,0-.03.04-.03.04Z"/><path class="cls-1" d="m164.71,32.91c.7-1.23.67-2.68-.24-4.05-.29.25-.54.57-.88.72-.11.05-.58-.29-.59-.46-.02-.33.18-.66.28-.95-.04-.41-.08-.83-.12-1.26.43.1.87.21,1.39.33.9-1.34.92-2.87-.17-4.49-.07.21-.08.45-.18.51-.28.15-.62.32-.92.3-.14,0-.41-.54-.34-.64.18-.27.49-.57.79-.61,1.64-.2,3.07,1.71,2.6,3.43-.34,1.27-1.02,2.19-2.46,2.49.32.07.65.1.94.22,1.2.52,1.68,1.58,1.56,3.02-.11,1.38-1.09,2.3-2.36,2.37-.31.02-.66-.15-.95-.31-.06-.03.03-.58.1-.59.4-.06.82-.03,1.55-.03Z"/><path class="cls-1" d="m180.8,31.79c.07.33.07.69.22.97.16.3.47.52.71.78-.29.2-.58.4-.97.68.4,1.42,1.35,2.37,2.89,2.83.05-.38.1-.72.15-1.07h.98c.31,1.01-.56,1.41-1.06,1.55-.66.19-1.59.12-2.18-.22-.97-.56-1.63-1.49-1.42-2.77.06-.34-.02-.71-.03-1.07.16-.06.32-.12.48-.18-.09-.09-.18-.18-.27-.27l-.18.47c-.28-.01-.57-.08-.83-.03-2.24.4-3.58-1.48-3.21-3.78.06-.34.3-.66.45-.98l-.04.04c.33-.09.67-.18,1-.27,0,0-.04-.03-.04-.03.09.09.19.19.28.28l-.04-.04c.04.69-.06,1.26-.95,1.23-.02-.06-.04-.13-.07-.19-.03.03-.07.07-.1.1.06.02.13.04.19.07.13,1.36,1.22,2.46,2.78,2.81-.24-.94.29-1.15,1.07-1.11,0,0-.05-.04-.05-.04.09.09.19.19.28.28l-.04-.04Z"/><path class="cls-1" d="m158.28,54.33c-.1,1.58-.89,2.21-2.33,1.6-1.29-.54-.75-1.87-.71-2.85.03-.74.6-1.49,1.49-1.29.64.15,1.22.66,1.79,1.06.82.58,1.61,1.2,2.41,1.8-.5.64-1.2.6-2.67-.3-.02-.06-.04-.13-.07-.19-.03.03-.07.07-.1.1.06.02.13.04.19.07Zm-1.11.68c-.1-.75-.2-1.41-.32-2.3-.8,1.25-.69,1.86.32,2.3Z"/><path class="cls-1" d="m184.13,54.35c-.98.59-1.94,1.04-2.96.44,1.19-.91,2.29-1.84,3.48-2.62.43-.28,1.22-.46,1.61-.25.4.22.56.95.74,1.49.1.29.02.63.02.95q0,1.63-1.63,1.63c-1.5,0-1.56-.08-1.26-1.63Zm.87.76c1.35-.47,1.45-.98.48-2.37-.18.9-.32,1.57-.48,2.37Z"/><path class="cls-1" d="m179.42,54.61c-1.81,1.73-3.55,3.46-5.38,5.1-.67.6-1.53.98-2.31,1.46-.14-.16-.27-.32-.41-.48.78-.8,1.55-1.62,2.35-2.39,1.2-1.16,2.44-2.27,3.65-3.42.82-.78.81-.8,2.09-.26Z"/><path class="cls-1" d="m170.55,60.9c-1.52.11-2.35-.49-3.04-1.33-1.51-1.84-3.02-3.69-4.6-5.46.38-.15.97.2,1.65.89,1.67,1.69,3.43,3.3,5.15,4.94.26.25.47.53.85.96Z"/><path class="cls-1" d="m168.73,31.49c1.35,1.51,2.97,1.38,4.69.82.36-.12.74-.19,1.13-.28.04,1.67-2.02,2.73-3.83,2.63-1.18-.07-2.51-1.46-2.51-2.72,0-.14.37-.28.56-.42,0,0-.03-.04-.03-.04Z"/><path class="cls-1" d="m191.62,26.81c-.02-1.02.55-1.08,1.41-.79-.24-1.81-1.44-2.67-2.93-3.47-.1.28-.12.44-.2.55-.21.27-.43.54-.7.75-.04.03-.48-.26-.46-.34.08-.34.17-.74.41-.95.75-.66,2.33-.73,3.1-.22.96.64,1.54,2,1.33,3.05-.06.31-.06.63-.08.94,0,0,.04-.04.04-.04-.17.17-.35.35-.52.52,0,0,.04-.04.04-.04-.09.09-.19.19-.28.28l.04-.04c-.33,0-.67,0-1,0,0,0,.05.04.04.04-.09-.09-.19-.19-.28-.28l.03.04Z"/><path class="cls-1" d="m193.75,28.7c.49,1.18.88,2.37-.07,3.52-1.06,1.27-2.1,1.73-4,.78l.04.04c-.09-.09-.19-.19-.28-.28l.04.04c0-.33,0-.66,0-.99,0,0-.04.04-.04.04.09-.09.19-.19.28-.28,0,0-.05.04-.05.04.43.31.85.62,1.48,1.08,1.02-.37,1.94-1.26,2.4-2.64-1.16-.47-1.19-.51-.96-1.59l-.04.04c.33,0,.67,0,1,0l-.04-.04c.09.09.19.19.28.28l-.04-.02Z"/><path class="cls-1" d="m189.67,32.99c.42,1.06.75,2.08.07,3.2-.92,1.53-2.22,1.9-3.76.95-.19-.12-.46-.1-.69-.14l.03.03c.04-.31.09-.62.13-.94q1-.23,1.16.91c1.49-.41,2.31-1.46,2.82-2.72-.41-.36-.77-.67-1.13-.99.39-.17.78-.34,1.17-.52,0,0-.04-.04-.04-.04.09.09.19.19.28.28l-.04-.04Z"/><path class="cls-1" d="m169.15,54.94c1.28-.29.61.78,1.06,1.26h.9c.38-.38-.3-1.54,1.03-1.25,0,.98,0,1.93,0,2.88,0,.31-.03.62-.06,1.01-1.38.11-.5-1.06-1.16-1.55h-.79c-.44.43.36,1.62-.99,1.56v-3.9Z"/><path class="cls-1" d="m178.2,27.01c-.93-.06-1.45-.76-1.62-1.46-.34-1.39.35-2.77,1.46-3.3.87-.42,1.78-.86,2.57.18l.04-.04c-2.14.65-3.11,1.57-3.42,3.36,1.14-.45,1.19.27,1.18,1.06,0,0,.04-.04.04-.04-.09.09-.19.19-.28.28l.04-.03Z"/><path class="cls-1" d="m153.46,30.63c-.19-.21-.38-.42-.65-.71.96-.39,1.86-.42,2.41.35.21.29-.2,1.03-.32,1.56-.08-.08-.16-.16-.24-.24-.08-.08-.16-.16-.24-.24-.08-.08-.16-.16-.24-.24-.02-.06-.04-.13-.07-.19-.03.03-.07.07-.1.1.06.02.13.04.19.07.08.08.16.16.24.24.08.08.16.16.24.24.08.08.16.16.24.24-.33.51-.66,1.02-1.07,1.66q-1.49-2.68-.37-2.86c.02.06.04.13.07.19.03-.03.07-.07.1-.1-.06-.02-.13-.04-.19-.07Z"/><path class="cls-1" d="m191.12,48.67c-.55.39-.94.67-1.34.95.07.1.13.2.2.3.46.12.92.23,1.38.35l-.06.33h-2.22v-3.81h2.07c.07.08.14.16.21.23-.24.19-.47.4-.72.57-.23.15-.48.26-.72.38.23.14.46.28.7.41.17.1.34.19.51.28Z"/><path class="cls-1" d="m182.39,53.4c-1.39.85-3.72.53-5.33-.72,1.25-.63,3.89-.28,5.33.72Z"/><path class="cls-1" d="m159.68,53.39c2.98-1.25,4.45-1.42,5.46-.69-1.31,1.17-3.86,1.54-5.46.69Z"/><path class="cls-1" d="m152.48,49.95c.55.09.99.17,1.42.24,0,.15,0,.3.01.45-.71.03-1.42.07-2.11.1-.57-1.97-.28-3.89.67-3.96v3.17Z"/><path class="cls-1" d="m161.13,25.1c-.22.46-.43,1.3-.67,1.31-.49.02-1.14-.29-1.46-.68-.26-.32-.18-.96-.11-1.44.01-.09.71-.08,1.09-.11l-.05-.04c.26.17.51.34.77.52l-.05-.04c.09.09.19.19.28.28l-.04-.04c.09.09.19.19.28.28l-.04-.03Z"/><path class="cls-1" d="m154.65,24.84c0,.44.1.92-.05,1.3-.08.2-.77.41-.88.3-.5-.49-1.44-.68-1.21-1.75.11-.5.12-.85.74-.76l-.04-.05c.18.09.35.18.53.28l-.05-.04c.26.17.51.34.77.52l-.05-.04c.09.09.19.19.28.28l-.04-.05Z"/><path class="cls-1" d="m161.12,31.81c-.24.43-.48.86-.72,1.3-.5-.28-1.09-.47-1.45-.87-.22-.25-.26-1.06-.07-1.19.32-.23.87-.12,1.33-.16l-.05-.04c.33.33.67.67,1,1l-.04-.03Z"/><path class="cls-1" d="m168.07,28.12c-.58.57-.94.92-1.45,1.43-.41-.55-.86-1-1.05-1.53-.07-.19.59-.92.77-.87.55.15,1.03.56,1.73.97Z"/><path class="cls-1" d="m148.22,28.92c-.26.15-.52.3-.84.49-.28-.61-1.51-.74-.82-1.76.66-.97,1.44-.66,2.11.83,0,0,.03-.04.03-.04-.09.09-.19.19-.28.28,0,0,.04-.04.04-.04-.09.09-.19.19-.28.28,0,0,.04-.05.04-.05Z"/><path class="cls-1" d="m190.48,35.56v-1.71h1.72v1.71h-1.72Z"/><path class="cls-1" d="m158.27,37.78c-.42.56-.74,1-1.19,1.61-.44-.57-.9-1-1.1-1.53-.07-.19.56-.92.77-.88.52.09.98.5,1.53.81Z"/><path class="cls-1" d="m176.52,28.71c-1.71-.82-1.79-1.27-.33-2.59.36.4.73.81,1.08,1.2-.26.47-.52.95-.79,1.43,0,0,.04-.04.04-.04Z"/><path class="cls-1" d="m193.5,26.33c.45.26.95.47,1.31.82.09.09-.19.65-.38.94-.17.25-.45.41-.69.62,0,0,.04.02.04.02-.09-.09-.19-.19-.28-.28l.04.04c-.24-.49-.48-.98-.72-1.47,0,0-.04.04-.04.04.09-.09.19-.19.28-.28,0,0-.04.04-.04.04.17-.17.35-.35.52-.52,0,0-.04.04-.04.04Z"/><path class="cls-1" d="m185.29,37c.32.4.63.81,1.09,1.39-.4.28-.85.6-1.39.97-.21-.29-.53-.73-.94-1.29.32-.26.79-.65,1.27-1.04,0,0-.03-.04-.03-.04Z"/><path class="cls-1" d="m178.01,35.54v-1.68h1.5v1.68h-1.5Z"/><path class="cls-1" d="m163.16,36.01v-1.45h1.71v1.45h-1.71Z"/><path class="cls-1" d="m153.25,23.94c.06-.26.13-.53.19-.79.55.16,1.19.19,1.62.52.29.22.26.84.42,1.45-.41-.13-.62-.19-.83-.26,0,0,.04.05.04.05-.09-.09-.19-.19-.28-.28l.05.04c-.26-.17-.51-.34-.77-.52,0,0,.05.04.05.04-.18-.09-.35-.18-.53-.28l.04.05Z"/><path class="cls-1" d="m149.23,36.02v-1.44h1.5v1.44h-1.5Z"/><path class="cls-1" d="m159.97,24.17c-.21-.26-.42-.51-.68-.82.82-.57,1.59-.36,2.11.34.26.35.64,1.11-.27,1.41,0,0,.04.03.04.03-.09-.09-.19-.19-.28-.28,0,0,.04.04.04.04-.09-.09-.19-.19-.28-.28l.05.04c-.26-.17-.51-.34-.77-.52l.05.04Z"/><path class="cls-1" d="m160.21,30.88c-.27-.3-.55-.6-.88-.96.8-.36,1.54-.46,2.04.37.3.5.61,1.14-.25,1.51,0,0,.04.03.04.03-.33-.33-.67-.67-1-1l.05.04Z"/><path class="cls-1" d="m180.61,22.43c.3.24.64.45.86.75.07.09-.24.64-.33.63-.35-.05-.68-.24-1.09-.4.25-.42.42-.71.59-1.01,0,0-.04.04-.04.04Z"/><path class="cls-1" d="m187.19,17.67c.34.12.67.24,1.01.36-.09.19-.24.54-.26.53-.32-.11-.63-.27-.94-.42.06-.16.13-.31.19-.47Z"/><path class="cls-1" d="m182.92,18.38c-.33.04-.67.09-1,.13-.01-.22-.03-.45-.04-.67h1.01c0,.18.02.36.03.54Z"/><path class="cls-1" d="m168.25,9.91c.22.25.36.41.5.57-.19.15-.37.38-.58.41-.14.02-.31-.25-.47-.39.17-.17.33-.35.56-.59Z"/><path class="cls-1" d="m168.41,13.67c-.19-.22-.33-.39-.47-.55.2-.14.39-.36.6-.39.11-.02.36.3.37.48,0,.12-.28.27-.5.46Z"/><path class="cls-1" d="m170.47,8.65c.28.07.57.13.83.23.02,0-.07.31-.1.48-.29-.09-.57-.18-.86-.27.04-.15.09-.3.13-.44Z"/><path class="cls-1" d="m172.3,8.61c.19.23.47.41.46.58-.01.17-.31.31-.48.47-.16-.17-.43-.34-.43-.51,0-.17.28-.34.45-.54Z"/><path class="cls-1" d="m173.36,10.01c.17-.22.34-.44.52-.65.13.12.26.25.39.37-.21.18-.42.36-.63.54-.09-.09-.19-.18-.28-.26Z"/><path class="cls-1" d="m174.18,10.68c.18.21.37.41.53.64.01.02-.29.3-.3.29-.21-.18-.4-.39-.59-.59.12-.11.24-.22.36-.33Z"/><path class="cls-1" d="m170.14,9.65c-.38.14-.58.29-.75.26-.18-.03-.38-.2-.48-.36-.04-.06.2-.4.3-.4.18,0,.36.18.93.5Z"/><path class="cls-1" d="m168.11,11.26c.03.26.06.52.1.78-.18,0-.51.02-.52-.03-.05-.24-.02-.5-.02-.75.15,0,.3,0,.44-.01Z"/><path class="cls-1" d="m173.54,12.97c-.03-.26-.06-.52-.11-.92.26.07.48.09.48.13.03.27.02.54.02.81l-.39-.02Z"/><path class="cls-1" d="m187.52,60.34c-.12-.27-.21-.57-.36-.82-.36-.58-.3-1.01.44-1.3.67,1.13,1.35,2.26,2.02,3.39-.03.13-.06.26-.1.39-.52-.07-1.05-.09-1.56-.22-.4-.1-.77-.32-1.15-.49-.02-.06-.04-.13-.07-.19-.03.03-.07.07-.1.1.06.02.13.04.19.07.19.41.41.82.54,1.25.06.19-.09.44-.14.66-.23-.06-.56-.04-.66-.19-.54-.81-1.06-1.64-1.52-2.49-.09-.17-.01-.62.12-.7.25-.15.64-.21.92-.13.5.14.97.42,1.45.64.02.06.04.13.07.19.03-.03.07-.07.1-.1-.06-.02-.13-.04-.19-.07Z"/><path class="cls-1" d="m200.32,40.12c-.59-.36-1.87.1-1.34-1.31,1.26.26,2.52.52,3.83.79-.16.63-.3,1.23-.47,1.82-.24.86-1.08.93-1.49.56-.81-.73-1.55-.24-2.4-.19-.24-1.47,1.35-.89,1.87-1.67Zm1.06-.17c-.18.19-.36.38-.54.57.18.19.36.38.53.58.1-.11.31-.24.29-.34-.05-.28-.18-.54-.28-.81Z"/><path class="cls-1" d="m180.3,62.06h2.38c.35-.61.6-1.05.85-1.49.12.04.24.08.36.12,0,1.3.04,2.6-.04,3.89-.01.22-.79.63-.87.56-1-.89-1.94-1.86-2.89-2.81.07-.09.14-.18.21-.26Zm2.51,1.85c.12-.38.21-.54.17-.58-.11-.12-.27-.19-.41-.28.06.2.11.41.24.86Z"/><path class="cls-1" d="m188.33,57.08c2.14.55,2.64-.73,2.69-2.51.13.09.25.19.38.28.45,1.17.93,2.33,1.32,3.53.08.26-.1.7-.31.92-.12.14-.57.13-.79.01-1.06-.55-2.09-1.16-3.13-1.75-.06-.16-.11-.33-.17-.49Zm2.95.16c-.13.08-.26.17-.39.25.17.22.33.44.5.66.08-.05.16-.1.24-.14l-.35-.77Z"/><path class="cls-1" d="m201.28,46.33h-4.3c-.05-.08-.09-.16-.14-.25.26-.19.49-.45.78-.57.76-.32.94-1.05.51-1.78-.16-.26-.03-.7-.03-1.28,1.13.98,2.09,1.74,2.94,2.6.24.24.16.8.24,1.27Zm-2.14-1.35c-.04.13-.08.26-.13.39.28.05.56.1.85.15.02-.07.04-.13.06-.2-.26-.11-.52-.23-.78-.34Z"/><path class="cls-1" d="m198.95,37.45c.36-.58.95-1.13,1.02-1.74.06-.58-.43-1.21-.82-2.16,1.42.63,2.49,1.07,3.52,1.59.21.1.4.48.38.72-.02.24-.25.6-.47.68-1.12.41-2.26.75-3.4,1.12-.08-.07-.15-.14-.23-.2Zm2.63-1.62c-.02-.11-.05-.22-.07-.33-.26.08-.53.15-.79.23.03.11.06.22.1.33.26-.08.51-.15.77-.23Z"/><path class="cls-1" d="m199.88,32.63c-1.08.46-.83-.6-.96-.97-.26-.78.58-2.02,1.35-2.2,1.17-.27,2.31.12,2.46,1.02.09.53.98,1.41.08,1.67-.79-.72-1.31-1.59-1.96-1.69-.87-.14-1.25.88-.97,2.16Z"/><path class="cls-1" d="m196.1,54.21c.25,1.65-1.1,2.05-1.51,3.03-.14-.04-.28-.07-.42-.11.03-.41.06-.82.12-1.5-.35-.31-.98-.79-1.52-1.35-.19-.19-.18-.58-.26-.87.31.02.67-.06.91.07.37.21.62.63.98.86.5.32,1.03.99,1.71-.13Z"/><path class="cls-1" d="m196.37,47.44c.9.53,1.78,1.11,2.72,1.56.75.35.69.7.18,1.23-.88-.49-1.76-.98-2.69-1.49-.25.42-.46.78-.66,1.13q-.76-.38.45-2.43Z"/><path class="cls-1" d="m194.7,50.5c1.1.8,2.12,1.55,3.13,2.28-.35.86-.77.75-1.3.34-2.38-1.84-2.39-1.83-1.83-2.62Z"/><path class="cls-1" d="m155.62,61.52l1.15-1.56c.1-.02.21-.04.31-.06.03.38.2.82.06,1.12-.36.77-.84,1.51-1.33,2.21-.14.2-.55.39-.74.33-.19-.06-.34-.46-.36-.72-.05-.62-.02-1.24-.02-2.17-.49.73-.8,1.2-1.12,1.68-.86-.3-.85-.29-.41-1.05.39-.68.73-1.39,1.17-2.04.16-.23.59-.46.81-.4.21.06.42.49.45.78.08.63.05,1.27.07,1.91-.06.02-.13.04-.19.07.03.03.07.07.1.1.02-.06.04-.13.07-.19Z"/><path class="cls-1" d="m145.55,47.24c-.05.36-.04.75-.17,1.08-.14.37-.42.69-.65,1.06.72.24,1.56-1.21,1.87.39-1.11.61-2.23,1.22-3.46,1.89-.25-.61-.43-1.17-.71-1.67-.45-.81,0-1.38.65-1.39,1.1-.02,1.46-.84,2.04-1.46.14.03.28.06.43.09Zm-2.2,2.25c-.06.13-.12.27-.19.4.27.06.53.12.8.17.03-.11.06-.21.08-.32-.23-.09-.47-.17-.7-.26Z"/><path class="cls-1" d="m138.37,34.49c1.62-.65,2.88-1.16,4.14-1.66.08.06.17.12.25.18-.22.37-.38.81-.68,1.09-.59.55-.55,1.09.12,1.62.25.2.34.62.36,1.04-1.46-.6-3.21-.57-4.19-2.27Zm1.77.12c.29.33.4.5.43.49.15-.06.28-.17.41-.27-.19-.05-.38-.1-.84-.22Z"/><path class="cls-1" d="m147.38,52.8c-.16-.46-.31-.92-.5-1.48.6-.82.86.1,1.17.43.46.49.98,1.07.16,1.67-.83.62-1.71,1.18-2.68,1.84-.27-.89-1.45-1.38-.85-2.6.48.44.87.81,1.48,1.38-.16-.94-.24-1.44-.33-1.94.39.23.78.45,1.17.68.13,0,.25.02.38.02Z"/><path class="cls-1" d="m159.7,63.04c-1.02.29-1.07,2.15-2.78,1.54,1.03-1.2,1.89-2.21,2.84-3.31,1.87,1.35.3,3.11.68,4.65-.37-.07-.63-.12-.98-.19.08-.9.15-1.77.23-2.69Z"/><path class="cls-1" d="m149.65,56.27c-.61.24-1.21.52-1.84.7-.28.08-.63-.03-.94-.06,0-.13-.02-.26-.03-.4,1.01-.51,2.02-1.04,3.05-1.51.25-.11.73-.13.85.01.18.23.29.69.18.95-.47,1.07-1.04,2.1-1.67,3.34-1.06-1.36.29-2.12.39-3.07.06-.02.13-.04.19-.07-.03-.03-.07-.07-.1-.1-.02.06-.04.13-.07.19Z"/><path class="cls-1" d="m141.58,30.06c-.26,1.2-1.18,1.62-2.01,1.12-.46-.28-.42-1.4-.61-2.19,1.72-.3.35,1.25,1.25,1.35.24-.3.44-.72.78-.94.36-.23.88-.43,1.25-.33.28.08.51.62.62.99.1.37.08.8,0,1.18-.04.19-.33.33-.51.49-.11-.23-.27-.45-.32-.69-.06-.29-.01-.6-.01-.89-.15-.03-.29-.06-.44-.08Z"/><path class="cls-1" d="m144.53,46.24c-.21-.18-.42-.35-.62-.54-.22-.22-.42-.46-.63-.69-.13.26-.39.54-.38.79.06.96-.51,1.38-1.28,1.27-.89-.12-1.1-.92-1.04-1.72.01-.16.27-.31.42-.47.23.43.42.78.66,1.24.65-.88.22-2.37,1.68-2.27,1.3.09,1.06,1.34,1.41,2.14-.08.08-.15.16-.23.24Z"/><path class="cls-1" d="m139.14,40.72c-.06-1.02-.12-2.04-.18-3.06.13-.02.27-.04.4-.05.17.33.34.66.55,1.05.65-.08,1.38-.2,2.11-.24.28-.01.56.16.85.25-.2.25-.37.65-.62.71-.75.18-1.54.23-2.09.29-.25.54-.43.92-.61,1.3-.14-.08-.28-.17-.42-.25Z"/><path class="cls-1" d="m152.99,57c.3.37.47.59.64.79-.82,1.02-1.61,2-2.41,3-.63-.23-.93-.47-.4-1.08.69-.8,1.33-1.66,2.17-2.72Z"/><path class="cls-1" d="m140,43.22c-.07-.08-.35-.27-.35-.44,0-.2.23-.53.42-.58.92-.28,1.86-.52,2.81-.71.2-.04.45.2.68.31-.15.23-.26.6-.46.66-.96.29-1.95.49-3.1.76Z"/><path class="cls-1" d="m187.78,9.54c-.57.25-1.13.51-1.7.76,0-.62.02-1.24.02-1.85,0-.08-.04-.15-.09-.33-.35.47-.67.89-1.02,1.37-.63-.22-.86-.52-.4-1.17.59-.83,1.12-1.7,1.75-2.67.39.25.77.48,1.14.72-.16.75-.32,1.45-.47,2.15.09.05.18.1.27.15.33-.31.62-.74,1.01-.89.39-.15.89-.03,1.34-.02-.02.34.06.73-.09,1-.48.9-1.04,1.75-1.63,2.71-.29-.2-.53-.37-.69-.48.2-.55.36-1.01.53-1.47.08-.08.16-.16.24-.24.06-.02.13-.05.19-.07-.03-.03-.07-.06-.1-.1-.02.06-.04.13-.06.19-.08.08-.16.16-.24.24Zm-1.5-1.82l-.07-.07s-.05.05-.07.07c.03.03.07.05.1.08.01-.02.03-.05.04-.07Z"/><path class="cls-1" d="m175.26,3.73c.04,1.04-.95,2.14-1.95,2.17-1.03.03-1.97-.9-2.05-2.03-.07-1.11.91-2.2,1.99-2.21,1.03,0,1.97.96,2.01,2.07Zm-.77.06c-.51-.53-.85-.88-1.19-1.23-.3.38-.86.78-.84,1.15.02.44.53.86.83,1.29.34-.34.69-.69,1.21-1.21Z"/><path class="cls-1" d="m164.42,6.43c-.23-1.38-.43-2.6-.64-3.88,1.14-.39,2.32-.89,3.12.28.4.58.56,1.64.31,2.29-.45,1.17-1.76,1-2.79,1.31Zm1.01-3.58c-.17.1-.34.19-.52.29.11.74.22,1.48.33,2.22.11.06.22.11.32.17.29-.47.83-.95.81-1.4-.02-.44-.61-.85-.95-1.27Z"/><path class="cls-1" d="m178.6,6.96c-.29-.64-.58-1.28-.95-2.1-.11.36-.15.68-.3.92-.14.23-.41.38-.62.57-.12-.28-.38-.59-.33-.84.13-.72.5-1.41.55-2.13.09-1.22.68-1.02,1.52-.8.99.26,1.55,1.09.99,1.66-.71.73-.38,1.3-.37,1.97,0,.19-.04.39-.06.58-.15.06-.29.11-.44.17Zm-.04-3.1c-.02-.14-.03-.28-.05-.43-.26.1-.52.19-.78.29.04.11.08.22.11.32.24-.06.48-.13.71-.19Z"/><path class="cls-1" d="m161.17,5.54v-2.36c.3-.06.57-.11.9-.17,0,1.2.03,2.31-.02,3.42-.01.3-.2.76-.42.84-.25.09-.73-.07-.92-.28-.68-.76-1.29-1.58-1.89-2.4-.08-.11,0-.52.04-.53.31-.04.75-.14.91.02.45.46.78,1.03,1.16,1.55.08-.03.16-.06.24-.09Z"/><path class="cls-1" d="m181.28,3.38c1.78.76.39,2.05.79,2.96.97-.27,1.03-2.12,2.74-1.55-1.03,1.2-1.89,2.21-2.84,3.34-1.83-1.34-.41-3.07-.69-4.74Z"/><path class="cls-1" d="m152.91,11.16c.67-.52,1.02-.79,1.48-1.15-.9-.6-2.57.67-2.51-1.18.02-.54.58-1.09.99-1.56.09-.1.55.11.92.19-.49.53-.83.89-1.26,1.36,1.07.18,2.24-.53,2.58.86.21.87-.26,1.47-1.06,1.73-.26.09-.62-.14-1.13-.27Z"/><path class="cls-1" d="m157.26,9.17c-.43-.95-.83-1.84-1.19-2.63-.48-.03-.91-.05-1.34-.07,0-.13-.01-.27-.02-.4,1.01-.26,1.76-1.33,3.37-.99-1.79,1.05-.65,1.96-.29,2.82.26.62.54,1.09-.53,1.27Z"/><path class="cls-1" d="m169.78,5.59h-.83c-.33-3.16-.21-3.81.83-3.84v3.84Z"/><path class="cls-1" d="m165.19,67.32c.21-1.4.39-2.62.6-3.83.02-.1.31-.23.46-.21.14.02.37.23.35.33-.14,1.15-.3,2.3-.52,3.45-.02.11-.45.14-.89.26Z"/><path class="cls-1" d="m175.48,67.19c.51-1.4-1.18-2.84.38-4.36.24,1.38.34,2.49.65,3.53.29.97-.2.9-1.04.83Z"/><path class="cls-1" d="m201.14,23.57c-.97.4-1.93.84-2.93,1.16-.28.09-.68-.17-1.02-.27.2-.24.35-.6.6-.71.75-.32,1.53-.6,2.32-.79.33-.08.72.12,1.08.19-.02.14-.03.28-.05.41Z"/><path class="cls-1" d="m144.82,24.46c-.37.05-.77.22-1.1.14-.8-.2-1.57-.48-2.33-.8-.23-.1-.38-.41-.56-.63.29-.14.64-.45.87-.38,1.04.32,2.04.75,3.05,1.15.02.17.05.35.07.52Z"/><path class="cls-1" d="m145.65,14.07c.33-.31.55-.52.82-.78.99.9,1.91,1.71,2.78,2.57.12.12-.04.53-.09,1.07-1.25-1.02-2.27-1.85-3.51-2.86Z"/><path class="cls-1" d="m192.37,16.05c1-.89,2-1.78,2.99-2.67.12.02.25.04.37.06-.03.4.1.96-.12,1.19-.62.64-1.36,1.19-2.11,1.68-.26.17-.69.09-1.04.12-.03-.13-.06-.25-.09-.38Z"/></svg>