<svg xmlns="http://www.w3.org/2000/svg" id="svg8" viewBox="0 0 566.93 283.46">
  <defs>
    <style>
      .cls-1 {
        fill: #1d1e1b;
        stroke-width: 0px;
      }
    </style>
  </defs>
  <g id="layer1">
    <g id="g1521">
      <path id="path890" class="cls-1" d="m316.44,77.47c0,10.67-6.3,15.87-16.86,15.87s-16.81-5.14-16.81-15.87v-24.55h8.68v24.55c0,4.31,1.11,8.57,8.13,8.57,6.19,0,8.18-2.71,8.18-8.57v-24.55h8.68v24.55Z"/>
      <path id="path892" class="cls-1" d="m323.62,63.82h7.46v3.98h.17c1.99-3.21,5.42-4.75,8.73-4.75,8.35,0,10.45,4.7,10.45,11.78v17.58h-7.85v-16.14c0-4.7-1.38-7.02-5.03-7.02-4.26,0-6.08,2.38-6.08,8.18v14.98h-7.85v-28.58Z"/>
      <path id="path894" class="cls-1" d="m365.01,59.4h-7.85v-6.47h7.85v6.47Zm-7.85,4.42h7.85v28.58h-7.85v-28.58Z"/>
      <path id="path896" class="cls-1" d="m387.57,92.4h-8.73l-9.78-28.58h8.24l6.03,19.52h.11l6.03-19.52h7.79l-9.67,28.58Z"/>
      <path id="path898" class="cls-1" d="m407.52,80.02c.22,4.98,2.65,7.24,7.02,7.24,3.15,0,5.69-1.93,6.19-3.7h6.91c-2.21,6.74-6.91,9.62-13.38,9.62-9.01,0-14.6-6.19-14.6-15.04s5.92-15.09,14.6-15.09c9.73,0,14.43,8.18,13.88,16.97h-20.62Zm12.77-4.98c-.72-3.98-2.43-6.08-6.25-6.08-4.97,0-6.41,3.87-6.52,6.08h12.77Z"/>
      <path id="path900" class="cls-1" d="m433.33,63.82h7.46v5.31h.11c1.44-3.59,5.31-6.08,9.12-6.08.55,0,1.22.11,1.72.28v7.3c-.72-.17-1.88-.28-2.82-.28-5.75,0-7.74,4.15-7.74,9.18v12.88h-7.85v-28.58Z"/>
      <path id="path902" class="cls-1" d="m462.01,83.11c.06,3.43,2.93,4.81,6.03,4.81,2.27,0,5.14-.88,5.14-3.65,0-2.38-3.26-3.21-8.9-4.42-4.53-1-9.07-2.6-9.07-7.63,0-7.3,6.3-9.18,12.44-9.18s12,2.1,12.6,9.12h-7.46c-.22-3.04-2.54-3.87-5.36-3.87-1.77,0-4.37.33-4.37,2.65,0,2.82,4.42,3.21,8.9,4.26,4.59,1.05,9.07,2.71,9.07,8.02,0,7.52-6.52,9.95-13.05,9.95s-13.1-2.49-13.43-10.06h7.46Z"/>
      <path id="path904" class="cls-1" d="m494.24,59.4h-7.85v-6.47h7.85v6.47Zm-7.85,4.42h7.85v28.58h-7.85v-28.58Z"/>
      <path id="path906" class="cls-1" d="m510.93,63.82h5.75v5.25h-5.75v14.15c0,2.65.66,3.32,3.32,3.32.83,0,1.6-.06,2.43-.22v6.14c-1.33.22-3.04.28-4.59.28-4.81,0-9.01-1.11-9.01-6.8v-16.86h-4.76v-5.25h4.76v-8.57h7.85v8.57Z"/>
      <path id="path908" class="cls-1" d="m521.48,72.61c.44-7.35,7.02-9.56,13.43-9.56,5.69,0,12.55,1.27,12.55,8.13v14.87c0,2.6.28,5.2,1,6.36h-7.96c-.28-.88-.5-1.82-.55-2.76-2.49,2.6-6.14,3.54-9.62,3.54-5.42,0-9.73-2.71-9.73-8.57,0-6.47,4.86-8.02,9.73-8.68,4.81-.72,9.29-.55,9.29-3.76,0-3.37-2.32-3.87-5.08-3.87-2.99,0-4.92,1.22-5.2,4.31h-7.85Zm3.43-20.18h8.68l5.31,7.85h-5.47l-8.51-7.85Zm14.71,25.98c-1.33,1.16-4.09,1.22-6.52,1.66-2.43.5-4.64,1.33-4.64,4.2s2.27,3.65,4.81,3.65c6.14,0,6.36-4.87,6.36-6.58v-2.93Z"/>
      <path id="path910" class="cls-1" d="m302.51,148.79h-.11c-1.82,3.1-5.03,4.42-8.68,4.42-8.62,0-12.83-7.41-12.83-15.31s4.26-14.82,12.66-14.82c3.37,0,6.69,1.44,8.46,4.26h.11v-14.37h7.85v39.47h-7.46v-3.65Zm-6.85-19.79c-5.14,0-6.91,4.42-6.91,9.12s2.05,9.18,6.91,9.18c5.2,0,6.75-4.53,6.75-9.23s-1.66-9.07-6.75-9.07"/>
      <path id="path912" class="cls-1" d="m322.9,140.05c.22,4.97,2.65,7.24,7.02,7.24,3.15,0,5.69-1.93,6.19-3.71h6.91c-2.21,6.75-6.91,9.62-13.38,9.62-9.01,0-14.6-6.19-14.6-15.04s5.92-15.09,14.6-15.09c9.73,0,14.43,8.18,13.88,16.97h-20.62Zm12.77-4.98c-.72-3.98-2.43-6.08-6.25-6.08-4.97,0-6.41,3.87-6.52,6.08h12.77Z"/>
      <path id="path914" class="cls-1" d="m376.18,150.61c0,4.7-1.66,12.66-14.82,12.66-5.64,0-12.22-2.65-12.6-9.18h7.8c.72,2.93,3.09,3.93,5.86,3.93,4.37,0,6.36-2.99,6.3-7.08v-3.76h-.11c-1.72,2.99-5.14,4.42-8.57,4.42-8.57,0-12.22-6.52-12.22-14.37,0-7.41,4.26-14.15,12.27-14.15,3.76,0,6.63,1.27,8.51,4.59h.11v-3.81h7.46v26.76Zm-7.46-12.83c0-4.64-1.6-8.79-6.69-8.79-4.42,0-6.36,3.87-6.36,8.13s1.55,8.57,6.36,8.57c4.48,0,6.69-3.81,6.69-7.9"/>
      <path id="path916" class="cls-1" d="m383.25,112.96h7.85v39.47h-7.85v-39.47Z"/>
      <path id="path918" class="cls-1" d="m405.75,119.43h-7.85v-6.47h7.85v6.47Zm-7.85,4.42h7.85v28.58h-7.85v-28.58Z"/>
      <path id="path920" class="cls-1" d="m434.99,139.33c0,5.25,4.09,7.3,8.73,7.3,3.04,0,7.68-.88,7.68-4.92,0-4.26-5.92-4.98-11.72-6.52-5.86-1.55-11.78-3.81-11.78-11.22,0-8.07,7.63-11.94,14.76-11.94,8.24,0,15.81,3.59,15.81,12.71h-8.4c-.28-4.75-3.65-5.97-7.79-5.97-2.77,0-5.97,1.16-5.97,4.48,0,3.04,1.88,3.43,11.77,5.97,2.88.72,11.72,2.54,11.72,11.5,0,7.24-5.69,12.66-16.42,12.66-8.73,0-16.92-4.31-16.81-14.04h8.4Z"/>
      <path id="path922" class="cls-1" d="m474.61,123.85h5.75v5.25h-5.75v14.15c0,2.65.66,3.32,3.32,3.32.83,0,1.6-.05,2.43-.22v6.14c-1.33.22-3.04.28-4.59.28-4.81,0-9.01-1.11-9.01-6.8v-16.86h-4.76v-5.25h4.76v-8.57h7.85v8.57Z"/>
      <path id="path924" class="cls-1" d="m511.48,152.44h-7.46v-3.98h-.17c-1.99,3.21-5.42,4.76-8.73,4.76-8.35,0-10.45-4.7-10.45-11.78v-17.58h7.85v16.14c0,4.7,1.38,7.02,5.03,7.02,4.26,0,6.08-2.38,6.08-8.18v-14.98h7.85v28.58Z"/>
      <path id="path926" class="cls-1" d="m538.12,148.79h-.11c-1.82,3.1-5.03,4.42-8.68,4.42-8.63,0-12.83-7.41-12.83-15.31s4.26-14.82,12.66-14.82c3.37,0,6.69,1.44,8.46,4.26h.11v-14.37h7.85v39.47h-7.46v-3.65Zm-6.85-19.79c-5.14,0-6.91,4.42-6.91,9.12s2.05,9.18,6.91,9.18c5.2,0,6.74-4.53,6.74-9.23s-1.66-9.07-6.74-9.07"/>
      <path id="path928" class="cls-1" d="m560.12,119.43h-7.85v-6.47h7.85v6.47Zm-7.85,4.42h7.85v28.58h-7.85v-28.58Z"/>
      <path id="path930" class="cls-1" d="m302.51,208.82h-.11c-1.82,3.1-5.03,4.42-8.68,4.42-8.62,0-12.83-7.41-12.83-15.31s4.26-14.82,12.66-14.82c3.37,0,6.69,1.44,8.46,4.26h.11v-14.37h7.85v39.47h-7.46v-3.65Zm-6.85-19.79c-5.14,0-6.91,4.42-6.91,9.12s2.05,9.18,6.91,9.18c5.2,0,6.75-4.53,6.75-9.23s-1.66-9.07-6.75-9.07"/>
      <path id="path932" class="cls-1" d="m324.5,179.47h-7.85v-6.47h7.85v6.47Zm-7.85,4.42h7.85v28.58h-7.85v-28.58Z"/>
      <path id="path934" class="cls-1" d="m345.23,173h27.75v7.3h-19.07v9.12h16.53v6.75h-16.53v16.31h-8.68v-39.47Z"/>
      <path id="path936" class="cls-1" d="m383.36,200.09c.22,4.97,2.65,7.24,7.02,7.24,3.15,0,5.69-1.94,6.19-3.71h6.91c-2.21,6.75-6.91,9.62-13.38,9.62-9.01,0-14.6-6.19-14.6-15.04s5.92-15.09,14.6-15.09c9.73,0,14.43,8.18,13.88,16.97h-20.62Zm12.77-4.98c-.72-3.98-2.43-6.08-6.25-6.08-4.97,0-6.41,3.87-6.52,6.08h12.77Z"/>
      <path id="path938" class="cls-1" d="m409.17,183.89h7.46v5.31h.11c1.44-3.59,5.31-6.08,9.12-6.08.55,0,1.22.11,1.72.28v7.3c-.72-.17-1.88-.28-2.82-.28-5.75,0-7.74,4.15-7.74,9.18v12.88h-7.85v-28.58Z"/>
      <path id="path940" class="cls-1" d="m431.78,183.89h7.46v5.31h.11c1.44-3.59,5.31-6.08,9.12-6.08.55,0,1.22.11,1.72.28v7.3c-.72-.17-1.88-.28-2.82-.28-5.75,0-7.74,4.15-7.74,9.18v12.88h-7.85v-28.58Z"/>
      <path id="path942" class="cls-1" d="m454.05,192.68c.44-7.35,7.02-9.56,13.43-9.56,5.69,0,12.55,1.27,12.55,8.13v14.87c0,2.6.28,5.2,1,6.36h-7.96c-.28-.88-.5-1.82-.55-2.76-2.49,2.6-6.14,3.54-9.62,3.54-5.42,0-9.73-2.71-9.73-8.57,0-6.47,4.86-8.02,9.73-8.68,4.81-.72,9.29-.55,9.29-3.76,0-3.37-2.32-3.87-5.08-3.87-2.99,0-4.92,1.22-5.2,4.31h-7.85Zm18.13,5.81c-1.33,1.16-4.09,1.22-6.52,1.66-2.43.5-4.64,1.33-4.64,4.2s2.27,3.65,4.81,3.65c6.14,0,6.36-4.87,6.36-6.58v-2.93Z"/>
      <path id="path944" class="cls-1" d="m486.11,183.89h7.46v5.31h.11c1.44-3.59,5.31-6.08,9.12-6.08.55,0,1.22.11,1.72.28v7.3c-.72-.17-1.88-.28-2.82-.28-5.75,0-7.74,4.15-7.74,9.18v12.88h-7.85v-28.58Z"/>
      <path id="path946" class="cls-1" d="m508.38,192.68c.44-7.35,7.02-9.56,13.43-9.56,5.69,0,12.55,1.27,12.55,8.13v14.87c0,2.6.28,5.2,1,6.36h-7.96c-.28-.88-.5-1.82-.55-2.76-2.49,2.6-6.14,3.54-9.62,3.54-5.42,0-9.73-2.71-9.73-8.57,0-6.47,4.86-8.02,9.73-8.68,4.81-.72,9.29-.55,9.29-3.76,0-3.37-2.32-3.87-5.08-3.87-2.99,0-4.92,1.22-5.2,4.31h-7.85Zm18.13,5.81c-1.33,1.16-4.09,1.22-6.52,1.66-2.43.5-4.64,1.33-4.64,4.2s2.27,3.65,4.81,3.65c6.14,0,6.36-4.87,6.36-6.58v-2.93Z"/>
      <path id="path948" class="cls-1" d="m124.06,46.05c-48.63,0-88.19,39.57-88.19,88.2s39.56,88.2,88.19,88.2,88.19-39.57,88.19-88.2-39.56-88.2-88.19-88.2m0,179.36c-50.26,0-91.15-40.89-91.15-91.16S73.8,43.09,124.06,43.09s91.15,40.9,91.15,91.16-40.89,91.16-91.15,91.16"/>
      <path id="path950" class="cls-1" d="m131.97,133.98s-.16,1.15-.63,3.11c-.47,1.96-1.21,4.76-2.41,8.01-.56,1.65-1.31,3.38-2.08,5.22-.81,1.83-1.75,3.72-2.76,5.66-1.1,1.9-2.13,3.92-3.46,5.82-.64.97-1.28,1.94-1.92,2.92l-2.15,2.81c-1.38,1.92-3.02,3.64-4.58,5.39-1.5,1.81-3.32,3.26-4.91,4.85-1.57,1.61-3.41,2.81-4.99,4.15-1.58,1.34-3.25,2.39-4.76,3.38-1.54.97-2.87,1.98-4.19,2.65-1.31.7-2.45,1.3-3.39,1.81-3.77,1.64-4.75,2-4.75,2l.26-4.78s.57-.27,2.39-1.12c.92-.43,2.03-.95,3.31-1.54,1.29-.57,2.6-1.47,4.12-2.31,1.5-.87,3.15-1.77,4.72-2.98,1.57-1.19,3.41-2.25,4.99-3.71,1.6-1.43,3.44-2.74,4.97-4.4,1.59-1.6,3.28-3.18,4.71-4.97l2.24-2.61c.68-.92,1.36-1.83,2.03-2.74,1.4-1.78,2.51-3.7,3.7-5.5,1.1-1.84,2.12-3.65,3.02-5.4.87-1.76,1.7-3.43,2.34-5.02,1.38-3.15,2.26-5.87,2.84-7.78.57-1.92.79-3.03.79-3.03l.56.09Z"/>
      <path id="path952" class="cls-1" d="m124.14,91.75c14.54,0,24.1,4.06,24.1,4.06l13.36-23.59s-3.81-.16-6.14,2.19c-.65-.61-1.5-.95-2.4-.95-1.96,0-3.55,1.59-3.55,3.56,0,1.19.58,2.27,1.54,2.93-.78.78-2.88,2.67-5.09,2.67-.45,0-.89-.08-1.3-.24-3.54-1.35-3.34-4.43-2.99-5.95,1.74-.14,3.05-1.48,3.05-3.16s-1.43-3.19-3.19-3.19-3.19,1.43-3.19,3.19c0,.9.38,1.76,1.04,2.36-1.11,1.6-3.75,3.16-6.56,3.16-.5,0-1-.05-1.47-.16-2.44-.54-3.9-3.29-4.52-4.81.19.04.39.06.6.06,2.37,0,4.3-1.93,4.3-4.3,0-3.83-3.98-4.19-4.5-4.19,0,0,.23-2.56-3.1-6.97h0c-3.33,4.41-3.1,6.97-3.1,6.97-.52,0-4.5.37-4.5,4.19,0,2.37,1.93,4.3,4.3,4.3.21,0,.41-.02.6-.06-.63,1.52-2.08,4.27-4.52,4.81-.47.1-.96.16-1.47.16-2.81,0-5.45-1.56-6.56-3.16.66-.61,1.04-1.47,1.04-2.36,0-1.76-1.43-3.19-3.19-3.19s-3.19,1.43-3.19,3.19,1.32,3.02,3.05,3.16c.35,1.52.56,4.6-2.99,5.95-.41.16-.85.24-1.3.24-2.21,0-4.32-1.88-5.09-2.67.96-.66,1.54-1.74,1.54-2.93,0-1.96-1.59-3.56-3.55-3.56-.9,0-1.75.34-2.4.95-2.33-2.35-6.14-2.19-6.14-2.19l13.36,23.59s9.56-4.06,24.1-4.06h0Z"/>
      <path id="path954" class="cls-1" d="m64.54,139.44c0,.13-.1.21-.3.23-.07,0-.69.02-1.86.06-.73.02-1.16.14-1.28.35-.12.22-.18.92-.18,2.11v8.89c0,.29.05.49.13.62.13.27.51.4,1.14.4h.8l.8.06c.34.02.5.09.5.22,0,.16-.2.25-.6.25h-10.12c-.53,0-.8-.08-.8-.25,0-.12.09-.2.28-.23.19-.03.71-.05,1.58-.05.75,0,1.22-.08,1.39-.23.18-.15.27-.55.27-1.19v-7.05c0-2.17-.05-3.35-.16-3.54-.17-.27-.89-.41-2.13-.43-.66,0-.99-.08-.99-.25,0-.18.32-.27.96-.25l.7.03,4.75-.03h4.35c.51,0,.76.09.76.26"/>
      <path id="path956" class="cls-1" d="m82.13,153.34c0,2.26-1.22,3.95-3.65,5.06-1.86.84-3.88,1.26-6.07,1.26-1.42,0-2.63-.32-3.63-.95-1.01-.64-1.51-1.4-1.51-2.28,0-1.22.71-1.82,2.12-1.82,1.19,0,1.79.54,1.79,1.6,0,.49-.28.95-.83,1.36-.33.25-.5.43-.5.56,0,.23.27.44.81.65.54.21,1.09.31,1.64.31,1.39,0,2.54-.51,3.44-1.54.9-1.03,1.34-2.35,1.34-3.98,0-2.49-.87-4.07-2.62-4.75-.38-.14-1.02-.22-1.92-.22h-.43c-.42,0-.63-.09-.63-.28,0-.15.23-.25.7-.31,1.37-.16,2.44-.64,3.19-1.41.75-.77,1.13-1.77,1.13-2.99,0-1.11-.36-2.03-1.09-2.74-.73-.71-1.66-1.07-2.79-1.07-.69,0-1.35.16-1.99.48-.64.32-.96.65-.96.98,0,.21.3.39.9.56.95.27,1.43.76,1.43,1.49,0,.41-.16.76-.48,1.04-.32.28-.73.42-1.21.42-.66,0-1.2-.18-1.61-.54-.41-.36-.61-.84-.61-1.43,0-1.13.61-2.06,1.81-2.79,1.21-.73,2.75-1.1,4.63-1.1,1.99,0,3.62.41,4.9,1.22,1.27.81,1.91,1.86,1.91,3.13s-.65,2.29-1.94,3.18c-1.29.88-2.96,1.41-5,1.57v.15h.5c1.64,0,3.11.32,4.42.96,1.9.93,2.85,2.33,2.85,4.23"/>
      <path id="path958" class="cls-1" d="m175.34,145.5c0-2.07-.34-3.63-1.03-4.68-.6-.92-1.41-1.38-2.42-1.38-.71,0-1.34.28-1.89.83-.84.84-1.26,2.29-1.26,4.34,0,4,1.08,6,3.25,6,.99,0,1.8-.47,2.42-1.41.62-.94.93-2.17.93-3.69m4.68,2.08c0,3.43-1.04,6.3-3.13,8.6-2.09,2.3-4.69,3.46-7.82,3.46-1.31,0-2.37-.26-3.18-.79-.81-.52-1.22-1.2-1.22-2.02,0-.6.2-1.08.6-1.43.4-.36.93-.54,1.59-.54,1.24,0,1.86.5,1.86,1.51,0,.45-.15.81-.43,1.08-.16.16-.52.4-1.1.71-.13.06-.2.15-.2.28,0,.45.64.68,1.93.68,1.75,0,3.15-.92,4.18-2.78,1.03-1.85,1.55-3.95,1.55-6.29-1.15,1.01-2.57,1.51-4.25,1.51-1.88,0-3.45-.58-4.7-1.74-1.25-1.16-1.87-2.6-1.87-4.3,0-1.91.77-3.49,2.31-4.74,1.54-1.24,3.48-1.87,5.83-1.87,2.48,0,4.44.77,5.87,2.32,1.44,1.54,2.16,3.66,2.16,6.35"/>
      <path id="path960" class="cls-1" d="m195.66,139.46c0,.13-.1.21-.3.23-.07,0-.69.02-1.86.06-.73.02-1.16.14-1.28.35-.12.22-.18.92-.18,2.11v8.89c0,.29.05.49.14.62.13.27.51.4,1.14.4h.8l.8.06c.33.02.5.09.5.22,0,.16-.2.25-.6.25h-10.12c-.53,0-.8-.08-.8-.25,0-.12.09-.2.28-.23.19-.03.71-.05,1.58-.05.75,0,1.22-.08,1.39-.23.18-.15.27-.55.27-1.19v-7.05c0-2.17-.05-3.35-.16-3.54-.18-.27-.89-.41-2.14-.43-.66,0-.99-.08-.99-.25,0-.18.32-.27.96-.25l.7.03,4.75-.03h4.35c.51,0,.76.09.76.26"/>
      <path id="path962" class="cls-1" d="m10,136.99l.15-9.72,2.12.04-.11,7.26,3.67.06.1-6.37,2.01.03-.1,6.37,6.23.1-.04,2.46-14.03-.22Z"/>
      <path id="path964" class="cls-1" d="m10.99,119.05l1.78-9.98,2.09.37-1.35,7.55,3.62.64,1.25-6.99,1.97.35-1.25,6.99,4.05.72,1.37-7.69,2.09.37-1.81,10.11-13.82-2.46Z"/>
      <path id="path966" class="cls-1" d="m15,100.74l2.28-6.33c1.05-2.89,2.91-3.9,5.15-3.09,2.53.92,2.54,2.92,2.54,3.4h.04c.4-.74,1.41-1.7,3.5-.94,1.53.56,3.02.84,3.74.54l-.9,2.49c-.7.15-1.42-.12-2.07-.35-2.42-.88-3.68-.77-4.45,1.37l-1.23,3.42,5.44,1.97-.84,2.32-13.2-4.79Zm6.85-.14l1.37-3.8c.53-1.47.1-2.53-1.29-3.03-1.68-.61-2.41.36-2.85,1.57l-1.36,3.77,4.13,1.5Z"/>
      <path id="path968" class="cls-1" d="m22.63,82.05l3.35-5.84c1.53-2.67,3.55-3.33,5.61-2.15,2.34,1.34,2,3.31,1.91,3.78l.04.02c.52-.68,1.69-1.44,3.62-.34,1.42.81,2.83,1.35,3.59,1.17l-1.32,2.29c-.71.02-1.38-.36-1.97-.7-2.24-1.28-3.49-1.39-4.62.58l-1.81,3.15,5.01,2.88-1.23,2.14-12.18-6.99Zm6.77,1.04l2.01-3.51c.78-1.35.53-2.47-.75-3.2-1.55-.89-2.44-.06-3.08,1.05l-1.99,3.47,3.8,2.18Z"/>
      <path id="path970" class="cls-1" d="m35.85,62.06l1.68-2.02,14.24,4.83-1.69,2.03-3.7-1.37-3.59,4.31,2.01,3.39-1.63,1.95-7.32-13.14Zm5.93,6.08l2.75-3.3-5.98-2.25-.04.04,3.27,5.5Z"/>
      <path id="path972" class="cls-1" d="m46.51,50.51l5.14-4.34c2.35-1.98,4.47-1.92,6.01-.1,1.74,2.06.75,3.79.5,4.21l.02.03c.72-.46,2.08-.78,3.51.92,1.05,1.25,2.2,2.23,2.97,2.33l-2.02,1.71c-.68-.22-1.18-.81-1.62-1.34-1.66-1.97-2.8-2.5-4.54-1.03l-2.77,2.34,3.73,4.42-1.88,1.59-9.05-10.73Zm6,3.29l3.09-2.61c1.19-1,1.34-2.14.39-3.26-1.15-1.37-2.27-.89-3.25-.06l-3.06,2.58,2.83,3.35Z"/>
      <path id="path974" class="cls-1" d="m62.34,38.35l2.08-1.31,7.49,11.88-2.08,1.31-7.5-11.88Z"/>
      <path id="path976" class="cls-1" d="m75.77,30.9l2.39-1.09,10.76,10.54-2.41,1.1-2.74-2.84-5.11,2.33.34,3.93-2.32,1.05-.91-15.03Zm2.72,8.06l3.91-1.78-4.42-4.62-.05.03.57,6.38Z"/>
      <path id="path978" class="cls-1" d="m90.36,25.16l9.8-2.62.55,2.05-7.41,1.98.95,3.55,6.86-1.83.52,1.93-6.86,1.84,1.06,3.97,7.55-2.02.55,2.05-9.93,2.66-3.62-13.56Z"/>
      <path id="path980" class="cls-1" d="m119.73,20l2.46.02-.09,8.18c-.02,1.89.07,4.07,3.27,4.11,3.19.03,3.33-2.15,3.35-4.04l.09-8.18,2.46.02-.1,8.99c-.04,3.6-2.36,5.37-5.83,5.33-3.47-.03-5.76-1.85-5.72-5.45l.1-8.99Z"/>
      <path id="path982" class="cls-1" d="m140.41,21.06l2.55.5,4.32,11.39h.04s1.98-10.15,1.98-10.15l2.3.45-2.7,13.78-2.55-.5-4.31-11.37h-.06s-1.98,10.12-1.98,10.12l-2.3-.45,2.69-13.78Z"/>
      <path id="path984" class="cls-1" d="m160.28,25.92l2.33.81-4.61,13.27-2.33-.81,4.61-13.26Z"/>
      <path id="path986" class="cls-1" d="m169.56,29.31l2.29,1.14-1.8,11.52.04.02,8.18-8.34,2.24,1.11-10.56,10.43-2.45-1.22,2.06-14.66Z"/>
      <path id="path988" class="cls-1" d="m187.05,38.85l8.21,5.93-1.24,1.72-6.21-4.49-2.15,2.99,5.75,4.15-1.17,1.63-5.75-4.15-2.4,3.34,6.32,4.57-1.24,1.73-8.32-6.01,8.21-11.4Z"/>
      <path id="path990" class="cls-1" d="m201.79,50.39l4.7,4.81c2.15,2.2,2.24,4.32.54,5.98-1.92,1.88-3.73,1.02-4.16.81l-.03.03c.51.69.93,2.02-.66,3.57-1.17,1.14-2.07,2.36-2.1,3.14l-1.85-1.89c.17-.69.72-1.23,1.22-1.71,1.84-1.8,2.28-2.98.7-4.6l-2.54-2.6-4.13,4.04-1.73-1.76,10.03-9.82Zm-2.84,6.23l2.83,2.89c1.09,1.11,2.23,1.18,3.28.15,1.28-1.25.72-2.33-.18-3.25l-2.8-2.86-3.13,3.07Z"/>
      <path id="path992" class="cls-1" d="m208.5,72.07c-1.78,1.22-1.58,3.02-.47,4.64,1.22,1.79,2.56,1.86,3.43,1.25.89-.61.92-1.34.77-1.94-.25-1.02-.76-2.22-1.41-4.12-.82-2.35-.02-3.76,1.18-4.58,2.32-1.59,4.87-.19,6.31,1.91,1.66,2.42,1.77,5.33-.65,6.99l-1.39-2.03c1.42-1.12,1.28-2.51.33-3.91-.65-.94-1.8-1.89-2.97-1.09-.81.56-.89,1.42-.55,2.4.07.21,1.17,3.24,1.4,3.96.59,1.84-.2,3.46-1.4,4.28-2.59,1.78-5.21.18-6.79-2.13-1.82-2.65-2.02-5.66.82-7.68l1.39,2.03Z"/>
      <path id="path994" class="cls-1" d="m225.24,81.44l1.11,2.2-12.54,6.33-1.11-2.2,12.54-6.33Z"/>
      <path id="path996" class="cls-1" d="m229.62,90.59l3.81,10.74-2,.71-1.49-4.22-11.24,3.98-.82-2.32,11.23-3.98-1.49-4.2,2-.71Z"/>
      <path id="path998" class="cls-1" d="m235.69,110.84l.5,2.58-12.74,8.03-.51-2.59,3.39-2.01-1.08-5.52-3.9-.58-.49-2.5,14.83,2.6Zm-8.47.78l.83,4.22,5.52-3.23v-.06s-6.35-.93-6.35-.93Z"/>
      <path id="path1000" class="cls-1" d="m228.6,128.22c-2.16.05-2.97,1.68-2.92,3.65.06,2.17,1.14,2.95,2.2,2.92,1.08-.03,1.5-.63,1.7-1.21.35-1,.57-2.28,1.05-4.23.59-2.42,2.02-3.17,3.48-3.21,2.81-.07,4.19,2.5,4.26,5.04.08,2.94-1.42,5.44-4.34,5.52l-.06-2.47c1.81-.16,2.44-1.4,2.4-3.1-.03-1.14-.48-2.57-1.89-2.54-.98.02-1.52.71-1.77,1.72-.05.22-.78,3.35-.98,4.09-.5,1.87-2.05,2.8-3.51,2.83-3.15.08-4.47-2.69-4.55-5.49-.08-3.21,1.39-5.86,4.86-6.01l.06,2.47Z"/>
      <path id="path1002" class="cls-1" d="m18.85,154.68c-1.21.2-2.35-.6-2.55-1.81-.2-1.21.61-2.36,1.81-2.56,1.21-.2,2.34.61,2.54,1.82.2,1.21-.6,2.34-1.8,2.55"/>
      <path id="path1004" class="cls-1" d="m227.46,152.12c.21-1.21,1.34-2.03,2.54-1.82,1.21.21,2.02,1.35,1.82,2.57-.21,1.21-1.35,2.01-2.56,1.81-1.21-.21-2.01-1.34-1.8-2.55"/>
      <path id="path1006" class="cls-1" d="m29.67,167.17l3.75,9.42-1.97.79-2.84-7.13-3.42,1.36,2.63,6.59-1.87.74-2.63-6.59-3.82,1.52,2.89,7.26-1.97.79-3.8-9.55,13.05-5.2Z"/>
      <path id="path1008" class="cls-1" d="m34.93,179.85l1.48,2.53-2.66,5.26,5.96.37,1.4,2.38-8.19-.6-3.75,7.98-1.51-2.59,2.85-5.74-6.43-.37-1.43-2.43,8.8.63,3.48-7.43Z"/>
      <path id="path1010" class="cls-1" d="m48.23,199.59l1.68,1.8-8.72,8.13,4.88,5.23-1.55,1.45-6.56-7.03,10.28-9.58Z"/>
      <path id="path1012" class="cls-1" d="m60.87,211.83l2.06,1.63-4.5,14.37-2.07-1.65,1.28-3.73-4.4-3.5-3.35,2.09-1.99-1.59,12.98-7.62Zm-5.95,6.08l3.37,2.68,2.11-6.04-.04-.04-5.43,3.4Z"/>
      <path id="path1014" class="cls-1" d="m70.36,218.86l5.96,3.36c2.2,1.24,3.08,3.04,1.93,5.09-.69,1.24-1.83,1.77-3.22,1.62l-.02.04c1.31,1.17,1.46,2.79.53,4.45-1.08,1.92-3.25,2.66-6.43.87l-5.63-3.17,6.88-12.25Zm-3.75,11.71l3.79,2.14c1.31.73,2.46.46,3.15-.78.67-1.2.3-2.31-1-3.05l-3.8-2.14-2.15,3.83Zm3.01-5.37l3.5,1.97c1.03.58,2.14.42,2.76-.68.7-1.23.31-2.04-.86-2.7l-3.5-1.97-1.9,3.38Z"/>
      <path id="path1016" class="cls-1" d="m94.31,237.41c-1.36,3.78-4.87,6.07-8.83,4.64-3.97-1.43-5.21-5.43-3.85-9.21,1.36-3.78,4.86-6.07,8.83-4.64,3.97,1.43,5.2,5.43,3.85,9.21m-10.36-3.73c-.91,2.54-.63,5.46,2.21,6.48,2.84,1.02,4.92-1.05,5.84-3.59.91-2.54.62-5.46-2.21-6.48-2.84-1.02-4.92,1.05-5.83,3.59"/>
      <path id="path1018" class="cls-1" d="m101.19,231.89l6.62,1.17c3.03.54,4.33,2.21,3.91,4.55-.47,2.65-2.44,3-2.91,3.08v.04c.81.27,1.92,1.1,1.53,3.29-.29,1.61-.32,3.12.11,3.78l-2.6-.46c-.26-.66-.13-1.42,0-2.1.45-2.54.13-3.75-2.1-4.15l-3.57-.63-1.01,5.69-2.43-.43,2.47-13.83Zm1.3,6.72l3.98.71c1.54.27,2.5-.33,2.76-1.79.32-1.76-.77-2.31-2.03-2.54l-3.94-.7-.77,4.32Z"/>
      <path id="path1020" class="cls-1" d="m117.35,234.28l10.14.2-.04,2.12-7.67-.15-.07,3.68,7.1.14-.04,2-7.1-.14-.08,4.11,7.81.15-.04,2.12-10.27-.2.27-14.04Z"/>
      <path id="path1022" class="cls-1" d="m141.94,232.85l9.48-2.15.47,2.07-7.08,1.61.82,3.58,6.21-1.41.45,1.96-6.21,1.41,1.39,6.07-2.4.55-3.12-13.68Z"/>
      <path id="path1024" class="cls-1" d="m156.05,229.24l6.25-2.49c2.86-1.14,4.85-.4,5.73,1.81,1,2.51-.49,3.84-.85,4.15v.04c.85-.2,2.23-.08,3.06,1.99.61,1.52,1.38,2.82,2.08,3.15l-2.45.98c-.57-.43-.86-1.14-1.11-1.78-.95-2.4-1.87-3.26-3.98-2.42l-3.37,1.34,2.14,5.37-2.29.91-5.2-13.05Zm4.66,5.03l3.76-1.5c1.45-.58,1.95-1.6,1.4-2.97-.66-1.66-1.87-1.56-3.06-1.09l-3.72,1.48,1.62,4.08Z"/>
      <path id="path1026" class="cls-1" d="m171.2,222.73l2.1-1.28,4.26,6.98c.98,1.61,2.22,3.41,4.94,1.75,2.73-1.66,1.69-3.59.71-5.2l-4.26-6.98,2.11-1.28,4.67,7.67c1.87,3.07.83,5.8-2.13,7.61-2.96,1.81-5.86,1.48-7.74-1.59l-4.67-7.67Z"/>
      <path id="path1028" class="cls-1" d="m195.7,210.48c-1.37-.94-2.93-1.14-4.48.21-2.27,1.98-1.48,4.82.29,6.85,1.77,2.03,4.47,3.2,6.74,1.22,1.65-1.44,1.48-3.46.28-5.13l1.81-1.58c2.06,2.66,1.79,5.99-.78,8.23-3.18,2.78-7.28,1.92-9.91-1.11-2.63-3.02-2.93-7.21.25-9.98,2.4-2.07,5.44-2.4,7.65-.31l-1.86,1.62Z"/>
      <path id="path1030" class="cls-1" d="m197.18,202.82l7.3-8.74,1.63,1.36-2.87,3.43,9.15,7.63-1.58,1.89-9.16-7.63-2.86,3.42-1.63-1.36Z"/>
      <path id="path1032" class="cls-1" d="m207,190.53l1.26-2.12,7.02,4.19c1.62.97,3.55,1.99,5.19-.76,1.64-2.74-.17-3.96-1.8-4.93l-7.02-4.2,1.27-2.11,7.71,4.61c3.09,1.84,3.44,4.74,1.67,7.72-1.78,2.98-4.5,4.05-7.59,2.2l-7.71-4.61Z"/>
      <path id="path1034" class="cls-1" d="m224.69,177.39c2.01.8,3.39-.38,4.12-2.21.79-2.01.11-3.16-.88-3.55-1.01-.4-1.63,0-2.04.44-.71.78-1.42,1.88-2.63,3.48-1.49,2-3.11,2.12-4.46,1.58-2.62-1.04-2.89-3.94-1.95-6.3,1.08-2.73,3.44-4.45,6.16-3.37l-.91,2.29c-1.73-.55-2.8.34-3.43,1.91-.42,1.06-.57,2.55.75,3.08.91.36,1.68-.06,2.3-.89.14-.18,2.03-2.78,2.5-3.37,1.2-1.52,2.98-1.76,4.34-1.23,2.93,1.16,3.07,4.22,2.04,6.83-1.18,2.99-3.57,4.84-6.83,3.61l.91-2.29Z"/>
      <path id="path1036" class="cls-1" d="m131.12,123.25c0,2.98.5,5.84,1.41,8.52,4.61-4.77,7.46-11.27,7.46-18.43,0-2.98-.5-5.84-1.41-8.52-4.61,4.77-7.46,11.26-7.46,18.42"/>
      <path id="path1038" class="cls-1" d="m117.61,131.24c-1.73-2.88-3.92-5.31-6.41-7.26-1.6,6.6-.71,13.81,3.06,20.1,1.73,2.88,3.92,5.31,6.41,7.26,1.6-6.6.71-13.81-3.06-20.1"/>
      <path id="path1040" class="cls-1" d="m125.89,157.63c.94.1,1.88.15,2.85.15,9.8,0,18.35-5.32,22.94-13.22-.94-.1-1.89-.15-2.85-.15-9.8,0-18.35,5.32-22.94,13.22"/>
      <path id="path1042" class="cls-1" d="m103.29,183.02c9.51,7.49,22.91,9.14,34.3,3.14-9.51-7.49-22.91-9.14-34.3-3.14"/>
      <path id="path1044" class="cls-1" d="m103.04,147.69c-1.78-3.37-4.12-6.27-6.82-8.64-2.23,7.4-1.66,15.64,2.24,23,1.78,3.37,4.12,6.27,6.82,8.64,2.23-7.4,1.66-15.64-2.24-23"/>
    </g>
  </g>
</svg>