<svg xmlns="http://www.w3.org/2000/svg" id="Livello_1" width="6.77cm" height="4.93cm" viewBox="0 0 191.87 139.79"><path d="m141.42,54.82c-.11,23.32-18.77,42.63-42.75,42.66-24.23.04-42.95-19.43-42.92-42.85.03-23.59,18.82-42.48,42.21-42.79,24.62-.32,43.54,19.53,43.46,42.97Zm-42.8,41.38c22.63.07,41.94-18.42,41.54-42.36-.38-22.37-18.81-40.61-41.4-40.74-22.88-.13-42.93,19.03-41.69,43.86,1.04,20.75,18.47,39.3,41.55,39.25Z"/><path d="m112.52,116.2c0-1.64,0-3.17,0-4.7,0-.36,0-.72,0-1.08,0-1.07,0-1.06-1.06-1.18-.18-.02-.34-.24-.51-.37.17-.14.34-.4.52-.41,1-.03,1.99.01,2.99,0,.42,0,.55.21.54.6,0,1.35,0,2.71,0,4.06,0,3.92,0,7.85,0,11.77,0,.76.04.8.81.8.52,0,1.04,0,1.55,0,.39,0,.59-.19.63-.57.02-.22.03-.44.03-.66,0-2.35,0-4.7,0-7.05,0-.79-.06-.83-.83-.9-.22-.02-.43-.23-.64-.35.21-.14.42-.39.64-.39.87-.01,1.75.06,2.63.09.39.01.44.26.44.57,0,1,0,1.99,0,2.99,0,1.83.02,3.67-.01,5.5,0,.56.17.83.74.77.08,0,.19-.03.23.01.17.15.31.32.47.49-.17.12-.33.35-.5.35-1.31.03-2.63.02-3.95.02-1.14,0-2.27.02-3.41-.02-.98-.04-1.92-.1-2.93.08-2.05.36-3.87-.87-4.87-2.9-1.54-3.15.05-6.96,3.33-8.04.79-.26,1.53-.17,2.27.12.26.1.51.21.88.37Zm0,5.3c0-.78,0-1.55,0-2.33,0-.04,0-.08,0-.12-.07-.49-.07-1-.22-1.47-.25-.78-1.05-1.27-1.91-1.26-.93,0-1.62.48-1.96,1.37-.67,1.74-.61,3.55-.42,5.36.06.58.25,1.17.47,1.72.39,1,1.3,1.39,2.46,1.15.87-.18,1.58-1.07,1.59-1.98,0-.82,0-1.63,0-2.45Z"/><path d="m159.38,116.8c-.99.41-1.08.62-.73,1.42.67,1.55.51,3-.57,4.31-1.12,1.36-2.61,1.7-4.26,1.33-.5-.11-.97-.45-1.41-.74-.36-.24-.57-.17-.77.18-.53.93-.08,1.96.96,2.18.37.08.75.09,1.13.11,1.31.09,2.64.05,3.93.27,1.99.35,3.04,1.38,3.27,2.93.31,2.07-.42,3.62-2.2,4.61-1.28.72-2.63.99-4.13.91-1.36-.07-2.59-.33-3.72-1.09-1.87-1.25-2.01-3.49-.31-4.96.14-.12.28-.23.41-.35.25-.22.23-.41-.03-.64-1.42-1.27-1.47-3.02-.07-4.37.49-.47.55-.81.25-1.41-.72-1.43-.33-3.21.86-4.4,1.26-1.26,3.05-1.64,4.56-.97.09.04.19.07.27.13.68.56,1.25.66,1.96-.07.51-.52,1.3-.45,1.96-.06.53.32.76.8.68,1.42-.07.52-.6.93-1.16.91-.52-.02-.8-.35-.82-.96,0-.21-.02-.42-.04-.7Zm-4.32,16.68c.01.06.03.12.04.18.87-.23,1.78-.37,2.61-.72,1.24-.52,1.87-1.69,1.68-2.81-.19-1.14-1.06-1.88-2.49-2-1.33-.11-2.66-.15-3.99-.17-.24,0-.53.17-.73.35-1.04.91-1.12,3.1-.18,4.15.82.92,1.89,1.1,3.05,1.03Zm1.79-13.54c-.14-.76-.21-1.54-.42-2.28-.23-.82-.65-1.04-1.59-1.02-.8.02-1.21.3-1.42,1.09-.14.51-.23,1.06-.22,1.59.02.93.06,1.87.25,2.78.17.82.69,1.1,1.48,1.11.82,0,1.24-.25,1.49-1.09.21-.7.29-1.44.43-2.18Z"/><path d="m166.78,123.97c-.81.07-1.62-.24-2.33-.8-.4-.31-.62-.2-.83.21-.49.95-.04,1.95,1.02,2.06,1.34.14,2.7.15,4.05.25,1.19.09,2.34.37,3.25,1.19,1.57,1.42,1.41,4.41-.3,5.81-1.43,1.17-3.03,1.74-4.92,1.59-1.19-.1-2.32-.22-3.39-.8-2.34-1.27-2.59-3.72-.53-5.41.56-.46.54-.49-.02-.94-.77-.61-.93-1.46-.82-2.37.1-.87.51-1.59,1.19-2.14.28-.22.32-.42.14-.76-.96-1.85-.61-3.72.92-5.09,1.39-1.24,3.4-1.36,5.03-.23.53.36.79.31,1.22-.13.84-.88,2.17-.76,2.72.18.42.73.19,1.56-.51,1.8-.63.21-1.18-.17-1.21-.83,0-.24-.06-.49-.09-.73-.19.08-.46.1-.55.24-.15.24-.29.56-.26.83.04.36.31.69.39,1.05.59,2.7-1.27,4.99-4.17,4.99Zm.34,9.51c1.14.09,2.3-.22,3.31-.97.81-.6,1.2-1.42,1.01-2.45-.19-1.07-.89-1.66-1.92-1.86-.5-.1-1.02-.14-1.54-.16-1.01-.05-2.02-.1-3.04-.09-.28,0-.62.17-.82.37-1.03,1.01-1.06,3.04-.11,4.16.8.95,1.88,1.02,3.11,1Zm-1.96-13.16c.1.5.17,1.27.4,2,.21.66.75.91,1.53.88.73-.03,1.13-.27,1.34-.97.46-1.54.52-3.1,0-4.63-.12-.36-.5-.79-.85-.9-1.19-.37-2.03.21-2.22,1.44-.09.63-.12,1.26-.2,2.17Z"/><path d="m35.76,126.6c-1.55,0-3.11.02-4.66-.02-.24,0-.64-.21-.67-.37-.07-.42.32-.47.65-.49q.84-.06.84-.92c0-1.97.03-3.94,0-5.91,0-.42-.1-.88-.28-1.26-.44-.9-1.1-1.17-2.14-.96-.75.15-1.56,1-1.56,1.76-.03,2.25,0,4.5-.02,6.75,0,.35.15.52.49.53.2,0,.42-.01.59.07.15.08.31.28.31.42,0,.12-.22.35-.35.35-1.55.03-3.11.03-4.66,0-.15,0-.29-.25-.43-.39.15-.15.28-.33.46-.44.1-.06.27,0,.41,0,.42.03.63-.17.62-.6,0-2.59,0-5.18,0-7.77,0-.43-.17-.63-.6-.61-.14,0-.31.04-.41-.02-.18-.1-.32-.27-.47-.42.16-.11.32-.32.48-.32,1.02-.03,2.03-.02,3.05,0,.13,0,.34.03.39.11.29.5.58.28.93.07,2.13-1.31,5.31.25,5.52,2.8.16,1.94.11,3.9.14,5.84.01.85.03.88.87.88.5,0,1-.02,1.49,0,.5.02.7-.18.7-.7-.02-2.59-.02-5.18,0-7.77,0-.51-.21-.68-.67-.69-.12,0-.26.03-.35-.01-.14-.07-.26-.19-.39-.29.11-.13.22-.38.34-.39.67-.06,1.35-.07,2.03-.08,1.27-.01,1.27,0,1.26,1.23,0,2.65.01,5.3,0,7.94,0,.53.17.79.71.77.02,0,.04,0,.06,0,.3.08.79-.05.73.47-.05.47-.5.37-.82.37-1.51,0-3.03,0-4.54,0Z"/><path d="m130.25,117.77c0-2.35,0-4.7,0-7.05,0-.85,0-.85-.87-.86-.28,0-.57.04-.83-.03-.15-.04-.35-.24-.35-.37,0-.12.2-.29.35-.37.11-.06.27-.02.41-.02,3.53,0,7.06,0,10.58,0,.79,0,.82.02.82.8,0,1.21,0,2.43-.01,3.64,0,.18-.15.36-.22.54-.14-.18-.33-.35-.42-.55-.08-.19-.04-.43-.08-.65-.38-2.06-1.5-2.99-3.6-2.99-.72,0-1.44.01-2.15,0-.4,0-.59.13-.59.55,0,2.05,0,4.1,0,6.15,0,.38.17.53.54.54,1.43.04,2.71-.49,2.89-2.26.02-.17.23-.32.35-.48.14.17.39.33.39.5.03,1.81.02,3.62,0,5.44,0,.14-.16.28-.25.41-.15-.1-.34-.18-.45-.32-.08-.11-.06-.31-.09-.46-.39-1.75-1.69-2.11-3.06-1.92-.13.02-.32.3-.32.47-.02,2.25-.02,4.5,0,6.75,0,.17.27.45.46.49.4.08.83.01,1.24.07.19.03.35.21.52.32-.16.16-.31.45-.47.46-2.15.03-4.3.03-6.46,0-.15,0-.3-.28-.46-.42.17-.13.33-.36.5-.36,1.59-.06,1.59-.04,1.58-1.62,0-2.13,0-4.26,0-6.39h.01Z"/><path d="m21.4,116.29c0-1.87,0-3.74,0-5.62,0-.72-.07-.79-.77-.81-.32,0-.65.04-.95-.03-.16-.04-.28-.27-.41-.41.14-.11.27-.32.41-.33,1.41-.03,2.83-.03,4.24,0,.14,0,.27.21.41.33-.14.14-.26.38-.42.41-.35.07-.72.06-1.07.02-.53-.05-.68.16-.68.68.02,3.8.06,7.61,0,11.41-.04,2.4-1.48,4.39-3.91,4.82-1.21.22-2.41.23-3.62-.03-.93-.2-1.78-.54-2.53-1.15-1.39-1.14-1.93-2.65-1.94-4.38-.01-3.49,0-6.97,0-10.46,0-.89,0-.89-.9-.89-.22,0-.46.05-.65-.02-.2-.07-.36-.27-.53-.41.17-.12.34-.25.52-.35.08-.04.2,0,.3,0,1.97,0,3.95,0,5.92,0,.29,0,.64-.04.64.42,0,.43-.34.36-.61.37-.34.01-.68.02-1.02,0-.46-.03-.67.16-.64.62,0,.14,0,.28,0,.42,0,3.45-.02,6.89,0,10.34,0,.69.1,1.4.29,2.06.6,2.12,2.19,3.07,4.38,2.71,2.11-.35,3.5-1.94,3.54-4.1.02-.94,0-1.87,0-2.81,0-.94,0-1.87,0-2.81h0Z"/><path d="m97.93,125.85c.16-.17.29-.38.48-.5.18-.11.42-.12.63-.18,0,.2.06.43-.02.6-.51,1.06-2.23,1.37-3.06.52-.35-.36-.61-.43-.99-.09-.87.79-3.27.61-4.1.02-1.02-.72-1.48-1.87-1.19-3.14.29-1.28,1.3-2.1,2.74-2.3.77-.11,1.52-.27,2.28-.42.39-.08.55-.34.53-.74-.03-.56.01-1.12-.05-1.67-.11-1.01-.99-1.59-1.92-1.32-.39.12-.57.35-.45.76.03.12.07.23.1.34.11.42.18.85-.23,1.15-.42.31-.9.44-1.41.21-.45-.2-.62-.59-.63-1.06-.03-.97.59-1.5,1.36-1.85,1.22-.55,2.48-.53,3.7.04.81.37,1.33,1.04,1.57,1.86.2.68.33,1.4.35,2.11.05,1.61.02,3.22.03,4.84,0,.26.05.53.08.79.06.01.13.03.19.04Zm-2.66-4.71c-.39.09-.69.17-1,.24-.31.07-.63.1-.94.18-.78.2-1.25.78-1.3,1.59-.02.44-.03.88,0,1.31.07,1.31,1.12,1.87,2.27,1.24.57-.31.92-.8.94-1.43.04-1.01.01-2.02.01-3.12Z"/><path d="m187.78,125.88c.17-.21.33-.43.52-.61.1-.09.31-.17.4-.13.1.05.2.29.16.39-.13.3-.26.64-.5.84-.65.54-1.97.52-2.55-.08-.46-.47-.75-.35-1.2-.03-1.26.91-3.66.56-4.59-.64-.75-.98-.84-2.06-.33-3.15.5-1.07,1.45-1.52,2.58-1.68.77-.11,1.53-.26,2.28-.42.42-.09.65-.38.59-.83-.09-.7-.14-1.42-.31-2.11-.14-.58-.64-.84-1.23-.86-.86-.04-1.17.35-.92,1.17.15.46.13.86-.27,1.18-.41.33-.85.4-1.34.19-.46-.2-.61-.56-.63-1.05-.04-.74.29-1.26.88-1.65,2.49-1.64,5.75-.16,6,2.8.16,1.92.09,3.86.13,5.78,0,.28.05.56.08.84.08.02.15.03.23.05Zm-2.63-2.96h-.01c0-.46.03-.92-.02-1.37-.01-.14-.25-.38-.35-.37-.66.12-1.34.23-1.96.47-.31.12-.63.45-.77.76-.38.84-.44,1.72-.09,2.61.29.74.76,1.03,1.53.91.91-.14,1.63-.9,1.68-1.82.02-.4,0-.79,0-1.19Z"/><path d="m143.94,126.79c-2.75.22-5.59-2.94-5.04-6.33.17-1.04.57-1.98,1.26-2.79,2.22-2.59,5.71-2.51,7.81.18,2.3,2.95,1.02,7.52-2.45,8.68-.5.17-1.05.18-1.58.26Zm2.62-5.52s.08-.02.12-.04c-.21-1.12-.3-2.28-.66-3.35-.37-1.1-.96-1.3-2.22-1.27-1.05.02-1.78.49-2.05,1.48-.22.82-.36,1.67-.41,2.51-.08,1.33-.07,2.66.4,3.94.23.63.62,1.16,1.27,1.33,1.65.44,3.07-.07,3.35-2.06.12-.84.14-1.7.2-2.55Z"/><path d="m61.22,120.95c-1.91,0-3.69,0-5.48,0-.24,0-.48,0-.72,0-.39-.02-.63.14-.59.55.1,1.03.14,2.07.34,3.07.21,1.03,1.21,1.58,2.36,1.45,1.2-.13,2.14-.68,2.91-1.6.17-.2.67-.45.72-.4.34.36-.03.62-.25.83-.54.52-1.06,1.13-1.71,1.46-1.9.95-4.4.42-5.87-1.62-1.63-2.26-1.32-5.71.72-7.6,1.29-1.19,2.79-1.63,4.47-1.06,1.67.56,2.51,1.88,2.89,3.53.09.4.12.82.21,1.4Zm-4.67-.74c.56,0,1.11,0,1.67,0,.46,0,.68-.2.6-.66-.11-.58-.23-1.17-.39-1.74-.21-.77-.7-1.22-1.54-1.24-.95-.03-1.69.32-1.99,1.12-.23.63-.33,1.3-.46,1.96-.07.36.11.56.5.56.54,0,1.07,0,1.61,0Z"/><path d="m86.76,111.72c0,1.21,0,2.24,0,3.27q0,.9.88.91c.2,0,.41-.04.59.02.16.05.28.21.42.32-.14.13-.26.35-.43.39-.28.07-.59.04-.89.03-.4-.01-.58.14-.58.56.01,2.53,0,5.06.01,7.58,0,.42.06.89.58.98.49.08.75-.28.96-.67.06-.1.06-.25.13-.33.15-.17.33-.31.5-.46.05.21.19.44.15.64-.19,1.06-.98,1.72-2.03,1.75-1.54.04-2.32-.44-2.61-1.63-.09-.38-.14-.79-.14-1.18-.01-2.17-.02-4.34,0-6.51,0-.58-.18-.78-.75-.75-.34.02-.91.15-.92-.36-.01-.54.56-.41.9-.38.62.05.88-.19.76-.78-.27-1.37.34-2.23,1.52-2.81.28-.14.52-.33.94-.61Z"/><path d="m62.76,121.28c0-1.24-.02-2.47.01-3.71.02-.58-.15-.88-.77-.81-.12.01-.27.03-.35-.03-.13-.09-.28-.25-.28-.37,0-.12.2-.32.31-.32,1.06-.02,2.16-.19,3.15.05.63.15,1.03.03,1.56-.13.77-.24,1.55-.23,2.19.37.57.53.64,1.21.48,1.93-.18.77-.85,1.11-1.68.88-.7-.2-.9-.64-.68-1.45.04-.13.12-.27.11-.4-.02-.18-.07-.4-.19-.51-.08-.06-.35.01-.47.11-.55.47-.9,1.07-.9,1.81-.01,2.13,0,4.26-.01,6.39,0,.43.15.64.59.62.16,0,.36-.04.47.04.15.11.31.3.33.47.01.1-.23.32-.37.34-.43.04-.88.01-1.31.01-1.02,0-2.03,0-3.05.01-.31,0-.57-.05-.56-.44,0-.41.29-.41.58-.4.78,0,.86-.07.86-.83,0-1.22,0-2.43,0-3.65Z"/><path d="m75.78,115.72c0,1,0,2-.01,3,0,.1-.26.3-.29.28-.15-.09-.34-.23-.37-.38-.13-.67-.4-1.25-.96-1.67-.62-.45-1.32-.48-1.98-.19-.54.24-.8.76-.69,1.33.07.37.29.8.58,1.03.41.32.96.46,1.44.69.75.36,1.54.66,2.22,1.13,1.15.78,1.32,1.97,1.07,3.24-.25,1.27-.99,2.19-2.26,2.42-.81.14-1.69.02-2.52-.12-.65-.11-1.27-.69-1.92.01-.02.02-.35-.14-.35-.22-.02-1.09-.02-2.19.02-3.28,0-.12.25-.24.38-.36.12.18.32.35.34.54.11,1.23.77,2.1,1.85,2.58,1.08.48,1.94.38,2.57-.36.65-.75.62-1.8-.19-2.35-.61-.42-1.33-.7-2.02-.99-.97-.4-1.9-.81-2.39-1.84-.56-1.17-.26-2.25.39-3.22.64-.94,1.6-1.33,2.76-1.12.08.01.16,0,.24.03.68.22,1.35.34,1.96-.29.05.03.09.07.14.1Z"/><path d="m47.96,123.29c.14-.29.26-.51.35-.74.61-1.62,1.22-3.24,1.82-4.86.29-.79.27-.78-.54-.94-.2-.04-.37-.27-.55-.42.18-.11.36-.3.55-.31.82-.03,1.63-.04,2.45,0,.2.01.38.24.57.37-.18.12-.37.36-.54.35-.73-.06-.98.34-1.21.96-1.01,2.76-2.07,5.51-3.13,8.26-.13.33-.41.59-.62.88-.19-.29-.42-.56-.57-.87-1.29-2.82-2.57-5.65-3.84-8.49-.22-.49-.47-.79-1.07-.74-.17.01-.37-.24-.55-.37.19-.12.37-.35.56-.35,1.33-.03,2.67-.03,4,0,.2,0,.39.23.58.36-.19.13-.36.34-.56.38-.36.06-.66.1-.45.57.82,1.88,1.64,3.76,2.46,5.64.04.1.14.17.28.32Z"/><path d="m177.42,120.76c0,1.39.02,2.79,0,4.18-.01.55.14.8.73.81.22,0,.6.25.63.42.05.39-.31.43-.63.43-1.29,0-2.59,0-3.88,0-.32,0-.64-.03-.61-.45.03-.41.35-.42.66-.41.74.01.81-.06.81-.81,0-2.51-.01-5.01,0-7.52,0-.52-.13-.8-.68-.78-.14,0-.3,0-.41-.07-.14-.1-.3-.25-.32-.4-.01-.09.21-.31.33-.32.97-.02,1.95-.02,2.93,0,.45.01.45.36.45.7,0,1.41,0,2.83,0,4.24Z"/><path d="m81.13,120.79c0,1.37.02,2.75,0,4.12-.01.57.14.88.76.83.12-.01.26-.01.35.05.15.1.38.3.35.38-.06.17-.25.38-.41.4-.37.06-.75.02-1.13.02-.98,0-1.95,0-2.93.01-.33,0-.66-.08-.58-.47.04-.17.38-.37.59-.38.73-.05.79-.07.79-.78,0-2.49-.01-4.97.01-7.46,0-.57-.11-.93-.77-.9-.12,0-.26,0-.35-.07-.12-.1-.28-.26-.27-.38.01-.13.2-.34.32-.34.99-.01,1.99,0,2.98.06.11,0,.27.4.28.61.02,1.43.01,2.86.01,4.3h0Z"/><path d="m96.51,114.24c-.2,0-.42.05-.61,0-1.23-.38-2.52-.67-3.5-1.59-.38-.36-.7-.81-.94-1.28-.2-.39-.16-.85.29-1.08.45-.23.9-.16,1.24.25.12.15.23.33.31.51.5,1.18,1.32,2,2.54,2.44.28.1.51.35.76.53-.03.07-.06.14-.09.22Z"/><path d="m81.5,111.98c0,.82-.76,1.59-1.56,1.57-.7-.01-1.39-.82-1.38-1.61.01-.8.72-1.55,1.44-1.54.77.01,1.49.78,1.49,1.58Z"/><path d="m177.67,111.99c-.01.82-.68,1.56-1.42,1.57-.77,0-1.41-.73-1.41-1.62,0-.81.64-1.53,1.36-1.53.77,0,1.47.75,1.46,1.58Z"/><path d="m120.47,111.99c-.01.91-.6,1.57-1.38,1.55-.79-.02-1.4-.76-1.38-1.65.02-.83.66-1.51,1.4-1.48.8.02,1.37.69,1.36,1.58Z"/><path d="m37.17,111.96c0-.89.56-1.54,1.32-1.54.78,0,1.47.74,1.46,1.58,0,.82-.69,1.55-1.44,1.55-.79,0-1.35-.66-1.34-1.59Z"/><path d="m53.52,62.87c-.56.01-1.01-.42-1.04-1.01-.03-.59.48-1.16,1.04-1.16.46,0,1.06.6,1.09,1.11.03.49-.54,1.04-1.09,1.06Z"/><path d="m143,42.9c.46,0,1.05.65,1.05,1.13,0,.52-.56,1.04-1.11,1.04-.57,0-1.02-.49-1.02-1.09,0-.55.54-1.08,1.07-1.07Z"/><path d="m124.38,91.57c-.01-.65.33-1.01.97-1.02.64,0,1.13.45,1.13,1.05,0,.52-.56,1.03-1.12,1.02-.56,0-.97-.44-.98-1.06Z"/><path d="m53.19,44.02c0-.57.43-1.02,1-1.03.61,0,1.08.46,1.08,1.09,0,.59-.42.98-1.04.98-.63,0-1.04-.41-1.04-1.04Z"/><path d="m66.28,23.43c-.57,0-1.04-.45-1.04-1,0-.57.49-1.08,1.04-1.09.54,0,1.07.52,1.06,1.07,0,.63-.42,1.02-1.07,1.02Z"/><path d="m97.59,100.26c0-.63.37-1,1-1,.54,0,1.09.53,1.09,1.05,0,.53-.54,1.04-1.1,1.03-.62,0-.99-.42-.99-1.08Z"/><path d="m57.84,76.4c-.57,0-1.02-.47-1-1.03.02-.6.47-.99,1.12-.98.55.01,1.05.51,1.03,1.03-.02.53-.56.99-1.15.98Z"/><path d="m55.25,65.35c0,.54-.49,1-1.06,1-.57,0-1.05-.49-1.04-1.08,0-.56.47-1,1.05-1.01.57,0,1.06.5,1.06,1.08Z"/><path d="m144.72,47.56c0,.56-.45.98-1.05.98-.57,0-1.07-.49-1.08-1.05,0-.54.51-.99,1.13-.98.56,0,1,.48,1,1.05Z"/><path d="m98.51,10.05c-.6-.02-.96-.47-.92-1.15.03-.57.46-.96,1.03-.93.56.03,1.09.58,1.06,1.09-.04.53-.6,1.01-1.16.98Z"/><path d="m53.07,59.28c-.56-.01-1.04-.5-1.02-1.04.02-.62.44-1.04,1.01-1.04.52,0,1.15.57,1.14,1.03,0,.48-.62,1.05-1.13,1.04Z"/><path d="m67.36,86.96c0,.56-.43.98-1.03,1-.57.02-1.07-.48-1.06-1.05.01-.54.49-1.01,1.04-1.02.53-.02,1.05.51,1.05,1.07Z"/><path d="m130.89,85.89c.55,0,.99.46.98,1.05,0,.59-.44,1.02-1.01,1.02-.51,0-1.07-.53-1.08-1.01,0-.5.57-1.05,1.11-1.06Z"/><path d="m70.78,91.54c0-.65.36-1,1-.99.53.01,1.1.56,1.09,1.06,0,.48-.62,1.02-1.15,1.01-.56,0-.94-.45-.93-1.08Z"/><path d="m139.3,74.39c.51,0,1,.49,1.01.99.01.51-.55,1.03-1.1,1.02-.58,0-1.07-.5-1.06-1.06.01-.55.51-.97,1.15-.95Z"/><path d="m105.71,100.78c-.63,0-.95-.33-.96-1.02-.01-.71.31-1.06.98-1.06.53,0,1.04.54,1.03,1.09-.01.52-.5.98-1.06.99Z"/><path d="m53.53,48.61c-.53-.02-1.03-.56-1.02-1.12,0-.55.49-.97,1.08-.95.52.02,1.06.58,1.03,1.05-.03.48-.63,1.04-1.09,1.03Z"/><path d="m142.97,64.27c.54.01,1.05.51,1.04,1.02,0,.56-.52,1.06-1.07,1.06-.56,0-1.02-.49-1.02-1.09,0-.54.48-1,1.05-.99Z"/><path d="m103.22,9.23c-.01.52-.52,1-1.06,1.01-.54,0-1.08-.54-1.05-1.09.02-.48.61-1.03,1.09-1,.51.03,1.04.58,1.02,1.07Z"/><path d="m138.55,30.87c-.01.5-.55,1-1.08,1-.52,0-1.03-.57-1.01-1.13.02-.51.51-.96,1.04-.95.59.01,1.07.5,1.06,1.07Z"/><path d="m116.08,95.83c.59,0,1.01.43,1,1.02,0,.54-.52,1.04-1.04,1.03-.45-.01-1.09-.62-1.1-1.03-.01-.49.58-1.02,1.13-1.02Z"/><path d="m56.45,38.25c-.58-.01-1.06-.5-1.05-1.07,0-.52.53-1.03,1.04-1.02.45,0,1.09.61,1.09,1.02,0,.52-.57,1.07-1.08,1.06Z"/><path d="m71.76,16.71c.47-.02,1.08.54,1.1,1,.02.5-.54,1.03-1.1,1.05-.59.02-.95-.34-.98-.95-.03-.65.35-1.08.98-1.1Z"/><path d="m144.66,61.88c-.02.57-.4.9-1.03.89-.64-.01-1.04-.39-1.02-.98.02-.59.49-1.05,1.08-1.03.57.02.99.5.97,1.12Z"/><path d="m128.26,90.36c-.59,0-1.08-.49-1.07-1.05.01-.53.53-1.03,1.05-1.01.44.01,1.07.63,1.07,1.05,0,.48-.57,1.02-1.06,1.02Z"/><path d="m102.16,99.16c.61,0,1.08.45,1.07,1.04,0,.5-.53,1-1.07,1.01-.48.01-1.06-.56-1.05-1.04,0-.54.49-1.01,1.05-1.01Z"/><path d="m140.33,33.98c-.02.52-.53.97-1.1.96-.54,0-1.05-.51-1.05-1.02,0-.5.59-1.02,1.14-1.02.47,0,1.02.6,1.01,1.08Z"/><path d="m131.86,22.44c-.01.61-.39.99-.96.99-.57,0-1.15-.52-1.13-1.02.02-.47.65-1.07,1.13-1.06.53.01.97.51.95,1.09Z"/><path d="m126.47,17.73c.01.57-.46,1.03-1.07,1.04-.57,0-.99-.39-1-.96-.02-.59.45-1.09,1.02-1.1.5,0,1.05.52,1.06,1.02Z"/><path d="m92.5,99.72c0,.49-.54,1.03-1.05,1.03-.52,0-1.05-.55-1.03-1.11.01-.54.45-.95,1.01-.97.59-.01,1.08.46,1.07,1.04Z"/><path d="m68.99,88.29c.48,0,1.01.55,1.02,1.06,0,.53-.49,1-1.04,1.01-.61,0-1.02-.4-1.03-.99,0-.56.5-1.08,1.05-1.08Z"/><path d="m84.45,12.31c-.46,0-1.05-.61-1.03-1.07.02-.5.52-.99,1.02-.99.55,0,1.11.53,1.1,1.05-.01.49-.57,1.01-1.08,1.01Z"/><path d="m137.47,77.44c.55,0,1.08.54,1.07,1.08,0,.56-.46.98-1.06.97-.59,0-1.03-.43-1.03-1,0-.52.52-1.06,1.01-1.05Z"/><path d="m141.98,39.51c.49-.01,1.1.57,1.1,1.05,0,.49-.53,1-1.06,1.02-.57.02-1.01-.42-1.02-1.01,0-.59.42-1.05.97-1.07Z"/><path d="m55.26,67.73c.54.02.98.53.95,1.09-.03.59-.48.97-1.09.94-.54-.03-.98-.48-.98-1.01,0-.55.53-1.04,1.11-1.02Z"/><path d="m95.02,99.13c.59,0,1.04.43,1.04,1,0,.58-.44,1.02-1.02,1.03-.54,0-1.08-.53-1.06-1.07.02-.48.53-.95,1.05-.95Z"/><path d="m91.54,8.56c.52.05.99.6.95,1.12-.04.52-.58.97-1.13.93-.55-.04-.98-.55-.93-1.11.05-.55.57-.99,1.11-.94Z"/><path d="m59.67,77.44c.56.02,1.03.53,1.01,1.12-.02.59-.44.98-1.05.97-.55,0-.94-.43-.93-1.02,0-.58.46-1.09.98-1.07Z"/><path d="m53.12,52.1c-.59,0-.99-.42-.98-1.04,0-.6.41-1.02.96-1,.54.01,1.13.57,1.12,1.05,0,.49-.57.99-1.1.99Z"/><path d="m56.4,71.07c.48,0,1.06.55,1.07,1.03.01.52-.5,1.04-1.03,1.04-.54,0-1.05-.48-1.06-1.01-.01-.52.5-1.05,1.02-1.06Z"/><path d="m55.27,41.59c-.58.01-1.09-.42-1.11-.94-.02-.51.53-1.11,1.04-1.12.49-.01,1,.52,1.01,1.06,0,.57-.4,1-.95,1.01Z"/><path d="m81.16,95.82c.57,0,.95.4.96.99,0,.59-.45,1.05-1,1.02-.49-.02-1.11-.58-1.11-1.01,0-.49.6-1.01,1.15-1Z"/><path d="m68.97,21.02c-.58,0-1.04-.49-1.03-1.09.01-.54.45-.98,1-.98.5,0,1.06.54,1.06,1.02,0,.51-.53,1.05-1.03,1.05Z"/><path d="m74.74,14.74c.53,0,1.01.49,1.01,1.03,0,.61-.39.97-1.02.96-.62,0-1.03-.4-1.03-.99,0-.55.48-1.01,1.03-1.01Z"/><path d="m119.32,15.05c-.56,0-1.05-.51-1.05-1.08,0-.53.45-.95,1.01-.97.57-.01,1.05.47,1.04,1.07,0,.52-.47.98-1.01.98Z"/><path d="m57.92,32.94c.53-.01,1.06.48,1.08.99.02.53-.49,1.01-1.1,1.03-.53.02-.98-.43-.99-.98,0-.58.42-1.02,1-1.03Z"/><path d="m119.3,94.28c.51,0,1,.5,1.02,1.05.02.54-.45,1-1.03,1.01-.54.01-1.02-.47-1.03-1.02,0-.5.52-1.03,1.03-1.04Z"/><path d="m144.07,57.22c.5,0,1.05.52,1.06,1.02,0,.5-.53,1.02-1.04,1.02-.56,0-1.03-.46-1.04-1.01,0-.55.45-1.01,1.02-1.02Z"/><path d="m61.65,28.82c-.57,0-1.02-.44-1.01-.96.02-.53.55-1.08,1.03-1.07.42,0,1.12.7,1.13,1.1,0,.44-.6.93-1.15.93Z"/><path d="m110.27,99.02c.01.56-.43,1.04-.98,1.07-.54.03-1.05-.48-1.06-1.06,0-.51.46-.98.99-.99.57-.01,1.04.42,1.06.98Z"/><path d="m109.25,11.36c-.49.01-1.01-.51-1.03-1.05-.02-.56.41-1,1-1.03.55-.02,1.02.44,1.04,1.01.01.53-.48,1.05-1.01,1.06Z"/><path d="m128.24,18.95c.46.01,1.08.63,1.06,1.05-.03.46-.64,1.03-1.08,1.02-.53-.02-1.02-.53-1.02-1.05,0-.53.52-1.03,1.05-1.02Z"/><path d="m95.03,10.17c-.52,0-1.1-.56-1.09-1.06.01-.41.62-.99,1.04-1,.53,0,1.06.55,1.05,1.09-.01.55-.45.97-1,.96Z"/><path d="m145.25,54.7c0,.57-.41.99-.97,1-.54,0-1.08-.49-1.08-1,0-.55.49-1.02,1.05-1.01.64,0,1,.37,1,1.01Z"/><path d="m104.75,9.6c0-.62.39-1.02.98-1.03.5,0,.99.52.99,1.06,0,.56-.45,1-1.03,1.01-.61,0-.95-.37-.95-1.03Z"/><path d="m87.95,9.28c.55,0,1.02.5,1.01,1.05-.02.54-.53,1.04-1.06,1.02-.53-.02-.97-.53-.95-1.11.02-.56.44-.97,1.01-.96Z"/><path d="m122.41,94.57c-.58,0-.99-.43-.99-1.03,0-.59.41-.97,1.04-.96.58,0,1.02.46,1.01,1.01-.02.56-.47.98-1.05.97Z"/><path d="m78.91,95.35c-.01.53-.53,1.01-1.07.99-.51-.02-.95-.5-.95-1.04,0-.55.5-1.05,1.03-1.03.51.02,1.01.56.99,1.08Z"/><path d="m141.78,72.1c.01.5-.51,1.03-1.03,1.03-.6,0-.99-.38-1.01-1.01-.02-.54.46-1.05.99-1.06.5,0,1.03.52,1.05,1.03Z"/><path d="m59.69,31.89c-.57-.02-1.02-.53-.99-1.13.03-.56.46-.95,1.03-.93.58.02.99.48.96,1.07-.03.54-.5,1.01-1,.99Z"/><path d="m77.86,12.99c.54,0,1.01.46,1.03,1.02.02.54-.45,1.04-1,1.05-.55.01-1-.44-1.01-1.02-.01-.58.42-1.05.98-1.05Z"/><path d="m87.92,100.06c-.53,0-1-.49-.99-1.06,0-.53.46-1,.98-1.01.53,0,1.04.5,1.04,1.03,0,.54-.5,1.04-1.03,1.04Z"/><path d="m134.32,25.06c0,.47-.51.97-1.03.99-.51.02-1.12-.57-1.1-1.07.02-.41.65-.97,1.08-.97.51,0,1.04.54,1.04,1.05Z"/><path d="m61.62,82.47c-.5-.01-.98-.52-.98-1.03,0-.53.47-.96,1.02-.95.52,0,1.15.59,1.13,1.04-.02.42-.68.95-1.17.94Z"/><path d="m112.67,12.32c-.47-.01-1.08-.62-1.05-1.05.03-.46.66-1.02,1.11-1,.51.03.99.53.99,1.03,0,.53-.52,1.03-1.05,1.02Z"/><path d="m82.09,12.52c0,.62-.35.98-.96.98-.56,0-1.15-.53-1.13-1.03.02-.48.59-.95,1.14-.94.61.01.95.36.95.99Z"/><path d="m141.94,69.7c-.55,0-1-.44-.99-.96,0-.53.51-1.03,1.05-1.02.5.01,1.06.57,1.05,1.05,0,.53-.49.94-1.1.94Z"/><path d="m134.31,84.29c.02.52-.49,1.02-1.04,1.03-.46,0-1.07-.59-1.07-1.04,0-.39.61-.97,1.05-1,.51-.03,1.04.48,1.06,1.01Z"/><path d="m84.46,97.03c.51-.01,1.05.5,1.07,1.01.01.53-.41.95-.99.97-.55.03-1.07-.42-1.1-.94-.03-.51.48-1.02,1.02-1.04Z"/><path d="m117.02,12.5c.01.62-.32,1-.92,1.01-.56.01-1.14-.48-1.16-.99-.01-.45.56-.96,1.11-.98.6-.02.96.34.97.95Z"/><path d="m122.45,16.75c-.57,0-1.02-.4-1.03-.93,0-.58.43-1.03,1-1.05.54-.01,1.04.48,1.03,1.02-.01.55-.44.95-1.01.96Z"/><path d="m134.54,27.86c0-.53.48-1.09.97-1.1.47-.01,1.02.6,1.02,1.13,0,.57-.39.92-1.01.92-.61,0-.97-.35-.98-.95Z"/><path d="m112.71,97.05c.52.01,1.03.54,1.02,1.06,0,.51-.52.98-1.04.95-.49-.02-1.09-.61-1.06-1.05.02-.42.64-.98,1.08-.97Z"/><path d="m75.78,93.58c0,.53-.5.99-1.06.98-.54,0-.99-.5-.98-1.06.02-.57.4-.93,1.01-.92.57,0,1.04.45,1.03,1Z"/><path d="m144.11,52.08c-.57-.01-1.03-.48-1.01-1.04.01-.53.48-.97,1.02-.97.52,0,1.03.52,1.01,1.05-.02.52-.49.97-1.02.96Z"/><path d="m64.86,25.04c0,.57-.39.99-.95,1.01-.54.02-1.03-.47-1.04-1.01,0-.47.5-.99.99-1.01.57-.03.99.4,1,1.02Z"/><path d="m52.89,53.7c.58-.01,1.08.44,1.07.97,0,.48-.52.99-1.01,1-.49.01-1.06-.52-1.09-1.01-.03-.45.51-.95,1.03-.96Z"/><path d="m141.78,37.23c0,.5-.54,1.02-1.05,1-.55-.01-.97-.49-.96-1.07.01-.51.49-.98,1-.98.48,0,1.02.56,1.02,1.05Z"/><path d="m135.49,80.48c.56-.01,1.03.44,1.04,1,0,.52-.45.97-.99.99-.57.01-1.01-.43-1.02-1.01,0-.58.37-.96.96-.97Z"/><path d="m64.86,84.34c0,.56-.42.98-.97.98-.51,0-1.03-.53-1.03-1.04,0-.47.53-.98,1.02-.98.57,0,.98.42.98,1.04Z"/><path d="m96.14,77.34c-1.16,0-2.31.01-3.47,0-.78-.01-.87-.12-.82-.87.04-.57-.18-.86-.73-1.05-2.23-.74-4.44-1.53-6.67-2.3-.43-.15-.65-.43-.63-.89.01-.46.05-.92-.01-1.37-.03-.23-.22-.54-.41-.62-2.25-.96-4.52-1.89-6.78-2.83-.69-.29-1.53-.37-1.78-1.3-.03-.12-.4-.22-.62-.22-1.51,0-3.03.04-4.54.06-.54,0-1.07-.05-1.61-.06-.4,0-.52-.21-.51-.57.05-1.19.1-2.39.15-3.58.03-.77.04-1.55.09-2.32.04-.57.01-1.15.78-1.37.19-.05.39-.56.36-.84-.31-3.69.01-7.33,1.08-10.87,1.66-5.51,4.62-10.2,8.96-14,3.63-3.18,7.8-5.36,12.48-6.54,3.09-.78,6.23-1.01,9.43-.77,2.83.22,5.56.79,8.19,1.83,3.06,1.2,5.93,2.76,8.46,4.88,2.94,2.47,5.36,5.37,7.2,8.77,1.61,2.98,2.67,6.13,3.21,9.45.26,1.57.33,3.16.43,4.75.04.61-.04,1.24-.15,1.84-.11.58-.09,1.11.24,1.6,1.1,1.64,1.23,3.54,1.47,5.41.12.93.25,1.85.35,2.78.08.81,0,.87-.78,1.01-.37.07-.72.22-1.07.36-.12.05-.29.18-.29.28.03.87-.66.68-1.13.76-.88.15-1.77.27-2.65.39-.44.06-.68.24-.56.75.07.3.02.63.03.95.07,2.05.13,4.1.22,6.14.05,1.1-.24,1.35-1.35,1.3-1.27-.06-2.54,0-3.81,0-1.07,0-2.15,0-3.22,0-.69,0-1.39-.02-2.08.01-.74.03-1.04-.24-.99-.98.07-1.1-.08-1.27-1.16-1.26-.48,0-.96.04-1.43.11-.48.06-.68.36-.59.85.11.58-.05.81-.65.84-1.23.05-2.47.06-3.7.13-.59.03-.85-.23-.89-.78-.02-.22-.03-.44-.03-.66,0-.43-.13-.73-.64-.75-.49-.02-.7-.32-.72-.78-.03-.68-.04-1.35-.07-2.03-.01-.3-.02-.6-.08-.89-.05-.31,0-.72-.53-.69-.51.04-.86.25-.87.78-.02.7.01,1.39.03,2.09,0,.28.1.56.06.83-.03.18-.2.45-.34.47-.57.09-.76.39-.74.94.02.83-.03.86-.88.86-1.08,0-2.15,0-3.23,0h0Zm-11.68-25.13c.05.15.07.32.15.44.09.13.26.33.35.31.15-.04.37-.23.37-.35,0-.25-.13-.49-.2-.74-.22.12-.45.23-.67.35-.15-.08-.31-.22-.46-.21-.22.02-.6.14-.61.23,0,.24.15.48.24.73.23-.14.47-.27.68-.44.08-.06.11-.21.16-.31Zm42.22,10.4c.08-.19.18-.38.22-.58.03-.12-.03-.37-.06-.38-.24-.02-.49,0-.74.02.05.21.06.44.16.62.08.14.28.21.42.32.35.19.71.38,1.09.59-.52.64.4.69.53,1.12-.13.16-.26.31-.43.52.54.34.87,0,1.18-.15-.26-.44-.52-.83-.73-1.24-.53-1.01-.82-1.16-1.63-.84Zm-54.5-7.1s.08.3.2.34c.42.13.86.2,1.29.22.04,0,.15-.5.14-.77,0-.39.19-.59.53-.57.33.02.68.09.96.25.43.24.57.18.56-.31-.03-1.65-.04-3.31-.04-4.96,0-.27.1-.53.17-.8.21-.75.43-1.5.67-2.25.06-.18.18-.35.27-.52.16.13.38.23.46.39.29.61.56,1.23.78,1.86.19.53.35,1.08.44,1.63.1.63.09,1.27.15,1.9.06.6.33.72.84.38.26-.18.48-.42.76-.58.23-.13.5-.24.76-.25.79-.03.78-.01.82-.84,0-.19.08-.48.22-.55.64-.34,1.25.04,1.22.75-.02.39,0,.66.51.65.46,0,.72-.14.7-.65-.03-.8-.07-1.6-.02-2.39.03-.39.14-.88.4-1.13.54-.51.95-1,.78-1.8-.02-.1.1-.31.17-.32.14-.02.33.03.42.13.11.12.18.33.17.49-.04.49.24.79.53,1.14.29.34.57.81.6,1.24.06.77-.06,1.55-.14,2.32-.06.55.16.9.69.89.89-.02,1.78-.14,2.66-.23.09,0,.16-.12.25-.16.43-.17.85-.42,1.29-.46.79-.08,1.59-.03,2.39-.02.38,0,.54-.15.53-.53-.01-.76-.05-1.52,0-2.27.06-.74-.42-1.57.32-2.22.01-.01.02-.04.01-.06-.14-1.05.5-2.23-.61-3.1.92-.26.96-.26.88-1.23-.05-.55-.25-1.08-.38-1.62.16-.14.54-.29.57-.51.19-1.08.79-2.09.48-3.27-.13-.5,0-1.07.05-1.61.01-.16.17-.3.26-.45.06,0,.12.02.19.03.07.3.17.59.19.89.03.62-.12,1.29.06,1.85.33,1.03.85,1.99,1.27,2.99.07.17.09.38.07.57-.05.46-.12.92-.2,1.38-.1.6.31.82.78.98-.55.61-.57.71-.5,1.38.05.43.07.87.07,1.31,0,.39.07.68.48.87.13.06.21.37.21.56-.03.88-.11,1.77-.14,2.65,0,.12.14.28.26.34.05.03.28-.11.31-.21.12-.43.27-.87.27-1.31,0-.57.15-.73.7-.56.58.17,1.02-.01,1.19-.61.11-.39.19-.84.1-1.23-.13-.6.11-.9.59-1.14.2-.1.39-.19.58-.3.4-.23.63-.52.44-1.03-.07-.19-.11-.48-.02-.63.11-.18.38-.27.57-.4.11.2.25.38.31.59.04.15-.01.33-.03.6.32-.08.53-.16.76-.2.31-.05.63-.13.92-.07.76.16,1.51.35,2.25.59.42.13.62,0,.67-.39.07-.55.11-1.11.16-1.74.6.19,1.02-.07,1.26-.72.1-.27.28-.21.5,0,.31.31.66.66,1.06.78.43.14.61.3.58.73-.04.61.19,1.13.67,1.45.26.18.68.22.99.17.14-.03.24-.46.28-.72.04-.31-.06-.64,0-.95.08-.44.16-.93.41-1.27.27-.36.37-.66.32-1.08-.03-.26.04-.52.06-.79.24.11.48.21.71.35.09.05.14.17.25.31-.74.36-.39.75-.1,1.19.21.33.44.75.41,1.11-.1,1.13-.03,2.18.65,3.13.23.32.41.69.59,1.04.28.55.52,1.12.81,1.67.23.44.66.61,1.12.46.42-.14.51-.52.41-.94-.12-.52.19-.85.47-1.22.2-.26.28-.61.4-.92.07-.17.06-.41.18-.49.1-.08.39-.05.49.04.11.1.12.33.16.51.06.27.09.55.15.82.06.31.15.62.2.93.07.35-.01.86.2,1.04.91.8,1.46,1.83,2.01,2.87.77,1.46,1.54,2.92,2.31,4.38.09.18.23.33.35.49.17-.23.21-.41.22-.6.06-2.56-.22-5.09-.83-7.58-1.11-4.51-3.26-8.5-6.31-11.99-4.38-5-9.83-8.15-16.36-9.43-4.03-.79-8.05-.69-12.03.26-4.34,1.03-8.3,2.91-11.74,5.79-2.37,1.98-4.43,4.24-6.07,6.87-2.24,3.59-3.73,7.46-4.26,11.69-.24,1.96-.34,3.92-.14,5.89.05.47.27.57.62.29.57-.45,1.11-.92,1.8-1.51Zm3.19,6.32c0,1.31-.03,2.63.02,3.94.01.3.21.72.46.86.55.3,1.18.47,1.78.67.38.13.58-.03.59-.42,0-.82.19-1.7-.07-2.43-.25-.71-.06-1.07.29-1.6.32-.48.7-.73,1.23-.83.88-.18,1.34.37,1.81.98.26.34.51.58.12,1.01-.15.16-.09.53-.1.8,0,.28.06.55.06.83-.02.89-.09,1.79-.07,2.68,0,.25.19.59.4.72.46.27.98.43,1.48.61.29.11.47,0,.47-.33.01-.57.05-1.15.04-1.72-.02-1.02.11-1.93,1.16-2.47.6-.31,1.15-.72,1.67-1.15.25-.21.49-.58.49-.88,0-1.79-.09-3.58-.13-5.37-.01-.51-.24-.74-.73-.71-.52.03-1.03.11-1.55.12-2.89.05-5.77.1-8.66.12-.56,0-.79.19-.77.76.03,1.27,0,2.55,0,3.82Zm13.56,8.58c-.2.31-.46.55-.48.8-.06.69-.02,1.39,0,2.09,0,.48.24.86.7,1.01.75.25,1.52.45,2.29.66.35.1.53-.07.52-.44-.01-1.09,0-2.19-.05-3.28-.04-.74.04-.88.8-.89.76-.02,1.51,0,2.27-.01.4,0,.71-.13.71-.61,0-1.03,0-2.07-.01-3.1,0-.35-.18-.61-.59-.6-1.25.03-2.5.05-3.75.08-1.25.03-2.5.07-3.75.09-.82.01-1.63,0-2.45,0-.41,0-.77.1-.78.61-.04,1.75-.09,3.5-.13,5.25-.01.44.17.72.62.81.21.04.43.09.64.15.4.1.62-.04.63-.46,0-.5.02-1,0-1.49-.02-.46.07-1.06.2-1.42.19-.52.59-.69,1.07-.69.49,0,.94.13,1.14.69.1.29.3.55.41.76Zm27.87-2.43c.07-.01.14-.02.2-.03.03-.21.07-.41.07-.62,0-.46,0-.92,0-1.37-.01-.54.18-.92.72-1.1.24-.08.47-.22.7-.34.76-.38,1.53-.63,2.41-.41.58.14,1.18.17,1.77.26.42.07.66-.07.63-.53-.01-.18,0-.36-.01-.54-.06-1.45-.18-2.9-.16-4.34,0-.65-.19-.76-.76-.76-3.17.02-6.33.01-9.5.02-.16,0-.36-.04-.47.05-.2.16-.46.38-.5.61-.06.33.05.7.5.74.23.02.47,0,.71,0,.82-.06,1.25.42,1.21,1.22-.04.79-.02,1.59.04,2.38.03.34.19.68.35.99.24.48.52.94.78,1.41.44.79.88,1.58,1.32,2.38Zm-.4,2.26c-.46,0-.81,0-1.17,0-1.71-.02-3.42-.04-5.13-.08-.57-.01-.79.21-.76.78.06,1.27.09,2.54.12,3.82.02.75.12.85.87.87.74.02,1.47.04,2.21.08.39.02.56.24.54.63-.02.34-.03.68,0,1.01.02.14.17.26.26.39.13-.12.3-.22.39-.36.09-.15.06-.35.14-.51.08-.18.2-.36.35-.47.1-.08.31-.09.43-.04.1.04.23.25.2.31-.06.12-.23.18-.34.27-.16.13-.32.26-.48.39.21.11.4.27.62.31.38.08.58-.07.69-.51.08-.32.43-.74.73-.79.46-.09.68.38.8.8.04.15.07.31.1.46.06,0,.12,0,.18,0,.03-.16.09-.31.09-.47-.01-2.03-.03-4.05-.06-6.08,0-.26-.14-.52-.22-.78-.07.02-.15.03-.22.05.02.17.05.34.07.51.03.19.13.43.06.57-.13.23-.34.48-.58.56-.22.07-.62.02-.74-.14-.12-.16-.1-.56.02-.76.16-.28.47-.48.83-.82Zm-10.82-16.25s0,.01,0,.02c-.44,0-.88.01-1.31,0-.43-.02-.61.13-.57.59.05.59.03,1.19.02,1.79-.02,1.05-.06,2.11-.08,3.16,0,.26.08.69.39.38.6-.6,1.38-1.13,1.36-2.14-.02-1.2.29-1.46,1.48-1.4,1.04.05,2.12.19,2.67-1.08.2-.46.5-.14.65.13.32.59.63,1.2.91,1.81.19.42.49.53.87.39.47-.17.92-.38,1.36-.6,1.64-.8,3.22-1.74,5.03-2.17.18-.04.36-.37.4-.6.07-.34-.18-.49-.52-.48-.26,0-.52-.02-.78-.01-3.96.07-7.92.15-11.88.22Zm-9.47,16.75s0,0,0,.01c-1.02,0-2.03,0-3.05,0-.4,0-.57.16-.58.57-.03,1.61-.08,3.22-.12,4.83-.01.44.06.77.64.79.55.02.83-.17.85-.72,0-.18.02-.36.02-.54,0-.49.25-.77.72-.75.45.01.73.29.75.76.01.24.02.48.01.72,0,.33.1.53.47.53.36,0,.57-.12.56-.52,0-.22-.04-.46.04-.65.09-.19.28-.43.46-.45.17-.03.46.14.56.31.13.2.08.51.19.73.11.24.31.62.47.62.56-.01,1.2.33,1.68-.24.05-.07.06-.19.06-.29-.03-1.67-.06-3.34-.1-5.01-.01-.51-.3-.72-.82-.7-.93.03-1.87,0-2.81,0Zm.89-16.68c-.97-.03-1.15.06-1.2.86-.05.93.03,1.86.03,2.79.01,1.75,0,3.5.02,5.24,0,.26.14.51.22.77.23-.09.46-.17.69-.27.13-.06.25-.13.37-.2.36-.2.49-.47.48-.92-.05-1.61-.04-3.22-.04-4.82,0-.55.22-.98.81-1.1.58-.12.9.27,1.13.7.13.23.15.53.16.8.02.97,0,1.95,0,2.92,0,.21.04.41.07.69.52-.27.94-.55,1.39-.72.44-.17.56-.44.54-.86-.06-1.35-.1-2.7-.15-4.05,0-.11-.06-.21-.1-.32-.1.02-.15.04-.21.05-.24.03-.63.15-.69.06-.14-.21-.16-.53-.16-.81,0-.24.1-.48.16-.79h-1.52c-.02.25-.03.45-.06.66-.02.14-.09.27-.14.41.16,0,.32-.02.49-.03.01.43-.15.71-.61.69-.51-.03-.46-.37-.39-.74.06-.32.07-.65.1-1-.16,0-.3-.01-.43,0-.71.09-.81.25-.57.91.05.15.12.34.06.45-.1.19-.29.45-.45.46-.2,0-.51-.16-.61-.34-.23-.42.09-1.21.62-1.47Zm-12.82,1.31c.09,0,.17,0,.26,0,.05.25.03.55.17.75.14.21.4.39.65.45.34.08.5-.15.5-.49,0-.14-.02-.29.02-.41.04-.11.15-.2.23-.3.08.09.2.18.24.29.04.15.02.32.02.47,0,.42.27.52.6.44.22-.06.47-.18.6-.35.53-.72,1.04-1.46,1.52-2.21.24-.38.06-.6-.38-.61-.63,0-1.27,0-1.9,0-1.65,0-3.3-.01-4.96,0-.37,0-.79.02-1.09.2-1.23.73-2.43,1.51-3.62,2.29-.25.17-.46.41-.69.62l.04.22c.38,0,.76-.01,1.13,0,.4.01.59-.13.57-.56,0-.19.07-.39.11-.58l.19-.02c.07.18.18.36.2.54.03.36.09.63.54.61.47-.02.35-.38.4-.65.05-.23.16-.45.24-.67.07.02.14.03.21.05.02.17.04.33.06.5.03.31-.13.73.41.76.5.03.58-.3.62-.69.02-.17.14-.34.21-.51.06.01.11.02.17.04.04.19.04.39.13.55.12.21.31.38.46.57.14-.19.32-.36.41-.57.1-.22.11-.48.16-.72.07,0,.15,0,.22,0,.05.2.13.39.16.59.04.3.03.69.45.59.23-.06.42-.38.57-.61.1-.16.1-.38.14-.57Zm34.57-4.3h-.03c0-.54-.05-1.08.01-1.61.07-.62-.24-.78-.76-.78-.71,0-1.43,0-2.14,0-1.53,0-3.06,0-4.59,0-.4,0-.56.16-.5.6.16,1.22.27,2.45.44,3.67.02.18.26.32.39.48.13-.17.32-.32.37-.5.09-.36.02-.78.16-1.11.1-.24.43-.49.68-.53.15-.02.43.36.51.6.12.37.09.79.15,1.18.02.11.17.29.23.28.13-.03.3-.14.33-.25.06-.2.02-.43.06-.65.06-.34.08-.72.24-1.01.29-.51.69-.48.9.07.16.42.15.89.26,1.33.05.19.21.47.34.48.3.03.58-.1.55-.52-.02-.29-.02-.62.09-.88.12-.3.37-.55.56-.83.2.29.45.56.58.87.1.26.04.59.09.88.06.42.36.54.74.51.43-.03.36-.35.36-.61,0-.56,0-1.11,0-1.67Zm-10.63,12.84c0,.11-.01.15,0,.18.03.07.05.15.1.21.78,1.06,1.17,2.23,1.08,3.55,0,.12.03.24.03.36,0,.41.22.56.6.56,1.65,0,3.3,0,4.95.01.47,0,.55-.17.32-.59-.69-1.27-1.37-2.55-2.02-3.84-.18-.36-.42-.55-.83-.55-1.29,0-2.58,0-3.87,0-.11,0-.22.06-.36.1Zm-6.49,6.48s0-.01,0-.02c.5,0,1-.02,1.49,0,.57.03.84-.16.81-.78-.05-1.01-.01-2.01-.04-3.02,0-.13-.18-.26-.27-.39-.12.11-.32.22-.34.35-.02.17.11.36.14.55.02.16.06.38-.02.47-.09.1-.33.16-.47.12-.5-.14-.44-.44-.22-.83.1-.17.04-.43.05-.65-.25,0-.52-.07-.73.02-.11.05-.15.36-.15.56,0,.17.15.35.13.51-.02.16-.15.42-.26.44-.18.02-.49-.07-.54-.2-.08-.2.02-.47.02-.72,0-.18.02-.39-.06-.54-.05-.08-.32-.13-.42-.07-.15.09-.32.27-.34.43-.02.2.16.42.13.62-.03.18-.21.34-.33.51-.13-.14-.31-.25-.38-.41-.06-.13.02-.31.03-.47.03-.66-.09-.78-.73-.77-.44,0-.87,0-1.31,0-.57,0-.7.15-.6.72.03.14.11.27.1.4-.01.14-.07.33-.18.4-.1.07-.34.07-.43,0-.12-.1-.18-.3-.2-.46-.01-.09.15-.2.16-.3,0-.14-.01-.34-.11-.42-.1-.08-.31-.09-.44-.04-.07.03-.12.23-.11.35.04.95.11,1.91.15,2.86.02.42.12.8.6.8.45,0,.55-.37.6-.75.07-.51.13-1.03.24-1.53.1-.48.52-.41.87-.42.34,0,.66.05.7.47.05.49.11.99.12,1.48,0,.54.27.75.78.74.52,0,1.04,0,1.55,0Zm1.19-19.68c1.1-.7,2.08-1.29,3.03-1.93.73-.49,1.46-.88,2.38-.6.35.11.58-.03.59-.44.03-.85.08-1.71.09-2.56,0-.56-.18-.67-.73-.6-1.12.14-2.25.26-3.38.35-.8.06-.81.07-.68.84.05.27-.02.57-.05.85,0,.02-.25.04-.26.04-.06-.27-.12-.54-.14-.81-.02-.3.1-.72-.36-.73-.4,0-.69.2-.68.71.03,1.35.02,2.7.04,4.05,0,.23.08.45.14.83Zm-27.91,12.51s-.02,0-.03,0c0-.54.03-1.08-.02-1.61-.02-.16-.24-.44-.38-.44-1.9-.03-3.81-.02-5.71-.03-.33,0-.54.08-.55.45-.04,1.09-.09,2.18-.1,3.27,0,.19.17.47.34.54,1.11.45,1.51.17,1.5-1.01,0-.2.04-.41-.02-.59-.23-.75.29-1.09.78-1.44.35-.25.76-.2,1.03.12.27.32.84.5.52,1.16-.17.34-.09.82-.08,1.23.02.4.25.59.67.58.46-.02.92-.03,1.37,0,.54.03.69-.25.68-.73-.02-.5,0-.99,0-1.49Zm32.04,14.27c.09-.02.18-.03.27-.05.03-.32,0-.66.11-.96.11-.29.3-.61.55-.77.1-.06.52.22.68.43.13.17.08.48.15.71.04.14.16.26.25.39.08-.14.23-.27.23-.41-.06-1.76-.14-3.53-.25-5.29-.01-.17-.3-.43-.48-.45-1.05-.11-2.1-.19-3.15-.23-.81-.03-.95.09-.94.92.01,1.41.08,2.82.13,4.23.01.32,0,.65.11.94.07.2.32.33.48.49.07-.17.17-.34.21-.53.05-.19,0-.42.07-.58.09-.19.27-.43.44-.46.18-.02.45.13.58.29.14.17.15.45.24.66.09.22.21.43.32.64Zm13.53-8.27h0c-.76,0-1.51.02-2.27-.02-.55-.03-.74.18-.72.73.04,1.09.02,2.18.04,3.27,0,.39.25.52.61.45.35-.07.7-.17,1.05-.23.43-.07.67-.25.67-.74,0-.55.2-1.09.8-1.18.57-.08.73.47.88.89.14.4.29.66.81.54.96-.21,1.11-.31,1.11-.95,0-.74-.03-1.47-.02-2.21,0-.41-.16-.58-.56-.57-.8.01-1.59,0-2.39,0Zm-12.7-17.12c0-.26-.01-.52,0-.77.03-.48.16-.86.77-.83.59.02.79.21.82.85.03.56.05,1.11.11,1.67.05.5.44.5.81.48.43-.02.43-.3.4-.64-.12-1.09-.21-2.18-.32-3.26-.08-.88-.13-.93-1-.94-.42,0-.84-.02-1.25,0-.47.03-1.01-.03-1.4.18-1.13.62-2.21,1.33-3.3,2.04-.12.08-.17.36-.14.53.07.52.25,1.03.28,1.55.02.34.05.56.43.53.36-.03.87.18.88-.48,0-.48,0-.96,0-1.43,0-.62.33-1.02.83-1.04.45-.02.85.36.92.92.06.49.07.99.09,1.49.01.36.13.56.53.55.38,0,.54-.19.54-.56,0-.28,0-.56,0-.84Zm-17.98,4.76s0,.01,0,.02c-.42,0-.83,0-1.25,0-.96.02-1.08.13-1.07,1.07.02,1.45.07,2.9.11,4.35.02.69.08.72.73.43.21-.09.45-.14.69-.16.48-.02.95-.02,1.43,0,.44.02.61-.16.59-.6-.03-.5,0-.99-.02-1.49-.03-.63.12-1.19.46-1.74.25-.39.29-.92.38-1.4.06-.35-.16-.5-.5-.49-.52,0-1.03,0-1.55,0Zm36.77-.8s.09-.05.14-.08c-.01-.09,0-.2-.04-.28-.64-1.23-1.27-2.48-1.96-3.69-.13-.23-.48-.48-.73-.48-1.39-.05-2.79-.02-4.18-.02-.36,0-.5.16-.49.51.01.76.02,1.51,0,2.27-.01.46.15.68.62.64.43-.04,1,.2,1.04-.6.02-.49.09-1,.28-1.45.23-.56.7-.55.95,0,.18.41.25.87.36,1.32.15.63.36.8,1,.73.19-.02.38-.1.58-.15.98-.26,1.59,0,2.1.86.09.16.24.29.36.43Zm-4.99,21.09c-.02-.22-.05-.38-.03-.52.04-.32.01-.72.48-.78.48-.05.67.26.77.67.06.25.08.52.17.75.06.16.23.28.35.42.09-.16.25-.31.26-.47.02-.87,0-1.75-.01-2.62-.01-.73-.14-.82-.86-.68-.94.18-1.87.35-2.81.53-.64.12-1.29.22-1.92.41-.18.05-.38.34-.39.54-.04.51.02,1.03.04,1.55.02.73.12.81.83.85.55.03.89-.1.82-.74-.01-.13,0-.3.07-.4.17-.24.39-.62.59-.62.23,0,.47.34.67.56.08.09.1.26.1.4,0,.59.16.95.85.64.14-.06.36.04.53.01.2-.03.4-.1.56-.22.04-.03-.03-.36-.12-.41-.17-.08-.4-.08-.6-.06-.1,0-.19.12-.34.21Zm-17.23-8.91s0,0,.01,0c0,.56,0,1.11,0,1.67,0,.31.11.54.48.55.37.01.69-.04.76-.48.03-.18-.01-.39.07-.53.17-.27.4-.69.6-.68.27,0,.59.3.8.55.15.18.18.48.22.73.09.73.65.48,1.06.51.44.04.61-.25.61-.63.01-1.05.03-2.11-.02-3.16-.01-.2-.33-.54-.53-.55-1.15-.09-2.3-.11-3.45-.15-.43-.02-.61.21-.61.62,0,.52,0,1.03,0,1.55Zm13.16-1.03c0,1.79-.25,1.56,1.59,1.57.04,0,.09.02.12,0,.22-.15.44-.3.65-.47.24-.18.44-.47.7-.52.13-.03.33.39.52.57.16.16.37.4.54.39.59-.05,1.23.28,1.76-.23.01-.01.02-.04.02-.06-.03-.57-.03-1.15-.12-1.71-.03-.16-.31-.38-.5-.41-1.43-.23-2.87-.43-4.32-.61-.87-.11-.98,0-.97.87,0,.2,0,.4,0,.6Zm10.24-1.54c.01-1.11-.23-1.32-1.35-1.2-.69.08-1.39.09-2.07.21-.25.05-.65.33-.65.5,0,1.03.09,2.06.19,3.08.01.14.27.35.44.37.7.11,1.11-.19,1.24-.88.06-.34.19-.69.57-.61.25.05.53.29.67.52.14.23.16.62.51.48.2-.08.41-.42.43-.66.06-.61.02-1.22.02-1.84Zm-19.47-5.93c-.05.09-.1.14-.1.19.04,1.03.06,2.06.15,3.09.01.14.31.35.48.37.69.04,1.39.02,2.09.02.48,0,.72-.22.7-.74-.06-1.17-.08-2.34-.12-3.51,0-.04.01-.09,0-.12-.13-.15-.27-.28-.4-.42-.08.18-.23.37-.21.54.02.21.18.41.28.61-.27.36-.53.37-.88.12-.19-.13-.56-.28-.67-.19-.45.33-.86.31-1.3.04Zm-12.83-2.04c.07-.74-.03-1.06-.37-1.05-.77.03-1.54.08-2.31.15-.12.01-.33.18-.32.26.07.5.16,1.01.28,1.5.15.61.38,1.19.49,1.8.09.5.03,1.04.12,1.54.05.27.27.7.43.71.54.02,1.08-.11,1.62-.21.04,0,.08-.18.08-.27,0-.82,0-1.63-.03-2.45-.01-.39-.2-.55-.63-.48-.89.15-.95.06-.72-.8.09-.33.09-.89.26-.94.3-.09.7.12,1.09.22Zm-26.31,2.69c.11-.28.2-.56.34-.82.02-.04.25.02.38.03-.04.28-.08.57-.13.91.25.02.55.05.86.07.36.03.53-.15.61-.5.06-.27.24-.5.37-.75.21.22.42.42.61.65.06.07.05.21.12.27.18.16.36.39.57.41.51.06,1.04.07,1.55,0,.2-.03.5-.28.54-.48.08-.44.05-.91.02-1.36,0-.14-.14-.38-.24-.39-.39-.06-.79-.09-1.18-.06-1.43.09-2.85.21-4.28.33-.23.02-.48.08-.68.2-.35.2-.51,1.13-.26,1.52.28.44.61.16.8-.02Zm33.88,3.29c.06,0,.13,0,.19,0,.05-.28.14-.56.13-.84-.02-1.27-.07-2.54-.09-3.81-.02-1.45-.02-2.9,0-4.36,0-.5-.2-.67-.69-.64-.49.03-.59.35-.58.74.02.67.1,1.35.11,2.02.02,1.45.01,2.9.01,4.36,0,.96.27,1.82.92,2.54Zm10.04-18.93c-.18-.14-.28-.24-.39-.29-.98-.48-2.03-.28-3.05-.3-.09,0-.25.31-.27.49-.05.41-.05.83-.05,1.24,0,.62,0,1.23.04,1.85.03.54.43.52.83.52.42,0,.47-.26.49-.6.01-.25.04-.55.17-.74.17-.24.5-.56.7-.52.26.05.5.39.65.66.13.23.08.56.19.8.06.14.27.26.44.31.06.02.27-.2.27-.31.02-.78.01-1.57.01-2.36-.5-.05-1.08.39-1.14-.23-.09-.79.67-.29,1.11-.52Zm-15.62,2.86c-.1,0-.19-.02-.29-.03-.01-.22-.05-.44-.03-.65.03-.33-.03-.58-.42-.54-.35.03-.92-.21-.93.42-.02,1.09.03,2.18.09,3.27,0,.15.28.29.42.43.12-.17.3-.33.35-.52.07-.24.02-.51.06-.77.06-.39.25-.68.69-.7.47-.02.61.32.69.68.06.25,0,.53.08.77.07.2.26.36.4.54.16-.19.44-.38.45-.57.02-1.01,0-2.03-.08-3.04-.01-.19-.29-.42-.5-.51-.22-.09-.5-.02-.71-.02-.1.46-.19.84-.27,1.23Zm10.1,15.43c.06-.02.13-.04.19-.06.02-.23.06-.45.05-.68-.03-.91-.06-1.82-.12-2.73-.01-.2-.14-.38-.21-.58-.23.09-.51.13-.67.29-.26.26-.44.6-.66.92-.76,1.11-1.52,2.22-2.27,3.35-.11.17-.13.4-.19.6.07.03.13.07.2.1.18-.23.36-.46.54-.68,1.05.26,1.1.24,1.72-.75.11-.17.2-.34.31-.51.29-.44.44-.43.69.04.13.24.27.47.41.7Zm-10.2-9.43c.4,0,.8.02,1.19,0,.35-.02.54-.21.54-.58,0-.52.06-1.03.02-1.55,0-.15-.22-.41-.35-.42-.69-.07-1.39-.12-2.08-.08-.8.05-.92.23-.91,1.05q0,1.59,1.59,1.58Zm-16.59,12.62c0-.64,0-1.27,0-1.91-.01-.57-.45-.61-.85-.58-.39.03-.91-.04-.94.58-.04.77-.06,1.55-.08,2.32-.02,1.09.26,1.43,1.31,1.72.39.11.57.02.57-.4,0-.58,0-1.15,0-1.73Zm35.7-21.77c-.78,0-1.53.02-2.28,0-.48-.01-.62.21-.61.65.02.81.04,1.63.02,2.44-.01.51.16.75.69.7.22-.02.45.03.65-.03.16-.05.39-.24.38-.36-.02-.61.34-.99.63-1.47.33-.53.36-1.26.52-1.92Zm-14.16,5.7c0-.19.02-.29,0-.39-.04-.2-.11-.4-.17-.6-.19.11-.42.19-.58.34-.47.46-.88.97-1.36,1.42-.61.57-.81,1.24-.72,2.04.05.43.23.66.68.65.12,0,.24,0,.36,0,1.04-.02,1.02-.02,1.06-1.04.01-.38.04-.85.26-1.11.37-.44.55-.86.47-1.32Zm-3.02,9.89s-.06,0-.1,0c0-.81,0-1.62,0-2.43,0-.38-.2-.74-.58-.66-.25.05-.55.38-.64.65-.11.32,0,.7,0,1.06,0,.99,0,1.98.02,2.97,0,.27.13.53.2.79.3-.13.61-.23.88-.41.11-.08.14-.32.15-.49.04-.49.05-.99.08-1.48Zm-2.01-15.11c.07.37.09.76.16.77.25.03.53-.02.78-.12.12-.05.24-.26.24-.39-.04-.71-.11-1.43-.18-2.14-.03-.36-.23-.53-.6-.51-.32.02-.65-.05-.95.02-.21.05-.52.26-.53.42-.06.83-.05,1.67-.03,2.5,0,.12.23.33.34.32.15-.02.33-.18.4-.32.08-.15,0-.38.09-.52.13-.2.43-.5.5-.47.24.13.41.39.61.59-.05.03-.09.07-.14.1-.16-.06-.32-.13-.67-.27Zm26.61,13.06h0c0,.28,0,.56,0,.83-.01.47.24.7.68.74.26.03.53.06.77,0,.16-.04.38-.24.39-.39.07-.67.1-1.35.11-2.02,0-.17-.13-.47-.23-.48-.48-.07-.99-.14-1.45-.03-.16.04-.2.6-.27.93-.03.13,0,.28,0,.42Zm-30.92,3.1s.03,0,.04,0c-.05-.49-.03-1-.16-1.47-.06-.23-.37-.53-.58-.54-.25,0-.58.21-.73.43-.15.22-.17.56-.17.85,0,.52.07,1.03.13,1.54.09.75.24.83.97.69.36-.07.52-.24.5-.6-.01-.3,0-.6,0-.9Zm33.29-3.1c.02.28.01.7.1,1.1.04.19.25.45.42.47.49.06.99.05,1.48.01.11,0,.32-.3.29-.36-.43-.84-.87-1.68-1.36-2.49-.08-.14-.44-.2-.63-.15-.13.04-.25.32-.28.51-.05.25-.01.51-.01.91Zm3.07,6.05c.08-.26.13-.34.12-.41-.13-1.08-.26-2.17-.41-3.25-.02-.12-.15-.31-.23-.32-.63-.04-1.28-.22-1.99.17.83,1.27,1.63,2.47,2.51,3.81Zm-8.04-7.51s0-.02,0-.03c-.34,0-.7-.07-1.01.02-.54.15-1.07.36-1.57.61-.14.07-.17.38-.25.57.24-.05.59-.01.7-.16.32-.42.54-.41.8.03.21.36.42.4.63-.02.24-.47.39-.48.66-.04.2.33.45.41.64.09.28-.47.49-.38.82-.08.28.25.47.12.51-.23.05-.42-.1-.72-.56-.75-.46-.02-.92,0-1.37,0Zm-25.39,8.26c.04.06.08.12.12.17.21-.06.44-.08.61-.19,1.48-.93,2.95-1.88,4.4-2.84.14-.09.17-.34.25-.52-.18.01-.4-.04-.54.05-1.42.87-2.84,1.75-4.24,2.66-.24.16-.4.45-.6.67Zm.81,1.33c.31-.3.49-.52.71-.67,1.35-.9,2.72-1.78,4.06-2.69.15-.1.17-.37.25-.57-.19,0-.44-.06-.58.03-1.41.93-2.8,1.88-4.19,2.84-.16.11-.35.25-.4.42-.05.15.07.35.14.64Zm26.94-3.05c.06.04.13.09.19.13.45-.3.92-.59,1.36-.91.06-.05.07-.27.02-.37-.33-.56-.68-1.11-1.05-1.64-.06-.08-.25-.13-.36-.11-.07.01-.15.19-.15.29-.01.87,0,1.74,0,2.6Zm-31.54-6.49c.09-.29.12-.51.22-.69.35-.58.73-1.13,1.1-1.7.52-.8,1.06-1.58,1.56-2.39.09-.15.02-.4.02-.6-.17.06-.42.06-.5.18-.77,1.16-1.52,2.33-2.25,3.51-.31.49-.4,1.02-.15,1.68Zm31.65,7.42c.05.09.09.19.14.28.94-.1,1.88-.19,2.82-.32.11-.01.26-.21.27-.32.01-.3-1.19-1.11-1.44-.95-.62.41-1.19.87-1.79,1.31Zm-51.85.4s.07-.03.11-.04c-.13-.32-.17-.81-.4-.93-.79-.41-1.3,0-1.23.86.01.16.03.32.02.47-.04.61.32.71.83.71.52,0,.73-.21.67-.72-.01-.12,0-.24,0-.36Zm45.21-18.85c-.72.5-.9,1-.29,1.6.06.06.06.19.07.29.12.79.26.9,1.07.88.4-.01.58-.21.39-.58-.4-.75-.83-1.48-1.24-2.19Zm-30.09,26.46s0,0,0,0c0,.38-.06.77.02,1.13.04.2.29.38.48.52.05.04.35-.12.35-.19,0-.89-.03-1.77-.09-2.66,0-.13-.27-.24-.41-.36-.12.16-.31.32-.34.49-.05.35-.02.71-.02,1.07Zm19.34-19.62s-.02,0-.03,0c0-.26.07-.55-.02-.77-.1-.23-.35-.39-.54-.59-.19.19-.49.36-.53.58-.08.44-.03.91-.02,1.37,0,.42.26.53.64.52.4-.01.52-.23.5-.58,0-.18,0-.36,0-.54Zm-8.54-10.4c.08,0,.15,0,.23,0,.02-.47.07-.95.03-1.42-.02-.22-.19-.59-.31-.6-.44-.03-.91-.01-1.31.14-.24.09-.07,1.28.06,1.43.3-.17.56-.31.83-.46l.48.91Zm-9.86,10.64s.05.14.16.19c.14.06.46.08.47.06.06-.23.12-.48.08-.71-.02-.09-.26-.2-.4-.21-.59-.03-1.18-.03-1.76-.04-.2,0-.57-.03-.58.02-.07.25-.09.55-.02.79.03.09.37.1.57.12.19.02.39.03.58,0,.26-.04.52-.13.91-.22Zm10.31,12.97c.03.07.07.14.1.2.21-.06.45-.07.61-.19.96-.68,1.91-1.37,2.84-2.08.12-.09.15-.3.22-.46-.18.01-.41-.04-.54.05-.95.65-1.89,1.32-2.83,1.99-.17.12-.28.32-.41.48Zm10.84-13.32c0-.33.07-.63-.02-.88-.07-.22-.32-.37-.49-.56-.14.18-.38.35-.39.54-.05.53,0,1.07,0,1.61,0,.31.13.5.47.46.32-.04.59-.14.5-.56-.04-.21-.05-.43-.06-.6Zm-5.81.44c-.08-.28-.12-.58-.27-.82-.11-.17-.38-.36-.55-.34-.15.02-.36.3-.39.48-.06.36-.03.75.02,1.12.02.13.2.29.34.33.57.14.76-.05.86-.77Zm-10.49,10.31c-.45.03-1.78,1.34-1.78,1.72,0,.12.07.32.15.35.13.04.34,0,.43-.08.48-.44.94-.91,1.38-1.39.08-.09.07-.3.04-.44-.02-.08-.17-.13-.22-.16Zm21.08-.8s.02,0,.03,0c-.01-.28,0-.56-.06-.83-.03-.12-.19-.26-.32-.28-.12-.02-.39.08-.39.15-.06.63-.09,1.26-.08,1.89,0,.09.3.25.46.25.12,0,.31-.2.33-.33.05-.27.02-.55.02-.83Zm4.85-5.93s-.07-.06-.11-.09c-.01-.08,0-.16-.04-.23-.11-.21-.23-.41-.34-.62-.19.15-.46.26-.55.46-.18.43-.3.9-.37,1.36-.02.12.24.28.38.42.34-.43.69-.87,1.03-1.3Zm-1.74.1c.04-.38-.11-.5-.49-.4-.62.17-.88.58-.82,1.19.02.2.2.57.25.56.26-.05.61-.13.74-.33.19-.28.22-.67.32-1.02Zm-21.96,6.76c-.06-.05-.12-.1-.19-.15-.81.3-1.32.99-1.87,1.61-.05.05.02.32.09.34.12.04.33.03.42-.05.42-.36.83-.73,1.21-1.13.16-.17.23-.41.34-.62Zm4.81,2.67c.26.03.33.07.37.04.75-.55,1.5-1.09,2.23-1.66.07-.05.03-.24.05-.36-.12,0-.27-.03-.36.03-.59.4-1.19.8-1.75,1.24-.2.15-.31.41-.54.71Zm-1.62,3.12c-.56.05-.52.55-.5.89,0,.19.33.47.56.52.38.09.81-.35.77-.71-.04-.48-.35-.68-.83-.71Zm-8.99-3.93c.68-.06,1.86-1.12,2.05-1.79-.57-.16-1.91.98-2.05,1.79Zm35.45-4.87c.19.2.35.34.47.51.14.19.21.44.36.61.29.34.59.09.84-.08.11-.08.23-.31.19-.41-.17-.47-1.19-.84-1.86-.63Zm-27.58-22.67c-.08.01-.16.02-.23.03-.09.47-.21.95-.26,1.42-.04.37.25.46.56.41.27-.04.62-.09.5-.49-.15-.47-.38-.92-.57-1.38Zm-10.26,13.22c0-.4-.41-.87-.75-.77-.21.06-.46.38-.48.6-.03.35.04.78.56.81.45.02.63-.25.66-.64Zm7.25,25.32c.13.43.05.85.57.89.43.04.45-.28.45-.6,0-.41-.02-.86-.51-.91-.15-.02-.34.4-.51.62Zm18.13-12.61l.32-.04c0-.67,0-1.35-.01-2.02,0-.08-.21-.22-.3-.2-.09.02-.21.19-.22.29-.02.43-.03.87,0,1.31.02.22.13.44.21.66Zm-34.94-11.58c.52-.05.83-.19.8-.66,0-.13-.3-.34-.46-.35-.39-.02-.87-.03-.94.48-.02.15.39.35.6.53Zm35.76.79s.09-.04.13-.07c-.17-.29-.33-.58-.5-.86-.13.37-.28.73-.39,1.11-.03.1.03.25.1.33.1.11.26.23.37.22.1-.01.22-.19.27-.31.05-.12.01-.27.01-.41Zm-.88-4.95c-.31-.39-.52-.65-.72-.91-.15.29-.38.56-.42.86-.02.17.26.53.41.54.2,0,.41-.26.72-.49Zm-14.31,2.24s-.08-.06-.12-.09c0-.06.02-.13,0-.18-.12-.23-.25-.46-.38-.69-.14.23-.28.47-.41.7-.02.04-.02.13,0,.17.13.22.28.44.42.66.16-.19.32-.39.49-.58Zm7.8,19.99c.35.26.54.5.75.53.15.02.47-.24.48-.39.02-.33,0-.8-.49-.78-.2,0-.39.32-.74.64Zm10.43-27.21c-.22.06-.44.06-.58.17-.12.09-.13.3-.2.46.31.1.62.19.93.29.04-.22.1-.44.12-.66.01-.17-.01-.35-.04-.52-.02-.13-.06-.25-.11-.37-.01-.02-.2,0-.2.02-.01.12,0,.24,0,.37,0,.07.03.14.06.25Zm-9.65,14.85c-.06-.28-.1-.5-.15-.72-.07,0-.15.02-.22.03-.08.57-.17,1.15-.27,1.84q1.32-.66.63-1.15Zm8.3-6.05c-.43.58-.37,1.1-.22,1.62.03.09.15.21.23.22.09,0,.24-.1.26-.19.13-.54.17-1.08-.27-1.65Zm1.95-3.85c-.24-.32-.39-.53-.53-.74-.18.26-.44.5-.51.78-.03.14.29.36.45.55.18-.18.36-.36.6-.6Zm4.81,3.09c-.31-.37-.49-.78-.72-.82-.44-.07-.37.39-.42.69-.06.38.15.53.47.49.18-.02.34-.18.66-.36Zm-4.14,1.77l.1-.06c-.15-.24-.29-.48-.44-.72-.12.27-.26.53-.34.8-.04.14-.03.33.03.46.06.11.22.23.34.24.08,0,.23-.14.27-.25.05-.14.03-.31.04-.47Zm-15.87,13.45c.54-.38.96-.66,1.35-.98.09-.07.09-.28.1-.43,0-.04-.11-.11-.18-.12-.29-.03-1.22.95-1.28,1.52Zm21.77-16.04c-.11.44-.48.84.01,1.15.15.1.66-.03.7-.16.17-.52-.2-.77-.71-.99Zm-13.32,9.72c.24-.23.46-.4.44-.44-.13-.25-.28-.58-.5-.66-.16-.05-.44.26-.66.41.22.21.43.41.73.69Zm-31.7-5.03c.46-.28.9-.53,1.31-.82.1-.07.17-.27.16-.4,0-.09-.2-.25-.28-.24-.12.02-.22.18-.33.27-.2.17-.37.39-.6.49-.37.16-.4.37-.26.7Zm17.61,9.6c-.24-.15-.43-.3-.45-.29-.27.27-.51.57-.76.86.14.11.38.33.39.31.27-.25.5-.53.82-.89Zm33.85,1.47c0-.07,0-.14-.01-.21-.15-.09-.31-.27-.43-.25-.31.06-.8-.11-.81.44,0,.15.27.44.36.42.32-.08.61-.26.91-.4Zm-7.14-15.73c-.47.08-.9.1-.78.65.04.18.35.47.47.44.62-.16.31-.64.32-1.09Zm-39.36,2.6c-.27-.24-.42-.49-.6-.51-.14-.02-.47.31-.45.36.11.23.31.43.48.63.15-.13.31-.26.57-.49Zm-2.42-.11c.31.23.49.46.66.45.16,0,.31-.25.47-.4-.17-.18-.31-.42-.52-.53-.07-.04-.31.23-.61.47Zm38.46,3.96c.37-.31.67-.56.97-.81-.27-.06-.56-.23-.81-.17-.48.1-.34.47-.16.99Zm-47.32.32c-.56.25-.77.55-.61,1,.05.13.22.31.34.31.12,0,.3-.2.32-.32.04-.28-.02-.57-.04-.99Zm49.44-1.58c-.2.25-.45.42-.43.55.03.17.31.44.42.41.22-.05.41-.28.6-.43-.17-.15-.34-.3-.6-.54Zm-6.65,1.51c-.23.34-.42.55-.51.79-.02.05.38.36.43.32.2-.13.38-.34.47-.57.03-.08-.18-.27-.39-.55Zm-8.72,2.83c-.45-.26-.72.14-1.05.29-.02,0,.04.33.13.39.43.29.66.11.92-.68Zm16.34-5.08c-.24-.23-.43-.51-.52-.48-.19.07-.32.29-.48.45.16.15.3.36.5.44.08.03.27-.21.5-.41Zm-45.73-4.6c.03.08.07.15.1.23h1.18s.06-.1.09-.15c-.21-.17-.42-.46-.63-.46-.25,0-.5.24-.75.38Zm43.35,1.34c.04-.05.08-.11.12-.16-.16-.36-.31-.72-.48-1.12-.44.27-.46.62-.28.91.12.19.42.25.65.37Zm-19.25,4.26c.29-.15.61-.22.66-.38.09-.28.03-.62-.01-.92,0-.05-.28-.06-.42-.09.54.57-.26.79-.22,1.39Zm4.49,5.34c-.42-.26-.78-.29-1.08.02-.04.04.07.35.17.41.44.24.68-.05.91-.43Zm11.55,16.61c-.28-.25-.46-.4-.63-.56-.13.18-.31.34-.35.53-.02.09.26.29.43.32.12.02.28-.15.55-.3Zm-27.43-24.31c.13-.09.23-.13.24-.18.04-.3.07-.59.07-.89,0-.02-.23-.04-.35-.07-.04.27-.09.54-.11.81,0,.08.07.17.15.32Zm32.06,19.8c-.32-.23-.5-.45-.63-.42-.18.04-.31.26-.47.41.14.1.28.28.43.29.16.01.33-.13.67-.27Zm-1.27,4.02c-.07,0-.13-.01-.2-.02-.11.16-.31.33-.31.49,0,.15.23.29.36.44.12-.1.33-.21.33-.31,0-.2-.12-.4-.18-.6Zm-23.3-1.13c.04.39.08.74.12,1.1.11-.01.21-.03.32-.04-.06-.34-.12-.69-.18-1.03,0,0-.04,0-.25-.03Zm6.76-3.51c-.04.53-.08,1.06-.13,1.66.42-.33.51-1.13.13-1.66Zm-15.08-7.97c.06.05.12.09.17.14.6-.37.85-.71.77-1.26-.37.44-.65.78-.94,1.12Zm41.47,2.35c-.26-.15-.41-.3-.54-.28-.16.02-.3.17-.44.27.18.13.34.29.54.37.07.03.22-.17.45-.36Zm-3.72.7c-.16.32-.32.48-.31.63,0,.14.2.27.31.4.11-.11.31-.22.3-.33,0-.18-.14-.36-.3-.7Zm-45.68-14.91c-.08-.03-.17-.05-.25-.08-.09.31-.18.63-.31,1.08.76-.23.67-.61.56-1Zm28.07,24.54c-.23-.14-.4-.29-.46-.26-.17.09-.29.26-.44.4.11.11.27.32.33.3.18-.07.32-.23.57-.44Zm-30.65-22.09c-.19-.15-.34-.3-.37-.28-.17.13-.33.29-.46.46-.01.01.19.26.22.24.19-.1.36-.23.61-.41Zm38.41,13.97c.03-.83-.13-1.01-.77-.93.25.3.46.55.77.93Zm-10.56,8.85c.09-.06.19-.11.28-.17.07-.14.22-.29.19-.41-.02-.11-.24-.29-.34-.27-.14.02-.34.2-.35.32,0,.17.13.36.21.53Zm-10.74-19.42c-.18-.15-.3-.25-.41-.35-.08.14-.23.27-.23.41,0,.14.15.27.23.41.12-.13.24-.27.41-.46Zm5.39,14c-.07,0-.15.02-.22.03.05.64.11,1.29.16,1.93.02,0,.04,0,.06,0v-1.95Zm20.01-4.2c-.1.04-.2.09-.29.13l.17.57c.13-.05.27-.1.4-.15l-.28-.55Zm-33.67-18.23c.08-.06.17-.11.25-.17-.13-.22-.25-.43-.39-.64,0,0-.18.1-.28.15l.42.66Zm17,11.73c-.05.1-.1.2-.14.3l.51.29c.07-.13.14-.25.21-.38-.19-.07-.38-.14-.57-.21Zm12.37,10.11c.12-.13.2-.22.28-.31-.12-.1-.24-.25-.37-.27-.09-.01-.2.18-.29.28.11.09.22.17.38.29Zm-.97-4.38c.1-.02.19-.05.29-.07-.1-.27-.19-.54-.29-.82-.09.03-.18.05-.26.08.09.27.17.54.26.81Zm.76-25.71c.07-.09.13-.19.2-.28-.17-.11-.34-.22-.51-.33-.06.09-.18.26-.16.27.14.13.31.23.47.34Zm-15.25,29.96c.06-.07.12-.13.17-.2l-.58-.52c-.06.07-.12.13-.18.2l.59.52Z"/><path d="m97.31,88.1c-.78-.62-1.55-1.23-2.33-1.85-.27-.21-.61-.52-.85-.13-.15.25-.14.79.04,1.01.41.5.96.89,1.45,1.33.74.65,1.49,1.3,2.23,1.96-.03.04-.07.09-.1.13-.68-.52-1.36-1.03-2.04-1.56-.41-.32-.79-.68-1.22-.95-.19-.12-.58-.18-.72-.06-.28.24-.28.61.03.89.47.43.96.84,1.44,1.26.25.22.49.44.74.66-.03.05-.07.09-.1.14-.39-.25-.77-.5-1.15-.76-.18-.12-.32-.32-.52-.4-.24-.1-.51-.11-.77-.17.03.37-.03.79.13,1.09.14.28.52.43.73.76-.08-.01-.18,0-.25-.05-.78-.41-.91-.35-1.02.5-.05.35-.02.72-.1,1.07-.04.17-.26.29-.4.44-.04-.17-.12-.35-.1-.52.29-1.79.59-3.57.9-5.36.02-.1.04-.2.05-.29.12-1.04.07-1.08-.94-1.32-2.32-.54-4.64-1.1-6.97-1.65-.23-.06-.51-.21-.69-.14-.25.1-.47.35-.61.59-.04.07.23.43.41.48,1.55.42,3.13.78,4.68,1.21.87.24,1.72.58,2.58.87-.01.05-.02.11-.03.16-.13-.01-.27-.01-.4-.05-2.27-.6-4.54-1.2-6.82-1.79-.19-.05-.42-.15-.58-.09-.22.09-.45.27-.56.48-.04.07.19.42.36.48,1.8.59,3.6,1.15,5.41,1.72.71.22,1.42.44,2.13.67l-.03.15c-.22-.04-.44-.06-.66-.12-2.38-.66-4.76-1.33-7.14-1.97-.22-.06-.54-.03-.71.1-.18.13-.3.43-.3.66,0,.12.28.31.47.36,1.56.42,3.12.81,4.68,1.23,1.1.3,2.2.65,3.29.97l-.04.16c-1.09-.26-2.19-.52-3.28-.79-1.68-.42-3.36-.86-5.04-1.26-.22-.05-.56.03-.73.18-.41.38-.32.7.23.85,1.36.38,2.74.71,4.1,1.09,1.44.4,2.87.81,4.31,1.23.13.04.24.16.35.25-.02.04-.04.09-.06.13-1.06-.28-2.12-.56-3.18-.85-2.02-.54-4.04-1.1-6.06-1.62-.23-.06-.5.02-.87.04.07-.22.1-.42.19-.57.88-1.44,1.79-2.87,2.66-4.32.14-.23.28-.68.18-.78-.18-.19-.57-.29-.85-.26-.47.06-.84,0-1.2-.34-.19-.18-.52-.2-.79-.29-.04.05-.08.1-.12.14.37.73.74,1.46,1.11,2.19l-.12.1c-.11-.13-.23-.24-.33-.38-.46-.67-.91-1.35-1.37-2.02-.14-.21-.29-.48-.61-.22-.28.23-.4.48-.18.83.54.86,1.08,1.72,1.6,2.59.16.27.26.57.38.85-.05.02-.1.04-.16.07-.58-.9-1.13-1.81-1.74-2.68-.17-.25-.28-.79-.78-.49-.52.31-.13.65.05.95.51.9,1.03,1.79,1.54,2.69.08.14.12.31.05.54-.4-.62-.79-1.24-1.19-1.86-.24-.37-.46-.75-.74-1.08-.14-.16-.4-.21-.61-.31-.05.28-.21.6-.12.82.27.62.65,1.18.98,1.78.1.18.18.37.27.56-.05.03-.09.05-.14.08-.36-.53-.73-1.06-1.1-1.59-.45-.65-.51-.65-1.14-.17-.15.11-.32.18-.49.27-.05-.04-.09-.08-.14-.12.1-.18.18-.38.31-.55.29-.38.61-.73.91-1.11.36-.46.31-.68-.22-.9-1.12-.46-2.26-.9-3.38-1.35-1.11-.44-2.22-.87-3.32-1.34-.28-.12-.52-.36-.88-.61.96.15,1.75.24,2.52.4.24.05.44.31.66.48.31.25.57.35.93.02,1.44-1.34,2.9-2.66,4.38-3.96,1.57-1.38,3.15-2.74,4.75-4.09.09-.08.37-.05.49.04.56.38,1.05.87,1.65,1.16.31.16.78,0,1.23-.02-.04.08-.1.25-.2.38-1.72,2.15-3.44,4.28-5.15,6.43-.2.25-.59.56-.12.9.42.3.75.07,1.01-.29,1-1.34,1.99-2.69,3.01-4.01.71-.93,1.46-1.82,2.2-2.73.05.03.1.06.15.09-.09.17-.16.36-.27.51-1.36,1.84-2.73,3.67-4.1,5.51-.19.26-.41.49-.56.77-.08.15-.02.36-.03.55.2,0,.44.08.6,0,.22-.12.39-.34.54-.54,1.57-2.11,3.13-4.22,4.69-6.33.11-.15.25-.29.48-.37-.05.11-.08.23-.15.32-1.48,2.15-2.98,4.28-4.46,6.43-.36.53-.13,1.02.5,1,.22,0,.49-.24.62-.45.88-1.31,1.72-2.63,2.58-3.95.51-.78,1.02-1.57,1.54-2.35.08-.12.19-.21.41-.23-.17.3-.33.61-.51.9-1.11,1.84-2.23,3.68-3.33,5.52-.15.25-.48.52-.03.8.5.32.87.26,1.14-.22.76-1.36,1.49-2.73,2.25-4.08.49-.88,1.02-1.74,1.52-2.61.06.03.12.06.19.09-.29.59-.57,1.18-.87,1.76-.82,1.59-1.65,3.18-2.48,4.77-.14.26-.33.56.05.78.38.21.62-.06.78-.34.75-1.34,1.47-2.69,2.2-4.04.27-.5.58-.99.86-1.48.05.03.1.05.16.08-.23.48-.45.95-.69,1.43-.66,1.32-1.34,2.63-1.97,3.95-.09.19-.07.59.06.7.3.24.67.15.85-.22.39-.76.75-1.54,1.13-2.31.55-1.09,1.1-2.18,1.66-3.28.06.03.13.06.19.09-.25.59-.5,1.17-.77,1.76-.54,1.2-1.1,2.39-1.65,3.58-.14.3-.29.63.12.82.38.17.71.03.89-.36.56-1.21,1.11-2.42,1.68-3.63.29-.63.61-1.25,1.06-1.84-.04.2-.04.42-.13.6-.69,1.55-1.39,3.08-2.09,4.62-.06.13-.19.27-.17.37.05.23.18.43.28.65.17-.08.42-.12.49-.25.5-1.02.97-2.05,1.45-3.08.03-.07.07-.13.21-.18-.03.15-.03.31-.08.46-.3.8-.61,1.6-.91,2.4-.24.66.01,1.05.72,1.07.14,0,.37-.18.4-.31.23-.94.4-1.9.62-2.85.25-1.09.52-2.17.86-3.26.04,1.23,1.2,1.59,1.77,2.37.27.37.62.69.94,1.04-.05.04-.09.09-.14.13-.52-.47-1.03-.95-1.55-1.42-.16-.15-.3-.36-.48-.43-.21-.08-.51-.12-.68-.02-.11.06-.14.48-.04.62.32.42.7.81,1.09,1.17.48.45.99.87,1.47,1.31.08.07.11.19.16.29-.04.04-.08.09-.12.13-.89-.74-1.77-1.48-2.66-2.22-.45.72-.42,1.13.11,1.63.78.72,1.56,1.42,2.34,2.13.17.16.32.34.38.62-1.06-.79-2.12-1.59-3.19-2.39-.34.64-.27.99.18,1.38.73.62,1.45,1.24,2.16,1.87.17.15.32.33.47.5-.04.04-.08.07-.12.11Zm-16.87-8.81c-.03.06-.06.12-.1.18-.19-.08-.38-.14-.56-.24-.47-.26-.92-.56-1.39-.82-.45-.25-1-.11-1.2.3-.23.46.24.55.45.78.08.08.2.13.3.19.35.23.7.46,1.05.69-.02.05-.05.1-.07.15-.17-.05-.35-.08-.5-.16-.42-.23-.85-.45-1.23-.74-.53-.39-.9-.19-1.37.32.88.5,1.71.97,2.55,1.44-.03.05-.06.11-.09.16-.1-.04-.21-.08-.31-.13-.69-.31-1.39-.61-2.07-.94-.48-.23-.8,0-.99.36-.05.1.31.44.5.64.07.08.22.08.33.14.54.3,1.08.6,1.62.9-.03.05-.06.11-.09.16-.07-.03-.15-.05-.22-.08-.76-.35-1.52-.71-2.28-1.06-.35-.16-1.12.1-1.09.4.01.2.31.44.54.55,1.04.46,2.09.87,3.14,1.33.35.15.59.11.82-.21.54-.72,1.09-1.42,1.65-2.12,1.3-1.63,2.61-3.26,3.93-4.88.26-.32.56-.62.83-.94.21-.25.18-.45-.15-.61-.52-.25-1.02-.54-1.54-.79-.13-.06-.33-.08-.44-.02-.16.09-.41.31-.39.4.06.2.25.38.43.52.23.19.5.33.75.5-.04.07-.09.14-.13.21-.41-.22-.82-.43-1.23-.66-.39-.22-.74-.13-.92.22-.07.13.14.47.31.62.34.3.75.53,1.12.8.12.09.21.22.31.33-.22.04-.35,0-.47-.08-.47-.29-.94-.6-1.41-.9-.45-.28-.91-.17-1.17.29-.25.46.14.59.41.77.28.19.59.34.86.54.31.23.58.5.87.75-.04.05-.08.09-.12.14-.59-.36-1.16-.74-1.76-1.08-.27-.15-.59-.28-.88-.27-.23,0-.46.22-.69.34.15.18.26.41.45.54.54.38,1.1.73,1.65,1.09Z"/><path d="m131.53,40.17c.46.28.74.46,1.12.68-.58.22-1.05.4-1.64.62.06-.26.1-.45.14-.64.07-.33-.05-.48-.38-.36-.3.11-.59.25-.88.37-.34.15-.68.32-.54.78.13.43.39.74.89.75.25,0,.5-.02.75-.03.02.05.04.1.07.15-.22.13-.46.24-.66.39-.16.13-.28.31-.42.47.24.1.48.29.71.28.31,0,.61-.17.91-.27.8-.25,1.61-.47,2.39-.75.34-.12.63-.37.96-.57.19.59.44,1.2.56,1.82.16.83-.6,1.65-1.46,1.53-.59-.08-1-.04-1.39.48-.2.27-.64.39-.99.49-.44.14-.54.4-.48.81.06.47.36.53.73.46,1.17-.22,2.35-.42,3.52-.68.24-.05.45-.28.75-.47.11.49.23.98.38,1.62-1.26-.62-2.26.07-3.32.19-.39.05-.79.12-1.17.25-.21.08-.52.31-.51.46,0,.23.21.52.41.65.26.17.59.24.9.29,1.17.22,2.34.42,3.51.64.14.03.27.11.41.16-.11.12-.2.29-.34.34-1.26.5-2.52.99-3.78,1.48-.18.07-.42.13-.52.28-.12.17-.2.44-.17.64.02.13.27.32.42.32,1.29.06,2.59.1,3.88.12.2,0,.4-.14.65-.23v1.4c-1.51-.46-3.04-.33-4.55-.35-.52,0-.7.39-.39.82.22.31.56.53.85.78.11.09.25.15.38.22-.01.05-.02.1-.03.15-.28-.02-.56-.08-.84-.06-.17.01-.33.13-.5.2.12.15.22.43.35.44,1.34.13,2.69.23,4.04.31.19.01.39-.17.7-.32-.07.57-.13,1.07-.17,1.43-1.1-.15-2.13-.29-3.15-.42-.43-.05-.88-.12-1.31-.09-.2.01-.39.23-.58.36.18.17.34.35.54.49.08.06.24.01.35.05.08.03.21.14.19.18-.02.1-.11.21-.19.25-.12.05-.27.05-.41.05-.45,0-.72.25-.81.66-.11.47.19.75.54.97.37.23.69.1.96-.2.29-.33.55-.68.86-.99.63-.63,1.51-.68,2.23-.17.61.44.88,1.32.44,1.9-.18.23-.71.2-1.08.29-.03-.08-.06-.16-.09-.23.16-.11.34-.2.48-.33.19-.18.53-.43.49-.57-.08-.29-.31-.62-.57-.75-.19-.1-.59.01-.79.17-.31.24-.51.6-.77.91-.71.84-1.59.95-2.48.32-.52-.37-.74-.9-.53-1.46.44-1.17.43-2.38.46-3.59.03-1.29,0-2.59,0-3.88,0-.27-.07-.55-.11-.86.58-.09,1.37.28,1.62-.55.08-.26-.11-.75-.34-.92-.38-.29-.89-.43-1.33.29-.1-.36-.17-.55-.2-.74-.15-.9-.24-1.81-.44-2.69-.23-1.01-.15-1.24.83-1.64.24-.1.48-.2.72-.3.37-.15.49-.43.45-.81-.04-.36-.19-.53-.55-.38-.66.27-1.47.28-1.82,1.03-.66-1.61-1.31-3.2-1.96-4.77,1.74-.27,3.27-1.16,4.88-2.09.08.11.24.26.32.44.21.47.38.96.58,1.44.28.67.26.74-.43.99-.2.07-.41.1-.62.15-.02-.05-.05-.1-.07-.15.13-.14.26-.27.38-.41.34-.37.29-.79.04-1.15-.25-.36-.57-.11-.85.02-.33.16-.65.34-1.11.59Zm2.18,4.63c.47-.22.88-.36,1.22-.6.14-.1.16-.43.13-.64-.01-.07-.34-.16-.51-.14-.33.04-.69.08-.97.24-.19.1-.36.41-.36.62,0,.16.29.32.5.52Zm1,6.18c-.01-.09-.03-.18-.04-.27-.38-.14-.77-.43-1.16-.06-.08.07.05.38.09.58.37-.08.74-.16,1.12-.24Z"/><path d="m107.57,88.11c-.74.07-1.49.14-2.23.22-1.84.2-3.68.39-5.52.63-.23.03-.55.28-.61.48-.15.59.01.77.62.74,2.23-.12,4.45-.26,6.68-.39.52-.03,1.04,0,1.57,0,0,.06.01.13.02.19-.67.08-1.34.18-2.01.25-1.94.18-3.89.34-5.83.52-.87.08-1.17.28-1.05.73.18.71.74.28,1.14.31.12,0,.24-.02.36-.02,2.35-.04,4.7-.08,7.05-.12.21,0,.42,0,.62,0,0,.05,0,.11.01.16-.38.07-.76.18-1.14.2-2.07.1-4.14.17-6.21.27-2.27.11-4.53.25-6.8.34-.27.01-.55-.16-.82-.24.25-.1.51-.28.76-.29,1.25-.06,2.51-.07,3.76-.1.74-.02.86-.1.84-.83-.06-2.84-.15-5.69-.21-8.53-.03-1.17-.01-2.35-.01-3.52,0-.15.05-.3.07-.37.63.1,1.21.18,1.91.29-.24.1-.41.18-.58.25-.23.1-.55.13-.68.31-.16.2-.21.53-.18.79.01.09.42.19.64.18.9-.04,1.79-.12,2.68-.18,0,.08.01.15.02.23-.52.06-1.04.12-1.55.19-.51.08-1.03.15-1.52.29-.17.05-.41.35-.37.48.05.19.29.44.47.47.41.07.84.03,1.25,0,1.35-.13,2.69-.28,4.04-.41.25-.02.5,0,.75,0l.02.15c-.64.11-1.27.23-1.91.31-1.34.18-2.69.34-4.03.5-.44.05-.5.33-.46.68.03.37.23.52.6.47,1.92-.22,3.84-.44,5.75-.65.25-.03.51-.03.76-.04.01.07.02.13.04.2-.54.1-1.07.23-1.61.3-1.62.22-3.24.41-4.85.63-.21.03-.5.15-.59.31-.1.2-.09.52,0,.73.06.13.37.22.55.2,1.07-.12,2.13-.29,3.2-.41,1.26-.14,2.52-.25,3.78-.38.02.05.03.1.05.15-.22.07-.43.17-.66.19-2.09.28-4.18.55-6.28.8-.48.06-.73.22-.67.75.06.57.48.47.81.44,1.46-.16,2.92-.36,4.39-.52.88-.09,1.77-.13,2.67-.05-.99.17-1.98.35-2.97.49-1.38.19-2.77.34-4.15.52-.24.03-.54.13-.67.3-.11.15-.09.49,0,.67.06.11.39.12.59.1,2.2-.2,4.4-.43,6.6-.63.36-.03.73,0,1.1,0v.27Z"/><path d="m75.45,23.9c.46-.34.91-.67,1.38-1.01.05,1.72,1.51,2.62,2.27,3.93.12.21.48.29.76.46-1.7,1.47-3.39,2.93-5.07,4.38-.18-.23-.33-.54-.57-.73-.44-.33-.73-.21-1.18.37-.29.38-.04.63.19.88.1.11.24.22.38.27.38.14.31.36.12.6-.11.14-.27.23-.39.37-.33.39-.7.75-.96,1.18-.44.73-1.05,1.06-1.89.92-1.3-.23-2.2-.99-2.8-2.12-.53-.99-.17-2.1.8-2.61.13-.07.39-.01.53.08.29.2.54.46.78.82-.18-.04-.36-.06-.53-.12-.43-.14-.85-.27-1.21.14-.39.45-.18.88.11,1.25.73.91,1.61,1.65,2.7,2.11.5.21.8-.1,1.05-.44.27-.36.05-.64-.24-.86-.22-.16-.46-.32-.72-.4-.46-.13-.44-.34-.18-.63.2-.23.41-.45.59-.64.33.4.57.76.89,1.03.15.13.44.09.66.13.02-.26.13-.56.04-.77-.23-.5-.56-.96-.84-1.44-.48-.8-.95-1.61-1.42-2.42-.05-.09-.06-.21-.12-.43.23.08.37.12.5.18,1.13.58,2.26,1.17,3.4,1.75.12.06.25.13.38.17.39.14.79.23,1.08-.18.29-.41-.04-.67-.27-.93-.62-.73-1.24-1.46-1.9-2.15-.3-.31-.7-.54-1.08-.82.37-.31.77-.64,1.16-.96.48,1.63,1.76,2.58,2.79,3.72.29.32.67.2.77-.14.11-.36.06-.79.02-1.18-.02-.17-.17-.32-.35-.65.3.11.41.15.53.2.16.06.32.12.48.18-.01-.2.04-.44-.05-.59-.36-.57-.74-1.13-1.16-1.66-.38-.48-.63-1.13-1.51-1.03l.09-.22Zm-3.38,5.9c-.06.04-.12.09-.18.13.15.28.29.57.47.82.07.1.27.21.37.18.15-.05.34-.19.38-.33.03-.1-.14-.3-.26-.39-.24-.16-.51-.28-.77-.41Z"/><path d="m125.82,35.92c1.21-.05,1.8-1.03,2.69-1.54-.03-.08-.07-.16-.1-.24-1.04.36-2.09.71-3.13,1.07-.04-.03-.08-.06-.12-.09.58-1.11,1.59-1.94,2.13-3.09-1,.58-2.1,1.01-2.68,2.19-.69-.81-1.36-1.6-2.04-2.4,1.56-.44,2.34-1.85,3.54-2.72.24-.17.37-.5.59-.82.36.44.69.84,1.01,1.23-.73-.22-1.13.28-1.57.68-.69.63-1.38,1.26-2.09,1.87-.38.33-.34.64-.04.97.29.32.6.34.95.09.77-.54,1.57-1.03,2.29-1.61.41-.33.71-.81,1.05-1.22.82.77.83.8.11,1.75-.5.66-.99,1.32-1.49,1.98.04.06.08.12.12.18.63-.2,1.25-.39,1.87-.59.21-.07.4-.18.61-.26.92-.36,1.24-.2,1.59.86-.93-.38-1.42.33-2.03.74-.55.36-1.07.77-1.59,1.16-.13.09-.31.18-.35.31-.07.24-.15.61-.03.73.15.16.57.26.76.17,1-.5,1.97-1.05,2.93-1.61.34-.19.64-.45.93-.65.22.38.62.93.87,1.54.24.57-.08,1.09-.48,1.5-.46.47-1.01.73-1.67.49-.24-.09-.46-.24-.65-.41-.73-.65-1.2-.62-1.84.16-.1.12-.2.24-.31.35-.02.02-.07,0,0,0-.62-.95-1.2-1.85-1.82-2.8Zm4.77,2.31c.54-.38,1.06-.7,1.5-1.09.12-.11.1-.5,0-.69-.06-.11-.43-.15-.61-.08-.45.18-.9.42-1.3.69-.18.12-.43.5-.39.55.18.23.45.37.8.62Z"/><path d="m117.3,80.81c-.32.06-.66.08-.97.19-.16.06-.26.28-.39.42.15.08.31.22.46.23.51.03,1.02.01,1.54.09-.32.07-.64.16-.96.22-.36.07-.53.27-.44.64.08.35.28.56.68.51.26-.03.52-.04.79-.05.01.06.02.11.03.17-.19.07-.39.12-.57.21-.14.07-.26.18-.39.27.14.13.27.35.42.36.43.04.87,0,1.31,0,.18,0,.37,0,.55,0,.01.08.03.16.04.24-.57.09-1.14.19-1.71.28.1.7.21.76.86.66.41-.06.84-.06,1.26-.08v.23c-.29.03-.6.05-.9.1-.29.05-.63.07-.58.51.04.42.33.42.66.41.45-.02.9,0,1.38.12-.33.1-.66.22-1,.29-.42.09-.49.32-.38.7.21.72.18.69-.57.85-1.98.43-3.96.9-5.94,1.34-.5.11-1,.2-1.38.27-.7-2.33-1.38-4.61-2.06-6.89.06-.02.13-.04.19-.06.35.96.72,1.91,1.05,2.87.35,1,.65,2,.99,3,.14.41.4.64.86.5.53-.16.38-.53.25-.87-.61-1.64-1.23-3.28-1.84-4.92-.05-.14-.07-.29.02-.48.18.34.39.66.53,1.01.55,1.38,1.07,2.78,1.63,4.16.14.35.22.86.85.69.44-.12.59-.36.42-.8-.44-1.09-.86-2.18-1.3-3.27-.24-.6-.47-1.2-.71-1.8.07-.03.14-.06.21-.09.3.65.62,1.28.9,1.94.45,1.08.86,2.19,1.3,3.28.21.53.77.67,1.18.29.1-.09.13-.37.06-.51-.7-1.58-1.42-3.15-2.12-4.73-.06-.13-.07-.29-.1-.43.05-.02.1-.04.15-.07.31.58.63,1.16.92,1.76.51,1.04,1,2.08,1.5,3.12.05.11.1.27.18.3.27.11.56.16.84.24.03-.25.17-.55.08-.75-.5-1.15-1.06-2.27-1.59-3.41-.42-.9-.82-1.81-1.23-2.72-.04-.1-.05-.21.05-.37.37.75.74,1.5,1.12,2.25.71,1.4,1.42,2.81,2.13,4.21.04.09.09.2.16.25.21.12.43.2.64.3,0-.21.09-.46,0-.63-.73-1.5-1.49-2.98-2.25-4.46-.52-1.01-1.07-2-1.57-3.01-.06-.12.05-.48.14-.5.41-.09.85-.11,1.27-.15.01.05.03.11.04.16-.14.06-.3.11-.43.19-.19.13-.36.29-.54.44.22.2.42.51.68.57.37.09.79,0,1.19,0,.13,0,.25.03.38.04v.18Z"/><path d="m71.15,75.4c2.45.18,4.67-.65,6.94-.46,0,.05.01.1.02.15-.74.11-1.47.24-2.21.32-1.76.19-3.52.35-5.28.53-.1,0-.22,0-.29.06-.26.22-.51.46-.77.69.3.08.6.25.89.23,2.12-.15,4.24-.35,6.36-.53.11,0,.23,0,.35,0l.03.18c-.52.1-1.03.23-1.55.28-2.22.22-4.44.4-6.65.65-.41.05-.8.32-1.2.5-.19.08-.36.2-.53.3-.04-.04-.08-.09-.13-.13.1-.14.18-.3.31-.41,2.86-2.45,5.72-4.88,8.58-7.33.55-.47,1.07-.99,1.67-1.54.4.09.38.38.07.67-.26.24-.59.39-.88.61-.11.08-.18.23-.27.34.14.08.29.24.43.22.97-.07,1.94-.19,2.91-.28.38-.03.77,0,1.17.11-.67.1-1.34.2-2.01.3-.91.14-1.81.27-2.72.41-.66.1-1.27.29-1.71,1.11,2.87-.22,5.55-.82,8.29-.7-2.87.38-5.75.75-8.62,1.14-.67.09-1.12.5-1.55,1.23,2.89-.32,5.62-.62,8.34-.92.02.04.03.07.05.11-.27.09-.53.22-.81.25-1.68.23-3.35.43-5.03.64-.93.11-1.85.24-2.78.33-.58.06-1,.31-1.45.94Z"/><path d="m68.19,41.71c-.22.47-.44.95-.61,1.3-.41-.29-.78-.62-1.21-.83-.84-.42-1.69-.8-2.56-1.15-.32-.13-.69-.14-1.16-.23.45-.75.51-1.7,1.34-2.21.5-.31,1.14-.16,1.57.43.26.36.53.42.95.42.49,0,1,.16,1.48.32.27.09.56.32.71-.02.13-.3.23-.91.09-1-1.27-.85-2.51-1.81-4.11-2.17,0-.03,0-.16.04-.25.34-.58.7-1.15,1.05-1.73.18-.3.41-.53.78-.33.36.19.82.35.73.93-.23-.13-.46-.37-.62-.33-.31.08-.67.25-.86.5-.24.31.02.6.33.77.4.21.81.41,1.22.61.05-.06.1-.12.15-.18-.11-.27-.23-.55-.34-.82.04-.05.08-.1.11-.15.48.29.96.58,1.44.88-.02.05-.03.1-.05.15-.27.06-.55.13-.99.23.57.58,1.12.93,1.75,1.14.11.04.47-.26.47-.4,0-.43-.11-.86-.22-1.29-.04-.15-.16-.29-.25-.43l.14-.15c.37.26.77.5,1.11.8.08.07.04.38-.04.53-.53,1-1.09,1.98-1.62,2.98-.3.56-.77.57-1.28.44-.35-.09-.68-.23-1.02-.35-.51-.19-.76.14-.91.52-.17.43.24.5.49.59.6.21,1.13.74,1.92.47Zm-3.93-2.66c-.28.24-.55.39-.65.62-.05.11.22.42.4.54.28.18.6.32.93.4.15.04.42-.03.5-.14.1-.15.15-.5.06-.57-.35-.3-.76-.53-1.23-.85Z"/><path d="m85.27,18.56c.61-.2,1.27-.43,1.94-.6.27-.07.76-.1.84.05.22.35.26.81.38,1.22-.06.02-.11.04-.17.06-.04-.03-.1-.06-.11-.1-.16-.52-.49-.83-1.05-.76-.19.02-.52.24-.5.3.11.53.29,1.06.48,1.57,0,.02.36-.03.48-.13.17-.13.28-.35.48-.61.13.66.22,1.18.34,1.79-.39-.19-.69-.34-.99-.49l-.12.1c.17.54.29,1.1.52,1.61.07.16.49.35.62.28.28-.15.55-.42.7-.71.16-.32.18-.72.25-1.08.08,0,.16.02.23.02.02.26,0,.54.09.78.06.16.28.26.42.38.09-.17.27-.35.24-.49-.31-1.43-.66-2.85-1.01-4.33,1.27-.97,3.24-.29,3.64,1.42.15.63.15,1.31.1,1.95-.08.94-.64,1.39-1.56,1.62-1.42.37-2.82.82-4.23,1.23-.12.03-.26.01-.38.02.01-.12.03-.24.04-.37.02-.19.09-.39.04-.55-.29-.93-.57-1.86-.92-2.77-.19-.48-.49-.92-.76-1.41Zm7.25,2.1c-.21-.77-.42-1.67-.7-2.56-.16-.52-.58-.73-1.13-.66-.35.04-.48.16-.38.55.28,1.12.49,2.25.77,3.36.06.25.3.66.43.65.27-.03.57-.23.75-.45.15-.18.15-.48.25-.89Z"/><path d="m70.04,74.39c-.5-.43-1-.86-1.5-1.3-.69-.6-1.37-1.22-2.06-1.82-.37-.32-.74-.33-1.15.13,1.14,1.12,2.28,2.22,3.41,3.33-.04.05-.09.11-.13.16-.2-.14-.41-.26-.58-.42-.89-.83-1.77-1.66-2.66-2.5-.09-.08-.17-.21-.27-.22-.23-.03-.48,0-.72,0,.05.21.03.49.15.62.98,1.07,1.99,2.11,2.99,3.16.05.06.1.12.08.27-.21-.15-.44-.28-.62-.46-1.11-1.09-2.21-2.19-3.32-3.28-.27-.27-.27-.46.1-.63,2.07-.94,4.13-1.88,6.2-2.82.67-.3,1.35-.58,2.01-.9.16-.08.29-.26.39-.42.23-.38.58-.36.67-.02.27,1.04,1.18,1.52,1.8,2.25.08.1.16.2.17.4-.11-.05-.23-.07-.31-.14-.56-.47-1.12-.96-1.68-1.44-.15-.13-.32-.27-.5-.31-.14-.03-.38.04-.46.15-.06.08.01.34.11.45.51.57,1.05,1.11,1.58,1.66-.04.05-.09.1-.13.15-.39-.34-.78-.68-1.17-1.02-.32-.27-.61-.59-.97-.77-.19-.1-.5.03-.76.06.07.2.09.44.22.59.45.53.94,1.03,1.41,1.55.14.16.25.34.37.51-.04.04-.07.07-.11.11-.38-.34-.76-.68-1.14-1.03-.32-.3-.63-.61-.96-.89-.18-.15-.4-.27-.62-.32-.15-.04-.33.07-.49.11.05.16.06.35.16.46.62.7,1.26,1.38,1.89,2.07.12.14.23.29.24.54-.1-.07-.21-.13-.3-.21-.75-.74-1.49-1.49-2.24-2.23-.08-.08-.19-.22-.28-.21-.26.02-.52.09-.77.15.06.22.04.52.18.66.62.64,1.29,1.24,1.94,1.86.12.12.23.25.34.37-.03.04-.06.08-.09.12-.11-.07-.24-.13-.34-.22-.8-.71-1.61-1.42-2.4-2.16-.32-.3-.63-.25-.89,0-.32.31.03.49.22.67.95.91,1.91,1.8,2.86,2.71.1.1.17.24.25.36l-.1.1Z"/><path d="m116.68,26.89c.42-.38.79-.64,1.04-.98.59-.78,1.14-1.58,1.67-2.4.11-.17.07-.43.1-.64-.26.01-.55-.05-.76.06-.26.13-.46.39-.68.6-.07-.05-.13-.1-.2-.14.29-.44.56-.89.89-1.3.05-.07.35-.02.48.06.76.51,1.5,1.04,2.24,1.59.1.08.22.32.17.39-.28.45-.6.87-.91,1.31-.07-.04-.14-.09-.21-.13.13-.25.24-.52.38-.76.19-.34.14-.6-.18-.82-.37-.25-.49.06-.64.28-.62.88-1.23,1.76-1.85,2.64-.25.36-.38.72,0,1.06.36.33.72.4,1.17.08,1.15-.82,2.34-1.58,3.51-2.37.12-.08.27-.13.58-.27-.79,1.91-1.52,3.66-2.26,5.44-.28-.24-.67-.57-1.11-.95.19-.11.33-.14.38-.22.22-.31.55-.63.56-.95,0-.23-.44-.65-.7-.66-.33-.01-.83.23-.97.5-.32.66-.52.41-.89.07-.46-.43-1-.78-1.5-1.17-.14-.11-.27-.25-.31-.29Zm5.26-.18c-.05-.05-.1-.11-.15-.16-.31.22-.65.41-.92.67-.07.06.01.41.13.51.09.08.43.03.5-.07.19-.29.3-.63.45-.95Z"/><path d="m105.07,22.25c-1.03-.17-2.02-.32-2.92-.47.4-1.74.8-3.47.57-5.35.43.05.93.11,1.47.17-.88,1.32-.49,2.86-.89,4.25-.11.39.04.72.47.83.44.12.68-.12.78-.52.27-1.1.56-2.2.78-3.31.06-.32-.09-.69-.14-1.03.83-.02,1.3.29,1.5,1.06.15.6.27,1.2.43,1.8.05.22.16.42.24.63.07,0,.13,0,.2,0,.18-.93.35-1.86.54-2.86.16.03.38.05.56.14.08.04.13.34.09.37-.7.49-.59,1.3-.79,1.98-.24.8-.41,1.62-.64,2.42-.04.15-.18.26-.32.47-.38-1.61-.74-3.11-1.09-4.6l-.3.02c-.16,1.34-.94,2.57-.51,4.01Z"/><path d="m114.45,25.46c-1.21-.52-2.42-1.05-3.63-1.56-.13-.05-.27-.07-.41-.09-1.59-.17-2.37-1.09-2.17-2.65.15-1.13.65-2.08,1.6-2.76.7-.5,2.02-.28,2.51.43.19.27-.19,1.19-.63,1.46,0-.27,0-.51,0-.76-.02-.45-.18-.82-.64-.98-.44-.15-.85.03-1.02.41-.44.99-.85,1.99-1.17,3.03-.09.28.14.73.35,1.01.33.44.79.42,1.18.01.26-.27.47-.58.7-.88.06.01.11.03.17.04-.14.48-.27.96-.4,1.43.57.27.85.18,1.09-.33.33-.72.69-1.44.98-2.18.23-.59.37-1.21.57-1.89.34.17.8.39,1.14.56-.38.67-.74,1.22-1.03,1.81-.32.64-.59,1.3-.88,1.96-.16.36-.29.73.14,1.01.43.28.8.1,1.12-.23.18-.19.35-.4.52-.6.05.03.11.07.16.1-.1.24-.16.5-.3.72-.21.34-.22.62.11.87-.01.02-.03.04-.04.05Z"/><path d="m65.71,50.39c-1.72-.53-3.43-.92-5.3-.66.03-.41.07-.88.12-1.43,1.34.67,2.77.61,4.14.84.34.06.79.28.96-.26.16-.53-.1-.83-.58-1.08-1.15-.59-2.27-1.24-3.39-1.87-.19-.11-.33-.28-.62-.53,2.05-.22,3.97.02,5.84-.57-.09.47-.2.99-.32,1.63-.18-.14-.29-.31-.42-.33-.35-.04-.77-.13-1.04.03-.21.12-.37.61-.3.87.07.25.43.53.7.59.72.16.78.21.61.94-.14.61-.27,1.23-.4,1.84Zm-2.52-4.34c-.03.08-.05.17-.08.25.27.16.52.37.8.45.12.04.32-.2.49-.31-.12-.13-.23-.34-.37-.38-.27-.06-.56-.02-.85-.02Z"/><path d="m126.71,77.63c-.8.43-1.59.87-2.39,1.29-1.32.69-2.65,1.37-3.98,2.06-.16.08-.39.13-.46.27-.11.2-.17.48-.11.69.03.11.38.25.52.2.66-.22,1.3-.49,1.94-.78,1.74-.79,3.48-1.6,5.21-2.4.12-.05.25-.09.37-.13.02.04.05.09.07.13-.47.26-.93.55-1.41.79-1.89.94-3.79,1.85-5.68,2.8-.19.1-.46.44-.41.54.16.36.47.47.89.27,2.21-1.05,4.42-2.09,6.64-3.13.03.04.06.08.1.12-.09.1-.17.23-.28.29-1.99.97-3.97,1.94-5.97,2.89-.63.3-.72.62-.34,1.21.26.41.48.85.71,1.27-.05.05-.11.1-.16.14-.14-.12-.33-.21-.41-.36-.78-1.36-1.54-2.74-2.3-4.11-.15-.27-.29-.55-.51-.95.85.4,1.36-.16,1.93-.42,1.89-.88,3.76-1.82,5.64-2.74.1-.05.21-.06.32-.09.02.05.04.09.06.14Z"/><path d="m112.33,79.46c-.03.66-.06,1.31.5,1.83.25.23.11.47-.22.47-1.03.01-2.06.02-3.1-.02-.36-.01-.45-.32-.19-.54.58-.48.56-1.09.5-1.74-.02-.26-.05-.52-.05-.77,0-.46.2-.76.54-1.14.55-.63.79-.41,1.33-.05.57.38.78.8.71,1.43-.02.18-.02.36-.03.54Zm-1.9.24s0,0,0,0c0,.2-.05.41.01.59.07.2.24.36.37.54.14-.18.34-.35.4-.55.1-.34.07-.71.16-1.05.1-.37-.09-.52-.37-.5-.2.01-.45.16-.55.33-.09.16-.02.42-.02.64Z"/><path d="m93.8,22c0-1.93.09-3.66-.56-5.39.78-.08,1.62-.22,2.45-.23.53,0,.7.84.32,1.44-.2-.29-.36-.63-.61-.86-.16-.14-.5-.2-.69-.13-.15.06-.28.39-.27.59.02.47.12.93.19,1.39.12.06.24.11.36.17.16-.35.32-.69.48-1.04.06.06.12.13.18.19v1.7c-.1,0-.15.02-.18,0-.26-.14-.51-.28-.77-.42,0,.28-.03.57-.02.85,0,.2.06.39.08.59.08.74.39.92,1,.49.27-.19.44-.53.63-.82.09-.15.11-.35.16-.53.07,0,.14,0,.22.01.02.47.04.94.04,1.41,0,.06-.13.16-.22.17-.93.14-1.86.26-2.78.38Z"/><path d="m62.71,58.95c-.68-.24-1.38-.37-1.96-.71-.84-.49-.94-1.52-.33-2.28.89-1.12,3.61-1.33,4.67-.36.86.78.76,2.02-.28,2.59-.63.34-1.36.5-2.1.76Zm-.31-.87c.75-.16,1.54-.3,2.3-.5.46-.12.59-.49.57-.93-.03-.43-.28-.68-.68-.7-.85-.04-1.7-.08-2.55-.04-.4.02-.85.13-1.17.35-.23.15-.4.55-.4.83,0,.21.28.52.51.61.43.18.91.24,1.42.37Z"/><path d="m61.76,51.28c-.18.08-.35.18-.53.25-.43.18-.76.43-.79.94-.03.5.35.7.72.84,1.05.4,2.14.43,3.24.27.19-.03.45-.1.53-.24.16-.27.3-.61.27-.9-.02-.16-.39-.38-.62-.4-.4-.03-.81.07-1.27.12v-1.31c.69.12,1.36.23,2.11.36.07.43.22.97.23,1.51.02.69-.63,1.38-1.47,1.62-1.12.33-2.21.21-3.22-.42-.95-.6-1.22-1.7-.66-2.66.04-.07.15-.15.23-.15.39-.02.78,0,1.17,0,.02.06.04.12.06.18Z"/><path d="m60.86,62.22c-.14-.64-.36-1.4-.47-2.18-.09-.62.71-1,1.46-.63-.22.12-.38.19-.53.28-.35.21-.55.49-.44.94.12.48.5.4.82.36.4-.05.8-.15,1.35-.26-.34-.41-.58-.7-.87-1.05h1.9c-.3.35-.5.58-.7.81.87.02,1.75.2,2.53-.66.11.66.19,1.2.28,1.75-.05.05-.1.11-.15.16-.39-.76-.94-.49-1.48-.38-.64.13-1.3.19-1.94.34-.57.13-1.13.32-1.76.51Z"/><path d="m84.43,20.2c-.17-.09-.36-.16-.5-.29-.35-.32-.67-.35-.94.07-.25.38-.06,1.03.35,1.16.37.12.78.18,1.17.18.72.01,1.2.36,1.51.98.29.57.36,1.17-.02,1.7-.42.6-1.11.74-1.78.83-.09.01-.25-.08-.29-.16-.16-.37-.29-.75-.43-1.13.04-.03.08-.07.12-.1.24.18.49.34.71.54.35.31.71.32,1.1.1.39-.22.44-.55.36-.97-.09-.45-.32-.66-.77-.67-.32-.01-.63-.05-.95-.09-.97-.11-1.66-.92-1.63-1.89.02-.72.77-1.46,1.44-1.29.3.08.5.55.74.84-.07.06-.13.13-.2.19Z"/><path d="m99.5,17.37c-.11-.14-.21-.29-.34-.41-.17-.16-.42-.43-.55-.39-.27.08-.56.3-.71.54-.09.16-.02.5.1.68.15.22.43.34.66.5.31.22.64.41.91.67.61.57.69,1.22.29,1.94-.45.8-.86.97-1.78.75-.02,0-.04,0-.06-.01-.97-.23-1.1-.52-.67-1.62.14.28.27.49.36.72.21.5.61.75,1.09.58.3-.1.63-.43.74-.74.16-.47-.26-.74-.63-.96-.32-.19-.69-.33-.97-.57-.91-.77-.69-2.45.39-2.83.34-.12.85-.05,1.16.14.19.11.16.6.23.92l-.23.09Z"/><path d="m80.22,27.04c-.23-.41-.46-.81-.68-1.21.03-.04.06-.07.09-.11.13.06.26.11.39.17.23.11.45.26.7.32.47.12,1.03-.26,1.08-.7.06-.48-.31-.95-.81-.99-.42-.03-.84,0-1.25,0-1.04-.04-1.92-1.14-1.59-2.12.15-.42.63-.77,1.04-1.03.11-.07.52.32.77.53.08.06.06.24.1.48-.24-.11-.39-.15-.5-.24-.4-.31-.75-.36-1.04.14-.24.41-.06.96.44,1.11.39.11.82.09,1.23.07.89-.05,1.55.37,1.84,1.21.33.97-.03,1.67-1,2-.26.08-.49.24-.82.4Z"/><path d="m110.06,92c-.11-.23-.26-.44-.32-.68-.55-2.16-1.07-4.32-1.62-6.48-.39-1.54-.82-3.07-1.23-4.6-.09-.33-.15-.67-.18-1.02.84,1.35,3.76,12.01,3.34,12.78Z"/><path d="m114.49,25.41c.28-.23.64-.42.83-.71.52-.82.99-1.68,1.43-2.55.18-.36.24-.77.37-1.22.42.22.84.44,1.25.67-.77.3-.93.98-1.23,1.54-.29.54-.62,1.07-.89,1.62-.23.47-.41.96-.67,1.57-.37-.29-.74-.57-1.11-.86.01-.02.03-.03.04-.05Z"/><path d="m131.65,68.76c-.12.2-.29.38-.36.6-.07.21-.04.46-.05.69.31-.05.69,0,.91-.17.33-.25.55-.64.82-.98.06.04.11.08.17.12-.21.33-.4.68-.64.99-.19.26-.3.48.03.69.29.18.6.38.9.02.21-.26.4-.55.6-.81.11-.15.24-.28.44-.36-.28.7-.56,1.4-.86,2.17-.33-.17-.78-.4-1.23-.63-.92-.47-1.83-.95-2.75-1.42-.62-.31-.64-.5-.08-.88.27-.19.52-.4.88-.51-.11.17-.25.33-.31.52-.07.21-.15.51-.05.64.21.28.52.24.77-.03.23-.25.45-.51.67-.77.05.04.1.09.15.13Z"/><path d="m134.51,66.48c-.08.24-.18.47-.23.71-.05.2-.11.44-.05.62.05.15.27.34.42.33.12,0,.29-.23.36-.38.14-.33.23-.68.33-1.02.06.02.11.03.17.05-.08.55-.14,1.11-.28,1.64-.03.11-.36.25-.51.21-1.08-.28-2.15-.59-3.21-.92-.13-.04-.2-.28-.3-.43.15-.04.31-.12.45-.09.26.05.55.29.76.22.16-.05.21-.45.31-.69.03-.06.09-.11.26-.29,0,.34.04.53,0,.69-.08.26-.11.53.22.54.23,0,.55-.11.68-.29.21-.28.29-.66.43-.99.07.03.14.06.21.09Z"/><path d="m124.95,71.24c1.22.35,6.4,4.5,6.38,5.26-2.16-1.78-4.22-3.48-6.38-5.26Z"/><path d="m124.83,73.87c.12.08.26.14.37.23,1.43,1.2,2.87,2.4,4.29,3.62.18.16.27.43.28.74-1.93-1.24-3.45-2.89-5.08-4.42.04-.05.09-.11.13-.16Z"/><path d="m125.78,70.29c1.21.43,6.29,4.13,6.41,4.73-.22-.08-.42-.1-.56-.21-1.91-1.43-3.81-2.87-5.71-4.31-.05-.04-.08-.12-.14-.22Z"/><path d="m62.77,70.54c2.16-1.36,4.57-2.19,7-3.31-.46.55-6.51,3.47-7,3.31Z"/><path d="m75.17,78.25c-.9.13-1.79.26-2.69.39-1.3.19-2.59.38-3.89.57-.08.01-.17.05-.23.02-.15-.05-.29-.14-.44-.21.13-.1.24-.24.38-.28.27-.07.55-.08.82-.11,2.01-.2,4.02-.39,6.03-.58,0,.06.01.13.02.19Z"/><path d="m67.52,67.09c-.69.37-1.34.73-1.99,1.08-.87.47-1.74.95-2.63,1.39-.15.07-.36.01-.54.01.09-.17.13-.44.27-.51,1.57-.71,3.16-1.39,4.74-2.07.02,0,.06.03.16.09Z"/><path d="m130.48,77.35c-1.81-1.44-3.63-2.88-5.44-4.32.05-.07.1-.13.16-.2,1.81,1.45,3.78,2.69,5.52,4.22-.08.1-.16.2-.24.29Z"/><path d="m133.07,73.31c-.58.15-4.99-2.9-5.27-3.63,1.76,1.21,3.52,2.42,5.27,3.63Z"/><path d="m66.09,65.93c-.24.05-.48.13-.73.15-1.31.07-2.61.14-3.92.18-.16,0-.33-.19-.5-.29.16-.1.33-.28.49-.27,1.17.02,2.34.08,3.51.12.37.01.74,0,1.11,0,.01.04.02.07.04.11Z"/><path d="m68.75,79.78c1.61-.09,3.23-.18,4.86-.27-.44.46-4.37.83-4.85.46,0-.07,0-.13,0-.2Z"/><path d="m131.78,65.85c1.45-.18,2.89-.48,4.36-.18-1.44.4-2.9.28-4.36.18Z"/><path d="m95.49,78.11c.98.85,1.83,1.82,2.71,2.89-.18,0-.25.02-.28,0-.81-.71-1.62-1.41-2.4-2.14-.15-.14-.18-.41-.26-.61l.22-.13Z"/><path d="m121.63,84.73c1.17-.94,2.51-1.13,3.71-1.79-.28.52-2.95,1.83-3.71,1.79Z"/><path d="m65.12,66.78c-.97.49-1.86.95-2.76,1.39-.12.06-.32-.02-.48-.04.05-.12.06-.3.14-.34.95-.37,1.92-.72,2.88-1.08.03-.01.07.02.22.07Z"/><path d="m118.61,80.43c-.17-.33-.35-.67-.53-1.01.55.5,1.01.22,1.51-.06.43-.24.89-.41,1.34-.62.03.04.06.09.08.13-.77.5-1.54,1-2.4,1.55Z"/><path d="m76.28,69.72c-.6-.5-1.2-1.01-1.81-1.51.05-.06.1-.13.15-.19.63.47,1.25.95,1.88,1.42-.07.1-.15.19-.22.29Z"/><path d="m97.84,79.15c-.32-.29-.65-.59-.97-.88.06-.07.13-.14.19-.21.33.29.65.59.98.88-.07.07-.14.14-.2.21Z"/><path d="m89.86,50.86c-.26-.17-.45-.3-.65-.43.21-.13.42-.35.64-.36.24,0,.48.19.72.3-.21.14-.42.29-.72.49Z"/><path d="m80,59.04c.08.35,0,.6-.41.6-.32,0-.67.02-.71-.43-.05-.5.27-.97.66-.98.32,0,.42.16.46.81Z"/><path d="m82.26,59.13c-.38.23-.59.43-.82.46-.31.04-.69-.04-.64-.49.05-.39.17-.88.65-.84.24.02.45.46.81.87Z"/><path d="m78,59.03c-.02.44-.28.6-.67.6-.35,0-.6-.15-.53-.53.06-.35.08-.81.58-.83.49-.02.58.38.62.76Z"/><path d="m82.79,58.87c.28-.29.46-.62.66-.64.4-.04.64.27.63.69,0,.43-.29.7-.67.66-.2-.02-.36-.38-.62-.7Z"/><path d="m85.35,59.6c-.14-.24-.37-.46-.41-.71-.05-.36.23-.66.59-.56.26.07.62.37.64.6.02.21-.35.46-.55.69-.09,0-.18,0-.27-.01Z"/><path d="m93.56,66.8c.19.26.49.49.54.77.08.39-.17.67-.63.68-.47.01-.71-.25-.73-.68-.02-.44.28-.62.82-.77Z"/><path d="m89.11,67.38c-.02.49-.28.78-.73.81-.5.03-.55-.39-.56-.74,0-.41.21-.67.66-.66.4,0,.62.21.63.6Z"/><path d="m86.84,67.58c-.43.3-.66.58-.92.61-.43.05-.55-.3-.54-.68.01-.37.12-.75.55-.66.28.06.5.39.91.73Z"/><path d="m91.75,67.58c-.33.29-.52.6-.73.61-.51.02-.57-.46-.52-.81.03-.21.34-.38.53-.56.2.21.4.42.73.76Z"/><path d="m121.43,60c-.17.12-.39.39-.65.43-.49.08-1.15-.48-.98-.79.16-.28.57-.53.9-.59.5-.1.67.31.73.95Z"/><path d="m117.71,59.58c0-.51.32-.65.68-.64.43,0,.64.31.63.72-.02.4-.18.75-.65.79-.38.03-.66-.39-.65-.86Z"/><path d="m117,59.77c-.23.25-.46.5-.69.75-.24-.28-.57-.52-.68-.85-.04-.13.37-.54.63-.61.35-.09.64.15.74.71Z"/><path d="m112.65,72.2c-.18-.18-.5-.33-.53-.53-.1-.72.19-1.19.63-1.18.4.01.68.46.7,1.08.01.5-.35.49-.79.63Z"/><path d="m111.55,71.47c-.11.19-.2.54-.34.56-.32.04-.66-.09-1-.15.09-.41.13-.85.3-1.23.04-.09.48-.01.74-.01-.26.34-.45.59-.64.83h.93Z"/><path d="m114.62,71.09c.06.15.13.3.18.46.03.12.08.32.03.36-.11.08-.3.15-.42.11-.11-.04-.23-.21-.24-.33-.02-.21.01-.44.08-.64.05-.14.19-.25.29-.37.07.12.14.24.21.35l-.13.06Z"/><path d="m96.06,72.44c.38-.22.66-.49.76-.43.33.19.68.45.85.78.14.27-.41.81-.71.66-.32-.16-.53-.57-.9-1Z"/><path d="m95.95,72.66c-.37.34-.61.56-.84.77-.16-.24-.42-.45-.47-.71-.08-.37.15-.7.56-.64.22.03.4.3.75.58Z"/><path d="m98.86,72.71c-.09-.06-.15-.08-.19-.11-.14-.11-.27-.22-.41-.33.13-.07.28-.23.38-.2.18.04.49.21.48.3-.03.35-.14.71-.29,1.03-.03.06-.37-.03-.56-.05,0-.06,0-.12,0-.19.18-.13.36-.26.6-.44Z"/><path d="m93.44,72.79c-.08-.07-.15-.13-.21-.2-.08-.11-.14-.24-.22-.36.1-.06.2-.16.29-.15.14.02.38.1.39.18.04.32.05.66,0,.98-.02.1-.27.19-.43.22-.07.01-.16-.13-.25-.2.1-.1.2-.2.3-.31.04-.04.07-.09.13-.16Z"/><path d="m106.34,45.91c-.28.28-.45.45-.63.62-.15-.2-.41-.4-.42-.61,0-.2.24-.42.37-.63.19.18.38.35.68.62Z"/><path d="m107.31,48.14c-.27-.3-.43-.48-.6-.66.18-.13.36-.38.53-.37.21,0,.41.23.62.35-.15.19-.3.37-.56.68Z"/><path d="m106.13,72.64c.12-.21.18-.43.32-.51.11-.06.39-.02.48.08.28.32.51.24.83.07.52-.28.9-.13.95.34.02.2-.05.55-.17.6-.22.09-.57.09-.75-.04-.26-.2-.41-.21-.67-.04-.18.11-.49.23-.62.15-.18-.11-.24-.41-.37-.65Z"/><path d="m106.13,72.79c-.44.25-.7.5-.98.53-.32.03-.59-.2-.56-.6.03-.43.38-.51.68-.46.25.05.46.27.86.53Z"/><path d="m89.77,59.6c-.45,0-.84.01-1.23,0-.11,0-.24-.07-.31-.15-.34-.36-.05-1.77.4-1.99.35-.17.78.04.9.51.12.51.16,1.05.25,1.63Zm-.7-1.78c-.07,0-.14,0-.22,0-.31.28-.49.62-.29,1.06.05.1.19.18.31.21.04.01.19-.11.19-.17.02-.36,0-.73,0-1.09Z"/><path d="m107.27,67.82c-.14-.22-.43-.46-.39-.65.04-.22.35-.38.55-.57.16.19.42.38.44.59.02.19-.21.41-.34.62h-.26Z"/><path d="m105.73,66.31c.16.28.4.53.46.83.03.14-.27.35-.41.53-.17-.19-.44-.36-.47-.57-.04-.24.13-.52.21-.78.07,0,.14,0,.21-.01Z"/><path d="m120.89,67.12c-.23.16-.39.32-.44.3-.16-.1-.3-.26-.4-.42-.02-.03.21-.28.26-.26.17.06.31.2.58.39Z"/><path d="m119.43,67.07c-.31.14-.48.27-.63.25-.11-.01-.21-.22-.31-.34.13-.09.27-.24.4-.24.13,0,.26.15.53.33Z"/><path d="m121.87,67.47c-.16-.25-.31-.4-.28-.48.05-.14.22-.23.33-.35.08.09.23.19.22.28-.01.14-.13.27-.27.55Z"/><path d="m124.29,65.65c.18-.16.3-.26.42-.37.1.12.28.25.28.37,0,.13-.18.25-.28.37-.12-.11-.23-.21-.41-.37Z"/><path d="m127.65,65.45c-.26.16-.4.32-.52.3-.13-.02-.24-.2-.36-.31.12-.1.24-.26.37-.28.12-.01.26.13.51.28Z"/><path d="m125.8,66.03c-.16-.24-.3-.37-.31-.5,0-.1.16-.21.25-.32.12.12.28.23.34.38.03.07-.13.22-.28.44Z"/><path d="m74.59,59.23c-.31.2-.5.42-.61.38-.19-.06-.44-.26-.47-.44-.03-.16.2-.36.32-.54.21.17.42.33.76.6Z"/><path d="m110.79,45.06c-.28.26-.43.5-.62.54-.13.02-.46-.29-.43-.39.05-.22.24-.45.43-.56.08-.04.33.21.62.41Z"/><path d="m114.76,46.23c-.19-.23-.41-.38-.41-.53,0-.14.23-.28.36-.42.16.15.36.28.44.46.03.07-.2.26-.39.5Z"/></svg>