<svg xmlns="http://www.w3.org/2000/svg" id="Livello_1" width="420mm" height="297mm" viewBox="0 0 1190.55 841.89"><defs><style>.cls-1{stroke-width:0px;}</style></defs><path class="cls-1" d="m623.54,28.16c1.31.16,2.61.43,3.92.46,47.93,1.2,92.5,14.23,133.14,39.51,63.02,39.21,103.75,95.07,121.94,167.09,6.93,27.44,9.25,55.42,6.84,83.61-6.85,80.14-42.21,145.01-105.24,194.87-.86.68-1.79,1.28-2.96,2.12-.15-1.09-.32-1.84-.35-2.6-.98-21.04-.88-42.08.72-63.08,1.13-14.96,2.56-29.91,3.87-44.86.68-7.66,2.78-15.04,4.49-22.5,3.7-16.11,7.63-32.18,10.99-48.36,3.54-17.06,4.82-34.38,4.02-51.8-.38-8.29-1.63-16.44-5-24.16-.73-1.67-.51-3.75-.72-5.57,3.36-2.44,7.21-2.81,11.08-4.06-1.22-1.58-2.24-2.89-3.55-4.58,2.03-.97,3.75-2.1,5.63-2.64,5.42-1.55,9.31-5,12.33-9.53,2.26-3.39,4.48-6.84,6.42-10.42,8.26-15.31,14.8-31.38,20.88-47.65.14-.37.19-.78.38-1.54-1.64-.9-3.25-1.91-4.97-2.7-7.36-3.39-15.09-5.71-22.98-7.34-9.99-2.06-20.05-3.72-30.09-5.55-.3-.05-.59-.14-1.06-.25-.26-.88-.54-1.83-.8-2.69-10.25,2.67-20.47,5.34-30.99,8.08,0-1.27-.04-2.08,0-2.88.39-6.22.77-12.44,1.22-18.65.06-.77.29-1.66.74-2.25,4.57-6.01,5.47-13.06,5.91-20.26.04-.61-.05-1.23.02-1.84,1.3-11.61-12.82-20.69-22.52-17.52-3.54,1.16-6.48,2.92-8.49,6.12-1.86,2.97-3.29,6.1-3.91,9.58-.1.56-.31,1.1-.93,1.64-.07-.74-.15-1.48-.2-2.23-.76-11.29-7.02-13.08-14.33-13.76-2.1-.19-4.31.11-6.38.57-3.66.81-6.18,3.28-7.4,6.71-.87,2.46-1.21,5.14-1.55,7.75-.3,2.36-.07,4.9-3.77,5.01,1.13,3.92.52,7.82,2.99,11.06.47.62.3,1.76.38,2.66.39,4.48.66,8.97,3.02,13,.34.58.42,1.36.45,2.06.29,7.55.54,15.11.79,22.66,0,.29-.09.59-.19,1.22-14.31-.26-28.65-.53-43.27-.8-1.07,4.53-2.22,8.75-3.04,13.04-3.75,19.61-4.14,39.36-2.1,59.18.36,3.45.9,6.88,1.27,10.33.11,1,.11,2.06-.11,3.03-2.56,11.12-2.25,22.3-.7,33.5,1.36,9.84,3.71,19.46,6.74,28.89,1.02,3.17.31,5.45-1.9,7.36-2.11,1.82-3.3,4.11-4.37,6.54-3.93,8.93-6.68,18.19-7.91,27.89-.16,1.28-.02,2.61-.02,4.14,1.73-.24,3.31-.51,4.89-.67,1.38-.14,1.7-1.27,2.29-2.21,2.68-4.34,5.25-8.76,8.14-12.96,2.38-3.46,5.26-6.52,9.47-7.99,0-2.02.13-3.95-.02-5.86-.73-9.39-.57-18.75-.06-28.16.58-10.91.67-21.86-.47-32.76-.42-4.04-1.09-8.11-2.13-12.03-1.36-5.13-1.37-5.05-.57-10.44.75-5.04,1.21-10.14,1.47-15.24.31-6.02.26-12.05.36-18.07.01-.59,0-1.18.42-1.84.14.54.36,1.08.41,1.63.85,9.15,1.7,18.3,2.49,27.46.51,5.9,1.15,11.8,1.33,17.72.19,6.11-.11,12.23-.2,18.35-.14,9.5-.49,19-.37,28.49.07,5.7.9,11.39,1.35,17.09.76,9.67,1.26,19.37,2.28,29.01,1.56,14.82,3.48,29.6,5.21,44.4.12.99.14,2.04-.04,3.01-2.02,10.56-3.02,21.24-3.31,31.96-.1,3.71.77,7.5,1.52,11.18,3.81,18.7,7.75,37.37,11.59,56.06.91,4.4,1.69,8.82,2.4,13.25.17,1.03.06,2.27-.37,3.2-1.92,4.17-3.95,8.29-6.04,12.38-.5.97-1.32,1.8-2.09,2.61-2.96,3.11-6,6.13-8.92,9.28-2.8,3.02-4.71,6.6-6.29,10.66.9.2,1.55.47,2.21.48,2.76.04,5.53.17,8.27-.05,5.09-.4,9.72-1.78,11.78-7.1,2.37.73,4.46,1.5,6.62,1.98,1.37.31,2.86.38,4.25.22,4.49-.52,6.99-3.49,6.53-7.98-.35-3.34-1.16-6.63-1.69-9.95-.61-3.83-1.2-7.66-1.65-11.5-.14-1.18.02-2.48.39-3.61,2.77-8.37,7.07-16.02,11.27-24.01.32.46.59.67.58.87-.59,11.11-1.04,22.23-1.91,33.32-.36,4.55-1.64,9.03-2.51,13.53-.51,2.63-.19,5.09,1.83,7.45-.92.47-1.66.93-2.45,1.24-17.98,7.14-36.49,12.39-55.58,15.59-16.47,2.76-33.04,3.95-49.72,3.68-39.06-.64-76.36-9.1-111.5-26.12-61.19-29.64-105.45-75.79-132.72-138.09-9.92-22.67-16.2-46.4-19.41-70.95-2.75-20.96-3.1-41.96-.94-62.97,11.15-108.35,85.08-195.82,182.38-228.74,19.02-6.43,38.5-10.81,58.49-12.7,6.5-.62,13.04-.84,19.56-1.27,1.62-.11,3.23-.32,4.84-.49,2.66,0,5.31,0,7.97,0Zm-116.76,148.8c.07-.98.17-1.67.17-2.37,0-5.41.13-10.83-.06-16.24-.13-3.66-.32-7.39-1.14-10.94-2.8-12.09-9.66-20.77-21.88-24.52-4.06-1.25-8.26-1.3-12.45-.99-8.85.65-16.02,4.45-21.32,11.62-3.99,5.4-6.24,11.57-6.68,18.17-.54,8.03-.44,16.11-.59,24.17,0,.36.26.72.41,1.1h63.55Zm-63.85,126.48c.82.09,1.51.24,2.2.24,11.74,0,23.48.05,35.21-.06,2.94-.03,5.94-.3,8.8-.96,10.14-2.33,16.95-8.33,19.06-18.76.7-3.45.82-7.12.58-10.64-.75-11.02-7.51-19.19-18.22-21.94-3.51-.9-7.24-1.29-10.88-1.34-11.33-.17-22.66-.07-33.99-.06-.88,0-1.77.13-2.71.2v13.41c1.32,0,2.42,0,3.53,0,10.92,0,21.84-.06,32.76.05,2.52.02,5.12.32,7.53,1.03,5.5,1.61,8.11,5.53,8.09,11.52-.01,5.79-2.62,9.69-8.07,11.2-2.91.81-6.02,1.19-9.05,1.23-10.51.15-21.03.06-31.54.06-1.08,0-2.16,0-3.32,0v14.83Zm-2.12-89.66c0,.32,0,.64.01.96,7.27,3.6,14.54,7.21,21.82,10.81,7.4,3.66,14.78,7.36,22.21,10.97,7.25,3.53,14.38,7.34,21.94,10.64v-15.1c-3.16-1.46-6.18-2.86-9.23-4.28,0-8.2.02-16.16-.02-24.11,0-1.33.49-2.04,1.7-2.53,2.61-1.07,5.17-2.25,7.53-3.29v-15.96c-22.2,10.74-44.08,21.31-65.95,31.89Zm65.97,104.62c-3.79-.67-61.76-.49-63.78.15v14.58h63.78v-14.72Zm149.95,70.98c0,4.41.04,8.67-.01,12.93-.05,4.19.22,8.4-.38,12.6-.55-.69-.91-1.39-1.2-2.12-2.78-6.91-5.55-13.82-8.33-20.73-.27-.66-.48-1.36-.83-1.97-.78-1.38-2.3-1.4-3.07-.02-.39.71-.64,1.5-.95,2.26-2.25,5.58-4.49,11.17-6.75,16.75-.22.55-.61,1.04-1.06,1.8-.83-5.25-1.92-6.67-6.48-8.88-1.28-.62-2.56-1.26-3.8-1.97-1.55-.89-1.86-2.35-1.54-3.98.31-1.57,1.38-2.72,2.88-2.76,1.55-.04,3.16.42,4.67.9,1,.32,1.86,1.06,3.05,1.77.08-1.05.09-1.74.19-2.41.3-1.95-.58-3.16-2.39-3.65-1.46-.4-2.97-.86-4.46-.89-5.37-.08-8.95,4.12-8.22,9.45.39,2.79,2.11,4.57,4.45,5.86,1.79.98,3.67,1.79,5.4,2.86,1.66,1.03,2.11,2.68,1.54,4.55-.51,1.67-1.78,2.81-3.65,2.63-1.56-.15-3.12-.76-4.57-1.41-1.07-.48-1.95-1.37-3.09-2.21-.15,1.01-.26,1.78-.47,3.22-2.24-3.64-4.17-6.79-6.13-9.97.55-.51.94-.83,1.28-1.2,4.41-4.74,2.41-11.68-3.84-13.14-3.39-.79-6.81-.42-10.28-.28v28.78h4.14v-12.45c2.92-.56,5.02.04,6.46,2.55,1.52,2.66,3.19,5.23,4.79,7.84,1.4,2.28,2.99,3.16,5.24,2.12,1.11-.51,1.82-.36,2.74-.07,3.21,1.03,6.23.82,8.98-1.3.21-.17.49-.25.83-.42.07.67.12,1.23.17,1.77q3.82.44,5.17-2.98c.82-2.06,1.68-4.11,2.5-6.1h9.44c1.32,3.18,2.6,6.26,3.79,9.11h19.6v-3.76c-3.95-.26-7.7.14-11.65-.28v-24.78h-4.16Zm-100.03,2.77c.2-.04.39-.09.59-.13.42,1.01.86,2.01,1.26,3.03,2.82,7.23,5.6,14.47,8.46,21.68.3.76.93,1.77,1.58,1.92,1.36.32,1.42-1.11,1.82-1.99.17-.37.3-.76.45-1.14,2.68-6.95,5.36-13.9,8.06-20.85.31-.79.74-1.53,1.12-2.29.19.05.37.1.56.15v25.83c5.44.09,10.58.09,15.78.02v-4.01h-11.49v-8.76h10.86v-3.97h-10.86v-8.54h11.12v-3.72h-19.47c-2.56,6.64-5.09,13.19-7.86,20.4-2.78-7.24-5.32-13.85-7.83-20.39h-8.25v28.76h4.11v-25.99Zm-17.64,61.48v-20.46c1.2.56,1.86,1.27,2.46,2.03,4.34,5.55,8.71,11.08,12.96,16.7,1.29,1.71,2.68,2.36,5.07,1.44-.01-9.41.03-18.93-.02-28.41h-4.09c-.13,6.87.04,13.53-.38,20.23-.95-.71-1.61-1.47-2.23-2.26-4.21-5.39-8.51-10.72-12.58-16.22-1.47-1.98-3.03-2.36-5.26-1.67-.32,8.37.15,16.63-.53,24.88-.57-.61-.88-1.24-1.14-1.88-2.79-6.91-5.57-13.82-8.36-20.73-.23-.57-.4-1.17-.7-1.7-.79-1.44-2.24-1.5-3.07-.14-.21.34-.35.74-.5,1.12-3.34,8.34-6.69,16.67-10.01,25.01-.24.6-.3,1.26-.47,1.99h4.05c1.32-3.19,2.55-6.18,3.71-8.98h9.5c1.27,3.13,2.49,6.13,3.67,9.03h7.93Zm-53.91-.21c-2.84-4.7-5.6-9.28-8.66-14.36.48-.25,1.01-.41,1.38-.76,2.53-2.38,2.81-5.38,1.92-8.47-.85-2.97-3.25-4.55-6.13-4.83-3.2-.31-6.45-.07-10.05-.07v25.26c-.86-.65-1.18-1.36-1.47-2.08-2.79-6.91-5.57-13.81-8.35-20.72-.27-.66-.45-1.37-.82-1.98-.73-1.22-2.18-1.21-2.93,0-.27.43-.42.93-.61,1.4-3.31,8.23-6.62,16.47-9.91,24.71-.25.61-.34,1.29-.55,2.1h4.09c1.29-3.15,2.52-6.14,3.7-9.03h9.48c1.27,3.09,2.49,6.08,3.72,9.08,2.71.15,5.21.42,7.97-.22v-12.41c2.76-.35,4.88-.04,6.29,2.38,1.5,2.55,3.11,5.03,4.65,7.56q1.93,3.17,6.27,2.45Zm-6.66-78.17c-.39,5.39.25,6.4,4.48,7.63,6.64,1.92,12.18-2.74,11.25-9.46-.4-2.87-2.07-4.81-4.56-6.12-1.8-.95-3.67-1.79-5.43-2.8-1.38-.8-1.82-2.15-1.55-3.7.28-1.6,1.38-2.85,3.05-2.98,1.27-.1,2.63.14,3.85.53,1.04.34,1.92,1.14,2.89,1.69.24.13.57.1.88.15.15-.73.29-1.41.43-2.09h9.06c.33,8.34-.18,16.54.28,24.64h4.24v-24.9h9.09v-3.94h-22.45c-.29.54-.54,1.01-.8,1.51-.8-.4-1.32-.8-1.9-.91-1.88-.36-3.78-.89-5.67-.85-3.25.07-5.84,2.27-6.79,5.28-1.1,3.48-.31,6.81,2.49,8.79,1.98,1.4,4.27,2.36,6.39,3.59,2.13,1.23,2.8,2.99,2.1,5.14-.6,1.85-2.36,2.9-4.69,2.43-1.35-.27-2.63-1.01-3.88-1.66-.87-.46-1.62-1.13-2.76-1.95Zm-23.08-12.94c.23-.06.47-.11.7-.17.7.86,1.41,1.71,2.09,2.58,4.27,5.47,8.58,10.89,12.76,16.43,1.31,1.74,2.71,2.18,4.88,1.42-.03-9.58.06-19.11-.05-28.61h-4.12c-.1,6.85.03,13.5-.36,20.19-.94-.71-1.59-1.46-2.21-2.24-4.21-5.38-8.47-10.72-12.57-16.19-1.36-1.82-2.84-2.42-5.1-1.67v28.74c.73.06,1.32.15,1.91.15.59,0,1.18-.1,2.07-.19v-20.45Zm93.2,55.67c-.06-9.57.09-19.08-.09-28.52h-4.12c0,3.59.05,6.94-.01,10.3-.06,3.29.27,6.61-.29,10.38-.96-1.15-1.62-1.89-2.23-2.68-4.21-5.38-8.49-10.71-12.57-16.19-1.45-1.95-2.96-2.48-5.09-1.75-.66,5.24-.39,26.63.34,28.69h3.56v-20.48c1.19.55,1.85,1.26,2.44,2.02,4.33,5.54,8.7,11.06,12.95,16.67,1.27,1.67,2.6,2.5,5.12,1.56Zm14.88,70.94c.53-4.49.36-26.25-.21-28.48h-3.66c0,2.47,0,4.7,0,6.94s.07,4.5-.02,6.74c-.08,2.15.37,4.35-.38,6.86-.9-1.08-1.56-1.84-2.17-2.63-4.21-5.39-8.41-10.79-12.62-16.18-1.83-2.34-1.95-2.36-5.33-1.41.07,9.37-.13,18.81.13,28.24h4.08v-6.91c0-2.35-.07-4.7.02-7.05.08-2.15-.39-4.36.41-6.86.94,1.15,1.66,2,2.35,2.87,4.21,5.39,8.48,10.74,12.59,16.21,1.29,1.72,2.64,2.4,4.83,1.64Zm-120.38.29c4.72-.07,9.3.41,13.83-.36,3.27-.55,5.81-2.45,7.65-5.19,2.78-4.15,3.42-8.7,2.05-13.47-1.46-5.1-4.61-8.9-9.99-9.6-4.39-.58-8.91-.12-13.55-.12v28.74Zm120.27-35.58c4.28,0,8.25.14,12.2-.04,4.43-.2,7.67-2.58,9.86-6.34,2.28-3.9,2.67-8.11,1.49-12.42-1.76-6.4-6.32-9.93-12.94-10.09-2.86-.07-5.72-.04-8.57-.01-.68,0-1.35.17-2.04.27v28.64Zm-107.97-34.86c7.97.17,14.3-6.14,14.55-14.53.25-8.38-6.01-15.27-14.03-15.43-7.66-.15-14.22,6.42-14.43,14.44-.22,8.51,5.9,15.34,13.9,15.51Zm80.37,56.03c-3.24.02-6.15-.24-9.03.13v3.68c1.66.1,3.16.2,4.81.3v5.21c-.31.21-.54.43-.82.54-.47.2-.95.38-1.45.49-4.17.98-7.94.43-10.84-3.04-2.97-3.53-3.44-8.89-1.23-12.95,2.1-3.85,5.7-5.81,10.21-5.17,1.97.28,3.86,1.2,5.77,1.89.83.3,1.6.75,2.54,1.19v-4.36c-7.79-4.68-15.68-3.84-20.7,2.08-4.81,5.68-4.75,14.41.1,20.01,4.8,5.54,13.36,6.76,20.63,1.87v-11.89Zm29.92-120.93c0,1.25,0,2.25,0,3.25,0,4.09.03,8.17-.02,12.26-.02,1.42-.1,2.87-.41,4.26-.75,3.33-3.2,5.22-6.58,5.29-3.54.07-5.93-1.54-6.88-4.88-.39-1.35-.51-2.81-.53-4.23-.07-4.49-.02-8.99-.04-13.48,0-.78-.14-1.57-.23-2.4h-3.83c-.08.66-.18,1.15-.18,1.64,0,5.21-.02,10.42.05,15.63.02,1.31.25,2.65.58,3.93,1.29,5,5.23,8.08,10.47,8.3,5.17.22,9.35-2.62,11-7.57.38-1.15.68-2.38.7-3.59.12-5.72.13-11.44.15-17.15,0-.38-.21-.77-.35-1.25h-3.89Zm-68.08,35.48c0,4.77-.03,9.25.01,13.73.02,2.04,0,4.1.27,6.11.79,5.72,4.92,9.41,10.54,9.63,5.94.23,10.23-3.01,11.58-8.78.19-.79.42-1.6.42-2.41.02-5.92-.01-11.84-.05-17.76,0-.16-.22-.33-.33-.47h-3.83c0,1.18,0,2.18,0,3.18,0,4.29.02,8.58-.02,12.87,0,1.11-.08,2.26-.33,3.33-.91,3.87-3.37,5.72-7.25,5.59-3.54-.11-5.93-2.27-6.56-6.05-.2-1.2-.26-2.44-.27-3.66-.03-4.19,0-8.37-.02-12.56,0-.88-.14-1.77-.22-2.76h-3.94Zm101.53-23.12v-8.61h11.14v-3.68h-15.27c-.57,3.82-.42,26.59.18,28.85h15.32v-3.96h-11.41v-8.76h10.75v-3.84h-10.71Zm-114.26,110.24v-4.01h-10.73v-8.43c2,0,3.81.02,5.63,0,1.89-.02,3.78-.09,5.79-.13-.06-1.37-.11-2.36-.16-3.3-3.44-.64-13.37-.53-15.46.13v28.27c4.53.52,13.56.35,15.78-.3-.05-1.03-.11-2.1-.18-3.49h-11.39v-8.72h10.71Zm16.56-9.76c.79-4.5.86-5.24-4.09-6.6-.59-.16-1.2-.27-1.8-.31-5.09-.3-8.82,3.29-8.8,8.36.01,3.07,1.42,5.26,4,6.73,1.94,1.11,4.01,2.01,5.91,3.18,1.66,1.02,2.08,2.67,1.5,4.54-.53,1.68-1.8,2.9-3.62,2.69-1.65-.19-3.26-.93-4.81-1.62-.96-.43-1.78-1.2-2.76-1.89-.64,5.01-1.06,5.48,4.54,7.43.94.33,2,.44,3,.41,4.61-.11,8.09-3.61,8.15-8.22.05-3.33-1.39-5.91-4.33-7.54-1.87-1.04-3.85-1.88-5.67-2.98-1.61-.97-2.04-2.45-1.55-4.22.41-1.47,1.71-2.72,3.35-2.63,1.47.08,2.94.61,4.34,1.12.91.33,1.7.98,2.62,1.53Zm-24.88-48.51v-13.34h9.34v-3.96h-9.3v-7.63h10.19v-3.84h-14.47v28.76h4.23Zm69.59-64.45c-7.57-.02-15.05-.02-22.65,0v4.25h9.04c.24,8.4-.09,16.61.18,24.73h4.28v-24.89h9.15v-4.09Zm47.36,4.12c.05-1.05.13-1.66.1-2.26-.03-.57-.18-1.13-.27-1.64h-22.38v4.07h9.19v24.76h4.25v-24.93h9.12Zm-98.87,95.61v-24.69h9.13c.07-.98.16-1.58.14-2.19-.01-.57-.14-1.14-.21-1.65-5.04-.54-20.56-.35-22.85.3.07,1.13.14,2.3.22,3.7h9.23v24.66c1.08.08,1.78.17,2.48.17.49,0,.98-.15,1.86-.29Zm23.28-99.57v28.82h3.89c.58-4.14.42-26.61-.18-28.82h-3.71Zm-74.38-.05c-.73,3.53-.57,26.87.17,29.01.58.03,1.19.09,1.79.07.58-.02,1.15-.14,1.75-.22v-28.86h-3.7Zm61.36,106.46v28.65h3.95v-28.65h-3.95Z"/><path class="cls-1" d="m923.89,793.14h-5.87c-3.49-8.2-6.92-16.25-10.41-24.45h-31.29c-3.43,8.1-6.85,16.16-10.3,24.32h-5.81c.33-.93.58-1.76.92-2.55,9.53-22.12,19.07-44.23,28.62-66.34.2-.47.36-.96.62-1.4.94-1.64,2.29-1.64,3.22.02.35.62.59,1.3.87,1.96,9.18,21.27,18.35,42.54,27.54,63.8.59,1.36,1.27,2.69,1.92,4.03v.61Zm-31.58-60.93c-.22,0-.44.01-.66.02-4.38,10.35-8.75,20.7-13.24,31.31h27.09c-4.47-10.62-8.83-20.98-13.19-31.33Z"/><path class="cls-1" d="m760.68,260.41c3.88,6.01,7.04,12.08,9.33,18.53,2.86,8.07,5.38,16.26,7.94,24.43.42,1.32.47,2.82.41,4.22-.5,11.42-.82,22.86-1.67,34.25-1.6,21.42-6.82,42.04-14.4,62.1-.47,1.24-1.02,2.45-1.64,3.62-1.02,1.92-2.5,3.24-4.85,3.1-2.17-.13-3.09-1.69-3.85-3.45-2.89-6.68-5.07-13.62-6.32-20.75-1.58-8.93-2.67-17.96-3.74-26.97-1.84-15.47-.87-31.01-.57-46.51.2-10.74,1.84-21.34,4.86-31.67,2.13-7.28,5.72-13.74,11.56-18.77.54-.47,1.09-.92,1.66-1.35.32-.24.69-.42,1.29-.78Z"/><path class="cls-1" d="m792.28,253.14c2.79,1.99,4.43,4.15,5.77,6.55,2.12,3.8,3.21,7.94,3.79,12.21,1.35,9.78,1.1,19.56-.25,29.31-3.5,25.09-9.11,49.77-14.64,74.47-2.21,9.86-4.57,19.68-5.33,29.8-.08,1.11-.4,2.21-.65,3.3-.06.27-.28.51-.62,1.08-2.34-2.26-4.42-4.58-6.29-7.04-.53-.7-.51-1.95-.46-2.94.27-6.02.5-12.04.99-18.04.84-10.28,1.78-20.54,2.82-30.8,1.26-12.49,2.69-24.96,3.98-37.45,1.88-18.2,5.88-36.04,9.09-54.02.35-1.99,1.08-3.9,1.8-6.43Z"/><path class="cls-1" d="m776.66,528.24c-4.68-.52-7.34-2.5-7.9-6.81-1.79-13.69-6.3-26.81-8.19-40.47-1.39-10.05-1.68-20.15-1.32-30.25.56-15.66,3.48-31.01,6.82-46.28.17-.76.42-1.51.7-2.51.71.41,1.24.65,1.71.99,3.06,2.22,6.06,4.52,9.17,6.65,1.68,1.15,2.34,2.45,2.26,4.55-.39,9.9-.61,19.8-.86,29.7-.59,22.86-1.16,45.73-1.75,68.59-.12,4.59-.27,9.19-.42,13.78-.02.69-.14,1.37-.22,2.05Z"/><path class="cls-1" d="m721.63,214.58c-.24,9.48-.4,18.96-.76,28.44-.13,3.45-.48,6.94-1.22,10.3-.41,1.89-1.67,3.67-2.81,5.32-.88,1.27-2.17,1.42-3.8.83-2.43-.89-3.8-2.21-4.21-4.91-.85-5.54-2.15-11.01-3.02-16.55-.61-3.92-1.04-7.91-1.17-11.87-.41-13.06-.65-26.12-.94-39.18,0-.39.1-.78.2-1.47.73.47,1.35.76,1.84,1.19,4.7,4.08,9.35,8.23,14.1,12.25,1.77,1.5,2.79,3.15,2.37,5.52-.09.49-.01,1.01.31,1.58.23-.83.47-1.66.87-3.08,15.98,15.82,28.28,33.55,36.63,54.14-1.85,1.51-3.79,3.11-6.2,5.08-.61-.84-1.09-1.62-1.69-2.3-7.37-8.33-14.43-16.98-22.27-24.86-5.09-5.12-7.03-11-7.64-17.74-.08-.9-.15-1.8-.22-2.7-.13,0-.25,0-.38,0Z"/><path class="cls-1" d="m747.49,406.59q4.26,4.02,13.01,5.93c-.13,1.62-.16,3.32-.4,4.99-1.23,8.35-4.18,16.18-7.5,23.87-.44,1.02-1.16,1.92-1.76,2.87-8.18,12.94-16.62,25.72-24.43,38.88-4.04,6.81-6.87,14.34-10.41,21.47-3.22,6.49-6.65,12.87-10.03,19.27-.32.61-.97,1.06-1.46,1.59-.24-.1-.48-.2-.72-.31.11-1.24,0-2.55.36-3.71.69-2.23,1.44-4.49,2.54-6.54,2.71-5.09,4.39-10.5,5.77-16.07,4.21-17.03,8.36-34.1,14.12-50.69,2.81-8.09,5.91-16.1,9.38-23.92,2.09-4.72,5.07-9.06,7.82-13.46.94-1.51,2.39-2.7,3.72-4.16Z"/><path class="cls-1" d="m740.03,541.26c-.97-4.87-1.43-9.49-2.87-13.78-1.27-3.79-1.21-7.3-.43-11.04,3.28-15.79,6.49-31.59,9.72-47.39.96-4.7,1.96-9.39,2.84-14.11.44-2.34,1.16-4.51,2.56-6.47,1.22-1.72,2.28-3.55,3.85-5.12-.18,2.09-.26,4.19-.55,6.26-1.12,8.09-.57,16.07,1.1,24.05,2.95,14.08,5.78,28.19,8.63,42.29.64,3.2,1.42,6.42.37,9.68-.23.73-.57,1.64-1.15,2.01-7.71,4.99-15.7,9.49-24.05,13.61Z"/><path class="cls-1" d="m543.39,793.02h-43.26c-.61-2.27-.86-64.39-.28-70.59h5.59v65.73h34.06c2.84-6.58,5.76-13.32,8.67-20.06,6.07-14.05,12.13-28.1,18.2-42.16.32-.75.6-1.52.96-2.25.48-.95.63-2.25,2.2-2.12,1.36.11,1.49,1.26,1.87,2.14,7.17,16.58,14.31,33.16,21.46,49.75,2.38,5.53,4.78,11.05,7.15,16.58.39.92.73,1.86,1.17,2.99h-5.8c-3.42-8.01-6.89-16.13-10.4-24.36h-31.25c-3.42,8.04-6.87,16.18-10.35,24.35Zm26.11-61.27c-3.42,6.27-12.99,29.68-13.05,31.79,6.9.49,23.74.28,26.29-.39-4.39-10.4-8.76-20.77-13.24-31.39Z"/><path class="cls-1" d="m711.69,484.47c0-1.21,0-2.42,0-3.63.05-13.89.2-27.78.1-41.67-.05-7.45-.25-14.92-.86-22.34-.71-8.63.1-17.12,1.16-25.64,1.87-15.09,3.69-30.18,4.07-45.42.15-5.87,1.48-11.72,2.29-17.7,1.1-.31,2.03-.58,3.37-.95-.13,2.28-.2,4.19-.36,6.1-1.05,12.58-.28,25.1,1.09,37.6,1.2,10.96,2.6,21.89,3.79,32.85.27,2.52.1,5.1.01,7.65-.35,9.49-.75,18.98-1.15,28.46-.03.8-.17,1.62-.4,2.39-4.1,13.89-8.21,27.78-12.33,41.67-.06.19-.16.36-.24.54-.18.03-.37.06-.55.08Z"/><path class="cls-1" d="m742.01,636.57v61.32h-5.19c-.57-2.1-.83-64.36-.23-70.58,1.63-.04,3.35-.29,4.99-.02.83.13,1.64,1.1,2.25,1.86,6.96,8.55,13.88,17.14,20.81,25.71,1.27,1.57,2.56,3.14,4,4.9.76-.83,1.39-1.45,1.94-2.14,7.24-8.98,14.6-17.87,21.63-27.02,2.31-3,4.75-4.18,8.4-3.18,0,0,.07.05.14.13.07.07.18.15.19.24.07.5.18,1.01.18,1.51,0,22.56-.01,45.13-.03,67.69,0,.28-.17.57-.3.99h-5.49v-61.32c-.24-.09-.48-.19-.73-.28-8.51,10.59-17.02,21.18-25.83,32.14-8.8-10.88-17.41-21.52-26.02-32.16-.23.08-.47.15-.7.23Z"/><path class="cls-1" d="m323.57,722.33c1.06-.06,1.95-.16,2.85-.16,7.35,0,14.7-.06,22.05.02,5.42.06,10.86.44,15.95,2.46,12.2,4.84,18.98,14.2,21.12,26.83,1.92,11.36-.87,21.7-8.55,30.49-5.33,6.1-12.14,9.61-20.15,10.51-4.45.5-8.95.56-13.44.63-6.53.1-13.06.03-19.54.03-.65-2.33-.91-64.75-.29-70.81Zm5.95,66.16c8.92-.31,17.5-.21,26-1.02,9.75-.94,16.79-6.32,21.11-15.17,2.38-4.87,3.49-10.05,3.12-15.42-.23-3.43-.7-6.94-1.74-10.19-3.71-11.5-12.66-18.34-25.08-19.04-7.32-.41-14.68-.21-22.03-.25-.46,0-.92.23-1.38.36v60.73Z"/><path class="cls-1" d="m638.81,731.72v61.16h-5.17c-.62-2.19-.7-67.51-.01-70.59.74-.04,1.54-.03,2.32-.14,2.13-.29,3.57.54,4.92,2.25,6.4,8.09,12.92,16.08,19.4,24.1,1.66,2.05,3.34,4.08,5.16,6.29.83-.96,1.51-1.7,2.14-2.47,7.18-8.91,14.49-17.7,21.43-26.79,2.34-3.07,4.82-4,8.55-3.05v70.45h-5.44c-.16-3.33-.05-6.76-.07-10.18-.02-3.37,0-6.74,0-10.11v-40.96c-.21-.09-.42-.19-.63-.28-8.76,10.47-17.05,21.32-25.98,32.07-8.78-10.85-17.35-21.45-25.92-32.05-.23.1-.46.21-.69.31Z"/><path class="cls-1" d="m609.7,627.47c.48-.13.77-.28,1.05-.28,10.1.12,20.22-.15,30.29.48,19.67,1.22,29.43,16.89,30.87,30.33,1.25,11.69-1.86,22.04-10.27,30.52-5.15,5.19-11.47,8.14-18.67,8.95-4.35.49-8.75.56-13.13.63-6.62.1-13.25.03-19.82.03-.63-2.38-.88-64.76-.31-70.66Zm6.01,66c8.85-.3,17.34-.19,25.75-.98,9.89-.92,17.11-6.3,21.34-15.34,4.11-8.76,4.3-17.79.9-26.79-2.75-7.28-7.58-12.9-15.03-15.62-3.31-1.21-6.92-1.94-10.43-2.12-6.93-.37-13.88-.21-20.83-.24-.57,0-1.13.21-1.7.32v60.77Z"/><path class="cls-1" d="m797.11,793.14v-70.54c.4-.14.76-.39,1.13-.39,10,.1,20.01-.15,29.98.45,15.86.96,27.88,12.02,30.72,27.64,2,11-.08,21.13-6.99,30.04-5.52,7.12-12.87,11.31-21.83,12.15-5.98.56-12.01.51-18.03.63-4.88.09-9.77.02-14.99.02Zm6.12-4.91c9.43-.34,18.7.71,27.91-1.05,8.76-1.68,15-6.66,18.92-14.55,3.74-7.53,4.47-15.49,2.28-23.55-3.22-11.82-10.54-19.7-23.08-20.98-8.39-.86-16.91-.47-25.38-.63-.17,0-.34.17-.64.33v60.43Z"/><path class="cls-1" d="m747.81,721.1c20.78.3,37.13,16.73,36.85,37.08-.26,18.64-15.05,36.63-37.71,36.26-22.57-.37-36.89-18.18-36.68-37.27.22-20.19,17.13-36.36,37.54-36.07Zm-31.28,36.5c0,17.67,13.64,31.68,30.93,31.75,17.11.06,31.02-14.13,31.05-31.68.03-17.25-13.93-31.52-30.86-31.55-17.33-.03-31.11,13.9-31.11,31.48Z"/><path class="cls-1" d="m820.6,186.29c-3.51,14.61-7.04,29.33-10.61,44.2-6.21.68-12.19,1.31-17.34,6.01v-51.94c6.65-1.15,23.73-.73,27.95,1.73Z"/><path class="cls-1" d="m774.35,162.53c.37,1.16.72,2.09.96,3.05,3.2,12.43,6.36,24.86,9.62,37.27.39,1.5.2,2.67-.41,4.06-1.72,3.94-4.2,6.82-8.58,7.88-1.66.4-3.19,1.31-5.2,2.16-6.27-16.13-12.52-32.19-18.92-48.63,7.67-1.97,15-3.85,22.52-5.78Z"/><path class="cls-1" d="m768.06,219.5c-5.05,1.34-9.82,2.59-14.46,3.82-.33-.52-.53-.69-.53-.86-.04-4.19-2.25-7.49-4.29-10.92-4.74-7.98-9.45-15.98-13.91-24.12-2.15-3.92-3.71-8.16-5.5-12.26-.27-.63-.35-1.34-.62-2.41,6.51-1.33,12.86-2.62,19.49-3.98,7.26,16.71,15.8,32.63,19.82,50.73Z"/><path class="cls-1" d="m816.02,233.07c-.97-23.21,3.89-44.54,16.94-64.06,2.6.91,5.12,1.66,7.53,2.68,3.99,1.68,5.11,3.64,4.61,7.93-.15,1.29-.62,2.57-1.11,3.79-6.39,15.8-13.86,31.1-21.3,46.41-1.44,2.95-4.03,2.53-6.67,3.25Z"/><path class="cls-1" d="m603.71,698.04h-5.8c-3.46-8.11-6.93-16.24-10.42-24.42h-31.23c-3.42,8.07-6.83,16.13-10.3,24.33h-5.73c.23-.77.39-1.52.68-2.21,9.61-22.3,19.23-44.59,28.86-66.89.2-.47.37-.96.64-1.39.79-1.24,2.13-1.27,2.92-.05.33.51.52,1.11.76,1.67,9.58,22.2,19.16,44.41,28.73,66.61.28.64.5,1.31.9,2.35Zm-31.66-61.23c-2.78,4.82-13,29.62-13.13,31.64h26.46c-4.5-10.68-8.86-21.03-13.34-31.64Z"/><path class="cls-1" d="m893.89,698h-5.76c-3.4-7.97-6.87-16.11-10.39-24.35h-31.25c-3.41,8.03-6.86,16.18-10.34,24.36h-5.84c.42-1.13.74-2.07,1.13-2.99,9.41-21.83,18.82-43.66,28.29-65.47.51-1.17.49-3.1,2.53-2.97,1.75.12,1.74,1.84,2.23,2.96,9.5,21.91,18.94,43.83,28.4,65.76.35.82.63,1.67,1.01,2.7Zm-45.24-29.65c4.72.63,24.64.43,26.82-.28-4.35-10.33-8.7-20.64-13.34-31.65-4.69,11.12-9.07,21.48-13.48,31.93Z"/><path class="cls-1" d="m389.85,673.6h-31.2c-3.41,8.01-6.86,16.14-10.37,24.38h-5.74c.27-.82.46-1.57.76-2.28,9.57-22.2,19.16-44.4,28.74-66.6.24-.56.43-1.16.76-1.67.78-1.22,2.14-1.2,2.92.04.32.51.52,1.11.76,1.67,9.58,22.2,19.16,44.41,28.73,66.61.27.64.5,1.3.84,2.2h-5.83c-3.4-7.98-6.84-16.04-10.38-24.35Zm-2.07-5.07c-4.49-10.66-8.86-21.04-13.52-32.11-4.69,11.11-9.07,21.47-13.56,32.11h27.08Z"/><path class="cls-1" d="m539.33,687.03c0,1.87.11,3.38-.06,4.85-.06.56-.66,1.29-1.2,1.55-11.36,5.54-23.14,7.95-35.57,4.19-16.72-5.06-26.86-19.66-26.1-37.39.67-15.8,12.88-29.74,29.09-33.26,11.99-2.6,23.02.25,33.73,5.66.05,1.04.12,1.94.12,2.85,0,.79-.09,1.58-.16,2.82-1.23-.57-2.21-1.01-3.18-1.47-6.59-3.12-13.37-5.53-20.79-5.69-15.2-.33-27.92,9.04-31.66,23.35-4.24,16.26,4.88,35.15,23.68,39.1,7.22,1.51,14.22.56,21.06-1.9,2.87-1.03,5.65-2.34,8.46-3.53.72-.3,1.43-.62,2.57-1.12Z"/><path class="cls-1" d="m468.81,687.05c.3,7.01.87,5.59-4.6,7.96-9.69,4.21-19.74,5.71-30.17,3.16-17.08-4.18-28.35-18.83-28.1-36.53.24-16.59,12.52-31.12,29.25-34.69,12-2.56,23.02.32,33.63,5.66v5.63c-1.34-.59-2.44-1.04-3.51-1.55-6.41-3.04-13-5.34-20.19-5.56-15.54-.49-28.49,9.1-32.1,23.93-4.72,19.43,9.5,41.45,34.43,39.02,6.39-.63,12.29-2.82,18.04-5.52,1-.47,2-.91,3.32-1.51Z"/><path class="cls-1" d="m437.3,722.51v4.38h-32.37v27.92c3.39.33,6.83.1,10.24.14,3.47.04,6.95,0,10.42,0h10.64v4.46c-10.26.09-20.62,0-30.93.06-.64,2.33-.8,24.54-.19,28.8h33.04v4.67h-38.51c-.6-2.14-.86-64.5-.29-70.26,2.11-.64,33.92-.82,37.94-.18Z"/><path class="cls-1" d="m691.08,631.76v28.16h31.35v4.47h-30.92c-.67,2.4-.85,24.32-.25,28.89h33.04v4.67h-38.73v-70.28c2.15-.63,34.65-.74,37.87-.1v4.2h-32.36Z"/><path class="cls-1" d="m703.65,179.88c.78-.39,1.11-.65,1.49-.74,5.74-1.41,11.51-2.71,17.23-4.23,2.03-.54,3.39.02,4.44,1.65,1.16,1.8,2.29,3.63,3.33,5.5,6.4,11.5,12.86,22.98,19.08,34.58,1.1,2.05,1.18,4.65,1.81,7.29-1.83.65-3.31,1.17-4.89,1.73-2.69-3.17-5.25-6.19-7.82-9.22-8.59-10.13-17.36-20.08-27.21-29.03-1.74-1.58-3.58-3.04-5.27-4.67-.81-.78-1.39-1.81-2.18-2.87Z"/><path class="cls-1" d="m771.78,219.63c5.96-2.63,11.32-5.01,17.15-7.59,0,1.5,0,2.48,0,3.46.02,6.32-.12,12.65.1,18.97.3,8.71-.56,17.29-1.85,25.88-1.34,8.97-2.45,17.98-3.68,26.96-.18,1.3-.5,2.59-1.03,3.9-2.07-11.9-3.24-23.9-5.03-35.82-1.79-11.87-3.75-23.71-5.66-35.77Z"/><path class="cls-1" d="m710.04,261.33c2.66,1.89,5.11,2.36,7.81.02.26,1.14.53,1.97.63,2.81,1.81,14.58,1.09,29.12-.84,43.62-.79,5.96-1.82,11.89-2.77,17.83-.21,1.29-.51,2.57-.78,3.91-1.55.26-2.93.49-4.73.78-6.2-23.07-4.64-45.85.67-68.97Z"/><path class="cls-1" d="m793.16,161.94c12.01,1.24,23.42,2.65,34.88,5.68-1.07,5.53-3.19,10.5-5.7,15.5-9.99-.69-19.9-1.38-30.12-2.1.31-6.26.61-12.52.93-19.09Z"/><path class="cls-1" d="m450.71,792.9v-70.48h5.69v65.8h33.2v4.46c-2,.59-32.97.82-38.88.22Z"/><path class="cls-1" d="m818.16,627.33h5.7v70.62h-5.7v-70.62Z"/><path class="cls-1" d="m771.12,243.49c3.97,8.55,9.68,43.75,8.27,50.96-6.9-15.52-13.68-30.78-20.62-46.38,3.61-2.53,8.22-2.68,12.35-4.59Z"/><path class="cls-1" d="m803.15,548.63c-2.47,1.19-4.83,2.41-7.55,1.96-6.74-1.1-13.46-2.32-20.19-3.5-1.71-.3-3.4-.74-5.12-.87-2.61-.19-4.29-1.6-5.73-3.77,2.29-5.02,5.48-9.03,11.01-10.72,2.73-.83,4.88-.64,7.04,1.82,5.25,5.96,11.52,10.67,19.05,13.52.37.14.74.34,1.06.57.14.1.16.35.43.99Z"/><path class="cls-1" d="m738.11,146.76c7.42,2.88,13.15-.88,19.04-3.86.67,2.23.96,14.35.49,20.73-6.37,1.45-12.85,2.92-19.74,4.49-.4-7.25.25-14.17.21-21.36Z"/><path class="cls-1" d="m743.67,131.25c-.2-4.84.82-9.08,1.96-13.45,6.59-.86,13.13-1.71,19.7-2.57.84,2.86.57,10.03-.61,13.79-6.76,1.72-13.69,2.41-21.06,2.24Z"/><path class="cls-1" d="m689.85,366.71c-.46-.35-.92-.7-1.5-1.14.6-1.17,1.12-2.27,1.72-3.33,4.91-8.59,10.04-17.07,14.65-25.82,1.93-3.67,4.46-4.18,8.15-3.55-.1.83-.16,1.6-.28,2.36-.64,3.93-1.34,7.84-1.91,11.78-.18,1.21-.58,2.06-1.68,2.68-7.29,4.14-13.51,9.48-18.33,16.39-.16.23-.47.36-.81.62Z"/><path class="cls-1" d="m765.78,112.38c-6.52,2.07-12.81,2.29-19.53,2.76,1.09-5.07,2.49-9.69,4.86-13.95.31-.56,1.55-.91,2.33-.85,4.41.32,7.69,2.62,9.9,6.33,1.01,1.7,1.58,3.66,2.45,5.71Z"/><path class="cls-1" d="m744.13,145.45c-1.13-3.82-1.12-7.71-.62-11.61,6.87-.6,13.54-1.18,20.21-1.76-1.81,6.72-10.97,13.04-19.59,13.36Z"/><path class="cls-1" d="m736.45,168.82c-2.4.66-4.42,1.22-6.66,1.83-.08-1.03-.19-1.72-.17-2.4.21-6.41.43-12.82.67-19.23.03-.7.12-1.43.35-2.08,1.03-2.93,2.12-5.84,3.2-8.76.88,3.46,2.96,6.64,2.71,10.77-.38,6.49-.1,13.01-.1,19.88Z"/><path class="cls-1" d="m744.06,115.09c-2.29-.11-4.23,1.1-6.22.16-.95-6.77,3.35-13.05,9.93-14.44.07,2.52-1,4.73-1.62,7.03-.64,2.35-1.34,4.67-2.09,7.25Z"/><path class="cls-1" d="m741.06,131.22c-1.82-.32-3.4-.6-5.17-.92-.16-4.71.44-9.14,1.46-13.7,2.03.32,3.79.59,5.64.88-.65,4.61-1.27,8.99-1.94,13.74Z"/><path class="cls-1" d="m769.2,228.38v3.82c-5.38,1.54-10.86,3.1-16.64,4.75-.24-1.51-.4-2.56-.61-3.86,5.75-1.57,11.28-3.08,17.25-4.71Z"/><path class="cls-1" d="m747.36,227.53c6.84-2.02,13.52-4,20.25-5.99.72,1.83.53,2.87-1.21,3.35-5.3,1.46-10.6,2.91-15.87,4.49-1.76.53-2.36-.43-3.17-1.85Z"/><path class="cls-1" d="m756.41,243.8c-.46-.98-.83-1.79-1.2-2.57,2.17-1.5,12.01-4.5,15.18-4.6v3.44c-4.57,1.22-9.22,2.46-13.98,3.73Z"/><path class="cls-1" d="m741.6,145.4c-4.39-1.5-6.28-6.95-5.04-13.76,1.37.25,2.74.5,4.44.8.09,2.1.19,4.2.28,6.29.1,2.13.2,4.25.31,6.66Z"/><path class="cls-1" d="m493.05,161.75h-36.08c-2.91-10.48,3.56-22.17,13.61-24.1,12.26-2.35,19.91,4.27,21.87,14.11.3,1.49.49,3.02.58,4.53.1,1.71.02,3.43.02,5.46Z"/><path class="cls-1" d="m466.48,214.92c6.87-2.83,13.12-5.41,19.9-8.21.2,5.71.08,10.93.06,16.7-6.74-2.86-13.05-5.55-19.96-8.49Z"/><path class="cls-1" d="m602.88,401.58v-8.15c1.61,0,3.11-.14,4.57.03,1.97.23,2.98,1.34,3.2,3.1.26,2.13-.54,3.79-2.48,4.33-1.61.45-3.34.45-5.29.68Z"/><path class="cls-1" d="m644.78,397.72c.89,2.25,1.77,4.5,2.79,7.07h-6.21c.95-2.45,1.85-4.77,2.74-7.09.23,0,.45,0,.68.01Z"/><path class="cls-1" d="m525.84,440.28h-6.27c1.04-2.66,1.95-4.96,3.11-7.91,1.16,2.9,2.07,5.18,3.16,7.91Z"/><path class="cls-1" d="m468.09,428.62c1.74.12,3.26.09,4.72.35,2.11.39,2.98,1.55,3.01,3.59.03,2.03-.8,3.38-2.75,3.86-1.53.38-3.15.38-4.98.57v-8.38Z"/><path class="cls-1" d="m454.61,440.35h-5.88c.45-2.77,1.5-5.08,2.91-7.71,1.03,2.67,1.92,4.99,2.97,7.71Z"/><path class="cls-1" d="m447.42,485.27v-20.79c3.19-.31,6.24-.43,9.21.35,3.99,1.05,6.46,5.3,6.31,10.44-.15,4.93-2.89,8.7-7.01,9.58-1.09.23-2.22.36-3.33.41-1.61.07-3.23.02-5.17.02Z"/><path class="cls-1" d="m567.72,449.99v-20.85c2.99-.42,5.93-.51,8.79.14,4.13.93,6.67,4.98,6.63,10.14-.04,5.18-2.61,9.09-6.89,9.89-2.66.5-5.42.46-8.54.68Z"/><path class="cls-1" d="m465.57,404.48c-.07.47-.12,1.6-.42,2.67-1.28,4.65-5.53,7.88-9.87,7.58-4.8-.33-8.6-4.14-9.32-9.41-.14-1-.13-2.04,0-3.04.78-5.73,5.41-9.81,10.56-9.36,5.14.45,9.06,5.17,9.04,11.56Z"/></svg>