<svg xmlns="http://www.w3.org/2000/svg" id="Livello_1" data-name="Livello 1" viewBox="0 0 691.84 295.83">
  <defs>
    <style>
      .cls-1, .cls-2 {
        stroke-width: 0px;
      }

      .cls-2 {
        fill: #0065a4;
      }
    </style>
  </defs>
  <g>
    <path class="cls-1" d="m347.73,106.34c-.91-.91-1.43-1.83-2.41-1.83-.91,0-6.32,4.11-14.99,4.11-13.49,0-14.59-7.76-14.59-16.62v-17.2c0-7.95,0-8.28-2.54-8.54l-2.35-.2v-1.43h15.83v1.43l-2.34.2c-2.55.26-2.55.59-2.55,8.54v16.16c0,9.32,1.57,15.51,11.67,15.51,6.78,0,10.81-4.04,11.79-5.21v-26.45c0-7.95,0-8.28-2.54-8.54l-2.35-.2v-1.43h15.84v1.43l-2.35.2c-2.54.26-2.54.59-2.54,8.54v32.84l-1.95.59-1.63-1.89Z"/>
    <path class="cls-1" d="m359.44,106.21l2.34-.19c2.54-.2,3-2.21,3-9.25v-32.12l1.5-.59c5.41,6.91,24.63,26.85,31.73,33.82v-22.35c0-7.17,0-8.93-3.58-9.25l-2.34-.2v-1.43h14.07v1.43l-2.34.2c-2.34.2-2.8,2.22-2.8,9.25v32.12l-1.43.59c-1.43-1.5-5.47-5.8-12.25-12.77l-19.54-20.66v21.96c0,7.17,0,8.93,3.39,9.25l2.34.19v1.43h-14.07v-1.43Z"/>
    <path class="cls-1" d="m412.28,106.21l2.35-.19c2.54-.26,2.54-.59,2.54-8.54v-22.68c0-7.95,0-8.28-2.54-8.54l-2.35-.2v-1.43h15.84v1.43l-2.34.2c-2.54.26-2.54.59-2.54,8.54v22.68c0,7.95,0,8.28,2.54,8.54l2.34.19v1.43h-15.84v-1.43Z"/>
    <path class="cls-1" d="m438.13,71.29c-.98-2.41-1.69-4.82-3.85-5.02l-1.89-.2v-1.43h16.23v1.43l-2.02.2c-1.04.13-2.93.32-2.93,1.63,0,.33.52,1.82.85,2.6l11.27,29.06c1.5-3.91,11.73-29.26,11.73-31.27,0-1.3-1.3-1.63-2.54-1.83l-2.93-.39v-1.43h14.07v1.43l-1.69.39c-.72.13-1.44.52-1.96,1.04-1.43,1.43-3.51,7.69-5.14,10.82l-4.43,10.68c-3.71,8.99-6.97,16.94-7.56,18.63-.33.26-1.37.72-2.22.98l-14.98-37.33Z"/>
    <path class="cls-1" d="m480.31,106.21l2.34-.19c2.54-.26,2.54-.59,2.54-8.54v-22.68c0-7.95,0-8.28-2.54-8.54l-2.34-.2v-1.43h28.08c.26,1.43.72,3.91.72,6.91,0,1.5-.13,2.02-.13,2.6l-1.56.26c-1.43-6.98-1.57-7.95-10.75-7.95h-5.41v17.92h5.8c5.08,0,6.26-.07,6.65-2.74l.33-2.22h1.69v11.73h-1.69l-.33-2.21c-.39-2.67-1.56-2.74-6.65-2.74h-5.8v18.76c2.34.46,4.76.85,7.11.85,10.36,0,11.01-3.91,12.31-9.25l1.63.26c-.2,4.17-1.04,7.24-2.15,10.81h-29.84v-1.43Z"/>
    <path class="cls-1" d="m528.26,87.05h3.71c5.47,0,10.42-2.93,10.42-10.29s-5.02-9.97-10.1-9.97c-1.37,0-2.74.26-4.04.52v19.74Zm-10.95,19.16l2.34-.19c2.54-.26,2.54-.59,2.54-8.54v-22.67c0-7.95,0-8.28-2.54-8.54l-2.34-.2v-1.43h17.01c6.18,0,14.91.91,14.91,10.82,0,6.06-5.4,9.64-8.99,11.33.98,1.82,3.13,6,4.89,9.12,2.74,4.89,5.61,8.74,7.24,9.64.65.39,1.82.65,3.25.65v1.43h-5.01c-4.31,0-7.3-2.93-9.25-6.51l-2.6-5.02c-1.7-3.19-3.19-5.67-4.04-6.39-1.04-.85-2.67-.85-4.04-.85h-2.41v8.6c0,7.95,0,8.28,2.47,8.54l2.35.19v1.43h-15.77v-1.43Z"/>
    <path class="cls-1" d="m575.8,82.95c5.15,2.93,10.49,5.67,10.49,13.49,0,8.8-8.14,12.19-15.05,12.19-5.08,0-8.21-1.37-10.23-2.61-1.17-2.54-2.09-7.37-2.09-11.47l2.09-.52c.71,4.69,3.13,12.44,12.05,12.44,4.5,0,7.82-2.93,7.82-8.02,0-4.76-3.97-8.01-9.06-10.29l-4.17-2.28c-3.71-2.02-7.17-6.06-7.17-10.94,0-7.95,6.65-11.28,13.55-11.28,4.04,0,7.3,1.04,8.99,2.09.52,2.08.65,7.36.65,8.99h-1.63c-.65-3.26-1.69-8.93-9.06-8.93-3.78,0-7.1,2.74-7.1,7.1,0,3.85,2.8,5.93,6.32,8.02l3.58,2.02Z"/>
    <path class="cls-1" d="m591.39,106.21l2.34-.19c2.54-.26,2.54-.59,2.54-8.54v-22.68c0-7.95,0-8.28-2.54-8.54l-2.34-.2v-1.43h15.84v1.43l-2.35.2c-2.54.26-2.54.59-2.54,8.54v22.68c0,7.95,0,8.28,2.54,8.54l2.35.19v1.43h-15.84v-1.43Z"/>
    <path class="cls-1" d="m621.32,106.21l2.41-.19c3.58-.26,3.58-.59,3.58-8.54v-31.01h-3.38c-9.19,0-9.32.98-10.75,8.53h-1.56c0-.26-.13-2.02-.13-2.86,0-3,.46-6.06.72-7.5h36.29c.26,1.43.72,4.5.72,7.5,0,.85-.13,2.6-.13,2.86h-1.56c-1.43-7.56-1.56-8.53-10.75-8.53h-3.38v31.01c0,7.95,0,8.28,3.65,8.54l2.34.19v1.43h-18.05v-1.43Z"/>
    <path class="cls-1" d="m660.34,88.29c1.96-.13,3.98-.33,5.94-.33,2.08,0,4.16.07,6.26.33l-5.99-15.77-6.2,15.77Zm9.84-27.11c-2.8-1.76-12.44-7.1-12.77-7.3.33-1.5,1.04-2.8,2.08-3.84,3.52,2.6,8.21,6.52,11.41,9.58l-.72,1.56Zm-23.52,45.02l1.24-.19c2.48-.39,2.8-1.11,4.37-4.89l13.55-32.97c.52-1.3,1.04-2.6,1.56-3.84l1.89-.65,14.53,37.72c.98,2.61,1.63,4.11,3.32,4.43l2.61.39v1.43h-16.16v-1.43l2.93-.52c1.17-.19,2.02-.52,2.02-1.24,0-.46-.26-.91-.39-1.37l-4.57-12.31c-2.41-.46-4.82-.65-7.23-.65-2.28,0-4.56.26-6.84.65l-3.32,9.06c-.78,2.08-1.3,3.84-1.3,4.37,0,1.24.84,1.43,1.56,1.5l3.9.52v1.43h-13.68v-1.43Z"/>
    <path class="cls-1" d="m321.66,170.7c2.44.46,4.89.9,7.33.9,11.71,0,18.21-6.5,18.21-19.05,0-13.52-7.33-19.18-18.79-19.18-2.25,0-4.5.33-6.75.64v36.68Zm-10.81,1.61l2.32-.19c2.51-.25,2.51-.58,2.51-8.42v-22.4c0-7.85,0-8.17-2.51-8.43l-2.32-.2v-1.41h21.11c13.77,0,22.02,7.21,22.02,19.69,0,16.73-12.42,22.78-25.87,22.78h-17.25v-1.42Z"/>
    <path class="cls-1" d="m356.5,172.31l2.32-.19c2.5-.25,2.5-.58,2.5-8.42v-22.4c0-7.85,0-8.17-2.5-8.43l-2.32-.2v-1.41h27.73c.26,1.41.71,3.86.71,6.82,0,1.48-.13,2-.13,2.57l-1.54.26c-1.41-6.88-1.54-7.85-10.62-7.85h-5.34v17.7h5.72c5.02,0,6.18-.07,6.57-2.7l.32-2.19h1.67v11.58h-1.67l-.32-2.19c-.39-2.64-1.55-2.7-6.57-2.7h-5.72v18.54c2.31.45,4.7.84,7.01.84,10.23,0,10.88-3.86,12.16-9.14l1.61.26c-.2,4.12-1.03,7.14-2.13,10.68h-29.47v-1.42Z"/>
    <path class="cls-1" d="m431.64,171.47c-2.19.84-9.2,3.22-16.09,3.22-12.94,0-24.52-5.66-24.52-22.07s13.84-22.33,24-22.33c6.57,0,11.46,1.61,13.13,2.64.58,2.57,1.03,6.31,1.03,9.53l-1.74.39c-.64-2.58-1.48-10.43-12.49-10.43s-17.18,6.95-17.18,18.99c0,11,5.6,21.17,18.21,21.17,2.31,0,5.28-.26,7.53-.84v-2.38c0-7.85,0-9.62-4.5-9.87l-2.32-.2v-1.41h16.34v1.41l-2.32.2c-1.22.26-1.22,2.02-1.22,8.26,0,1.93,0,2.31,1.03,2.31h.64l.45,1.42Z"/>
    <path class="cls-1" d="m436,172.31l2.32-.19c2.51-.25,2.51-.58,2.51-8.42v-22.4c0-7.85,0-8.17-2.51-8.43l-2.32-.2v-1.41h15.64v1.41l-2.32.2c-2.51.26-2.51.58-2.51,8.43v29.86c2.31.38,4.7.77,7.01.77,9.53,0,10.16-3.86,11.46-9.14l1.61.26c-.19,4.12-1.03,7.14-2.12,10.68h-28.77v-1.42Z"/>
    <path class="cls-1" d="m468.72,172.31l2.32-.19c2.51-.25,2.51-.58,2.51-8.42v-22.4c0-7.85,0-8.17-2.51-8.43l-2.32-.2v-1.41h15.64v1.41l-2.32.2c-2.51.26-2.51.58-2.51,8.43v22.4c0,7.85,0,8.17,2.51,8.42l2.32.19v1.42h-15.64v-1.42Z"/>
    <path class="cls-1" d="m519.87,149.34c5.08,2.89,10.36,5.6,10.36,13.32,0,8.69-8.05,12.03-14.87,12.03-5.02,0-8.11-1.35-10.1-2.57-1.16-2.51-2.06-7.27-2.06-11.32l2.06-.52c.71,4.63,3.09,12.29,11.91,12.29,4.44,0,7.72-2.89,7.72-7.91,0-4.7-3.93-7.92-8.94-10.17l-4.12-2.25c-3.67-2-7.08-5.98-7.08-10.81,0-7.85,6.56-11.14,13.38-11.14,3.99,0,7.2,1.03,8.88,2.06.51,2.06.64,7.27.64,8.88h-1.61c-.64-3.22-1.68-8.82-8.94-8.82-3.74,0-7.01,2.7-7.01,7.02,0,3.8,2.76,5.86,6.24,7.92l3.54,2Z"/>
    <path class="cls-1" d="m540.62,172.31l2.38-.19c3.54-.25,3.54-.58,3.54-8.42v-30.63h-3.35c-9.07,0-9.2.96-10.62,8.43h-1.55c0-.26-.12-1.99-.12-2.83,0-2.96.45-5.98.71-7.4h35.84c.26,1.41.71,4.44.71,7.4,0,.84-.13,2.57-.13,2.83h-1.54c-1.41-7.46-1.54-8.43-10.62-8.43h-3.35v30.63c0,7.85,0,8.17,3.6,8.42l2.32.19v1.42h-17.83v-1.42Z"/>
    <path class="cls-1" d="m606.12,172.44c-.9-.9-1.42-1.8-2.38-1.8-.9,0-6.24,4.06-14.8,4.06-13.33,0-14.42-7.66-14.42-16.41v-16.99c0-7.85,0-8.17-2.51-8.43l-2.32-.19v-1.41h15.63v1.41l-2.31.19c-2.51.26-2.51.58-2.51,8.43v15.96c0,9.2,1.55,15.32,11.52,15.32,6.69,0,10.68-3.99,11.64-5.15v-26.13c0-7.85,0-8.17-2.51-8.43l-2.31-.19v-1.41h15.64v1.41l-2.32.19c-2.51.26-2.51.58-2.51,8.43v32.43l-1.92.58-1.61-1.87Z"/>
    <path class="cls-1" d="m629.3,170.7c2.44.46,4.89.9,7.33.9,11.72,0,18.21-6.5,18.21-19.05,0-13.52-7.33-19.18-18.79-19.18-2.26,0-4.5.33-6.76.64v36.68Zm-10.81,1.61l2.32-.19c2.51-.25,2.51-.58,2.51-8.42v-22.4c0-7.85,0-8.17-2.51-8.43l-2.32-.2v-1.41h21.11c13.77,0,22.01,7.21,22.01,19.69,0,16.73-12.42,22.78-25.87,22.78h-17.25v-1.42Z"/>
    <path class="cls-1" d="m664.74,172.31l2.32-.19c2.51-.25,2.51-.58,2.51-8.42v-22.4c0-7.85,0-8.17-2.51-8.43l-2.32-.2v-1.41h15.64v1.41l-2.32.2c-2.51.26-2.51.58-2.51,8.43v22.4c0,7.85,0,8.17,2.51,8.42l2.32.19v1.42h-15.64v-1.42Z"/>
    <path class="cls-1" d="m321.66,236.77c2.44.45,4.89.9,7.33.9,11.71,0,18.21-6.5,18.21-19.05,0-13.51-7.33-19.17-18.79-19.17-2.25,0-4.5.32-6.75.64v36.68Zm-10.81,1.61l2.32-.19c2.51-.26,2.51-.58,2.51-8.43v-22.4c0-7.85,0-8.17-2.51-8.43l-2.32-.19v-1.41h21.11c13.77,0,22.01,7.21,22.01,19.69,0,16.73-12.42,22.78-25.87,22.78h-17.25v-1.42Z"/>
    <path class="cls-1" d="m358.39,238.38l2.32-.19c2.51-.26,2.51-.58,2.51-8.43v-22.4c0-7.85,0-8.17-2.51-8.43l-2.32-.19v-1.41h15.64v1.41l-2.31.19c-2.51.26-2.51.58-2.51,8.43v22.4c0,7.85,0,8.17,2.51,8.43l2.31.19v1.42h-15.64v-1.42Z"/>
    <path class="cls-1" d="m439.85,220.68c1.93-.13,3.92-.32,5.85-.32,2.06,0,4.12.07,6.18.32l-5.92-15.57-6.11,15.57Zm-13.51,17.7l1.22-.19c2.44-.39,2.76-1.09,4.31-4.83l13.38-32.56c.52-1.29,1.03-2.58,1.54-3.8l1.87-.64,14.35,37.26c.97,2.57,1.61,4.05,3.28,4.37l2.57.39v1.42h-15.96v-1.42l2.89-.52c1.16-.2,2-.51,2-1.22,0-.45-.26-.9-.39-1.35l-4.5-12.16c-2.38-.45-4.76-.64-7.14-.64-2.25,0-4.51.26-6.76.64l-3.28,8.94c-.77,2.06-1.28,3.8-1.28,4.31,0,1.22.84,1.41,1.54,1.48l3.86.52v1.42h-13.51v-1.42Z"/>
    <path class="cls-1" d="m472.5,238.38l2.32-.19c2.51-.26,2.51-.58,2.51-8.43v-22.4c0-7.85,0-8.17-2.51-8.43l-2.32-.19v-1.41h15.64v1.41l-2.32.19c-2.51.26-2.51.58-2.51,8.43v29.86c2.31.39,4.7.77,7.01.77,9.53,0,10.17-3.86,11.46-9.14l1.61.26c-.19,4.12-1.03,7.14-2.13,10.68h-28.76v-1.42Z"/>
    <path class="cls-1" d="m506.57,238.38l2.31-.19c2.51-.26,2.51-.58,2.51-8.43v-22.4c0-7.85,0-8.17-2.51-8.43l-2.31-.19v-1.41h27.73c.26,1.41.71,3.86.71,6.82,0,1.48-.13,1.99-.13,2.57l-1.54.26c-1.42-6.88-1.55-7.85-10.62-7.85h-5.34v17.7h5.72c5.02,0,6.18-.07,6.57-2.7l.32-2.19h1.67v11.58h-1.67l-.32-2.19c-.39-2.64-1.54-2.7-6.57-2.7h-5.72v18.54c2.32.45,4.7.84,7.01.84,10.23,0,10.88-3.86,12.16-9.14l1.61.26c-.2,4.12-1.03,7.14-2.13,10.68h-29.47v-1.42Z"/>
    <path class="cls-1" d="m552.96,219.46h3.67c5.41,0,10.3-2.89,10.3-10.17s-4.96-9.84-9.97-9.84c-1.35,0-2.7.26-3.99.51v19.5Zm-10.81,18.92l2.31-.19c2.51-.26,2.51-.58,2.51-8.43v-22.4c0-7.85,0-8.17-2.51-8.43l-2.31-.19v-1.41h16.8c6.11,0,14.73.9,14.73,10.68,0,5.98-5.34,9.53-8.88,11.2.97,1.8,3.09,5.92,4.83,9.01,2.7,4.83,5.53,8.62,7.14,9.52.64.39,1.8.65,3.22.65v1.42h-4.96c-4.25,0-7.21-2.89-9.14-6.44l-2.58-4.96c-1.67-3.15-3.15-5.6-3.99-6.3-1.03-.84-2.64-.84-3.99-.84h-2.38v8.49c0,7.85,0,8.17,2.45,8.43l2.32.19v1.42h-15.58v-1.42Z"/>
    <path class="cls-1" d="m582.84,238.38l1.61-.39c.96-.19,1.61-.45,2-.77.64-.64,1.09-4.76,1.48-10.62l1.03-16.21c.26-4.37.71-11.33.71-13.06l1.74-.58c1.93,3.35,16.6,31.08,18.6,34.62,2.06-3.28,16.47-30.76,17.7-34.04l1.67-.58c0,.51.45,7.72.9,16.22l.58,11.13c.26,5.47.71,11.71,1.22,12.68.33.65,1.29,1.03,2.45,1.22l1.94.39v1.42h-16.47v-1.42l2.5-.39c2.76-.32,3.02-1.35,3.02-4.31,0-7.14-1.09-20.66-1.09-24.77h-.13c-1.09,2.83-7.66,15.44-14.03,27.99-.32.64-.58,1.41-.9,2.06l-1.8.84c-1.41-2.96-9.59-18.66-14.03-27.15-.65-1.22-1.23-2.45-1.74-3.73h-.13c-.2,3.67-1.1,21.88-1.1,23.87,0,3.8,0,4.89,3.02,5.21l2.58.39v1.42h-13.32v-1.42Z"/>
    <path class="cls-1" d="m662.11,238.63c10.94,0,15.06-9.39,15.06-18.79,0-12.16-6.05-21.37-16.15-21.37s-15.32,8.04-15.32,19.17c0,13.13,6.69,20.98,16.41,20.98m-23.16-19.76c0-13.9,10.75-22.52,23.16-22.52s21.82,7.53,21.82,21.82-10.29,22.59-23.04,22.59-21.94-7.98-21.94-21.88"/>
    <path class="cls-1" d="m414.75,221.71h1.1c6.04,0,15.83-4.05,15.83-12.8,0-10.62-9.53-11.59-15.64-11.59h-16.79v1.42l2.32.19c2.5.26,2.5.58,2.5,8.43v22.4c0,7.85,0,8.17-2.5,8.43l-2.32.2v1.41h16.67v-1.41l-2.31-.2c-3.54-.26-3.54-.58-3.54-8.43v-8.05h4.7Zm-.71-22.26c5.79,0,10.88,2.32,10.88,9.84,0,9.72-7.4,11.01-10.17,11.01h-4.7v-20.34c1.29-.26,2.64-.51,3.99-.51"/>
  </g>
  <g>
    <path class="cls-2" d="m134.33,276.03c-.38-.53-.66-1.09-.81-1.68-.16-.59-.2-1.27-.13-2.03.17-1.81.97-3.25,2.42-4.31,1.45-1.05,3.17-1.49,5.17-1.31.92.08,1.82.32,2.71.67.89.37,1.66.79,2.29,1.26l.72-1,1.16.1-.45,7.07-1.17-.11c-.17-.9-.37-1.71-.64-2.43-.26-.73-.63-1.42-1.1-2.08-.45-.61-1-1.13-1.63-1.53-.64-.4-1.4-.63-2.3-.72-.66-.06-1.25-.03-1.77.11-.51.13-.94.34-1.28.63-.34.3-.6.65-.79,1.06-.19.42-.31.91-.36,1.47-.07.82.08,1.6.48,2.36.4.75,1.04,1.36,1.93,1.81.61.31,1.3.64,2.09,1.03.78.37,1.45.72,2.02,1.04,1.11.63,1.95,1.39,2.52,2.3.56.91.79,2.05.66,3.41-.07.79-.29,1.5-.68,2.15-.38.65-.89,1.2-1.53,1.69-.61.44-1.3.78-2.1.99-.79.22-1.6.28-2.42.21-.95-.09-1.78-.31-2.51-.67-.72-.35-1.37-.76-1.95-1.2l-.68.94-1.17-.12.52-6.84,1.17.11c.14.8.32,1.57.52,2.32.19.74.48,1.41.85,2.04.37.59.83,1.09,1.4,1.48.57.39,1.29.63,2.16.71.92.08,1.73-.15,2.42-.67.7-.53,1.1-1.22,1.17-2.07.09-.89-.06-1.65-.41-2.28-.37-.62-.93-1.16-1.69-1.6-.67-.4-1.34-.76-1.99-1.07-.66-.31-1.3-.64-1.91-.97-.56-.3-1.1-.64-1.61-1.01-.5-.37-.93-.78-1.3-1.24Z"/>
    <path class="cls-2" d="m123.9,264.32l9.11,1.87-.21,1.02c-.25-.04-.63-.09-1.13-.15-.49-.05-.84-.07-1.06-.04-.34.06-.6.18-.79.36-.19.18-.32.47-.4.85l-3,14.67c-.07.34-.07.63-.02.87.06.24.27.48.62.71.27.18.61.35,1.02.54.41.19.75.32,1.02.4l-.21,1.01-9.11-1.88.21-1.01c.3.05.66.09,1.08.1.42.03.79.02,1.12,0,.38-.04.66-.17.83-.41.18-.23.3-.51.36-.82l3.02-14.65c.06-.32.05-.61-.04-.88-.09-.27-.29-.52-.59-.72-.18-.12-.49-.27-.93-.45-.43-.18-.81-.31-1.11-.39l.21-1.01Z"/>
    <path class="cls-2" d="m101.15,265.54c.23.05.54.1.93.18.39.07.72.09.99.06.32-.04.59-.18.78-.38.21-.21.36-.5.47-.83l.54-1.51c.38-1.1.64-1.85.76-2.24.13-.39.21-.71.28-.97,1.41-.12,2.77-.12,4.09,0,1.31.13,2.55.39,3.71.8,1.25.43,2.37,1.08,3.36,1.95.99.87,1.77,1.89,2.33,3.05.56,1.18.89,2.48.97,3.9.07,1.43-.16,2.91-.69,4.45-.52,1.49-1.24,2.78-2.17,3.88-.94,1.1-2.01,1.96-3.24,2.59-1.18.6-2.48.96-3.86,1.05-1.38.09-2.76-.11-4.14-.59-1.1-.38-2.01-.85-2.73-1.4-.73-.55-1.34-1.12-1.83-1.71l-.89.73-1.1-.38,2.26-6.87,1.13.4c-.08.82-.09,1.64-.05,2.47.03.83.16,1.61.41,2.35.25.73.64,1.38,1.17,1.95.53.56,1.24,1,2.14,1.32.99.33,1.93.45,2.84.31.91-.13,1.79-.49,2.63-1.09.82-.56,1.58-1.37,2.28-2.4.7-1.03,1.29-2.25,1.78-3.65.43-1.24.69-2.47.77-3.66.08-1.2-.03-2.3-.32-3.29-.28-1.01-.77-1.91-1.46-2.67-.7-.77-1.58-1.33-2.66-1.72-.81-.28-1.58-.41-2.35-.4-.75.02-1.31.12-1.68.29-.24.45-.45.92-.62,1.4-.18.48-.33.89-.43,1.23l-.38,1.08c-.14.38-.2.74-.2,1.08s.14.62.43.88c.25.24.62.5,1.12.74.5.25.89.43,1.18.56l-.35,1-8.55-2.98.35-1Z"/>
    <path class="cls-2" d="m95.81,253.25l8.31,4.19-.46.92c-.24-.1-.6-.24-1.05-.44-.46-.19-.8-.29-1.01-.31-.34-.03-.63.02-.86.14-.22.13-.43.37-.59.72l-6.75,13.36c-.16.3-.23.58-.25.83,0,.25.14.54.42.85.2.24.49.51.83.79.35.29.64.51.89.66l-.47.91-8.31-4.19.46-.92c.27.13.6.26,1.01.37.4.14.76.23,1.09.29.38.06.7,0,.92-.17.23-.18.42-.41.56-.7l6.75-13.35c.14-.28.2-.57.19-.86-.01-.28-.14-.56-.38-.85-.15-.16-.41-.38-.78-.68-.37-.29-.69-.51-.98-.66l.46-.92Z"/>
    <path class="cls-2" d="m77.01,248.43l3.78-4.87,13.43,8.97-.58.86c-.2-.12-.5-.27-.89-.47-.4-.21-.69-.33-.88-.37-.31-.04-.59-.02-.83.12-.25.12-.47.35-.67.66l-8.23,12.32c-.18.26-.29.54-.34.81-.05.27.02.56.21.87.12.23.31.5.59.81.26.32.51.56.72.72l-.57.86-7.26-4.84.58-.86c.23.14.55.3.96.46.41.17.71.28.92.33.34.09.63.04.9-.12.25-.17.47-.39.65-.65l7.69-11.54c.37-.53.61-.97.76-1.3.15-.33.17-.63.09-.93-.09-.26-.3-.55-.64-.84-.34-.29-.84-.66-1.5-1.1-.3-.19-.61-.4-.94-.6-.34-.19-.66-.37-.99-.52-.32-.14-.62-.25-.91-.32-.3-.07-.55-.09-.74-.04-.58.15-1.34.46-2.29.92-.94.46-1.65.86-2.13,1.23l-.86-.57Z"/>
    <path class="cls-2" d="m63.28,235.92l4.47-4.24,11.92,10.9-.7.77c-.19-.14-.46-.35-.82-.61-.36-.25-.62-.41-.81-.48-.29-.1-.58-.11-.84-.02-.25.08-.52.28-.77.56l-9.98,10.92c-.23.24-.38.5-.47.76-.09.26-.06.56.08.9.08.24.24.54.46.89.22.35.42.63.6.82l-.68.76-6.45-5.88.7-.77c.2.18.5.38.88.6.38.23.66.39.85.47.32.14.62.14.9.02.28-.13.53-.31.74-.55l9.38-10.23c.43-.48.73-.86.93-1.17.19-.31.27-.61.23-.91-.05-.28-.22-.58-.51-.93-.3-.34-.73-.77-1.31-1.32-.27-.23-.55-.49-.86-.72-.3-.25-.59-.48-.89-.67-.28-.19-.57-.34-.85-.45-.28-.12-.53-.17-.73-.14-.6.06-1.39.25-2.39.56-1.01.31-1.77.61-2.31.89l-.76-.7Z"/>
    <path class="cls-2" d="m54.51,243.23c.64-1.14,1.89-3.33,3.74-6.56,1.84-3.24,3.75-6.59,5.75-10.07l-.78-.93c-3.61,1.21-7.08,2.36-10.43,3.46-3.34,1.09-5.81,1.88-7.41,2.37-.46.13-.88.22-1.24.27-.38.06-.75.02-1.11-.1-.27-.08-.56-.23-.86-.45-.17-.11-.32-.22-.44-.34-.28-.27-.54-.57-.64-1-.12-.44-.13-.86-.05-1.25.06-.36.24-.7.5-1.01.27-.32.67-.64,1.2-.95l9.15-5.29c1.15-.66,1.99-1.08,2.54-1.25.55-.17,1.03-.18,1.43-.02.32.12.64.37.97.72.33.36.63.72.88,1.09l.9-.52-4.18-7.22-.9.52c.09.18.23.61.41,1.28.17.67.22,1.15.15,1.44-.07.41-.34.82-.81,1.27-.46.44-1.21.96-2.26,1.56l-10.67,6.18-.09-.16,12.2-14.81-.36-.62-18.77,2.7-.11-.18,13.01-7.52c.31-.18.61-.27.89-.27s.56.09.88.26c.2.12.44.39.75.8.31.43.55.77.72,1.05l.9-.51-4.57-7.9-.89.51c.12.23.26.57.41.99.15.43.23.74.24.94,0,.38-.06.67-.2.89-.15.22-.36.42-.65.59l-12.9,7.45c-.27.16-.57.26-.86.3-.3.04-.58-.05-.84-.28-.15-.14-.36-.37-.64-.7-.28-.32-.5-.6-.63-.83l-.91.52,3.38,5.84c.16-.08.49-.19,1-.34.52-.15,1.03-.26,1.53-.34l13.77-2.12-10.47,12.88,3.55,5.75,4.92,5.91.79-.66c-.19-.28-.37-.56-.55-.84-.18-.29-.33-.59-.46-.89-.13-.33-.2-.61-.21-.87,0-.24.07-.44.24-.58.16-.14.39-.3.69-.47.3-.18.89-.43,1.77-.75.91-.33,2.61-.92,5.1-1.75,2.5-.83,4.68-1.53,6.53-2.11-2.1,3.69-3.72,6.53-4.86,8.53-1.13,1.99-1.95,3.43-2.45,4.32-.05.08-.12.18-.21.3-.08.12-.18.22-.25.28-.21.18-.52.11-.92-.21-.39-.32-.84-.74-1.35-1.28l-.79.67,5.47,6.56.8-.66c-.16-.21-.31-.48-.45-.79-.15-.29-.24-.59-.28-.91-.04-.38-.04-.71,0-1.01.06-.29.15-.58.31-.86Z"/>
    <path class="cls-2" d="m28.71,184.89c-.55-.18-1.06-.26-1.57-.22-.52.04-.96.12-1.34.23-.53.15-1.05.38-1.56.66-.51.29-.93.64-1.25,1.08-.34.45-.55.98-.64,1.58-.08.61-.01,1.3.22,2.09l.59,1.97,8.75-2.58-.42-1.42c-.3-1-.69-1.78-1.19-2.31-.5-.54-1.02-.9-1.58-1.08Zm-4.63-3.25c1.03-.3,2-.37,2.92-.2.92.18,1.74.54,2.48,1.11.73.56,1.34,1.21,1.83,1.99.49.78.88,1.64,1.16,2.59l.65,2.22,6-1.76c.33-.1.6-.24.82-.41.21-.18.34-.46.37-.83.02-.19,0-.5-.08-.94-.06-.44-.15-.83-.25-1.19l1-.29,2.5,8.5-1,.29c-.08-.22-.2-.53-.38-.94-.17-.4-.32-.69-.44-.83-.2-.24-.44-.39-.71-.45-.27-.06-.59-.04-.95.07l-14.31,4.21c-.33.1-.6.23-.84.4-.23.17-.37.44-.4.83-.02.39,0,.77.05,1.13.05.37.11.67.16.93l-1,.31-2.66-9.06c-.54-1.85-.54-3.47.02-4.88.54-1.41,1.56-2.34,3.05-2.77Z"/>
    <path class="cls-2" d="m21.94,174.13l7.43-4.35.97,6.14-8.4-1.79Zm16.59-.55l-1.03.16c.09.76.07,1.46-.05,2.1-.11.63-.36.99-.74,1.05-.16.02-.38.03-.65.02-.26,0-.6-.04-1.04-.1-.44-.07-.93-.15-1.45-.23-.53-.09-1.15-.22-1.86-.38l-1.15-7.16,4.3-2.42c.09-.05.2-.11.32-.14.13-.03.22-.06.31-.08.22-.03.43.18.65.65.23.48.43,1.08.59,1.82l1.02-.16-1.26-7.85.12-7.46h-1.04c-.01.21-.12.66-.32,1.36-.19.7-.4,1.16-.62,1.37-.28.31-.74.53-1.38.68-.64.14-1.56.2-2.75.17l-10.67-.17,17.11-12.25.03-1.27-15.13-.24c-1.05-.02-1.93-.09-2.62-.22-.69-.14-1.15-.38-1.38-.73-.15-.24-.3-.65-.44-1.22-.14-.57-.21-.98-.21-1.25l-1.03-.02-.14,8.4,1.03.02c.04-.32.15-.79.32-1.4.19-.61.38-1.06.56-1.32.23-.3.65-.5,1.3-.65.64-.15,1.58-.21,2.78-.19l9.83.17-15.95,11.35-.09,5.9h1.03c.03-.35.16-.83.4-1.42.23-.6.52-1.07.84-1.42.24-.25.59-.46,1.04-.6.45-.15.9-.22,1.34-.21l10.19.16c1.35.02,2.3.11,2.86.24s.96.38,1.24.72c.13.16.28.55.44,1.17.08.32.15.59.19.82-.04.35-.11.65-.2.88-.16.37-.36.65-.56.87-.2.22-.47.43-.82.64l-16.52,9.6.18,1.15c2.66.57,5.67,1.22,9.06,1.95,3.39.72,6.46,1.4,9.17,2.02.54.12.95.26,1.28.43.32.17.64.41.95.76.2.22.37.51.52.86.15.36.26.66.32.91l1.02-.16-1.22-7.69Z"/>
    <path class="cls-2" d="m36.19,125c-.76-.7-1.68-1.28-2.72-1.74-1.04-.45-2.25-.81-3.6-1.08-1.4-.27-2.69-.38-3.91-.34-1.22.04-2.29.25-3.21.62-.91.37-1.67.9-2.28,1.6-.6.71-1,1.57-1.2,2.59-.22,1.14-.14,2.16.22,3.07.36.9.93,1.69,1.72,2.37.75.64,1.66,1.19,2.74,1.64,1.08.45,2.24.8,3.47,1.04,1.37.27,2.64.38,3.79.35,1.15-.03,2.2-.23,3.17-.6.94-.35,1.72-.87,2.34-1.56.62-.69,1.04-1.58,1.26-2.66.19-1.02.13-1.98-.19-2.9-.31-.91-.84-1.7-1.61-2.39Zm-13.96-4.93c1.1-.71,2.36-1.19,3.78-1.44,1.41-.25,2.92-.22,4.53.09,1.61.32,3.02.85,4.24,1.63,1.21.77,2.2,1.7,2.94,2.8.74,1.06,1.25,2.23,1.52,3.5.27,1.26.27,2.56.02,3.89-.28,1.41-.79,2.66-1.56,3.75-.77,1.1-1.7,1.98-2.81,2.65-1.09.68-2.34,1.13-3.75,1.37-1.42.23-2.88.21-4.39-.08-1.64-.33-3.08-.86-4.26-1.63-1.19-.76-2.17-1.69-2.94-2.78-.76-1.07-1.27-2.25-1.54-3.53-.26-1.28-.27-2.57-.02-3.87.26-1.34.76-2.56,1.5-3.65.73-1.09,1.64-1.98,2.73-2.68Z"/>
    <path class="cls-2" d="m33.85,108.78l-.67,1.78-8.28-3.17.89-2.31c.47-1.23,1.17-2.04,2.11-2.46.94-.41,1.99-.39,3.16.06,1.39.53,2.31,1.36,2.79,2.5.48,1.14.48,2.34,0,3.59Zm26.19-28.58c-.14.22-.38.5-.69.83-.3.34-.55.55-.72.65-.33.18-.61.26-.87.24-.26-.03-.54-.13-.83-.32l-12.59-7.93c-.28-.17-.51-.38-.67-.62-.18-.24-.22-.54-.14-.87.05-.21.15-.51.32-.9.16-.4.31-.72.44-.95l-.88-.56-3.59,5.7c.14.1.4.34.77.74.37.39.7.78,1.01,1.19l8.29,11.19-16.28-3.26-3.75,5.97.87.55c.25-.36.54-.67.88-.98.34-.3.71-.51,1.09-.62.36-.1.73-.11,1.13-.02.41.08.87.28,1.38.61l8.94,5.63c1.12.71,1.89,1.25,2.29,1.66.41.41.64.83.69,1.25.04.34-.01.74-.19,1.2-.16.45-.34,1.04-.54,1.43-.08.1-.16.2-.25.27-.28.26-.62.5-.99.72-.38.22-.92.43-1.62.62-1.59.45-2.93.81-4.04,1.12-1.11.31-2.46.69-4.09,1.15.07-.76.06-1.49-.01-2.17-.06-.68-.22-1.3-.45-1.86-.24-.6-.6-1.13-1.09-1.57-.5-.44-1.1-.82-1.85-1.1-.82-.32-1.59-.41-2.3-.3-.71.11-1.35.38-1.94.8-.6.44-1.12.98-1.56,1.64-.43.65-.81,1.38-1.13,2.2l-3.41,8.9.97.37c.11-.24.27-.54.49-.88.2-.33.39-.59.56-.79.25-.29.52-.43.8-.42.28,0,.58.06.9.18l13.95,5.34c.35.14.62.31.8.52.18.2.28.47.3.78.02.19-.03.5-.16.93-.11.44-.2.77-.25.99l.96.37,3.13-8.16-.97-.37c-.11.28-.27.61-.48,1-.22.38-.38.65-.51.78-.25.28-.51.42-.79.43-.28,0-.58-.05-.9-.17l-6.12-2.34.75-1.98c1.81-.55,3.55-1.04,5.23-1.47,1.68-.42,3.63-.86,5.88-1.33l1.98-5.2,3.54-5.68-.89-.55c-.11.16-.42.49-.93.96-.52.46-.92.74-1.2.81-.4.12-.91.07-1.52-.13-.59-.2-1.4-.62-2.41-1.26l-10.45-6.57.1-.16,18.79,3.89.39-.61-11.15-15.35.12-.18,12.71,8c.31.19.53.41.66.66.12.24.18.54.18.9-.02.22-.13.57-.36,1.04-.23.47-.42.84-.58,1.13l.86.55,4.87-7.73-.88-.55Z"/>
    <path class="cls-2" d="m68.06,73.38l-6.11,7.02-.78-.69c.16-.21.39-.51.69-.91.3-.4.48-.71.56-.91.12-.33.14-.61.07-.87-.07-.25-.25-.51-.54-.76l-11.29-9.85c-.26-.22-.5-.37-.75-.43-.25-.07-.56,0-.94.19-.27.15-.59.35-.97.61-.36.26-.64.5-.84.7l-.79-.67,6.12-7.01.78.68c-.19.23-.39.53-.63.88-.22.36-.4.69-.53.99-.16.35-.18.66-.06.93.12.27.29.51.53.72l11.27,9.84c.24.21.5.34.78.4.28.05.59,0,.92-.16.19-.1.47-.29.85-.58.37-.28.66-.55.88-.78l.78.68Z"/>
    <path class="cls-2" d="m71.11,49.97l-.74.68c-.31-.2-.69-.41-1.18-.61-.5-.2-.99-.37-1.48-.49-.52-.14-1.01-.22-1.5-.23-.48-.02-.86.06-1.13.24-.25.17-.55.41-.91.7-.35.29-.67.57-.96.83l-.62.56,11.09,12.26c.21.23.46.4.74.51.29.11.6.1.95-.02.17-.06.52-.24,1-.53.49-.29.86-.53,1.1-.74l.69.76-7.24,6.55-.69-.77c.19-.2.46-.51.84-.92.38-.42.62-.73.72-.94.16-.31.21-.59.16-.88-.05-.27-.21-.56-.47-.86l-11.19-12.35-.63.57c-.21.2-.5.46-.81.76-.32.32-.61.62-.88.94-.22.24-.33.6-.35,1.1-.03.49,0,.98.08,1.51.08.51.18,1.03.36,1.55.17.51.32.92.47,1.21l-.75.68-3.77-4.15,13.37-12.09,3.75,4.16Z"/>
    <path class="cls-2" d="m79.6,52.17l-1.92-8.38,7.08,4.9-5.16,3.47Zm32.38-7.74l-6.19-13.8c-.43-.97-.73-1.79-.9-2.47-.17-.68-.15-1.2.08-1.57.15-.24.46-.54.92-.9.45-.36.8-.61,1.04-.73l-.42-.95-7.66,3.43.42.95c.3-.11.76-.22,1.41-.31.63-.08,1.11-.11,1.43-.05.35.08.74.38,1.14.9.41.53.86,1.34,1.35,2.44l4.02,8.97-17.04-9.63-5.39,2.41.43.95c.35-.13.83-.22,1.47-.25.64-.03,1.19.02,1.63.17.34.11.67.34.99.69.33.34.58.72.76,1.12l4.16,9.3c.55,1.23.89,2.12,1,2.69.11.56.07,1.03-.13,1.41-.09.19-.38.49-.88.9-.21.17-.38.31-.55.43-.04.01-.06.03-.11.04-.35.13-.65.19-.91.21-.41,0-.74-.04-1.03-.14-.28-.09-.59-.25-.92-.49l-15.67-10.93-.96.65c.59,2.64,1.27,5.65,2.04,9.04.77,3.38,1.44,6.43,2.03,9.17.11.53.16.98.15,1.33-.01.36-.11.75-.28,1.19-.12.26-.31.54-.57.83-.26.28-.49.5-.69.67l.57.85,6.46-4.35-.58-.86c-.65.4-1.3.67-1.92.84-.63.16-1.05.08-1.27-.23-.08-.14-.19-.34-.3-.58-.11-.25-.21-.58-.35-.99-.13-.43-.26-.9-.4-1.41-.14-.52-.29-1.13-.43-1.85l6.01-4.05,4,2.88c.09.05.18.14.26.23.1.09.16.17.21.25.11.17.01.46-.32.86-.34.4-.8.83-1.41,1.3l.57.85,6.51-4.38,6.92-3.09-.42-.95c-.2.09-.67.19-1.38.31-.71.12-1.22.12-1.51.02-.39-.13-.79-.45-1.19-.97-.4-.53-.84-1.33-1.32-2.42l-4.36-9.73,18.34,10.32,1.16-.52Z"/>
    <path class="cls-2" d="m125.38,30.19l-1.91-9.14-1.08.23-3.16,10.19,6.14-1.29Zm14.97.93l.86,6.04-16.65,3.47-.22-1.02c.22-.06.57-.17,1.03-.33.47-.16.8-.29.97-.42.26-.2.44-.43.52-.69.07-.25.07-.55,0-.9l-1.21-5.82-6.84,1.43c-.26.75-.51,1.5-.73,2.22-.22.72-.5,1.74-.84,3.04-.07.26-.13.52-.16.79-.03.26-.03.5.01.72.1.43.36.72.82.86.45.15,1.08.16,1.87.05l.22,1.01-7.46,1.56-.21-1.02c.26-.07.57-.19.91-.38.35-.18.62-.36.83-.55.28-.26.55-.59.76-.99.22-.39.41-.82.56-1.29.93-2.83,1.85-5.64,2.75-8.44.89-2.8,1.8-5.75,2.75-8.8-.26-.04-.63-.02-1.14.02-.51.05-.95.11-1.35.18l-.21-1.02,17.65-3.68,1.02,4.88-1.08.22c-.33-.69-.9-1.37-1.71-2.05-.8-.67-1.5-1-2.09-.96-.3.03-.65.08-1.07.14-.41.06-.88.16-1.4.26l-3.04.63,1.68,8.04,2.13-.45c.72-.15,1.25-.33,1.56-.54.32-.21.57-.51.75-.88.16-.33.26-.73.31-1.22.05-.49.06-.94.02-1.36l1.06-.22,1.66,7.93-1.06.22c-.13-.45-.34-.91-.61-1.39-.27-.47-.53-.8-.76-.99-.37-.31-.75-.48-1.14-.52-.39-.04-.91,0-1.54.14l-2.13.45,1.27,6.05c.14.61.27,1.08.43,1.42.15.33.38.56.66.69.3.12.66.16,1.1.13.43-.03,1.04-.13,1.83-.3.32-.07.72-.15,1.22-.25.5-.11.91-.21,1.23-.32.38-.13.73-.27,1.06-.43.33-.17.55-.35.68-.57.34-.55.66-1.34.94-2.36.29-1.03.45-1.77.5-2.24l1.02-.21Z"/>
    <path class="cls-2" d="m161.3,28.2c.42.49.73,1.04.93,1.62.19.58.27,1.26.25,2.02-.05,1.83-.77,3.31-2.16,4.45-1.38,1.15-3.08,1.69-5.08,1.63-.92-.03-1.83-.2-2.75-.51-.91-.32-1.7-.69-2.35-1.12l-.66,1.05-1.15-.03v-7.09l1.17.04c.22.88.48,1.68.78,2.39.3.71.72,1.38,1.23,2.01.49.59,1.07,1.06,1.74,1.42.66.35,1.44.54,2.33.58.67.02,1.27-.05,1.76-.21.52-.17.93-.4,1.24-.71.32-.32.56-.68.73-1.11.17-.43.25-.92.27-1.49.03-.83-.19-1.61-.64-2.33-.44-.72-1.12-1.29-2.03-1.68-.62-.28-1.33-.57-2.14-.9-.81-.33-1.51-.64-2.08-.93-1.15-.56-2.04-1.27-2.66-2.15-.62-.86-.91-1.98-.87-3.34.03-.79.2-1.52.54-2.2.34-.66.82-1.26,1.42-1.77.58-.49,1.25-.86,2.03-1.13.78-.26,1.58-.38,2.41-.36.95.03,1.79.19,2.54.51.74.32,1.42.67,2.03,1.07l.62-.97,1.17.04-.08,6.85-1.18-.03c-.19-.8-.4-1.55-.65-2.28-.25-.73-.58-1.39-.98-1.98-.4-.58-.9-1.04-1.49-1.39-.59-.35-1.33-.55-2.2-.56-.92-.03-1.72.24-2.39.82-.66.57-1.02,1.29-1.03,2.14-.03.89.16,1.64.56,2.24.4.6.99,1.1,1.78,1.49.7.37,1.38.68,2.06.95.68.27,1.33.55,1.96.85.57.26,1.13.57,1.67.91.53.34.99.72,1.36,1.16Z"/>
    <path class="cls-2" d="m182.5,25.74l-1-.17c-.03-.36-.11-.8-.26-1.31-.15-.52-.32-1-.53-1.47-.22-.49-.46-.93-.75-1.31-.28-.39-.57-.63-.89-.74-.29-.09-.66-.18-1.11-.27-.45-.1-.86-.18-1.24-.24l-.84-.15-2.76,16.3c-.05.32-.03.62.06.9.09.29.29.54.6.74.15.09.51.24,1.04.45.53.21.95.34,1.26.41l-.18,1.02-9.63-1.63.18-1.02c.27.02.69.06,1.24.09.56.04.96.03,1.18-.02.34-.07.6-.21.79-.41.18-.22.32-.52.38-.91l2.79-16.43-.83-.14c-.3-.05-.67-.11-1.1-.16-.45-.07-.89-.1-1.29-.12-.32-.02-.69.12-1.08.4-.41.28-.78.62-1.15,1-.36.38-.69.79-1,1.24-.3.44-.52.81-.65,1.11l-1.01-.16.94-5.54,17.76,3.02-.93,5.53Z"/>
    <path class="cls-2" d="m214.98,39.86c-.17,1.17-.58,2.37-1.2,3.61-.64,1.25-1.33,2.3-2.05,3.13-.73.83-1.54,1.48-2.45,1.93-.85.44-1.79.65-2.81.62-1.02-.03-2.08-.32-3.19-.88-.95-.48-1.58-.99-1.89-1.52-.3-.54-.25-1.2.14-1.99l7.14-14.18c.22.11.56.25,1.01.47.46.22.86.41,1.22.59,1.07.54,1.93,1.22,2.6,2.08.66.84,1.12,1.77,1.36,2.78.25,1.06.29,2.18.13,3.35Zm2.26-3.97c-.51-.98-1.21-1.92-2.11-2.8-.91-.88-1.91-1.6-3.02-2.16l-8.07-4.06-6.67-2.24-.32.98c.31.13.6.28.9.43.31.15.58.32.86.51.27.2.49.41.63.62.14.2.18.41.11.62-.06.2-.19.45-.34.76-.16.31-.53.83-1.12,1.56-.6.76-1.74,2.15-3.43,4.17-1.69,2.02-3.17,3.76-4.43,5.24-.15-4.24-.27-7.51-.36-9.8-.08-2.3-.14-3.95-.18-4.97,0-.09,0-.21.02-.36,0-.15.02-.28.06-.38.08-.25.38-.36.89-.3.51.06,1.12.19,1.82.38l.32-.98-8.12-2.7-.32.98c.26.11.52.25.8.42.28.18.52.39.71.63.24.3.41.57.53.85.11.28.18.58.2.9.04,1.31.14,3.82.28,7.54.13,3.72.26,7.58.4,11.59l1.16.38c2.43-2.93,4.77-5.74,7.03-8.42,2.27-2.69,3.95-4.67,5.06-5.93.32-.36.63-.65.92-.89.28-.24.62-.41,1-.5.27-.06.59-.08.96-.07.15.01.27.02.4.04.16.11.33.22.52.37.28.21.53.46.73.73.22.28.33.57.31.86-.02.27-.1.57-.25.86l-6.71,13.32c-.16.31-.35.55-.58.71-.23.16-.51.23-.83.22-.16,0-.44-.09-.88-.24-.43-.16-.77-.3-1.02-.43l-.46.92,7.65,3.85c1.27.64,2.58,1.07,3.96,1.31,1.36.23,2.72.23,4.04-.04,1.32-.25,2.56-.82,3.74-1.68,1.17-.85,2.15-2.07,2.94-3.64.85-1.69,1.29-3.32,1.3-4.88,0-1.55-.33-3-1.02-4.31Z"/>
    <path class="cls-2" d="m219.15,59.15l-7.75-5.14.56-.86c.24.13.56.32,1,.56.43.24.76.39.97.44.34.07.63.05.87-.05.25-.1.47-.31.69-.64l8.28-12.47c.19-.29.31-.55.34-.8.03-.24-.06-.55-.32-.9-.18-.25-.41-.55-.74-.88-.32-.33-.58-.57-.8-.75l.57-.86,7.76,5.14-.58.86c-.26-.16-.58-.33-.96-.51-.37-.18-.73-.31-1.05-.41-.37-.11-.67-.08-.93.07-.23.15-.46.36-.63.62l-8.28,12.46c-.17.26-.27.55-.3.82-.02.28.07.59.27.9.13.17.36.43.7.77.33.33.63.59.89.77l-.57.86Z"/>
    <path class="cls-2" d="m233.5,66.44c.98-.31,1.95-.79,2.86-1.47.94-.67,1.85-1.53,2.76-2.57.93-1.07,1.69-2.13,2.26-3.21.57-1.08.94-2.1,1.08-3.08.15-.98.07-1.9-.23-2.78-.3-.88-.85-1.66-1.63-2.34-.87-.76-1.8-1.22-2.76-1.35-.97-.14-1.93-.04-2.91.29-.93.33-1.86.84-2.8,1.54-.93.71-1.81,1.54-2.65,2.48-.92,1.05-1.66,2.09-2.2,3.1-.56,1.01-.91,2.03-1.09,3.04-.17.99-.12,1.93.18,2.81.28.89.84,1.7,1.67,2.43.78.68,1.64,1.11,2.6,1.3.95.19,1.9.12,2.88-.19Zm11.3-9.59c.05,1.32-.17,2.66-.66,4-.5,1.35-1.29,2.64-2.36,3.87-1.09,1.23-2.26,2.18-3.54,2.85-1.28.66-2.58,1.03-3.91,1.13-1.29.11-2.55-.04-3.79-.45-1.22-.4-2.34-1.05-3.36-1.95-1.08-.94-1.9-2.02-2.46-3.23-.56-1.21-.86-2.46-.89-3.76-.03-1.29.2-2.6.71-3.94.5-1.35,1.26-2.59,2.28-3.74,1.11-1.26,2.29-2.22,3.55-2.87,1.26-.64,2.55-1.02,3.88-1.14,1.31-.12,2.58.03,3.83.45,1.24.42,2.36,1.06,3.36,1.94,1.02.9,1.83,1.94,2.4,3.13.57,1.18.88,2.42.94,3.7Z"/>
    <path class="cls-2" d="m255.4,73.22c.97-.79,1.52-1.69,1.63-2.71.11-1.02-.24-2.04-1.06-3.05l-1.56-1.93-6.88,5.57,1.19,1.49c.85,1.04,1.9,1.65,3.11,1.79,1.23.16,2.41-.23,3.57-1.15Zm-7.17,15.64l-3.5-4.33c.73-2.17,1.33-4.09,1.8-5.74.47-1.67.92-3.41,1.35-5.26l-1.33-1.64-5.09,4.11c-.26.22-.46.45-.59.69-.14.24-.15.55-.03.91.06.17.2.45.43.83.23.38.44.69.62.93l-.82.65-5.48-6.79.8-.65c.16.16.4.41.72.72.32.32.55.52.72.6.28.15.56.2.83.15.28-.06.56-.2.85-.43l11.62-9.4c.26-.21.46-.44.6-.68.15-.24.16-.54.03-.91-.08-.24-.22-.54-.4-.89-.19-.35-.36-.63-.52-.86l.8-.64,6,7.42c.55.67.99,1.37,1.34,2.08.34.71.55,1.43.64,2.17.07.71-.02,1.4-.28,2.08-.26.67-.74,1.29-1.43,1.84-.62.5-1.24.85-1.87,1.04-.62.2-1.27.25-1.91.16-.6-.07-1.21-.26-1.83-.54-.63-.29-1.26-.65-1.89-1.09-.41,1.64-.75,3.01-1.05,4.12-.3,1.11-.64,2.46-1.06,4.05-.18.7-.27,1.27-.27,1.71s.05.85.12,1.23c.06.27.18.57.37.92.19.34.36.6.51.81l-.81.65Z"/>
    <path class="cls-2" d="m280.15,108.09c-.17.06-.52.12-1.04.19-.54.07-1.06.11-1.57.11l-13.93.05,12.26-11.19-2.35-5.64-3.97-6.58-.89.53c.15.31.3.61.42.93.13.31.24.62.31.95.08.34.11.62.08.88-.02.24-.13.43-.33.55-.18.11-.43.23-.75.36-.32.13-.94.29-1.86.47-.96.18-2.73.5-5.31.94-2.6.44-4.86.81-6.78,1.11,2.64-3.32,4.67-5.89,6.09-7.69,1.43-1.8,2.46-3.1,3.09-3.9.05-.08.14-.16.24-.27.12-.11.2-.19.3-.24.23-.14.52-.02.87.35.35.37.73.86,1.14,1.46l.89-.53-4.42-7.32-.89.53c.12.24.23.52.33.84.09.31.14.63.14.94-.01.38-.06.72-.16,1-.1.28-.24.55-.44.8-.81,1.03-2.37,3.01-4.69,5.91-2.31,2.93-4.71,5.94-7.22,9.08l.62,1.03c3.75-.65,7.36-1.26,10.83-1.83,3.48-.57,6.04-.97,7.7-1.22.47-.06.89-.09,1.27-.08.38.01.75.1,1.09.27.24.12.51.32.77.57.23.21.4.41.54.59.01.11.04.21.05.32.04.46,0,.87-.14,1.25-.12.35-.34.65-.65.93-.31.27-.74.53-1.32.75l-9.83,3.88c-1.23.49-2.13.78-2.7.86-.58.09-1.04.02-1.42-.19-.3-.16-.59-.45-.86-.86-.27-.41-.52-.8-.7-1.2l-.96.38,3.06,7.76.96-.38c-.07-.19-.15-.63-.22-1.33-.07-.69-.05-1.17.06-1.45.13-.38.47-.76,1-1.13.52-.37,1.34-.77,2.45-1.2l11.47-4.53.08.18-14.26,12.84.27.67,18.96.11.08.21-13.98,5.5c-.34.13-.64.18-.92.13-.27-.04-.55-.17-.83-.38-.17-.15-.38-.45-.62-.91-.24-.46-.43-.84-.56-1.14l-.97.38,3.35,8.5.97-.38c-.09-.25-.18-.59-.27-1.04-.08-.44-.11-.77-.08-.97.04-.36.15-.65.32-.84.18-.19.42-.36.73-.48l13.86-5.46c.31-.12.6-.18.9-.17.3.01.56.15.78.41.14.16.32.42.56.78.21.36.39.67.49.92l.97-.39-2.47-6.27Z"/>
    <path class="cls-2" d="m287.63,144.81l-.94-7.2-1.02.13c.01.35.01.67.01,1.01,0,.33-.04.67-.09.99-.06.34-.15.62-.28.83-.12.22-.3.34-.52.37-.21.03-.5.05-.84.03-.34-.01-.97-.11-1.89-.32-.94-.21-2.7-.63-5.25-1.27-2.55-.63-4.77-1.21-6.65-1.7,3.75-1.99,6.64-3.52,8.67-4.6,2.03-1.08,3.49-1.86,4.39-2.34.08-.04.19-.09.34-.15.14-.06.26-.09.37-.11.26-.04.48.19.65.67.17.48.32,1.08.46,1.8l1.02-.14-1.11-8.48-1.03.13c.02.27,0,.57-.03.9-.05.33-.14.63-.26.92-.16.33-.34.62-.54.84-.2.22-.44.41-.73.57-1.15.61-3.37,1.79-6.66,3.53-3.29,1.75-6.71,3.56-10.25,5.43l.16,1.2c3.69.91,7.24,1.79,10.66,2.66,3.41.87,5.92,1.52,7.53,1.97.46.13.86.28,1.21.43.34.16.63.39.87.69.18.21.35.49.49.83.11.26.18.48.23.68-.07.3-.18.65-.35,1.06-.24.59-.52,1.06-.85,1.4-.25.26-.6.46-1.04.6-.46.14-.9.21-1.35.2l-10.18-.25c-1.35-.02-2.3-.11-2.86-.25-.55-.14-.96-.38-1.22-.72-.13-.16-.27-.56-.43-1.19-.15-.62-.23-1.06-.24-1.32l-1.04-.02-.2,8.47,1.03.02c.02-.22.13-.68.33-1.37.2-.7.41-1.15.62-1.37.29-.3.75-.52,1.4-.65.64-.14,1.56-.19,2.76-.16l10.66.25-17.22,12.11-.03,1.27,15.13.37c1.05.03,1.93.11,2.61.24.69.14,1.16.39,1.38.75.15.24.29.65.43,1.21.13.57.19.99.19,1.26l1.04.03.2-8.4-1.03-.03c-.03.32-.13.79-.33,1.4-.2.6-.38,1.05-.57,1.31-.23.3-.65.5-1.31.64-.65.14-1.58.19-2.77.17l-9.83-.24,16.04-11.23.07-5.9Z"/>
    <path class="cls-2" d="m264.58,175.63l1.49-9.18,1.02.16c-.02.26-.05.64-.1,1.13-.03.5-.03.85,0,1.06.08.34.22.6.41.78.19.17.48.3.86.36l14.78,2.39c.33.06.62.04.86-.02.24-.07.47-.3.69-.66.16-.27.33-.61.51-1.03.17-.42.28-.77.35-1.03l1.02.16-1.5,9.19-1.01-.17c.04-.3.06-.65.06-1.08,0-.43-.01-.8-.06-1.12-.05-.38-.2-.65-.44-.82-.24-.16-.52-.27-.83-.33l-14.76-2.39c-.32-.05-.61-.03-.88.07-.27.1-.5.31-.7.62-.11.19-.25.5-.41.94-.17.44-.28.82-.34,1.14l-1.02-.16Z"/>
    <path class="cls-2" d="m278.03,200.62c.06-.25.1-.56.1-.94,0-.37-.02-.68-.11-.94-.1-.38-.27-.7-.53-.99-.24-.28-.56-.58-.92-.89-1.3-1.06-3.34-2.67-6.1-4.83-2.77-2.17-5.66-4.42-8.68-6.73l.35-1.16c4-.28,7.85-.55,11.56-.82,3.72-.26,6.21-.45,7.52-.56.33-.02.62-.1.89-.22.27-.12.56-.3.84-.56.22-.21.43-.45.6-.74.16-.28.3-.55.39-.81l1,.3-2.41,8.2-1-.29c.16-.71.27-1.31.31-1.83.04-.51-.08-.8-.34-.88-.1-.04-.22-.04-.37-.05-.15,0-.28,0-.37,0-1.01.08-2.67.2-4.96.37-2.29.16-5.55.4-9.78.71,1.52,1.21,3.31,2.62,5.4,4.24,2.08,1.6,3.51,2.7,4.3,3.27.76.56,1.3.91,1.6,1.06.31.15.56.25.77.31.22.06.42.02.62-.13.2-.15.4-.37.59-.65.19-.28.35-.57.49-.88.13-.3.27-.61.4-.93l.99.3-2.16,7.37-1-.29Z"/>
    <path class="cls-2" d="m257.66,212.09l-5.35-2.95,7.27-15.53.94.44c-.1.27-.23.64-.38,1.11-.14.46-.22.78-.22.94,0,.34.09.62.24.83s.4.39.73.55l13.45,6.3c.3.14.58.2.85.22.26,0,.55-.12.82-.35.23-.19.48-.46.75-.81.28-.37.47-.66.61-.89l.94.43-6.78,14.49-4.5-2.11.46-.99c.75.13,1.63.09,2.66-.15,1.03-.23,1.7-.59,2.01-1.09.17-.25.35-.57.54-.93.2-.37.41-.8.63-1.29l1.38-2.93-7.44-3.5-.98,2.11c-.31.68-.48,1.21-.5,1.58-.02.37.06.75.25,1.13.16.31.42.64.79.97.36.34.72.62,1.08.84l-.46.99-7.33-3.43.46-1c.43.16.92.27,1.46.35.55.06.96.06,1.25,0,.47-.11.85-.32,1.11-.61.27-.31.54-.74.81-1.31l.99-2.11-5.61-2.63c-.56-.26-1.02-.42-1.38-.5-.36-.08-.69-.05-.96.12-.27.15-.52.41-.75.78-.24.37-.53.92-.87,1.65-.13.29-.31.68-.53,1.15-.22.48-.4.89-.52,1.22-.12.35-.22.72-.29,1.12-.08.4-.07.71.01.94.24.6.67,1.32,1.33,2.17.64.84,1.15,1.42,1.49,1.73l-.44.95Z"/>
    <path class="cls-2" d="m257.56,228.94c1.03.71,2.05.97,3.05.78,1.02-.17,1.89-.81,2.64-1.89l1.39-2.05-7.3-5-1.07,1.58c-.76,1.1-1.04,2.27-.83,3.49.21,1.22.91,2.26,2.13,3.08Zm-17.04-2.37l3.14-4.59c2.29.07,4.29.09,6.03.07,1.72-.02,3.52-.09,5.42-.21l1.19-1.75-5.41-3.7c-.28-.19-.55-.32-.83-.38-.27-.05-.56.02-.87.23-.16.11-.38.32-.68.64-.3.34-.53.62-.71.86l-.85-.58,4.92-7.21.86.58c-.12.2-.27.5-.49.89-.2.4-.34.69-.37.88-.05.31-.02.59.09.83.14.25.36.47.67.69l12.34,8.44c.28.18.56.32.83.39.27.07.57-.01.88-.23.21-.16.45-.37.74-.64.28-.28.5-.52.67-.74l.85.58-5.37,7.88c-.5.73-1.04,1.34-1.62,1.88-.58.53-1.21.94-1.89,1.23-.66.28-1.36.39-2.07.33-.73-.05-1.44-.33-2.18-.83-.66-.45-1.16-.95-1.53-1.49-.38-.54-.61-1.14-.7-1.78-.1-.6-.1-1.23-.01-1.91.09-.68.26-1.39.5-2.12-1.69.08-3.11.14-4.26.17-1.14.04-2.54.09-4.18.16-.72.01-1.29.09-1.72.22-.41.12-.8.29-1.13.46-.25.14-.51.35-.78.62-.26.28-.48.52-.63.72l-.85-.58Z"/>
    <path class="cls-2" d="m237.15,243.37c-.65-.03-1.25-.17-1.81-.42-.56-.25-1.12-.64-1.66-1.18-1.32-1.26-1.93-2.79-1.85-4.59.08-1.79.83-3.41,2.21-4.86.65-.65,1.38-1.22,2.24-1.68.85-.47,1.65-.8,2.4-1l-.33-1.19.82-.84,5.23,4.78-.81.85c-.8-.44-1.57-.78-2.3-1.03-.74-.26-1.51-.41-2.31-.44-.77-.04-1.51.07-2.22.32-.71.24-1.38.69-2,1.33-.47.49-.8.97-1.03,1.45-.23.47-.34.94-.32,1.38.02.45.13.87.33,1.29.21.4.52.81.92,1.2.59.57,1.31.95,2.15,1.1.83.16,1.71.04,2.61-.36.62-.28,1.33-.61,2.11-.98.79-.37,1.49-.68,2.09-.92,1.19-.47,2.31-.64,3.37-.52,1.06.13,2.09.66,3.07,1.61.57.55.98,1.17,1.25,1.88.26.71.38,1.45.35,2.25-.02.76-.2,1.51-.52,2.26-.34.75-.79,1.42-1.37,2.03-.66.69-1.35,1.19-2.08,1.53-.74.34-1.46.6-2.17.78l.3,1.12-.82.84-5.01-4.68.82-.85c.72.39,1.42.74,2.13,1.04.71.32,1.41.51,2.13.61.7.08,1.37.04,2.02-.16.66-.21,1.3-.62,1.91-1.24.63-.66.97-1.44,1-2.32.03-.88-.27-1.61-.88-2.21-.64-.62-1.33-.98-2.04-1.09-.72-.12-1.48-.01-2.31.3-.74.26-1.43.56-2.09.89-.65.33-1.3.61-1.95.88-.58.25-1.17.45-1.79.61-.6.17-1.2.25-1.78.24Z"/>
    <path class="cls-2" d="m221.95,243.81l7.14-5.96.67.78c-.19.19-.46.45-.81.8-.36.35-.59.62-.69.81-.17.3-.24.58-.2.85.02.26.16.54.41.83l9.6,11.49c.22.26.44.43.66.54.23.11.55.1.96-.04.29-.1.65-.25,1.05-.46.41-.2.72-.39.95-.56l.66.79-7.14,5.98-.66-.79c.22-.2.48-.46.76-.78.28-.33.51-.61.68-.89.2-.33.28-.63.2-.91-.07-.28-.2-.55-.41-.8l-9.61-11.47c-.21-.24-.43-.42-.71-.51-.27-.11-.57-.1-.93.01-.2.07-.51.22-.93.43-.41.24-.74.44-1,.64l-.67-.79Z"/>
    <path class="cls-2" d="m203.28,264.85l5.59-2.7.71,8.56-6.3-5.86Zm27.09-8.22l-.86.55c.11.32.19.75.27,1.28.08.54.13,1.06.12,1.59,0,.52-.05,1.02-.16,1.5-.1.47-.27.82-.52,1.03-.32.26-.66.53-1.02.78-.36.25-.67.46-.92.63l-.71.45-9.11-13.94c-.22-.33-.33-.63-.33-.92-.01-.28.09-.57.28-.85.13-.19.41-.47.85-.81.43-.36.76-.62.98-.78l-.56-.86-8.17,5.33-6.24,3.37.45.93c.71-.3,1.38-.49,2.02-.56.65-.07,1.06.06,1.22.42.07.15.14.35.21.6.08.26.14.61.2,1.04.07.45.14.93.2,1.46.07.53.13,1.16.17,1.89l-6.52,3.16-3.55-3.43c-.08-.07-.16-.16-.24-.26-.07-.1-.13-.2-.16-.27-.1-.2.05-.47.44-.81.39-.35.92-.71,1.57-1.09l-.45-.93-7.73,3.74-8.65,2.43.33.97c.3-.09.73-.16,1.3-.23.56-.06.94-.09,1.13-.08.36.03.65.15.86.37.22.2.38.45.48.76l5.22,15.69-.8.27c-.37.13-.77.24-1.21.37-.44.13-.81.21-1.11.27-.32.05-.7-.02-1.13-.22-.43-.21-.85-.49-1.27-.82-.4-.31-.8-.66-1.16-1.04-.37-.39-.65-.74-.84-1.04l-.96.31,1.77,5.32,17.09-5.69-1.78-5.31-.97.32c.03.34,0,.76-.06,1.3-.04.53-.15,1.05-.28,1.56-.14.51-.32.98-.53,1.42-.22.43-.47.72-.77.86-.37.17-.77.34-1.19.49-.41.16-.76.29-1.05.38l-.8.27-5.26-15.81c-.13-.38-.16-.71-.09-.97.06-.28.23-.53.49-.74.18-.15,1.07-.29,1.68-.47.23-.1.52-.19.89-.26.36-.07.67-.1.93-.06.4.05.73.15.99.27.26.13.55.34.85.62l13.96,13.04,1.04-.5c-.21-2.7-.46-5.78-.74-9.24-.27-3.45-.51-6.57-.71-9.35-.03-.55-.01-1,.04-1.35.08-.35.23-1.07.47-1.48.14-.25.49-.76.79-1.01.28-.16.67-.34,1.2-.55.53-.21.89-.33,1.08-.37.35-.06.67-.02.93.13.26.15.47.36.65.63l9.04,13.84-.71.46c-.32.21-.69.44-1.08.67-.4.24-.73.41-1,.55-.3.13-.68.16-1.16.06-.47-.09-.96-.24-1.44-.46-.47-.2-.93-.43-1.39-.72-.44-.27-.81-.54-1.08-.78l-.84.55,3.07,4.69,15.08-9.86-3.06-4.69Z"/>
    <path class="cls-2" d="m170.41,266.2l9.12-1.87.21,1c-.26.07-.62.18-1.1.32-.48.15-.8.27-1,.38-.28.19-.47.41-.57.65-.1.24-.11.55-.03.93l2.99,14.67c.08.34.18.6.34.8.14.2.43.34.86.41.3.06.68.09,1.14.11.45,0,.81,0,1.1-.05l.21,1.02-9.12,1.86-.21-1.01c.3-.07.64-.17,1.03-.31.4-.16.73-.31,1.02-.46.34-.2.54-.42.61-.71s.08-.58.02-.89l-3.01-14.66c-.06-.31-.19-.57-.38-.79-.19-.22-.46-.36-.83-.44-.21-.02-.55-.05-1.02-.04-.47,0-.88.02-1.18.08l-.21-1.01Z"/>
    <path class="cls-2" d="m157.27,277.11c-.47-.45-.84-.94-1.1-1.5-.26-.56-.43-1.22-.5-1.99-.16-1.82.37-3.37,1.6-4.67,1.25-1.31,2.87-2.05,4.86-2.23.92-.09,1.84-.03,2.78.18.95.2,1.78.47,2.48.82l.53-1.12,1.16-.09.84,7.02-1.17.11c-.33-.85-.68-1.6-1.07-2.28-.39-.67-.88-1.29-1.46-1.85-.56-.52-1.19-.92-1.89-1.19-.7-.28-1.5-.39-2.39-.3-.67.06-1.24.2-1.72.42-.48.21-.86.5-1.14.85-.28.35-.47.74-.59,1.19-.1.45-.14.95-.08,1.51.08.83.37,1.57.9,2.25.53.66,1.28,1.14,2.22,1.42.66.2,1.39.41,2.24.64.83.22,1.57.45,2.18.66,1.21.42,2.17,1.02,2.89,1.8.72.79,1.14,1.86,1.26,3.23.07.79-.01,1.52-.27,2.23-.26.71-.67,1.36-1.2,1.94-.52.56-1.14,1.01-1.88,1.37-.74.36-1.52.58-2.35.64-.95.09-1.81.02-2.59-.2-.77-.22-1.49-.5-2.14-.83l-.51,1.04-1.16.11-.74-6.81,1.17-.11c.28.76.59,1.49.92,2.18.34.69.74,1.3,1.22,1.84.46.53,1.01.93,1.64,1.2.63.29,1.38.39,2.24.31.92-.09,1.68-.45,2.27-1.1.59-.65.86-1.4.79-2.25-.08-.9-.36-1.61-.83-2.16-.47-.55-1.12-.97-1.95-1.27-.73-.28-1.45-.5-2.16-.7-.71-.18-1.38-.39-2.05-.6-.61-.2-1.2-.44-1.76-.71-.56-.27-1.06-.6-1.51-.99Z"/>
    <path class="cls-2" d="m181.46,84.51c1.68,1.67,2.7-1.16,3.12-2.65-1.66-1.78-3.12,1.06-3.12,2.65Z"/>
    <path class="cls-2" d="m105.51,101.5c.19-.24.4-.47.57-.73.08-.13.18-.33.32-.47,0-.06,0-.11-.01-.17-.32-.36-1.04-.53-1.68-.43-.16.08-.34.14-.51.2-.11.04-.2.09-.3.14-.26.22-.41.56-.32,1.02.38.31,1.25.57,1.93.44Z"/>
    <path class="cls-2" d="m68.15,113.08c-.48-2.81-1.81-4.75-2.35-7.49.68-.71,3.6-3.9.94-3.9-1.84,0-4.13,3.1-3.9,5.15.27,2.52,2.36,7.16,5.31,6.24Z"/>
    <path class="cls-2" d="m105,113.81c-.32-.43-.75-.7-1.22-.87-1.44-1.29-3.59-1.71-5.4-2.22,0,0,0,0,0,0-.35-.13-.69-.26-1-.45-.09-.06-.24-.06-.4-.03-.16-.13-.34-.24-.58-.28h-.31c.33,1.7.95,2.85,2.03,3.59,1.07.74,2.17.61,3.45.71.76-.11,1.52-.09,2.27.03.02.02.04.04.06.06.33.44,1.49-.03,1.11-.54Z"/>
    <path class="cls-2" d="m154.31,229.52c-3.79-.09-3.04-4.69-3.28-8.28-2.07-.09-2.76,2.34-3.28,4.22-.39,1.44-1.08,3.32-1.25,4.68-.59,4.79,2.42,7.05,6.87,6.56,4.67-.52,12.19-4.91,8.58-10.46-3.88-1.2-4.49,3.35-7.64,3.28Z"/>
    <path class="cls-2" d="m128.4,166.3c.65-1.11,2.2-2.41,4.37-2.57.83-.06,1.72.28,2.71.15.89-.11,1.7-.65,2.57-.91,2.36-.69,4.35-1.03,4.37-2.71.02-2.1-2.83-2.39-4.67-1.51-3.43-1.46-5.68,1-7.69,3.02-1.94,1.94-5.01,4.81-2.41,6.79,1.32-.38.8-1.4.76-2.26Zm24.28-20.36c-.74.72-1.13,1.79-1.81,2.56-1.55.82-5.27-.55-5.88,1.21,1.3,1.01,3.9.72,4.98,1.96.46,1.11.14,2.98.61,4.07-.27.14-.39.42-.91.3-.74-1.38-2.35-2.67-4.52-2.11-1.39,3.51,3.35,4.9,4.82,2.56.2.76.99.92,1.36,1.51-.54.31-1.44.27-1.51,1.05.29.72,1.76.26,2.11.91-.31.6-1.28.53-1.96.75.02.58.61.59.76,1.05,5.32-.52,7.31-6.41,6.34-11.76-.59,2.88-1.4,5.54-4.68,5.73-1.16-.73-1.01-3.24-.45-4.52,3.22-.37,5.99-1.95,5.13-5.88-.89.26-2.67,1.53-4.38.6Zm-6.48.45c2.52,4.1,2.43-3.75,5.58-2.56v-1.51c-3.45-.72-1.95,4.5-5.58,4.07Zm-20.81-9.95c-.17-.8-1.57-1.75-2.41-.91.79.22,1.75,1.06,2.41.91Zm24.73-19.16h1.66c4.31,3.38,5.69,10.5,6.19,17.2-1.58-2.07-1.86-5.81-2.87-9.65-.67-2.54-1.76-6.27-4.52-4.53-.05,1.45-.35,2.39-.15,3.62.24,1.51,1.65,2.54,1.81,3.77.17,1.24-.82,1.98-1.05,3.17-.46,2.35.53,4.46.6,6.94,2.52.54,7.52-1.66,6.19,2.26-2.3-.49-4.36-2.11-5.74.3,1.89-.08,3.44.18,4.08,1.36,2.34-2.18,2.91,1.79,4.67,2.71,1.06.56,2.6.35,3.77,1.06.58.35.75.94,1.21,1.36,1.12,1.01,2.89,1.61,3.02,3.02-.96.75-1.68-.13-2.11-.75-2.07-.85-3.68-2.15-6.34-2.41-.09,2.37-1.14,5.43,0,7.24.59.13,1.41.26,1.96,0-.07-1.28.32-3.29,0-4.83,1.35.24.62,1.83.91,2.87.27,1.01,1.21,1.51,1.66,2.11,1.19-.44-.05-2.37.91-3.02.58.02.61.59.6,1.21.96.55,1.66,1.36,2.11,2.41.64.97,2.06,1.16,2.11,2.71-1.18-.05-1.72-1-2.86-1.36-2.5-.77-6.29.28-6.34,2.11-.05,1.98,6.06,3.19,7.99,3.47,1.73.24,3.15.08,4.07-.91-.77-3.64-3.1-5.91-2.57-10.26.2-1.63,1.2-2.95,1.21-4.52.02-3.25-3.03-5.22-2.56-9.05.45-1.59,3.03-.78,4.83-1.36,1.8-.58,2.04-2.39,3.62-2.87,2.07.55,3.6-.7,5.13,0v1.05c-1.83.86-2.95,1.91-4.07,3.32-.52.65-.92,1.8-1.96,1.96.09-2.16.94-3.58,2.11-4.67-1.86.91-3.07,2.46-5.88,2.41-.25.56.92.99,1.36,1.36-.34,1.02-1.61,1.1-1.81,2.26,4.43.87,1.61,6.44,1.96,11.01.31,4.11,2.62,8.19,2.26,11.46-.15,1.32-1.08,2.38-1.36,3.32,1.93.28,4.15-.54,4.38-1.96.73-4.54-3.12-10.2-2.26-14.93,2.01,2.44,2.03,7.95,2.87,11.76.32,1.47.8,2.95.75,4.22-.11,3.19-2.52,3.85-5.73,3.62-7.13-.51-14.31-4.82-19.76-7.09-1.98,1.09-3.68,3.14-6.64,2.56-2.21-.43-2.81-2.75-5.58-2.11-3.43.79-7.46,3.27-11.77,3.01-.75.35-.54,1.67-1.05,2.26,1.77.35,2.3,1.87,3.92,2.72,1.06.55,2.61.57,4.07,1.05,2.6.86,4.36,2.26,7.24,3.02,1.4.37,3.25.57,3.92,1.2,1.28,1.22.53,4.4,2.56,4.52.38-1.12-.45-1.64-.15-3.01.16-.75.84-1.23.75-2.11-.08-.81-1.18-1.99-2.11-2.11-1.69-.22-3.07,1.26-4.68.76-1.64-.52-2.77-3.14-4.38-4.52-2.22-1.93-5.01-2.37-8.29-2.87,1.08-.95,2.84-.3,4.07,0,1.21.3,2.74.64,3.77,1.36,1.58,1.11,2.61,3.33,3.92,4.07,2.39,1.35,8.95-.11,9.35,3.02.2,1.57-1.5,2.52-1.66,3.77-.21,1.6.99,3.27.61,5.13-.31,1.47-1.71,2.4-1.96,3.92h-1.21c-.34-3.75-.75-6.52-2.56-8.75-2.53-3.11-8.97-3.29-13.88-4.98-2.13-.73-3.78-1.58-6.33-2.41-2.96-.97-6.78-1.55-5.58-5.43,1.41-4.59,6.1-7.56,9.35-10.26-1.17-1.14-.27-4.55.6-4.98.95.31.23,2.28.45,3.32,1-.16,1.76-1.86,1.81-3.47,1.64.12.45,3.07,1.21,4.07,3.16.2.76-3.74,1.96-5.13h1.05c.12,1.35-.33,4.67,1.05,4.83.6.07,1.65-1.34,1.81-2.11.37-1.71-.48-4.16.91-4.98-4.16-.48-6.11,2.82-9.65,1.96.1-3.4,4.33-3.18,7.69-3.92.82-.44,1.01-2.09,2.11-2.72.44-.25,1.31-.2,1.96-.45,1.45-.56,2.69-2.13,3.77-2.26.99-.12,1.87.8,2.72.15-1.16-2.15-3.75-.24-5.43.15.11-5.02,1.16-9.1,2.87-12.52-2.29,1.61-3.69,5.68-7.09,6.94-1.58.58-4.06,1.04-5.43.9.03-1.04,1.3-1.06,1.96-1.36,3.44-1.53,6.88-3.04,7.99-6.64-3.02-.1-5.97,1.18-8.14,3.02-2.51,2.11-4.99,5.2-7.09,7.39-1.06.21-.98-.73-1.96-.6-1.89,1.21.07,3.82,1.66,3.92,1.12-.14,1.35-1.16,2.11-1.66.04,1.51-1.2,3.02-3.47,2.71-1.59-.94-1-2.41-2.57-3.47-1.39-.94-3.68-.66-4.67-1.96-.31-.4-.27-1.02-.45-1.36-.44-.8-1.14-.97-1.66-1.81v-1.05c1.58-.78,2.36.8,3.47,1.2,5.99,2.19,9.54-.97,12.52-4.07,1.65-1.72,3.16-3.72,4.98-5.27,1.37-1.17,3.37-2.25,4.52-3.17,1.71-1.37,2.76-3.48,4.68-3.92Z"/>
    <path class="cls-2" d="m224.96,195.56c.44-.36.93-.68,1.36-1.05-1.11-1.51-2.04-3.19-3.02-4.83.29,2.22.51,4.52,1.66,5.88Zm-4.98-17.34c-1.91-2.18-9.39-5.17-10.71-.45,1.1,1.11,3.3.37,4.67.6,2.45.41,4.61,3.02,5.88,4.53.47.55,1.09,1.64,1.51,1.35-.5-1.96-1.19-3.73-1.36-6.03Zm-13.12-10.86c5.83,0,8.56,3.11,12.37,5.13-.18-1.78-.26-3.66-.3-5.58-3.43-1.38-8.96-.96-12.07.45Zm-107.08,5.73c-.73-1.79-1.55-3.56-2.26-4.98-5.88-1.86-9.4-6.09-12.52-10.71-3.97-.3-7.72-1.63-10.86-2.26-.15,0-.18.12-.3.15.9,2.01,3.24,2.62,4.98,3.62,1.61.93,3.98,2.15,4.98,3.62,1.41,2.08,1.24,4.48,3.02,6.33.51.54,1.21.8,1.66,1.36,1.19,1.5,1.17,3.76,2.71,5.13-.09-.85.74-.77,1.36-.91.99.42.42,2.39,1.96,2.26.43-.7-.51-1.15-.3-2.11,1.56-1.42,1.9.55,2.71,1.36.47.47,1.23.64,1.81,1.05.69.5,1.01,1.34,1.51,1.21,1.72-1.46.15-3.66-.45-5.13Zm-20.96-32.73c.31,1.8.98,3.25,1.96,4.38.55-1.01,1.17-1.95,1.66-3.02-.74-.72-.54-2.38-1.66-2.72-.73.38-1.5.72-1.96,1.36Zm4.67,14.02c-.09,0-.18-.02-.15-.15-.98-5.16,3.77-7.9,4.22-12.51.27-2.76-.88-5.57-3.17-6.64-.35.31-.81.5-.91,1.05.26.95.97,1.48,1.21,2.41,1.5,5.77-5.89,8.67-4.07,14.48.83.47,2.12,1.3,2.87,1.35Zm-11.46-30.16c.87,1.7,1.62,3.51,2.57,5.13.92-.64,1.64-1.47,2.11-2.56-.89-1.82-.95-4.48-2.41-5.73-.62,1.19-1.75,1.87-2.27,3.16Zm49.17.45c-6.59,6.6-12.26,16.55-11.76,29.71.46,12.42,6.72,21.36,13.72,27.6,7.58,6.75,16.87,11.28,30.47,11.01,12.23-.24,21.82-5.75,28.51-12.82,6.45-6.82,12.5-16.31,11.77-29.71-.34-5.99-2.2-11.2-4.68-15.99-6.64-12.86-19.57-23.83-39.37-22.77-13.56.72-21.71,6.02-28.66,12.97Zm-42.23-36.5c-.19-2.22-1.72-3.11-3.47-3.77.11,2.31,1.38,3.45,3.47,3.77Zm96.22-42.53h.3c.21,4.78-.86,9.36-1.05,13.72-.06,1.47-.27,3.66.15,4.83.46,1.27,2.45,1.73,2.56,3.16.12,1.42-1.34,1.94-1.66,3.47-.42,2.02.51,3.55.15,5.58,3.42-.01,8.9.66,6.63,4.38-1.96.49-2.86-1.47-4.22-.6.54.82,2.17.54,1.81,2.26-.7.71-2,.06-2.56-.3.17,1.59,2.71.8,2.26,3.02-.55.61-1.92.21-2.26-.31-.44.76,1.91,1.3,1.51,2.72-.44,1.55-2.69.23-4.22.45-1.8.25-2.18,1.97-3.32,1.96.37.66,1.07,1.43,1.21,2.41.24,1.74-.57,2.32-.91,3.47-1.41,4.84.5,12.75-2.26,15.84,1.03.82,2.42,1.29,3.62,1.96.44-6.19-.58-14.65,0-20.51.16-1.55.74-3.27,2.72-2.71.66,1.2-.07,2.49-.15,3.77-.44,6.66.61,14.39.15,20.96,1.14.79,2.01,2.46,3.47,2.56,1.31.09,3.72-1.38,5.58-2.11,2.76-1.1,5.08-1.83,8.44-1.66.32-1.25-.01-2.96,1.05-3.17,1.07-.2,1.76,1.79,2.41,3.02,1.27,2.38,2.16,4.85,5.28,3.92.16-1.17.03-1.69.15-2.87.93.47,1.62,1.74,1.81,2.87,1.01,5.98-.57,15.81-3.92,16.89-4.14,1.34-6.04-3.2-5.73-7.69.73-.05,1.29.42,1.51-.3-1.05-1.62-.84-3.75-2.26-4.82-2.46-1.84-6.6.37-9.96.15,6.95,8.22,11.63,19.54,10.86,34.54-.73,14.18-7.44,23.07-15.38,30.01-.75.65-3.22,2.38-3.47,3.17-.33,1.04,0,2.87,0,4.38v13.42c7.52.64,13.68-1.26,19.46-2.86.3-1.8.76-3.81,1.51-5.43.67-1.44,1.39-3.59,3.32-3.32.74.6.03,2.05.15,3.02,3.15-.88,3.69-4.36,8.3-3.77,1.63,2.27,5.72,2.54,8.45,3.77.64.29.96,1.07,1.66.75.35-3.54-2.2-5.02-4.82-6.18-1.66-.73-3.83-1.03-3.92-2.56-.11-1.88,2.77-3.39,5.28-2.87,1.56.33,1.83,2.1,3.17,1.81-.16-2.7-1.01-4.74-3.02-4.97-2.36-.27-4.74,2.25-6.79,3.77-1.31.97-4.88,4.16-6.79,3.77-1.54-.32-1.85-3.7-1.36-5.58.56-2.13,3.38-4.35,3.77-6.19.72-3.46-1.89-7.42-3.32-10.1-1.58-2.97-2.99-6.28-3.17-10.26-.33-7.47,2.3-10.1,4.52-14.93.6-.26,1.25-.45,1.96-.6,1.4-2.02,2.26-5.38,2.56-8-.84,1.37-.9,3.11-2.11,4.53-1.54,1.81-5.45,2.08-7.39,1.05-1.84-.97-1.98-4.55-1.21-6.94,1.53.83,2.14,2.58,3.62,3.47,3.6-2.39,6.39-6.56,6.78-12.06.45-6.25-1.78-12.52-2.87-17.65-2.88-.22-4.11-1.52-6.64-1.51-4.36.02-7.27,4.17-10.55,1.2.61-.82,1.56-.16,2.56-.15,3.09-3.25,10.99-2.6,15.68-2.56.1-.61.65-.76.61-1.51-3.55-1.02-4.41-4.74-5.28-8.44-2.8.04-5.48-.05-6.64-1.66.91-1.96,2.62-2.15,3.62-4.07,1.16-2.21.25-4.83,1.21-7.24.77-1.94,3.27-5.15,5.43-4.98,2.06.16,3.64,3.12,4.53,4.83,1.17,2.25,1.97,4.37,2.26,7.09,2.17,0,4.42-.1,6.03.45-1.75-5.7-3.41-11.9-9.65-12.67-1.31-.16-3.27.48-4.67-.15-1.79-.8-1.77-4.05-1.96-5.88,8.87-.06,14.65,5.59,17.8,11.46,1.19,2.24,1.57,4.65,2.41,7.39.36,1.16,1.61,2.85-.45,3.01.74,1.47.37,3.39-.6,4.53.84.63,2.75,2.17,4.07,2.86.74.39,2.07.55,2.26,1.2.59,2.01-2.73,2.51-4.68,2.87-.34.4.76.65.45,1.51-.41.95-1.72,1-2.11,1.96.74,1.27,1.72,2.3,1.96,4.07-.93-.28-1.79-.62-2.56-1.05-.76-1.26-1.21-2.93-2.11-4.53-.4-.71-1.07-1.09-1.35-1.96-.74-2.29.15-5.68.15-8.45,0-.69-.26-1.29-.15-1.81.2-.9,1.21-1.14,1.35-1.81-1.43-1.14-3.51-.35-3.77,1.36-.15.98.83,1.99-.15,2.71-3.51.34-2.26-4.07-4.22-5.28-2.99.28-4.85,1.69-6.64,3.17.5.61,1.92.29,2.41.9.32,1.28-1.64,1.79-.76,2.68.91.35,2.46-.51,2.87.34-.67,1.09-2.57.3-2.72,1.66-.09.88,1.49,2.07,3.02,1.96.84-.06,1.43-.92,2.41-.75,2.98.51.61,5.58,1.21,8.44-1.44.17-2.5.72-3.16,1.66.78,4.67.46,10.08,3.62,12.22,3.13,2.13,6.64-.11,9.95-1.05.51,1.67.47,3.16,0,4.22-.48,1.06-2.68,3.08-3.92,3.77-.67.37-1.41.33-1.96.76-.67.53-1.26,2.03-1.81,3.02-1.2,2.15-2.83,4.02-2.11,7.39,1.11,1.26,2.55,2.17,3.77,3.32,1.18.13,2.42.19,2.87,1.05.24,1.82-1.05,3.35-1.06,5.13,0,1.85,1.45,4.36,2.26,5.58.27.4.56,1.34,1.05,1.06,1.02-9.94,3.72-18.21,7.09-25.79-1.39-1.23-4.1-1.13-5.13-2.72.53-1.89,2.49-2.84,3.77-4.23,1.47-1.59,2.41-4.18,5.43-3.92-.02,1.37-.06,2.77.6,3.47,3.27-2.61,5.93-6.97,11.46-7.54,11.44-1.17,14.06,9.32,17.04,17.49v.3c-2.84-6.16-5.29-12.7-13.12-13.87,2.73,28.24-2.16,55.11-10.56,74.5,7.54.55,11.59-3.36,14.78-7.69.92-1.25,1.62-2.8,2.87-3.77-3.74,5.81-8.24,16.1-19,14.93-2.01-.22-3.89-1.31-5.28-2.26-.24-.17-.69-.73-1.05-.45-.54,2.28-2.42,3.31-3.77,5.73-1.37,2.46-1.71,5.89-4.52,5.43-2.29-.38-1.65-3.69-3.32-4.98-1.17,1.57-.27,3.79-.46,5.73-.25,2.68-1.8,4.97-1.81,7.09.65-.61,2.74-.58,3.77-.3-1.89,3.08-5.37,4.55-8.9,5.73-3.93,1.31-8.11,1.36-12.82,1.66-4.65.29-7.8,2.85-9.2,6.63-1.33,3.61-.46,8.49-2.41,12.22-2.3-21.33,15.36-25.24,26.4-34.23-4.07-.73-4.51-3.12-8.75-2.87-4.55.27-9.43,4.98-11.31,9.95-.64,1.69-.58,3.82-1.51,5.28-.95,1.49-2.82,2.18-3.77,3.32-1.55,1.85-1.78,5.33-4.68,5.58-.83-.33-.61-1.71-1.05-2.41-1.33.78-2.48,1.75-2.72,3.62.57,1.17,3.97.43,4.22,2.11.14.93-1.43,1.73-1.51,3.02-.16,2.61,2.99,5.11,2.41,7.54-.25,1.06-1.85,1.23-2.11,1.81.75,1.51,1.23,2.64,2.87,3.47,1.47.75,4.06.36,3.47,2.56h-2.26c-1.17-.28-2.43-.48-3.32-1.05-.59-1.34-1.8-2.01-2.41-3.32-.78-1.69-1.07-3.85-2.11-5.58-.37-.61-.95-1.25-1.36-1.81-.49-.65-.84-1.34-1.21-1.81-1.26-1.62-3.85-2.57-3.17-5.13.3-1.11,2.13-1.5,3.17-2.26.96-.7,1.85-2,3.02-3.02,1.14-.99,2.64-1.75,3.32-2.56,1.88-2.24,1.68-5.66,2.87-7.99.75-1.47,2.02-1.61,2.57-3.17-3.17-2.59-7.62-.01-11.92-.45-2.64-.27-5.38-.21-7.99-.75-2.15-.45-3.74-1.9-5.88-2.11-6.88-.69-11.66,4.05-14.63,8.3,4.24-2.09,6.64-5.82,13.12-6.03,2.85-.09,5.22.58,8.29,1.21,1.61.33,7.37.83,7.09,2.41-.22,1.28-4.21.95-6.03.91-2.82-.07-4.39-.47-6.48-.45-8.34.06-15.8,4.32-16.89,12.06-.34,2.39-.21,4.56-1.81,4.68-2.21.15-3.97-5.27-4.22-7.99-.47-5.15,2.37-8.25,5.28-10.86,2.54-2.28,5.3-4.33,7.39-5.73,6.34-4.24,13.37-2.14,21.57-.75.34-5.09.06-10.8.15-16.13-5.5,2.4-10.85,4.76-18.1,5.12-17.85.89-30.22-6.73-37.71-17.65-6.85-10-11.73-29.3-4.67-43.74-2.38-2.24-4.35-4.89-8.14-5.73-1.35,1.01-2.97,1.97-3.92,3.47-.57.88-.69,2.08-1.21,3.01-.81,1.47-1.84,2.69-2.56,4.23-.73,1.55-1.12,3.25-2.26,4.52-.81-5.59,2.25-8.6,3.62-12.51-3.39.28-7.23.11-9.35,1.66-1.29,3.29,1.13,6.27,1.21,9.35.03,1.27-.66,2.55-.6,3.77.06,1.37.77,2.63.75,3.92-.02,2-1.18,3.67-.45,5.73,1.54.54,2.51-1.27,4.07-1.2,2.67.11,3.26,4.96,4.82,7.08,1.22,1.67,3.9,3.16,5.73,4.68,1.83,1.51,3.48,3.32,5.13,5.12,3.24,3.56,7.16,7.1,7.99,12.67.16,1.1.17,1.95-.15,2.87-.36,1.05-1.88,1.88-2.11,2.56-.2.6.07,2.07,0,3.16-.37,5.46-1.55,11.52-1.21,17.5.13,2.17,1.14,4.45,0,6.18-1.04-2.17-1.01-4.87-1.2-7.54-.2-2.67-.35-5.38-.15-8.3.38-5.67,1.44-11.82.75-16.74-.53-3.76-5.05-5.37-7.69-7.39-.2-.15-.55-.78-.91-.45-.06,3.19-.7,5.32.75,7.39,1.03,1.47,3.18,1.57,3.47,3.32.16.95-.55,2.24-.45,3.02.18,1.44,2.28,2.14,2.41,3.77.23,2.83-2.5,3.56-4.22,4.98-3.28,2.69-6.35,10.26-2.26,14.18.92-.41.38-3.01,1.96-3.16,2.56-.26,2.14,6.73,2.71,8.75.2.72.73,1.35,1.06,2.11.19.45.07.8.3,1.21.73,1.32,1.28,3.65,1.96,5.43.57,1.5,1.53,3.2.3,4.22-1.37.29-1.68-1.2-2.56-.91-.31,1.32-.75,3.73.75,4.07,1.81.41,4.04-3.12,7.39-1.81.76.3,2.06,1.29,1.96,3.02-.08,1.38-.91,1.19-1.36,2.72,1.17.76,3.03,1.31,3.17,2.87.08.98-1.02,1.5-.45,2.41,1.52.95,3.45-.61,5.28-.6,1.35,0,3.28.59,3.17,1.81-.22,2.41-6.58.79-8.75.9-1.32-2.01-5.19-1.02-7.54-2.26-.8-.42-1.13-1.58-1.81-1.81-2.34-.78-4.82.53-5.28-1.81-.28-1.45,1.05-3.16,1.2-4.23.2-1.35-.23-2.76-.15-4.07.04-.75.46-1.43.45-2.11-.04-3.35-2.69-6.62-4.52-9.35-1.94-2.9-4.04-5.75-4.23-9.5-.17-3.43,1.29-6.64.6-10.86-2.94-.81-5.58,1.91-8.44,1.66,1.61-2.56,5.12-3.22,8.75-3.77.16-.82.3-2.37,0-3.16-.92.02-3.13-.19-4.07.45-.73.5-.73,1.8-1.51,2.56-.93.9-3.49,1.45-4.98,1.96-1.83.63-3.81,1.62-5.73,1.05-1.44-.42-1.19-2.66-3.77-1.96-.18,1.29,1.09,1.44,1.05,2.87-.03,1.49-1.82,2.58-2.56,4.67-.28.79-.18,1.65-.45,2.27-.57,1.3-2.48,1.99-2.87,3.32-.64,2.17.94,3.57,0,6.03-.86.16-1.15-.26-1.81-.3-.88-.84-.39-2.48-.6-3.92-.15-1.03-.72-1.7-.75-2.56-.09-2.24,1.86-4.25,2.11-6.34.44-3.63-2.88-8.61.3-10.41,1.79-1.01,5.16.37,7.08-.15,2.78-.76,4.49-5.09,8.6-5.43,1.08-.09,1.97.45,3.32.3-.43-1.11-1.76-1.55-2.41-2.41-1.18-1.56-1.86-3.47-3.47-4.83-4.49-3.79-11.05-3.75-14.78-8.9-3.2-4.42-4.08-11.08-3.02-19.61-.93-1.03-2.78-1.77-3.62-3.32-1.31-2.41-.68-5.87-.91-9.5-.41-6.62-3.96-15.31-1.21-20.97-6.27,0-8.79-3.77-9.8-9.05v-3.47c.49-.34,1.51-.44,1.96,0-.59,5.33,5.22,10.17,9.95,8.29,1.93-.77,3.01-3.25,4.37-5.13,1.38-1.9,3.18-3.55,3.47-6.03.16-1.38-1.05-5.92.6-6.18,1.24-.2,1.66,3.01,1.66,4.37-.01,4.83-2.23,8.71-4.83,12.22-2.36,3.19-5.84,6.47-5.73,11.31.09,3.99,2.56,5.97,5.13,7.54.39-1.23,1.09-2.13,1.81-3.01-3.37-1.19-4.87-4.82-3.92-8.45,1.41-5.45,9.92-8.1,9.2-15.83,1.59-1.61,6.84-2.67,6.64-5.73-.04-.64-.93-1.6-1.21-2.41-.63-1.86-.61-3.96-.45-6.34,2.09-.56,4.75-.12,5.13-2.11.5-2.64-2.59-4.93-4.22-6.19-2.74.38-3.95-1.58-5.43-1.96,1.01.86,1.22,2.41,2.71,3.01.66.27,1.48.05,2.11.31,1.73.67,2.51,2.32,2.41,4.52-.57.38-1.5.06-1.81-.3-.31,2.68-4.44,1.28-5.13-.15-4.19-.44-6.41-2.84-6.49-7.39.22-.53,1.47-.04,1.66-.6.26-1.27-.7-2.12-.45-2.87,2.55-.14,4.1.73,5.73,1.51-.39-1.44-1.4-3.45-.6-5.13,1.43-.37,2.79.67,4.07,1.51,1.25.82,2.66,1.32,3.92,2.11.66.41,1.47,1.98,2.56,2.26.99.25,2.51-.41,3.62-.45,3.28-.13,5.23,1.04,8.45,2.26,1.78.67,6.64,1.8,6.18,3.47-.57,2.05-4.65.28-5.88,1.66-.44,1.15.18,3.65-.76,4.67,1.55-.04,2.41.6,3.32,1.21-.26,1-.32,2.19-1.2,2.56-.81-.09-1.49.12-2.11,0-1.37-.26-2-1.48-2.72-1.81-1.98,1.82,1.08,3.67,1.06,5.88-4.82-.5-1.98,5.98,1.81,5.13-.14.97-.19,2.02-.91,2.41-2.92.57-5.14-1.76-7.39-.76-1.44.65-1.01,2.96-2.27,4.07-7.41-.32-12.04,2.13-13.87,7.39,2.15,1.02,3.85,2.14,4.07,4.68.62,7.05-7.94,10.65-7.84,18.4.04,3.14,1.56,6.62,4.67,8.15.39-.77.69-1.62,1.36-2.11-.91-1.3-1.5-1.68-1.96-2.72-3.35-7.46,6.55-12.76,6.48-20.66-.03-3.89-2.05-4.57-2.87-7.69,1.33.54,2.51.52,3.47,1.06,3.81,2.15,1.61,9.4,5.12,12.06,2.18-.03,4.13-.3,5.58-1.05.44-1.88.52-4.11,1.05-5.88,1.02.86.67,2.4,1.21,3.47.57,1.15,1.87,1.67,2.56,2.56,2.56-.45,4.15-1.85,4.22-4.37.05-1.71-1.2-3.49-.6-5.28,1.21-.08,1.62,1.2,2.56,1.81.89.57,2.03.78,2.71,1.51,1.08,1.16,1.09,2.87,2.11,4.22,1.96.45,3.4,1.43,4.98,2.26.84-1.57,1.86-2.97,3.02-4.22-.29-1.02-1.58-1.04-1.51-2.41.93-.74,2.12.08,3.02.3,4.51-4.81,10.36-9.51,17.8-11.92,7.29-2.36,18.3-2.9,25.94-.6.77-1.33.7-2.74.9-4.07.21-1.38.56-2.51,1.06-3.92.88-2.49,2.56-4.98,2.86-7.24.08-.6-.16-1.23-.15-1.81.06-5.42,3.52-8.6,4.52-13.57.59-2.89-.29-6.04,0-9.65-.65-.6-2.15-.36-2.56-1.21.15-9,3.25-15.05,4.83-22.62Z"/>
  </g>
</svg>