<svg xmlns="http://www.w3.org/2000/svg" id="Livello_1" data-name="Livello 1" viewBox="0 0 500.26 228.36">
  <defs>
    <style>
      .cls-1 {
        fill: #c22336;
      }

      .cls-2 {
        stroke: #253887;
      }

      .cls-2, .cls-3 {
        fill: none;
        stroke-miterlimit: 10;
        stroke-width: .19px;
      }

      .cls-4 {
        fill: #fff;
      }

      .cls-5 {
        fill: #253887;
      }

      .cls-6 {
        fill: #16141b;
      }

      .cls-3 {
        stroke: #c54042;
      }
    </style>
  </defs>
  <path class="cls-5" d="M303.26,138.19c-7.89,0-13.4-5.91-13.4-14.38v-22.37c0-.07.04-.12.11-.13,0,0,0,0,.01,0h6.94c.07,0,.12.06.12.13v21.34c0,2.72.77,9,7.91,9,5.27,0,8.29-3.27,8.29-9v-21.34c0-.07.04-.12.11-.13,0,0,0,0,.01,0h6.94c.07,0,.12.05.12.12,0,0,0,0,0,.01v28.95c0,2.19.13,4.38.37,6.55.01.03.01.07,0,.1-.03.01-.07.01-.1,0h-6.64c-.06,0-.11-.04-.12-.1-.15-.99-.24-2-.27-3,0-.11-.08-.21-.18-.24h0c-.09,0-.18.03-.24.1-2.94,4.06-8.33,4.37-9.91,4.37"/>
  <path class="cls-5" d="M355.57,137.08c-.07,0-.12-.05-.12-.12v-21.34c0-5.85-2.74-8.81-8.14-8.81-4.94,0-8.13,3.78-8.13,9.62v20.57c0,.07-.05.12-.12.12,0,0,0,0-.01,0h-6.93c-.07,0-.12-.04-.13-.11,0,0,0,0,0-.01v-35.56c0-.07.06-.13.13-.13h6.79c.07,0,.12.05.12.12,0,0,0,0,0,.01v3.81c0,.11.08.21.18.24h.05c.09.01.18-.03.23-.1,2.39-3.3,6.25-5.21,10.33-5.11,7.9,0,12.82,5.42,12.82,14.16v22.56c0,.07-.05.12-.12.12,0,0,0,0-.01,0l-6.94-.04Z"/>
  <rect class="cls-5" x="373.45" y="101.31" width="7.11" height="35.77" rx=".13" ry=".13"/>
  <path class="cls-5" d="M392.26,73.25h75.2c.07,0,.13.06.13.13h0v5.62c0,.07-.06.13-.13.13h-75.2c-.07,0-.12-.05-.12-.12v-5.63c0-.07.05-.12.12-.13Z"/>
  <rect class="cls-5" x="289.88" y="159.28" width="90.68" height="5.87" rx=".13" ry=".13"/>
  <path class="cls-5" d="M449.77,152.22c-8.8,0-15.59-5.48-16.5-13.33,0-.07.04-.13.1-.14l6.71-1.55h.1s.05.05.05.09c.39,4.95,4.58,8.72,9.54,8.6,7.31,0,10.71-3.62,10.71-11.39v-3.75c0-.11-.07-.21-.18-.24h-.04c-.09-.01-.17.02-.23.09-2.45,3.14-6.27,4.92-10.25,4.77-9.52,0-16.43-7.29-16.43-17.33s6.91-17.41,16.43-17.41c2.93-.09,5.81.75,8.23,2.4.04.04.05.11,0,.16,0,0,0,0,0,0l-2.48,4.61s-.06.07-.11.07c-1.44-.72-3.03-1.09-4.64-1.08-6.05,0-10.12,4.52-10.12,11.25s3.87,11.24,10.12,11.24,10-4.52,10-11.24v-16.6c0-.07.05-.12.12-.13h6.64c.07,0,.13.06.13.13h0v32.86c0,5.39-1.75,17.92-17.9,17.92"/>
  <path class="cls-5" d="M392.26,151.11c-.07,0-.12-.04-.13-.11,0,0,0,0,0-.01v-49.55c0-.07.06-.13.13-.13h6.71c.07,0,.12.05.12.12,0,0,0,0,0,.01v4.2c0,.11.07.21.18.24h0c.09.01.18-.03.23-.1,2.38-3.36,6.49-5.29,11.29-5.29,10,0,16.43,7.33,16.43,18.66s-6.65,18.85-16.61,18.85c-3.03.05-6-.83-8.51-2.52-.04-.04-.05-.11,0-.16,0,0,0,0,0,0l2.62-4.89s.05-.05.08-.06h.09c1.45.78,3.08,1.18,4.73,1.17,6.19,0,10.34-5,10.34-12.43s-4.15-12.28-10.34-12.28-10.42,5.05-10.42,12.28v31.89c0,.07-.05.12-.12.12,0,0,0,0-.01,0h-6.8Z"/>
  <path class="cls-6" d="M289.88,195.86v-8.38h1.73v8.32c0,1.94,1.06,3,2.84,3s2.81-1.1,2.81-3v-8.32h1.76v8.38c0,2.52-2.05,4.57-4.57,4.57s-4.57-2.05-4.57-4.57"/>
  <polygon class="cls-6" points="310.69 200.21 303.82 189.83 303.82 200.21 302.07 200.21 302.07 187.48 304.41 187.48 310.76 197.24 310.76 187.48 312.52 187.48 312.52 200.21 310.69 200.21"/>
  <rect class="cls-6" x="315.74" y="187.48" width="1.79" height="12.73"/>
  <polygon class="cls-6" points="328.9 187.48 330.75 187.48 325.86 200.21 324.11 200.21 319.33 187.48 321.19 187.48 325.03 197.94 328.9 187.48"/>
  <polygon class="cls-6" points="332.54 200.21 332.54 187.48 340.27 187.48 340.27 189.11 334.3 189.11 334.3 193.02 339.71 193.02 339.71 194.68 334.3 194.68 334.3 198.57 340.27 198.57 340.27 200.21 332.54 200.21"/>
  <path class="cls-6" d="M346.63,195h-1.9v5.21h-1.77v-12.73h4.78c2.02-.12,3.76,1.42,3.89,3.44,0,.11,0,.23,0,.34.05,1.81-1.28,3.37-3.08,3.61l3,5.34h-2l-2.92-5.21ZM347.42,193.42c1.2.12,2.27-.77,2.39-1.97s-.77-2.27-1.97-2.39c-.14-.01-.28-.01-.42,0h-2.69v4.36h2.69Z"/>
  <path class="cls-6" d="M360.58,190.92c-.21-1.31-1.37-2.24-2.69-2.17-1.24-.12-2.34.79-2.45,2.03,0,.03,0,.06,0,.09,0,.94.7,1.73,1.63,1.85l1.9.41c2.12.47,3.3,1.8,3.3,3.57,0,2-1.68,3.77-4.39,3.77-2.34.2-4.42-1.46-4.75-3.78l1.69-.54c.09,1.58,1.42,2.79,3,2.72,1.76,0,2.62-.91,2.62-2-.03-1.05-.85-1.91-1.9-2l-1.81-.39c-1.77-.21-3.1-1.71-3.1-3.49.12-2.2,1.99-3.89,4.19-3.78,2.03-.2,3.89,1.16,4.31,3.16l-1.54.55Z"/>
  <rect class="cls-6" x="364.68" y="187.48" width="1.79" height="12.73"/>
  <polygon class="cls-6" points="374.27 189.11 374.27 200.2 372.52 200.2 372.52 189.11 368.27 189.11 368.27 187.48 378.52 187.48 378.52 189.11 374.27 189.11"/>
  <path class="cls-6" d="M386.57,196.65h-5.63l-1.34,3.55h-1.89l5.06-12.72h2l5,12.72h-1.9l-1.3-3.55ZM380.46,184.44h2.31l1.83,2.14h-1.67l-2.47-2.14ZM381.57,195h4.37l-2.2-5.71-2.17,5.71Z"/>
  <path class="cls-6" d="M396.13,200.2v-12.72h4.44c3.23,0,6,2.2,6,6.39s-2.85,6.33-6.07,6.33h-4.37ZM400.48,198.64c2.35,0,4.32-1.58,4.32-4.77s-1.93-4.83-4.28-4.83h-2.64v9.6h2.6Z"/>
  <polygon class="cls-6" points="409.03 200.21 409.03 187.48 416.76 187.48 416.76 189.11 410.79 189.11 410.79 193.02 416.2 193.02 416.2 194.68 410.79 194.68 410.79 198.57 416.76 198.57 416.76 200.21 409.03 200.21"/>
  <path class="cls-6" d="M428.95,200.2l-.16-1.79c-.89,1.37-2.44,2.15-4.07,2.06-3.19,0-6.17-2.33-6.17-6.64-.19-3.46,2.45-6.42,5.91-6.61.13,0,.25-.01.38,0,2.53-.13,4.83,1.44,5.63,3.84l-1.59.68c-.5-1.78-2.15-2.98-4-2.91-2.27,0-4.5,1.64-4.5,5s2.16,5,4.43,5c1.99.18,3.75-1.29,3.93-3.29,0-.01,0-.03,0-.04h-4.48v-1.49h6.08v6.23l-1.39-.03Z"/>
  <polygon class="cls-6" points="433.07 200.21 433.07 187.48 434.83 187.48 434.83 198.55 440.83 198.55 440.83 200.21 433.07 200.21"/>
  <rect class="cls-6" x="442.9" y="187.48" width="1.79" height="12.73"/>
  <path class="cls-6" d="M458.92,190.92c-.21-1.31-1.37-2.24-2.69-2.17-1.23-.12-2.33.79-2.44,2.02,0,.03,0,.07,0,.1,0,.94.7,1.74,1.63,1.85l1.9.41c2.11.47,3.3,1.8,3.3,3.57,0,2-1.69,3.77-4.4,3.77-2.34.2-4.42-1.46-4.75-3.78l1.69-.54c.09,1.59,1.46,2.81,3.05,2.72,1.76,0,2.62-.91,2.62-2,0-.91-.63-1.7-1.91-2l-1.81-.39c-1.77-.21-3.1-1.71-3.1-3.49.14-2.19,2.01-3.87,4.2-3.78,2.03-.2,3.88,1.16,4.3,3.16l-1.58.55Z"/>
  <polygon class="cls-6" points="467.51 189.11 467.51 200.2 465.75 200.2 465.75 189.11 461.5 189.11 461.5 187.48 471.76 187.48 471.76 189.11 467.51 189.11"/>
  <path class="cls-6" d="M473.37,195.86v-8.38h1.74v8.32c0,1.94,1.06,3,2.83,3s2.82-1.1,2.82-3v-8.32h1.76v8.38c.12,2.53-1.83,4.67-4.36,4.79-2.53.12-4.67-1.83-4.79-4.36,0-.14,0-.29,0-.43"/>
  <path class="cls-6" d="M485.56,200.2v-12.72h4.45c3.22,0,6,2.2,6,6.39s-2.85,6.33-6.08,6.33h-4.37ZM489.92,198.64c2.35,0,4.32-1.58,4.32-4.77s-1.98-4.87-4.29-4.87h-2.63v9.6l2.6.04Z"/>
  <rect class="cls-6" x="498.47" y="187.48" width="1.79" height="12.73"/>
  <path class="cls-6" d="M290.05,223.54v-12.73h4.45c3.23,0,6,2.2,6,6.39s-2.85,6.34-6.07,6.34h-4.38ZM294.41,221.97c2.35,0,4.32-1.58,4.32-4.77s-1.93-4.83-4.28-4.83h-2.64v9.63l2.6-.03Z"/>
  <rect class="cls-6" x="302.96" y="210.81" width="1.79" height="12.73"/>
  <path class="cls-6" d="M314.26,218.33v5.21h-1.8v-12.73h4.63c2.08,0,3.76,1.68,3.76,3.76s-1.68,3.76-3.76,3.76h-2.83ZM316.81,216.75c1.2.12,2.27-.77,2.39-1.97s-.77-2.27-1.97-2.39c-.14-.01-.28-.01-.42,0h-2.55v4.36h2.55Z"/>
  <polygon class="cls-6" points="323.16 223.54 323.16 210.81 330.89 210.81 330.89 212.44 324.92 212.44 324.92 216.35 330.34 216.35 330.34 218.01 324.92 218.01 324.92 221.9 330.89 221.9 330.89 223.54 323.16 223.54"/>
  <path class="cls-6" d="M337.26,218.33h-1.9v5.21h-1.78v-12.73h4.79c2.03-.11,3.77,1.45,3.89,3.48,0,.1,0,.2,0,.31.04,1.81-1.29,3.36-3.09,3.6l3,5.34h-2.01l-2.9-5.21ZM338.04,216.75c1.2.12,2.27-.77,2.39-1.97s-.77-2.27-1.97-2.39c-.14-.01-.28-.01-.42,0h-2.68v4.36h2.68Z"/>
  <path class="cls-6" d="M344.5,219.19v-8.38h1.76v8.33c0,1.93,1,3,2.83,3s2.81-1.1,2.81-3v-8.33h1.76v8.38c0,2.52-2.05,4.57-4.57,4.57s-4.57-2.05-4.57-4.57h0"/>
  <path class="cls-6" d="M366.26,223.54l-.16-1.8c-.89,1.37-2.44,2.15-4.07,2.06-3.2,0-6.17-2.33-6.17-6.64-.19-3.46,2.45-6.42,5.91-6.61.13,0,.25-.01.38,0,2.52-.12,4.82,1.44,5.63,3.84l-1.59.68c-.5-1.78-2.15-2.98-4-2.91-2.27,0-4.5,1.64-4.5,5s2.16,5.05,4.43,5.05c1.99.18,3.75-1.29,3.93-3.29,0-.01,0-.03,0-.04h-4.41v-1.57h6.08v6.23h-1.46Z"/>
  <rect class="cls-6" x="370.4" y="210.81" width="1.79" height="12.73"/>
  <path class="cls-6" d="M382.84,220h-5.58l-1.34,3.56h-1.88l5-12.73h2l5.05,12.73h-1.83l-1.42-3.56ZM377.84,218.37h4.42l-2.21-5.71-2.21,5.71Z"/>
  <path class="cls-5" d="M299.45,82.09s-.07-.02-.08-.06l-1.11-2.89h-4.85l-1.05,2.86s-.05.06-.09.06h-2.1s-.05.01-.08,0c-.01-.03-.01-.05,0-.08l4.57-11.78s.05-.01.08,0h2.31s.05-.01.08,0l4.58,11.8s.01.05,0,.08c-.03.01-.05.01-.08,0h-2.18ZM297.52,77.09l-1.66-4.47-1.67,4.47h3.33Z"/>
  <path class="cls-5" d="M305.26,82.17c-.65-.06-1.14-.64-1.08-1.29.05-.57.5-1.02,1.08-1.08.65-.06,1.23.42,1.29,1.08.06.65-.42,1.23-1.08,1.29-.07,0-.15,0-.22,0"/>
  <path class="cls-5" d="M309.88,82.09s-.08-.04-.08-.08c0,0,0,0,0-.01v-11.76s.03-.08.07-.09c0,0,0,0,.01,0h4.17c3.47,0,5.8,2.41,5.8,6,.24,3.07-2.05,5.75-5.12,5.99-.23.02-.47.02-.7.01l-4.15-.06ZM313.96,80.09c1.76,0,3.64-1,3.64-4s-1.87-4-3.62-4h-2v7.94l1.98.06Z"/>
  <path class="cls-5" d="M322.6,82.17c-.65-.06-1.14-.64-1.08-1.29.05-.57.5-1.02,1.08-1.08.65-.06,1.23.42,1.29,1.08.06.65-.42,1.23-1.08,1.29-.07,0-.15,0-.22,0"/>
  <path class="cls-5" d="M335.18,82.09s-.09-.04-.09-.09v-7.88h-2.73s-.1-.02-.1-.07c0-.02,0-.03,0-.05v-1.44s.04-.09.09-.09c1.38.11,2.64-.78,3-2.12.01-.04.05-.07.09-.07h1.82s.09.04.09.09v11.63s-.04.09-.09.09h-2.08Z"/>
  <path class="cls-5" d="M345.2,82.36c-2.28.2-4.3-1.48-4.52-3.76,0-.04.03-.08.07-.09l2.12-.44h.05s0,.05,0,.07c-.01,1.19.94,2.16,2.13,2.17.03,0,.06,0,.09,0,1.05.11,2-.65,2.11-1.71,0-.05,0-.1,0-.15.02-1-.78-1.82-1.78-1.84-.07,0-.15,0-.22,0-.36-.02-.72.05-1.05.19h0s-.05.01-.08,0l-1-1.6s-.03-.08,0-.11l3-2.71h-4.97s-.08-.04-.09-.09v-1.93s.04-.09.09-.09h8.1s.09.04.09.09v1.8l-3,2.68c1.92.09,3.4,1.7,3.34,3.62,0,1.93-1.52,3.89-4.44,3.89"/>
  <path class="cls-5" d="M356.94,82.36c-1.51.06-2.95-.67-3.78-1.94-.77-1.27-1.14-2.75-1.06-4.23-.07-1.47.3-2.93,1.06-4.19,1.48-2.08,4.37-2.57,6.46-1.09.42.3.79.67,1.09,1.09.76,1.27,1.13,2.75,1.05,4.23.08,1.48-.29,2.96-1.05,4.23-.83,1.26-2.26,2-3.77,1.94M356.94,72.13c-.68-.03-1.32.28-1.72.83-.62.97-.91,2.12-.81,3.27-.09,1.15.2,2.29.81,3.26.76.95,2.14,1.11,3.09.35.13-.1.25-.22.35-.35.61-.97.89-2.12.79-3.26.1-1.15-.18-2.29-.79-3.27-.4-.55-1.04-.86-1.72-.83"/>
  <path class="cls-5" d="M369.06,82.36c-2.63,0-4.39-1.39-4.39-3.46.02-1.27.81-2.41,2-2.86-1.03-.48-1.7-1.51-1.73-2.65,0-2,1.73-3.38,4.12-3.38s4.14,1.42,4.14,3.38c-.04,1.13-.71,2.13-1.73,2.61,1.18.47,1.96,1.59,2,2.86,0,2.07-1.78,3.46-4.41,3.46M369.06,76.94c-1.43,0-2.08.88-2.08,1.7s.65,1.69,2.08,1.69,2.1-.85,2.1-1.69-.66-1.7-2.1-1.7M369.06,71.94c-.9-.09-1.7.57-1.79,1.47,0,.03,0,.07,0,.1-.18,1,.48,1.96,1.48,2.14,1,.18,1.96-.48,2.14-1.48.18-1-.48-1.96-1.48-2.14-.11-.02-.23-.03-.34-.03"/>
  <path class="cls-1" d="M115.69,202.41V26c48.73.73,87.64,40.83,86.9,89.56-.72,47.69-39.21,86.18-86.9,86.9"/>
  <path class="cls-3" d="M115.74,202.36V26c48.7.73,87.59,40.81,86.85,89.51-.72,47.67-39.19,86.13-86.85,86.85Z"/>
  <path class="cls-5" d="M112.93,26v176.41c-48.73-.73-87.64-40.83-86.9-89.56.72-47.69,39.21-86.18,86.9-86.9"/>
  <path class="cls-2" d="M112.88,26v176.36c-48.7-.73-87.59-40.81-86.85-89.51.72-47.67,39.19-86.13,86.85-86.85Z"/>
  <path class="cls-6" d="M114.31,0C51.25-.07.07,50.99,0,114.05s50.99,114.24,114.05,114.31,114.24-50.99,114.31-114.05c0-.04,0-.09,0-.13C228.4,51.16,177.34.04,114.32,0c0,0,0,0-.01,0M114.31,225.6c-61.54.07-111.48-49.75-111.55-111.29C2.69,52.77,52.51,2.83,114.05,2.76s111.48,49.75,111.55,111.29c0,.04,0,.09,0,.13.04,61.5-49.78,111.38-111.28,111.42h-.01"/>
  <path class="cls-4" d="M143.96,85.62l.08-.24c-2.47-1.53-2.66-.79-5.16-.28-.47.1-1.37-.48-1.62,0,1.27,2.9,3.68.5,6.7.48M184.33,78.47h0c0-.06-.16-.05-.2,0-1.8,2.86-4.9,6.15-8,7.54-.85.38-4.72,1.82-4.77,2.6,2.16,2.61,12.42-6.42,13-10.1M135.8,86.09h0l.51-.44c0-1.56-5-8.94-6.15-9.47l-.08.2c1.24,1.68,3.93,9.65,5.72,9.71M129.57,111.7h0c0,.73.53,4.46,2,3,.91-.93-1-1.39-1.34-1.86-.21-.29-.26-1-.63-1.14M146.47,98.64h0c-1.2.66-2.88,1.12-4.18,1.69-2.85,1.25-5.62,2.69-8.28,4.31-.82.5-1.69,1-2.56,1.38-.33.15-.81.22-1,.55,0,0,0,.2.05.16,2.27-.41,13.75-4.07,15.92-5,.6-.21,1.11-.62,1.46-1.15.27-.75-.12-1.57-.86-1.84-.17-.06-.34-.09-.52-.09M163.41,100.82h0c-.21.08-.4.22-.55.39v.32c1,1,6.6,1.67,7.09.51-1.08-.4-2.92-.39-4.09-.67-.78-.33-1.61-.52-2.45-.55M175.26,82.66h0c2.39-1.69,5.82-5,6.27-8-.04-.07-.13-.1-.2-.07-1.53,2.48-3.19,5-5.71,6.55-.6.37-3.94,2-3.94,2.48,0,1.6,3.14-.63,3.58-.94M132.73,97.89h0c1-.33,3.14-2.69,2.37-3.71h-.16c-.31.31-2.86,2.71-3,2.76-.41.16-.8,0-1.22,0-.08.06-.07.12,0,.2.36.77,1.28,1.11,2.05.75M128.51,99.55h-.55c-.58.38-.74,1.16-.36,1.74.18.27.45.46.76.54.39-.62.53-1.37.39-2.09l-.24-.19ZM138.13,89.92h0c.68-.23,1.35-.49,2-.79v-.12c-2.44-1.39-4.15,1-6.46,1.42l-.12.31c2.64,2.16,2.35,0,4.57-.82M184.44,105.11h0c-.45.47-.94.9-1.42,1.34l-.67-.35c-3.05,3.26-.87,3-1.22,5.28-.27,1.69-2.2,3.35-.59,5.06h.08c.09-.09.56-2.75.78-3.28,1.33-3.14,3.3-3.93,3.31-7.93,0-.1-.2-.1-.27-.08M123.75,62.49h0c-1.36.74,1.23,4.23,1.37,4.26.06,0,.11-.06.12-.12-.22-1.25-.23-3.27-1.22-4.1l-.27-.04ZM183.58,113.59h0c1.27-.48,3.54-5.19,3.55-6.59l-.2-.07c-1.32,2.07-3.37,4-3.47,6.58l.12.08ZM125.44,106.77h0c-.93-.21-2.2-.94-2.72.47,0,2.12,3.28.19,4.29,0,.36-.44-1.36-.39-1.57-.43M126.26,72.12h0c-1.36,2.21-.51,2.13-1,3.94-.21.8-1.58,2.92.2,3.16,1.33-1.06.39-4.83.95-7l-.15-.1ZM130.55,62.61h-.29c-.99,1.33-1.47,2.97-1.34,4.62.06.08.15.13.24.07.68-1.36,1.25-2.77,1.69-4.22l-.3-.47ZM124.01,99.74h0c-2.21.26,1.18,3.28,1.22,3.36.21.33.47,1.43.83,1.54l.08-.16c-.15-.4-.25-.83-.28-1.26-.19-.82-.62-3.62-1.85-3.48M129.1,61.26h0l-.52-.47c-.59-.01-1.18-.07-1.77-.16l-.16.32c1.5,2.12,1,.8,1.58,3.47h.19c.59-.96.83-2.09.68-3.2M130.83,66.22h0c.62-.63,1.43-1.22,1.43-2.22-.09-.17-.24-.3-.43-.36h-.12c-.82,1.22-.87.7-1.14,2.41l.26.17ZM143.26,83.8h0c1.28.39,3-1.35,3.31-2.49l-.2-.12c-.87.66-1.84,1.17-2.88,1.5-.5.11-.91-.22-1.38-.15l-.08.27c.43.35.67.82,1.23,1M133.09,159.46h0c-3.4,2.08,2.55,4.36,3.07.51-.6-.59-1.41-.9-2.25-.87-.25.18-.56.2-.82.36M147.59,127.85h0c-.72.39-6-.71-9.73,2.13-.86.66-1.28,1.74-2.13,2.41-.36.28-2,1.6-2.05,1.89.28.22,1.35.3,1.34.56-.08,1.31.06,2.84-.12,4.1.49.4,1.48-.28,1.93.31.13.18.62,2.1,1,2.77,1.34,2.2,3.62,4,4.73,6.27.16.28.22.59.19.91-.44,2.7-3.94,5.85-4,6.24l.2.07c1.9-1.16,4.51-4.19,5-6.43.24-1.15-1-1.93-1.62-2.72-1.65-2.04-3.03-4.28-4.1-6.67-4.33-10.53,6.94-11.51,14.23-11.56l.08-.16c-1.64-.16-3.29-.2-4.93-.12M132.26,158.78h0c.47-.3,1.1-.25,1.53-.63v-.08c-4.57-2.95-5.13,2.92-2.48,1.58.39-.2.58-.64.95-.87M158.26,152.9h0c-.21-.65-.39-3.58-.83-3.59-.3.33-.7.55-1.14.63-2.54-3.77,5.84-15.32,5.92-16.18h-.16c-.47.53-1.05.96-1.7,1.26l-.15-.19c.13-1.71,0-3.43-.4-5.1h-.12c-.4,3.19-.2,5.89-1.34,9s-2.58,5.31-3.43,8.41c-.21.79-.63,5.2.51,5.25.95-.77.68,1.76,1.35,1.85l.47-.23c1.19,1.29,3.3,4.77,5.2,5.09v-.16c-1.84-1.63-3.28-3.65-4.22-5.92M133.9,156.02h0s.05-.1.02-.14c0,0-.01-.01-.02-.02-2.21-1.32-1.55-1-3.9-.32-.54.16-1.38-.2-1.77.28-.67.83.05,1.61.83,1.94.51-.46,1.05-.88,1.61-1.27,1.06-.27,2.14-.42,3.23-.47M154.52,172.28h0c-.1,4.05,3.93.49,5.08,0s3.35-.54,4.38-1.38.66-4.79.59-6c0-.44-.2-2.93-.63-2.84.17,2.02.15,4.05-.08,6.07-.11.56,0,1.51-.43,1.9-2.2,1.82-7.09-.26-8.91,2.29M159.68,169.91h0v-.2c-3.24-2-2.64-.47-4.3-.79-.33-.06-.66-.29-1-.23-.88.34-1.32,1.33-.98,2.21.03.08.07.16.11.23.42-.03.82-.17,1.18-.39,1.72-.77,3.24-.49,5-.83M182.4,142.01h0c-3.08-.38-7.57-6.49-7.69-6.51-.56.62-.86,3.57-2.72,6-2.41,3.09-8.35,2.67-8.75,7.65,1.56,2,2.73,4.15,4.3,6.16.77,1,2.33,1.11,2.88,2.33.78,1.75-.18,2.42-.24,3.87s.66,1.57.67,2.24c-.65.66-1.25.4-2,.6l-.12.31c.16.57,2.3,3.48.83,3.79-.34.08-1.07-.49-1.26,0,.32,1.6.3,3,.51,4.62-.44.12-.9.12-1.34,0-.62.59-.7,2.19-2.09,2.09-4.76-.35-2.81,1.52-6,2.25-.7.16-1.07-.31-1.7-.32-.42.42-.4,1.32-.94,1.46-1.28-1-.6-1.73-.79-2.84-.34-.18-.75,0-1.11-.12s-.54-.56-.9-.55h-.2c-.47.14-.46.88-1,.95-1.17-1.79.5-2.38.52-3.36l-.28-.23h-.24c-.56.56-.62.37-.9,1.26l-.28.12c-1.51-1.76-.11-2.74.75-3.83.57-.72,1.08-2.8,2.68-2.25,1.75.6,1.61-.31,2.64,0,.44.13,1.81,1.1,2.37,1.38s2.41.91,2.6.12c.3-1.27.6-7.33,0-8.41s-2.75-2.2-3.75-3.23c-.37-.39-1.67-2.31-2-2.33-.2.24-.45.65-.82.59-.22-.56-.36-1.14-.4-1.74l-.23-.11c-.2.24-.48.39-.79.43-.29-.44-.2-1-.36-1.5-1.38-4.38.93-8.06.67-9.11-.09-.41-1.58-.79-2-1-1.37-.58-4.2-2.44-5.52-2.53l-.11.4c.31.64.54,1.31.71,2,.92,1.8,2.04,3.49,3.34,5.05.18.24.74.79.75,1.07.08,1.27-.09,3.38-1.49,4-1.08.46-1.4-.49-2.21-.47-.16.08-.18,1.31-.28,1.58-.42.94-1.03,1.8-1.77,2.52h-.2c-.23-.27-.52-.76-.95-.59-.14.27-1.08,3.36-1.77,2.68-.28-.48-.4-1.29-1.1-1.3-.45.42-1.34,3.81-1.42,4.58-.13.16-.31.25-.51.27-.27-.18-.63-.15-.91-.31-.49-.28-.72-.93-1.34-1-.37.27-1.06.07-1.5.16-.49.43-.33,1.95-1.73,2.17-.33.05-1.88,0-2.09.12-.54.25-.3,1-1,1-.39-.73-.61-1.54-.64-2.37-.07-.11-1.1-.51-1.34-.67s-.27-.6-.63-.67c-1.41.81-.42,1.93-1.38,1.93-2.78-2.62.49-3.53.63-4.11-.2-.19-.46-.3-.74-.31-.41.25-1.15,1.28-1.46,1.3-1.16-2,.41-2.85.47-3.16.59-2.78,2.27-1,2.88-1.41.85-.66,1.93-.94,3-.79.45,0,.71.65,1.07.82.8.43,1.64.77,2.52,1,.69.14,1.48-.53,1.93-1,6.51-6.5,3-6.06-.83-12-.51-.81-1.12-2.8-1.53-3.24-.61.11-1.24.13-1.86.08l-.15-.4c.29-1.31.39-2.66.31-4-.54-.32-1.75-.24-1.81-1.07.85-.79,1.84-1.44,2.72-2.24,1-1,1.58-2.14,2.84-3,1.21-.78,2.58-1.31,4-1.54,5.3.06,10.63-.55,15.93-.56l.16-.31c-.76-.61-1.43-1.31-2-2.09v-.28l.31-.35c1.76,0,5.2,3.44,5.52,3.51v-.12c-1.69-2.47-4.33-4.12-7.29-4.54-.92-.19-5.31.58-5.4-.55l.39-.55c-.26-.32-4-.29-4.1-1.27.39-.17.76-.38,1.11-.63-.21-.87-4.27,0-4.38-1.06.34-.4.73-.76,1.15-1.07v-.2l-.32-.11c-.56.4-3.9.31-4-.52.25-.21.54-.43.55-.79-1.21-1-1.33,0-2.36-.19l-.16-.24c.23-1,.9-1,1-1.5-.56-.85-2.27.84-3-.32.76-.89-.05-3.72-1.38-3.39-.49-.4,0-2.55-1.15-2.68-.5.34-1.54.43-1.89.9-1.32,1.85,2.46,3.43,2,6-.05,1.11-.6,2.14-1.49,2.81-.55.28-1.46.32-1.5-.48.27-.19,1-.86.79-1.26-.4-.48-.74-1.01-1-1.58-.54-1.65.09-4.76-2.13-5.52-1-.37-1.52.66-2.32,1s-1.17-.46-1.82-.28-.77,1-1.38,1l-.23-.31c0-1,.94-3.45,2-3.83s2.49,1,2.64.08c-.5-.71-.61-1.7-1.18-2.45-.46-.59-1.34-.67-1.74-1.3-.58-.93.47-1.09-1-2.17-.3-.22-.77.13-.91-.48-.33-1.45,3.91-.49,4.1-.35,1.7,1.25.5,4,2,5.68,1.23-.32-1.17-4.26-.87-5.25-.08-.43-.29-.83-.59-1.14-.27-.08-.61-.25-.67-.55,1.67-1.84,2.42.38,3,.55,2.62.7.37,3.22.55,5.21,0,.31.29,2.17.64,2.17.74-.13,1.47-.34,2.17-.63l.15-.28c-.36-.16-.75-.25-1.14-.27l-.08-.16c.54-1.45.69-3.02.43-4.54,0-.17.35-1,.36-1.42-1-.62-1.63-1-1.62-2.25l.28-.24c.27.07.5.25.75.32,1.43.38,2.59-4.19,2.6-4.66-.5-.5-.81-1.15-.89-1.85,1-.12,2,0,2.65-.86,0-1-2-5-2.6-6s-3.23-9.2-5-9.24c-1.18,1.6.13,5.23-1.62,6-1,.46-3.2,1.76-3.35-.43.13-.16.32-.25.52-.24,1.52,1.12,1.63-4.59,1.77-5.17s.78-1.22.94-1.93c.49-2.08-1.21-3.64-1.81-5.29-.13-.37.06-.78-.08-1.14-.2-.53-.76-.84-.94-1.39-.13-.37.06-.84-.16-1.18s-1.21-.17-1.22-.91c3.76-4,3.85,4.36,5.24,5.84.09-.04.17-.11.23-.19.19-1.07,1-4.72,0-5.49-.46-.3-.88-.67-1.22-1.1l-.67-.16-.19-.24c.15-1.24,3.61-.86,4.22-.55s.62,1.07,1.21,1.46c.41-.09.82-.09,1.23,0,.66.26,1.84,2,1.61,2.8-.23.8-2.69,3.63-3.54,5.09-1.67,2.85,6,10.58,8.59,11.68.91.4,1.84.74,2.8,1,.36-.1.14-.55.55-.71.39.09.72.34,1.1.43.68.16,6-2.67,6-2.8.23-.6-.1-.67.48-1.42l.24-.08c1,1,5.37-.42,5.35-1.22-.24-.46-.28-1.01-.11-1.5l.2-.16c.66,0,1.05.57,1.81.39,1.1-.25,4.18-2.12,4.25-3.35l-.39-.12c-.74.7-5.54,1.39-5.8,0v-.08c.86-.5,4.28-1.62,4.34-2.8l-.16-.12c-1.62.26-6.36,4.18-10.42,5.18-3.16.79-5.42-2.58-3.24-3.12.57.31,1,1.48,1.62,1.54,4.16.4,7.43-2.19,10.8-4.22h0l-.16-.16c-2.75.11-4.51-2.19-6.69.6-.39.49-.69,1-1.11,1.49h-.31c-.4-.71-.56-1.53-.44-2.33,0-6.47,3.06-4.24,5.13-5,.35-.14.36-.55.55-.83.3-.46,1.24-.55,1.3-1.15-.65-.82-.65-3.82-2.33-5.82-.32-.4-1-.54-1-1.14,1-.69,2.5,0,3.23.79.49,0,1.76-1,1.89,0-.59.53-.64,1.44-.11,2.03.1.11.22.21.35.29,2.32.2.45-2.09.43-2.68.82-.69,1-.06,1.62-.35.16-.08,1-1.5,1.46-1.9,1.65.16.12,2.06,3,2h0l.36.32c-.09,1-1.71,1.34-.2,2.56,2.17.2.93-1.64.91-2.44.56-.47,1.29-.11,1.93.08.18-.07,3.44-2,3.23-.4-1.78,1.38-3.5,4.43-3.11,6.75,1.07.82,3.32-.33,4.53-.12.75,1.32-1.36,3.76-1.34,3.95,1.71,2,1.34,3.51,1.66,5.92.05.39.57.55.59,1.14-.13.12-1,.89-1.07,1s-.31,4.21-.27,4.34c.27.6.46,1.22.59,1.86-.49.46-.75,0-1.26,0-1.14.71-1,2.56-.91,3.68l.44.35c.95-.65,2.22-1.06,3.22-1.7,3.61-2.27,5-4.27,7.14-7.73.37-.61.63-1.23,1.46-1.23,2.44,1.91-1.58,8.76-3.2,10.38v.08l.19.12c.47-.58,5.09-5.86,5.21-5.88.76.27.86,1.24.86,1.93,0,4.08-3.47,6.66-6,9.28-.4.41-2.47,1.61-2.52,2l.28.08c1.32-.7,2.52-1.6,3.58-2.65.94-1,3.79-4.12,5-4.14.61,0,.78,1.35.67,1.78-1.41,5.62-7.8,9.63-13.05,11.13-.24.07-1.46.46-1.5.71l.16.08c1.12-.23,2.16-.5,3.27-.75,1.61-.38,3.69-2.35,5.33-2,1.2,1.54-.26,2.34-1.19,3.32-2.63,2.77-7,2.41-10.44,3.08l-.08.19c.91.22,1.74,0,2.44.71,0,2.57-4.52,1.76-6.15,1.94-.38.35-.26.87-.67,1.18-1,.76-2.37.52-3.47.75l-.16.48c3.71,8.73,6.9,8.25,11.52,14.28,3.93,5.14,2.76,11.27,6.82,16.5.42.55,1,.79,1.49,1.26,2.26,2.34,4.07,1.93,7,1.58,1.14-.31,2.07-1.12,2.52-2.21,3.34-6.53-4.11-11.11-8-14.88-1.26-1.23-1.62-3.65-1.89-5.21-.14-.77-1.7-2-1.27-3.27.29-.87,1.15-2.44,1.31-3.08.21-.87-1.4-2.15.35-4.38.48-.61,1-.67,1.38-1.54.07-.18.13-.75.36-.79h.31c.07.24.12.5.12.75l.32.12c.29-.47,1.11-1.66,1.69-1.7.41,1.08.75,2.18,1,3.31l.23.12c.28-.31.68-1.3,1-1.34,1.17,1.76-.33,3.05-.08,3.83,1,3-1.28,2.67-2.6,4.22-1,1.23-1.31,5.37-.95,6.91.85,3.61,12.1,9.23,8.67,17.17-1.69,3.92-6,4.48-9.73,4M162.06,172.36h0c-1.21.36-2.33.97-3.31,1.77-1.9,1.87.47,2.5,1.42,1.93.75-.45,1.81-2.19,2.44-2.95.29-.36.86-.57,1-1.07l-.2-.12c-.42.19-.85.34-1.3.44M161.26,60.59h0c.53-.61.23-6.66.23-7.18,0-.07-.15-.16-.23-.12-1.18,1.93-.32.61-1.7,1.27l-.08.35c1.2,2.64-2.84,4.29-2.71.24l-.28-.12c-.24.23-.54.38-.87.43-.26-.25-.6-.41-.87-.67-.05,0-.15.05-.15.12.26,1,1.22,2,1.54,3.12.81,3,.64,3.11,5.12,2.56M171.31,62.06h0l-.16-.12c-.72,1.04-1.72,1.87-2.87,2.4-.54.17-2.14.08-1.86-.86.15-.49.58-.72.75-1.15h0l-.12-.16c-.53.14-1.77,1.21-1.61,1.82.76,2.87,5.63.74,5.83-1.93M161.73,61.62h0c-1.77,0-3.54.08-5.32.08-1,0-1.57,1.78-1.93,1.81-2.6.26-4.28-.59-4.89,2.69-.09.71-.06,1.43.08,2.13.25.37.71-.71.79-.83.85-1.41,2.18-2.47,3.74-3,1.67-.63,1.26-1,2.45-1.78s4.71-.68,5.12-.94c.06-.04.07-.11.03-.17,0-.01-.02-.02-.03-.03M162.09,85.38h0c-.04-.07-.12-.11-.2-.08-.53.3-2.48.5-3.31.83-2.91,1.13-5.81,2.24-7.53,5-1.21,2.11-1.25,4.68-.12,6.83.23.36,1.24,1.92,1.78,1.46-2.92-10.4,9-13,9.38-14.09M166.66,98.67h0c1.83,2,12.19-1,13.09-3.52,0-.08-.17-.1-.24-.08-1.18,1.14-6.17,3-7.84,3-.28,0-5-.55-5,.64M185.04,84.71h0c0-.06-.15,0-.2,0-.94,1.15-1.98,2.22-3.11,3.19-4.43,4.45-9.87,4.66-11.55,6.28v.27c1.68,2.91,14.61-5.95,14.86-9.74M153.7,78h0c0-.07-.19,0-.23,0-1.13.77-2.54,1.01-3.87.67l-.12.28c.3.33.46.78.91.94.71.26,3.22-1.21,3.31-1.85M161.9,63.67h0c.29-.18,1.16-.18,1.22-.59h-.51c-.21.12-3.83.27-4.49.4l-.08.19.71.6c1.07-.1,1.17,1.62,2.36.86.54-.34.37-1.11.83-1.42M166.24,78.24h0c1.05-.81,1.34-2.27,1.69-3.48.12-.42.77-3.33.08-3.19-1.12,2.13-1.87,7.38-5.4,7.1-.65,0-.43-2.15-.51-2.6h-.16c-.66,1.7-1.22,3.44-1.68,5.2l.23.12c1.56-1.61,4-1.9,5.76-3.27"/>
  <path class="cls-4" d="M105.79,91.39c.36-.39,1.49-1.91.35-2-.48.55-.71,1.27-.63,2h.28ZM106.05,97.82h0c-1.11,1.09-2.82.91-2.89,2.79l.4.14c.18-.08,4.51-2.33,2.49-2.93M105.72,100.27h0c-.8.3-4.22,2.62-3.7,3.76l.32.15c1-1,4.11-1.72,3.66-3.8l-.28-.11ZM105.6,93.41h0c.69-.24,1.19-.85,1.31-1.57-.08-.09-.23-.28-.37-.27-.36.31-1.52,1.08-1.26,1.65l.32.19ZM105.08,103.25h0c-.9.89-5.28,2.63-4.32,4.48-.6.44-1.05,1.06-1.3,1.76l.36.15c1-.92,4.93-1.59,4.89-3.39l-.48-.14c-.95.64-2.01,1.12-3.12,1.41v-.19c.85-.76,5-2.4,4.28-4l-.31-.08ZM104.29,98.25h0c.87-.74,2.35-1.16,2.42-2.58l-.35-.19-1.1.42-.08-.15c.5-.51,2.22-1.28,1.37-2.13h-.29c-.29.28-.73.37-1,.73l-1.34,3.78.37.12ZM98.18,112h0l.28.15c1.22-.48,5.5-1.53,5.44-3.32l-.28-.15c-2.16.81-4.13,1.38-5.44,3.32M102.57,97.3h0c.74-.53,1.67-5.39,0-5.65l-.23.24c0,1,.69,1.76.73,2.75-.08-.01-.15-.01-.23,0-.1-.16-.62-1.17-.93-.84-.42.76.33,2.55.47,3.38l.19.12ZM103.75,91.62h0c.29-.84.29-1.76,0-2.6h-.28l-.34.45c0,.59-.19,2.07.64,2.15M97.08,117.8h0c-.15-.2-.23-.41-.48-.51h-.12c-.89,1.24-1.9,2.4-3,3.46,0,.24.31.33.48.35.81-.45,3.13-2.39,3.11-3.35M94.87,111.05h0c-.15.81-.25,1.63-.3,2.45l.28.07h.08c.94-2,1.9-1.8.93-4-.17-.38-.2-1.07-.69-1.2-1,.85.41,2,.45,2.87l-.23.08-.52-.27ZM92.57,136.32h0c-.43,2.04-.71,4.1-.85,6.18-.06,1.91-.45,3.85-.54,5.77s-.72,3.62-.78,5.43c0,.31-.19,1.09.1,1.22.45.21,2.16-1.32,2.37-1.75s.13-12.33,0-12.83.13-3.94-.32-4M96.91,109.8h0c.3-.32.42-.76.33-1.19l.47-.09c.35-.09.79-1.63,1-2,.91-1.53,1.74-3.12,2.46-4.75.03-.4.03-.79,0-1.19,1.47-.54,1.12-4.54-.1-4.61-.64,1,.17,3.12.17,4.29h-.24c-.06-.51-.25-1.33-.85-1.4-1,1.55-.11,2.33-.19,4.07h-.27c0-.63-.18-1.36-.83-1.6-1.14.85-.06,2.6-.3,3.84h-.28c0-.43-.24-1-.74-1-1.37,1.16,0,1.8-.28,3.08h-.24c-.14-.36-.36-.68-.65-.94-1.44.33,0,3.35.51,3.39M48.28,143.13h0l-.37-.43h-.27c-.49.72-.78,1.56-.85,2.43,2.82.29,1.43-.46,1.49-2M96.97,120.59h0c-.28.81-1.78,1.06-1.89,1.86,0,.11.2.21.29.27,1.12,0,1.67-.77,2-1.74l-.25-.39h-.15ZM102.72,111.42h0c-.62-.2-5.34,1.51-5.86,2.26,0,.15.2.4.4.31,1.54-.71,3.65-.36,4.86-1.21.2-.15,1.09-1.2.6-1.36M93.85,127.9h0c.48-.45,1.27-.7,1.5-1.38.18-.53-.6-4.61-1.25-4.71-.26.42-1.06,6.06-.25,6.09M96.09,115.61h-.16c-.4.44-3.08,3.83-3,4.14l.44.3c.84-.35,3.67-3.48,2.7-4.4M95.38,121.82h0c.91-.29,1.58-1.06,1.73-2-.03-.13-.15-.22-.28-.23-.32.32-2.37,1.73-2,2.06l.55.17ZM57.94,90.15h0c-.3.15-1.1,1.35-1.32.86,0-.12,3.58-4.9,1.9-6.28-.5.22-1.02.39-1.56.51-.7-.34,1-1.34,1.15-1.53.91-1.07,1.41-2.42,1.41-3.82-.53-.45-1.39.06-1.44-.64.54-.54,2.15-1.76,2.15-2.54h-.12c-2.66.78-1.75,0-3.46-.08-1.48,1.6-.16,2-.37,3.12l-.23.13-.72-.58c-.59,1.17-.89,2.46-.9,3.77.13.43.71,2.16,0,2.21-.2-.31-.41-.91-.85-.92-2.11,2.26-4.48,9.48-1.16,11.63,2.06,1.33,6.37-4.9,5.51-5.81M54.88,131h0c-.83.94-.83,2.34,0,3.28l1.77-.08c.73,0,.86-1.9.54-2.42s-1.65-.8-2.31-.78M62,67.6h0c.67-.78,2.26-2.08,2.26-3.13l-.44-.14c-.62.42-1.52,2.15-1.76,2.25l-.28-.11-.05-.2c.61-.86,1.1-1.8,1.44-2.8l-.36-.19c-1.08,1-1.92,2.21-2.48,3.57.29.23.64.37,1,.41.16.2.39.32.64.34M76.48,78.52h0c5.46,2,7.89-3.35,10.25-5.45.83-.8,1.77-1.47,2.79-2,.37-.17,1.24-.25,1.32-.74-1.31-1.15-3.62-1.63-4.71-2.57-.79-.69-3.31-9.94-3.17-11,.57-4.38,3.26-7.42-1.6-11.89-6.94-6.36-2.47,7.54-4.14,8.74-.28.2-2.42,0-3.53.83-3.92,2.86-2.06,5.25-1.22,8.83.21.92-.27,3.22-.16,3.48l.32.07c2.18-2.2-2.48-7.49.31-10.39.44-.45.55-1.08,1.11-1.48,1.11-.58,2.38-.77,3.62-.56.56.19-.23,2.38-.09,3.08.19,1,1.16,3.21-.43,3.56-1-.76-.14-1.31-.37-2.36-1-.72-1.39-.16-2.41-.18-3.38,2,3.7,8.28,3.7,8.29-1.13,1.25-1.72,0-2.92,0-.79.77.46,6.14,5.63,4.65.85-.24.9-.09,1.6-.71l.19.08.09.27c-2.43,2.52-5.37,4.62-8.15.58l-.19.13c.54,2,4.06,3.64,5.94,3.14,1.13-.3,3.85-2.13,4.21-2.15l.13.39c-1.5,1.59-1.93,4-4.67,4.25-7.26.57-7.8-6.23-8.91-6.55-1,1.78,3.28,6.87,5.46,7.7M84.36,67.76h0c-1.56-.39-1.6-.84-1.63-2.25,0-.32-.26-3.4.07-3.87.68.18,2,5.25,1.91,6l-.35.12ZM76.26,56.18h0c-.39-.24-.85-.34-1.31-.29-.47.31-1.13.17-1.2.9l.29.35c.66,0,2.18,0,2.22-1M62.63,74.45h0c.42.48,1.27,2.07,1.55,2.29,2.84,2.3,7,6.75,11,6.7.94,1.37.26,39.24.57,44.2.23,3.8-.82,10.49.08,14.09l.48.26c1-.2,1.81,0,2.8-.26,1.19-2.16-.92-40.54.3-47.37.35-2-.41-8.29.11-10.82,1.47-.94,3.79-.92,5.44-1.67,2.86-1.36,5.55-3.06,8-5.07,1.75-1.35,2.92-4.2.53-4.47-6.23,5.1-14.43,10.87-22.58,5.84-2.5-1.54-4-4.21-6.05-6.14h-.24c-.77.74-2,.95-2,2.41M76.01,82h0c.29-.4.74-.19,1.1,0l.08-.16c-.17-.18-.3-.39-.37-.63l.31-.24c.36,0,.72.06,1.07.17-.1.27-.16.55-.18.84l.31.11c.18-.26.46-.43.78-.46.16.14.2,1.11.23,1.34l-.19.12c-.33-.09-.66-.15-1-.17l-.19.44c.17.15.71.63.5.89-.52.23-1.1.29-1.66.16l-.15-.41.61-.8-.28-.2c-.25,0-.46.2-.71.25-.24-.18-.28-1-.26-1.22M76.94,133.52h0l.23-.16h.91l.2.39c-.26.29-.37.69-.29,1.07.24.14.52.22.8.22.11.18.17.38.17.59l-.27.24-.55.05-.12.16c.08.39.13.78.14,1.18-.33.41-.84.24-1.29.11l-.13-.31c.27-.26.39-.63.33-1-.61-.49-1.1.4-1-.85l.39-.2.43.1c.69-.45-.08-.89,0-1.54M98.57,65.11h0l.15-.36c-.79-.78.77-10.25.91-11.94.2-.76.72-1.39,1.42-1.73,3.38-1.19,3.21,5.39,1.59,5.56l-.53-.73h-.4c-1.51,1.29,1.11,3,2.39,1,1.58-2.4.91-7.73-2.88-7.2-.79,0-1.52.39-1.96,1.05-.65,1-2.16,11.51-2,12.84l.2.19c.23-.01.44.15.48.38-.31.25-.91-.33-1.37.66.6.37,1.32.47,2,.28M56.98,75.88h0c1.43,3.21,8.37-4.87,6.17-8.07h-.16c-.55.64,0,1.7-.26,2.45-.16.4-3.3,4.74-3.75,5.18l-.28-.19c.46-1.77,1.58-2.11.34-4.51-.23-.42-.94-.5-1.05-.92l.43-.13c1.61.45,1,1.45,1.81,1.46.63-.81-.8-3.22-2-2.64-2.09,1-1.38,3.84-1,5.55.13.61-.46,1.31-.24,1.82M60.63,69.2h0c.15.41.06,1.39.66,1.41,2.18-2-2.57-4.55-2.15-2.71.68.37,1.19.52,1.49,1.3M41.49,115.78h0c.59-.21,12.32.17,14.47.07l.28.39c-.17.49-.47.92-.88,1.24-1.35,0-14.8-.2-14.87-.25l-.08-.32c.43-.43.41-.88,1.08-1.13M57.67,123.43h0c1,.51.59,3.17-.19,3.71-1.71,1.19-4.44-.71-5.06-.43-.4.18-.49.71-.93.77l-.13-.31c.5-.68.26-2.38,1-2.39,1.2,1.88,3.78,2.61,4.17.89.51-2.29-3.56-1.6-3.91-3.55-.7-3.84,1.63-2.64,3.61-2.37.49.07.84-.52,1.37-.54l.16.19c.02.97-.06,1.94-.25,2.89l-.43.21c-.47-.74-.54-1.74-1.43-2.14-.41-.19-1.79,0-1.8.55v.79c.65.68,2.78,1.2,3.83,1.73M57.87,135.19h0c.34.98.62,1.98.85,3l-.27.28h-.16c-1.09-.56-1.44-3.46-2-3.47-1.59,0-2.69.49-1.91,2.33.15.36.61.41.65.85-.85.16-1.72.18-2.57.06-.11-.22,1.69-5.68-.48-7.6.13-.69,1.38-.19,1.8-.48,1.37,0,3.48-.14,4.44,1,1.54,1.89-.54,2.84-.34,3.92M49.77,122.08h0l-.28-.23c-.04-.33-.16-.64-.37-.9-.43-.31-.92-.53-1.44-.64-2.44-.38-2.41,5.39-.26,5.93,2.53.63,2-1.87,2.84-2,.3.58,0,2.27,0,3l-.31.12c-.81-.72-2.32.59-3.95-.34s-2-3.91-1.43-5.61c1.26-3.83,3.69-1.27,4.82-1.57.27-.07.45-.32.74-.38.11.14.17.31.17.48-.33.57.38,2-.51,2.1M46.15,131.67h0c0-.31-.63-.62-.66-1.16l.31-.29c1.67-.04,3.34.01,5,.16.44.55.26,1.06.08,1.7h-.2l-.45-.93c-1-.22-1.89-.63-2.68.14.17,1.1-.55,1.61.41,2.44,1.2,0,.74-.79,1.43-.94l.21.19v1.93l-.27.13c-.43-.45-1.05-.66-1.67-.56-.37.6-.16,1.5-.27,2.18-.24,1.55,2.86,1.07,3.4.35.22-.28.15-.65.62-.68.12.5.16,1.02.11,1.54-.61.85-6.12.71-6.15.06,1.21-.65.75-5.08.73-6.3M38.02,119.7h0c1-1.72,3.42,0,4.87-.9h.28c.43.5.18,1.73.13,2.37l-.32.08c-.79-1.21-3-2.2-4.08-.85-.14,3,4.27.78,4.33,3.18.05,1.57-.6,3.77-2.67,3.57-.77-.07-1.46-.7-2-.74-.65-.06-1.07.55-1.64.7l-.08-.15c0-.28.39-3,.75-3,.52.76,1,1.71,1.9,2,.64.24,2-.13,2-.95.09-3.54-5.8-1.62-3.55-5.37M36.8,130.2h0c.4,0,2.11-.18,2.18.39-2,2.14.8,3.75,2.78,2.82.54-.25.44-.95.44-1.47,0-.72-.11-.81-.62-1.29v-.28c.66-.13,1.33-.18,2-.16l.2.19c.19.24-.13.52-.22.71-.41.92-.15,5.16.06,6.16.17.16.3.37.37.59l-.15.12-1.94-.08v-.23l.46-.57c.05-2,.72-3-1.84-3-3.35.07-2,1.37-1.73,3.79-.8.75-2.62.26-1.6-.72.12-1.94.12-3.9,0-5.84,0-.32-.6-.55-.65-1l.26-.13ZM42.8,147.83h0c-.94.11-1.89.13-2.84.06l-3.47.08-.2-.34v-.09c.29-.17.55-.37.78-.61.09-1.84.11-3.68.07-5.52,0-.33-.56-.62-.62-1l.24-.16c.61-.08,1.24-.08,1.85,0l.13.19c-.43,1.05-.57,2.2-.4,3.33.55,2.53-1.64,3.51,2.28,3.42.62,0,1.24.08,1.65-.51.25-.37.24-1.24.8-1.28.3.48.24,2.1-.3,2.41M53.38,142.91h0c-.37.65-.13,2.94-.11,3.71,0,.29.45.55.49.94l-.19.16c-.52,0-4.69.1-4.81,0-.35-.2.33-1,.24-1.34-.21-1-2.89-1.22-2.82.5l.4.58c-.86.2-1.75.28-2.63.26-.12-.1-.2-.24-.21-.4,1.75-1.26,2.58-7.18,3.79-7,.33,0,.85-.06,1,.37.33,1.47,1.28,6.63,3.11,6.64.23-.18.5-.31.61-.6s-.15-3.61-.16-3.95.17-1.09,0-1.45-.53-.51-.8-.74v-.31c.24-.2.55-.3.86-.26,2.27,0,3.24,5.21,4.66,5.34l.11-.16c0-1.27,0-2.6-.09-3.87,0-.34-.7-.42-.61-1,.71-.2,1.69-.55,2.29,0-.1.25-.49.59-.5.84,0,.93.2,6.29-.28,6.56-1.38.77-3.31-4.75-4.33-4.8M93.54,132.47h0c.57,3.55.19,7.75.26,11.28-.09,1.38-.09,2.76,0,4.14.24,1.6.24,3.22,0,4.82-.55,2-1.85,2-2.19,2.65s0,1.24-.11,1.82c-.7,4.37,2,16.25,1.74,17.73-.39,1.92-5,3.23-6.61,2.67l-.12-.15c-.07-1.73.66-3.61.71-5.35.12-4.29,1.46-8.63,1.56-13,0-1.7.76-3.51.79-5.23.05-4.09,1.23-8.3,1.25-12.34,0-1.71.75-3.6.79-5.27.2-4.64.66-9.26,1.38-13.85.14-.82-.8-2.47-.66-3.22s.84-1,1-1.64c.31-1,2.2-24.09,2.24-26.34,0-2.66.34-9.78,1.07-12,.55-1.71.19-5.27.54-7.24.28-1.56.45-3.13.53-4.71,0-.25.41-1.24-.11-1.3h-.71c-.22.29-1.61,12.31-1.63,13.57,0,2.75-.66,5.58-.67,8.31-.07,8.89-1.61,20.28-2.3,29.42-.14,1.85-.57,3.56-.58,5.46,0,3.68-1,7.49-1.09,11.19,0,1.64-.79,3.53-.75,5.16.11,4.47-1.51,9-1.58,13.49-.1,5.1-2.12,20.14-3.11,24.9l-.19.16c-7.85.36-12.4-3.43-21.08-1.18-1.16.3-5.13.71-5.62-.74-.08-.47,0-.96.21-1.38.92-3.34,1.35-6.8,1.26-10.26,0-.83-.09-7.26-.33-7.92s-.78-.29-1.1-1.44,1.13-15.69,1.24-18.34c.27-6.52,0-13-.21-19.5,0-.58-7.85-10.76-7.8-20.62-1.48-1.83-2.08-4.21-1.64-6.52.54-2.39,2.1-4.33,2.92-6.58.7-1.9,1.38-4,1.92-6,.21-.8,1.37-1.48,1.56-2.53.26-1.45-1-3-.38-4.57,1-2.67,2.72-2.85,3.76-4.23.88-1.15,1.91-3.89,3.79-3.52l.2.28c0,1.1.14.83,1,1l.2.27c0,1.2-.88,1.54-1.16,2.52-.08.58.05,1.17.37,1.66.55,1.86-.2,2.44-.05,3.2h.08c.42.19,1.78-1,2.22-1.24,1-.42,1.97-.89,2.91-1.43.66-.89,1.55-7.17,1.5-8.39-.52-.68-.91-1.45-1.16-2.27-.1-.78.07-1.58.47-2.26.12-.29-.2-.59-.3-.82-.14-.69-.23-1.39-.28-2.09-.13-.5-.94-3.75-.88-4,.28-1.1,3.77-4.44,4.77-5.48s2.39-2.59,3.75-3,8.53,7.65,8.33,9c-.28,1.92-.67,3.73-1,5.63-.15.84.46,2,.26,2.64-.76,2.57.17,4.2,1,6.68.18,1,.51,1.97,1,2.86.37.47,1.6.78,2.15,1.1,1.12.63,2.18,1.35,3.28,2,.56.34,3.15,2.53,3.33,2.54.38-2.21.59-4.45.64-6.69-.21-.68-.68-.39-.59-1.64,0-.53,1.06-1,1.07-1.53,0-.92.18-1.77.21-2.69.17-2.45.53-4.88,1.06-7.28.36-1.78.61-3.33,2.59-4,4.58-1.57,6.61,5.18,3.87,8.87s-5.5-3.43-2.31-2.83c.24.08.5.11.75.1.75-1.16,0-4.21-1.76-2.92-.62.47-2.16,10.71-1.91,11.57.16.56.7.77.55,1.45s-.71.8-.88,1.32c-.39,1.19-.94,8.1-1.12,9.82.23.76.54,1.5.92,2.19,1.54,3.89,2.74,7.9,3.59,12h.19l.11-.28c.25-2,1-1.92,1-2.27.19-1,.22-1.84,1.5-1.89,1.39.65.83,1.74,1.24,2.34.27.4.68.4.85,1s-.21.92-.25,1.46c.29.23.51.53.66.86.17.48-.17.61-.26,1s.38,1,.23,1.49c-.2.73-.39.39-.13,1.27.18.6-.34,1-.44,1.51-.16.87.27,2.61,0,3.43s-.66,1.45-.86,2.15c-.12.45.28.84.15,1.3-.16.62-.86.94-1,1.6.75,1-.63,2.15-.61,2.62.11,1.87-2.08,5.32-2.08,5.66,0,2.31-.37,4.61-1.07,6.81,0,.08-5,6.4-5.4,6.83-.86.74-1.67,1.54-2.43,2.39-.06.97-.06,1.95,0,2.92M99.79,132.82h0c-2.56-3.54-4.37.62-3.64,2.89.47,1.45,1.95,2.31,3.26,1.22.53-.43,0-.86.79-1.59.62-.1.48,3-.16,3l-.57-.5c-.39,0-.6.3-.93.46-4.49,2-5.3-8.86-.54-7.93.39.12.79.2,1.19.25.25-.23.48-.47.69-.72l.16-.05.36.35c0,.61.22,2.58-.61,2.58M95.79,142.7h0c-.34-.81-1.72-2.34-1.17-2.66.79-.05,1.58-.02,2.37.07l.12.27c-.28.23-.46.56-.49.92.36.52,1.31,4.2,2,4.22.63-1.36,1.08-2.79,1.36-4.26-.1-.34-.45-.52-.49-.89l.15-.17c.77-.12,1.56-.12,2.33,0,.28.45-.34.87-.53,1.2-.71,1.23-1.82,5.8-2.72,6.57-1.07,0-2.52-4.17-3-5.22M103.91,142.57h0c.49,1.91,4.26,0,3.55,3.31-1,4.54-4.74,1.18-5.56,1.7-.22.14-.46.56-.78.46l-.28-.39c.11-.46.24-2.49,1-2.35.54.46-.15,2,2.65,2.07,1.17,0,1.23-.81,1.26-1.81s-2.25-.87-2.94-2.46c-.42-1.17.19-2.46,1.36-2.88.31-.11.65-.15.98-.12.46.1.76.53,1.24.56l.87-.66c.77.35.54,2.77-.1,2.8-.4-.54-.6-1.41-1.29-1.67s-2,.67-1.75,1.51M107.58,131.7h0c-.78,1.58-1.32,3.62-2,5.29-.11.31-.39,1.69-.87,1.52-.78-.26-2.16-5.33-2.59-6.29-.23-.52-1.16-1.22-1.1-1.6.83-.6,1.61,0,2.16-.32h.44l.32.43c-.23.25-.41.55-.65.8,0,.74,1.29,4.27,1.79,4.26.61-1.35,1.07-2.76,1.37-4.21l-.73-.77c-.17-.68,2.51-.49,3-.47l.16.24c-.34.61-.92.37-1.28,1.09M64.2,157.82h0c-.9-.4-1.83-.73-2.78-1l-.16.16c-.29,4.34,1,8.77,0,13.15-.35,1.4-1.21,3.6-1.23,5l.2.07c4.33-2.94,11.89-14.24,4-17.3M53.8,99h0c-.22-.71,0-1.49-.21-2.2l-.47-.19c-.23.06-.42.23-.51.45.13,4.5,3.12,14,6.14,17,.08-.03.15-.09.2-.16,0-1.66-.57-2-1-3.37-1.26-3.88-2.9-7.69-4.13-11.56M91.82,116.03h0c-.51.87-.91,1.79-1.2,2.75.19.13.41.21.64.22.5-.87.77-1.86.76-2.87,0-.06-.16-.15-.24-.11M60.46,117.17h0c.09,2.49.3,10.28.84,12.37.36,1.66.94,3.27,1.72,4.78h.12l.07-.32c-1.29-1.69-1.22-37.86-3.42-39.4h-.33c-.59.4-.9,1.1-.79,1.8,0,5.58,1.05,11.2,1.09,16.79,0,1.15.67,2.66.72,3.93M72.57,53.62h0c1.71-.68.71-2.81,1-4,.23-.88,2-3,.15-3.48-1.24.89-2.76,1.8-3.11,3.47-.18.85.34,4.68,1.91,4.06M82.98,83.46h0c-.62.21-2.48.38-2.7,1-.43,1.12-.21,35.85,0,40.34.08,1.92.28,9.08,0,10.7-.37,2.18.54,5.1-.12,7.11l-.23.24c-1.57.21-3.16.23-4.73.07-.39-.65-.16-6.25-.17-7.34,0-4.32-.07-8.63,0-13-.11-1.74-.11-3.47,0-5.21.18-1.69.21-3.39.08-5.09-.24-3-.14-6.18-.21-9.19.12-1.45.14-2.9.06-4.35-.11-.52-.14-1.05-.07-1.57,0-.38,0-11.78-.21-12.71-.85-.35-1.73-.63-2.63-.85-1.73-.61-3.16-1.85-4.79-2.56-.55.14-.61,1.5-.62,2-.06,1.89-.31,3.63-.27,5.57.1.34.23.68.38,1,.79,3.1,1.88,6.11,3.24,9,.34.73,2.27,3.93,2.3,4.33-.39.59-1.2-1.2-1.33-1.4-.67-1-2.75-4.76-4-4.76l-.35.52c.77,3.1,2,6.07,3.67,8.8.3.48,1.4,2,1.32,2.42l-.27.08c-2.74-3.56-5.01-7.44-6.77-11.57-.44-1-.67-2.11-1.6-2.76h-.2l-.27.32c.77,2.83,1.8,5.65,2.76,8.42,1.54,4.51,2.24,9.39,3.51,14,1.49,5.38,1.65,19.39,1.88,25.42,0,.72,4.88,4.71,5.78,4.88.55.1,5.89-3.94,6-4.32s.87-11.58.93-12.81c.25-6.3,1.47-12.52,3.64-18.44.34-.89,2.71-7.11,2.71-7.44-.19-.22-.32-.39-.64-.38-1.55,1.17-5.26,3.31-7.22,3.36l-.16-.35c1.69-1.47,3.84-2.69,5.66-4.2,7-5.78,7.11-17.8,7.57-26.26l-.32-.11c-2.45,3.21-8,5.81-11.67,7.09"/>
  <path class="cls-6" d="M114.31,23.17c-50.26-.06-91.04,40.64-91.1,90.9s40.64,91.04,90.9,91.1c50.26.06,91.04-40.64,91.1-90.9,0-.03,0-.07,0-.1,0-50.22-40.68-90.94-90.9-91M26.16,114.17c.01-48.15,38.63-87.39,86.77-88.17v176.41c-48.17-.78-86.8-40.06-86.77-88.23M115.69,202.41V26c48.73.73,87.64,40.83,86.9,89.56-.72,47.69-39.21,86.18-86.9,86.9"/>
  <path class="cls-6" d="M20.95,159.63c-1.08.8-1.37,2.28-.69,3.43.47,1.17,1.8,1.74,2.97,1.27.03-.01.06-.02.08-.04.85-.42,1.25-1.4.95-2.29l-.52-1.9c-.57-2.12.07-3.81,1.66-4.64,1.78-.93,4.17-.25,5.44,2.18,1.28,2.01.76,4.68-1.18,6.06l-1.27-1.27c1.37-.84,1.81-2.62,1-4-.83-1.58-2.05-1.93-3.05-1.41-.92.53-1.3,1.66-.88,2.64l.49,1.81c.59,1.67-.13,3.52-1.69,4.35-2.03.9-4.41.01-5.36-2-1.13-1.73-.78-4.04.82-5.35l1.23,1.16Z"/>
  <polygon class="cls-6" points="14.71 149.32 25.27 145.5 25.87 147.18 15.31 151 16.78 155.05 15.22 155.62 11.69 145.83 13.24 145.26 14.71 149.32"/>
  <path class="cls-6" d="M18.6,139l-8.34,1.71-.34-1.71,8.26-1.72c1.92-.41,2.79-1.68,2.42-3.45s-1.67-2.57-3.59-2.16l-8.26,1.73-.36-1.75,8.31-1.74c2.49-.59,4.99.95,5.59,3.44.59,2.49-.95,4.99-3.44,5.59-.08.02-.16.04-.24.05"/>
  <path class="cls-6" d="M20.34,124.07l-12.87.69-.21-4.51c-.21-3.25,1.87-6.25,6.1-6.47,4.23-.22,6.56,2.54,6.74,5.81l.24,4.48ZM18.52,119.73c-.12-2.38-1.83-4.29-5.06-4.12s-4.78,2.23-4.65,4.61l.14,2.67,9.72-.52-.15-2.64Z"/>
  <rect class="cls-6" x="12.78" y="101.36" width="1.82" height="12.88" transform="translate(-94.76 114.66) rotate(-86.38)"/>
  <path class="cls-6" d="M16.26,101.58l-8.4-1.47.31-1.74,8.31,1.46c1.93.35,3.21-.52,3.52-2.29s-.6-3-2.53-3.35l-8.31-1.47.31-1.72,8.36,1.48c2.56.18,4.48,2.4,4.3,4.96-.18,2.56-2.4,4.48-4.96,4.3-.31-.02-.61-.07-.91-.16"/>
  <polygon class="cls-6" points="27.43 76.91 18 73.47 25.92 81.05 25.36 82.59 14.43 83.25 23.86 86.69 23.26 88.35 11.15 83.92 11.98 81.65 23.39 80.98 15.11 73.07 15.93 70.83 28.04 75.25 27.43 76.91"/>
  <path class="cls-6" d="M39.02,57.06l-1.59-.89c.64,1.53.4,3.28-.61,4.59-1.83,2.67-5.49,3.82-9.08,1.35-3.01-1.81-3.98-5.72-2.17-8.73.08-.13.16-.26.25-.38,1.35-2.17,3.98-3.17,6.44-2.46l-.34,1.72c-1.8-.6-3.77.12-4.76,1.74-1.3,1.91-1.21,4.7,1.6,6.64s5.5,1.06,6.76-.84c1.29-1.57,1.07-3.89-.5-5.18,0,0-.02-.01-.02-.02l-2.54,3.7-1.31-.91,3.48-5.09,5.2,3.58-.81,1.18Z"/>
  <polygon class="cls-6" points="42.85 52.38 33.42 43.59 38.76 37.85 39.97 38.98 35.84 43.41 38.75 46.12 42.49 42.09 43.71 43.24 39.97 47.26 42.86 49.95 46.98 45.51 48.19 46.64 42.85 52.38"/>
  <polygon class="cls-6" points="58.36 38.02 46.38 34.11 52.91 42.35 51.52 43.46 43.5 33.36 45.37 31.88 56.55 35.62 50.41 27.87 51.8 26.76 59.81 36.87 58.36 38.02"/>
  <polygon class="cls-6" points="64.14 34.06 57.73 22.88 64.52 18.97 65.34 20.41 60.1 23.43 62.07 26.86 66.83 24.13 67.66 25.58 62.9 28.32 64.87 31.74 70.11 28.72 70.94 30.16 64.14 34.06"/>
  <path class="cls-6" d="M76.55,21.86l-1.79.73,2,4.89-1.68.68-4.82-11.97,4.5-1.82c1.86-.89,4.09-.1,4.97,1.76.05.1.09.2.13.31.71,1.69.05,3.65-1.55,4.56l4.87,3.86-1.92.79-4.71-3.79ZM76.69,20.07c1.19-.3,1.91-1.5,1.61-2.69-.3-1.19-1.5-1.91-2.69-1.61-.2.05-.4.13-.58.24l-2.53,1,1.66,4.1,2.53-1.03Z"/>
  <path class="cls-6" d="M93.72,18.27l-5.54,1.36-.47,3.82-1.85.45,1.91-13.75,2-.49,8,11.31-1.88.46-2.17-3.16ZM88.41,17.86l4.3-1.05-3.54-5.09-.76,6.14Z"/>
  <polygon class="cls-6" points="101.45 20.55 100.13 7.71 101.9 7.53 103.05 18.7 109.11 18.07 109.28 19.74 101.45 20.55"/>
  <polygon class="cls-6" points="113.26 19.65 113.59 6.76 121.42 6.96 121.38 8.62 115.33 8.46 115.23 12.42 120.71 12.56 120.67 14.24 115.18 14.09 115.08 18.04 121.13 18.2 121.08 19.85 113.26 19.65"/>
  <path class="cls-6" d="M132.7,14.75c.66-3.47,4.01-5.74,7.48-5.08.12.02.23.05.34.08,2.6.47,4.5,2.71,4.53,5.35l-1.75.16c.08-1.92-1.28-3.59-3.17-3.91-2.27-.57-4.86.55-5.66,3.82-.8,3.27.94,5.49,3.22,6,1.85.53,3.82-.31,4.73-2l1.39,1c-1.28,2.32-4.01,3.43-6.55,2.66-3.41-.81-5.53-4.23-4.72-7.64.04-.15.08-.3.12-.44"/>
  <rect class="cls-6" x="143.49" y="18.88" width="12.9" height="1.82" transform="translate(78.36 153.02) rotate(-69.27)"/>
  <polygon class="cls-6" points="166.49 20.31 168.16 21.16 157.88 30.4 156.31 29.6 157.84 15.89 159.52 16.75 158.17 27.97 166.49 20.31"/>
  <rect class="cls-6" x="163.19" y="28.94" width="12.89" height="1.82" transform="translate(51.62 155.31) rotate(-56.73)"/>
  <polygon class="cls-6" points="181.79 32.89 174.68 41.6 173.3 40.47 180.41 31.76 177.08 29.03 178.12 27.75 186.17 34.34 185.13 35.62 181.79 32.89"/>
  <path class="cls-6" d="M187.6,49.06l-3.91-4.16-3.56,1.48-1.31-1.38,12.9-5.12,1.41,1.5-5.87,12.62-1.33-1.41,1.67-3.53ZM185.33,44.23l3,3.23,2.68-5.6-5.68,2.37Z"/>
  <polygon class="cls-6" points="200.56 53.19 191.44 59.76 190.4 58.31 199.52 51.74 197 48.24 198.34 47.27 204.42 55.72 203.08 56.69 200.56 53.19"/>
  <polygon class="cls-6" points="195.76 66.47 206.94 60.05 207.85 61.63 196.66 68.05 195.76 66.47"/>
  <path class="cls-6" d="M210.36,74.81c1.13-.73,1.52-2.19.92-3.39-.4-1.2-1.69-1.85-2.89-1.46-.04.01-.07.02-.11.04-.87.39-1.31,1.37-1.02,2.28l.4,1.93c.43,2.16-.32,3.8-2,4.53-1.83.81-4.19,0-5.29-2.54-1.18-2.09-.49-4.74,1.56-6l1.19,1.34c-1.45.73-2.04,2.5-1.31,3.95,0,.02.02.04.03.05.72,1.63,1.92,2.06,2.95,1.6.95-.47,1.4-1.57,1.05-2.57l-.37-1.85c-.53-1.73.33-3.59,2-4.3,2.34-.68,4.8.67,5.47,3.02.49,1.69-.07,3.5-1.41,4.62l-1.17-1.25Z"/>
  <path class="cls-6" d="M211.26,91l-5.15,1.12-.38-1.74,12.53-2.75,1,4.6c.55,2.01-.62,4.08-2.63,4.64-.09.02-.17.04-.26.06-2,.48-4.02-.76-4.5-2.76-.03-.11-.05-.22-.06-.33l-.55-2.84ZM213.37,93.18c.33,1.52,1.37,2.26,2.66,2,1.2-.23,1.98-1.39,1.75-2.59-.02-.11-.05-.22-.09-.33l-.55-2.52-4.31.94.54,2.5Z"/>
  <polygon class="cls-6" points="208.04 102.88 220.89 101.82 221.53 109.64 219.88 109.78 219.39 103.73 215.44 104.06 215.89 109.54 214.22 109.68 213.77 104.2 209.83 104.52 210.33 110.56 208.68 110.7 208.04 102.88"/>
  <path class="cls-6" d="M213.8,119.29l.1-1.93-5.26-.28.09-1.79,12.87.67-.26,4.86c.02,2.05-1.63,3.72-3.68,3.74-.11,0-.21,0-.32-.01-1.83-.06-3.33-1.48-3.48-3.31l-5.6,2.76.12-2.07,5.42-2.64ZM215.35,120.17c-.16,1.22.69,2.33,1.91,2.49,1.22.16,2.33-.69,2.49-1.91.02-.12.02-.23.02-.35l.14-2.72-4.41-.23-.15,2.72Z"/>
  <path class="cls-6" d="M212.05,129.05l8.32,1.67-.34,1.73-8.27-1.66c-1.93-.38-3.22.45-3.58,2.22s.53,3,2.45,3.4l8.27,1.66-.35,1.75-8.29-1.67c-2.51-.5-4.14-2.95-3.64-5.46s2.95-4.14,5.46-3.64"/>
  <path class="cls-6" d="M211.18,151.45c1.32.25,2.62-.55,3-1.84.53-1.14.03-2.5-1.12-3.02-.03-.01-.05-.02-.08-.04-.89-.33-1.9.07-2.31.93l-1,1.68c-1.16,1.87-2.82,2.55-4.52,2-1.89-.67-3-2.89-2.11-5.48.59-2.31,2.89-3.74,5.22-3.26l-.06,1.79c-1.55-.45-3.17.43-3.62,1.98,0,0,0,.01,0,.02-.6,1.68,0,2.81,1.05,3.19,1.01.3,2.09-.19,2.52-1.15l1-1.6c.79-1.62,2.67-2.39,4.37-1.79,2.18,1.09,3.05,3.75,1.96,5.92-.8,1.58-2.46,2.53-4.23,2.42l-.06-1.75Z"/>
  <rect class="cls-6" x="204.45" y="150.96" width="1.82" height="12.89" transform="translate(-25.02 275.2) rotate(-64.55)"/>
  <rect class="cls-6" x="201.04" y="157.58" width="1.82" height="12.89" transform="translate(-40.5 258.39) rotate(-60.35)"/>
  <path class="cls-6" d="M38.32,176.21c1.32,1.61,1.08,3.99-.53,5.3s-3.99,1.08-5.3-.53c-1.32-1.61-1.08-3.98.53-5.3,1.61-1.32,3.99-1.08,5.31.53"/>
  <path class="cls-6" d="M51.51,196.6l-4.43-3.6-3.33,2-1.49-1.26,12.09-6.8,1.59,1.29-4.12,13.26-1.49-1.21,1.18-3.68ZM48.61,192.12l3.45,2.79,1.89-5.91-5.34,3.12Z"/>
  <path class="cls-6" d="M58.26,202.67c.59.37.77,1.16.4,1.75,0,0,0,0,0,0-.38.58-1.16.75-1.74.37-.58-.38-.75-1.16-.37-1.74.37-.57,1.14-.74,1.72-.38"/>
  <path class="cls-6" d="M63.36,208.65l5.62-11.65,4.06,2c3,1.43,4.54,4.69,2.69,8.51s-5.4,4.52-8.35,3.09l-4.02-1.95ZM68.02,209.16c2.14,1,4.65.47,6.06-2.44s.37-5.27-1.78-6.31l-2.4-1.17-4.25,8.76,2.37,1.16Z"/>
  <path class="cls-6" d="M79.44,213.06c.66.24,1.01.96.78,1.63-.23.65-.95.99-1.6.76,0,0-.02,0-.02,0-.64-.21-.99-.9-.78-1.54,0-.02.01-.04.02-.06.22-.65.93-1.01,1.58-.79,0,0,.01,0,.02,0"/>
  <polygon class="cls-6" points="97.93 220.4 99.96 210.56 93.63 219.51 92.03 219.17 89.79 208.46 87.76 218.29 86.03 217.93 88.64 205.3 91.01 205.79 93.33 216.99 99.94 207.64 102.27 208.13 99.66 220.75 97.93 220.4"/>
  <path class="cls-6" d="M106.5,215c-.11-3.53,2.66-6.49,6.2-6.6.11,0,.22,0,.33,0,2.63-.12,4.98,1.64,5.59,4.2l-1.66.55c-.36-1.9-2.07-3.23-4-3.11-2.35-.05-4.61,1.62-4.68,5s2.14,5.14,4.48,5.18c1.92.1,3.66-1.15,4.17-3l1.58.62c-.76,2.51-3.15,4.17-5.77,4-3.5-.02-6.32-2.88-6.3-6.38,0-.16,0-.31.02-.47"/>
  <path class="cls-6" d="M122.84,214.91c-.68-3.47,1.59-6.83,5.06-7.51.11-.02.21-.04.32-.05,2.58-.55,5.18.81,6.2,3.24l-1.56.82c-.65-1.81-2.54-2.85-4.41-2.44-2.32.34-4.29,2.35-3.81,5.68s2.94,4.73,5.26,4.39c1.92-.21,3.43-1.73,3.63-3.65l1.64.35c-.32,2.6-2.39,4.65-5,4.92-3.45.54-6.69-1.82-7.23-5.27-.02-.16-.04-.32-.06-.48"/>
  <path class="cls-6" d="M138.98,212.24c-1.22-3.32.48-7,3.8-8.22.1-.04.2-.07.3-.1,2.46-.96,5.25-.03,6.64,2.21l-1.41,1.06c-.93-1.68-2.96-2.41-4.74-1.7-2.24.69-3.86,3-2.86,6.21s3.66,4.2,5.9,3.49c1.86-.51,3.12-2.25,3-4.18l1.69.09c.1,2.64-1.65,4.99-4.2,5.66-3.32,1.08-6.9-.73-7.98-4.06-.05-.15-.09-.31-.13-.46"/>
  <polygon class="cls-6" points="159.72 197.2 161.4 196.38 162.64 210.15 161.06 210.93 151.01 201.5 152.71 200.66 160.88 208.46 159.72 197.2"/>
  <rect class="cls-6" x="167.79" y="192.87" width="1.82" height="12.89" transform="translate(-80.64 121.77) rotate(-32.48)"/>
  <rect class="cls-6" x="174" y="188" width="1.82" height="12.9" transform="translate(-81.69 143.84) rotate(-36.87)"/>
  <rect class="cls-6" x="179.66" y="183.98" width="1.82" height="12.9" transform="translate(-80.6 164.76) rotate(-40.91)"/>
  <path class="cls-6" d="M190.31,176.7c1.32-1.61,3.7-1.84,5.31-.52s1.84,3.7.52,5.31c-1.32,1.61-3.69,1.84-5.3.53-1.61-1.32-1.85-3.69-.53-5.3,0,0,0,0,0,0"/>
</svg>