<svg xmlns="http://www.w3.org/2000/svg" id="layer" viewBox="0 0 654 537.7">
  <path d="m499.71,479.1c1.58,1.71,5.36,5.98,13.52,5.98,9.01,0,14.86-5.37,14.86-12.56,0-5.61-4.87-9.64-7.91-10.98v-.12c2.92-1.34,6.82-5.25,6.82-10.37,0-7.32-6.09-12.08-13.76-12.08-7.18,0-12.18,5.73-12.18,5.73-.49.49-.49,1.22,0,1.71l2.44,2.2c.49.49,1.34.37,1.7-.12,1.34-1.46,3.65-3.66,7.67-3.66s7.55,2.81,7.55,7.2c0,3.9-3.17,6.95-9.25,6.95h-3.65c-.85,0-1.34.49-1.34,1.46v2.93c0,.85.49,1.34,1.22,1.34h3.65c7.06,0,10.35,3.78,10.35,7.68,0,4.39-3.9,7.07-8.28,7.07-4.87,0-8.52-3.54-9.01-4.03-.49-.61-1.22-.61-1.83-.12l-2.56,2.44c-.37.24-.37.98,0,1.34m-19.73,0c-7.18,0-9.62-7.56-9.01-13.05.37-1.22,3.77-5,9.01-5,4.87,0,8.77,4.03,8.77,9.03-.12,4.88-3.9,9.03-8.77,9.03m-15.46-12.56c0,10.12,4.99,18.42,15.46,18.42,7.91,0,14.73-6.83,14.73-15.13,0-9.03-6.82-14.27-13.76-14.27-4.38,0-8.28,2.2-8.65,2.44,2.19-8.05,12.66-13.54,15.71-14.52,1.22-.37,1.58-1.1,1.22-1.83l-1.1-2.68c-.24-.73-.85-.98-1.7-.85-6.21,2.32-21.92,10-21.92,28.42m-30.32,6.1c0-3.54,3.04-7.2,8.28-7.93,5.36.85,8.28,4.39,8.28,7.93,0,4.39-3.77,7.2-8.4,7.2-4.14-.12-8.16-2.93-8.16-7.2m8.4-14.27c-5.11-.85-7.31-3.54-7.31-6.95,0-4.03,3.17-6.95,7.18-6.95,4.26,0,7.55,2.93,7.55,6.95-.12,3.29-2.31,6.22-7.43,6.95m-15.22,14.03c0,7.2,5.84,12.69,15.1,12.69s15.34-5.49,15.34-12.69c0-5.61-4.87-9.64-7.91-11.1v-.12c2.92-1.46,6.7-5.12,6.7-10.12,0-7.32-5.97-12.08-14.12-12.08s-14,4.88-14,12.08c0,5.12,3.9,8.78,6.82,10.25v.12c-2.44.98-7.91,5.25-7.91,10.98m-31.54,11.95h22.89c.73,0,1.22-.49,1.22-1.22v-2.93c0-.73-.49-1.22-1.22-1.22h-7.31v-38.18c0-.61-.49-1.22-1.22-1.22h-3.17l-9.74,8.78c-.24.24-.37.85-.12,1.34l.85,2.32c.12.49.85.73,1.46.49l5.72-2.93v29.52h-9.13c-.73,0-1.22.49-1.22,1.22v2.93c-.37.61.24,1.1.97,1.1m-59.91-22.93c0-9.39,7.67-17.2,17.05-17.2s17.17,7.93,17.17,17.2-7.67,17.08-17.17,17.08c-9.25-.12-17.05-7.68-17.05-17.08m-6.45,0c0,13.17,10.35,23.66,23.62,23.66s23.62-10.49,23.62-23.66-10.59-23.79-23.62-23.79-23.62,10.49-23.62,23.79m-47.73,21.71c0,.73.61,1.22,1.22,1.22h4.14c.73,0,1.22-.49,1.22-1.22v-32.08h.12l28.49,34.03h1.7c.61,0,1.22-.49,1.22-1.22v-44.4c0-.61-.61-1.22-1.22-1.22h-4.26c-.73,0-1.22.49-1.22,1.22v31.1h-.12l-28.49-33.06h-1.58c-.61,0-1.22.49-1.22,1.22v44.4Zm-36.41-14.39l8.04-18.05h.37l8.04,18.05h-16.44Zm-12.18,15.61h4.26c.85,0,1.34-.49,1.58-.98,1.34-3.05,2.68-5.98,4.02-9.03h21.55l4.02,9.03c.12.61.73.98,1.58.98h4.14c.97,0,1.58-.85,1.1-1.71l-20.09-44.28c-.12-.49-.73-.73-1.1-.73h-.73c-.24,0-.85.24-1.1.73l-20.21,44.28c-.49.85,0,1.71.97,1.71m-30.93-1.22c0,.73.49,1.22,1.22,1.22h23.38c.73,0,1.22-.49,1.22-1.22v-3.66c0-.61-.49-1.22-1.22-1.22h-17.78v-38.91c0-.61-.61-1.22-1.22-1.22h-4.26c-.73,0-1.22.49-1.22,1.22v43.79h-.12Zm-19.73,0c0,.73.61,1.22,1.22,1.22h4.26c.61,0,1.22-.49,1.22-1.22v-43.67c0-.61-.61-1.22-1.22-1.22h-4.26c-.61,0-1.22.49-1.22,1.22v43.67Zm-60.15-.24c-.12.98.37,1.59,1.22,1.59h4.26c.49,0,1.1-.49,1.22-.85l4.75-29.4h.24l11.93,30.37c.12.37.61.73,1.1.73h1.22c.61,0,.97-.37,1.1-.73l11.81-30.37h.12l4.87,29.4c.12.49.73.85,1.22.85h4.26c.97,0,1.46-.49,1.22-1.59l-8.04-44.28c-.12-.49-.61-.98-1.22-.98h-1.1c-.49,0-.97.24-1.22.73l-13.52,33.54h-.24l-13.76-33.54c-.12-.49-.73-.73-1.22-.73h-.97c-.49,0-1.1.49-1.22.98l-8.04,44.28Z"/>
  <path d="m573.74,374.2c0-11.83,9.62-21.71,21.55-21.71s21.55,9.88,21.55,21.71-9.74,21.59-21.55,21.59-21.55-9.76-21.55-21.59m-12.18,0c0,18.78,14.98,33.79,33.73,33.79s33.85-15,33.85-33.79-15.1-34.03-33.85-34.03-33.73,15.25-33.73,34.03m-65.51,0c0,18.78,15.1,33.79,33.85,33.79,8.4,0,16.44-2.93,22.89-9.15.73-.61.85-1.83.12-2.56l-5.84-5.98c-.49-.49-1.58-.73-2.31,0-3.9,3.17-8.77,5.25-14.37,5.25-12.05,0-21.07-10-21.07-21.71s9.01-21.96,20.94-21.96c5.24,0,10.47,2.07,14.37,5.61.73.73,1.7.73,2.31,0l5.72-5.98c.73-.73.73-1.83-.12-2.56-6.33-5.73-13.15-8.78-22.77-8.78-18.51,0-33.73,15.25-33.73,34.03m-24.6,31.1c0,.98.85,1.71,1.83,1.71h8.77c.85,0,1.83-.85,1.83-1.71v-62.33c0-.98-.85-1.83-1.83-1.83h-8.77c-.97,0-1.83.85-1.83,1.83v62.33Zm-71.6,0c0,.98.85,1.71,1.83,1.71h8.65c.97,0,1.83-.85,1.83-1.71v-40.5h.12l39.21,43.18h2.19c.85,0,1.7-.73,1.7-1.71v-63.31c0-.98-.85-1.83-1.7-1.83h-8.65c-1.1,0-1.83.85-1.83,1.83v38.91h-.12l-39.09-41.59h-2.31c-.97,0-1.83.73-1.83,1.71v63.31h0Zm-69.28-31.1c0,18.78,15.1,33.79,33.97,33.79,8.28,0,16.44-2.93,22.89-9.15.73-.61.85-1.83.12-2.56l-5.84-5.98c-.49-.49-1.58-.73-2.31,0-3.9,3.17-8.77,5.25-14.37,5.25-12.05,0-21.07-10-21.07-21.71s9.01-21.96,20.94-21.96c5.24,0,10.47,2.07,14.37,5.61.73.73,1.7.73,2.31,0l5.72-5.98c.73-.73.73-1.83-.12-2.56-6.33-5.73-13.27-8.78-22.77-8.78-18.75,0-33.85,15.25-33.85,34.03m-51.39,31.1c0,.98.73,1.71,1.7,1.71h38.36c1.1,0,1.83-.85,1.83-1.71v-7.68c0-.98-.73-1.83-1.83-1.83h-27.76v-16.47h23.26c.97,0,1.83-.73,1.83-1.83v-7.81c0-.98-.85-1.83-1.83-1.83h-23.26v-15.49h27.76c1.1,0,1.83-.85,1.83-1.83v-7.56c0-.98-.73-1.83-1.83-1.83h-38.23c-.97,0-1.7.85-1.7,1.83l-.12,62.33h0Zm-39.09,0c0,.98.85,1.71,1.83,1.71h8.65c.85,0,1.83-.85,1.83-1.71v-52.82h14.37c1.1,0,1.83-.85,1.83-1.83v-7.68c0-.98-.73-1.83-1.83-1.83h-41.04c-.97,0-1.83.85-1.83,1.83v7.68c0,.98.85,1.83,1.83,1.83h14.37v52.82h0Zm-40.3,0c0,.98.85,1.71,1.83,1.71h8.77c.85,0,1.83-.85,1.83-1.71v-62.33c0-.98-.85-1.83-1.83-1.83h-8.77c-.97,0-1.83.85-1.83,1.83v62.33Zm-50.17,0c0,.98.73,1.71,1.83,1.71h34.46c.97,0,1.83-.85,1.83-1.71v-7.68c0-.98-.85-1.83-1.83-1.83h-23.87v-52.82c0-.98-.85-1.83-1.83-1.83h-8.65c-.97,0-1.83.85-1.83,1.83l-.12,62.33h0Zm-65.14-31.1c0-11.83,9.62-21.71,21.55-21.71s21.55,9.88,21.55,21.71-9.74,21.59-21.55,21.59c-12.05,0-21.55-9.76-21.55-21.59m-12.3,0c0,18.78,14.98,33.79,33.73,33.79s33.73-15,33.73-33.79-15.1-34.03-33.73-34.03-33.73,15.25-33.73,34.03m-39.82-2.56v-18.91h10.84c5.24,0,9.62,3.9,9.62,9.15,0,5.61-4.38,9.76-9.62,9.76h-10.84Zm-12.18,33.67c0,.98.73,1.71,1.83,1.71h8.65c.97,0,1.83-.85,1.83-1.71v-22.2h11.69c11.45,0,20.82-9.51,20.82-21.22s-9.38-20.86-20.94-20.86h-22.16c-.97,0-1.83.85-1.83,1.83l.12,62.45h0Z"/>
  <path d="m321.44,286.96l2.19-.12.12,12.08h-2.19l-.12-11.95Zm-6.45,12.08l.49-12.08,2.19.12-.49,12.08-2.19-.12Zm12.18-12.08l2.19-.12.73,12.08-2.19.12-.73-12.08Zm-18.39,11.59l.85-12.08,2.31.12-.97,12.08-2.19-.12Zm24.11-12.08l2.19-.24,1.22,12.08-2.19.12-1.22-11.95Zm-30.44,11.34l1.58-12.08,2.19.24-1.58,12.08-2.19-.24Zm36.29-11.95l2.19-.37,1.83,12.08-2.19.24-1.83-11.95Zm-42.62,10.98l2.19-11.95,2.31.37-2.19,11.95-2.31-.37Zm48.34-11.95l2.19-.49,2.44,11.95-2.19.37-2.44-11.83Zm-54.55,10.61l2.56-11.83,2.19.49-2.56,11.83-2.19-.49Zm60.15-11.83l2.19-.49,2.92,11.71-2.19.49-2.92-11.71Zm-66.24,10.37l3.17-11.71,2.19.49-3.17,11.71-2.19-.49Zm71.96-11.83l2.19-.61,3.41,11.71-2.19.61-3.41-11.71Zm-78.17,9.88l3.77-11.47,2.19.73-3.77,11.59-2.19-.85Zm83.65-11.71l2.19-.73,3.9,11.47-2.19.73-3.9-11.47Zm-89.62,9.51l4.38-11.34,2.19.85-4.38,11.34-2.19-.85Zm95.1-11.47l2.07-.85,4.63,11.22-2.19.85-4.51-11.22Zm-100.94,9.03l4.75-11.1,2.19.85-4.75,11.1-2.19-.85Zm106.3-11.34l2.07-.98,4.99,10.98-2.07.98-4.99-10.98Zm-112.02,8.54l5.24-10.86,2.07.98-5.24,10.98-2.07-1.1Zm117.26-10.86l2.07-1.1,5.6,10.73-1.95,1.1-5.72-10.73Zm-122.98,7.93l5.84-10.61,1.95,1.1-5.84,10.73-1.95-1.22Zm128.1-10.73l1.95-1.22,6.09,10.49-1.95,1.22-6.09-10.49Zm-133.58,7.56l6.33-10.37,1.95,1.22-6.33,10.37-1.95-1.22Zm138.57-10.61l1.83-1.22,6.58,10.12-1.83,1.22-6.58-10.12Zm-143.93,7.07l6.82-10,1.83,1.22-6.82,10-1.83-1.22Zm148.8-10.37l1.83-1.34,6.94,10-1.83,1.34-6.94-10Zm-153.91,6.59l7.31-9.64,1.83,1.34-7.31,9.64-1.83-1.34Zm158.66-10l1.83-1.46,7.43,9.64-1.83,1.46-7.43-9.64Zm-163.65,6.1l7.67-9.39,1.83,1.46-7.67,9.39-1.83-1.46Zm168.04-9.76l1.7-1.46,7.79,9.15-1.7,1.46-7.79-9.15Zm-172.79,5.49l8.04-9.03,1.7,1.59-8.04,9.03-1.7-1.59Zm177.17-9.27l1.7-1.59,8.28,8.78-1.7,1.59-8.28-8.78Zm-181.8,4.88l8.52-8.66,1.58,1.59-8.52,8.66-1.58-1.59Zm185.94-8.9l1.58-1.59,8.65,8.42-1.58,1.59-8.65-8.42Zm-190.32,4.27l9.01-8.17,1.58,1.71-8.89,8.17-1.7-1.71Zm194.34-8.54l1.58-1.71,9.01,7.93-1.58,1.71-9.01-7.93Zm-198.48,3.66l9.38-7.81,1.46,1.71-9.25,7.81-1.58-1.71Zm202.25-8.05l1.46-1.83,9.5,7.56-1.46,1.83-9.5-7.56Zm-206.27,3.05l9.62-7.32,1.34,1.83-9.62,7.32-1.34-1.83Zm209.8-7.68l1.34-1.83,9.86,6.95-1.34,1.83-9.86-6.95Zm-213.46,2.32l9.98-6.83,1.34,1.83-9.98,6.83-1.34-1.83Zm216.86-7.2l1.22-1.83,10.11,6.83-1.22,1.83-10.11-6.83Zm-220.27,1.95l10.35-6.34,1.22,1.95-10.35,6.34-1.22-1.95Zm223.44-6.71l1.22-1.95,10.35,6.22-1.22,1.95-10.35-6.22Zm-226.61,1.22l10.59-5.98,1.1,1.95-10.47,5.98-1.22-1.95Zm229.41-6.34l1.1-2.07,10.72,5.73-1.1,1.95-10.72-5.61Zm-232.33.73l10.84-5.49.97,1.95-10.84,5.49-.97-1.95Zm235.01-5.85l.97-2.07,10.96,5.25-.97,2.07-10.96-5.25Zm-237.81,0l11.08-5,.97,2.07-11.08,4.88-.97-1.95Zm240.12-5.25l.85-2.2,11.2,4.64-.85,2.2-11.2-4.64Zm-242.44-.73l11.32-4.39.85,2.2-11.32,4.39-.85-2.2Zm244.63-4.76l.85-2.2,11.32,4.15-.73,2.2-11.45-4.15Zm-246.7-1.22l11.45-3.78.73,2.2-11.45,3.9-.73-2.32Zm248.65-4.27l.73-2.2,11.57,3.66-.73,2.2-11.57-3.66Zm-250.47-1.95l11.69-3.17.61,2.2-11.69,3.17-.61-2.2Zm252.18-3.54l.49-2.2,11.69,3.05-.61,2.2-11.57-3.05Zm-253.76-2.68l11.69-2.68.49,2.2-11.81,2.68-.37-2.2Zm255.1-3.05l.49-2.2,11.81,2.44-.49,2.2-11.81-2.44Zm-256.44-3.05l11.93-2.2.49,2.2-11.93,2.2-.49-2.2Zm257.53-2.56l.37-2.2,12.05,1.83-.37,2.2-12.05-1.83Zm-258.39-3.78l11.93-1.71.37,2.2-11.93,1.59-.37-2.07Zm259.24-2.07l.24-2.32,12.05,1.46-.24,2.2-12.05-1.34Zm-259.97-4.39l12.05-.98.12,2.2-12.05,1.1-.12-2.32Zm260.58-1.46l.12-2.2,12.05.85-.12,2.2-12.05-.85Zm-260.94-4.76l12.05-.49.12,2.2-12.05.49-.12-2.2Zm261.19.24l.12-2.2,12.05.37-.12,2.32-12.05-.49Zm-261.19-4.39v-2.2h12.05v2.2h-12.05Zm261.31-3.66l12.05-.12v2.2l-12.05.12v-2.2Zm-261.19-2.68l.12-2.32,12.05.61-.12,2.2-12.05-.49Zm260.94-3.05l12.05-.85.12,2.2-12.05.85-.12-2.2Zm-260.58-3.42l.24-2.2,12.05,1.1-.12,2.2-12.18-1.1Zm259.97-2.44l12.05-1.22.24,2.2-12.05,1.22-.24-2.2Zm-259.24-3.9l.24-2.2,12.05,1.71-.24,2.2-12.05-1.71Zm258.51-1.95l12.05-1.83.24,2.2-12.05,1.83-.24-2.2Zm-257.41-4.27l.49-2.2,11.93,2.32-.49,2.2-11.93-2.32Zm256.32-1.46l11.81-2.44.49,2.2-11.81,2.44-.49-2.2Zm-255.1-4.76l.49-2.2,11.69,2.81-.49,2.2-11.69-2.81Zm253.76-.85l11.69-3.05.49,2.2-11.69,3.05-.49-2.2Zm-252.3-5.37l.61-2.2,11.69,3.29-.61,2.2-11.69-3.29Zm250.72-.12l11.57-3.54.73,2.2-11.57,3.54-.73-2.2Zm-248.65-5.98l.73-2.2,11.45,3.9-.73,2.2-11.45-3.9Zm246.7.37l11.45-3.9.73,2.2-11.45,4.03-.73-2.32Zm-244.63-6.46l.85-2.2,11.32,4.51-.85,2.07-11.32-4.39Zm242.44.98l11.2-4.51.85,2.07-11.2,4.64-.85-2.2Zm-240-6.95l.85-2.07,11.08,5.12-.97,2.07-10.96-5.12Zm237.69,1.71l11.08-5.12.97,2.07-10.96,5.12-1.1-2.07Zm-235.01-7.32l.97-1.95,10.84,5.49-.97,1.95-10.84-5.49Zm232.33,2.2l10.72-5.61,1.1,1.95-10.72,5.61-1.1-1.95Zm-229.41-7.81l1.1-1.95,10.59,5.98-1.22,1.95-10.47-5.98Zm226.61,2.68l10.47-6.1,1.22,1.83-10.35,6.1-1.34-1.83Zm-223.32-8.29l1.22-1.83,10.35,6.46-1.22,1.83-10.35-6.46Zm220.27,3.42l10.11-6.59,1.22,1.83-10.11,6.59-1.22-1.83Zm-216.74-8.66l1.34-1.83,9.86,6.95-1.22,1.83-9.98-6.95Zm213.33,3.78l9.86-7.07,1.34,1.83-9.86,7.07-1.34-1.83Zm-209.56-9.03l1.46-1.83,9.62,7.44-1.46,1.83-9.62-7.44Zm206.15,4.51l9.5-7.56,1.46,1.83-9.5,7.56-1.46-1.83Zm-202.25-9.51l1.46-1.71,9.25,7.93-1.46,1.71-9.25-7.93Zm198.48,5l9.13-7.93,1.58,1.71-9.13,7.93-1.58-1.71Zm-194.22-9.88l1.58-1.71,8.77,8.29-1.58,1.71-8.77-8.29Zm190.2,5.61l8.77-8.29,1.58,1.59-8.77,8.29-1.58-1.59Zm-185.81-10.12l1.58-1.59,8.52,8.66-1.58,1.59-8.52-8.66Zm181.8,6.1l8.28-8.78,1.58,1.59-8.28,8.78-1.58-1.59Zm-177.29-10.49l1.7-1.59,8.04,9.03-1.7,1.59-8.04-9.03Zm172.91,6.59l7.91-9.15,1.7,1.46-7.91,9.27-1.7-1.59Zm-168.04-10.73l1.83-1.46,7.67,9.39-1.83,1.46-7.67-9.39Zm163.53,6.95l7.67-9.39,1.7,1.46-7.55,9.39-1.83-1.46Zm-158.54-10.98l1.83-1.34,7.18,9.76-1.83,1.34-7.18-9.76Zm153.79,7.56l7.18-9.76,1.83,1.34-7.18,9.76-1.83-1.34Zm-148.55-11.22l1.83-1.22,6.7,10-1.95,1.22-6.58-10Zm143.81,7.93l6.7-10.12,1.83,1.22-6.58,10.12-1.95-1.22Zm-138.45-11.47l1.83-1.22,6.21,10.37-1.83,1.22-6.21-10.37Zm133.46,8.42l6.09-10.37,1.95,1.1-6.21,10.37-1.83-1.1Zm-127.98-11.59l1.95-1.1,5.72,10.73-1.95,1.1-5.72-10.73Zm122.86,8.9l5.6-10.73,1.95,1.1-5.6,10.73-1.95-1.1Zm-117.14-11.83l2.07-.98,5.24,10.98-2.07.98-5.24-10.98Zm111.9,9.27l5.24-10.98,2.07.98-5.11,10.98-2.19-.98Zm-106.3-12.08l2.07-.85,4.87,11.1-2.07.85-4.87-11.1Zm101.07,9.88l4.63-11.22,2.07.85-4.63,11.22-2.07-.85Zm-95.1-12.2l2.19-.85,4.26,11.34-2.07.85-4.38-11.34Zm89.62,10.12l4.02-11.34,2.19.73-4.02,11.34-2.19-.73Zm-83.53-12.2l2.19-.73,3.65,11.59-2.19.61-3.65-11.47Zm78.05,10.37l3.53-11.71,2.19.61-3.53,11.71-2.19-.61Zm-71.96-12.32l2.19-.49,3.17,11.71-2.19.49-3.17-11.71Zm66.24,10.86l3.04-11.71,2.19.49-2.92,11.71-2.31-.49Zm-60.03-12.32l2.19-.49,2.56,11.83-2.19.49-2.56-11.83Zm54.43,10.98l2.44-11.83,2.19.49-2.44,11.83-2.19-.49Zm-48.34-12.32l2.19-.37,2.07,11.95-2.19.37-2.07-11.95Zm42.62,11.47l1.83-11.95,2.19.24-1.83,11.95-2.19-.24Zm-36.16-12.44l2.19-.24,1.58,12.08-2.19.24-1.58-12.08Zm30.32,11.59l1.34-12.08,2.19.24-1.34,12.08-2.19-.24Zm-24.11-12.2l2.31-.12.85,12.08-2.19.12-.97-12.08Zm18.26,11.83l.85-12.08,2.19.12-.85,12.08-2.19-.12Zm-11.81-12.32l2.19-.12.24,12.08h-2.19l-.24-11.95Zm6.09,12.08l.12-12.2h2.31l-.12,12.2h-2.31Z"/>
  <path d="m357.36,143.27l-5.36,1.22c-.37.12-.49.37-.49.73.12.37.37.49.73.49l1.83-.37.49.49c.12.12.37.12.49.12s.37-.12.49-.12c.24-.24.24-.61.12-.85h0l2.07-.49c.37-.12.49-.37.49-.73-.12-.37-.37-.61-.85-.49"/>
  <path d="m425.55,222.43c-2.07-.24-4.87-7.2-4.63-13.78,0-1.71.12-3.54.49-5,1.58-6.34,5.97-21.71,5.97-39.89,0-3.9-.12-7.93-.61-12.08-1.46-12.08-3.04-20.98-5.6-27.45h0c1.22-1.83,2.44-3.9,2.44-5.98,0-3.9-3.29-10.12-9.98-10.12-.61,0-1.22.12-1.83.12l-4.26,1.22c-3.53-2.56-6.82-2.93-9.01-2.93h-1.34c-.73,0-1.22-.12-1.34-.12s-1.46-.61-3.29-.61c-.49,0-.85.12-1.46.12h-.12c-1.95-.37-3.9-.49-5.72-.49-1.95,0-3.77.12-5.6.37-.24-.49-1.46-2.2-4.02-4.27v-.85c-.12-2.2-2.19-5.61-2.19-5.61-5.24-8.9-13.39-12.08-14.37-12.56.24-1.1.49-3.05.49-4.03v-.49h-.24.24c0-.24.49-1.22.61-2.32v-.24c-.12-1.59-1.7-4.51-2.56-6.46-1.1-2.2-3.53-2.44-4.38-2.56-2.31-2.2-5.72-2.56-7.43-2.56h-1.1c-.12.12-4.38.98-5.36,1.83-.49.37-1.58,1.59-2.68,2.68-1.22-.73-2.56-1.1-3.77-1.1-2.92,0-5.11,1.59-5.48,1.83,0-.12-2.19.12-3.53.49-1.58.12-2.92.85-6.21,4.88-1.58,1.83-2.07,3.78-2.07,5.25s.49,2.56.61,2.93c-1.46.49-2.68,1.46-3.41,2.07-1.22,1.22-1.22,3.9-1.22,4.88h-.49c-2.68.12-4.99,1.59-4.99,1.71s-1.83.37-2.31,1.83c0,.12.12.37.12.37.12.49,1.22,1.59,2.92,1.59h.12c1.34.12,1.95-.37,2.19-.73q.12,0,.12-.12c.49.73,4.26,4.15,4.26,4.15.12.12,1.46.98,3.29.98.85,0,1.83-.12,2.68-.85,1.46-1.22,3.29-.85,4.02-2.44.61-.12,2.19-.49,3.17-.98.37-.12.85-.49,1.22-1.1h0c.12-.12,1.83-1.95,2.19-1.83v.12c1.34,3.29,1.7,6.22,1.7,8.54,0,4.64-1.7,7.2-1.7,7.2-.24.37-1.22,2.81-1.95,4.39-.37-.85-.97-1.22-1.34-1.46-.12-.73-.73-1.22-1.1-1.59v-.12c-.12-2.2-2.44-2.44-2.07-2.56-.49-1.46-2.44-2.2-2.44-2.2-.85-1.34-3.17-1.59-3.17-1.59h-.24c-1.1,0-3.17.85-3.9,1.1h-.85c-.49,0-1.22,0-1.83.37h-.73c-1.22,0-3.29.49-4.63,2.93,0,0-1.58,1.1-2.44,2.56,0,.12-2.44,7.2-2.8,9.88-.37,2.81-.12,1.95-.37,2.68-.12.61-3.65,3.78-3.65,6.34,0,.49.12.85.24,1.22-2.07,1.59-8.52,7.2-8.52,19.15,0,1.22.12,2.44.12,3.78-2.68-1.1-5.6-1.83-6.33-2.07-.49-.61-1.22-.85-1.58-.98-.49-.12-2.8-1.22-3.04-1.59-.85-.85-2.31-1.22-3.29-1.34h0c-.73-.49-2.44-3.9-3.17-6.71-.97-3.05-1.7-6.83-1.7-10.73h0s-.37-.12-.37-.12h.37c0-4.39-2.92-9.88-3.65-11.83-.12-.12-.12-.24-.12-.37l3.9-1.95c0,.37-.12.85-.12,1.22,0,.61.12,1.34.49,1.95,0,0,2.19,5.85,8.65,6.34.61,0,6.21.24,6.21.24h.12c1.34.73,2.92,1.59,4.87,1.59,1.1,0,2.19-.24,3.17-.98,0,0,1.7-.85,1.7-3.29,0-.12,0-.49-.12-.85.49-.37,1.22-1.1,1.34-2.32,0-.37-.12-.73-.37-1.22l-.49-.85,2.19-.37c.12-.12,1.7-.37,1.95-1.83,0,0,0-.12-.12-.37l-.49-.49s-2.92-.49-3.41-.49c-.24,0-3.53-.49-3.53-.49l-1.34.12-1.46-.37h0c-.49-1.59-3.29-3.54-4.26-4.27.49-.12.85-.49,1.1-.85.12-.85.12-2.44.12-3.17v-.37s0-.12-.12-.24c1.22-1.71,1.34-3.66,1.34-4.88l2.92,1.59c.12,0,2.19,1.22,3.53,1.22h.12c1.34-.12,1.7-1.22,1.58-1.59l.49-.49c.61-.24.85-.61,1.1-.98.37,0,1.1-.12,1.58-.37.24-.12.49-.49.73-.73.24.12.49.37.97.37.73,0,1.34-.73,1.46-1.59.49-2.07,2.31-6.59,2.68-7.68.12-.49.37-.85.49-.98.49.12.85.24,1.46.24h.37c2.07-.12,2.56-1.71,2.56-2.2,0-.12.49-1.59.49-2.93,0-1.59-.49-3.54-2.56-4.27-.49-.85-2.19-3.9-5.36-3.9h-.61c-.85-.61-4.38-2.93-8.28-2.93-.49,0-.97,0-1.46.12.12,0-2.07-.49-4.38-.49-2.56,0-5.72.37-6.33,2.93-1.46.24-5.97.98-6.45,3.54-.24,0-.61.12-.85.24-.73.37-2.07,1.46-2.19,3.05-2.44-1.1-4.75-1.22-5.97-1.22h-.73s-3.29-.37-6.94-.37c-1.83,0-3.9.12-5.36.49-4.26.98-9.5,1.95-11.81,3.29-2.31,1.46-4.38,5.61-5.97,6.34-1.7.98-4.63,2.2-5.6,5.61-.12.37-.12.85-.24,1.46-.73.12-5.36,1.83-9.74,9.76,0,0-2.92,3.54-3.9,4.39-.61.49-.73,1.34-.73,2.2,0,1.59.49,3.42,1.34,4.27.24.12.85.98,1.83,1.83-.37.49-.85,1.46-.85,2.68,0,1.34.37,3.05,1.7,5.25-1.34.98-4.38,4.03-5.48,12.93,0,0-.49,11.1-1.95,15.25-2.56,5.49-8.4,11.47-8.4,11.47-.12.12-.85.85-.85,2.2,0,.73.24,1.59,1.22,2.44l4.26,3.05q.12.12.37.12c0,.12.12.37.12.49.61,1.1,1.95,1.22,3.65,1.83,1.58.49,2.92.73,3.53.85.24.24.61.37,1.1.37,2.56.12,3.77,0,4.63,1.1.49.49,1.1,1.22,1.83,1.59.12.12.85.24,1.95.37-1.83,1.1-3.53,2.68-3.9,4.76-.12,1.1-.49,2.93-.49,4.88,0,2.81,1.1,5.85,5.36,5.85h.12l.49-.12s2.31-1.22,3.77-2.56c.12,1.1.61,3.9,1.95,5.61l.12.12c-.12.37-.24,1.59-.24,3.05,0,2.44.49,5.98,3.17,8.66-.37.37-1.1,1.22-1.22,2.56s-.12,3.78-1.1,5.98c-1.1,2.2-3.04,7.07-3.17,8.9,0,0,0,.12.12.37.12.73.85,2.2,1.58,3.54.37.73.85,1.46,1.1,1.83.12.24.24.49.37.61,0,.12.12.12.12.12.37.85.85,1.22,1.34,1.59.37.12,1.22.24,1.7.24v-.12l.12-.12v.24h.12c.12,0,.73.12.97.12.12,0,.24,0,.37-.12.37-.12,1.34,0,1.7-1.22v-.61h0c.61-.49,1.46-1.34,1.58-2.44.12-.24-.12-.73-.61-.85-.37-.12-1.34-.49-1.83-.61-.73-.24-.97-.24-.97-.49-.24-.49-.37-.73-.37-.85v-.12c.12-.37.85-.98,1.22-1.22.24-.24,5.6-3.9,6.45-3.9h.12c1.1.24,2.92.73,3.53,1.34.97.85,8.4,7.2,10.35,8.05,1.58.73,8.16,4.76,11.69,5.25,3.17.37,9.01,1.59,11.45,2.2,1.22.37,3.29.73,5.24.73s4.14-.37,5.6-1.95c2.19-2.56,3.41-2.81,3.65-4.88.12-.85.37-2.93.37-4.88,0-1.59-.12-3.17-.85-4.27-1.46-2.44-2.8-4.03-2.8-4.03l-.12-.12v-.12c.12-.49.12-1.1.12-1.59,0-2.56-1.46-4.39-1.58-4.88-.12-.37-.85-2.44-1.58-5-.49-1.46-.97-2.93-1.46-4.51.37-.37,1.83-1.59,3.41-3.17.49.49,10.35,11.1,14.37,11.95.12,0,.12.12.37.12,0,0,4.38-.12,8.52-1.59,3.17-1.1,5.36-3.05,7.55-2.93.61,0,1.34.12,2.19.49,0,.12.12.12.12.24.12.49.49.85.97,1.22l.49,8.17v.12c0,.49,0,1.95,1.22,2.44l-1.22,8.17-20.21,4.76c-.12,0-.24.12-.37.12,0,0-.12,0-.12.12-.12.12-.12.24-.12.49v5l.49.61,19.85,6.71h.37l36.41-10.73c.24-.12.49-.37.49-.61v-5.25c0-.24-.12-.49-.49-.61l-20.82-4.27-3.17.73-2.31-15.13.12-.12c.85-1.22,1.83-3.05,1.83-5.49,0-.61-.12-1.46-.24-2.2-.73-2.93-.97-4.64-.97-5.73,0-.85.12-1.46.37-2.07.12-.61,6.94-8.9,11.45-17.2,0,2.93-.12,7.68-.12,9.76v1.22c0,.37.12,1.1.12,1.83,0,1.59-.12,3.54-.85,4.27-1.22,1.71-2.44,4.27-2.44,5.98,0,0,0,.12.12.49,0,.37.12,1.1.12,1.71,0,.85-.12,1.59-.12,1.83-.12.61-1.46,4.39-1.46,4.39,0,.12-.12.37-.12.73-.12.98.37,3.29,2.92,3.54,1.22.12,2.8.24,4.14.24,1.83,0,3.53-.12,4.63-.61,1.46-.85,2.68-2.07,2.8-3.54,0-.12,0-.49-.12-.73-.61-1.22-1.83-1.95-2.44-2.93-.61-.73-1.34-2.2-1.34-3.17v-.24c0-.12.49-1.59.49-2.44v-.12h0v-.12c0-.12-.12-.73-.12-1.22,0-1.1.12-2.56.49-2.81.73-.98,5.6-8.54,5.6-8.54.12-.12,2.56-3.78,3.29-14.15v-.12c2.68-.12,4.63-.24,5.6-.24l-.12.49-2.44,5.25s-4.14,7.93-4.87,9.88c-.49,1.22-2.19,4.51-2.19,9.39,0,2.32.49,5.12,1.58,7.93l1.34,4.88c2.19,7.32,3.41,8.42,6.33,8.78h.12c-.24.98-.49,1.83-.73,2.2-.24.61-.85,1.71-1.22,2.93-.12.49-.24,1.22-.24,1.83,0,.12,0,.37.12.49.12,1.71.12,3.78,2.19,4.15.24.12.49.12.85.12,1.1,0,2.19-.12,2.68-.24.49.12,1.95.73,2.92.73.49.12.97.12,1.58.12.49,0,1.22-.12,1.7-.37.61-.49,2.07-.85,2.8-1.59.61-.49,2.56-1.83,2.56-3.54v-.12c-.12-1.83-3.04-5.61-3.04-5.73,0,.12,0,0,0-.12,2.68.49,10.59.85,18.87,1.22,2.68.12,2.92.12,5.36.12.37,0,.85.12,1.34.12,6.21,0,17.53-1.22,17.66-1.22.24,0,.49-.24.61-.49.97,0,.73-.37.49-.37m-30.08-114.54q.12,0,0,0c.49-.12.85-.12,1.34-.12h1.34c2.19,0,5.24.24,8.65,2.81l.61.12,4.38-1.34c.49-.12,1.1-.12,1.58-.12,5.84,0,8.77,5.49,8.77,8.9.12,3.54-5.24,8.66-5.24,8.66l-5.6,4.64c-1.34,2.56-6.58,5.37-8.65,6.71-12.66-3.54-16.07-8.66-16.07-13.78-.12-7.32,7.18-14.76,8.89-16.47m-3.17-.73c.85,0,1.58.12,1.95.24-2.31,2.32-9.01,9.39-9.01,16.83,0,5.61,3.9,11.22,15.83,14.76-1.46.73-2.92,1.1-4.26,1.1-.85,0-1.58-.12-2.44-.24-8.28-1.71-16.44-12.2-16.44-12.2-.12-1.22-.24-2.2-.61-3.17.12-.12.12-.24.12-.49,0-.12,4.26-13.05,11.69-16.1,1.1-.61,2.19-.73,3.17-.73m-7.31-.37c1.1,0,2.19.12,3.29.12-6.94,3.17-10.72,12.81-11.69,15.98-1.83-2.56-4.63-3.17-6.45-3.17-.97,0-1.58.12-1.7.12h-.12c-.61-.12-1.34-.12-1.58-.12s-3.29-1.22-4.38-1.34c-.12,0-.85-.24-1.7-.49-1.1-.49-2.31-.98-2.56-1.22-.49-.24-.85-.24-1.22-.24h-.49c.73-.85,2.44-2.44,4.63-3.42.73-.24,12.05-6.22,23.99-6.22m-16.44,30.25c-.37-.12-.61.12-.73.49h0s-.49,3.29-1.34,5.85c-.37.85-.49,1.34-.49,1.34-.37.61-.85,1.34-1.22,1.83-2.44,3.29-4.38,3.9-5.6,3.9-.49,0-.97-.12-1.22-.12l.73-.49c.24-.12.37-.49.12-.85-.12-.37-.61-.49-.85-.24l-1.22.85-.12.12c-.61-.24-1.34-.49-1.34-.49l-.73.12-1.22,1.22h-.12c-.85.12-2.07-2.56-2.44-3.54-.61-1.22-1.7-1.59-2.31-1.71-.12,0-1.46-.24-1.58-.24,0-.12-3.17-2.56-3.41-2.93-1.46-1.71-1.83-4.27-1.83-4.27-.12-1.22-.24-2.32-.24-3.17v-.85c.24-5.61,2.8-7.93,2.8-7.93l2.19-1.95s1.7-1.59,1.95-1.83c.12-.12,2.31-.98,3.29-1.59.12-.12,1.1-.37,1.95-.24h1.46c.73,0,3.9.73,3.9.85.24.12,2.92,1.71,2.92,1.71,0,0,.12.49.12.85,0,.24,0,.49-.12.85-.37.85-2.44,4.64-3.17,5.61-.49.37-.61.85-.61,1.34,0,1.1.85,1.71.97,1.83,0,0,.12.12.12.37,0,.12-.12.37-.12.49s-.85.73-1.22,1.59c-.12.49-.12.85-.12,1.46,0,.73.12,1.59.37,2.32.24.49.85.73,1.22.73.97,0,2.44-.85,2.68-.85q.12,0,.37-.12c.85-.12,2.44-.49,3.04-1.59h0c.37-.12,1.22,0,1.95-.49.73-.61,1.58-2.2,1.83-2.44.49-.49.85-1.46,1.1-1.59.37-.37.61-.85.61-1.46,0-.24-.12-.49-.12-.73q.12-.12.37-.24c.49-.49.49-.85.49-1.34s-.12-.85-.12-1.22c-.24-.73-1.58-2.44-1.58-2.68,0-.12.37-.85.61-1.46l-.37-.24h.37c-.24-1.1-1.1-1.22-1.58-1.59.12-.12.12-.49.24-.85l.12-.24v-.24h.49c2.31.12,6.33.61,6.58,6.95v1.95s-1.7,5.61-5.6,6.95c-.49.12-1.83.98-2.07,1.22l-.12.12c0-.24.12-.49.12-.49.49-.24.24-.49-.12-.61m-6.45,14.03c-1.22,1.83-2.56,3.78-3.17,4.51-.61.85-2.07,1.46-3.17,1.95-.97.37-1.83.61-1.83.61l-12.42,1.46-.85.12c-.37-1.34-1.46-4.88-1.83-7.07,0-.12-.12-.37-.12-.61-.12-2.32,2.8-6.1,3.17-6.34.73-.49,1.22-1.59,1.34-2.2,1.22.98,3.29,2.68,3.29,2.68.37.12,1.58.49,2.07.49,0,0,.85.24,1.22.98.49.61,1.1,4.15,3.53,4.27.12,0,.37-.12.49-.12l.37-.12,1.22-1.1c.61.12,1.83.85,2.07.85.12.12.85.49,1.83.49.73-.12,1.7-.24,2.8-.85m-22.16-21.35v-.12c0-.24-.12-.49-.12-.61v-.12c1.22-.85.97-2.44,1.7-3.42.24-.49.61-.85,1.22-.98,2.92-.85,2.19-3.42,3.29-3.29,1.7-.49,3.53-1.83,3.9-1.83h0v.12-.12l.12.12c.97-.12,3.17-.98,3.65-1.1.24-.12,1.1-.12,1.83-.24.49-.12.97-.12,1.34-.12h.49c.49.24,1.58.85,2.8,1.22.85.37,1.58.49,2.07.61.49,0,3.53,1.22,4.38,1.46.24,0,.85,0,1.22.12.12,0,.24.12.37.12h0c-.12.12-.37.49-.37,1.22-.12.24.12.73.49.85.12.12.49.12.85.49.12.12.24.12.37.24h0s-.49.61-.61,1.46c0,0,0,.12.12.37.12.73,1.34,2.32,1.58,2.81.12.12.12.49.12.85,0,.24-.12.37-.12.37-.24.24-.73.37-.85,1.22,0,.12.12.49.24.61v.12l-.12.49c-.49.49-.85,1.22-1.22,1.59-.37.49-1.46,2.07-1.7,2.2,0,.24-1.58-.12-2.31,1.22l-.12.12c-.37.24-1.46.61-1.7.61h-.37c-.85.12-2.07.85-2.56.85v.12c-.12-.49-.24-1.22-.24-1.83,0-.49.12-.98.12-1.1.12-.37.85-.85,1.22-1.59.12-.24.12-.61.12-.98,0-.49-.12-.85-.37-1.22-.24-.24-.73-.85-.61-1.1q0-.12.12-.49c1.22-1.22,3.17-4.88,3.53-6.1.12-.37.12-.85.12-1.22,0-.85-.12-1.34-.49-1.83-.49-.49-2.92-1.71-3.53-2.07-.61-.24-3.53-.85-4.63-.85h-1.7c-.85,0-1.83,0-2.56.49s-2.68,1.22-3.29,1.59c-.49.37-2.19,1.83-2.19,1.83l-2.19,1.95c-.12.12-2.68,2.56-3.17,7.93-.12-.12-.12-.37-.12-.49v-.12c.12-.37.12-.61.12-.61,0-.73-.12-1.34-.24-1.83m32.15-33.91s1.95,3.54,1.95,4.88c-1.46-.98-2.92-1.83-4.75-2.56-.37-.12-.73,0-.85.37s0,.73.37.85c1.95.85,3.9,1.83,5.24,2.93,2.19,1.59,3.29,2.93,3.9,3.66-8.28,1.34-15.22,4.64-17.17,5.61-5.84-4.27-6.45-8.29-6.45-10.12,0-.49.12-.85.12-.85.24-.37.49-.61.85-.98.49-.73.61-1.71.61-2.56,0-.98-.12-1.95-.12-2.2h0c0-.12.24-.85.85-1.34,1.1-1.1.85-3.17.97-3.66-.12,0,.49-.49,1.1-.98.12-.37.24-.61.24-1.1,0-1.1-.49-2.68-.49-3.17v-.12c0-.37.12-.49.12-.85.97.73,8.65,3.9,13.52,12.2m-35.19-25.86c.12,0,.12-.12.24-.12v-.12c1.1-1.22,2.31-2.44,2.68-2.81.24-.24,4.63-1.46,4.87-1.46.12,0,.37-.12.85-.12,1.58,0,4.87.24,6.58,2.2l.37.12c.12,0,3.04.24,3.53,1.83.85,1.95,2.56,5.25,2.56,5.98v.12c-.12.61-.61,1.46-.73,2.44v.37c0,.85-.24,3.42-.49,3.9-.12.12-.12.24-.12.37-.12.49-.49,1.22-.49,1.83,0,0,0,.12.12.49.12.61.49,2.2.49,2.93,0,.12-.12.12-.12.12-.24.49-1.1.73-1.22,1.83.12.49-.12,2.68-.49,2.68-.85.61-1.22,1.59-1.22,2.2v.12c0,.49.12,1.22.12,2.32,0,.73-.12,1.46-.37,1.71-.12.24-.49.49-.61.61-.24,0-.85,0-1.22.49l-.73.49-.24.37s-.12.73-.37,1.46c-.12.12-.12.49-.12.73-.37-.49-.73-1.1-.97-1.46l1.22-4.51.61-5.98v-.24l4.63-7.32c.12-.37.12-.49.12-.49-.12-1.1-.37-3.17-1.22-4.15-.49-.37-2.19-2.44-2.07-2.56-.12-.73-.61-2.93-.61-2.93-.12-.24-.12-.49-.37-.49-.12-.12-.49,0-.61.12,0,0-3.41,2.93-4.02,3.17,0,0-.37.12-.73.12-.97,0-2.31-.24-2.92-.24h-.12c-.85.12-2.44.37-3.04,1.59-.37.61-1.7,3.17-1.95,3.54-.49.85-.85,3.17-.85,4.64,0,.49-.12.85-.49,1.22-.24.49-.49.85-.85,1.34-.12.24-.12.49-.12.85,0,.85.24,1.46.49,2.44v.98c0,1.22-.12,2.56-.24,3.05,0,0-.12,0-.12.12-.12.12-.49.12-.61.12h-.12c-.24,0-.49.12-.85.12.12-.37.12-.73.12-.85v-.12c-.12-.98-1.22-3.29-1.46-4.15-.24-.73-1.1-6.95-1.1-8.42v-.12c0-1.22,1.46-5.12,1.58-5.98.12-.49,1.22-3.66,1.83-4.88,0-.37.37-.98.97-1.59m11.93,16.59s.37.12.85.49l-.12.37c-.12.37.12.73.49.85.37.12.73-.12.85-.49v-.24c.49.12.97.24,1.58.37l-1.83,2.81c0,.12-.12.12-.12.12-3.17,2.44-7.06,2.56-7.79,2.56h-.12c-2.07-.49-3.77-5.85-3.77-5.85,0,0,0-.12-.12-.12.12-.37.37-.85.37-1.34,0-.98.49-3.66.61-3.78.37-.61,1.7-2.93,2.19-3.78,0-.37,1.34-.85,1.83-.85s1.83.24,2.92.24c.49,0,.85,0,1.34-.12.61-.37,2.31-1.83,3.41-2.56.12.61.37,1.59.37,1.83.24,1.22,1.83,2.68,2.44,3.42.12,0,.85,2.56.85,3.05v.12l-1.95,3.17h-.12c-1.83-.12-3.53-1.22-3.53-1.22-.24-.12-.73-.12-.85.24-.24,0-.12.49.24.73m-26.91,9.27c.12.73-1.46.61-3.53,1.95-.61.49-1.34.49-1.95.49-.73,0-1.22-.12-1.83-.37-.49-.12-.73-.37-.73-.37h0s-3.9-3.78-4.02-3.9c-.24-.37-.61-.49-.97-.49-.49,0-.85.12-1.1.49l-.12.12v-.12c-.12.12-.49.12-.97.12h-.12c-.85,0-1.34-.37-1.58-.73l1.46-.73c.12-.12,2.44-1.46,4.63-1.59.37,0,.73-.12,1.1-.12.61-.12,1.1-.12,1.58-.12.85,0,1.46.12,2.44.73l2.19,1.34.12.12c.37.61.73,1.22.73,1.22.12.37.49.49.85.24.24-.24.49-.61.12-.85,0,0-.49-.85-.97-1.59-.24-.49-.49-.85-.49-.85-.12-.12-.12-.24-.12-.24q0-.12.12-.37h.37l.12.12c.12,0,.61.73,1.58,1.46.85.85.24-.49,1.1,2.56.12.49.12.73.12.98l-.12.49h0Zm4.63-2.2c-.24.37-.61.61-.85.85-.49.24-1.58.49-2.44.73,0-.24-.12-.49-.12-.85-.49-2.68-.85-2.93-1.58-3.29-.85-.49-1.22-1.22-1.46-1.46-.24-.12-.61-.37-1.34-.37-.37,0-.85.12-1.1.61-.24.37-.37.73-.37,1.1v.12l-.73-.49c-1.1-.73-2.19-.85-3.17-.85-.37,0-.61,0-.97.12.12-1.1.37-3.54.85-3.78.73-.61,2.19-1.71,3.41-1.83.12,0,.37-.12.49-.12.24,0,.49.12.85.12,1.83.85,7.31,3.29,8.4,6.1.37.85.49,1.59.49,2.2,0,.24-.12.73-.37,1.1m4.26,15.37c.12-.12,1.83-2.93,1.83-7.93,0-2.2-.37-4.88-1.46-7.93v-.12l-1.83-7.44c-.12-.37-.37-.49-.85-.49-.37.12-.49.49-.49.85l1.34,5.25c-.49.12-.85.37-1.34.61,0-.73-.12-1.46-.61-2.32-1.58-3.54-7.18-5.98-9.01-6.83-.49-.12-.85-.24-1.22-.24h-.12q0-.12-.12-.12h0s-.49-.98-.49-2.44c0-1.22.37-2.81,1.83-4.39,3.29-3.9,4.26-4.27,5.36-4.39,1.46-.12,3.9-.49,3.9-.49.24-.12,2.44-1.59,4.99-1.59.97,0,1.83.12,2.92.73-.37.49-.73.85-.85,1.22-.85,1.46-1.83,4.39-1.95,5.25-.12.61-1.58,4.64-1.7,6.22h0c0,1.59.85,7.81,1.22,8.9.24.85,1.46,3.54,1.34,3.78v.12c-.12.37-.37,2.2-.37,2.2-.12.24.12.49.24.61s.49.12.73.12c0,0,.24-.12.73-.49.12-.12.37-.12.49-.24.12-.12.12,0,.12,0h.24c.37-.12,1.58.12,1.95-1.22.12-.61.37-2.07.37-3.29,0-.37,0-.85-.12-1.22-.12-1.1-.37-1.83-.37-2.2,0-.12,0-.24.12-.49,0-.12.12-.12.12-.24.49,1.59,1.95,5,4.63,5.85h.24c.73,0,4.26-.12,7.67-2.2l-.49,4.76-1.34,4.64.12.49c.12.12.97,2.07,2.07,2.56h.37q.12,0,.37-.12c.85-.49.61-1.1.97-1.83.12-.49.24-1.1.37-1.22l.49-.37h0v.49c0,2.2.85,6.46,6.45,10.73-2.92,1.59-4.63,3.9-4.75,3.9s-.12.24-.12.49c-.49.12-1.1.12-1.22.12-.85.12-3.04,1.1-3.53,1.1h-.12c-1.22.12-2.56,1.46-4.26,1.83-2.44,1.1-1.34,3.17-3.17,3.29-.97.24-1.7.85-2.19,1.59-.73,1.46-.97,2.93-1.22,2.93-.49.12-.73.73-.73,1.1l-7.31-3.54c0-.12-.12-.49-.12-.61,0,0,0-.24.12-.37.12-.37.12-.61.12-.85,0-.85-.37-1.46-.61-1.83.12-.12.12-.24.12-.49v-.12c-.12-1.1-1.1-1.59-1.58-1.95v-.24c0-.37-.12-.73-.12-1.22-.24-.49-.61-2.2-.61-2.2,0-.12-.12-.37-.12-.73.24-.49,2.56-5.49,2.56-5.73m-13.39-4.39c.12,0,2.19.37,2.56,1.22.24.24,2.07,1.22,1.95,1.59.85,1.59,2.19,1.1,2.07,2.2v.24l.37.61s.85.73.85,1.22l.49.49s.85.24,1.22,1.59c0,.12.37,1.59.37,1.59,0,.12.37,1.83.85,2.68,0,.12.12.24.12.49v.49c0,.12,0,.49.49.73,0,0,.37.24.73.61.12.12.24.24.37.37-.12,0-.12.12-.12.12-.24.24-.24.61,0,.98,0,0,.73.85.73,1.59,0,.12,0,.24-.12.37-.12.24-.12.49-.12.85,0,.85.12,1.34.12,1.83,0,.37-.12.61-.61,1.1-.12.12-1.22,1.22-2.07,1.59-.49.12-1.1.24-1.46.24-.12,0-.12-.12-.12-.12-.12-.12-.24-.49-.49-.85-.49-.85-1.58-.98-1.7-3.9v-.24c.85-.49,1.83-.85,2.56-1.59.49-.49.49-.85.49-1.34,0-1.1-.49-2.56-.61-2.93v-.12c-.12-.85-.49-4.27-.49-4.64,0-.12-.12-.12-.12-.12.12-.12.12-.37.12-.37l-.12-.73s-.85-.49-1.83-1.22c0-.12.12-.12.12-.12-.12-.49-.37-1.59-1.34-2.32-.85-.85-2.07-1.59-2.31-1.71-.12-.12-1.7-1.46-1.7-1.46-1.1-.37-1.83-.49-2.56-.49.37-.24,1.1-.49,1.34-.49m4.38,48.18c.12,0,2.8,1.71,2.92,2.56.12.49.24,1.1.24,1.71,0,1.1-.24,1.83-1.46,2.2.12,0-.61.12-1.46.12-.49.12-.97.12-1.34.12-.12-.49-.49-.98-1.22-1.22-.24-.12-.61-.12-.97-.12-.49,0-1.1.12-1.58.49-.49.37-3.04,1.83-3.53,2.07-.61.24-1.83.12-2.44,1.22-.12.12-.37.85-2.8,2.2l-8.52,1.83c-1.7-2.93-6.21-9.39-6.58-9.88v-.12c-.12-.24-.49-.49-.85-.73v-.12s-.24-1.22-.24-2.44c0-1.1.24-1.83.61-1.95.12-.12.24-.12.49-.37.24-.24.85-.85,1.22-1.22.49-.61,1.95-2.2,2.19-1.95,1.22-.12,1.95-.98,2.56-1.71.49-.61,1.95-2.32,3.77-2.32.12,0,.37,0,.49.12,2.56.37,8.65.85,8.89,1.1.97.61,4.02,2.93,5.24,3.17.24,0,.73,0,1.22.12.85.12,1.83.49,2.19,1.71.24.24.73.73.73,1.34,0,.24-.12.61-.49,1.22-.12.12-.12.37-.12.49.73.12.85.37.85.37m-7.06,16.83c-.12.24-.49.61-.49.61-.12,0-.49.12-.49.12q-.12-.12-.24-.24l-.85-.73c-.24-.24-.73-.12-.85.12-.12.24-.12.73.12.85l.85.61-.12.12c-1.1.37-1.1.98-1.83,1.1-.37.12-.61.12-1.1.12-1.83,0-4.26-1.22-4.87-1.83-.85-1.1-1.83-2.93-1.83-2.93-.12-.37-.49-.49-.85-.24-.24.12-.49.49-.24.85l.24.49q-.12,0-.24.12l-.73.49c-.12-.73-.24-1.46-.49-2.2l8.28-1.83c2.56-1.34,3.29-2.32,3.53-2.93h0c.24-.12,1.1-.37,1.58-.49.85-.37,3.04-1.71,3.9-2.2.37-.12.49-.37.85-.37.12,0,.37,0,.61.12.12,0,.24.61.37.85-.49,2.07-1.83,2.93-1.83,2.93l-.37.61s-.12,3.29-.12,4.64c0,.12-.12.24-.73.24-.37,0-.73-.12-.85-.12-.12-.12-.49-.12-.73-.24-.12-.12-.37-.12-.49-.24h0c-.12-.24-.24-.49-.61-.49,0,0-.61.12-.61.61h0c.12.98.73,1.22,1.22,1.46m-1.1-44.4c-.12-.61-.37-1.22-.49-1.71,1.58.49,4.75,1.1,9.38,1.22,0,3.05,1.83,4.27,1.83,4.39h0c-1.34,3.9-5.36,4.88-8.52,4.88-1.46,0-2.56-.12-3.17-.24.85-1.83,1.22-4.15,1.22-4.27.12-.49.12-1.1.12-1.59-.12-.85-.24-1.59-.37-2.68m8.28-14.88c-.37-.12-.85-.49-1.1-.49-.37-.12-.37-.24-.37-.24,0-.12.12-.12.12-.37.24.12.49.37.73.49.37.12.49.37.61.61m-6.7-4.03c.73,0,1.46.12,2.44.37-.12.12,1.22,1.22,1.58,1.46.12.12.24.12.49.24-.12.24-.49.61-.49,1.22s.49,1.22,1.22,1.46c1.1.49,3.04,1.83,3.9,2.32-.12.37-.61.85-1.7,1.46-.24.12-.49.49-.12.85.12.12.24.37.49.37q.12,0,.24-.12c.49-.24.97-.61,1.34-.85.12.49.12.85.12,1.34q-.12,0-.24.12c-.97.61-2.92,1.22-2.92,1.22-.37.12-.49.49-.49.85.12.37.49.49.85.49h-.12c.12,0,1.83-.37,3.17-1.22.12.49.12.73.12.73v.24c.12.61.61,1.95.61,2.93,0,.37-.12.37-.12.37-.73.49-1.83,1.22-2.92,1.59-6.21,0-9.62-1.22-10.23-1.46-.49-1.22-.61-2.44-.61-3.17v-.37c0-1.34-.73-2.93-1.34-3.78-.73-.85-1.34-1.59-1.34-2.81v-.49c.12-1.59,1.83-4.27,2.19-4.27.73-.49,1.83-1.1,3.9-1.1m-14,16.83c.24-.73.12-.37.49-2.93.24-2.32,2.68-9.51,2.68-9.51.49-1.1,2.19-2.2,2.19-2.2,1.22-2.2,2.68-2.56,3.53-2.56.37,0,.61.12.61.12h.37c.12-.12.24-.12.49-.12-.37.12-.49.24-.73.37-1.34.61-2.56,3.17-2.92,5.25v.61c0,1.71,1.1,2.81,1.58,3.54.49.73,1.22,2.2,1.1,3.05v.12c-.12,0,0,.12,0,.12,0,1.34.37,3.17,1.22,5,.12.49.37,1.1.49,1.71.24.85.24,1.59.24,2.2,0,.49,0,.85-.12,1.34.12,0-1.22,5.25-2.07,5.37-.12.12-.85.12-1.7.12-1.34,0-3.04-.12-4.51-.49-.73-.12-1.34-.37-1.83-.49-.37-.12-.49-.24-.49-.24-.49-1.46-1.58-1.83-4.02-3.54-.37-.24-.37-.49-.49-.85.12-1.71,3.29-4.76,3.9-5.98m-3.53,8.05c2.31,1.59,2.92,1.83,3.17,2.81.97,1.71,4.99,1.95,7.91,2.07.97,0,1.7-.12,2.19-.24.37-.12.73-.49.97-.98h0s1.7.37,3.9.37h.12c.85,0,1.58-.12,2.44-.12l.12,11.34h-.61c-.12.12-3.9-2.32-4.51-2.93-1.34-.85-6.82-.85-9.38-1.34-.24-.12-.49-.12-.73-.12-2.68,0-4.26,2.2-4.75,2.81-.49.49-1.34,1.22-1.83,1.22-1.34.12-2.44,1.83-3.04,2.44-.37.37-.97.98-1.22,1.22-.12.12-.24.12-.24.12-1.22.49-1.22,1.95-1.22,3.17,0,.49.12,1.1.12,1.59-.49-.24-.85-.49-1.34-.73-.12-1.59-.24-2.93-.24-4.27-.12-12.2,6.45-17.32,8.16-18.42m-15.59,21.22c1.7.49,6.94,2.07,9.38,3.66l.12.12c.37.24.61.49.85.73h0c.73.85,6.45,9.27,6.94,10.49-3.9-3.9-10.72-6.59-10.72-6.59-.37-.12-.73.12-.85.37-.12.37,0,.73.37.85h0s10.47,4.27,12.05,9.03c.12.85.37,1.34.37,1.34,0,.12.61,2.32.61,2.56-.12,2.44-1.46,9.64-6.58,11.1.85-1.71,1.46-3.66,1.46-5.98,0-3.17-1.22-6.59-4.51-10.73-.12-.24-.61-.37-.85-.12-.24.12-.37.61-.12.85,3.17,3.9,4.14,7.2,4.14,10,0,2.44-.85,4.51-1.83,6.34-1.34,2.2-4.87,5-9.86,5.73h-.37c-1.83,0-3.04-.49-3.9-1.1-.85-.49-1.22-.98-1.22-.98q-.12-.12-.24-.12c.85-1.71,1.7-3.78,1.95-5.12,1.22-.12,4.51-.85,4.87-3.29.12-.49.12-.98.12-1.71,0-2.44-1.58-5.37-11.2-9.03,1.1-.85,3.53-2.44,7.67-2.44,0,0,2.68-.12,4.75-.12.37,0,.61-.24.61-.61s-.24-.61-.61-.61c-2.19,0-4.75.12-4.75.12-6.21,0-9.01,3.17-9.25,3.54-.49.37-4.14,2.93-5.97,6.95-.85,1.95-1.83,4.27-2.56,6.71-2.92-1.83-9.13-8.29-11.93-11.22-.85-.98-1.46-1.59-1.46-1.59-.24-.24-.61-.24-.85-.12-.24.24-.24.61-.12.85,0,0,.37.37.85.98-.85.37-2.19,1.22-3.65,2.07-.37-.12-1.22-.73-2.19-1.46-.49-.49-.61-.73-.61-1.83,0-.49.12-1.22.12-1.95,0-.49,0-.98-.12-1.59v-.12c-.24-2.56,5.48-4.15,6.94-4.27,1.7-.12,8.04-1.83,8.04-1.83l2.92-1.22s0,.12.12.12h.12c.12-.12.24-.12.37-.24l2.56-1.1c0,.12.12.12.12.12.49.49,1.22,1.46,1.95,1.95.61.49,1.34.49,1.95.49.37,0,.73-.12.97-.12,1.1-.12,2.19-1.1,2.31-1.1.97-.61.61-1.83.85-2.32,0-.49.37-2.32.49-2.68s.49-1.59.61-1.83c.24-.24,1.22-.61,1.7-.85.37-.24.85-.49.85-.49h.12c.12,0,.37.12.49.12l.49.24c.12.12.85.24,1.83.24.61,0,1.58-.12,2.44-.37.12-.37.61-.49.85-.85m-8.77,53.06c.49.12,3.17,1.71,3.17,1.83.24.12,1.83,1.83,1.83,1.83.37.73.85,1.1.97,1.22.61.24,1.83,1.22,1.83,1.22,0,.12,2.68,3.29,2.92,3.66q.12.12.12.37h-.12l-3.53-2.2-2.92-1.1c-.24-.12-.61,0-.85.24-.12.24-.12.61.12.85.97.85,2.31,3.29,2.31,3.29,0,0,.85,2.07,1.34,3.17.12.12.12.37.12.37q0,.12-.37.37c-.12,0-.61-.49-.61-.49l-1.46-2.56-3.04-4.03-.12-.12c-.24-.12-.61-.12-.97.12-.12.12-.12.49-.12.61l.49,1.83.73,1.71.73,2.56s.49,1.83.73,2.32h0s-.12,0-.12.12c-.24-.12-.61-.12-.61-.12l-2.68-5.98h0v-.12h0v-.12h-.12c-.12-.12-.24-.12-.37-.12-.37,0-.61.12-.61.49h0s-.12.61-.12,1.46c0,0-.12.37-.61.49-.49.37-.97.49-1.1.49-.37.12-1.1.12-1.58.85v-.12c0-.24.12-.49.12-.49l.12-.12c.37-.12.97-.49,1.34-.85.12-.24.12-.49.12-.73,0-.73-.37-1.59-.49-1.95-.49-.85-2.19-1.83-2.31-1.95-.24-.24-2.31-1.95-2.31-1.95-1.34-.98-2.19-4.64-2.56-8.78v-.37c-.24-2.68-.24-5.61-.37-8.29v-1.1c0-3.05.49-5.85,1.1-8.29.73-2.81,1.7-5.12,2.68-7.32,1.58-3.17,4.63-5.61,5.48-6.34,10.11,3.78,11.08,6.34,11.08,8.05,0,.49-.12,1.1-.12,1.59.12,1.34-4.26,2.2-4.26,2.2-.37.12-.49.37-.61.61,0,.98-1.46,4.03-2.31,5.85-.49.85-.73,1.59-.73,1.59l-1.83,3.9c0,.12-2.68,6.22-2.92,7.68-.12.12,0,.12,0,.12.24,2.44,2.8,2.2,3.41,2.56m-41.52-45.62h.49c0-2.56-1.83-12.2-1.83-18.66,0-6.1,3.53-10,3.9-10.37,1.58.12,3.17.12,4.63.12,7.06,0,13.03-.85,14.73-.98.61,2.32,1.46,4.03,2.19,5.25l-.12.12h0s-.12.98-.12,2.68c0,2.07.12,5.25.97,9.15,1.22,5.61,2.68,10.73,3.17,12.44l-2.56,1.1c.12,0-6.33,1.59-7.91,1.71-1.58.24-7.91,1.22-8.04,5.61v3.66c0,1.1.12,2.2,1.1,2.93.73.49,1.34.98,1.83,1.22-.85.49-1.58,1.22-2.07,1.83-1.46,1.71-2.68,3.54-3.17,5.25-1.1-.73-3.9-2.56-4.87-2.81-.24,0-1.46-.12-2.68-.37v-.12c-.85-2.2-1.1-4.15-1.1-5.98,0-2.32.49-4.27.73-5.49.73-3.42,1.22-6.83,1.34-8.29h-.61Zm31.17-1.46l-1.83.85c-.49-1.83-1.95-6.83-3.17-12.2-.85-3.78-.97-6.95-.97-9.03v-.98c.24.37.49.73.49.85.73,1.34,4.26,6.22,4.38,6.34,0,0,2.31,6.34,2.19,6.34.12,0-1.22,2.07-1.7,4.27-.12.37-.12.61-.12.98.12.98.37,1.95.73,2.56m26.91-44.03c.12.24.37.61.49.85-.37.12-1.34.49-1.83.49h-.12l-.73-.37c-.24-.12-.73,0-.85.37-.12.24,0,.73.24.85l.73.37c.24.12.49.12.85.12,1.1,0,2.19-.49,2.68-.85.24-.24.49-.49.49-.85s-.12-.73-.37-.98l.37-.12s2.92.49,3.53.49c.12,0,1.46.12,2.31.37h-.24c-.24.12-.61.24-.61.24l-2.92.49c-.12.12-.37.12-.49.37-.12.12-.12.37,0,.61l.97,1.59c.12.12.12.37.12.49.12.61-1.1,1.46-1.1,1.46l-.24.61c.12.37.12.73.12.98,0,1.83-1.1,2.2-1.1,2.2-.85.61-1.7.85-2.56.85-1.58,0-3.29-.85-4.63-1.71-.49-.24-.97-.49-1.46-.85-1.1-.49-1.22-1.1-1.22-2.2v-1.71h0v-.37c0-1.71.73-3.17,1.22-3.78.12-.24,1.95-1.1,2.56-1.34l1.83.49,1.95.85Zm-2.8-2.07l-.97-.24h-.24c-.12.12-2.56.85-3.29,1.83-.61.85-1.46,2.44-1.46,4.64v.12c-.12,0,0,.12,0,.12v1.83c-.12.98.12,2.2,1.22,2.93-1.58-.12-3.53-.12-3.77-.12-5.6-.37-7.55-5.61-7.55-5.61-.12-.37-.24-.85-.24-1.46,0-.85.12-1.71.24-1.83l3.29-1.71c-.12.12,5.84-1.95,9.01-3.42l.12-.12q.12.12.12.24c.24-.24,2.56,1.59,3.53,2.81m-2.56-8.9c-.24.37-.61.73-1.1.85l-3.29,2.2c-.24.24-.37.49-.12.85.12.24.61.37.85.12l3.29-2.2c.12-.12.24-.12.49-.37,0,.73-.12,1.59-.12,1.95-.24.12-.85.49-1.7.85-3.17,1.46-9.01,3.54-9.01,3.54l-4.02,1.95-4.38,2.2c2.44-2.56,3.41-7.07,4.14-9.03.61-1.83,1.58-1.95,3.17-2.81.97-.49,2.19-1.71,3.41-3.29.12.12.37.12.49.12h0l9.25-2.44v.61c.12,1.34-.12,3.42-1.34,4.88m18.75-15.25c-.37.98-2.19,5.49-2.8,7.68l-.12.61s-.12-.12-.37-.12c-.12-.12-.24-.12-.24-.12-.12-.12-.49-.24-.73-.12h0c-.12,0-.12.12-.12.12h0s-.73.73-.85.85c0,.12-.61.12-.97.12l-1.1-1.22c-.12-.24-.61-.24-.85,0-.37.12-.37.61-.12.85l.85.98q-.12.12-.24.24v.12c-.73.24-1.22.73-1.46,1.59-.12.49.12.24-.37.49h0c-.61,0-2.92-1.22-2.92-1.22l-3.77-1.95-.49-.24-.49-.12-9.01,2.32c.61-1.1,1.22-2.32,1.58-3.54.37-1.1.49-2.32.49-3.54,0-.73-.12-1.34-.12-1.95.12.24.37.49.37.49.24.85.97.85,1.46.85.73,0,1.46-.12,2.07-.12.37,0,.49,0,.61.12.49.24.97.24,1.58.24,1.58,0,3.77-.49,3.77-.49,2.19-.12,3.77-1.71,4.38-2.07.73-.49,2.07-1.59,2.31-1.71h.49c.61,0,1.22-.24,1.95-.98.61-.61.85-1.59.85-2.2l1.7,1.22c1.83,1.22,2.44,1.22,3.17,1.59-.12.49-.37.85-.49,1.22m-29.1-9.03s.12-.12.49-.12c.24-.12.49-.12.49-.12.37-.12.49-.37.49-.73v-.37c0-.37,1.22-1.22,2.8-1.71s3.17-.73,3.17-.73c.37,0,.49-.24.49-.61,0-1.59,2.44-2.2,5.11-2.2,2.19,0,4.26.37,4.26.37.61-.12,1.1-.12,1.58-.12,1.95,0,3.9.73,5.36,1.46s2.44,1.46,2.44,1.46l.49.12c.24,0,.49-.12.61-.12,2.68-.12,4.26,3.54,4.26,3.54l.49.37c1.46.49,1.83,1.71,1.83,3.17,0,1.22-.37,2.44-.49,2.81-.12.49.24.61-1.46,1.1h-.24c-.37,0-.85-.12-1.46-.37-1.7-.73-1.7-.37-3.77-1.71l-2.56-1.95c-.12-.12-.49-.12-.73-.12-.12.12-.37.37-.37.61v.49c.12.61-.12,1.71-.49,2.07-.73.61-.85.61-1.1.61h-.24c-1.22.12-2.31,1.46-3.04,1.83-.97.61-2.07,1.83-3.9,1.83-.12,0-2.19.49-3.53.49-.49,0-.97-.12-1.1-.12-.49-.24-.85-.24-1.22-.24-.73,0-1.58.12-2.07.12h-.37c-.24-.73-.97-1.71-2.19-2.44-.12-.12-.12-.49-.24-.61-.73-1.59-1.83-2.93-3.53-4.27-.49-.49-1.22-.85-1.83-1.22v-.12h0c-.12-.12-.12-.37-.12-.37.12-.73,1.22-1.83,1.7-2.07m-8.65,2.2c.12,0,.12-.12.24-.12,1.22.12,3.53.37,5.97,1.59.73.37,1.34.73,2.07,1.22,1.46,1.1,2.44,2.44,3.04,3.78.73,1.46.97,2.93.97,4.39,0,.98-.12,2.07-.49,3.05-.49,1.59-1.22,2.93-1.95,4.15-1.22,1.71-2.56,3.05-3.17,3.29-1.22.61-3.04,1.1-3.9,3.54-.73,2.2-1.83,6.95-3.9,8.78.12-.12-.49.24-.37.98,0,.12,0,.49.12.85.12.24.12.73.37,1.22.85,2.07,3.53,7.44,3.53,11.34.12,0,0,.12.12.24-.12-.12-.12.12-.12.12,0,4.27.85,8.05,1.7,11.34,1.22,3.29,2.56,7.07,4.26,7.68.61,0,2.19.49,2.44.98.85.85,2.92,1.59,3.53,1.95.12,0,.61.24.85.49q-.12.12-.37.12c-.73.24-1.46.37-1.95.37-.85,0-1.46-.12-1.46-.12.12.12-.73-.49-1.58-.49h-.24c-.61.12-.97.61-1.22.73-.12.12-1.22.37-1.95,1.1l-.12.12h0v.24l-.12.12c-.12.61-.49,1.46-.61,1.83-.12.49-.49,2.2-.49,2.93s-.12,1.34-.12,1.34c-.12.12-1.46.85-1.7.85h-.85c-.49,0-.97-.12-1.22-.24-.49-.49-1.22-1.46-1.95-1.95-.12-.12-.12-.24-.37-.37-.37-.49-.85-1.34-.85-2.44,0-.24,0-.49.12-.73.37-2.07,1.58-3.42,1.7-4.51v-.12c-.12-.98-2.44-6.95-2.44-6.95-.12-.12-3.77-5.25-4.26-6.22-.49-1.1-2.56-3.17-3.9-8.42-.49-1.83-.85-3.9-1.1-6.46,0-.12-.37-1.22-.37-3.29v-.85c0-.61.12-1.22.12-1.95.49-4.03.37-9.39.49-10.37,0-.12.12-.61.12-1.22.24-1.83.85-5.25,1.7-7.68,1.1-2.93,5.6-10.49,5.6-10.49.12-.37.12-.73-.12-.85q-.12-.12-.24-.12c-.24,0-.49.12-.49.37,0,0-4.51,7.44-5.72,10.73-.85,2.2-1.34,5.25-1.58,7.32h-.12c-.37.12-.73.12-1.22.12-2.31,0-5.24-2.81-7.79-6.1-.85-1.22-1.22-2.2-1.22-3.17,0-2.32,1.83-4.88,4.87-8.17,3.04-4.39,15.1-5.73,17.66-5.85m-36.41,24.76c0-.85.49-5.25.97-8.54.12-.85.24-1.46.37-1.95.73-2.81,3.04-3.78,4.99-4.88,2.07-1.22,4.14-5.25,5.97-6.34,1.83-1.22,7.31-2.2,11.45-3.17,1.34-.24,3.17-.49,5.11-.49h1.22c-4.51.85-9.98,2.32-12.66,5.25-3.04,3.29-5.24,5.98-5.24,9.03,0,1.34.49,2.68,1.58,4.03,2.68,3.29,5.6,6.59,8.77,6.59.37,0,.73,0,1.1-.12,0,.24,0,.49-.12.61-.12,1.1.12,6.22-.49,10.25,0,.49-.12.98-.12,1.46h-.12s-.12.12-.37.24h0l-5.84-1.95c-.97-.24-6.45-2.56-7.91-2.68-.85,0-3.9-1.22-4.99-1.95-1.1-.49-3.65-4.51-3.65-5.37,0,.12,0,0,0,0m-12.42,10.37c-.37-.12-.97-2.07-.85-3.29,0-.73.12-1.22.24-1.22,1.22-1.1,4.14-4.64,4.14-4.64,3.53-6.46,7.06-8.42,8.4-9.03-.49,3.05-.85,6.59-.85,7.68v.24c.12,1.59,2.68,5.25,4.26,6.46,1.46.85,4.26,2.07,5.72,2.2.85,0,6.58,2.32,7.67,2.56l4.87,1.59c-1.46,1.1-3.77,2.68-6.21,4.27-.97.61-1.83.85-2.56.85-2.56.12-4.75-2.2-6.33-3.42-.85-.49-1.83-.85-2.92-.85-2.44,0-5.36.85-7.91,1.22h-.61c-1.7,0-3.29-1.1-4.51-2.2l-.12-.12-.12-.12c-1.22-.85-1.83-1.71-2.31-2.2m1.34,5.61c0-.85.12-1.46.49-1.83,1.22,1.22,3.04,2.2,5.11,2.2.24,0,.49,0,.85-.12,2.8-.49,5.72-1.22,7.79-1.22.97,0,1.7.12,2.19.49,1.58,1.1,3.9,3.54,7.18,3.66.97,0,2.19-.37,3.29-1.1,2.92-1.95,5.72-3.9,7.06-4.88l.12-.12c0,2.2.37,3.42.49,3.42.12,2.2.49,4.15.85,5.85-1.83.24-7.67.98-14.37.98-1.58,0-3.29,0-5.11-.12-2.56-.12-5.36-.49-7.91-.98-1.46-.24-2.8-.61-4.14-1.1,0,0-.12,0-.12-.12-.61-.12-1.22-.37-1.83-.61-1.58-1.83-1.95-3.29-1.95-4.39m-9.86,51.23h0l-4.26-3.05c-.49-.49-.73-.98-.73-1.34,0-.61.49-1.22.49-1.22,0,0,5.97-5.98,8.65-11.95,1.58-4.64,1.95-15.61,2.07-15.61.61-5.37,2.07-8.54,3.29-10.25.85-1.22,1.58-1.71,1.83-1.83.37.12.73.24.97.37-1.34,1.59-4.63,5.98-4.87,13.05l-1.58,18.78v.12c0,.12-.12,1.1-1.1,3.66,0,0-1.58,3.42-2.44,5.25-.61,1.46-.73,1.59-.85,1.71-.12.85-1.22,2.07-1.46,2.32m6.33,2.81c-.73-.12-1.7-.37-2.68-.61-.85-.12-1.58-.49-2.19-.73-.24-.12-.49-.24-.61-.24h-.12c0-.12-.12-.12-.12-.12.49-.49,1.46-1.59,1.83-2.32.12-.24.24-.49.85-1.83.97-1.95,2.44-5.37,2.44-5.37.97-2.56,1.22-3.66,1.22-4.27v-.12l1.46-18.66c.12-7.68,4.38-12.2,4.87-12.81.85.24,1.83.49,2.68.61-1.7,1.59-5.24,5.85-5.24,13.54v.24c0,3.9.37,8.54.37,12.93,0,5.98-.49,11.71-2.56,15.49-.37.49-.61.85-.85,1.46.37,0-.97,1.34-1.34,2.81m8.52,3.17c-.24-.12-.85-.61-1.22-1.22-1.58-1.59-3.17-1.46-5.6-1.59-.37-.12-.24,0-.37-.12-.12-.49,1.22-2.32,1.22-2.32.49-.49.73-1.1.97-1.59,2.31-4.15,2.8-10,2.8-16.1,0-4.51-.24-9.03-.37-12.93v-.24c0-9.51,5.6-13.17,5.6-13.17h.12c2.19.37,4.26.61,6.58.85-1.22,1.59-3.53,5.25-3.53,10.37,0,6.59,1.83,16.35,1.83,18.66,0,0,0,.12.12.37-.12.98-.61,4.51-1.34,7.81-.24,1.22-.73,3.17-.73,5.61,0,1.83.24,3.9,1.1,5.98-.61-.12-1.22-.12-1.83-.12h-.12c-.12,0-.24,0-.49.12h0c-.49.12-.97.12-1.58.12-1.83-.12-3.17-.49-3.17-.49m6.45,13.17l-.37.37c-.97.85-2.92,2.07-3.53,2.32h0c-3.53-.12-4.02-1.83-4.14-4.51,0-1.71.49-3.54.49-4.76.12-1.95,4.26-4.64,5.6-4.88.12-.12.37-.12.49-.12h.12c.85,0,1.83.12,2.92.24,1.22.12,2.44.37,2.8.37,0-.12,1.22.61,2.44,1.46.97.61,1.95,1.22,2.19,1.46v.37c0,1.46.73,2.56,1.46,3.54-1.34-.12-2.56-.12-3.04-.12h-.12c-1.58.12-5.97,2.81-7.31,4.27m1.58.73c0-.12-.12-.24-.12-.37,1.22-1.1,5.24-3.42,5.97-3.42h0c.97.12,2.92,0,4.75.12,1.22.12,2.44.49,2.44.49.85.85,1.22,4.39,2.07,5.37.49.49,4.51,3.66,4.51,3.66.24.12.73.12.85-.12.24-.24.12-.73-.12-.85,0,0-4.02-3.29-4.51-3.66-.12.12-.85-3.9-1.83-5.25-.61-.73-1.7-.85-2.92-1.1h0c-.73-.49-2.19-2.07-2.19-3.54v-.12c0-.12.12-.49.12-.73.37-1.59,1.58-3.66,3.17-5.49.49-.61,1.58-1.46,2.56-2.2,1.7-1.1,3.53-2.07,4.26-2.44,3.04,3.17,9.13,9.39,12.18,11.34h0c-.49,2.44-.97,5-.97,7.93v1.1c.12,2.56.12,5.49.37,8.17-2.07,1.83-5.11,2.2-8.65,2.2-2.44,0-5.11-.24-7.67-.37-5.6-.37-10.35-3.42-12.18-5.25l-.49-.49c-1.1-.98-1.58-5-1.58-5m61.13,30.37c.49.61,1.34,1.83,2.19,3.42.49.85.73,2.2.73,3.66,0,1.83-.24,3.78-.49,4.76,0,1.22-.85,1.34-3.29,4.15-.97,1.1-2.68,1.59-4.51,1.59s-3.77-.49-4.87-.85c-2.56-.73-8.28-1.83-11.69-2.32-3.04-.24-9.62-4.27-11.32-5-1.46-.61-9.25-7.07-9.98-7.93-1.22-.98-3.29-1.46-4.26-1.59h-.24c-1.7.12-6.58,3.9-7.31,4.27-.49.24-1.34.85-1.7,1.83-.12.12-.12.49-.12.61,0,.61.24.98.49,1.46.49.98,1.58.98,1.7,1.22.37.12.97.24,1.58.49-.12.12-.12.24-.37.49-.12.12-.24.37-.49.49l-.12.12c-.85.61-.61,1.22-.61,1.59-.12.12-.49.12-.61.12.12,0,0,0-.12,0-.24,0-.73-.12-1.1-.12h-.24c-.24,0-1.22-.12-1.34-.12h0c-.12-.12-.24-.24-.49-.49l-.12-.12c-.37-.85-2.92-5.37-3.04-6.34l-.12-.12h.12c0-1.1,1.95-6.22,2.92-8.29,1.22-2.56,1.22-5.12,1.22-6.34,0-.73.49-1.34.85-1.71,4.99,4.27,9.5,9.39,15.59,12.2,6.09,2.93,19.24,8.17,20.82,8.66.24.12.85.37,1.58.61,2.56,1.1,7.43,3.17,7.91,3.78.24.24.61.24.85,0s.24-.61,0-.85c-.61-.61-2.92-1.71-4.99-2.56h.49c10.72.12,11.81-5.37,13.76-9.64.49-.49.73-.85.73-1.1m-3.65-12.56c.85,2.56,1.58,4.64,1.58,5,.37.85,1.46,2.2,1.46,4.39,0,.37-.12.85-.12,1.22-.12.12-.12.37-.12.49-.12.49-.37.98-.61,1.59-2.31,4.64-2.44,8.78-12.66,9.03h-1.34l-2.8-.24h-.12c-.49-.12-1.1-.49-1.34-.49-1.34-.49-14.61-5.73-20.58-8.66-5.84-2.81-10.35-7.68-15.46-12.2l-.24-.24c-2.56-2.44-3.17-5.85-3.17-8.17,0-.85.12-1.46.12-1.95,2.31,1.95,6.82,4.51,12.18,4.88,2.56.12,5.24.49,7.79.49,3.17,0,6.33-.49,8.65-2.07.37,3.78.97,7.07,2.92,8.66,0,0,2.07,1.71,2.19,1.83.12.12.73.49,1.22.85.24.12.49.37.61.49l.12.12c.12.24.49,1.22.49,1.59-.12.12-1.1.49-1.46,1.1-.12.12-.24.61-.24,1.1-.12.49.12,1.1.73,1.46,0,0,.12.12.49.12s.73-.12.97-.49c.12-.37.61-.49.85-.49.49-.12,1.83-.49,2.56-1.59l2.19,4.51c.37.24.85.61,1.58.61.24,0,.49-.12.61-.12.24-.24.85-.61.85-1.22,0-.12,0-.37-.12-.49-.12-.37-.61-2.2-.61-2.2l-.61-2.2.49.61,1.58,2.56c.12.12.61.98,1.58,1.1.12,0,.24,0,.37-.12.37-.12,1.22-.49,1.22-1.59,0-.24-.12-.49-.12-.85-.49-1.1-1.34-3.17-1.34-3.17,0,0-.49-.85-1.1-1.83l.49.12,3.65,2.32.37.12c.12-.12.73,0,1.22-.61.12-.24.24-.49.24-.73,0-.49-.37-.98-.49-1.22-.24-.24-3.04-3.78-3.04-3.78-.12-.12-1.22-.98-2.07-1.34,0,0-.49-.49-.37-.49-.37-.85-1.83-1.83-2.19-2.32-.49-.37-2.68-1.83-3.9-2.07-.85-.12-2.31-.61-2.31-.98v-.12h0c.37-1.59,2.8-7.44,2.8-7.44l1.83-3.9s.12-.49.49-1.1c.49.49,2.44,2.32,5.97,2.32.24.49,2.8,5.85,2.92,7.44.24,1.46,1.83,6.34,3.17,10.37m-.73-6.22c-.49-1.95-1.1-3.54-1.22-4.27-.24-1.83-2.19-5.98-2.92-7.32,4.63-.85,8.04-3.54,9.62-5.85h0c2.31-.37,4.02-1.59,5.24-3.05-.24,1.83-.73,4.15-1.95,7.32,0,0-.97,2.68-2.19,5-.12,2.2-4.87,6.71-6.58,8.17m4.75-2.81c1.58-1.59,2.92-3.54,3.29-4.88.49-.85.73-1.59,1.1-2.32.12,3.9.49,9.64.61,12.2-2.68-2.56-4.87-4.88-4.99-5m31.66,3.9c-.12.61-.12,1.46-.12,2.2,0,.49,0,.85.12,1.34-.49-.12-1.1-.24-1.58-.24-2.92.12-5.11,2.2-7.91,3.17-2.8.85-5.72,1.22-7.18,1.34,1.1-2.81,3.9-10.98,4.75-17.69,0,0,.49-4.15.85-9.88,0-.24-.24-.61-.49-.61-.37,0-.73.24-.73.61h0c-.49,5.61-.85,9.76-.85,9.76-.73,6.95-3.9,15.61-4.87,17.81-1.58-.49-4.26-2.93-6.94-5.25v-.12h0s-.73-10.25-.73-14.88c0-.85.12-1.59.12-1.83v-.12c1.58-4.64,1.83-7.44,2.44-9.76v-.12c1.22-2.56,1.58-5.25,1.58-6.59h0c0-.73-.61-2.81-.61-2.81,0,0-.12-.49-.24-1.22l1.1-.98h.12c.37.49.61,1.1,1.1,1.59,1.1,1.22,3.53,2.32,5.84,2.32.49,0,.97-.12,1.34-.12,1.22-.37,1.58-1.22,1.7-1.1.85-.24,1.58-.98,1.83-.85.85-.24,1.46-1.1,1.7-1.59.12,0,.37.12.49.12.61,0,1.83-.12,1.95-1.59.12-1.1.12-3.42.12-4.27.49-.37,1.58-1.46,2.07-3.17,1.1-.12,2.92-.24,2.92-.24,1.95-.49,2.56-2.2,2.56-3.54,0-.85-.12-1.59-.37-2.07-.49-1.34-2.19-2.44-3.04-2.93.12-.49.37-.85.37-1.22-.12-1.34-.97-1.95-.97-2.07-.37-1.22-1.58-1.83-2.56-2.2l-.24-11.83c2.19-.49,4.26-1.83,5.6-4.39l.24.12h.49c.49,0,1.22-.12,1.95-.37,1.34-.49,2.44-1.71,2.44-1.71.61-.49.97-1.1,1.1-1.71l7.31,3.54c.12.49.12.85.12,1.22v.24c-.12.12-.12.49-.12.49.12,1.46,1.1,2.07,1.1,2.07q.12.12.24.12v.37c0,1.1.12,2.2.24,3.54,0,0,.24,2.2,1.7,4.27q0,.12-.12.12s-.73,1.95-1.1,2.2c-.85.73-3.53,4.15-3.65,7.32,0,.24,0,.49.12.85.61,2.93,2.07,7.68,2.07,7.68.12.37.37.49.73.49l.49-.12c-.37.98-1.1,2.81-1.34,2.93-.37.37-2.56,1.83-4.38,6.95-.37-.12-.97-.37-1.7-.37-.97,0-2.19.37-3.41,1.59-1.58,1.59-2.19,1.95-2.19,1.95,0,.12-.12.12-.12.12h0l-.12.12c-.61-1.46-.85-2.81-.85-3.9-.12-6.34,7.06-9.15,7.06-9.15.24-.12.49-.49.37-.85s-.49-.49-.85-.37c0,0-2.19.85-4.26,2.81-.12-1.59-.24-4.15-.37-6.22.12-.37,1.22-3.66,2.68-7.2,1.46-3.66,3.53-7.68,4.51-7.81.37-.12.49-.49.37-.85s-.49-.49-.85-.37c-2.07.98-4.38,6.22-5.97,10.37.49-2.93,1.46-7.07,2.31-10.86.12-.37-.12-.61-.49-.73s-.61.12-.73.49c-1.46,6.34-2.92,13.42-3.04,15.13-.12.37-.12.85-.12,1.22,0,2.93.37,7.68.49,8.05-1.34,1.59-2.44,3.54-2.44,6.34,0,1.46.24,3.05,1.1,4.88,0,.12.12.12.12.24-.97,1.34-.97,1.46-1.22,1.95-.12.73-1.1,4.27-1.1,5.12h0c0,.12,0,.61-.12.85-.12.12-.12.37-.12.49h0c-.12.12-.97.61-1.34.85-.37-.61-1.22-1.83-2.19-2.2-.12-.12-.49-.12-.85-.12s-1.22.12-1.22.98c0,.12,0,.24.12.37-.37.12-.97.12-1.1,1.22,0,.61.37.98.97,1.46l1.83,1.71c.12,0,1.83,1.59,3.17,1.83.24.12.73.12,1.1.12.73,0,1.58-.12,2.19-.49-.12.24-.12.49-.12.49-.49.85-1.1,2.56-1.1,3.54,0,.12,0,.49.12.73,0-.12.12,1.34,1.58,1.59.49,0,.97-.37,1.34-.85l.24-.37c-.49,1.83-1.1,3.17-1.46,3.9-1.1,2.07-2.92,4.15-3.04,6.59m6.7-25.49c-.37-.12-.73.12-.85.49s-.85,1.34-.97,3.05c0,.85-.85.85-.97.85-.24-.12-.37-.37-.49-1.22,0-.61.12-1.34.12-1.71.12-.37-.12-.61-.49-.73s-.61.12-.73.49c0,.24-.12,1.1-.12,1.83,0,.61.12,1.59.73,2.07,0,.24-.12.98-.24,1.83q-.12.12-.24.24c-.49.85-1.58,1.1-2.31,1.1-.37,0-.61,0-.85-.12-.85-.12-2.56-1.59-2.56-1.59l-1.95-1.71c-.12-.12-.24-.24-.37-.37.24-.12.85-.12,1.1-1.1v-.24c.12,0,.24,0,.37.12.12-.12,1.7,1.83,1.83,1.95.37.37.37.24.49.37.97-.12,1.95-.98,2.31-1.22.61-.73.49-1.59.61-2.32h0c0-.37.85-4.27.97-4.64.24-.61,0-.12,1.83-2.68.12-.12.49-.49,2.31-2.2.97-.98,1.83-1.22,2.56-1.22.49,0,.97.12,1.22.37-.85,2.56-1.58,5.98-2.19,10.61,0,0-1.1,3.66-2.19,7.56-.12,0-.12.12-.12.12l-1.22,2.07-1.22,1.59c-.24.37-.37.37-.37.37-.12.12-.12,0-.24-.37-.12-.12-.12-.49-.24-.49l-.12-.12h.12c-.12-.49.61-2.44.85-2.93.37-.61.49-1.59.73-2.68.12-.85.24-1.59.24-2.07.49-.12,1.83-.49,1.95-2.07.12-1.34.61-1.83.97-2.68.37-.12.12-.49-.24-.61m-5.6,67.21l-18.26-6.22v-3.78l18.26,5.98v4.03Zm36.65-10.25l-35.43,10.37v-4.27l35.43-10v3.9Zm-22.89-1.34c.37-.12.49-.37.49-.73l-.85-5.49,3.04-.73,18.14,3.78-33.97,9.64-17.29-5.61,17.53-4.15-1.1,5.61c-.12.37.12.61.49.73s.61-.12.85-.37l2.44-6.59,7.67-1.83,1.83,5.25c.12.37.49.49.73.49m-9.62-5.37l3.65-9.39,2.92,7.81-6.58,1.59Zm7.91-1.83h0l-3.53-9.51c-.12-.24-.37-.37-.61-.37s-.49.12-.61.37l-4.63,11.71h-.12l1.22-8.29v-.12c.24-.49.73-1.59.97-2.56.37-1.59,1.46-5.37,2.56-7.07.61-.98,1.7-1.34,2.31-1.59l.12,1.59,2.31,15.86Zm10.47-48.67c-4.63,8.42-11.08,16.1-11.57,17.44-.12.73-.49,1.59-.49,2.44,0,1.22.24,3.05.97,5.98.12.61.12,1.34.12,1.83,0,1.34-.37,2.56-.85,3.54l-.12-.85c0-.37-.37-.49-.73-.49-.12,0-2.44.12-3.9,2.32-1.22,1.95-2.31,5.85-2.68,7.56-.12.85-.49,1.59-.85,2.2-.24-.24-.37-.73-.37-1.1h0l.12-.12-.49-8.54-.24-.49c-.49-.24-.73-.61-.85-.98,0-.12-.12-.12-.12-.12,0,0,0-.24-.12-.37-.12-.61-.24-1.34-.24-2.07s.12-1.46.12-2.2c-.12-1.59,1.58-3.9,2.92-6.71.61-1.34,1.7-4.76,2.68-8.17,1.22-3.9,2.31-7.93,2.31-7.93.61-4.88,1.46-8.42,2.31-11.1,1.83-5.49,3.77-6.59,4.26-7.07.97-.85,1.83-4.03,1.83-4.03l12.05-1.71s.73-.12,1.58-.49l-3.65,7.93-.12.37v.85c0,2.68-1.1,6.1-2.68,9.51-.37.85-.85,1.71-1.22,2.56m12.54,9.76s-4.87,7.56-5.6,8.54c-.61.98-.61,2.44-.73,3.54,0,.49,0,1.1.12,1.22,0,.49-.49,2.07-.49,2.07-.12.24-.12.49-.12.73,0,1.46.85,2.93,1.58,3.9.85,1.1,1.95,1.83,2.19,2.56v.12c.12.49-.85,1.83-2.07,2.32-.73.37-2.31.49-4.14.49-1.34,0-2.8-.12-3.9-.24-1.83-.24-1.83-1.59-1.83-2.32v-.37c0,.12,1.22-3.78,1.46-4.27.12-.49.12-1.34.12-2.2,0-.73,0-1.46-.12-1.95l-.12-.12c0-.98,1.22-3.78,2.19-5.12.85-1.34.97-3.42.97-5,0-.85-.12-1.71-.12-1.95-.12-.12-.12-.49-.12-1.1,0-2.93.12-10.37.12-11.95,5.24-1.22,9.74-1.83,13.27-2.2-.37,9.88-2.68,13.17-2.68,13.3m4.51,23.79l-1.34-5c-1.1-2.93-1.46-5.37-1.46-7.68,0-4.51,1.58-7.68,2.07-8.9.61-1.71,4.87-9.64,4.87-9.64l2.56-5.37.37-1.59c.12-.37.12-.73.24-1.34.73-2.93,1.58-7.81,1.7-9.64v-.49c0-2.2-.85-5.98-1.58-7.81-.37-.85-.49-1.59-.49-2.32,0-.61.12-1.22.12-1.83.12-1.22,1.7-7.07,2.07-8.78l7.91-.37c.12,0,2.68-.24,4.51-1.46.24-.12.37-.61.12-.85-.12-.24-.61-.37-.85-.12-1.46.85-3.9,1.22-3.9,1.22l-11.69.61c-.37,0-.61.37-.61.73s.24.61.61.61h0l2.56-.12c-.37,1.83-1.83,7.32-1.95,8.54-.12.61-.12,1.22-.12,2.07s.12,1.83.49,2.81c.61,1.59,1.46,5.49,1.46,7.32v.12c-.12,1.83-.97,6.95-1.58,9.64-.12.37-.12.73-.24.98-.85,0-3.17,0-6.58.37h-.12c-3.41.24-7.91.85-13.15,2.07,1.46-3.17,2.44-6.34,2.44-9.03,0-.24-.12-.49-.12-.85l3.9-8.54v-.12c.12-.12.12-.24.12-.37.97-.49,1.95-.98,2.56-1.83,1.58-1.83,5.97-9.03,5.97-9.15l.12-.12c.37-.61.85-1.22,1.22-1.95,0,0,.12-.12.12-.37h.12c.12-.37.24-.73.37-1.1.49-1.22,1.46-3.17,2.19-4.88.12.12,1.46-.73,1.7-.73,4.87-1.83,6.33-7.93,6.45-8.05v-.49c2.44,2.93,8.4,9.27,15.22,11.22-5.97,7.32-10.59,15.13-14,22.57-.12-2.44-.24-4.51-.24-5.85,0-1.22.12-1.83.12-1.83,0-.37-.24-.61-.61-.73-.37,0-.61.24-.73.61,0,0-.12.73-.12,1.83,0,1.83.12,4.64.49,7.93l.12.12c-8.4,19.52-9.5,36.47-9.5,36.59s0,.12.12.12c0,.12-.12.37-.12.49,0,1.83,1.46,3.54,5.36,4.64h.12c.12,0,.12-.12.12-.12-.24,1.46-.61,2.81-.97,3.54-1.58,3.54-2.56,6.34-2.56,8.05h0c0,.49-.12,1.46-.37,2.32q-.12-.12-.24-.12c-2.44-.12-2.92-.24-5.36-7.56m4.99-10.98s1.83-2.81,2.19-2.93c.85-.61,2.19-1.71,3.9-3.05-.24,1.95-.85,6.46-1.46,10-.12,0-.12-.12-.12-.12-3.77-1.22-4.63-2.56-4.63-3.54.12,0,.12-.12.12-.37m14.12,26.59h0c0,.85-1.58,2.44-2.07,2.68-.49.37-1.83.85-2.68,1.46-.12.12-.49.12-1.1.12-.49,0-.97-.12-1.46-.12-.73,0-2.68-.73-2.68-.73h-.37s-1.46.24-2.56.24c-.12,0-.49,0-.61-.12-.73.12-.97-1.1-1.1-3.05v-.37c0-.49.12-.98.12-1.46.37-1.1.85-2.07,1.22-2.68.49-1.22,1.46-4.64,1.46-6.34h-.49.49c0-1.22,1.1-4.03,2.56-7.56,1.58-3.9,2.8-15.86,2.8-15.86v-.24c6.21-5,15.1-12.44,17.41-15.61.24-.49.61-.85,1.1-1.22v.37c0,14.15-13.76,33.42-15.1,36.11-.49.98-.61,1.95-.61,3.17,0,1.71.37,3.54.61,4.64.12.85.37,1.22.37,1.22-.12.61,2.56,4.51,2.68,5.37m23.74-5.73h-1.22c-2.44-.12-2.68,0-5.24-.12-1.22-.12-2.56-.12-3.9-.12,0,0-.12,0-.12-.12-4.14-.85-9.62-7.07-9.74-7.07-.12-.24-.61-.24-.85-.12-.24.24-.24.61,0,.85.12.12,3.53,3.9,7.18,6.1-1.95-.12-3.77-.12-5.36-.24-1.83-.12-3.29-.24-4.38-.37-.49-.12-.97-.12-1.22-.12-.12,0-.24,0-.37-.12-.12,0-.12-.12-.24-.12-.12-1.1-.49-2.44-.49-3.66,0-.98.12-1.95.49-2.56.85-1.59,6.94-10.49,11.32-20.49,2.31,2.56,4.63,5.12,6.7,7.44,0,.12-.12.24-.12.24.24,13.42,6.33,18.54,9.98,20.61-1.22,0-1.83,0-2.44,0m5.11-.12h-.12s-10.59-1.83-11.45-19.15c3.65,3.9,6.45,6.83,6.45,6.83.12.12.24.12.49.12s.37-.12.49-.12c.24-.24.24-.61,0-.85,0,0-7.67-7.93-14.49-15.86q-.12-.12-.24-.12c2.07-5,3.53-10.25,3.53-15v-1.34c2.19-1.34,4.87-1.59,6.45-1.59.85,0,1.46.12,1.46.12.37,0,.73-.24.73-.49.12-.37-.12-.61-.49-.73,0,0-.61-.12-1.58-.12-1.83,0-4.87.24-7.67,2.07-.85.49-1.58,1.22-2.19,2.2-2.19,2.93-11.45,10.73-17.66,15.86-2.07,1.59-3.77,2.93-4.75,3.78-.12.12-.37.37-.49.61,0,.12-.24.24-.49.49.97-8.54,5.6-36.23,24.35-58.67.73.12,1.46.12,2.19.12h.85l-4.63,18.42c-.12.37.12.73.49.85.37.12.61-.12.73-.49l4.87-19.03c1.34-.24,2.56-.85,3.9-1.71,1.7-1.22,7.67-4.03,9.38-7.2l5.36-4.39s1.22-.98,2.31-2.56c2.44,6.22,3.9,14.76,5.24,26.47.49,4.15.61,8.05.61,11.95,0,14.27-2.68,26.71-4.63,34.52-.24-7.68-1.58-20.61-1.58-29.52,0-2.93.12-5.25.37-6.95.49-3.05.73-6.1.73-8.66,0-5.25-.73-9.03-.73-9.03-.12-.37-.37-.61-.73-.49-.37.12-.61.49-.49.85,0,0,.73,3.66.73,8.66,0,2.56-.12,5.49-.73,8.54-.37,1.83-.49,4.27-.49,7.2,0,10.37,1.58,25.98,1.58,32.45,0,.85,0,1.59-.12,2.07v.12c-.37,1.71-.49,3.54-.49,5.37.12,5.61,1.58,11.34,4.02,13.78-2.8,0-7.18.37-11.08.61"/>
  <path d="m313.4,113.38c.12,0,.37-.12.49-.24,0,0,.49-.73,1.22-1.22v.12l.24.37c.12.24.61.37.85.12.24-.12.37-.61.12-.85l-.24-.37c-.12,0-.12-.12-.12-.12,0-.12.12-.12.12,0h.12c.24.12.61.12.85-.12.12-.24.12-.61-.12-.85s-.49-.37-.85-.37c-1.83.12-3.29,2.56-3.41,2.56-.12.24-.12.73.12.85.37.12.49.12.61.12"/>
  <path d="m313.89,164.74c-.24.12-.24.61-.12.85.12.12.37.12.49.12s.24-.12.49-.12l.49-.49c.49.12.85.24.97.37.37.12.61-.12.73-.49.12-.37-.12-.73-.49-.85,0,0-2.19-.73-2.31-1.22-.12-.24-.61-.37-.85-.12-.37.12-.49.49-.12.85s.49.61.85.85h-.12v.24Z"/>
  <path d="m296.6,88.87c-.12.37-.12.73.12.85l1.1.61-.24.49c-.24.24-.12.73.12.85.37.12.73.12.85-.12l.24-.49,1.22.85q.12.12.37.12c.12,0,.49-.12.49-.24.12-.24.12-.61-.12-.85l-3.29-2.2c-.24-.24-.73-.12-.85.12"/>
  <path d="m345.18,88.74c-.37,0-.61-.12-.73-.12,0-.12-.12-.12-.12-.12-.24-.24-.61-.24-.85,0,0,.12-.12,0-.24.49.12.73.61,1.1,1.83,1.1h0c.37,0,.61-.24.61-.61.12-.37-.12-.61-.49-.73"/>
  <path d="m342.14,84.23c-.12.37.12.73.49.73h.12c.37,0,.61-.12.73-.49v-.24c.49.12.97.12,1.58.12.37,0,.61-.24.61-.61s-.24-.61-.61-.61c-1.83,0-3.53-1.22-3.53-1.22-.37-.12-.73-.12-.85.12-.12.24-.12.73.12.85,0,0,.49.37,1.46.73l-.12.61Z"/>
  <path d="m344.7,90.94c-.97-.12-1.58-.61-1.58-.61-.24-.24-.61-.12-.85.12-.24.24-.12.61.12.85.12,0,.97.85,2.44.85.37,0,.61-.24.61-.61,0-.24-.37-.61-.73-.61"/>
  <path d="m400.34,120.95c.12,0,.37-.12.49-.24l5.11-5.12c.24-.12.24-.61,0-.85-.12-.24-.61-.24-.85,0l-5.11,5.25c-.24.24-.24.61,0,.85.12,0,.12.12.37.12"/>
</svg>