<svg xmlns="http://www.w3.org/2000/svg" id="Livello_1" width="197.65mm" height="88.49mm" viewBox="0 0 560.26 250.84"><defs><style>.cls-1,.cls-2,.cls-3{stroke-width:0px;}.cls-1,.cls-3{fill:#98002e;}.cls-2{fill:#fff;}.cls-2,.cls-3{fill-rule:evenodd;}</style></defs><path class="cls-3" d="m79.97,38.08c-36.79,0-66.71,35.91-66.71,80.05s29.91,80.05,66.71,80.05,66.72-35.91,66.72-80.05-29.93-80.05-66.72-80.05"/><path class="cls-1" d="m240.1,113.77c0,11.88-10.94,18.86-22.62,18.86-4.38,0-13.42-1.42-18.55-4.91l1.34-2.72c3.61,3.11,13.11,5.56,17.21,5.56,9.21,0,17.87-5.3,17.87-14.73,0-6.1-4.61-8.6-10.5-11.1-4.8-2.02-10.21-4.5-15.15-6.88-7.28-3.51-9.76-8.38-9.89-15.55-.17-8.71,5.63-18.32,21.7-18.32,3.8,0,9.61.75,14.45,1.69.2,3.69.29,7.46.29,10.38,0,1.23,0,1.42-.66,1.42-.57,0-.85-.2-1.62-4.72-.66-3.68-5.53-6.7-13.13-6.7s-16.74,4.91-16.74,13.87c0,16.4,35.99,11.21,35.99,33.84"/><path class="cls-1" d="m275.8,107.37h-18.06l9.41-21.88,8.65,21.88Zm16.35,23.66l-21.76-52.71c-.2-.47-.58-.67-.97-.67h-6.26l1.04,2.17c.65,1.32.77,2.27.18,3.49l-20.9,48.37,4.56-.66,8.65-21.22h20.15l8.94,22.08,6.36-.86Z"/><path class="cls-1" d="m332.48,92.19c0,9.71-7.21,16.4-18.15,16.4-2.37,0-5.51-1.69-5.51-2.64,0-.19.29-.74.57-.74.38,0,2.38,1.13,4.47,1.13,9.21,0,12.35-5.47,12.35-12.35,0-8.65-3.79-13.52-16.44-13.52-2.27,0-2.66.46-2.66,2.89v47.68l-6.27.75v-47.11c0-3.75-.19-4.79-4.56-4.98-1.71-.08-1.8-.74-1.8-1.21,0-.66.37-.93.94-.93s1.72.18,3.24.46c1.53.28,4.57.47,6.66.47,3.23,0,8.27-.38,11.49-.38,7.22,0,15.68,5.16,15.68,14.09Z"/><path class="cls-1" d="m355.61,78.79c0,.48-.77,1.23-3.24,1.61-1.89.29-2.1,2.36-2.1,4.14v46.58l-6.26.57v-47.15c0-1.88-.29-3.86-1.89-4.14-3.14-.57-3.62-1.13-3.62-1.61,0-.56.18-.84,1.12-.75,2.3.19,5.92.37,7.71.37s4.85-.18,7.14-.37c.94-.09,1.14.19,1.14.75Z"/><path class="cls-1" d="m392.27,103.68l.06,2.08h-16.72v19.33c0,3.11.09,3.77,2.47,4.16,1.91.27,3.51.46,6.18.46s7.03-.1,9.03-.46c1.32-.29,2.65.18,3.24-3.3.66-3.59,1.32-3.77,1.8-3.77.57,0,.57.18.57,1.12,0,1.98-.09,4.34-.2,6.79-.09,1.89-.46,1.98-2.17,1.89-2.48-.09-6.77-.29-10.19-.38-2.93-.09-9.31-.18-11.77-.18l-5.23.36v-47.14c0-3.77-.29-4.81-4.67-5-1.7-.09-1.7-.66-1.7-1.13,0-.66.38-1.03.95-1.03s1.71.18,3.24.47c1.53.29,4.18.47,6.26.47,2.48,0,9.6-.09,12.56-.18,3.42-.1,5.42-.19,7.89-.29,1.71-.09,2.08-.09,2.17,1.79.11,2.45.2,4.91.2,6.89,0,.94,0,1.13-.57,1.13-.48,0-1.14-.19-1.8-3.77-.57-3.49-1.9-3.11-3.22-3.39-.88-.19-2.59-.19-3.05-.19h-9.98c-1.42,0-1.99.38-1.99,1.32v21.96h16.66Z"/><path class="cls-1" d="m457.66,78.41c0,.48-.11,1.15-1.82,1.23-4.37.18-4.57,1.23-4.57,5v46.39l-3.69.75-34.04-46.38h-.09v45.54l-2.94.85v-47.14c0-3.77-.18-4.81-4.56-5-1.73-.09-1.73-.75-1.73-1.23,0-.65.29-1.03.86-.93,3.23.38,9.32.56,11.7.75.18.28.49.56.77.95l30.69,42.61v-37.15c0-3.77-.19-4.81-4.57-5-1.71-.09-1.81-.75-1.81-1.23,0-.65.38-.93.95-.93,1.34,0,5.7.75,7.32.75,1.52,0,5.33-.75,6.56-.75.56,0,.96.28.96.93Z"/><path class="cls-1" d="m460.11,130.23c-.48,0-.67-.18-.67-.56s0-.57.28-.85l32.64-47.85h-25.25c-3.14,0-4.85,1.97-5.14,1.97-.18,0-.48-.28-.38-.66l.77-3.58c.09-.47.29-.85.66-.85.28,0,1.14.56,7.41.56h28.91l.48,1.71-31.61,46.34c5.72-.04,23.68.61,31.56,1.4l19.16-44.32c.58-1.23.48-2.17-.19-3.49l-1.04-2.17h6.27c.39,0,.76.18.96.66l21.76,52.7-6.37.86-9.93-24.5-8.69-21.88-9.43,21.86-9.69,23.67c-8.41-1.31-37.76-2.63-42.46-1.01Z"/><rect class="cls-1" x="509.84" y="107.43" width="22.33" height="2.42"/><path class="cls-1" d="m411.21,171.61c-1.01,0-3.12-.49-4.82-.38l-2.3.15v-18.85c0-1.43,0-1.74-1.62-1.81-.75-.04-.9-.19-.9-.48,0-.34.18-.53.57-.53.41,0,.9.11,1.32.19.59.12,1.69.2,2.48.2s1.51-.04,2.25-.07c.95-.04,2-.09,3.62-.09,6.4,0,11.14,4.14,11.14,10.39,0,6.69-4.41,11.29-11.75,11.29m-.22-20.58h-2.8c-.85,0-1.23.34-1.23,1.31v16.49c0,1.17.04,1.24.83,1.47.97.29,2.19.38,3.69.38,5.98,0,8.31-4.18,8.31-9.9,0-5.01-1.39-9.75-8. 81-9.75Z"/><path class="cls-1" d="m432.99,151.03c-.68.11-.68.86-.68,1.47v18.63l-2.87.22v-18.85c0-.64-.04-1.36-.6-1.47-1.2-.18-1.58-.23-1.58-.61,0-.33.16-.53.64-.49.9.09,2.34.16,3.05.16s1.92-.07,2.83-.16c.48-.04.63.16.63.49,0,.35-.5.46-1.42.61"/><path class="cls-1" d="m467.17,171.84c-.15.15-1.12.22-1.77.11-1.4-.23-2.3-.53-3.27-2l-1.62-2.41-5.12-8.25c-.79.15-.99.23-2.57.23h-1.01v11.52l-3.02.41v-23.82c0-1.81-.03-2.19-2.1-2.3-.87-.04-1.05-.07-1.05-.45,0-.5.3-.57.63-.57s.91.11,1.67.23c.75.11,2.44.26,3.46.26,1.69,0,3.43-.22,5.12-.22,3.77,0,7,2.21,7,6.18s-2.9,7.02-5.24,7.78l4.67,7.65c1.36,2.18,2.11,3.64,4.14,5.07.27.19.31.41.07.61v-.04m-12.72-26.28h-1.66c-.64,0-.97.5-.97,1.29v11.55c.6.07.86.11,1.62.11,5.94,0,6.86-4.21,6.86-7.19,0-3.49-1.4-5.76-5.85-5.76Z"/><path class="cls-1" d="m480.78,171.61c-6.44,0-11.22-4.6-11.22-10.95,0-6.71,5.65-10.96,11.22-10.96s11.21,3.95,11.21,10.96c0,6.35-4.78,10.95-11.21,10.95m0-20.84c-4.52,0-8.05,3.3-8.05,9.86,0,5.76,2.7,9.93,8.05,9.93,5.76,0,8.05-4.17,8.05-9.93,0-6.71-3.92-9.86-8.05-9.86Z"/><path class="cls-1" d="m522.64,150.72c-1.84.07-1.8.79-1.62,2.48.22,2,2.15,17.88,2.15,17.88l-3.19.29-1.89-17.5-7.04,16.22-1.31.23-7.94-16.52-1.36,17.28-2.71.33c1.66-21.64,1.47-18.06,1.54-18.92.15-1.36,0-1.7-1.62-1.78-.78-.04-.91-.34-.91-.6,0-.42.31-.46.61-.42.9.11,3.02.19,3.81.28.53.04.75.15,1.13.9l8.24,17.05,7.23-16.97c.29-.72.75-.94,1.28-.97.83-.09,2.89-.13,3.76-.24.34-.04.75.07.75.46,0,.26-.11.48-.9.52"/><path class="cls-1" d="m544.15,171.42l-3.53-8.65h-7.76l-3.39,8.32-2.26.29,8.39-19.27c.19-.44.16-.71-.07-1.2l-.52-1.14h2.78c.22,0,.46.15.57.39l8.69,20.89-2.9.37m-7.26-18.06l-3.43,8.28h6.59l-3.16-8.28Z"/><path class="cls-1" d="m222.06,145.68c-.87.15-.87,1.25-.9,1.91,0,.27-.2,9.71-.75,14.12-.42,3.13-1.78,10.01-9.45,10.01s-9.72-6.02-10.24-10.08c-.31-2.18-.42-8.81-.42-12.23,0-1.1-.07-1.82-.07-1.82-.04-.83-.04-1.8-.75-1.91-1.73-.3-1.95-.34-1.95-.6,0-.45.27-.48.75-.45,1.13.07,2.67.15,3.57.15s2.15-.07,3.27-.15c.5-.04.75,0,.75.45,0,.27-.34.38-1.73.6-.79.15-.94.98-.9,1.91,0,0,.11,8.66.33,12.91.38,6.63,3.21,10.05,7.39,10.05,5.15,0,7.52-4.21,7.9-9.74.3-4.36.3-8.35.3-12.38v-.84c0-.83-.04-1.8-.75-1.91-1.73-.3-1.95-.34-1.95-.6,0-.45.26-.48.75-.45,1.12.07,2.28.15,3.2.15s1.51-.07,2.63-.15c.5-.04.75,0,.75.45,0,.27-.33.38-1.73.6"/><path class="cls-1" d="m247.66,150.72c-1.62.07-1.62.38-1.62,1.81v18.52l-1.74.37-13.24-17.91v17.5l-1.54.45v-18.93c0-1.43,0-1.74-1.62-1.81-.79-.04-.87-.19-.87-.45,0-.34.15-.61.57-.57,1.27.15,3.13.23,4.14.31l12.72,17.42v-14.9c0-1.43,0-1.74-1.62-1.81-.75-.04-.9-.15-.9-.45,0-.38.22-.57.57-.57.52,0,2.25.31,2.9.31.6,0,2.1-.31,2.59-.31.34,0,.57.19.57.57,0,.29-.16.41-.91.45"/><path class="cls-1" d="m258.04,151.03c-.67.11-.67.86-.67,1.47v18.63l-2.87.22v-18.85c0-.64-.04-1.36-.61-1.47-1.2-.18-1.57-.23-1.57-.61,0-.33.15-.53.63-.49.9.09,2.34.16,3.05.16s1.91-.07,2.82-.16c.49-.04.64.16.64.49,0,.35-.48.46-1.43.61"/><path class="cls-1" d="m282.66,150.88c-.68.11-1.05.67-1.32,1.31l-7.52,18.94-2,.22-7.57-18.77c-.18-.42-.34-1.06-.6-1.43-.15-.26-.38-.37-.86-.42-.75-.04-.9-.15-.9-.45,0-.34.22-.61.6-.57.9.11,2.41.15,3.2.23.83.09,1.05.67,1.28,1.32l6.47,17.13,6.44-16.23c.19-.44-.11-1.05-.63-1.12-1.43-.23-1.62-.46-1.62-.64,0-.29.11-.49.63-.45.91.09,1.85.16,2.57.16s1.31-.07,2.21-.16c.53-.04.64.16.64.45,0,.22-.23.34-1.02.5"/><path class="cls-1" d="m298.82,170.55c-.04.86-.3.95-1.06.91-2.9-.12-5.79-.41-8.7-.23l-2.25.15v-18.88c0-1.43-.04-1.73-1.67-1.81-.74-.04-.86-.15-.86-.45,0-.34.19-.53.57-.53.42,0,.9.11,1.32.19.61.12,1.66.2,2.45.2,2.71,0,5.38-.07,8.1-.2.75-.04,1,0,1.05.88.04.97.07,1.95.07,2.7,0,.57-.12.63-.41.63-.64,0-.5-2.3-1.13-2.7-.48-.3-1.88-.41-2.18-.41h-3.84c-.56,0-.6.11-.6.33v8.77h4.03c.49,0,1.54-.04,1.65-.67.27-1.4.38-1.66.72-1.66.42,0,.45.26.42.64-.07.86-.16,1.51-.16,2.19s.08,1.35.16,2.21c.04.38,0,.64-.42.64-.34,0-.45-.26-.72-1.65-.11-.64-1.01-.72-1.65-.72h-4.03v7.68c0,1.2.04,1.35.83,1.47.72.11,1.36.18,2.41.18.68,0,3.95-.04,4.41-.34.64-.41.49-2.82,1.16-2.82.31,0,.42.07.42.64,0,.75-.04,1.69-.07,2.66"/><path class="cls-1" d="m319.77,171.8c-1.36,0-2.37-.5-3.16-1.62l-1.32-1.92-4.26-6.47c-.64.15-.86.15-1.58.15h-.79v9.15l-2.86.33v-18.88c0-1.4-.04-1.74-1.66-1.81-.75-.04-.86-.19-.86-.45,0-.38.22-.57.57-.57.4,0,.9.11,1.32.19.6.12,2.34.2,3.13.2,1.35,0,2.74-.16,4.1-.16,3.01,0,5.83,1.74,5.83,4.93,0,3.51-2.86,5.65-4.52,6.25,4.82,7.19,3.76,5.61,5.61,8.43.27.41.83,1.01,1.28,1.43.27.22.53.26.53.56,0,.27-.83.27-1.36.27m-9.04-20.89h-1.08c-.75,0-.98.37-.98.89v9.08c.46.04.68.07,1.29.07,4.7,0,5.22-3.2,5.22-5.57,0-2.78-.9-4.47-4.44-4.47Z"/><path class="cls-1" d="m330.21,171.61c-1.4,0-3.77-.41-5.54-1.62l.56-1.31c1.32,1.12,3.72,1.87,4.97,1.87,2.86,0,5.08-1.43,5.08-4.25,0-1.51-1.32-2.37-2.48-3.05-1.88-1.08-3.91-1.84-5.52-3.35-1.25-1.13-2.23-2.48-2.23-4.89,0-3.16,2.97-5.31,6.59-5.31,1.2,0,2.7.23,4.4.57.08,1.31.08,2.48.08,3.38,0,.41,0,.64-.39.64s-.49-.23-.72-1.62c-.18-1.01-1.27-1.84-3.57-1.84-2.49,0-4.63,1.16-4.63,3.83,0,.83.49,1.32,1.09,1.89.94.9,2.48,1.53,3.65,2.1,1.43.67,2.9,1.43,3.99,2.56.97,1.02,1.62,2.49,1.62,4.3,0,3.88-3.2,6.09-6.96,6.09"/><path class="cls-1" d="m346.99,151.03c-.67.11-.67.86-.67,1.47v18.63l-2.87.22v-18.85c0-.64-.04-1.36-.6-1.47-1.2-.18-1.58-.23-1.58-.61,0-.33.15-.53.64-.49.91.09,2.34.16,3.05.16s1.91-.07,2.82-.16c.49-.04.64.16.64.49,0,.35-.48.46-1.43.61"/><path class="cls-1" d="m370.11,151.55l-1.2-.23h-6.74v19.8l-2.87.29v-20.1c-1.75-.04-5.3,0-5.3,0-1.58,0-1.77.35-1.92,1.14-.07.37,0,1.64-.56,1.64h-.08c-.38,0-.44-.22-.44-.63,0-.75,0-1.73.03-2.7.04-.88.3-.92,1.06-.88.98.04,1.81.09,3.16.12,4.03.15,8.13.07,12.16.07,1.05,0,2.26-.39,2.78-.39.15,0,.42.07.42.39,0,.55-.18.63-.49,1.46"/><path class="cls-3" d="m381.72,148.36h1.06l-4.43-4.43c-.48-.48-.81-.69-1.14-.69-.55,0-1.07.4-1.07,1.12,0,.45.2.7,1.31,1.36l4.27,2.64m-1.49,5l-3.44,8.28h6.6l-3.16-8.28Zm7.25,18.06l-3.53-8.65h-7.74l-3.4,8.32-2.26.29,8.4-19.27c.19-.44.15-.71-.07-1.2l-.53-1.14h2.79c.22,0,.44.15.55.39l8.7,20.89-2.91.37Z"/><path class="cls-2" d="m81.23,63.7c0,2.51.02,8.96,0,11.29,0,1.05.39,1.8.89,2.34.29.29.55.49.8.64.09.08.49.22.63.23.2.03.46.06.8.04.8-.06,1.6-.33,2.31-1.11,1.53-1.66,4.76-5.11,6.14-6.6.41-.44-.02-.51-.37-.5-2.83.08-5.87,2.78-7.93,4.63-.26-2.79-.68-8.99-2.74-11.34-.24-.26-.53-.26-.53.38m-2.6-.38c-2.06,2.36-2.43,8.56-2.67,11.34-2.07-1.85-5.11-4.55-7.93-4.63-.34-.01-.79.06-.38.5,1.38,1.49,4.61,4.94,6.14,6.6.72.78,1.51,1.06,2.24,1.11.41.02.66,0,.87-.04.14,0,.54-.15.63-.23.26-.16.51-.35.74-.59.55-.6.94-1.34.93-2.39,0-2.33,0-8.78,0-11.29,0-.64-.36-.64-.59-.38Zm-24.03,57.82c.19-2.12-1.25-3.95-3.27-4.34-.28-.02-.55-.04-.81-.07-8.75-.84-17.41-3.34-25.44-7.58-.18-.1-.35.09-.26.28.49.96,1.93,2.06,4.11,3.61,2.5,1.78,10.65,5.72,17.58,7.09,2.67.53,5.38.87,8.09,1.02Zm6.59,10.11c.11-.78-.04-1.82-.42-2.75-.15-.69-.64-1.32-1.27-1.81-1.02-.81-2.31-1.29-3.3-1.32-9.02-.51-17.81-3.66-25.62-9.15-.39-.27-.53-.1-.23.28,1.36,1.67,2.7,3.44,4.45,4.79,5.28,4.12,11.43,6.58,17.68,7.69,1.34.24,2.7.41,4.06.53.3,0,.5,0,.56.09.06.08.06.32-.02.6-.11,1.32-.18,2.67-.18,4.01,0,6.22,1.4,12.56,4.6,18.39,1.05,1.92,2.59,3.53,4.03,5.13.33.36.52.25.32-.17-4.13-8.5-5.74-17.51-4.64-26.3Zm7.69,7.02c.02-.27.04-.54.06-.8-.03-2.02-1.6-3.73-3.7-3.93h-.08c-.32,2.64-.46,5.31-.4,7.98.13,6.91,2.79,15.46,4.13,18.18,1.17,2.37,2.02,3.96,2.9,4.59.17.13.39,0,.32-.2-2.82-8.48-3.94-17.26-3.22-25.84Zm8.59,2.08s.12-1.02.12-1.02c.5-3.21-.61-6.44-2.62-8.72-3.3-3.77-8.82-4.07-11.01-6.47-2.17-2.4-1.32-8.46-4.67-11.93-2.1-2.2-5.06-3.59-8.38-3.67l-.92-.04c-9.51-.11-18.24-1.88-27.28-5.52-.31-.13-.69.15-.43.51.82,1.1,2.57,2.69,5.66,3.99,9.63,4.07,22.73,5.03,22.77,5.03,5.57.28,8.01,5.2,9.29,9.48.44,1.45,1.09,2.82,1.84,3.7.74.89,1.97,1.92,3.41,2.62,4.08,1.99,9.01,5.08,8.29,10.5,0,.03-1.77,12.82.61,22.81.77,3.21,1.91,5.18,2.88,6.16.31.31.66,0,.59-.32-2.04-9.34-1.75-17.95-.16-27.12Zm-26.27-38.56c-1.24.29-4.05,1-5.88,1.76-.3.12-.37.65.01.8,2.06.82,6.79,1.34,8.32.74,2.24-.88,1.75-4.55.59-6.13-5.1-7.23-7.98-15.92-8.46-25.31-.02-.47-.24-.47-.35,0-.48,2.08-1.03,4.2-1.03,6.38,0,8.05,2.67,15.53,6.81,21.76Zm1.23-13.53c1.22,2.38,2.59,4.66,4.12,6.84,1.78-1.18,2.33-3.42,1.41-5.21-.15-.22-.29-.45-.44-.68-4.67-7.22-7.98-15.4-9.56-24.19-.04-.21-.28-.22-.37-.02-.45.96-.44,2.76-.31,5.38.13,3.02,2.01,11.73,5.15,17.87Zm8.51-1.5c3.18,4.44.81,9.37-1.74,13.01-3.13,4.44.72,10.06.53,6.78-.26-4.84,5.85-7.69,6.68-13.43.43-2.98-.28-6.11-2.24-8.7l-.52-.72c-5.71-7.35-9.63-15.14-12.3-24.33-.09-.31-.54-.42-.66,0-.35,1.31-.52,3.64.33,6.82,2.68,9.9,9.91,20.53,9.93,20.56Zm45.29,12.2c-1.15,1.57-1.65,5.25.59,6.13,1.54.61,6.26.09,8.32-.74.38-.15.31-.67,0-.8-1.83-.76-4.64-1.47-5.88-1.76,4.15-6.23,6.82-13.71,6.82-21.76,0-2.18-.56-4.3-1.03-6.38-.11-.47-.33-.47-.35,0-.48,9.4-3.36,18.08-8.46,25.31Zm-3.73-9.07c-.93,1.79-.38,4.03,1.34,5.17,1.59-2.14,2.97-4.42,4.18-6.8,3.15-6.14,5.03-14.85,5.16-17.87.12-2.63.13-4.42-.32-5.38-.09-.19-.33-.18-.37.02-1.58,8.79-4.89,16.97-9.57,24.19l-.43.68Zm-1.77,16.66c-.18,3.28,3.67-2.34.53-6.78-2.56-3.64-4.92-8.58-1.75-13.01.03-.03,7.26-10.65,9.93-20.56.86-3.18.69-5.51.33-6.82-.12-.42-.57-.31-.66,0-2.67,9.18-6.59,16.98-12.31,24.33,0,0-.51.72-.52.72-1.96,2.59-2.66,5.73-2.24,8.7.82,5.73,6.94,8.58,6.68,13.43Zm-20.77,86.4c-34.2,0-62.03-33.57-62.03-74.83s27.82-74.82,62.03-74.82,62.03,33.57,62.03,74.82-27.82,74.83-62.03,74.83Zm0-151.94c-35.44,0-64.26,34.59-64.26,77.11s28.83,77.11,64.26,77.11,64.26-34.59,64.26-77.11-28.82-77.11-64.26-77.11Zm-12.35,76.6c-1.63,0-3.03-1.39-3.3-1.99-.8,3.77,1.26,5.53,4.27,6.08-.52-1.21-.85-2.5-.97-3.79v-.3Zm.08-2.92c.08-1.17.1-2.61.13-3.73-2.7-.3-4.43-2.35-4.79-2.85-1.65,2.65.23,5.97,4.65,6.58Zm24.91,3.15c-.12,1.3-.45,2.58-.98,3.8,3.02-.55,4.95-2.32,4.16-6.09-.28.6-1.54,1.99-3.18,1.99v.31Zm4.57-9.8c-.36.5-2.08,2.55-4.79,2.85.04,1.11.06,2.56.13,3.73,4.42-.61,6.31-3.92,4.65-6.58Zm-13.85-6.65c8.96,5.15,12.23.4,12.23.4,0,0,3.27,3.91-2.36,5.43-5.95,1.6-9.99-2.03-10.94-2.73-1.77-1.31-2.15-4.93,1.07-3.1Zm4.8-4.67c3.44,2.1,4.58,2.15,4.58,2.15,0,0-.12,3.58-5.25,1.62-1.8-.69-7.29-3.78-6.36-5.07,1.55-2.16,4.24-.41,7.03,1.3Zm-11.24,4.67c-8.96,5.15-12.1.4-12.1.4,0,0-3.41,3.91,2.22,5.43,5.95,1.6,9.98-2.03,10.94-2.73,1.78-1.31,2.15-4.93-1.07-3.1Zm-4.8-4.67c-3.43,2.1-4.44,2.15-4.44,2.15,0,0-.02,3.58,5.11,1.62,1.8-.69,7.28-3.78,6.36-5.07-1.56-2.16-4.25-.41-7.03,1.3Zm18.36,19.62c-.15-1.52-.35-4.28-.4-5.74-4.22,0-8.68-3.22-9.93-5.23-1.25,2.01-5.72,5.23-9.93,5.23-.06,1.46-.26,4.22-.41,5.74-.29,2.79.7,5.69,2.56,7.77.96,1.08,2.15,2.12,3.47,2.73.11.05.24.09.37.15l.63.28c.36.19.56.46.91.72.98.7,2.35.66,2.39.66.05,0,1.42.05,2.39-.66.35-.26.55-.53.92-.72l.63-.28c.13-.06.25-.1.37-.15,1.32-.61,2.51-1.65,3.47-2.73,1.86-2.09,2.85-4.98,2.56-7.77Zm-5.41-1.13c-2.4,0-2.91-.72-2.91-.72,0,0,.61-2.01,2.91-2.01s3.14,1.67,3.14,1.67c-.07.25.13,1.06-3.14,1.06Zm-4.88,9.19c-2.02,0-3.66-1.68-3.66-2.16s7.32-.48,7.32,0-1.64,2.16-3.66,2.16Zm-4.98-9.19c-3.26,0-3.06-.81-3.14-1.06,0,0,.86-1.67,3.16-1.67s2.91,2.01,2.91,2.01c0,0-.52.72-2.92.72Zm4.98,3.08c1.05,0,1.89.43,1.89.79s-.85.79-1.89.79-1.89-.43-1.89-.79.85-.79,1.89-.79Zm33.82,1.83c6.92-1.37,15.07-5.3,17.57-7.09,2.18-1.55,3.62-2.65,4.1-3.61.09-.19-.07-.38-.26-.28-8.02,4.23-16.68,6.74-25.43,7.58-.27.03-.54.06-.81.07-2.02.39-3.46,2.22-3.27,4.34,2.71-.15,5.42-.49,8.1-1.02Zm-19.33,37.44c-.2.42,0,.53.32.17,1.43-1.6,2.97-3.21,4.03-5.13,3.2-5.83,4.6-12.17,4.6-18.39,0-1.34-.07-2.68-.18-4.01-.08-.28-.07-.52-.02-.6.06-.09.25-.08.56-.09,1.36-.11,2.72-.29,4.06-.53,6.25-1.1,12.39-3.57,17.68-7.69,1.74-1.36,3.08-3.12,4.44-4.79.3-.38.17-.55-.22-.28-7.82,5.48-16.6,8.64-25.62,9.15-.99.03-2.29.51-3.31,1.32-.64.5-1.12,1.12-1.26,1.81-.39.93-.53,1.97-.42,2.75,1.1,8.79-.51,17.8-4.64,26.3Zm-6.27,6.55c-.07.2.15.32.32.2.88-.63,1.72-2.22,2.9-4.59,1.34-2.72,3.99-11.28,4.13-18.18.06-2.68-.08-5.34-.4-7.98h-.08c-2.1.19-3.68,1.9-3.71,3.93.02.26.04.53.06.8.71,8.58-.41,17.35-3.22,25.84Zm-5.53,3.36c-.07.32.28.63.59.32.97-.98,2.11-2.95,2.86-6.16,2.39-9.99.63-22.78.63-22.81-.72-5.42,4.21-8.51,8.29-10.5,1.44-.7,2.67-1.73,3.41-2.62.75-.87,1.4-2.24,1.84-3.7,1.27-4.28,3.71-9.2,9.28-9.48.04,0,13.13-.96,22.77-5.03,3.08-1.31,4.84-2.89,5.66-3.99.25-.36-.13-.64-.44-.51-9.03,3.63-17.76,5.41-27.28,5.52l-.91.04c-3.31.08-6.27,1.48-8.38,3.67-3.33,3.48-2.48,9.53-4.66,11.93-2.19,2.4-7.7,2.7-11.01,6.47-2,2.28-3.12,5.51-2.62,8.72,0,0,.13,1,.13,1.02,1.59,9.17,1.88,17.77-.16,27.12Zm38.43-4.94c-.12-.11-.25-.09-.35-.07-.35.07-.77.11-1.12.07-1.6-.21-3.06-.31-4.67-.51.31-.97.36-2.73-.91-3.9-1.3-1.19-3.02-.58-4.08.66-.46.53-.88,1.13-1.34,1.67-.26.31-.86.94-1.1,1.14-.18.15-.4.3-.55.48-.18.2-.24.43-.02.64.24.21.42.07.7-.24.47-.48.55-.4.97-.02l7.11,6.54,1.08-1.58-3.24-2.98.14-.17c.2-.24.3-.35.43-.59l3.59.39c1.18.15,2.08.44,3-.64.24-.26.48-.79.36-.9Zm-8.14-2.73c.87.79,1.83,2.02.35,3.75-.14.17-.22.25-.33.34l-3.35-3.08c-.13-.11-.18-.22,0-.42l.37-.42c1.12-1.3,2-1.05,2.96-.17Zm-85.13-17.57c-.25-.74-.46-2.01-.13-3.31l1.12.09c-.4,1.04-.35,2.33-.16,2.91.46,1.38,1.43,2.12,2.61,1.71.59-.21.77-.88.9-1.61.22-1.13.22-2.31.66-3.37.33-.84.85-1.61,2.03-2.03,1.63-.58,3.21.67,3.83,2.54.2.63.35,1.43.5,2.49-.74.31-1.29.51-1.73.66-.23.09-.48.15-.59-.21-.07-.23-.04-.43.71-.86.32-.18.56-.75.19-1.86-.39-1.2-1.21-1.95-2.33-1.55-.78.28-.89,2.15-.96,2.87-.08.81-.18,1.73-.56,2.49-.34.71-.95,1.31-1.85,1.62-1.94.69-3.6-.63-4.25-2.59Zm15.8,10.03c-.1.02-.21,0-.57.04l-.22-.77-1.44-3.01-8.88,4.5-.99-1.62,9.04-4.6c-.39-.88-1.14-2.43-1.14-2.43-.44-.89-.55-.57-1.18-.39-.29.08-.59.12-.69-.09-.15-.32-.02-.45.28-.61.35-.18.79-.39,1.23-.59.52-.25.69,0,.85.4.2.47.38.87.66,1.53.85,1.95,1.8,3.88,2.72,5.79.17.36.43.67.64.98.06.1.13.18.17.25.04.09.13.39-.16.54-.15.09-.17.07-.31.07Zm6.77,9.75c-.17-.17-.44-.2-.76-.11l-9.98,2.81-.89-.94c2.16-3.87,3.54-6.41,5.37-9.56.15-.24.27-.37.11-.64-.33-.47-.29-.61-.11-.76.21-.18.47-.12.64.17.22.42.68,1.07.9,1.42.28.43.09.78-.12,1.15l-4.6,7.71,8.13-2.35c.51-.16-.52-1.12-.1-1.45.21-.16.41-.07.61.23.24.4.5.81.72,1.12.23.29.44.52.74.87.24.27.22.53.02.69-.13.1-.26.06-.68-.34Zm7,12.14c1.97-2.61,1.27-5.94-1.4-8.07-.66-.52-1.1-.85-1.49-1.14-.32-.23-.64-.46-.94-.71-.32-.26-.73-.63-.91-.86-.17-.17-.33-.39-.51-.53-.21-.17-.47-.17-.65.05-.2.27.04.44.31.69.5.44.41.52.07.98l-5.92,7.85c.88.61,1.43.97,2.16,1.7.32.33.6.64.82.81,3.04,2.45,6.35,2.01,8.46-.78Zm-1.73-1.08c-1.71,2.26-3.86,3.17-6.16,1.32-.61-.49-1.04-.88-1.34-1.3-.18-.25-.16-.28.1-.63l5.15-6.81c.23-.31.37-.31.63-.09l1.13.9c2.88,2.3,2,4.59.51,6.6Zm7.93-.87c-.24-.08-.32.21-.42.41l-4.22,8.61-1.72-.73,4.29-8.75c.29-.57.25-.46-.21-.8-.21-.16-.51-.29-.37-.57.13-.28.37-.32.68-.15.37.24,1.02.63,1.34.79.32.17.89.42,1.31.6.31.14.42.37.29.64-.11.21-.38.14-.97-.06Zm12.58,3.35c-.26.04-.48.17-.67.45l-6.22,8.81-1.28-.17c-.65-4.41-1.12-7.15-1.6-10.81-.03-.27,0-.45-.3-.54-.54-.16-.6-.3-.55-.53.06-.27.3-.4.61-.28.43.17,1.18.39,1.56.52.47.17.54.55.6.97l1.1,8.85,4.91-7.08c.31-.45-1.08-.53-.96-1.07.07-.27.28-.31.61-.21.42.15,2.12.29,2.58.29.35,0,.51.13.46.44-.03.22-.25.29-.85.36Zm14.74-2.07c-.63.3-.67.5-.45,1.33.26,1,2.43,9.21,2.43,9.21l-1.97.51-2.15-8.39-2.18,8.38-.9.3-4.95-7.34.57,8.38-1.73.5-.62-9.57c-.07-.97-.21-1.2-.79-1.24-.48-.05-.69-.17-.73-.43-.06-.4.29-.47.46-.48.47,0,1.7.05,2.11.03.35-.02.53.04.81.43l5.1,7.76,2.3-8.87c.12-.43.4-.64.72-.73.42-.1,1.43-.49,1.87-.61.17-.05.59-.07.65.3.04.28-.15.33-.55.52Zm15.76-9.47c-.2.39-.15.94-.07,1.27l2.17,9.99-.98.86c-3.59-2.49-5.97-3.84-8.89-5.96-.22-.16-.33-.3-.59-.14-.48.3-.63.26-.75.06-.15-.23-.09-.49.21-.64.42-.21,1.08-.63,1.43-.83.44-.25.76-.04,1.11.2l7.16,5.02-1.89-8.41c-.11-.54-1.12.45-1.4.01-.15-.24-.04-.42.26-.61.53-.35,1.44-1.29,1.92-1.87.23-.26.53-.19.68.04.08.14-.09.51-.35,1.02Zm17.64-12.41c-1.51-.97-2.87-.38-3.91.72.09-1.12-.35-2.06-1.36-2.7-1.14-.74-2.85-.16-3.82,1.43-.33.53-.57,1.09-.9,1.62-.21.36-.61.93-.81,1.17-.16.18-.34.37-.46.57-.16.26-.09.53.13.68.2.12.29.07.61-.4.38-.56.47-.48.94-.18l.36.23,7.83,5.05s.67-1.29.83-1.55c.34-.51.67-.74,1.02-1.32,1.17-1.92,1.18-4.27-.46-5.32Zm-5.96-.18c.9.58,1.51,1.39.65,2.81l-.33.56-3.09-2c-.24-.16-.33-.2-.19-.42l.15-.26c.66-1.09,1.74-1.4,2.83-.69Zm5.11,1.89c1.08.69,1.5,1.86.81,3.02-.28.47-.64.9-.99,1.26-.11.1-.11.11-.21.05l-3.75-2.42.3-.5c1.21-1.99,2.57-2.22,3.84-1.4Zm-3.79-9.23c-.07.26.21.33.41.42l8.61,4.14-.64,1.8-8.75-4.21c-.56-.27-.44-.24-.77.25-.14.22-.26.53-.54.39-.27-.13-.33-.37-.16-.69.22-.4.57-1.07.73-1.41.15-.35.38-.94.53-1.37.13-.34.35-.45.61-.32.21.1.15.38-.02.99Zm11.79-2.2c-.23.74-.81,1.88-1.84,2.71l-.83-.75c.92-.6,1.63-1.65,1.82-2.24.44-1.38.11-2.58-1.09-2.98-.59-.2-1.13.23-1.65.73-.83.76-1.51,1.71-2.49,2.28-.75.46-1.61.76-2.81.36-1.64-.55-2.17-2.53-1.58-4.4.2-.63.55-1.36,1.05-2.31.77.21,1.32.4,1.76.54.24.08.46.18.35.54-.07.23-.21.37-1.07.25-.37-.06-.89.25-1.25,1.36-.37,1.2-.16,2.32.97,2.69.79.27,1.97-1.16,2.44-1.7.53-.59,1.15-1.27,1.9-1.64.68-.36,1.53-.46,2.41-.16,1.95.65,2.52,2.75,1.89,4.72Z"/></svg>