<svg xmlns="http://www.w3.org/2000/svg" id="Livello_1" data-name="Livello 1" viewBox="0 0 653.72 267.03">
  <defs>
    <style>
      .cls-1 {
        fill-rule: evenodd;
      }

      .cls-1, .cls-2 {
        fill: #1f396d;
      }

      .cls-3 {
        fill: none;
        stroke: #1f396d;
        stroke-miterlimit: 10;
        stroke-width: 2px;
      }
    </style>
  </defs>
  <path class="cls-1" d="m329.17,103.38h14.39c12.09,0,15.51-7.21,15.51-23.25,0-13.29-2.28-21.97-14.93-21.97h-14.97v45.21h0Zm9.12-38.48h3.88c6.95,0,7.79,5.24,7.79,15.5,0,12.27-1.26,16.27-7.6,16.27h-4.06v-31.77h0Zm36.36-6.73h-9.13v45.22h9.13v-45.22h0Zm19.54,0v7.47h9.87v37.75h9.11v-37.75h9.89v-7.47h-28.87Zm31.85,22.62c0,13.74,1.69,23.46,15.38,23.46s15.39-9.72,15.39-23.46-1.71-23.52-15.39-23.52-15.38,9.76-15.38,23.52h0Zm9.12,0c0-12.1.86-16.78,6.26-16.78s6.28,4.67,6.28,16.78-.91,16.78-6.28,16.78-6.26-4.61-6.26-16.78h0Zm36.11-15.89h4.32c4.12,0,6.34,2.08,6.34,6.25,0,4.88-2.46,6.79-6.85,6.79h-3.82v-13.04h0Zm-9.12,38.48h9.12v-19.11h4.9c3.66,0,5.24,2.16,5.35,5.66l.29,8.72c.04,1.76.24,3.48,1.13,4.73h9.87c-1.71-1.25-1.96-3.73-2.03-8.49-.12-9.55-1.07-12.99-7.28-13.81,5.15-1.18,7.53-5.24,7.53-11.28,0-7.7-4.55-11.63-12.01-11.63h-16.87v45.21h0Zm44.76-45.21h-9.12v45.22h9.12v-45.22h0Zm6.76,0v45.21h8.35v-31.66l11.29,31.66h10.37v-45.21h-8.35v31l-11.15-31h-10.52Zm35.4,22.62c0,13.74,1.72,23.46,15.4,23.46s15.38-9.72,15.38-23.46-1.73-23.52-15.38-23.52-15.4,9.76-15.4,23.52h0Zm9.12,0c0-12.1.88-16.78,6.28-16.78s6.27,4.67,6.27,16.78-.9,16.78-6.27,16.78-6.28-4.61-6.28-16.78h0Zm-229.46-34.41h9.12v-18.03h4.85c8.63,0,14.38-4.27,14.38-13.63,0-6.78-3.17-13.55-12.41-13.55h-15.94v45.21h0Zm9.12-38.5h3.78c4.56,0,6.34,2.51,6.34,6.96s-2.48,6.78-6.08,6.78h-4.05V7.88h0Zm22.76,15.91c0,13.7,1.69,23.47,15.38,23.47s15.38-9.76,15.38-23.47-1.69-23.52-15.38-23.52-15.38,9.73-15.38,23.52h0Zm9.11,0c0-12.12.89-16.81,6.27-16.81s6.28,4.68,6.28,16.81-.89,16.76-6.28,16.76-6.27-4.63-6.27-16.76h0Zm52.31,22.59v-7.46h-16.17V1.17h-9.11v45.21h25.28Zm13.6-45.21h-9.13v45.21h9.13V1.17h0Zm4.36,0v7.44h9.86v37.77h9.13V8.61h9.87V1.17h-28.87Zm32.8,0v45.21h25.89v-7.46h-16.77v-12.15h15.19v-7.5h-15.19v-10.65h16.15V1.17h-25.27Zm58.87,15.22c0-6.56-.95-16.13-14-16.13s-15.38,9.73-15.38,23.52,1.71,23.47,15.38,23.47c11.99,0,14.39-8.42,14.39-18.17h-9.11c0,9.75-2.42,11.46-5.71,11.46-3.92,0-5.84-2.46-5.84-16.15,0-12.8,1.08-17.42,5.72-17.42,4.11,0,5.44,2.84,5.44,9.41h9.11Zm5.56-15.22v45.21h8.38V14.72l11.25,31.66h10.4V1.17h-8.37v30.95l-11.14-30.95h-10.52Zm45.91,0h-9.12v45.21h9.12V1.17h0Zm35.19,15.22c0-6.56-.94-16.13-13.98-16.13s-15.39,9.73-15.39,23.52,1.72,23.47,15.39,23.47c11.97,0,14.37-8.42,14.37-18.17h-9.13c0,9.75-2.41,11.46-5.7,11.46-3.93,0-5.82-2.46-5.82-16.15,0-12.8,1.07-17.42,5.69-17.42,4.13,0,5.44,2.84,5.44,9.41h9.12Zm4.6,7.4c0,13.7,1.72,23.47,15.41,23.47s15.37-9.76,15.37-23.47-1.69-23.52-15.37-23.52-15.41,9.73-15.41,23.52h0Zm9.11,0c0-12.12.91-16.81,6.3-16.81s6.26,4.68,6.26,16.81-.9,16.76-6.26,16.76-6.3-4.63-6.3-16.76h0Z"/>
  <line class="cls-3" x1="295.96" y1=".72" x2="295.96" y2="264.8"/>
  <path class="cls-2" d="m0,133.53C0,59.77,59.78,0,133.51,0s133.48,59.77,133.48,133.53-59.75,133.5-133.48,133.5S0,207.26,0,133.53h0Zm2,0c0,72.63,58.89,131.51,131.51,131.51s131.52-58.88,131.52-131.51S206.13,1.98,133.51,1.98,2,60.89,2,133.53h0Z"/>
  <path class="cls-2" d="m134.21,33.67c0-1.51,1.24-2.77,2.74-2.77s2.74,1.25,2.74,2.77-1.22,2.73-2.74,2.73-2.74-1.23-2.74-2.73h0Z"/>
  <path class="cls-2" d="m141.62,34.18c0-1.48,1.24-2.73,2.73-2.73s2.76,1.25,2.76,2.73-1.22,2.77-2.76,2.77-2.73-1.25-2.73-2.77h0Z"/>
  <path class="cls-2" d="m148.96,35.27c0-1.48,1.24-2.7,2.74-2.7s2.73,1.22,2.73,2.7c0,1.55-1.21,2.77-2.73,2.77s-2.74-1.21-2.74-2.77h0Z"/>
  <path class="cls-2" d="m156.2,36.92c0-1.53,1.23-2.75,2.74-2.75s2.74,1.22,2.74,2.75-1.23,2.71-2.74,2.71-2.74-1.21-2.74-2.71h0Z"/>
  <path class="cls-2" d="m163.3,39.08c0-1.53,1.22-2.74,2.74-2.74s2.73,1.21,2.73,2.74-1.22,2.73-2.73,2.73-2.74-1.22-2.74-2.73h0Z"/>
  <path class="cls-2" d="m170.2,41.74c0-1.49,1.26-2.73,2.76-2.73s2.74,1.24,2.74,2.73-1.21,2.74-2.74,2.74-2.76-1.22-2.76-2.74h0Z"/>
  <path class="cls-2" d="m176.93,44.96c0-1.53,1.22-2.76,2.73-2.76s2.74,1.23,2.74,2.76-1.23,2.7-2.74,2.7-2.73-1.21-2.73-2.7h0Z"/>
  <path class="cls-2" d="m183.38,48.62c0-1.53,1.23-2.74,2.74-2.74s2.73,1.21,2.73,2.74-1.21,2.7-2.73,2.7-2.74-1.21-2.74-2.7h0Z"/>
  <path class="cls-2" d="m189.53,52.74c0-1.49,1.22-2.73,2.74-2.73s2.73,1.24,2.73,2.73-1.22,2.74-2.73,2.74-2.74-1.21-2.74-2.74h0Z"/>
  <path class="cls-2" d="m195.37,57.32c0-1.48,1.24-2.71,2.73-2.71s2.74,1.24,2.74,2.71-1.21,2.76-2.74,2.76-2.73-1.24-2.73-2.76h0Z"/>
  <path class="cls-2" d="m200.84,62.34c0-1.51,1.24-2.74,2.74-2.74s2.74,1.23,2.74,2.74-1.22,2.74-2.74,2.74-2.74-1.24-2.74-2.74h0Z"/>
  <path class="cls-2" d="m205.92,67.74c0-1.5,1.24-2.73,2.74-2.73s2.75,1.22,2.75,2.73-1.25,2.74-2.75,2.74-2.74-1.24-2.74-2.74h0Z"/>
  <path class="cls-2" d="m210.62,73.49c0-1.51,1.24-2.73,2.73-2.73s2.72,1.22,2.72,2.73-1.21,2.73-2.72,2.73-2.73-1.22-2.73-2.73h0Z"/>
  <path class="cls-2" d="m214.86,79.62c-.01-1.51,1.2-2.73,2.71-2.77,1.5-.02,2.73,1.18,2.76,2.68.01,1.51-1.18,2.77-2.69,2.77-1.53.04-2.75-1.18-2.78-2.69h0Z"/>
  <path class="cls-2" d="m218.64,85.99c-.03-1.52,1.17-2.74,2.68-2.77,1.55,0,2.77,1.2,2.78,2.7.03,1.53-1.19,2.75-2.7,2.77-1.51,0-2.76-1.18-2.77-2.7h0Z"/>
  <path class="cls-2" d="m221.93,92.64c-.02-1.52,1.2-2.77,2.69-2.77,1.51-.03,2.77,1.2,2.79,2.69,0,1.52-1.21,2.76-2.72,2.77-1.51.05-2.75-1.17-2.77-2.69h0Z"/>
  <path class="cls-2" d="m224.73,99.52c-.03-1.5,1.17-2.73,2.69-2.77,1.51,0,2.74,1.19,2.78,2.7.02,1.51-1.2,2.77-2.7,2.77-1.52.02-2.76-1.21-2.77-2.7h0Z"/>
  <path class="cls-2" d="m227.01,106.58c-.03-1.51,1.16-2.74,2.68-2.77,1.5-.02,2.75,1.19,2.77,2.7.02,1.51-1.19,2.74-2.71,2.78-1.5.01-2.73-1.18-2.74-2.71h0Z"/>
  <path class="cls-2" d="m228.72,113.81c-.01-1.52,1.2-2.77,2.72-2.79,1.5-.03,2.74,1.2,2.77,2.71.02,1.51-1.2,2.75-2.7,2.77-1.52.02-2.75-1.2-2.78-2.69h0Z"/>
  <path class="cls-2" d="m229.93,121.11c-.01-1.51,1.2-2.74,2.7-2.74,1.52-.05,2.76,1.17,2.77,2.68.03,1.51-1.17,2.77-2.7,2.78-1.51.01-2.75-1.2-2.77-2.71h0Z"/>
  <path class="cls-2" d="m230.61,128.51c-.03-1.51,1.19-2.74,2.68-2.79,1.5,0,2.74,1.22,2.76,2.71.03,1.51-1.17,2.74-2.69,2.77-1.52.04-2.76-1.2-2.76-2.69h0Z"/>
  <path class="cls-2" d="m230.71,135.94c-.01-1.54,1.18-2.77,2.7-2.79,1.52,0,2.76,1.2,2.77,2.71,0,1.51-1.2,2.74-2.7,2.77-1.51.02-2.74-1.19-2.77-2.68h0Z"/>
  <path class="cls-2" d="m230.27,143.32c-.01-1.5,1.18-2.73,2.71-2.77,1.49-.02,2.74,1.2,2.75,2.7.03,1.53-1.18,2.77-2.7,2.77-1.52.04-2.74-1.17-2.77-2.7h0Z"/>
  <path class="cls-2" d="m229.27,150.65c0-1.5,1.24-2.73,2.74-2.73s2.73,1.23,2.73,2.73-1.2,2.73-2.73,2.73-2.74-1.23-2.74-2.73h0Z"/>
  <path class="cls-2" d="m227.76,157.92c-.04-1.48,1.17-2.73,2.67-2.76,1.53-.02,2.76,1.19,2.78,2.7.02,1.51-1.19,2.74-2.7,2.77-1.52.02-2.76-1.17-2.76-2.72h0Z"/>
  <path class="cls-2" d="m225.68,165.06c-.02-1.49,1.18-2.73,2.71-2.76,1.51,0,2.74,1.18,2.76,2.69.02,1.52-1.19,2.73-2.7,2.76-1.5.04-2.75-1.17-2.77-2.69h0Z"/>
  <path class="cls-2" d="m223.08,172.02c0-1.51,1.22-2.75,2.7-2.77,1.53-.02,2.76,1.17,2.78,2.7.03,1.51-1.18,2.75-2.69,2.78-1.51.01-2.74-1.21-2.79-2.71h0Z"/>
  <path class="cls-2" d="m216.4,185.27c-.03-1.54,1.22-2.76,2.7-2.77,1.5-.04,2.75,1.18,2.78,2.69.02,1.51-1.2,2.74-2.72,2.77-1.5.02-2.75-1.18-2.77-2.69h0Z"/>
  <path class="cls-2" d="m212.35,191.47c-.02-1.49,1.17-2.76,2.69-2.78,1.51-.02,2.75,1.2,2.79,2.71.01,1.51-1.2,2.76-2.71,2.77-1.52.02-2.74-1.18-2.77-2.7h0Z"/>
  <path class="cls-2" d="m208.16,198.58c-.71-1.31-.21-2.98,1.14-3.68,1.34-.71,3-.19,3.7,1.15.69,1.34.19,3-1.14,3.69-1.35.71-3,.18-3.7-1.17h0Z"/>
  <path class="cls-2" d="m202.9,202.92c0-1.52,1.18-2.76,2.7-2.78,1.51-.02,2.76,1.18,2.78,2.7.02,1.5-1.2,2.77-2.69,2.77-1.52.02-2.77-1.19-2.79-2.69h0Z"/>
  <path class="cls-2" d="m197.58,208.05c-.02-1.51,1.21-2.77,2.71-2.77,1.52-.01,2.74,1.21,2.77,2.71.01,1.51-1.19,2.74-2.71,2.77-1.5,0-2.74-1.18-2.77-2.71h0Z"/>
  <path class="cls-2" d="m192.48,214.46c-.96-1.15-.76-2.87.45-3.82,1.17-.94,2.88-.76,3.82.44.93,1.19.74,2.88-.44,3.84-1.18.94-2.91.74-3.83-.46h0Z"/>
  <path class="cls-2" d="m185.83,217.14c-.02-1.52,1.19-2.77,2.72-2.79,1.51-.04,2.76,1.22,2.76,2.71.02,1.51-1.17,2.74-2.69,2.77-1.51.02-2.76-1.18-2.78-2.69h0Z"/>
  <path class="cls-2" d="m179.64,221.82c-.47-1.45.32-3.02,1.75-3.48,1.44-.45,2.98.32,3.45,1.78.46,1.43-.33,2.96-1.74,3.44-1.45.47-2.99-.32-3.46-1.74h0Z"/>
  <path class="cls-2" d="m173.36,222.82c.85-1.25,2.53-1.6,3.79-.76,1.26.84,1.61,2.53.76,3.79-.85,1.25-2.51,1.61-3.77.77-1.28-.83-1.61-2.54-.77-3.8h0Z"/>
  <path class="cls-2" d="m166.51,225.7c.84-1.25,2.54-1.59,3.79-.75,1.26.81,1.61,2.51.77,3.78-.84,1.24-2.53,1.61-3.79.77-1.27-.84-1.61-2.54-.77-3.8h0Z"/>
  <path class="cls-2" d="m159.47,228.07c.84-1.26,2.56-1.6,3.79-.77,1.28.85,1.6,2.53.8,3.81-.86,1.24-2.54,1.57-3.81.73-1.26-.82-1.59-2.5-.78-3.78h0Z"/>
  <path class="cls-2" d="m109.26,35.93c0-1.54,1.22-2.74,2.75-2.74s2.73,1.19,2.73,2.74-1.24,2.71-2.73,2.71-2.75-1.24-2.75-2.71h0Z"/>
  <path class="cls-2" d="m102.08,37.76c0-1.51,1.23-2.73,2.74-2.73s2.73,1.21,2.73,2.73-1.21,2.74-2.73,2.74-2.74-1.22-2.74-2.74h0Z"/>
  <path class="cls-2" d="m95.06,40.17c0-1.53,1.23-2.77,2.72-2.77s2.74,1.24,2.74,2.77-1.22,2.73-2.74,2.73-2.72-1.24-2.72-2.73h0Z"/>
  <path class="cls-2" d="m88.2,43.05c0-1.49,1.24-2.74,2.76-2.74s2.74,1.25,2.74,2.74-1.22,2.75-2.74,2.75-2.76-1.23-2.76-2.75h0Z"/>
  <path class="cls-2" d="m81.61,46.45c0-1.49,1.24-2.73,2.74-2.73s2.73,1.24,2.73,2.73-1.22,2.73-2.73,2.73-2.74-1.22-2.74-2.73h0Z"/>
  <path class="cls-2" d="m75.3,50.32c0-1.51,1.21-2.75,2.71-2.75s2.74,1.24,2.74,2.75-1.22,2.73-2.74,2.73-2.71-1.22-2.71-2.73h0Z"/>
  <path class="cls-2" d="m69.28,54.67c0-1.53,1.23-2.75,2.73-2.75s2.74,1.22,2.74,2.75-1.21,2.73-2.74,2.73-2.73-1.24-2.73-2.73h0Z"/>
  <path class="cls-2" d="m63.59,59.41c0-1.5,1.23-2.76,2.73-2.76s2.74,1.26,2.74,2.76-1.23,2.74-2.74,2.74-2.73-1.22-2.73-2.74h0Z"/>
  <path class="cls-2" d="m58.27,64.6c0-1.52,1.22-2.74,2.75-2.74s2.73,1.23,2.73,2.74-1.24,2.73-2.73,2.73-2.75-1.22-2.75-2.73h0Z"/>
  <path class="cls-2" d="m53.36,70.13c0-1.5,1.21-2.73,2.73-2.73s2.73,1.23,2.73,2.73-1.21,2.75-2.73,2.75-2.73-1.24-2.73-2.75h0Z"/>
  <path class="cls-2" d="m48.87,76.06c0-1.52,1.21-2.76,2.73-2.76s2.73,1.24,2.73,2.76-1.23,2.71-2.73,2.71-2.73-1.21-2.73-2.71h0Z"/>
  <path class="cls-2" d="m44.81,82.25c0-1.49,1.22-2.73,2.72-2.73s2.76,1.24,2.76,2.73-1.24,2.77-2.76,2.77-2.72-1.24-2.72-2.77h0Z"/>
  <path class="cls-2" d="m41.23,88.76c0-1.49,1.21-2.73,2.73-2.73s2.74,1.24,2.74,2.73-1.22,2.77-2.74,2.77-2.73-1.25-2.73-2.77h0Z"/>
  <path class="cls-2" d="m38.15,95.53c0-1.53,1.23-2.74,2.74-2.74s2.74,1.21,2.74,2.74-1.23,2.71-2.74,2.71-2.74-1.2-2.74-2.71h0Z"/>
  <path class="cls-2" d="m35.59,102.49c0-1.53,1.21-2.75,2.74-2.75s2.73,1.22,2.73,2.75-1.24,2.73-2.73,2.73-2.74-1.24-2.74-2.73h0Z"/>
  <path class="cls-2" d="m33.53,109.61c0-1.5,1.21-2.71,2.74-2.71s2.74,1.21,2.74,2.71-1.25,2.74-2.74,2.74-2.74-1.22-2.74-2.74h0Z"/>
  <path class="cls-2" d="m32.04,116.87c0-1.51,1.22-2.73,2.72-2.73s2.74,1.21,2.74,2.73-1.23,2.73-2.74,2.73-2.72-1.22-2.72-2.73h0Z"/>
  <path class="cls-2" d="m31.05,124.23c0-1.52,1.24-2.73,2.73-2.73s2.76,1.22,2.76,2.73-1.22,2.75-2.76,2.75-2.73-1.24-2.73-2.75h0Z"/>
  <path class="cls-2" d="m30.62,131.64c0-1.51,1.23-2.73,2.75-2.73s2.73,1.21,2.73,2.73-1.22,2.74-2.73,2.74-2.75-1.25-2.75-2.74h0Z"/>
  <path class="cls-2" d="m30.76,139.06c0-1.51,1.23-2.74,2.73-2.74s2.76,1.24,2.76,2.74-1.25,2.71-2.76,2.71-2.73-1.21-2.73-2.71h0Z"/>
  <path class="cls-2" d="m31.43,146.44c0-1.51,1.22-2.73,2.74-2.73s2.74,1.22,2.74,2.73-1.23,2.76-2.74,2.76-2.74-1.26-2.74-2.76h0Z"/>
  <path class="cls-2" d="m32.64,153.76c0-1.49,1.23-2.74,2.74-2.74s2.73,1.25,2.73,2.74-1.21,2.73-2.73,2.73-2.74-1.21-2.74-2.73h0Z"/>
  <path class="cls-2" d="m34.41,160.96c0-1.5,1.24-2.74,2.74-2.74s2.73,1.24,2.73,2.74-1.21,2.76-2.73,2.76-2.74-1.21-2.74-2.76h0Z"/>
  <path class="cls-2" d="m36.69,168.03c0-1.52,1.23-2.71,2.76-2.71s2.73,1.2,2.73,2.71-1.22,2.73-2.73,2.73-2.76-1.24-2.76-2.73h0Z"/>
  <path class="cls-2" d="m42.8,181.54c0-1.53,1.22-2.75,2.76-2.75s2.74,1.22,2.74,2.75-1.25,2.73-2.74,2.73-2.76-1.22-2.76-2.73h0Z"/>
  <path class="cls-2" d="m46.61,187.91c0-1.53,1.23-2.73,2.73-2.73s2.75,1.2,2.75,2.73-1.21,2.73-2.75,2.73-2.73-1.24-2.73-2.73h0Z"/>
  <path class="cls-2" d="m50.88,194c0-1.51,1.21-2.74,2.72-2.74s2.74,1.24,2.74,2.74-1.24,2.73-2.74,2.73-2.72-1.22-2.72-2.73h0Z"/>
  <path class="cls-2" d="m55.55,199.78c-.01-1.52,1.18-2.77,2.69-2.77,1.52-.02,2.77,1.17,2.79,2.68.01,1.52-1.2,2.76-2.71,2.77-1.52.04-2.74-1.17-2.77-2.68h0Z"/>
  <path class="cls-2" d="m60.67,205.16c-.03-1.52,1.18-2.76,2.68-2.76,1.51-.02,2.77,1.17,2.78,2.66,0,1.52-1.18,2.77-2.68,2.79-1.52.02-2.76-1.2-2.78-2.7h0Z"/>
  <path class="cls-2" d="m66.13,210.16c0-1.53,1.2-2.77,2.73-2.81,1.5,0,2.73,1.22,2.76,2.75.02,1.49-1.17,2.73-2.69,2.75-1.5.02-2.75-1.2-2.79-2.69h0Z"/>
  <path class="cls-2" d="m72.49,216.26c-.88-1.22-.58-2.94.66-3.79,1.22-.89,2.93-.61,3.81.63.88,1.21.6,2.96-.64,3.79-1.25.9-2.94.61-3.83-.63h0Z"/>
  <path class="cls-2" d="m78.35,217.79c.58-1.41,2.15-2.09,3.56-1.53,1.4.56,2.1,2.14,1.52,3.54-.56,1.41-2.16,2.1-3.54,1.55-1.42-.57-2.09-2.16-1.54-3.56h0Z"/>
  <path class="cls-2" d="m84.61,222.51c0-1.55,1.21-2.77,2.7-2.79,1.52-.02,2.78,1.18,2.79,2.71.01,1.51-1.19,2.77-2.7,2.77-1.5.04-2.76-1.21-2.78-2.69h0Z"/>
  <path class="cls-2" d="m91.52,224.63c.56-1.42,2.14-2.1,3.54-1.55,1.42.56,2.11,2.18,1.55,3.57-.57,1.41-2.17,2.09-3.57,1.53-1.41-.55-2.09-2.16-1.53-3.54h0Z"/>
  <path class="cls-2" d="m98.47,227.27c.53-1.38,2.12-2.08,3.53-1.51,1.4.55,2.08,2.16,1.52,3.54-.55,1.41-2.15,2.08-3.55,1.52-1.38-.55-2.09-2.17-1.5-3.55h0Z"/>
  <path class="cls-2" d="m133.41,42.2c.67,6.53,8.84,4.47,10.91,9.57l.54.45,11.58,13.03c-.29,2.79,3.47,3.73,4.41,6.24-1.44,1.71-4.32,2.4-6.23,2-1.94,2.5.07,5.49-.2,8.37,1.82,3.85-3.64,2.2-3.27,5.75-2.58,1.15.39,4.34-2.47,5.28-1.56.48-4.15-.28-4.24,2,.67,2.23-.66,5.48,2.59,6.26.67.96.76,2.01.19,2.98-5.48,3.86-12.95,2.03-18.15-1.16-1.14-.48-2.11-1.53-3.07-2.5-.77-2.87,2.68-2.39,3.75-4.4v-7.78c-2.39-1.25-1.24-3.75-1.82-5.58-.97-.7-.19-1.26-.76-2.02l-3.17-1.45c-1.17.69.1,1.63-.29,2.6,2.19,5.85,4.03,14.49-.68,19.77-1.07.96-2.1,1.74-3.66,1.34-.58-2.22-.37-4.78-.48-7.1.04-1.54-.24-2.61-.68-3.93-8.53-11.7-17.85-26.22-11.97-40.82,3.35-8.16,11.52-11.43,18.24-16.34,2.29-1.14,4.69-3.25,7.09-.84l1.84,8.25h0Zm19.38,31.59c-1.64-1.24-3.45-1.64-5.58-1.16-1.61,1.73-4.03,2.12-5.76,3.15-.19,4.93-5.37,7.13-8.54,10.21-2.58,4.4.77,10.47-4.14,13.36.1.94.77,1.5,1.17,2.29,4.04,2.69,8.91,4.43,14.1,2.97.86-.28,2.12-1.22,2.01-2.29-4.53-2.21-1.63-7.01-3.46-10.58,1.26-1.41,3.28.71,5.28,0,1.34-.66.8-1.72.8-2.78.28-.65.17-1.62,1.13-1.79l-1.64-1.17c.51-1.53,1.47.18,2.32-.67,0-1.64,2.02-1.26,2.78-1.64-.18-3.25-.66-6.73-.48-9.9h0Zm-14.51,2.47c-.65-2.37-.38-5.18-3.05-5.92-2.69,2.76-6.07,5.44-6.46,9.61.77,1.32.1,3.84,1.65,4.22,2.4-2.7,7.01-3.83,7.86-7.9h0Zm15.87-11.97c-4.51-4.42-8.18-9.31-12.89-13.82-3.26-2.52-7.85-3.96-12-2.33-6.32,1.16-11.05,6.83-12.87,12.68-.57,6.63,3.58,13.17,8.94,16.13,4.72-2.11,6.52-7.86,11.82-9.22.76.58,1.25,1.53,1.34,2.61.49,1.33,1.55,2,2.97,2,3.57-2.2,8.75-2.68,12.48-.49,1.36-.26,4.52.98,4.83-1.33-2.51-3.65-7.13-4.4-10.59-6.89-.09-.86.1-1.65.68-2.31l.96-.19c.98.39,1.44,1.45,1.82,2.29.87.1,1.73,1.64,2.51.88h0Zm-23.72-26.7c-.38-1.43-1.46-2.54-3.47-1.62-6.34,2.58-12.85,6.54-17.07,12.18-5.11,6.56-3.85,15.93-2.01,23.35,3.07,9.78,14.2,16.89,12.67,28.53h.67c3.45-3.67,3.06-9.23,2.11-14.03-.77-3.46-4.14-6.15-3.95-9.73-4.5-5.54-7.96-13.34-4.12-20.25,3.53-6.43,9.98-9.5,16.51-11.33-1.14-2.29-.57-4.58-1.33-7.1h0Z"/>
  <path class="cls-2" d="m148.68,60.64c-1.17,1.14-2.13,2.2-3.77,2.77-1.25-1.13-.38-3.44,0-4.88,1.55-1.07,3.26.48,3.77,2.12h0Z"/>
  <path class="cls-2" d="m70.5,69.57c1.72-.88,1.14-3.46,3.26-3.46,5.47,6.81,7.29,15.47,7.29,24.22l.78-.41c.19-1.73-.78-4.03.87-5.38,7.11,4.89,13.45,12.09,16.14,19.88l.66.18c-.47-2.11-1.73-4.89-1.53-7.37,8.26,3.61,16.59,9.3,22.08,17.3.96.26,2.11,1.5,2.98.75-3.06-2.87-6.64-5.86-8.26-9.7,6.43.59,12.1,4.61,17.27,8.95,1.74,0,3.94-1.2,5.48.26,1.64-.57,2.61-3.74,4.91-2.96l.86,1.51c1.93-1.43,2.49-7.17,5.77-4.99,1.43-1.33,3.28-2.77,5.38-3.07.47.79.66,1.74,1.53,2.32,1.44-1.06,3.07-.46,3.94-2.49.08-1.33,1.54-2.39,2.59-3.27,2.21-1.16,3.35,2.19,4.8,3.08.57-1.94.49-4.71,2.78-5.4l1.16.97c.77-1.92-.97-5.48,1.83-6.9.57-.39,1.34-.2,2.1-.2.87.29.68,1.73,1.83,1.36-.56-1.36.87-2.01,1.34-3,2.79.7,3.35-2.2,4.91-3.74-.28-1.83,1.14-3.17,2.48-4.13,1.83,0,2.2-5.09,4.14-1.84l.95-.44c-1.43-1.64-2.99-3.3-2.3-5.81,1.24-1.78,3.26-.46,4.32-1.61-.48-1.93-2.02-4.42-.39-6.43.87-.87,2.31-.76,3.46-.47.87.67,1.64,1.14,2.32,2.09,1.34-.5.93-2.3,2.5-2.79,1.63.3,2.4,2.12,3.26,3.27.19,1.47-.57,2.5-.3,3.95,1.85.57,1.65,2.2,1.65,3.83-.59,2.12-3.07,2.33-3.95,3.73.87.23,2.03.32,2.3,1.36l-.19.96h-.46c.19-.59-.5-1.04-.96-1.15-.87-.29-2.4.56-2.71-.67.68-2.87,7.49-3.65,3.67-6.54-1.57-1.61,1.05-3.47-.21-5.74-.46-.72-1.26-1.64-2.09-1.84-1.16.87-.6,2.3-1.37,3.27-1.9.48-2.77-3.27-4.88-3.27-1.35-.58-1.16,1.07-2.02,1.44-.09,2.59,3.17,5.1.67,7.29-1.54.59-2.69-2.1-3.93-.2-.96,3.08,4.7,4.79,1.34,7.6-1.25.19-1.53-2.68-2.7-.67.58,2.01,1.25,4.4,2.99,5.56.76-.46.5-1.52.19-2.1,1.73.58,2.03-1.75,2.79-2.79l.2-2.81c.84-.06.19,1.37.94,1.66,1.26-1.45,1.46-3.66,1.65-5.28.39.28.09.95.66,1.16,1.06,0,1.65-.97,2.49-1.34.1,2.7-3.46,2.79-3.46,5.47l1.17.96c-1.17.78-2.9,1.93-3.18,3.48l.67,1.14c-1.14.17-1.89,1.24-2.79,2.03l.49,1.12c1.91-.29,4.03-.96,5.27-2.51.09-.76-.38-1.44-.19-2.29,1.07-1.26,2.78-.88,4.13-1.64v.49c-.67,1.34-3.06,0-3.45,2.09,1.44,1.25.11,2.73-1.16,3.47-2.41.76-5.27.87-6.72,3.46.86,1.04-.58,1.61-.87,2.49l-.47.48c.47,1.26,2.5,1.64,1.34,3.17-.96,2.59-6.04.96-4.6,5.1-.77,1.44-2.21,1.16-3.19,2.12l-2.58-.68c-.49.68,1.26,2.78-.87,2.49-.65,1.86-1.23,3.56-3.25,4.4-4.42-.17-6.33,4.15-10.84,3.88-2.42.19-3.66,2.95-6.15,1.43-1.23,1.82-2.4-.58-3.94.18.87,1.26-.56,2.9-1.42,3.74-2.02.69-3.75.12-5.49-.73-.65,2.58-3.35.97-4.89,1.61-2.02-.19-4.02-2.58-5.96-1.15-1.15,1.64-3.54.88-5.08.67-2.4-1.82-5.19.69-8.05.48-4.92.1-10.09.29-13.56-2.77.4-.5,1.81-.69,1.81-1.85-5.84-.46-12.95-.27-17.09-4.6.88-.19,1.54-.89,2.32-1.34-6.52-.67-12.97-2.69-17.47-7.2,3.54-.77,7.39-.19,10.37-1.34-10.66,1.44-18.25-8.46-23.52-16.15,2.37-1.12,4.13,1.16,6.26.69-.41-1.34-2.51-2.4-2.98-3.93-.67-2.02-2.23-3.74-1.94-6.15-1.33-.77-.18-2.5-.84-3.46-.29-3.35-1.35-6.62-.96-9.98,1.32.56,2.57,2.29,3.92,3.46h0Zm59.24,50.97l-.68-.67c-5.47-.39-11.71-.76-15.93,2.01,4.34.87,9.3,1.34,13.83.48,1.05-.37,2.4-.76,2.79-1.82h0Zm-7.87-2.98c-.48-.48-1.26-.19-1.82-.29v.48c.56-.09,1.34.22,1.82-.18h0Zm21.03-1.44c-.11-.76-.86-1.24-.98-2.04-1.14-.17-1.52,1.47-2.27,1.84.65.69,2.08-.38,2.49.86l.77-.66h0Zm19.58.96c-.57-.96.19-2.38-.78-3.27-.74-.18-1.16.49-1.81.72,0,1.13.48,1.99.66,3.04.69-.19,1.55.4,1.93-.48h0Zm-46.39-2.11c-5.07-2.2-12.68-1.73-17.46.47.59.48,1.32.68,1.99.98,4.91,1.13,11.43,2.96,15.47-.77v-.68h0Zm53-1.17c-.65-.85-1.25-2.19-2.77-1.8-1.07.59-1.16,1.91-1.34,2.97,0,1.73,1.91.95,2.98,1.15.66-.68,1.54-1.24,1.13-2.32h0Zm-6.22-1.34c0-.76-.21-1.52-.68-2.1l-1.15,1.64,1.83.46h0Zm7.87-2.28c-.86-.1-1.06.76-1.17,1.36.58.65.66,2.54,1.83,2.09-.57-1.04-.76-2.19-.67-3.45h0Zm6.72-.3c-1.05-.96-3.55-2.01-4.42,0,.08,1.07-.2,1.45.18,2.32,1.16.86,3.08,1.53,4.23,0v-2.32h0Zm-47.24,5.56c-3.07-4.69-8.08-6.52-12.68-8.25-.31,1.94,2.42,3.17,3.65,4.81,2.7,2.01,5.48,4.5,8.55,5.07l.48-1.64h0Zm-28.81-5.26c-4.32-3.94-11.32-3.18-17.1-2.6,4.53,3.75,11.63,5.38,17.1,2.6h0Zm64.04-2.99c-.38-.37-.75-.96-1.43-.76-.39,1.04.77.96,1.16,1.44l.27-.68h0Zm-9.49,2.3c-1.33-.46-1.33-2.19-2.3-3.25-2.32.67-2.41,3.64-4.61,4.8l-1.84-1.16c-1.05,1.73-2.87,3.37-1.82,5.56,1.25.48,1.25-1.81,2.3-1.14,2.4.1,4.05-1.71,5.28-3.66.76.31.39,1.07.49,1.55l2.12-.65.18.92-3.27,1.62c.29,3-4.03.5-5.29,2.7l1.47,1.64-.52.48c-.65.21-.95-.27-1.43-.67-1.12-.18-3.18-.77-3.83.5.28.46,1.25.74.87,1.53l-2.8.27,1.93,1.82c2.78,1.64,1.91-1.72,3.45-2.79,1.44-.27,2.12,1.34,3.18,1.85,1.62-.29,3.07,1.72,4.4,0-.67-1.07-2.19-1.15-2.3-2.68,2.02-3,4.51,1.24,6.91-.5,1.07-2.11-1.82-2.69-2.29-4.15l3.16-2.26c.69-.78.77-2.41-.19-3.09-1.06-1.62-2.3.19-3.26.76h0Zm8.54-6.02c-.38-1.36-1.92-.4-1.82.46.56-.17,1.75.37,1.82-.46h0Zm-50.21,8.07c-2.89-5.31-8.85-10.18-14.79-11.75.66,3.27,2.7,6.05,4.91,8.54,1.71,2.03,2.76-2.67,5.28-1.42,2.39.86,2.11,3.57,2.11,5.28.87-.09,2.02.58,2.5-.65h0Zm68.16-16.35c-.86-1.82-3.26-.57-3.83-2.59-1.53,1.06,1.17,3.18-1.46,3.95-1.33-.41-2.01-3.07-3.63-2.02-2.12,1.92,0,4.42,0,6.61-.79,3.27-3.18-.1-4.14,0-.77,1.55-.77,3.55-.77,5.1l1.17.19c1.33.18.86-1.34.76-2.02.49-1.16,1.36.18,1.82.18,1.72-1.34,2.11-3.36,2.5-5.25.66-.69,1.63.16,1.63.94,1.24-.27,2.76-.86,3.27-2.32,1.54.79,2.94-1.52,4.32-.74-.21,1.05-1.66,1.72-2.32,2.12l.94.67c-.84,2.57-5.56-.39-6.21,2.95.85.19,2.2-.27,2.48.8-.56.55-1.33.73-2.28.65-.97.59-2.5,1.16-2.5,2.5,1.33.39,2.5,2.22,4.41,1.82,1.45-.76-.86-1.16-.49-2.03,1.94-3.54,4.83,2.71,6.93-1.44,1.06-2.49-3.17.4-2.33-2.49,1.94-2.03,5.5-.56,6.92-3.27l-.47-.38c-3.84-1.05,1.53-2.79-.19-4.88-2.3-1.82-4.51.59-6.54.94h0Zm-103.88.2c-.76-3.37-5-2.41-7.4-3.95l-.2.49c4.61,6.34,10.57,12.66,18.91,11.32-1.44-7.29-6.14,2.9-8.54-3.45-.09-1.15.11-2.2.19-3.25-1.24.39-2.11-.47-2.97-1.15h0Zm14.02-.2c-2.5-3.25-5.96-6.63-9.22-8.54-.77,5.37,3.16,9.22,6.05,13.36,1.63,1.72,3.94,2.57,5.94,2.77l-.17-1.64c-.12-2.01-1.44-4.13-2.6-5.95h0Zm95.24-8.35c-.38-.96-1.13-.96-1.91-1.52-1.44.38-1.07,2.01-1.15,3.14.86.39,1.74.97,2.78.7l.28-2.32h0Zm-113.38-7.79c-.68-3.93-3.85-7.21-6.44-9.89.76,6.06.57,13.06,5.48,17.67.84,0,1.82,1.07,2.57,0,.5-2.98-.75-5.26-1.61-7.79h0Zm1.61-7.57l-2.29-3.45c-1.62.17-1.54,1.8-1.9,2.97,3.63,3.84,4.3,8.94,6.5,13.35h.68c.47-4.9-1.53-8.85-2.99-12.87h0Z"/>
  <path class="cls-2" d="m151.85,74.94c-1.16-.77-2.8.29-3.96.84,0,.8.8.42,1.17.48.86.63,1.16-1.13,1.9-.17l-.94,2.03c-1.74-.49-3.96-1.54-4.8-2.34,2.3,0,4.88-3.15,6.63-.84h0Z"/>
  <path class="cls-2" d="m148.38,172.88c-.39-.48-1.64-.19-1.16.67h.67l.49-.67h0Zm-28.12.19c-.6-.86-1.86-.3-2.7-.46v.46c.84,0,1.91,1.07,2.7,0h0Zm38.28.48c-.56-.39-1.34-.19-1.82-.48v.48c.69.09,1.26.69,1.82,0h0Zm-6.7.19l1.62-.19-1.14-.48-.48.67h0Zm3.24,0v-.86h-.29l.29.86h0Zm48.58.29c-.09-.8.2-1.74-.19-2.31l-.27,2.31h.46Zm-6.43-.49h.2l-.2-2.28v2.28h0Zm-3.25-3.37c.1,1.09.83,2.56,0,3.37.19.38.56,1.07,1.14.88.29-1.27.38-2.8.2-4.25h5.85l-.28,4.06h.48c.28-1.53.58-2.93-.15-4.06h4.56l-.26,3.86h.46l-.19-3.86h2.3v4.06c.28-1.26.3-2.72.02-4.06h4.33l-.22,1.09c1.72.64.29,1.97.2,2.97.48.3,1.13.76,1.62.18.46-1.23.55-2.76.5-4.25h2.22c.01,1.7.21,3.35,1.01,4.74.97.46.77-.78,1.14-1.17-.76-1.26.15-2.35.36-3.57h1.06c.04,1.2-.26,2.53.13,3.57.09,1.07.09,2.2-.87,2.6l-33.21-.29c.39-1.13-.16-3.83,1.62-4.13.2.58-.39,1.55.49,1.83.76.29.56-.58.88-.86-.72-.92-.32-1.82.26-2.7h4.34Zm-17.57,0c.53.5.35,2.18,1.44,1.28l.52-1.28h.68c.11.64.37,1.24.91,1.73.18,1.07-.18,1.92-1.15,2.33.46.46,1.26.95,1.83.46,1.2-1.32.55-2.88.41-4.53h2.81c.36.94.47,1.85-.24,2.7-.18.59.28.86.49,1.36,1.32-.11,1.05-1.48,1.43-2.33h.39c.48,1.25-.57,2.71-1.54,3.47-1.74,1.92-4.04.08-6.25.67l-.66-.67c.66-1.05,2.1-1.34.86-2.77-.67,1.32-2.87,1.22-3.93.27.08-.59.29-1.34.94-1.42l.2-1.28h.88Zm-10.34,0c.41.8.56,1.8,1.89,1.28l-.09-1.28h1.23c.03.85.08,1.72,0,2.7-2.2-1.24-7,2.87-6.62-1.9l.67-.41-.11-.39h3.03Zm-56.42,0c.79,1.07-.74,2.7,1.38,2.89,1.24.29,2.38.57,3.27-.19l-2.79-.48c-.28-.49-.47-1.55.28-1.83l.1-.39h37.51c.48.67.83,1.36,1.08,1.95.03-.71.25-1.32.5-1.95h2.99l.66,1.28c1.06.19,1.48-.48,1.84-1.28h4.11c.52,1.24,1.18,2.45-.01,3.57,2.88.5,6.16-.11,8.54,1.45-1.52.86-3.54.67-5.47.67l-22.84-.48c-1.25-1.54-4.22.08-5.78-1.34-.85.67-2.19.88-3.26.39l-1.14-1.19c-1.45,3.19-4.43-.25-6.42,2.14-9.8-.57-18.27.19-27.38-.67,1.43-2.58,4.6-.96,7.31-1.47.21-.94,1.07-1.97,1.64-3.06h3.89Zm-11.46,0l-.04.59c.6,0,1-.23,1.33-.59h3.79l.64.59c.38,1.36-1.17.88-1.64,1.64-1.24-.28-2.87.59-3.64-.68-1.07-.35-1.54,1.34-2.13,0-.09-.48-.05-1.01.05-1.55h1.62Zm-52.02,0c.25,1.49-.49,4.02,1.77,1.73.06-.6.1-1.17.14-1.73h2.37c0,.63,0,1.24-.03,1.73l.51.7c.57.55,1.22.08,1.6-.49-.91-.73-.88-1.34-.56-1.95h4.7c-.08.76.03,1.65.68,1.95v-.67l-.1-1.26,1.74-.02c-.07.59.12,1.4,0,1.95h.68c-.09-.6.03-1.32,0-1.95h3.63c-.01.77.19,1.6.31,2.22h.49c.15-.62.22-1.45.2-2.2l1.61-.02v2.43l.68-.49c-.26-.59-.23-1.28-.23-1.95h1.69l.16,2.22.18-2.22h1.41c-.1,1.09.02,2.13.93,2.7-.19-.98.12-1.82.4-2.7h5.24c-.17,1.11-.87,2.19.6,2.43.52-.78.79-1.58.91-2.43h2.23c.26,1.16.13,2.46,1.45,2.22-.37-.8-.39-1.55-.23-2.22h3.17c-.35,1.36-.92,2.58.8,3.57.79,1.07,2.5-1.05,2.5.96-1.43,1.05-3.17-.16-4.6.21l-38.22-.49c-.4-1.31-.25-2.81-.26-4.25h1.47Z"/>
  <path class="cls-2" d="m61.96,170.11l.29-2.12h-.49v2.12h.2Zm-7.6-1.46c1.34,0,.32-1.12.19-1.62v-.19s0,.19,0,.19l-.19,1.62h0Zm18.64-1.81l-.21-1.15v1.44l.21-.29h0Zm19.4-2.33l-1.34-.19v.51l1.34-.32h0Zm-37.34-.47l-.86-.2v.99h.17c.31-.32.97-.09.69-.79h0Zm16.41-.37c-.74.17-.67,1.43-.28,2.02.47-.48.2-1.37.28-2.02h0Zm51.85,1.34l-.49-.19v1.34l.49-1.15h0Zm-2.11,0l.48-.51c-.96.32-2.4-2.57-2.97-.19l2.49.69h0Zm89.68.96l-.5-.28v.65h.21l.29-.37h0Zm-67.1.37c0-.56.08-1.83-.87-1.32-.48.77-.3,2.02.65,2.27l.22-.94h0Zm51.16.5c-.1-.77,0-1.53-.67-2.01-.38.86.29,1.51,0,2.3l.67-.29h0Zm-33.88-1.36c.19-.85,1.71-.46,1.62-1.44-.84-.77-1.62.79-1.62,1.44h0Zm-13.84-1.16l-.66-.48v.99l.66-.51h0Zm72.08,5.85l.04-.77h.96l.06.77h-1.06Zm-40.92,0c.11-1.64-1.32-3.59.25-5.16.65-.28,1.16.46,1.34.96-.48,1.12-1.09,2.77-.92,4.2h-.68Zm-133.67,0l-.03-.77c1.04-.41,1.38.05,1.5.77h-1.47Zm175.87-7.13c-.07,1.16-.25,2.31-.28,3.3-.29.59.96,1.93-.49,2.31h-.47c-.96-1.92,1.24-4.61-1.82-5.27l-.68.66c.16,1.98-.07,4.12-.05,6.13h-2.22c-.05-.99-.13-1.99-.22-2.89l1.34-.94c-.17-1.03-1.42-1.6-2.3-2.02-1.54,1.49-.76,3.83-.93,5.85h-4.33l-.02-.07v.07h-2.3v-.07.07h-4.57l-.04-.07v.07h-5.85l-.2-1.21c-1,.06-1.21.56-1.14,1.24l-4.34-.02c.96-1.45,2.34-2.69-.66-3.34v-.87c.77-.76,1.82,1.52,2.5-.28.38-1.54-2.1-.59-1.64-2.31.85-.19,2.13.42,2.63-.33h28.09Zm-32.88,0c-.47.56-.8.94-.84,0h.84Zm-7.73,0c.33.63.81.92,1.64,1l.74-1h.74c1.03,1.34,2.34,1.97,4.27,1.97.09.86-.09,2.11-.66,2.98-.39-1.36-1.54-.6-2.59-1.15-.49-.5-1.06.29-1.66.45.35.92,1.03,1.9,1.41,2.89h-2.81l.07-1.52c-1.15-1.43,1.43-4.02-1.33-4.33-.39-.33-.88-.71-.8-1.28h.97Zm-13.87,0c.71,1.3.76,3.44,2.38,1.78l.11-1.78h1.17l.05.12c.09.87-1.25,1.93.28,2.52,2.13.48,3.37-2.81,5.76-1.65l.12-1h1c-.49,2.3.2,5.01-.63,7.07l.1.07h-.88c.11-1.34-.05-2.78-1.33-3.34-.88,1.15-2.5,1.15-2.99,2.57-1.15-.67.3-2.96-1.64-2.57-.49,1.15-.51,2.21-.48,3.34h-1.23c.18-1.32.87-2.6-.59-3.54l-1.84,2.77.62.77h-3.03c-.34-1.07-.61-2.02-1.04-3.05-.85-.1-1.25.87-1.82,1.34-.02.58.16,1.14.39,1.71h-4.1c.28-.65.48-1.44.93-1.91-.77-.67-1.45-1.34-1.45-2.3l.97-1.14c-.2-.71-.14-1.27,0-1.78h9.16Zm-51.72,0l-.55.8c.93.38,1.43-.23,1.98-.8h9.21l.33.33.32-.33h4.8l-.03.8h1.14c.24-.63-.36-.63-.73-.8h18.9c.56.44,1.21.8,1.61,1.28l.28-1.28h2.89c.47.65.72,1.17-.58,1.47,3.15,1.38-.3,3.46.03,5.66h-2.99c.31-.81.66-1.68.66-2.69-.2-.56-.85-.92-1.44-1.15-.98.79-1.25,1.82-1.52,2.79l.72,1.05h-37.52c.38-1.55.34-3.42-1.26-4.2-.76-.76.2-1.34.67-1.46,1.17-.39.6-.92.29-1.47h2.76Zm-5.6,0l-.04.63c3.55,2.3-2.03,3.45.48,6.13l.45.37h-3.89c.65-1.27.89-2.49-.89-3.54,0-1.18,1.24-2.37.34-3.59h3.55Zm-18.54,0c.15.27.4.4,1.01.12l.14-.12h1.3c.6.44,1.27.76-.07,1.47,1.15,2.42,1.91-2.09,3.06.32.59,0,1.24-.09,1.34-.79l-.57-1h1.25c.04,1.17.22,2.14,2.13,1.97-.24-.8-.1-1.43.16-1.97h3.62l-.61.8c2.79,2.1-1.24,4.36.3,6.33h-3.79c.51-.55.8-1.34,1.15-1.91-.67-.98-1.23-2.03-2.49-2.1-1.42,1.17-.12,2.57.04,4.03l-1.62-.02c.38-1.8,1.43-3.61-.71-4.49-1.07.55.3,2.3-1.17,2.58-.65-1.14-1.71-1.93-2.99-2.58-1.14.55-.74,1.71-1.14,2.58-1.53.38-1.43-3.44-2.79-1.14.09.66,0,1.34-.48,1.84.4-1.84-2.77-4.33,0-5.12.86.31-.2,1.94,1.15,1.64,1.21-.67.96-1.59.79-2.43h.97Zm-11.55,0c.62.33,1.49.27,2,.8l.99-.8h2.06l.12.12.38-.12h.74c-.88,1.42,1.41,3.32-.44,4.74.32.84.17,1.62-.05,2.41l-3.17-.02c.53-2.15,2.89-3.86,1.86-6.13-1.06-.09-.67,1.27-1.64,1.65-2.49-.86-1.53,2.09-2.78,2.96.87.18,1.17.81,1.33,1.52h-2.23c.25-1.85-.24-3.86-.24-5.66-.74-.47-.39-.96,0-1.47h1.05Zm-3.27,0c-.79.17-1.95,0-1.64,1.28,2.3.99.41,3.75,2.51,4.8l.08,1.05h-5.24c.33-1.01.62-2.03.06-3.34-.86-.21-.77.76-1.14,1.15-.04.63-.2,1.4-.25,2.18h-1.41v-.07l-.36-.7.03.77h-1.68c0-.65,0-1.34-.29-1.91h-.17v1.91h-1.61c-.02-.65-.07-1.27-.2-1.71-.61.39-.8,1.06-.8,1.71h-3.63l-.21-.77-.47.77h-1.74l-.56-.07v.07h-4.71c.46-.9,1.58-1.8,1.07-3.05-.98-1.25-.31-2.11,0-3.45l-.29-.63h22.65Zm-25.18,0l-.26.33c-.49.77-.27,1.64.76,1.64-.36,1.39-.29,3.42-.26,5.18l-2.37-.02c.17-2.54.09-4.6.05-7.13h2.09Z"/>
  <path class="cls-2" d="m125.32,161.06l-.16-.65v.94l.16-.29h0Zm-3.45-.65c-1.15-.96.38-2.62-.48-3.47-.78,1.54-1.54,3.47-.86,5.29,1.14.11.86-1.26,1.34-1.82h0Zm1.63.19c-.08-.97-.77,0-1.14,0h1.14Zm20.05-1.82h-.27v.67h.27v-.67h0Zm-.27,0h.27-.27Zm-19.78.67v-.67h-.68c-.57.48.49.48.68.67h0Zm39.39,2.78c.28-1.55-.21-3.28-1.36-3.94-1.06.88-2.77,1.9-2.11,3.74.96,2.41,2.3-.68,3.47.2h0Zm19.45.82l.62-.16.12.16h-.74Zm-3.35,0v-.16s.81-.19.81-.19l.16.35h-.97Zm-3.03,0l.08-.52.96.36-.04.16h-1Zm-7.38,0l.06-.82,1.11.82h-1.17Zm-72.15,0c-.27-.79-.26-1.72.57-2.17l.18-.28c.5.68.46,1.61.5,2.45h-1.25Zm-5.06,0c.31-.46-.21-1.49.86-1.29-.38.63.01.99.44,1.29h-1.3Zm-2.12,0c-.15-.66-.21-1.29.63-1.7l.34,1.7h-.97Zm-5.02,0l1.06-.35-.32.35h-.74Zm-2.56,0c.96-.52,2.05-1.02,1.7-2.17.77.29.59.96.3,1.65l.05.52h-2.05Zm-4.05,0l.46-.82.58.82h-1.04Zm134.01-7.1l-.57,1.18-.47-.38-.11-.82h1.14Zm-15.4,0c-.61,1.25-.57,3.26.05,4.46l.49-.21v-4.24h4.11l.02.03c-.4.2-.79.78-1.17,0-.18.67-.66,3.06.49,3.95,1.62.19,3.93.75,5.3-.48.61-1.15.53-2.33.29-3.5h4.33c.12,1.11-.33,2.59.44,3.5,2.79.87,1.93-2.23,2.97-2.69l-.7-.81h2.98l.04,1.48c-.2.86.31,1.52.95,2.02.97,0,1.65-.67,2.79-.41.93,1.07,1.09,2.52.96,4.01h-28.09l.16-.35c-.29-1.63-2.12-.66-2.99-.66-.74-.35-1.44.45-1.96,1.02h-.85l.04-1.02c1.82-.57,3.83-1.62,5.76-1.44,1.61-1.4,1.81-2.99,1.61-4.64h1.97Zm-7.16,0l-.08.52-.8-.52h.88Zm-1.11,0c-.42.64-1.22.13-1.73.32-.89.58-.32,2.02-1.47,2.02.14-.73.08-1.57-.15-2.34h3.34Zm-33.55,0c.87.47,2.57,1.66,2.35-.01h4.25s-.15.33-.15.33l.48.49.87-.29-.32-.52h12.99v.32h.46v-.32h8.06l.2.52-2.29,2.31c-.59-.4-.11-1.55-1.18-1.64-.08,1.64-1.53,2.03-1.33,3.74l-.96-.68c-.39-1.03,1.41-2.09-.2-2.77-.86.58-1.14,2.41-1.82,3.17-.89-.58.96-2.67-.96-2.67-.96.29.07,2.1-1.34,1.53l-.97-.85-1.34,2.96c-1.25-.79.59-2.01-.67-2.78-.58.27-1.44.85-1.44,1.64l.29.19-.49.46c-.08-1.33-.76-2.39-1.62-3.45-1.64.98-.39,3.55-2.1,4.62l.9.82h-9.16c.28-.99.85-1.84.48-3.32-.48-.56-.96-1.73-1.81-1.44-.69.88-1.57.96-1.45,2.12-.99.96-.18,1.89.37,2.64h-2.89c.4-2.08.47-4.18-.94-5.91.48-.48.96-1.07,1.65-1.15l-.47-.03h2.55Zm-34.19,0l1.18.32v-.29l-.05-.03h4.74l-.93,1.18c.9.63,1.16-.55,1.79-1.18h2.7c.46.44.9.99,1.44,1.18l1.02-1.18h2.21l1.4,1.18,1.24-1.18h2.57c.24.57.9,1.58,1.74,1.66.31-.79-.71-1.27-1.35-1.66h5.66c-1.79,1.2-.58,4.38-.66,6.28l1.16-.2c-.18-1.15.59-2.78-.66-3.44-.74-.98.1-2.23.92-2.64h2.53v.03c3.57,1.34-.96,3.06-.16,5.08-.1.93.41,1.51,1.06,1.99h-18.9l-.22-.16-.17.16h-4.8l.16-.16h-.97l.14.16h-9.21l.61-.52c3.73-1.36-1.1-4.42.35-6.57h3.48Zm-15.57,0h4.84l1.14.52.84-.52h3.25l.91,1.18c-2.03,1.14-.71,4.19-1.28,5.91h-2.76c-.21-.38-.26-.73.57-1.02.27-1.92-.2-3.55-1.85-4.6-1.88,1.3-1.53,3.69-1.57,5.62h-3.55l-.14-.16c.86-.19,1.82-1.12,2.09-2.01.11-1.62-1.52-2.96-2.57-3.74-1.54.78-.79,2.98-1.62,4.22l.76.68.4-.27.28.27-.83,1.02h-3.62c.69-1.32,2.28-2.17,1.45-4.01l-1.17.89c-.75-.97.6-3.46-1.6-2.99-.97.57-.59,2.23-1.65,2.31-.18-.59-.38-1.47-1.14-1.64-.88.39,0,2.41-1.64,1.64-.47-.59.1-1.55-.47-2.12l-1.52.97-1.17-1.34-.77,1.53c-.86-.19-1.24-1.35-1.33-2.31l-1.17.96c0,.77.67,1.73-.19,2.31h-.29c.22-1.11-.62-2.13-1.05-3.3h18.4Zm-19.33,0l-.31,1.18-1.21-1.18h1.52Zm-4.02,0l.25.81-.87.18-.31-.99h.93Zm-9.15,0v.52s-.2-.52-.2-.52h.2Zm-17.76,0l-.03.03-.03-.03h.06Zm-2,0l-.12.81c.47,1.34,2.02.18,2.78.85.61-.33.44-1.27.83-1.66h2.42c-.08.64-.03,1.33.49,1.97,1.92.67,4.22.56,6.44.85,1.16-.49,1.21-1.68,1.13-2.82h2.3c.05,1.22.31,2.38,1.17,3.5,1.44.39,1.91-1.44,2.31-2.02.08.78.65,1.52,1.35,1.82l1.82.19c0,1.43-2.88,0-2.31,2.1.96.48,2.87-.09,2.79,1.33l-.39.16h-22.65c-.57-.7-1.85-.54-2.53,0h-2.09v-1.29c-1.26-1.74-2.3,2.47-3.46,0,.29-.89-.68-2.59.96-2.51l.21-.96c-.38-.37-1.35-.29-1.16-1.16,1.81-.55,4.48.33,5.04-1.2h2.68Z"/>
  <path class="cls-2" d="m96.05,155.12h-.19v.67l.19-.67h0Zm-1.54-.48l-.28-.97c-.29.4-1.24.88-.86,1.64l1.14-.67h0Zm-2.28-1.34c-1.18-.34-1.09.63-1,1.32v.69-.69c.33-.41,1.32-.41,1-1.32h0Zm-2.34-.97l-1.13.49c-.51.57-1.06,1.52-.51,2,.79-.68,2.12-.96,1.63-2.5h0Zm-2.58-.19c-.29-.31-.29-.96-.85-.77-.58.96-1.92,2.21-.77,3.27.2-.97,1.53-1.55,1.62-2.5h0Zm90.56,2.68c-.09-.48-.49-1.53-1.34-1.15v.8c.47.36.47,1.41,1.34,1.32v-.96h0Zm2.79-.68c0-.56-.68-.66-1.17-.66v.66c.11.6.87.98,1.17.68v-.68h0Zm26.95,0l-.17-1.32-.96.85.66.8.47-.33h0Zm-20.25-2l-1.12-.77c-.42.77-1.85.47-1.47,1.63.86-.28,1.64-.77,2.59-.86h0Zm2.99-.77c-.69-.4-1.55-.08-2.32-.19.48.28.96,1.55,1.83,1.15l.49-.96h0Zm15.48,4.58c-.23-1.21-.64-2.41-.69-3.62,1.13-.87,1.99-3.35,4.12-2.1,0,1.52,1.44,2.96-.29,4.25.85.25,1.13.81,1.18,1.48h-4.33Zm-73.72,0l.14-.16c.69-.71,1.42-.38,2.08.16h-2.22Zm-5.15,0l.49-.35c.92-.72,1.57-.25,2.21.35h-2.7Zm-60.59,0c-.1-1.83-.57-3.55,2.31-2.46,0,.82-.02,1.65-.01,2.46h-2.3Zm-10.48,0l.8-.16.97-.19c-.19-1.05-3.17-.77-1.93-2.6.77-.46,1.74-.97,2.6-.46.73,1.04.14,2.22-.01,3.41h-2.42Zm160.68-7.12c-1.22,1.91-.88,4.66-.73,7.12h-2.98l.06-.16c.28-.56.86-.48,1.43-.48v-.48c-.39.41-1.15.41-1.43-.19l1.43-1.15c-2.29-1.07-2.32.92-2.72,2.46h-1.14c-.13-2.65,2.1-4.14,3.85-5.72.19-2.41-1.92,1.06-2.59-1.14l-16.14-.19c-.1.46-.87.93-.19,1.33l2.3-.4c2.21.2-.49,2.41,1.35,3.18l-2.31,1.64h3.26v-2.1c.47-.3.76-1.26,1.62-.9,2.49,1.09-1.17,2.57-.77,4.31h-4.11s0-.15,0-.15h-.49l-.05.16h-1.98c-.22-2.19-1.16-4.54-.46-6.87l-.28-.29,23.04.04h0Zm-43.02,0h-1.01,1.01Zm-8.11,0c.02.63.02,1.29-.63,1.67-.49.22-1.36.88-1.64,0,.32-.6.4-1.14.33-1.67h1.93Zm-4.56,0l-.5.73c-2.12,1.68-2.4.74-2.46-.77l2.97.04h0Zm-6.66,0c-.3.57-.69,1.05-1.24,1.4-.71-.24-.73-.81-.67-1.44l1.91.04h0Zm-5.61,0c-.38.55-.8,1.01-1.39,1.4l-.48-.4-.17-1h2.05Zm-4.44,0l-.12.06-.08-.1.19.04h0Zm-5.75,0c.63.46,1.31,1.01.27,1.67-1.06.97-1.47-.67-1.55-1.41l-.89-.29,2.17.04h0Zm-18.22,0l.06.06c0,.66-.8.76-1.37.66l-.28-.77,1.59.04h0Zm-5.73,0c-.12.38-.44.67-1.15.73l-.64-.73h1.79Zm-5.71,0l-.43.73c-.92.26-1.24-.18-1.49-.73h1.92Zm-5.73,0l-.28,1c-.56,0-1.05-.27-1.33-.74l.05-.29,1.56.04h0Zm-14.64,0c1.49.63,3.08,1.07,4.68,1.4,3.92.18,6.52,2.5,10.65,1.61.29-.38.08-2.01,1.34-1.61.67.18.57,1.14.96,1.61l8.92.31c.4-.68.1-2.22,1.43-1.92.6.58.97,1.14,1.17,1.92,3.46,1.34,2.49-2.41,4.98-2.78l-.32-.53h1.16l-.06.25.25-.25h2.19l-.6.06.45,1.13c-.28,1.72-2.18.47-3.07,1.15v.66c7.31.79,13.76.6,21.71.31-.59-1.84-3.1-.19-3.94-1.92-.76-.26-.32-.98-.08-1.4h.28l.76.53.24-.53h1.65l-.25.25c.87,1.64,4.12.74,3.15,3.25,1.55-.29,4.15.76,4.15-1.61l.95.46c-.09,1.82,2.03,1.26,3.27,1.36.38-.7.87-1.74,1.82-1.82,1.15.08.38,1.32.85,1.82,1.45-.4,4.53,1.24,3.95-1.57,1.44-.66,1.16,1.07,1.83,1.57,1.43.36,3.74.55,3.45-1.57l1.16.4c.37.87-.59,1.07-.69,1.63,1.66-.18,2.72-1.93,4.62-1.37,1.24-1.91,3.18-.18,4.9-.92.89-.97,1.86-1.51,2.9-1.89h12.82l-.36.25-.37,6.52c-.69.25-1.91-.52-2.24.35h-.89l-.15-.16-.07.16h-3.33c-.22-.81-.63-1.52-1.19-1.98-.83.6-.36,1.31-.03,1.98h-8.06v-.16l-.46-.19v.35h-18.13l-.03-.16h-2.58l.26.15h-2.55c-1.18-.17-2.84-.78-3.01,0h-2.53l.41-.16-.37-.19-.79.35h-5.66l-.46-.35.08.35h-2.57l.38-.35-.67-.48c-3.32.59-8.09-1.16-10.57.83h-4.74c-.47-.49-.93-1.12-1.78-.83l.65.83h-3.48l1.02-.83h-3.65l.61.83h-3.25l.32-.83c-.96-.11-2.02.19-2.78-.29l.48,1.12h-4.17l.91-.83h-2.5l.92.83h-18.4l-.29-1.12-.64,1.12h-1.52l-1.3-1.31c.67-.97,1.91-2.1,2.03-3.46-.49-1.15-1.35-.38-2.03-.21-.96-.99-2.01-1.76-3.21-2.14h9.11Zm-12.04,0c-.49.63-.66,1.47-.57,2.35,1.91-.96,3.27.28,5.28.46l1.16.2c.32,1.65-1.09,2.66-.93,4.11h-.92s-.46-1.47-.46-1.47l-1.14.36-.68-1.15-.46.97c-1.17.19-.5-1.34-1.56-1.34-1.15.28.21,2.01-1.15,1.82-.74-1.94,1.15-4.15-.28-5.76v-.57s1.73.04,1.73.04h0Zm-4.05,0l-.16,7.12h-.21c-.6-2.08.1-4.9-.49-7.12h.86Zm-20.19,0c1,.67,1.64,1.91,2.44,2.35,0,1.61.19,3.31-.17,4.77h-.06c-1.81-1.35.99-3.82-1.59-4.77-1.32,1.33-.27,3.02-.35,4.77h-2.68c.13-.44.12-1.08-.12-1.98-.32-1.76.1-3.54.08-5.14h2.45Z"/>
  <path class="cls-2" d="m105.74,141.94h-.87v.51h.87v-.51h0Zm-.87,0h.87-.87Zm103.9,4.83c-.78-.67-2.3-.67-2.3.28l2.3-.28h0Zm-46.56-3.83c-.28-.29-1.24-.48-1.15.17l1.15-.17h0Zm-21.97,5.89l.08-.17.19.17h-.27Zm60.67-7.15c.28,1.79-.56,4.05.95,5.37,2.43.49,3.85-.48,4.8-2.3.08-1.04.08-2.05.02-3.07h4.03c-.12,1.55-.23,3.12.18,4.42,2.02-2.59,1.82,2.48,4.33,1.44v-.77c-2.23-1.48-1.63-3.3-1.15-5.09h1.79c.04,1.42.12,2.87.02,4.21l1.92,1.65-1.24,1.24-23.03.05-1.49-.05-12.82.05c3.5-1.29,7.67-.36,10.94-2.94,2.39,2.03,7.29.97,10.75.88v-.2l-2.99-.19c-.75.49-.94-1.07-1.64-.27-.55.46-.84.37-1.34-.21.4-1.24.68-2.73.7-4.21h5.27Zm-7.01,0c-.7.57-.48,2.16-1.91,1.92.12-.68.1-1.31.04-1.92h1.87Zm-3.72,0c.05.64.08,1.3-.01,1.92l-1.16.66c-.38-.54-.38-.74,0-1.32l.19-1.24.99-.02h0Zm-2.14,0c.03,1.11.03,2.16-.48,3.07-1.13-.44-.94-1.75-.89-3.07h1.37Zm-2.01,0c.19.81.39,1.72-.29,2.39-1.22-.2-1-1.37-1.05-2.39h1.34Zm-74.91,0l-.97.46.89.32.76-.77h4.19l-.73.46.21.32c1.21-.2,2.67.37,3.24-.77h1.83c.3.64.57,1.26,1.63.77l-.54-.77h2.79l-.41.96c.77.4,2.51.46,2.51-.88l-.05-.08h2.02l-.16.46.76.32.64-.77h3.69v.26l.27-.18v-.06s3.09-.02,3.09-.02c.5.4.86,1.15,1.71.77l-.32-.76,2.56-.02-.12.26.85,1.17c.69-.17,1.74.41,1.83-.46l-1-.94,3.49-.02-.38,1.26c.83.1.72-.76.99-1.24l2.24-.02.9,1.26c.97.26,2.04-.32,2.8-1.24l3.11-.02.33.26.15-.26h3.5l.96.08.39-.08h3.08c.62.08,1.26.1,1.83.02l2.33-.02-.03.26c-.39.7-1.07.6-1.64,1,5.08.26,9.98.17,15.46.17.58.3,1.44.88,1.44,1.64-.28.96-1.34,0-1.44.46.94-.1,1.34.89,1.64,1.56-1.07,1.15-2.7-.2-3.96-.67-.36-2.12-3.05-.8-4.59-1.17,2.02,1.44-.77,2.68-1.16,3.73l-.18.17h-1l-.62-2.06c.17.57-.31.77-.49,1.15l-.67-.21c-.09-1.15-.5-2.79-1.85-2.29-.37,1.34-2.18,1.34-3.25,2.11l-.22,1.29h-1.94c-.11-1.17-.87-2.16-1-3.4-.78.17-1.44,1.24-2.12,1.83l.5,1.52-2.97.05c-.08-1.45.06-3.42-1.18-3.9-.67-.18-.47.5-.76.67-.8.98-1.15,2.22-1.74,3.23h-1.91l.02-1.11c-1.27-.67-.39-3.46-2.32-2.79-.37,1.3-.71,2.73-1.4,3.9h-2.05l-.68-4.08c-.57-.2-.78.28-1.17.46-.94,1.14.78,2.82-.56,3.62h-.19l-.82-.05-1.66.05c.16-.9-.95-1.62-1.19-2.26-.28,1.36-1.72.88-2.5,1.64l.61.62h-2.17c-1.34-.67.88-2.05-.27-3.23l-1.91,1.66c-1.93.19-1.93-2.14-3.46-2.33-.2.77.67,1.64.77,2.61-.49.39-.77.85-1.44.67l-.2-.67c-.97.85-2.7-.67-3.76-1.17v.4c.48.65.33,1.72-.24,2.06h-2.19l.13-.17-.2-.73-.12.9h-1.16c-.41-1.11.45-2.29.14-3.62-.2-.85-1.04-1.03-1.82-.96,1.61,1.71-1.18,2.96-.33,4.53l-1.59.05c-.64-1.41-1.61-2.6-1.53-4.08-.48-.88-1.55-.3-2.3-.49l.69,1.17c-1.46.61-.63,2.38-.99,3.35l-1.79.05c-.29-.66-.28-1.45-.23-2.26-1.81-.38-.94-2.78-2.96-2.5v1.36c-1.71.81-.48,2.21-.73,3.4h-1.92l-.81-1.29c1.35-1.27-1.34-2.11-1.43-3.09-1.04,1.09-1.22,2.81-1.57,4.38h-1.56c.52-2.74-2.67-2.79-3.8-4.57-2.02-1.06-.68,1.93-2.48,1.34-1.37,0-.29-1.41-.97-2l-.86.19.68.47c.74,1.17-.29,2.12-.97,3-1.37.19-1.14-1.55-1.84-2.33.6-.48.79-.86,1.16-1.33-1.93.47-5.47-1.35-5.75,1.61-1.16-.1-2.32,1.06-3.27,0l1.92-1.61c-.58-.19-1.72.27-2.1-.66.39-.59.86-.69,1.35-1,5.56.41,10.83-.26,16.11.2-.62-.08-1.02-.25-1.28-.46h11.75Zm-29.31,0c.09.81.11,1.6-.74,1.92-.26-.56-.41-1.23-.46-1.92h1.2Zm-2.33,0l-.24,1.42c-.62-.17-.72-.76-.72-1.42h.96Zm-4.99,0l-.04.08-.51-.06.55-.02h0Zm-22.16,0l-.93.96c.09.87-.2,1.8.2,2.57,1.44.22,1.04-1.7,2.1-2.11l-.17-1.42h1.3c.05,1.26.17,2.45.5,3.53,6.83,0,13.04-.18,19.78.22v-1.36c.94.12,1.83.59,2.5,1.36,2.67.17,5.08,2.5,7.66,1.62.91.71,1.97,1.29,3.11,1.78h-9.11c-.86-.29-1.8-.36-2.84-.17l-.1.12-1.72.05c.02-.78-.02-1.64-.87-1.78-.66-.08-1.34,0-1.45.67v1.11h-.87c-.17-.58-.39-1.11-.73-1.57-6.26-.49-13.18.08-19.12-.49-.67.4-.4,1.04-.5,1.62l1.02.44h-2.46c0-1.41-.35-2.66-1.72-3.62,1.21-.83,1.8-2.05,2.06-3.51l2.33-.02h0Z"/>
  <path class="cls-2" d="m72.79,115.66c-.74-2.12-1.82-5.18-4.59-5.47.95,1.44.09,5.1,2.98,4.34,1.24.45.47,1.72.69,2.56-1.55,2.4.92,5,1.43,7.11,1.61.59.46,2.6,1.82,3.45,3.15,1.06-1.26-1.26.19-2.79,0-.94.76-1.72,1.65-2.01-1.08-1.34-1.26-3.84-3.19-3.95-1.16-.55-1.45-2.12-.97-3.25h0Zm-5.07-3.65c-.08-.88-.57-1.93-1.35-2.13-.94,1.37-2.86,2.8-2.77,4.43l.2-.22c.56-.45,1.53-.28,1.9.44.38.92.2,2.18-.74,2.74-1.26.29-1.75-1.14-2.7-1.61l-3.47,4.22c-1.72,1.04.39,2.41-.47,3.67-.97.37-1.45-.61-1.82-.97-.4.46-.96.73-.78,1.43h1.93c1.44.4,1.05,2.02,1.82,2.98l-2.3.97c-.67-.58-1.45-.86-2.3-.78-.98.37-2.12,1.05-2.32,2.12,7.01.38,15.76.19,22.38.19-3.04-5.47-5.15-11.51-7.19-17.46h0Zm32.09,20.04c-.88-.56-.21-1.88-1.45-2.12l-.2.52c.49.36.77,1.92,1.65,1.6h0Zm-4.61-8.34l1.42,2.83.56,1.11-.56-1.11.2-1.38c-.48-.67-.96-.96-1.62-1.45h0Zm-.29-.4v-1.13l-.86-1.15.86,2.28h0Zm1.14,4.15l-4.11-8.07c-.88-.09-1.47,1.25-1.84,2.03l1.13.76-.17,1.37c-.96.46-1.17-.89-1.92-.97-1.27.85-2.12,2.69-2.69,4.22l1.33.86-.19,1.15c-.67,1.65-2.4,1.85-3.92,1.65-1.45,3.53-4.24-1.54-6.45-.98l2.98,2.31c1.53-.17,2.79,3,4.12.48,4.62.4,9.71.4,14.32,0-1.35-.77-.78-2.79-2.6-2.98-.19-.67-.49-1.34,0-1.82h0Zm36.2,11.71v-.87c-.77-.26-.59.59-.86.87h.86Zm-5.29.7c0-.8.09-2.33-.96-2.71l-.18,1.54,1.14,1.17h0Zm5.29-3.18l-.2-.3c-.75,1.23-3.06.3-2.97,1.91,1.16.4,2.02-1.32,3.18-1.61h0Zm-57.62-4.14c-.68-.5-1.52,0-2.31.18l.29.49h.7c.46-.09,1.61.29,1.33-.67h0Zm66.63,4.8c-2.1-.29-.76,1.81-1.13,2.79h.47c1.24-.59.38-1.55.66-2.79h0Zm-2.98,1.14c.21-1.81-1.82-1.14-2.77-1.61v.47c1.06.11,1.71,1.81,2.77,1.14h0Zm32.47-9.22c1.53-2.3,2.97-4.99,3.65-7.86-2.2.46-1.16,3.63-3.45,4.4.27,1.34-1.55,2.3-.2,3.46h0Zm9.7-.96c-.87-2.39-2.79-5.18-4.61-7.29l-4.13,8.91c1.26-.06.86-1.03,1.53-1.81.87-.66,1.64.49,2.1.97-1.04.38,0,.84.2,1.55-.85.84-1.82,1.32-2.98,1.61-.57-.29-1.34-.87-1.34-1.61l-.27.46c-1.15.59-1.85.59-2.98-.18l-.2,2.49c3.74.19,8.83.66,13.16.51.86,1.31,2.12.35,3.18.65.74-.49,2.01-.65,2.13-1.84h-.7c-2.3,1.93-1.82-1.92-3.45-2.29-.4.48-.29,1.52-1.16,1.33-.69-1.06-1.46,1.05-2.3,0-2.02-1.33,1.04-2.5,1.82-3.46h0Zm19.11-15.64c-1.25.19-2.4.38-3.28,1.63-1.14,1.43-2.4,3.07-1.53,5.08-.76.48-.87,2.41-2.11,1.34-1.07,1.15-1.73,2.41-1.82,3.96,1.62.97.57,3.35.86,4.6,1.55-3.46,5.76-7.4,3.46-11.54.59-.56,1.25-2.3,2.31-1.31,1.07-1.15,1.71-2.35,2.12-3.75h0Zm9.21,11.32c-2.11-4.23-5.19-8.45-7.86-11.99-3.17,6.14-5.18,13.25-9.22,18.64,7.58,1.32,14.4.46,22.37.74-.59-.74-1.34-1.14-2.01-1.62-2.2-.1-5.67,1.34-6.9-1.15-.11-1.64,2.1-2.12,2.96-1.82l-.97-1.64,1.64-1.15h0Zm-14.77,10.38l-.68-.3.28.97.4-.67h0Zm-4.34-3.45c-1.14-.21-1.83,1.13-2.58,1.34h1.15c.47-.48,1.53-.48,1.43-1.34h0Zm20.93-5.77h-.66v.86h.66v-.86h0Zm-.66,0h.66-.66Zm-3.25,16.52c-.09-1.49-.35-2.96-.69-4.32.48-.88,1.37-1.72,2.62-1.34,2.23,1.2,2.23,3.4,2.1,5.66h-4.03Zm-41,0c.69-.09,1.31-.36,1.82-.86l.51.86h-2.33Zm-4.91,0c.57-.25,1.09-1.16,1.73-.19l1.35.21-3.08-.02h0Zm-4.84,0c.6-.85,2.17-.22,3.5,0h-3.5Zm-3.59,0l.18-.19c1,.17,2.13-.25,2.93.19h-3.11Zm-5.94,0l.83-.19c.56-.15,1.01-.06,1.41.19h-2.24Zm-24.77,0l-.22-.86c1.05.37,2.21-.67,3.08-.94.88.68.35,1.21-.08,1.81h-2.79Zm-2.91,0l.19-.69c1.04-.46,1.36.1,1.64.69h-1.82Zm-6.91,0c1.34-.9,3.39-.69,4.8-1.53l.48.48c.06.77-.56.9-1.09,1.07l-4.19-.02h0Zm-61.79,0c.52-2.9-.35-6.57-.42-8.94.11-.47.57-.77.38-1.34-.38-.67-1.34-1.04-1.34-1.92l1.81-.86,15.65-21.91.29-1.61c.88.88.96,2.98,2.79,3.46.68.67,1.26-.29,1.82-.47.9.56.3,1.71.49,2.57,3.66,5.01,5.38,11.23,10.08,15.37-.09,1.35.08,2.79.68,3.45,3.73-3.65,5.64-8.16,8.83-12.2.17-.48-.09-1.24.65-1.61.4,1.24.89,2.49,2.33,3.25l1.15-.48c.17,3.08,2.58,5.28,2.78,8.37.67,1.25.77,2.49,1.99,3.66h.67c.12.75-.09,1.52.5,2.11l.95-.94c.29,1.22-.76,3.06,1.34,3.44,8.08-.38,15.74,1.03,24.02.17.48-.56-.08-2.4,1.16-1.81.38.56.47,1.26,1.15,1.64,1.54-.09,3.17-.97,3.66-2.5,1.51-.19.67,2.02,2.3,2.3,1.33,1.15,2.57.19,2.98-1.15l1.62,2.01c8.65-.49,15.74.97,24.01.29,2.87-1.05-2.01-4.15,1.8-3.46,2.52-3.75,3.96-7.87,5.97-11.83,1.55-.38,2.8-1.92,3.94-2.77,2.3,4.51,5.57,8.64,8.36,12.96,1.44,0,.87-2.02,1.34-2.98,4.51-2.9,5.1-7.79,8.07-11.52.85-1.9,2.01-3.75,2.49-5.78,1.35,1.46,2.32-.67,3.46-.96,1.35-.47.59-1.81,1.44-2.49,1.06.97-.39,3.18,1.33,3.85,2.9,5.39,7.13,10.57,9.91,16.13,1.92,1.54,2.49,4.44,5.08,4.88.28,1.28-2.5,2.14-.68,3.18-1.06,1.86-1.06,4.15-.97,6.45h-1.79c.4-1.49.7-2.96-.87-4.13-.97-1.47.47-2.41,1.81-2.32-5.56-1.7-12.76-.37-18.9-1.15-.76.49-.48,1.56-.2,2.1.58,0,.77-1.05,1.54-.67l.47.67h.68c.85,1.36,2.12.29,3.06,1.17,0,.56-.28,1.05-.76,1.34l-.19-.2c-1.06.2-.77,1.73-1.16,2.49l.94-.36.4,1.07-5.26-.02c0-1.09-.13-2.16-.5-3.18h-.39c.08,1.06-.29,1.93-.29,2.99l-.57.19h-1.87c-.2-1.51-.86-2.86-.71-4.52-1.65,1.06-1.28,2.76-1.14,4.52h-.99c.02-.9-.28-1.81-1.15-2.22-.07.73-.03,1.48,0,2.22h-1.37c.04-.65,0-1.3-.25-1.81-.72.32-.56,1.01-.39,1.81h-1.34l-.3-1.05c-.27-1.07-1.74-1.74-2.59-1.93,0,.56,0,1.06.29,1.45-1.26,3.05-2.51-.98-4.43-.49-.49-1.36.67-2.2,1.15-2.97-.58-.4-1.34-.22-2.1-.3-.97.49-.97,1.74-.88,2.77-.96.7-1.36,2.97-2.78,2.11.58-1.52-.97-2.69-.68-4.39-1.25.85-2.01-.6-3.27-.49-1.13.19.41,1.15-.47,1.64l-1.55-.49c-.18,1.05.41,2.33-.46,3.08-1.16-.67-1.35-2.13-2.3-3.08l-20.54-.19c.09.94-1.26,2.79.28,3.63.29.4.76-.36,1.35-.17.56.27.54.59.38.88l-3.49-.02c-.57-.42-1.2-.67-1.58,0h-2.56c-.76-1.4-2.24-2.39-3.32-3.38-.75,1.77,2.88.77,1.54,3.19l.4.19h-3.09c.1-.55.37-1.36-.28-1.53v1.53h-3.69c.23-.36.34-.81.23-1.34-.4.21-1.16.75-1.48,1.34h-2.02c-1.17-1.92-3.34-2.15-3.42-4.79l-20.06-.19c-1.64.77-2.22,2.69-2.33,4.12,4.81-.48,6.53.76,10.87,0,.28.68-.01.81-.4.86h-11.75c-1.17-1.05,1.54-3.54.44-5.28h-.3c-.47.59-1.15,1.07-1.82.49l.29-.87c-.98-1.44-2.22.28-3.28,0-.58,1.05.21,2.12.21,3.15-.68.49-.98,1.65-2.05,1.17l-.63-.88c-1.76-1.15-1.27-2.87-1-4.23h-3.26c-.11.85.28.85.79,1.47-.31,1.22-1.74,2.69-3.09,2.97-1.05-.59-.76-1.62-1.14-2.5-1.24.68-1.93,1.82-2.69,3.18l-.03,1.34h-1.21c-.1-1.3.09-2.7.28-3.84-.09-.59,1.24-.86.46-1.44-1.3,1.15-1.54,3.29-1.86,5.28h-.97c.01-.77.16-1.64-.15-2.22,0-.67.87-1.42,0-1.91-.85.59-.28,1.91-1.41,2.12-.98-1.25.07-3.37-.89-4.61h-.76v2.11c-1.59,1.31.04,3.11-.81,4.52h-.56l-.17-.19c.4-1.34-.66-1.06-1.62-1.34-.2-2.6.57-5.48-1.17-7.41-5.65-.96-12.57-.08-18.71-.69-2.2,1.75,2.09,1.18,2.3,3,.39,1.95.19,4.34.27,6.64l-1.3-.02c.05-2.56,1.61-5.18-1.47-6.17l-.96,2.33c.4.57,1.06.46,1.43,1.14-.1.9.09,1.93-.2,2.7h-2.33Z"/>
  <path class="cls-2" d="m203.02,117.08v1.34c-.87.32-2.41.59-2.99-.46,0-.88.68-1.17,1.34-1.53.68,0,1.54-.19,1.65.65h0Z"/>
  <path class="cls-2" d="m70.31,122.58c-1.65,1.53,2.11,5.26-2.12,5.07-1.44-2.12-3.84,1.73-4.11-1.82,1.04-1.72,3.24-1.42,5.06-1.82-.28-.86-1.14-1.16-1.91-1.43l-.66.73-.22-.27c.4-1.32,2.22-1.82,3.18-.86l.77.4h0Z"/>
  <path class="cls-2" d="m176.98,124l-.47.48-.2-1.17c.58-.27.4.4.67.69h0Z"/>
  <path class="cls-2" d="m199.74,124.48c-.48.57-1.62.57-1.52,1.53.67.59,2.87-.08,2.49,1.93.84,1.82-1.36,1.05-2.12,1.53-1.26-1.53-3.17,1.63-4.13-1.16-.38-1.53,1.43-1.53,2.3-2.01.67-.38-.29-.65-.19-1.15.58-.97,2.31-2.23,3.16-.67h0Z"/>
  <path class="cls-2" d="m94.5,127.46c-.39.86-1.14,1.63-.28,2.47-.59.52-1.54.23-2.29.32-1.75-1.06.29-2.21.93-3.08l1.64.29h0Z"/>
  <path class="cls-2" d="m60.14,135.06v.67c-.79.18-.98-.86-1.65-.86.29-.88,1.25-.29,1.65.19h0Z"/>
  <path class="cls-2" d="m70.03,135.06l-.49.97c-.49-.29-1.34-.29-1.53-.97.66,0,1.41-1.07,2.02,0h0Z"/>
  <path class="cls-2" d="m65.9,136.7c.68.77-.39,2.47.96,2.76-.27-2.29,1.04-1.99,2.69-2.29h.29v6.91c-1.45.29-3.93-.76-5.08.86l-.95-.48c2.96-1.13,1.15-5.18,1.62-7.75-.77-.12-.87-1.18-.47-1.65,1.04.09,0,1.53.96,1.65h0Z"/>
  <path class="cls-2" d="m58.78,136.4c-.47,2.39-.17,5.66-.28,7.68h-2.97c.18-2.58-.4-5.57.47-7.68l.67.76c.67-.18,1.26-1.52,2.11-.76h0Z"/>
  <path class="cls-2" d="m212.22,138.5l-.19,1.37c-.77-.21-.77-1.65.19-1.37h0Z"/>
  <path class="cls-2" d="m97.17,139.66c.22.86-.45,1.52-1.13,1.15l.48-1.37.66.21h0Z"/>
  <path class="cls-2" d="m77.62,141.94l-.21.2c-.85-.2-1.35-1.42-.46-1.99.56.29.86,1.04.67,1.79h0Z"/>
  <path class="cls-2" d="m171.7,141.94l-.28.7c-.57-.11-1.45-.4-1.63-1.16l.46-.67c.6.16.97.75,1.45,1.12h0Z"/>
  <polygon class="cls-2" points="150.2 141.94 150.68 141.94 150.68 140.99 150.2 140.99 150.2 141.94 150.2 141.94"/>
  <path class="cls-2" d="m72.32,143.79l-.18.96-.97-.3c.2-.26.69-1.34,1.14-.66h0Z"/>
  <polygon class="cls-2" points="61.48 144.26 61.48 144.75 60.33 144.75 61.48 144.26 61.48 144.26"/>
  <path class="cls-2" d="m59.45,148.89c-.47,1.03-1.52,1.6-2.78,1.33l-.48-.4,2.12-.74c-.29-.61-1.07-.77-1.82-.69.57-.85,2.3-.38,2.97.5h0Z"/>
  <path class="cls-2" d="m70.03,149.83l.68.67c-.59.48-1.36,1.74-2.52,1.65l-.66-.97c1.62-.56-.21-1.52-.29-2.28l-.88-.5c.58-1.05,1.93.69,2.99-.18.57.36.87.87.68,1.61h0Z"/>
  <path class="cls-2" d="m129.26,150.03h-1.33c-.3-.75.29-1.45.85-1.64h.48v1.64h0Z"/>
  <path class="cls-2" d="m65.42,154.15l-.47.49c-.4-1.34.08-3-1.35-3.92l1.35-.49c.84,1.06.38,2.69.47,3.92h0Z"/>
  <polygon class="cls-2" points="99.96 150.22 99.8 151.18 99.5 151.18 99.5 150.22 99.96 150.22 99.96 150.22"/>
  <path class="cls-2" d="m111.31,151.18c.2.66-.47.46-.67.66-.49-.2-1.26-1.13-.3-1.62.61.28.8.39.97.96h0Z"/>
  <path class="cls-2" d="m134.83,150.49v.48c-.67,0-1.33,0-1.42-.74l1.42.27h0Z"/>
  <polygon class="cls-2" points="57.84 151.18 57.64 151.84 57.16 151.84 57.16 150.97 57.84 151.18 57.84 151.18"/>
  <path class="cls-2" d="m23.07,156.26c.76.76,1.06,1.84.86,2.99-2.87.67-1.55,5.76-5.28,3.92-.94-2.29-4.13-1.04-4.13-3.73.11-2.01,2.61-2.42,2.32-4.62.75-.96,2.09-1.05,3.15-.68.67,1.09,1.72,2.12,3.08,2.12h0Zm-2.31,4.79c0-1.44-2.5-.94-2.12.49.39.58.96.87,1.62.69l.49-1.18h0Zm-3.06-1.13c.74-1.33-1.47-2.6-2.03-1.15,0,.57-.1,1.15.46,1.42l1.57-.27h0Zm5.07-1.82c0-1.25-2.39-1.25-2.3.19.19.48.66,1.25,1.46.97.36-.39,1.22-.31.84-1.16h0Zm-2.78-2.12c-.17-1.64-2.97-.97-2.29.77.36.68,1.03.27,1.61.38.29-.38.96-.48.68-1.15h0Z"/>
  <path class="cls-2" d="m191.5,157.42l-.68.18v-1.14c.56,0,.49.67.68.96h0Z"/>
  <path class="cls-2" d="m252.06,162.52c-.28.94-.47,2.1-1.62,2.5-2.01-.11-4.51,3.54-5.96.19,1.17-2.33-4.21-4.53,0-6.17,1.94.13,3.38-3.06,5.3-.94.76,1.44.76,3.25,2.29,4.42h0Zm-2.95-3.27c-.79-.88-2.41-.39-2.13.94.41.4.77.86,1.45.68.48-.47.76-.95.67-1.62h0Zm-1.64,5.08c.39-.94-.67-1.05-1.14-1.15-.6.21-.99.5-.99,1.15.1.77.77,1.07,1.45,1.15.48-.16.86-.56.67-1.15h0Zm3.26-1.8c-.2-.49-.58-.86-1.16-.76-.66.27-1.14.86-.96,1.62l1.16.46c.76.1,1.05-.74.96-1.32h0Zm-4.61-1.47c-.19-1.04-2.59-.94-2.11.49.2.57.47.79,1.13.68.5-.2,1.28-.28.97-1.17h0Z"/>
  <path class="cls-2" d="m77.62,160.4c.27.65-.4.47-.67.65l-.68-.46c0-.76,1.06-.48,1.35-.19h0Z"/>
  <polygon class="cls-2" points="79.23 160.59 79.05 161.55 78.76 161.55 78.76 160.4 79.23 160.59 79.23 160.59"/>
  <path class="cls-2" d="m81.54,161.06l-.48.7c-.48,0-.97-.79-.39-1.17l.87.46h0Z"/>
  <polygon class="cls-2" points="86.45 162.69 86.81 162.69 86.81 161.35 86.45 161.35 86.45 162.69 86.45 162.69"/>
  <polygon class="cls-2" points="185.25 162.88 185.06 163.17 185.06 162.03 185.25 162.88 185.25 162.88"/>
  <path class="cls-2" d="m174.4,162.69v.48h-.68c-.29-.48.49-1.05.68-.48h0Z"/>
  <path class="cls-2" d="m46.31,163.68c.1.76-.85.17-1.14.65l-.2-1.15c.5,0,1.05-.07,1.34.5h0Z"/>
  <path class="cls-2" d="m76.95,164.83l-.5.86-.66-.48c.08-.46.78-.97,1.17-.37h0Z"/>
  <polygon class="cls-2" points="46.13 165.69 45.62 166.34 44.67 166.17 45.16 165.02 46.13 165.69 46.13 165.69"/>
  <path class="cls-2" d="m46.13,167.49c-.12.59-.67.77-.97,1.16-.29-.49-.77-1.06-.2-1.53l1.17.37h0Z"/>
  <path class="cls-2" d="m91.43,171.73c-.97.09-2.3,1.64-3.18.19l-.66-.65c-.49.38-.84,1.81-1.92,1.14-.39-.49-.08-1.25-.19-1.83,1.44-2.57,2.97,2.31,3.93-.94l.47-.98c0,1.25,1.27,1.92,1.54,3.07h0Z"/>
  <path class="cls-2" d="m94.69,170.27c.59.8-.08,1.55-.47,2.13-.58.09-.97-.19-1.14-.68.08-.66.76-1.72,1.61-1.45h0Z"/>
  <path class="cls-2" d="m173.06,172.4c-.2.76-1.24,1.24-1.83.67-.27-.46-.97-1.25,0-1.61.69.08,1.64.08,1.83.94h0Z"/>
  <path class="cls-2" d="m95.85,173.55c-.2.87-.79,1.45-1.64,1.83-1.24-.57-3.55.29-4.12-1.14,1.44-1.36,3.94-1,5.76-.69h0Z"/>
  <path class="cls-2" d="m175.84,174.91c.08.55-.19,1.03-.68,1.13-1.92-.11-4.21.48-5.08-1.34.39-1.54,2.01,0,3.17-.46l2.6.67h0Z"/>
  <path class="cls-2" d="m206.47,183.24l.49.4c-1.07,1.43-3.08,1.43-3.75,2.78,1.81,1.33,4.5.6,6.24-.2l.67.2c-1.24,2.02-4.41,1.63-6.44,2.98.68,1.93,3.37,2.02,3.93,3.44-6.05-1.13-14.29-5.83-19.77.31-2.98,0-4.31,3.73-6.03,5.73,0,3.86-6.05,5.89-5.48,9.94,3.75-3,6.41-7.22,10.38-9.94.45.6-.1,1.65.85,2.02,3.27-1.81,6.25-4.31,9.51-6.13l-12,11.91c-.76-.37-.29-1.91-1.62-1.54-1.07,2.02-4.33,2.12-3.65,4.6.18.99,1.25,1.46,2.01,1.14,3.83-1.14,7.2-3.24,11.03-4.39.11.59-1.06,1.71-2.02,1.34-4.52,2.31-8.44,4.64-12.95,6.92-3.09-1.16-5.67,1.93-8.46,2.77,1.45-2.49,3.74-4.58,5.3-7.09l-.48-.49c-2.22,1.44-4.15,4.61-6.24,6.24.76-4.59,4.11-7.69,4.11-12.19.57-.96.97-2.3,2.13-2.59,3.06-2.52.19-7.78,4.41-9.42,2.97-2.01-1.15-4.4,1.34-6.24-.49-2.11,1.44-3.74,2.99-4.6,2.67-.41,4.97-2.5,8.05-1.37,5.19,1.17,9.9,5.28,15.46,3.46h0Zm-31.31,22.77c-.85-.48-.76-4.5-1.92-1.34.77.96.3,3.46,1.92,2.98v-1.64h0Zm1.56-1.83c-.2-.65-.4-1.79-1.17-1.79l.48,1.99.69-.19h0Zm3.73-3.93c-1.07-1.72-.66-4.9-2.98-5.28-.31,2.21.19,4.72,1.34,6.73,1.33.56.84-.97,1.64-1.45h0Zm4.61-8.73c-.68-2.11-3.73-1.08-4.61.66-.87,1.45-.58,3.57.67,4.61,1.33-1.34,3.94-3.25,3.94-5.27h0Zm3.17-1.14l-3.46-2.5c-1.53.17-3.27-2.6-4.32-.29,3.35-.67,5.56,2.18,7.78,3.75v-.96h0Zm11.33-3.46c-3.37-.97-7.69-4.24-10.86-.69-1.25.48-.47,1.74,0,2.29,3.55-.64,7.2-2.29,10.86-1.6h0Zm.94-1.64c-4.23-1.64-8.44-5.4-13.62-3.65-1.45.85-3.65,2.5-2.99,4.32,1.82,1.07,3.17-2.12,5.1-2.49,1.92-.58,4.8-.88,6.62.19,1.72.19,2.98,2.5,4.89,1.64h0Z"/>
  <path class="cls-2" d="m172.08,192.17c.77,1.36,2.22-.76,2.61.98-.97,4.11-3.08,7.68-4.14,11.69-.19,3.64-2.7,6.91-3.93,10.37h-.5v-6.23l-1.32-.67c0-5.45-.2-11.15.2-16.61.96,2.1.09,5.38.66,7.86.46,1.82.58,4.33,2.98,4.6,1.16-1.44.57-3.64,1.44-5.3l-1.44-1.15,3.93-16.11h.49l-.97,10.55h0Z"/>
  <path class="cls-2" d="m73.76,183.24c-.57-.27-.66-1.05-.27-1.44l.27,1.44h0Z"/>
  <path class="cls-2" d="m94.04,206.3c.08-1.73-3.08-2.13-1.81-3.44,1.32-.7,2.28.84,2.67,1.8-.58.38.38,1.82-.86,1.64h0Zm-1.65,0c-1.24.27-1.07-1.26-2.29-.99l.47-1.14c.59.6,1.54.77,1.82,1.64v.49h0Zm-3.25-3.92c-1.35.48-1.64-1.16-2.04-1.84-.18-.76.32-1.45.87-1.66.79.32,1.85.6,1.92,1.66.11.76-.16,1.32-.75,1.84h0Zm-2.5-12.52c2.02-.96,4.22-.67,5.95-2.77.96,0,2.47-.08,1.91,1.42.19.68-.28.68-.76.89-.89.46-.97,2.01-2.52,2.1-.08-.67-.66-1.14-1.13-1.65-1.94.21-.68,3.67-3.28,2.31,0-.76-.74-1.53-.18-2.31h0Zm-.49-2.96c-.19-1.26-1.62-1.72-2.78-1.85l-.66.21c.86-.58,3.17-2.22,4.89-.88-.18,1.93,1.83-.09,2.51,1.16l1.13-.49c.61,1.07-1.13,1.95-1.81,2.52-1.37-.19-1.92-2.52-3.27-.67h0Zm-2,5.93c-.86-.27-1.72-.76-2.31-1.51-.49-2.03.48-3.18,1.83-3.95,1.81-.77,1.52,1.12,2.48,1.81-2.58.21.6,3.18-2,3.65h0Zm.86,2.12l.96.48-.48.49-.48-.97h0Zm.96,6.73c-.48.48-1.54.97-2.29.38-.39-.56-.39-1.52.18-2.01.96-1.64,2.5.4,2.11,1.64h0Zm-2.78,6.14c-.86,0-1.06-1.53-1.64-2.3l1.16-1.35c.48,1.07,3.07,2.99.48,3.66h0Zm-2.3-5.45l.18-.69.77.38-.96.32h0Zm-2.12-3.96v-1.82c1.33,1.82,5.08-1.05,4.23,2.79-.67,1.61-2.21.48-2.79,0,0-.97-1.25-.5-1.44-.97h0Zm0,6.72c-.6-.96,0-2.76,1.44-2.27-1.36.67.77,2.45-1.44,2.27h0Zm-1.14-10.66c1.62-1.41.55-4.4,3.06-5.07-.19.96.39,2.2-.47,2.77.47.89,1.92.2,2.02,1.44.09,1.05.2,2.6-1.34,2.31l-3.26-1.45h0Zm15.45,5.76h.68v1.16c-1.07-.18-1.81.38-2.69.67-.87-2.28,1.17-.67,2.02-1.82h0Zm-2.8-7.76c.88.67,2.89.09,2.8,1.51-.84,1.26-2.02,1.65-3.45,1.44-1.37-1.16.56-1.91.66-2.95h0Zm2.12,5.25c.1.87-.46,1.57-1.34,1.36-.87.21-1.73-.67-1.92-1.36.59-1.41,2.7-1.41,3.25,0h0Zm2.11,0c-.67.23-1.06-.57-1.14-.95-.86-1.63,2-1.53,1.33,0l-.19.95h0Zm.69-7.36c1.91-.4,2.29,1.81,3.45,2.79l-.49,3.44c-2.2-.86-3.65-2.78-4.6-4.61,1.06-.19,1.65,2.89,2.79.5.39-1.64-2.51-.4-1.14-2.12h0Zm.46,10.54l-.29-2.94c1.07-.1.79,1.13,1.45,1.61-.39.48-.3,1.54-1.17,1.33h0Zm-18.03,4.23c-2.34.15-3.99-1.88-5.52-3.61l-.92-.99.92.99c1.57,1.27,3.77,1.5,5.52,2.46v1.15h0Zm-9.9-11.14l-.67-.19c-.1-.65.77-1.32,1.15-1.32-.1.45.29,1.26-.48,1.51h0Zm34.09,19.88l-.2.19c-1.16.21-2.49,1.95-3.46.49-.09-.59.77-1.35,1.15-2.09.58-.6.11-1.66-.66-1.84.39-2.58-2.4-.49-3.28-1.64.19-3.35,2.03-6.12,4.14-8.74,1.74-1.91-1.35-3.25,0-5.28.74-3.54-1.93-6.63-3.65-9.01-3.56-2.4-8.66-4.14-12.87-2.01-4.32,2.09-6.83,6.03-6.72,10.84,1.06,1.95.95,4.91,3.25,5.96-1.44,3.85-4.03,0-6.03.49-1.35-.49-1.35-1.84-.7-2.62l-1.14.27c-.47-.27-1.52-.76-1.14-1.62-.19-1.44,1.05-1.04,1.81-1.13-.94-.88-1.14-3.56-2.96-2.52.07-.94-.11-1.82-.98-2.28-1.61-3.95,3.08-2.22,4.41-3.75.11-1.17,1.54-2.03.97-3.19l-2.12,2.02c-.67.28-1.14.2-1.61-.47.28-.59.87-.39,1.43-.39.76-.6,1.14-1.54.68-2.32-1.82,1.72-2.31-1.82-4.13-.76,0,1.07.86,1.75.86,2.79-1.42,1.05-2.01-2.14-3.45-2.03-.4.89.87,1.64-.19,2.32-1.54-.19-2.41-1.82-2.32-3.26-.66-.49-1.52-.1-2.1.46l.48.69c1.72.86,2.31,2.69,2.8,4.42,3.81,1.63-.97,6.61,3.15,7.57,1.52,3.25,3.26,6.06,5.76,8.74,4.81,2.5,6.05,7.31,11.8,7.41,4.33,2.38,8.55-.7,12.88-.96.47.48,1.35,1.13.67,1.84l-1.35-.42v2.5c.69.96,1.85,2.59,3.25,1.62.6-.56,2.23-1.34,1.56-2.3h0Z"/>
  <path class="cls-2" d="m75.59,199.57c-.76.29-1.92-.88-1.64-1.61.49.73,2.02.27,1.64,1.61h0Z"/>
  <polygon class="cls-2" points="127.62 211.59 127.44 212.05 126.96 211.59 127.62 211.59 127.62 211.59"/>
  <path class="cls-2" d="m94.69,238.95c-1.05,2.58,2.88,3.35,1.36,5.75-1.14,1.55-3.19.86-4.34,2.33-1.24.67-2.47,0-3.25-1.17.87-2.5-4.3-5.65.5-6.64,2.01.88,3.91-3.44,5.74-.27h0Zm-2.99,5.75c0-1.45-2.38-.94-2.09.49.11.67.76.75,1.44.67.17-.41.88-.49.65-1.16h0Zm3.49-1.13c-.13-1.55-2.8-1.07-2.12.48l1.14.47.97-.95h0Zm-4.92-2.32c-.46-1.35-2.49-.49-2.02.97l1.37.16c.48,0,.85-.56.66-1.14h0Zm3.27-1.35c-.29-1.42-2.22-.39-1.84.68,0,.58.69.77,1.16.68.69,0,.77-.76.69-1.35h0Z"/>
  <path class="cls-2" d="m178.81,240.39c.76.57.46,1.99.18,2.74-2.19.8-.18,3.67-2.68,4.15-2.21.79-2.88-1.92-5.09-1.61-.97-.67-1.33-1.64-1.15-2.81,2.89-1.05.68-5.56,4.62-4.79,1.05,1.54,2.67,1.62,4.12,2.32h0Zm-2.3,4.3l-1.17-.38c-.29.48-.94.28-.65,1.13-.29.8.65.69,1.14.69.68-.1.77-.77.68-1.45h0Zm-2.97-1.13c-.3-.5-.79-1.26-1.46-1.17-.27.39-1.24.86-.86,1.65,0,.76.86.48,1.34.65.67,0,.67-.76.98-1.13h0Zm4.59-1.34c.59-1.26-1.42-1.55-1.82-.69l.2,1.16c.47.46,1.25.09,1.62-.46h0Zm-3.25-1.82c0-.69-.77-.69-1.16-.99-.58.21-.76.99-.66,1.64l1.15.48c.74,0,.19-.86.67-1.13h0Z"/>
  <path class="cls-2" d="m8.51,125.44l7.98.58.06-.71c.08-1.09-.18-1.97-.82-2.6-.61-.66-1.6-1.03-3-1.12-1.35-.09-2.38.12-3.06.69-.66.56-1.05,1.42-1.11,2.62l-.05.53h0Zm9.03.63l5.1.37c1.01.06,1.64.06,1.92-.04l.67-.63c.17-.3.28-.84.33-1.71l.49.05-.65,9.38-.49-.03c.08-.85.03-1.45-.12-1.75l-.56-.69c-.24-.15-.87-.25-1.88-.33l-11.96-.83c-1-.08-1.64-.07-1.9.04l-.68.61c-.17.29-.27.86-.33,1.7l-.49-.02.57-8.03c.19-2.64.77-4.51,1.8-5.58,1.03-1.1,2.24-1.6,3.66-1.49,1.19.08,2.2.55,2.98,1.33.82.81,1.31,1.86,1.53,3.2.16.87.16,2.39.02,4.45h0Z"/>
  <path class="cls-2" d="m11.43,102.93c-.39,1.62.12,3.08,1.58,4.35,1.21,1.04,3.06,1.89,5.63,2.53,3.06.74,5.45.79,7.17.06,1.21-.5,1.98-1.41,2.31-2.77.22-.9.19-1.72-.09-2.45-.36-.88-1.11-1.72-2.23-2.47-1.14-.76-2.68-1.36-4.67-1.85-2.37-.59-4.19-.81-5.48-.67-1.27.15-2.23.51-2.9,1.07-.65.56-1.08,1.3-1.31,2.2h0Zm-.87-.07c.6-2.88,2-4.97,4.22-6.34,2.21-1.35,4.64-1.67,7.31-1,2.26.56,4.08,1.71,5.48,3.48,1.84,2.34,2.38,5.08,1.55,8.32-.8,3.23-2.49,5.45-5.14,6.65-2.05.96-4.26,1.17-6.62.59-2.66-.67-4.66-2.13-5.97-4.39-1.32-2.24-1.58-4.67-.83-7.3h0Z"/>
  <path class="cls-2" d="m32.84,79.63l5.56,3.38-6.9,14.79-.44-.21.26-.54.28-1.28-.36-.77c-.15-.16-.66-.47-1.5-.88l-11.03-5.14c-.85-.41-1.42-.61-1.69-.61l-.8.28-.78,1-.24.57-.43-.23,4.15-8.9.44.19-.36.73-.29,1.3.36.78c.16.19.69.48,1.51.88l10.68,4.95c.87.44,1.42.63,1.71.65l.8-.35c.17-.16.44-.64.81-1.43l.64-1.39c.39-.88.59-1.69.56-2.41-.04-.73-.28-1.48-.77-2.23-.46-.74-1.27-1.61-2.4-2.6l.25-.53h0Z"/>
  <path class="cls-2" d="m43.78,72.59l.4.25-5.07,8.16-.41-.24.32-.52.43-1.25-.27-.82c-.13-.19-.57-.55-1.37-1.05l-10.33-6.42c-.81-.52-1.34-.79-1.58-.83l-.86.17-.87.91-.32.53-.4-.27,5.08-8.14.41.23-.33.52-.44,1.26.27.81c.13.17.6.53,1.41,1.03l10.3,6.45c.81.5,1.34.77,1.6.81l.85-.2.87-.9.33-.5h0Z"/>
  <path class="cls-2" d="m40.5,47.66l3.89,3.14-.31.33c-1.07-.48-1.93-.76-2.54-.77-.61-.04-1.22.09-1.84.36-.35.15-.79.59-1.33,1.26l-.88,1.07,11.09,9c.72.59,1.23.9,1.48.98l.87-.08.96-.78.38-.47.36.3-6.04,7.46-.36-.29.38-.48.58-1.17-.16-.85c-.12-.19-.52-.59-1.25-1.2l-11.09-8.95-.83,1.03c-.77.97-1.13,1.82-1.08,2.6.07,1.07.59,2.09,1.51,3.1l-.33.43-3.88-3.14,10.42-12.87h0Z"/>
  <path class="cls-2" d="m49.24,40.89l4.93,5.65.28-.25c.88-.74,1.28-1.59,1.2-2.49-.1-.89-.56-1.95-1.37-3.1l.4-.34,6.36,7.25-.42.35c-.75-.71-1.51-1.19-2.21-1.48-.7-.29-1.3-.36-1.81-.22-.51.14-1.07.49-1.75,1.06l3.4,3.92c.67.76,1.11,1.21,1.32,1.33l.76.09.99-.58.83-.74c1.33-1.14,2.1-2.32,2.36-3.61.25-1.29.02-2.7-.7-4.21l.38-.33,3.22,4.97-12.02,10.45-.31-.35.48-.39.76-1.09v-.84c-.08-.23-.41-.68-1.03-1.4l-8.02-9.18c-.53-.63-.87-1.03-1.05-1.14l-.84-.2-1.33.64-.46.39-.32-.38,11.65-10.12,3.59,4.12-.41.38c-1.08-.84-1.98-1.34-2.71-1.47-.73-.12-1.55,0-2.37.36-.48.2-1.27.77-2.3,1.7l-1.45,1.25h0Z"/>
  <path class="cls-2" d="m73.21,21.72l3.4,5.44-.46.28c-1.24-1.21-2.54-1.93-3.94-2.11-1.39-.17-2.68.09-3.86.84-.95.6-1.67,1.45-2.13,2.52-.46,1.05-.59,2.18-.42,3.31.28,1.47.84,2.91,1.73,4.35.88,1.38,1.83,2.58,2.93,3.49,1.06.93,2.15,1.45,3.28,1.6,1.11.1,2.27-.21,3.47-.96.99-.61,1.75-1.38,2.3-2.34.55-.94.94-2.2,1.21-3.85l.83,1.37c-.29,1.45-.8,2.7-1.49,3.7-.69,1.01-1.68,1.89-2.93,2.69-1.67,1.05-3.38,1.64-5.07,1.78-1.72.13-3.31-.21-4.8-1-1.49-.84-2.67-1.95-3.56-3.36-.93-1.49-1.43-3.17-1.48-5-.04-1.81.35-3.49,1.21-5.06.85-1.57,2.04-2.81,3.52-3.75,1.1-.69,2.39-1.17,3.93-1.45.86-.16,1.39-.29,1.58-.43l.49-.67-.22-1.08.48-.29h0Z"/>
  <path class="cls-2" d="m83.3,17.06l12.69,7.2-2.95-7.36c-.42-1.03-.85-1.68-1.29-1.93-.62-.29-1.38-.28-2.34.1l-.17-.4,5.65-2.3.17.44c-.68.38-1.13.69-1.31.96l-.28.94c0,.38.16.99.48,1.81l5.78,14.27-.44.16-17.32-9.61,4.42,10.91c.41,1,.89,1.58,1.47,1.74.6.15,1.19.12,1.79-.11l.4-.17.17.44-6.08,2.47-.18-.44c.93-.38,1.52-.86,1.74-1.41.2-.51.13-1.24-.25-2.13l-4.88-12.1-.53-.31c-.56-.34-1-.53-1.34-.53l-1.28.22-.19-.41,6.08-2.45h0Z"/>
  <path class="cls-2" d="m111.67,27.07l.12.46-9.38,2.16-.11-.46.61-.15,1.17-.56.39-.77c.06-.24-.04-.78-.24-1.7l-2.74-11.85c-.21-.94-.4-1.52-.55-1.72l-.76-.47h-1.24s-.59.13-.59.13l-.12-.45,9.38-2.15.12.45-.63.13-1.18.58-.39.77c-.04.23.04.8.25,1.7l2.74,11.89c.22.9.4,1.47.55,1.7l.74.46,1.26-.02.59-.13h0Z"/>
  <path class="cls-2" d="m127.87,6.4l.67,6.35-.53.06c-.56-1.61-1.43-2.83-2.62-3.61-1.16-.77-2.42-1.09-3.79-.94-1.14.12-2.15.54-3.04,1.3-.88.77-1.49,1.72-1.82,2.83-.42,1.43-.56,2.97-.37,4.66.16,1.62.52,3.09,1.1,4.39.56,1.33,1.3,2.29,2.26,2.87.94.6,2.13.8,3.54.69,1.14-.12,2.17-.5,3.08-1.09.9-.63,1.81-1.6,2.76-2.94l.15,1.59c-.9,1.17-1.88,2.05-2.96,2.66-1.04.59-2.31.96-3.82,1.13-1.95.21-3.73,0-5.32-.62-1.6-.64-2.89-1.65-3.88-3.01-.97-1.41-1.55-2.94-1.74-4.57-.18-1.77.1-3.47.85-5.14.76-1.66,1.85-3.02,3.31-4.03,1.47-1.04,3.07-1.65,4.82-1.82,1.27-.15,2.68,0,4.16.4.85.25,1.4.36,1.63.32l.73-.39.32-1.07.51-.04h0Z"/>
  <path class="cls-2" d="m142.82,7.97c-1.68-.12-3.01.65-4.03,2.29-.82,1.38-1.31,3.35-1.49,6-.23,3.13.16,5.5,1.18,7.08.68,1.1,1.74,1.7,3.12,1.78.94.08,1.72-.09,2.39-.49.84-.53,1.51-1.4,2.06-2.64.52-1.25.86-2.9,1-4.92.17-2.42.08-4.26-.28-5.51-.38-1.24-.89-2.13-1.56-2.68-.68-.54-1.48-.85-2.39-.9h0Zm-.1-.86c2.95.08,5.27,1.09,6.99,3.04,1.69,1.95,2.46,4.28,2.28,7-.18,2.35-1,4.35-2.49,6.02-1.97,2.21-4.63,3.22-7.91,2.98-3.32-.25-5.79-1.54-7.45-3.9-1.31-1.86-1.88-4.01-1.73-6.45.21-2.73,1.28-4.93,3.27-6.6,1.99-1.7,4.35-2.39,7.05-2.08h0Z"/>
  <path class="cls-2" d="m169.7,13.29l-4.43,13.73c-.25.71-.36,1.15-.35,1.34l.24.48.92.53c1.47.47,2.71.34,3.82-.4,1.45-.97,2.64-2.87,3.55-5.68.74-2.25.97-4.18.69-5.73-.22-1.23-.72-2.21-1.47-2.85-.53-.48-1.52-.94-2.97-1.42h0Zm-12.06,14.42l.16-.44.57.19,1.25.11.81-.45c.13-.15.36-.69.66-1.64l3.74-11.53c.29-.9.43-1.49.42-1.74l-.39-.77-1.08-.65-.59-.18.15-.45,7.85,2.55c2.09.67,3.68,1.52,4.76,2.5,1.37,1.17,2.19,2.64,2.54,4.3.36,1.7.23,3.42-.36,5.2-.39,1.24-.97,2.32-1.68,3.23-.74.9-1.53,1.61-2.37,2.08-.86.46-1.77.77-2.73.92-.95.15-2.06.12-3.33-.04-.55-.06-1.41-.27-2.53-.63l-7.86-2.56h0Z"/>
  <path class="cls-2" d="m184.8,37.66l-.19.44-8.73-4.07.2-.44.56.27,1.3.28.76-.37c.17-.15.46-.66.86-1.52l5.15-10.99c.41-.88.6-1.45.61-1.68l-.29-.83-.97-.76-.56-.28.21-.4,8.69,4.05-.2.41-.56-.26-1.27-.26-.76.38c-.19.12-.49.63-.86,1.49l-5.15,11.02c-.39.85-.6,1.39-.62,1.69l.3.82,1,.75.53.25h0Z"/>
  <path class="cls-2" d="m219.13,40.1l-3.14,3.87-.37-.29c.49-1.07.78-1.93.81-2.56.04-.58-.08-1.21-.38-1.83-.17-.33-.59-.8-1.25-1.32l-1.09-.88-8.97,11.1c-.59.71-.93,1.21-1,1.44l.08.89.79.99.47.36-.3.36-7.46-6.04.29-.35.48.36,1.17.61.84-.18c.22-.11.62-.51,1.2-1.23l8.97-11.11-1.03-.82c-.96-.77-1.82-1.15-2.59-1.08-1.07.07-2.12.56-3.13,1.49l-.4-.32,3.13-3.86,12.88,10.41h0Z"/>
  <path class="cls-2" d="m227.27,49.78c-1.13-1.28-2.62-1.7-4.5-1.23-1.53.39-3.32,1.46-5.3,3.17-2.36,2.06-3.76,4.03-4.15,5.84-.29,1.28.02,2.41.93,3.48.62.7,1.31,1.16,2.04,1.33.98.23,2.08.09,3.32-.4,1.26-.5,2.66-1.43,4.2-2.77,1.84-1.61,3.06-2.98,3.68-4.09.6-1.14.88-2.14.77-3.01-.08-.85-.42-1.62-1.01-2.31h0Zm.53-.69c2,2.12,2.94,4.52,2.76,7.09-.17,2.56-1.29,4.77-3.35,6.55-1.76,1.54-3.77,2.38-6,2.51-2.98.18-5.54-.99-7.72-3.49-2.17-2.5-3.02-5.19-2.5-8.02.4-2.22,1.51-4.15,3.35-5.76,2.07-1.78,4.4-2.58,7.02-2.39,2.59.23,4.73,1.39,6.44,3.52h0Z"/>
  <path class="cls-2" d="m235.67,95.16l-.44.17-3.74-8.82.43-.16.22.54.77,1.09.83.23c.24,0,.8-.19,1.65-.54l11.21-4.74c.87-.38,1.38-.68,1.56-.87l.35-.76-.25-1.24-.23-.56.44-.19,3.78,8.84-.46.18-.24-.57-.76-1.05-.81-.26c-.25,0-.8.19-1.67.55l-11.18,4.74c-.9.35-1.41.67-1.6.86l-.32.8.22,1.24.23.53h0Z"/>
  <path class="cls-2" d="m255.11,98.51l-8.68,11.72,7.63-2.03c1.1-.29,1.78-.64,2.06-1.04.41-.57.47-1.34.22-2.33l.43-.13,1.58,5.9-.48.12c-.28-.74-.55-1.2-.77-1.42l-.92-.41c-.37-.06-1,.04-1.84.28l-14.87,3.96-.11-.42,11.66-16.03-11.37,3.06c-1.04.25-1.69.69-1.92,1.24-.22.6-.26,1.17-.11,1.8l.11.39-.45.13-1.7-6.34.45-.12c.3.96.68,1.6,1.17,1.89.51.28,1.23.28,2.17.04l12.61-3.38.38-.52.67-1.24c.08-.33.06-.77-.07-1.32l.45-.12,1.69,6.33h0Z"/>
  <path class="cls-2" d="m258.81,123.74c-.16-1.7-1.14-2.92-2.92-3.64-1.48-.59-3.52-.77-6.16-.55-3.13.27-5.4,1.04-6.78,2.25-.99.87-1.42,2.02-1.3,3.39.07.92.39,1.72.89,2.28.64.74,1.62,1.27,2.91,1.62,1.32.32,2.99.42,5.03.23,2.43-.21,4.22-.6,5.39-1.16,1.15-.54,1.96-1.19,2.38-1.97.45-.73.62-1.55.56-2.46h0Zm.83-.26c.38,2.91-.28,5.37-1.92,7.36-1.66,1.99-3.86,3.12-6.57,3.35-2.34.19-4.43-.28-6.33-1.51-2.52-1.61-3.89-4.06-4.18-7.37-.3-3.3.6-5.95,2.68-7.96,1.64-1.57,3.67-2.47,6.11-2.67,2.72-.24,5.06.5,7.05,2.18,2,1.7,3.05,3.92,3.16,6.63h0Z"/>
  <path class="cls-2" d="m39.26,186.04l-13.33,7.12c-1.02.53-1.61.89-1.86,1.14l-.39.92c-.03.36.12.88.46,1.49l.2.38-.44.2-4.54-8.57.41-.23.22.45c.38.69.72,1.17,1.04,1.38l.99.23c.32-.04,1.03-.35,2.05-.9l8.47-4.5c.74-.4,1.2-.68,1.36-.87l.26-.65-.17-.77c-.21-.42-.59-.86-1.18-1.3l.33-.44,5.91,4.53.21.4h0Z"/>
  <path class="cls-2" d="m38.37,203.9l-.91-.07c-.39.04-.84.21-1.42.43-.56.25-1.13.58-1.65.98-.69.56-1.18,1.04-1.53,1.57-.32.54-.45,1.02-.43,1.51l.43,1.22c.39.53.92.84,1.6.9.65.04,1.33-.18,2.02-.67,1.41-1.07,2.06-3,1.89-5.86h0Zm3.9.43c.56,0,1.12-.1,1.64-.29.57-.22,1.1-.5,1.66-.92.92-.71,1.48-1.46,1.68-2.25.16-.58.03-1.12-.37-1.69-.36-.49-.86-.76-1.45-.84-.62-.07-1.17.08-1.69.46-.53.41-.94,1.01-1.21,1.82-.28.82-.36,2.06-.25,3.71h0Zm.06,1.27c.02,1.58-.13,2.86-.48,3.77-.35.89-.97,1.64-1.82,2.28-1.17.9-2.52,1.22-4,.97-1.52-.29-2.83-1.21-3.97-2.76-1.13-1.44-1.62-2.83-1.5-4.16.12-1.37.7-2.42,1.75-3.19.8-.62,1.65-.89,2.57-.89s2.08.37,3.37,1.07c0-1.82.17-3.14.5-3.89.31-.73.84-1.4,1.57-1.96.99-.74,2.18-.98,3.56-.7,1.38.28,2.63,1.13,3.72,2.58,1.06,1.4,1.55,2.74,1.45,4.01-.08,1.26-.61,2.21-1.53,2.93-.7.52-1.47.79-2.29.76-.87,0-1.82-.27-2.9-.8h0Z"/>
  <path class="cls-2" d="m56.59,209.71l-6.53,3.42.82.74c1.74,1.7,2.41,3.72,2.49,4.9.15,1.9-1.28,3.07-2.8,4.17-.6.45-1.33,1-2.09,1.13-1.36.24-2.86-.81-2.77-1.82.06-1.09.45-1.76.46-2.14l-.15-1.1-.74-.83-1.14-.07c-.49.15-.86.45-1.1,1.16-.23,1.04-.45,1.82.29,3.5.58,1.29,3.06,2.92,4.3,3.29,1.25.4,2.47.42,3.68.08,1.22-.32,2.22-.9,3.01-1.72,1.25-1.31,1.76-2.83,1.59-4.65-.2-2.22-1.67-4.75-3.85-7l1.77-.84,3.26,3.14c.86.81,2.83,1.96,4.18,1.33l1.51-.7-6.21-6.01h0Z"/>
  <path class="cls-2" d="m67.59,231.49c.6-.77,1.16-1.51,1.6-2.13.96-1.38,1.69-2.72,2.18-4.11.28-.75.35-1.44.22-1.99l-.55-.73-1.19-.13c-.62.23-1.33.96-2.2,2.2-1.44,2.05-2.2,3.65-2.24,4.78-.04.73.21,1.26.75,1.66.3.21.76.35,1.42.44h0Zm-11.56,2.87l.25-.3c1.43.57,2.74.87,3.99.93,1.24.04,2.39-.15,3.47-.63,1.08-.46,2.05-1.16,3.01-2.06-.63-.1-1.13-.21-1.5-.33l-1.11-.59c-1.16-.8-1.82-1.89-2.02-3.23-.17-1.36.23-2.77,1.23-4.17.71-1.02,1.55-1.74,2.51-2.31,1.01-.55,2.03-.77,3.12-.71,1.09.08,2.05.42,2.85,1.01.89.62,1.55,1.44,1.99,2.51.42,1.05.53,2.2.34,3.5-.23,1.28-.73,2.56-1.61,3.76-1.11,1.59-2.56,2.85-4.35,3.79-1.78.9-3.71,1.3-5.83,1.13-2.13-.19-4.24-.94-6.34-2.3h0Z"/>
  <path class="cls-2" d="m194.92,222.26l8.44,12.51c.64.96,1.08,1.52,1.32,1.71l.97.31c.38-.04.85-.23,1.44-.61l.35-.23.26.4-8.05,5.41-.27-.39.4-.25c.67-.45,1.07-.83,1.24-1.18l.15-1.03c-.08-.31-.44-.94-1.1-1.93l-5.36-7.93c-.48-.72-.83-1.13-1.01-1.27l-.66-.19-.79.23c-.37.27-.76.69-1.16,1.32l-.48-.25,3.92-6.37.38-.25h0Z"/>
  <path class="cls-2" d="m215.05,219.22c-.63-.81-1.2-1.51-1.72-2.08-1.1-1.22-2.29-2.22-3.51-3.04-.69-.45-1.3-.65-1.89-.65l-.85.37-.39,1.13c.09.62.66,1.51,1.67,2.62,1.68,1.88,3.06,2.94,4.13,3.27.72.19,1.3.04,1.82-.38.26-.23.5-.65.74-1.26h0Zm.2,11.89l-.28-.3c.89-1.28,1.5-2.49,1.82-3.71.32-1.2.37-2.37.17-3.52-.21-1.13-.64-2.24-1.31-3.4-.24.59-.47,1.07-.69,1.4l-.82.94c-1.04.96-2.22,1.36-3.61,1.22-1.34-.12-2.62-.83-3.79-2.13-.81-.9-1.35-1.89-1.65-2.97-.31-1.1-.3-2.15.03-3.17.3-1.05.84-1.89,1.57-2.58.8-.71,1.79-1.17,2.89-1.35,1.13-.18,2.3-.05,3.51.45,1.2.51,2.31,1.3,3.31,2.41,1.31,1.45,2.2,3.12,2.7,5.07.5,1.95.43,3.92-.21,5.96-.66,2.01-1.88,3.91-3.66,5.67h0Z"/>
  <path class="cls-2" d="m226.86,204.92c-2.54-1.99-4.04-3.12-4.48-3.42-1.06-.69-1.85-1.05-2.41-1.05l-1.04.56-.29.95c.04.46.34,1,.9,1.58.55.57,2.73,2.36,6.48,5.29,2.07,1.59,3.51,2.62,4.31,3.02.6.29,1.06.4,1.39.33l.87-.61.29-1.06c-.18-.62-.64-1.26-1.45-1.96l-4.58-3.65h0Zm2.59-3.27c1.46,1.15,2.66,2.39,3.61,3.77.55.85.95,1.68,1.12,2.5.18.78.21,1.55.07,2.29-.11.73-.41,1.44-.88,2.06-.55.68-1.22,1.18-2.02,1.46-.8.29-1.71.41-2.69.29-.74-.04-1.61-.28-2.62-.68-1.31-.53-2.58-1.26-3.73-2.18-1.57-1.22-2.87-2.58-3.83-4.05-.8-1.24-1.25-2.43-1.25-3.63s.35-2.22,1-3.04c.64-.86,1.55-1.4,2.7-1.7,1.16-.29,2.34-.21,3.59.21,1.69.57,3.35,1.47,4.92,2.71h0Z"/>
  <path class="cls-2" d="m234.95,190.03c1.05.69,1.84,1.2,2.33,1.48,1.1.63,2.21,1.12,3.36,1.5,1.13.4,1.99.51,2.62.4l.97-.69-.06-1.34c-.27-.51-1.03-1.15-2.33-1.91-2.16-1.25-3.83-1.84-4.97-1.8-.74.03-1.25.33-1.58.9-.2.33-.32.81-.33,1.47h0Zm-5.28-10.44l.37.15c-.28,1.68-.3,3.1-.08,4.28.21,1.17.66,2.2,1.27,3.11.66.9,1.55,1.75,2.7,2.57l-.11-1.13c.07-.59.22-1.18.47-1.72.51-1.29,1.44-2.16,2.72-2.63,1.29-.44,2.74-.32,4.31.35,1.13.48,2.08,1.13,2.82,1.98.71.86,1.18,1.82,1.32,2.87.14,1.09.02,2.09-.38,3.06-.45,1.04-1.14,1.86-2.09,2.5-.95.67-2.06.99-3.38,1.03-1.33.04-2.62-.21-3.93-.76-1.9-.82-3.47-2.03-4.73-3.62-1.26-1.62-2-3.47-2.28-5.58-.24-2.08.07-4.24,1-6.46h0Z"/>
  <path class="cls-2" d="m239.75,68.56c-.2.9-.87,1.76-2.05,2.51-.79.57-1.55.86-2.24.9-.7.04-1.31-.14-1.86-.55-.56-.38-1.17-1.09-1.87-2.14l-.45-.65,6.67-4.49.83,1.21c.84,1.2,1.13,2.28.96,3.2h0Zm2.38.73c-.33-1-1.11-2.47-2.36-4.3l-4.8-7.13-.39.3c.49.67.74,1.19.78,1.52l-.15.89c-.15.25-.63.67-1.46,1.21l-10,6.73c-.83.56-1.37.86-1.64.9l-.86-.18c-.31-.17-.71-.6-1.17-1.3l-.4.27,5.28,7.8.4-.23c-.48-.72-.73-1.24-.78-1.57l.16-.9c.13-.24.63-.63,1.45-1.2l4.3-2.91.68,1.01c-.37,3.57-.85,4.68-1.63,6.56-1.68,3.21-1.25,3.59-.83,4.74l2.08,3.15.4-.27-.32-1.34c.01-.31,1.02-1.17,2.02-3.48.72-1.68.93-3.78,1.03-5.33.86.77,1.88,1.07,2.73,1.24,1.28.31,2.47.1,3.62-.68.93-.61,1.54-1.45,1.87-2.41.32-1.01.32-2.03,0-3.08h0Z"/>
  <path class="cls-2" d="m130.62,182.1c-.48.76-.97,1.91-.39,2.95l1.52,1.35c.59-.77,1.75-1.35,1.46-2.48-.97-.7-1.17-1.83-.66-2.79.57-.97,1.82-1.13,2.69-.67.85.39,1.23,1.64.75,2.5-1.07.48-.57,1.55-.75,2.3l1.14,1.14c1.14,0,1.14-1.35,2.1-1.79-.2-.99-1.44-2.43,0-3.27.38-.8,1.65-1.28,2.31-.21,1.05.48.58,1.42.66,2.3-.47.77-1.9,1.17-1.32,2.3.47.47,1.13,1.35,1.8.67,1.85-1.14.21-3.94,2.32-4.79,1.24,0,1.92.76,2.3,1.82.47,1.61-2.78,2.3-1.34,3.65,3.26.48,1.25-4.8,4.8-3.86.38.89,2.4,2.03.67,2.98-.77.69-2.21,1.17-1.63,2.3,2.29.99,4.5-4.68,6.24-.64.18,1.15-1.27,1.43-1.82,2.3-3.19-.67-4.13,2.67-6.26,4.11.39,2.05-2.69,3.27-.86,5.3l-3.45,2.49c3.83,2.03,8.53,1.16,12.68.32,3.24,8.34,2.67,19.39.37,28.1-.87,2.03-1.82,4.15-2.7,6.16-4.42,8.91-10.75,17.66-19.38,23.53-19.02-11.35-27.36-33.34-23.24-54.35.1-1.92,1.26-4.32,3.66-2.95,2.95.93,6.43.16,9.02-1.18-.49-1.34-3.74-1.74-2.11-3.73.57-1.74-2.5-2.52-1.85-4.62-1.89-2.01-3.72-4.74-6.7-5.11-.39-.49-.11-1.14-.22-1.82.69-.86,2.04-1.14,3.01-.67.74,1.35,2.01,2.49,3.42,2.96l.97-.67c-.39-1.91-3.65-1.72-2.78-4.41.68-.88,1.71-1.44,2.78-.88,1.35,1.18.68,4.26,3.46,4.34,2.13-2.14-4.79-4.05,0-5.95,1.05-.19,2.13.66,2.29,1.61-.75,1.47.21,2.71,1.17,3.66.96.09,1.06-1.06,1.54-1.62-.69-.96-1.82-1.93-1.35-3.44,1.05-1.34,3.55-1.48,3.66.75h0Zm-9.89,40.98c-2.2-.84-5.95-.26-8.94-.44v.44c3.17,0,6.05.5,8.94,0h0Zm-2.32-2.29c-1.92-.86-4.4-.28-6.61-.47l-.28.47c1.91,1.24,4.6.48,6.9.69v-.69h0Zm31.61.69c-.37-.69-.67-2.02-1.85-1.84-.56,1.25,1.25,2.38,1.65,3.43.39-.36.1-1.05.2-1.6h0Zm5.95-1.84v-.67l-4.8-.31c-.59,1.34,2.5,1.55,1.17,2.99.93,0,2.57.2,3.63-.18v-.21c-.77-.59-2.11.21-2.7-.76.21-1.76,1.74,0,2.7-.87h0Zm-12.18-.67c-.59-.31-1.07-.12-1.35.17l.86.49.49-.67h0Zm-27,0c-.86-1.38-3.37-.47-4.99-.77v.94l4.99-.17h0Zm39.47-1.94c-4.61-.86-8.93-.09-13.65-.67-.18.51-1.07-.08-.67.67,1.63.77,4.04.67,5.59-.17,2.39,1.89,5.96.08,8.74.65v-.48h0Zm-37.54-.36c-2.41-.4-5.39-.4-7.4,0,2.29.27,5.47.27,7.4,0h0Zm37.25-1.65c-4.02-.57-9.31-.87-14.22-.68v.86c4.62.41,9.61.41,14.22,0v-.18h0Zm-32.93.18v-.86l-11.52-.29-.47.49c3.83,1.25,7.49.48,11.99.66h0Zm32.93-1.82v-.68l-15.65-.25v.73l15.65.19h0Zm-32.26-.93c-3.85-.42-7.97-.12-11.91-.2l.19.68h11.52l.2-.48h0Zm32.07-1.84c-6.06-.3-12.22-.3-17.77,0,5.48,1.24,12.01.66,17.77.48v-.48h0Zm-31.58,0v-.19c-4.34-.49-7.99-.22-12.4-.3v.49c3.94.37,8.36.37,12.4,0h0Zm30.9-2.5h-19.37l.66.86,19.21-.16-.5-.69h0Zm-30.61,0c-4.04-.48-8.37-.2-12.5-.29v.77c4.61-.47,8.17.87,12.5-.29v-.19h0Zm30.61-1.64l-.46-.96h-24.01l-.39.48.39.48c8.07.37,16.41.37,24.47,0h0Zm-30.9-.19c-3.08-1.36-7.51-.49-11.25-.77l-.5.77c3.94,0,7.99.96,11.74,0h0Zm14.09,8.05c-3.05-5.37-8.63-5.66-12.47-9.04l-.21.5c2.41,1.16,0,3.36,1.17,5.07-.28,1.75-3.64,5.13.19,5.8.49-.61,1.26-1.36,1.82-.98l-1.62,2.8,2.79,2.01c-1.27.76-2.7-.79-3.96-1.54-1.91-.47-4.68-2.11-6.14-.47h2.3c1.83.47.28,2.29.38,3.44.49.59.49,2.01,1.45,1.82.2-.68-.49-1.52-.29-2.49,0-.87.85-1.26,1.62-1.14l4.63,4.31c1.24.69,1.8-1.13,2.97-.2-.37,1.27-2.11,1.47-3.45,1.65,1.24,1.34,1.72,3.25,3.08,4.31,4.97,1.84,2.37,7.88,5.45,11.52,1.54,4.32-4.97,4.89-3.92,9.05,1.91-.21,1.15-2.34,2.1-3.28.96-2.88,5.27-3.17,4.42-6.91.56-3.08,3.56-5.01,6.43-5.48-3.64-.38-4.22-4.39-6.04-6.71.39-3.37-1.53-5.08-1.32-8.06-.8-1.82-.21-4.31-1.38-5.97h0Zm-11.12-9.98l18.05-.2-18.44-.19.39.39h0Zm-1.83-.2v-.19c-1.33,0-2.79-.19-3.93.19h3.93Zm16.12-5.3c-4.79-1.33-11.8-2.56-16.12.21,4.15,1.74,9.4.69,14.12.96l2-1.17h0Zm-8.73-3.73c-.97-.56.96-1.91-.67-1.81l-.29,2.09.97-.29h0Zm3.66-6.13c-.97-.42-1.14-1.44-1.82-2.12-1.64-.69-1.25,1.8-2.8,2.12-.27-1.15-1.52-1.15-2.28-1.63-.96.48-.69,1.43-1.36,2.02-.67.19-1.15-.21-1.62-.38-.89,3.24-4.14-.78-4.62,2.49,1.92-.58,3.56,1.33,5.08-.96,1.55,2.79,2.02-1.25,3.94-.39,1.82,3.37,3.47-2.98,5.28,1.34.96-.18,1.82-2.49,2.8-.67,1.15,1.92,2.76-.77,4.13-.29-.68-1.06-1.58.19-2.51-.19-.76-.87-1.34-1.93-1.62-2.98-1.16-.38-1.54,1.32-2.6,1.63h0Zm-.86,67.48c-1.44.49-3.36-1.06-3.95.49l3.95-.29v-.21h0Zm2.77-2.08c-3.15-.42-6.53-.13-9.69-.2l.18.67,8.74.18.76-.65h0Zm1.85-2.03c-1.15-.21-3.19-.78-3.75.38,1.14.39,2.6.39,3.75,0v-.38h0Zm-8.08.19c-1.63-1.64-3.82.19-5.74-.69.28,2.12,3.35.8,5.08,1.17l.66-.48h0Zm-.29-2.29c-2.1-.5-5.07-.4-7.56-.69v1.17l7.56-.31v-.17h0Zm11.53-1.34l.76-.79-4.39-.17v.65c.55.18,1.5-.38,1.79.48-.08,2.49-2.66,0-3.45,1.34,1.45.09,2.79.88,4.14.31.19-.68-.41-1.55.46-1.82h.68Zm-11.53-.79c-3.07-.38-6.43-.09-9.59-.17l-.28.17.94.48,8.93-.48h0Zm13.86-1.55l-.21-.75c-1.35.39-3.56-.76-3.95.96l4.16-.2h0Zm-11.93-.75c-4.32-.41-8.82-.09-13.14-.18v.46c4.02.47,8.06.29,12.68.68l.47-.96h0Zm13.54-1.54c-.86-1.17-2.69,0-3.66,0,1.16,0,2.8.99,3.66,0h0Zm-12.21-.75c-5.36.08-11.51-.11-16.13,0l.21.75,16.42.2-.5-.95h0Zm13.67-1.55c-1.36,0-3.96-.19-4.91.21l4.91.16v-.38h0Zm-12.97,0c-6.16-.19-11.52-.67-17.51-.48l-.26.69c6.05-.4,12.2.84,17.77-.21h0Zm13.82-1.62v-.69h-4.81v.87l4.81-.18h0Zm-14.7-.69c-2.41.19-4.99-.55-7.68-.29l.29.7,6.63.29.76-.69h0Zm-14.78,0c-.88-.48-2.02-.19-2.98-.29v.7l2.98-.4h0Zm30.63-1.62c-1.04-1.44-2.89-.39-4.13,0,1.24.39,3.08.09,4.13.2v-.2h0Zm-30.15-.49c-1.54-.19-4.05-.67-4.9,0,1.53.42,3.35.42,4.9,0h0Zm31.11-1.63l-1.63-.17c.08.45.56.86,1.14.65l.48-.49h0Zm-29.28,0v-.86h-7.58l.18.86h7.4Zm30.44-2.01c-.29-.76-1.05-.39-1.64-.48l-.2.88c.59.59,1.55.1,1.83-.4h0Zm-26.3-.48c-3.86-.49-8.16,0-12.01-.49l-.38.69c4.23-.29,8.62.59,12.39,0v-.21h0Zm22.35-1.62l-.68-.48c-.38.28-.47,1.16.21,1.16l.47-.68h0Zm4.63.19l-.21-.4c-1.04,0-2.58-1.15-2.78.4h2.99Zm-26.98-.68c-4.34-.48-8.47.09-12.39-.48l-.79.48c4.24.38,8.93.38,13.17,0h0Zm27.65-1.63c-1.35-.29-3.46-.29-4.61,0,1.42.4,3.73.4,4.61,0h0Zm-8.53,0l-.7-.38-.19.67.89-.29h0Zm-18.65-.2v-.64h-14.01l.19.64c4.22.12,9.22.77,13.83,0h0Zm27.67-2.11l-5.29-.19c-.59.29,0,.69.19.96,1.81-.56,4.21,1.24,5.1-.77h0Zm-9.72,0l-.86-.19.21.69.66-.5h0Zm10.18-2.01c-.39-.97-1.42-.21-1.61.16l1.15.5.46-.67h0Zm-6.03.48l-.37-.97-.31.97h.68Zm-4.8-.32v-.65l-.97.49.97.16h0Zm11.52-1.81l-.18-.45c-.78-.23-2.41-.67-2.61.45h2.79Zm-12-.18c-.22-.5-.22-.94-.87-.77v.94l.87-.18h0Zm2.29,0l-.45-.28.28.93.18-.65h0Zm-15.59,6.52c-.87-.19-1.09,1.25-1.34,1.87-.29.71-.35,1.41-.29,1.99.09,1.26.22.92.41,1.8-.73.03-1.25.03-1.97.29-.74.29-1.24.41-2.14.67-.67.22-1.46.09-2.1.5-.55.4-1.1.97-1.39,1.57l-.26.89.8.32c.75-.09.95-.99,1.49-1.49,1.2-1.07,3.27-1.66,4.8-1.66.9,0,1.19.6,2.36,1.34l.66-.25.38-1.65c.19-1.29.39-1.91.79-3,.21-.61.08-1.29-.28-1.5l-1-.89-.92-.79h0Z"/>
</svg>